<?xml version="1.0" encoding="UTF-8"?>
<svg id="Layer_2" data-name="Layer 2" xmlns="http://www.w3.org/2000/svg" width="23.77968mm" height="49.94275mm" viewBox="0 0 67.40697 141.57">
  <defs>
    <style>
      .cls-1 {
        fill: #010101;
      }

      .cls-1, .cls-2, .cls-3 {
        stroke: #010101;
      }

      .cls-1, .cls-3 {
        stroke-width: .54px;
      }

      .cls-2 {
        stroke-width: .51px;
      }

      .cls-2, .cls-4 {
        fill: none;
        stroke-linecap: round;
        stroke-linejoin: round;
      }

      .cls-4 {
        stroke: #231f20;
        stroke-width: .5px;
      }

      .cls-3 {
        fill: #dc702a;
        fill-rule: evenodd;
      }

      .cls-5 {
        fill: #333;
      }

      .cls-6 {
        fill: #c6c5c5;
      }
    </style>
  </defs>
  <g id="Optical_elements" data-name="Optical elements">
    <g id="Photodetector">
      <g>
        <path class="cls-3" d="M50.35283,88.72559c-1.76026,0-3.24844-.15119-4.87321-.60477v-29.48272c1.62477-.45358,3.11295-.60477,4.87321-.60477,9.20446,0,16.78414,6.8037,16.78414,15.27054,0,8.61803-7.57969,15.42173-16.78414,15.42173h0Z"/>
        <rect class="cls-1" x="40.7419" y="55.76542" width="4.73772" height="35.22807"/>
      </g>
      <g>
        <g>
          <path class="cls-5" d="M23.575,3.725l.35.02,1.39.05,1.44.03,1.45.02,1.54-.01,1.54-.03.57-.02.91-.04,1.42-.07,1.35-.09,1.26-.1,1.57-.15,1.4-.18,1.22-.18,1.28-.23,1.02-.24.77-.24.59-.26.26-.26-.06-.23-.25-.16-.43-.15-.62-.13-.8-.12-1.02-.11-1.24-.09-1.44-.08-1.09-.04-1.19-.04-1.27-.03-1.25-.03-1.32-.02-1.36-.01-1.48-.01h-3.03l-1.75.01-1.71.01-1.61.03-1.5.03-1.39.04-1.26.05-1.39.07-1.21.09-1.01.1-.93.12-.71.15-.49.16-.27.17-.07.18.14.2.35.21.56.21.82.24,1.08.24,1.34.23,1.2.17,1.36.16,1.51.14,1.82.14,1.64.08ZM.255.255h50.4v5.05H.255V.255ZM38.775,3.995h-.62v.23h-1.07l-.65.01-.38.02-.24.03-.21.04-.08.07v.07l.08.07.19.04.24.03.38.02h.26l.17.01h1.93v-.64ZM32.895,3.995h-.53l-.56.03-.52.06-.32.07-.11.06-.04.06v.07l.05.07.13.06.33.07.51.06.6.03h.45l.75-.01.55-.04.43-.06.26-.08.09-.11v-.07l-.04-.05-.27-.1-.43-.06-.62-.05-.71-.01ZM29.385,3.995h-.73l-.95.42-.04.02-.04.02-.08.03-.07-.03-.04-.01-.03-.02-.91-.43h-.68l-1.1.56v.08h.64l.64-.37.1-.06.05-.03.05-.03.16.1.09.05.1.05.62.29h.75l.86-.39.11-.05.06-.02.05-.03.05.03.08.04.07.04.65.38h.64v-.08l-1.1-.56ZM24.325,3.995h-3.2v.14h2.58v.12h-2.3v.14h2.3v.1h-2.46v.14h3.08v-.64ZM20.285,3.995h-.61v.25h-.94l-.28-.02-.25-.04-.2-.03-.18-.04-.55-.12h-.7v.08l.71.15.21.04.05.01h-.1l-.27.03-.18.05-.07.05v.07l.09.06.19.05.22.02.29.02.68.01h1.89v-.64Z"/>
          <polygon class="cls-5" points="50.655 .255 51.465 .295 52.265 .435 53.035 .655 53.785 .965 54.485 1.355 55.145 1.825 55.745 2.365 56.285 2.965 56.755 3.625 57.145 4.325 57.455 5.075 57.675 5.855 57.815 6.645 57.855 7.455 57.855 7.465 57.855 7.555 57.855 7.735 57.855 8.005 57.855 8.365 57.855 8.815 57.855 9.365 57.855 9.995 57.855 10.715 57.855 11.525 57.855 11.775 57.855 12.425 57.815 11.635 57.675 10.845 57.455 10.075 57.145 9.335 56.755 8.635 56.285 7.985 55.745 7.385 55.145 6.855 54.485 6.395 53.785 6.005 53.035 5.705 52.265 5.475 51.465 5.345 50.655 5.305 50.655 4.385 50.655 3.565 50.655 2.835 50.655 2.185 50.655 1.635 50.655 1.185 50.655 .815 50.655 .535 50.655 .355 50.655 .265 50.655 .255"/>
          <polygon class="cls-5" points="28.565 .495 30.085 .495 31.565 .505 32.925 .515 34.245 .535 35.495 .565 36.765 .595 37.955 .635 39.045 .675 40.485 .755 41.725 .845 42.745 .955 43.545 1.075 44.165 1.205 44.595 1.355 44.845 1.515 44.905 1.745 44.645 2.005 44.055 2.265 43.285 2.505 42.265 2.745 40.985 2.975 39.765 3.155 38.365 3.335 36.795 3.485 35.535 3.585 34.185 3.675 32.765 3.745 31.855 3.785 31.855 1.535 23.575 1.535 23.575 3.725 21.935 3.645 20.115 3.505 18.605 3.365 17.245 3.205 16.045 3.035 14.705 2.805 13.625 2.565 12.805 2.325 12.245 2.115 11.895 1.905 11.755 1.705 11.825 1.525 12.095 1.355 12.585 1.195 13.295 1.045 14.225 .925 15.235 .825 16.445 .735 17.835 .665 19.095 .615 20.485 .575 21.985 .545 23.595 .515 25.305 .505 27.055 .495 28.565 .495"/>
          <polygon class="cls-5" points="23.575 1.535 31.855 1.535 31.855 3.785 31.285 3.805 29.745 3.835 28.205 3.845 26.755 3.825 25.315 3.795 23.925 3.745 23.575 3.725 23.575 1.535"/>
          <polygon class="cls-5" points=".255 5.305 50.655 5.305 50.655 5.505 50.655 5.805 50.655 6.185 50.655 6.645 50.655 7.195 50.655 7.815 50.655 8.515 50.655 9.285 50.655 10.115 50.655 11.015 50.655 11.955 50.655 12.955 50.655 13.985 50.655 15.055 50.655 16.155 50.655 17.275 50.655 18.415 50.655 19.555 .255 19.555 .255 18.415 .255 17.275 .255 16.155 .255 15.055 .255 13.985 .255 12.955 .255 11.955 .255 11.015 .255 10.115 .255 9.285 .255 8.515 .255 7.815 .255 7.195 .255 6.645 .255 6.185 .255 5.805 .255 5.505 .255 5.305"/>
          <polygon class="cls-5" points="50.655 5.305 51.465 5.345 52.265 5.475 53.035 5.705 53.785 6.005 54.485 6.395 55.145 6.855 55.745 7.385 56.285 7.985 56.755 8.635 57.145 9.335 57.455 10.075 57.675 10.845 57.815 11.635 57.855 12.425 57.855 12.595 57.855 12.865 57.855 13.235 57.855 13.685 57.855 14.225 57.855 14.835 57.855 15.515 57.855 16.255 57.855 16.285 57.855 17.035 57.855 17.855 57.855 18.705 57.855 19.555 57.815 19.555 57.675 19.555 57.455 19.555 57.145 19.555 56.755 19.555 56.285 19.555 55.745 19.555 55.145 19.555 54.485 19.555 53.785 19.555 53.035 19.555 52.265 19.555 51.465 19.555 50.655 19.555 50.655 18.415 50.655 17.275 50.655 16.155 50.655 15.055 50.655 13.985 50.655 12.955 50.655 11.955 50.655 11.015 50.655 10.115 50.655 9.285 50.655 8.515 50.655 7.815 50.655 7.195 50.655 6.645 50.655 6.185 50.655 5.805 50.655 5.505 50.655 5.305"/>
          <polygon class="cls-5" points="57.815 19.555 57.855 19.555 57.855 22.565 57.855 118.345 57.855 121.345 57.815 121.345 57.675 121.345 57.455 121.345 57.145 121.345 56.755 121.345 56.285 121.345 55.745 121.345 55.145 121.345 54.485 121.345 53.785 121.345 53.035 121.345 52.265 121.345 51.465 121.345 50.655 121.345 50.655 19.555 51.465 19.555 52.265 19.555 53.035 19.555 53.785 19.555 54.485 19.555 55.145 19.555 55.745 19.555 56.285 19.555 56.755 19.555 57.145 19.555 57.455 19.555 57.675 19.555 57.815 19.555"/>
          <path class="cls-5" d="M.255,19.555h50.4v101.79h-15.21l-.5-1.26h-.69l-.5,1.26h-1.97l-.08-.06-.45-.08-.5.13-.02.01h-.79l-.19-.1-.31-.04-.48.12-.03.02h-.41v-.08h-.56v.08h-4.32l.13-.64h1.61v-.56h-2.07l-.24,1.2h-2.94l-.14-.5-.18-.32-.27-.25-.34-.15-.37-.04-.37.04-.34.15-.27.25-.19.32-.13.5H.255V19.555ZM27.575,27.295h-1.35l-1.34.09-1.33.18-1.32.27-1.3.36-1.27.44-1.24.52-1.2.61-1.15.69-1.11.76-1.06.83-1,.9-.93.97-.87,1.03-.8,1.08-.72,1.13-.65,1.18-.56,1.22-.49,1.26-.4,1.28-.31,1.31-.22,1.33-.14,1.33-.04,1.35.04,1.34.14,1.34.22,1.33.31,1.3.4,1.29.49,1.25.56,1.22.65,1.18.72,1.14.8,1.08.87,1.03.93.96,1,.91,1.06.83,1.11.76,1.15.69,1.2.6,1.24.53,1.27.44,1.3.35,1.32.27,1.33.18,1.34.09h1.35l1.34-.09,1.33-.18,1.32-.27,1.3-.35,1.27-.44,1.23-.53,1.2-.6,1.16-.69,1.11-.76,1.06-.83.99-.91.94-.96.87-1.03.79-1.08.73-1.14.64-1.18.57-1.22.48-1.25.4-1.29.31-1.3.23-1.33.13-1.34.05-1.34-.05-1.35-.13-1.33-.23-1.33-.31-1.31-.4-1.28-.48-1.26-.57-1.22-.64-1.18-.73-1.13-.79-1.08-.87-1.03-.94-.97-.99-.9-1.06-.83-1.11-.76-1.16-.69-1.2-.61-1.23-.52-1.27-.44-1.3-.36-1.32-.27-1.33-.18-1.34-.09ZM27.555,73.375h-1.31l-1.3.1-1.29.18-1.28.27-1.25.36-1.23.44-1.19.53-1.15.62-1.1.69-1.06.76-1,.84-.94.91-.87.97-.8,1.03-.73,1.08-.65,1.13-.58,1.17-.48,1.21-.41,1.24-.31,1.26-.23,1.29-.14,1.29-.04,1.31.04,1.3.14,1.3.23,1.28.31,1.27.41,1.24.48,1.21.58,1.17.65,1.13.73,1.08.8,1.03.87.97.94.9,1,.84,1.06.77,1.1.69,1.15.61,1.19.53,1.23.45,1.25.36,1.28.27,1.29.18,1.3.09h1.31l1.3-.09,1.29-.18,1.27-.27,1.26-.36,1.22-.45,1.19-.53,1.16-.61,1.1-.69,1.06-.77,1-.84.93-.9.88-.97.8-1.03.73-1.08.65-1.13.57-1.17.49-1.21.4-1.24.32-1.27.23-1.28.13-1.3.05-1.3-.05-1.31-.13-1.29-.23-1.29-.32-1.26-.4-1.24-.49-1.21-.57-1.17-.65-1.13-.73-1.08-.8-1.03-.88-.97-.93-.91-1-.84-1.06-.76-1.1-.69-1.16-.62-1.19-.53-1.22-.44-1.26-.36-1.27-.27-1.29-.18-1.3-.1ZM16.765,113.545l-.75.13-.66.39-.39.52-.21.61-.06.65.1.73.33.66.45.44.57.27.62.08.74-.12.64-.38.4-.5.22-.6.07-.63-.1-.75-.31-.68-.45-.45-.58-.28-.63-.09ZM39.165,113.605h-3.42v.5h1.4v3.87h.62v-3.87h1.4v-.5ZM35.075,113.605h-.62v2.48l-.03.52-.15.49-.18.19-.23.11-.51.07-.43-.07-.36-.24-.16-.33-.06-.37-.01-.37v-2.48h-.62v2.51l.02.44.07.42.16.41.38.39.51.2.55.05.64-.08.56-.31.31-.44.13-.53.03-.55v-2.51ZM29.285,113.605h-1.6v4.37h.61v-1.79h1.07l.52-.04.48-.17.32-.29.19-.39.06-.43-.05-.38-.15-.35-.35-.33-.45-.16-.28-.03-.37-.01ZM27.065,113.605h-3.41v.5h1.4v3.87h.61v-3.87h1.4v-.5ZM22.975,113.605h-.61v2.48l-.04.52-.15.49-.17.19-.23.11-.51.07-.43-.07-.36-.24-.17-.33-.06-.37-.01-.37v-2.48h-.62v2.51l.02.44.07.42.16.41.39.39.51.2.54.05.64-.08.56-.31.31-.44.13-.53.03-.55v-2.51Z"/>
          <path class="cls-6" d="M26.845,28.335l.28.01.95.03h.08l1.1.11.96.15.36.06.61.14.86.21,1.13.35.61.23.66.27.08.03.22.11.95.45.02.01.09.05,1.01.57.05.03.24.15.73.49.61.45.44.34.68.59.27.23.65.64.31.31.78.89.04.04.51.66.4.54.04.05.17.27.48.73.29.51.37.68.04.07.49,1.05.26.64.24.63.15.48.26.84.01.05.04.16.24,1.05.02.07.18,1.1.07.69.07.79v.03l.01.24.02.93-.03.7-.02.61-.09.77-.06.57-.02.12-.07.37-.15.82-.13.53-.21.79-.02.06-.07.2-.33.99-.02.06-.13.31-.31.76-.32.66-.28.57-.05.09-.15.25-.5.86-.02.03-.12.17-.54.81-.6.77-.16.19-.48.56-.51.55-.04.04-.19.19-.67.63-.64.54-.3.26-.69.51-.42.31-.75.48-.31.19-.71.39-.55.29-.09.04-.99.44-.96.37-.3.11-.83.25-.47.14-.83.18-.45.1-.64.1-.71.1-.6.05-.72.05-.89.02h-.31l-.77-.04-.71-.05h-.06l-.19-.03-1.08-.14-.04-.01-1.11-.22-.84-.23-.46-.13-.65-.22-.6-.21-.51-.21-.81-.36-.02-.01-.06-.03-1.07-.56-.04-.02-.92-.55-.72-.5-.49-.35-.07-.05-.29-.24-.61-.49-.43-.4-.64-.61-.02-.02-.82-.88-.06-.07-.73-.9-.57-.8-.14-.22-.57-.92-.13-.21-.31-.58-.39-.77v-.01l-.03-.06-.43-1-.26-.75-.18-.53-.04-.12-.29-1.03-.25-1.25-.01-.03-.15-1.11-.03-.25-.05-.6-.05-.92.02-1.3v-.01l.01-.06.09-1.13.08-.61.11-.7.11-.5.19-.83.01-.07.11-.36.22-.76.18-.5.33-.87v-.01l.02-.05.45-.99.45-.86.16-.28.41-.67.33-.52.06-.09.18-.24.56-.77.04-.05.7-.83.76-.8.16-.17.7-.64.3-.27.62-.49.46-.36.1-.07.93-.63.82-.48.34-.2.85-.43.27-.13,1.16-.48.03-.01.69-.24.8-.26h.01l1.1-.28.74-.14.6-.11.59-.07.75-.08.46-.02.88-.04h.08ZM27.435,32.295l-1.17.01-1.17.09-1.15.19-1.15.27-1.11.36-1.09.45-1.04.53-1,.61-.96.68-.89.76-.84.82-.77.89-.69.94-.63,1-.54,1.03-.46,1.08-.38,1.11-.29,1.14-.2,1.16-.11,1.16-.01,1.18.07,1.17.16,1.16.25,1.14.34,1.13.43,1.09.51,1.06.58,1.01.67.96.74.91.81.86.87.78.93.72.98.64,1.03.56,1.07.48,1.1.4,1.13.31,1.15.23,1.17.13,1.17.04,1.17-.05,1.16-.14,1.15-.23,1.13-.32,1.1-.4,1.07-.49,1.03-.57.97-.65.93-.72.86-.79.81-.85.73-.92.66-.97.58-1.01.51-1.06.42-1.1.33-1.12.24-1.15.16-1.16.06-1.17-.02-1.18-.12-1.16-.21-1.16-.29-1.13-.39-1.11-.46-1.08-.55-1.03-.63-.99-.7-.94-.78-.88-.84-.82-.9-.75-.95-.68-1.01-.6-1.05-.53-1.09-.44-1.11-.35-1.15-.27-1.16-.18-1.17-.09Z"/>
          <path class="cls-6" d="M25.715,33.045l1.14-.05,1.15.05,1.13.13,1.13.22,1.1.31,1.08.4,1.04.48.99.57.95.64.9.71.84.79.77.84.7.91.63.96.55,1,.46,1.05.39,1.08.29,1.11.21,1.13.12,1.14.02,1.14-.06,1.15-.16,1.13-.24,1.12-.33,1.1-.42,1.06-.51,1.03-.58.99-.66.94-.73.88-.8.82-.86.75-.92.69-.98.61-1.01.53-1.06.44-1.08.36-1.12.28-1.13.18-1.14.1h-1.15l-1.14-.09-1.13-.17-1.12-.27-1.09-.36-1.05-.44-1.02-.52-.98-.6-.92-.68-.87-.75-.8-.82-.74-.88-.67-.93-.58-.98-.51-1.03-.43-1.06-.34-1.1-.25-1.11-.16-1.14-.08-1.14.02-1.15.11-1.14.2-1.13.29-1.11.38-1.08.46-1.05.55-1.01.62-.96.69-.91.77-.85.83-.79.89-.72.95-.65,1-.57,1.03-.48,1.07-.41,1.11-.32,1.12-.23,1.14-.14ZM26.855,34.095l-1.1.05-1.09.14-1.07.22-1.06.32-1.02.41-.99.48-.94.57-.9.64-.84.71-.77.79-.71.84-.64.9-.56.94-.48.99-.4,1.03-.31,1.06-.22,1.07-.13,1.1-.05,1.1.05,1.1.14,1.09.23,1.08.32,1.05.4,1.02.49.99.56.95.65.89.71.84.78.77.84.71.9.64.95.56.99.48,1.03.4,1.05.31,1.08.22,1.09.14,1.1.04,1.1-.05,1.1-.14,1.07-.23,1.06-.32,1.02-.4.99-.49.94-.56.9-.65.83-.71.78-.78.71-.84.64-.9.56-.95.48-.99.39-1.03.32-1.05.22-1.08.13-1.09.04-1.1-.05-1.1-.13-1.09-.23-1.08-.32-1.06-.4-1.02-.49-.99-.57-.94-.64-.9-.71-.83-.78-.78-.85-.71-.89-.64-.95-.56-.99-.48-1.03-.39-1.06-.31-1.07-.23-1.1-.13-1.1-.04Z"/>
          <polygon class="cls-5" points="57.935 33.195 63.975 33.195 63.975 33.235 63.975 33.375 63.975 33.595 63.975 33.905 63.975 34.305 63.975 34.795 63.975 35.375 63.975 36.025 63.975 36.765 63.975 37.595 63.975 38.495 63.975 39.475 63.975 40.525 63.975 41.655 63.975 42.845 63.975 44.105 63.975 45.435 63.975 46.815 63.975 48.255 63.975 49.755 63.975 51.295 63.975 52.885 63.975 54.525 63.975 56.195 63.975 57.895 63.975 59.635 63.975 61.395 63.975 63.185 63.975 64.985 63.975 66.805 63.975 68.625 63.975 70.455 63.975 72.285 63.975 74.105 63.975 75.915 63.975 77.725 63.975 79.505 63.975 81.265 63.975 83.005 63.975 84.715 63.975 86.385 63.975 88.015 63.975 89.605 63.975 91.155 63.975 92.645 63.975 94.085 63.975 95.475 63.975 96.795 63.975 98.065 63.975 99.255 63.975 100.385 63.975 101.435 63.975 102.415 63.975 103.315 63.975 104.135 63.975 104.875 63.975 105.535 63.975 106.105 63.975 106.595 63.975 106.995 63.975 107.305 63.975 107.535 63.975 107.665 63.975 107.715 57.935 107.715 57.935 33.195"/>
          <polygon class="cls-6" points="25.795 34.865 26.865 34.815 27.925 34.855 28.995 34.985 30.035 35.205 31.065 35.515 32.055 35.915 33.015 36.395 33.925 36.955 34.785 37.585 35.585 38.285 36.335 39.055 37.005 39.885 37.605 40.775 38.135 41.705 38.575 42.675 38.935 43.685 39.205 44.725 39.395 45.775 39.485 46.845 39.485 47.905 39.405 48.975 39.225 50.035 38.955 51.065 38.605 52.075 38.165 53.055 37.645 53.985 37.055 54.875 36.385 55.705 35.645 56.485 34.845 57.195 33.985 57.835 33.075 58.395 32.125 58.875 31.135 59.285 30.105 59.595 29.065 59.825 28.005 59.965 26.935 60.015 25.865 59.975 24.805 59.835 23.765 59.615 22.735 59.305 21.745 58.905 20.785 58.435 19.875 57.875 19.015 57.235 18.205 56.535 17.465 55.765 16.795 54.935 16.185 54.055 15.665 53.115 15.225 52.145 14.865 51.135 14.585 50.105 14.405 49.055 14.315 47.985 14.305 46.915 14.395 45.845 14.575 44.795 14.835 43.755 15.195 42.745 15.635 41.775 16.145 40.835 16.745 39.955 17.415 39.115 18.155 38.345 18.955 37.635 19.815 36.995 20.725 36.435 21.675 35.945 22.665 35.545 23.685 35.225 24.735 35.005 25.795 34.865"/>
          <polygon class="cls-6" points="25.635 74.385 26.895 74.345 28.165 74.385 29.415 74.525 30.665 74.745 31.885 75.055 33.085 75.455 34.255 75.945 35.385 76.505 36.475 77.155 37.515 77.875 38.495 78.665 39.425 79.525 40.285 80.455 41.075 81.435 41.795 82.475 42.445 83.565 43.005 84.695 43.495 85.865 43.895 87.065 44.205 88.285 44.335 88.995 42.555 89.325 42.555 89.315 40.235 89.315 40.215 89.315 40.105 88.755 39.785 87.685 39.385 86.655 38.905 85.655 38.345 84.695 37.705 83.785 36.995 82.935 36.225 82.145 35.385 81.415 34.485 80.755 33.545 80.175 32.555 79.675 31.525 79.255 30.465 78.925 29.385 78.675 28.285 78.515 27.175 78.445 26.065 78.465 24.965 78.585 23.875 78.785 22.795 79.075 21.755 79.455 20.745 79.915 19.775 80.455 18.855 81.075 17.985 81.765 17.175 82.525 16.435 83.355 15.765 84.235 15.165 85.165 14.635 86.145 14.195 87.165 13.845 88.215 13.575 89.295 13.575 89.315 13.565 89.315 11.235 89.315 9.465 88.985 9.595 88.285 9.905 87.065 10.305 85.865 10.785 84.695 11.355 83.565 11.995 82.475 12.715 81.435 13.515 80.455 14.375 79.525 15.295 78.665 16.285 77.875 17.325 77.155 18.415 76.505 19.545 75.945 20.705 75.455 21.905 75.055 23.135 74.745 24.375 74.525 25.635 74.385"/>
          <path class="cls-6" d="M26.065,78.465l1.11-.02,1.11.07,1.1.16,1.08.25,1.06.33,1.03.42.99.5.94.58.9.66.84.73.77.79.71.85.64.91.56.96.48,1,.4,1.03.32,1.07.11.56.11.53.14,1.1.04,1.11-.04,1.11-.14,1.1-.1.52-.12.57-.32,1.06-.4,1.04-.48,1-.56.95-.64.91-.71.86-.77.79-.84.73-.9.65-.94.58-.99.51-1.03.42-1.06.33-1.08.25-1.1.15-1.11.07-1.11-.02-1.1-.11-1.09-.21-1.08-.29-1.04-.37-1.01-.47-.97-.54-.92-.62-.87-.69-.81-.76-.74-.82-.67-.88-.6-.94-.53-.98-.44-1.02-.35-1.05-.27-1.08v-.02l-.18-1.07-.09-1.11v-1.11l.09-1.1.18-1.08v-.02l.27-1.08.35-1.05.44-1.02.53-.98.6-.93.67-.88.74-.83.81-.76.87-.69.92-.62.97-.54,1.01-.46,1.04-.38,1.08-.29,1.09-.2,1.1-.12ZM26.625,79.165l-1.07.07-1.07.16-1.05.24-1.03.34-.99.42-.96.5-.91.57-.86.66-.8.72-.74.79-.67.84-.6.9-.52.95-.44.98-.35,1.02-.27,1.05-.18,1.06-.09,1.08v1.08l.09,1.07.18,1.07.27,1.04.35,1.02.44.99.52.94.6.9.67.85.74.79.8.72.86.65.91.58.96.5.99.42,1.03.33,1.05.25,1.07.15,1.07.07,1.08-.02,1.08-.11,1.06-.2,1.04-.3,1.01-.37.97-.46.94-.54.89-.62.83-.68.77-.76.7-.82.64-.87.56-.92.48-.97.39-1,.32-1.04.22-1.05.14-1.07.04-1.08-.04-1.08-.14-1.07-.22-1.06-.32-1.03-.39-1-.48-.97-.56-.92-.64-.88-.7-.81-.77-.76-.83-.69-.89-.61-.94-.54-.97-.46-1.01-.38-1.04-.29-1.06-.2-1.08-.12-1.08-.02Z"/>
          <path class="cls-6" d="M25.555,79.235l1.07-.07,1.08.02,1.08.12,1.06.2,1.04.29,1.01.38.97.46.94.54.89.61.83.69.77.76.7.81.64.88.56.92.48.97.39,1,.32,1.03.22,1.06.14,1.07.04,1.08-.04,1.08-.14,1.07-.22,1.05-.32,1.04-.39,1-.48.97-.56.92-.64.87-.7.82-.77.76-.83.68-.89.62-.94.54-.97.46-1.01.37-1.04.3-1.06.2-1.08.11-1.08.02-1.07-.07-1.07-.15-1.05-.25-1.03-.33-.99-.42-.96-.5-.91-.58-.86-.65-.8-.72-.74-.79-.67-.85-.6-.9-.52-.94-.44-.99-.35-1.02-.27-1.04-.18-1.07-.09-1.07v-1.08l.09-1.08.18-1.06.27-1.05.35-1.02.44-.98.52-.95.6-.9.67-.84.74-.79.8-.72.86-.66.91-.57.96-.5.99-.42,1.03-.34,1.05-.24,1.07-.16ZM26.895,80.245l-1.03.04-1.02.14-1,.22-.98.31-.96.4-.91.47-.87.55-.82.63-.76.7-.69.76-.63.81-.55.87-.48.92-.39.95-.31.98-.23,1.01-.13,1.02-.04,1.03.04,1.03.13,1.02.23,1,.31.99.39.95.48.91.55.87.63.82.69.76.76.69.82.63.87.55.91.48.96.39.98.31,1,.23,1.02.13,1.03.05,1.03-.05,1.02-.13,1.01-.23.98-.31.95-.39.92-.48.87-.55.81-.63.76-.69.7-.76.63-.82.55-.87.48-.91.39-.95.31-.99.22-1,.14-1.02.04-1.03-.04-1.03-.14-1.02-.22-1.01-.31-.98-.39-.95-.48-.92-.55-.87-.63-.81-.7-.76-.76-.7-.81-.63-.87-.55-.92-.47-.95-.4-.98-.31-1.01-.22-1.02-.14-1.03-.04Z"/>
          <path class="cls-6" d="M25.865,80.285l1.03-.04,1.03.04,1.02.14,1.01.22.98.31.95.4.92.47.87.55.81.63.76.7.7.76.63.81.55.87.48.92.39.95.31.98.22,1.01.14,1.02.04,1.03-.04,1.03-.14,1.02-.22,1-.31.99-.39.95-.48.91-.55.87-.63.82-.7.76-.76.69-.81.63-.87.55-.92.48-.95.39-.98.31-1.01.23-1.02.13-1.03.05-1.03-.05-1.02-.13-1-.23-.98-.31-.96-.39-.91-.48-.87-.55-.82-.63-.76-.69-.69-.76-.63-.82-.55-.87-.48-.91-.39-.95-.31-.99-.23-1-.13-1.02-.04-1.03.04-1.03.13-1.02.23-1.01.31-.98.39-.95.48-.92.55-.87.63-.81.69-.76.76-.7.82-.63.87-.55.91-.47.96-.4.98-.31,1-.22,1.02-.14ZM27.295,85.335h-.79l-.78.09-.76.18-.73.27-.7.35-.66.43-.6.5-.53.57-.47.63-.39.68-.31.72-.23.75-.13.77-.05.78.05.78.13.77.23.75.31.72.39.68.47.62.53.57.6.51.66.43.7.35.73.27.76.18.78.09h.79l.77-.09.76-.18.74-.27.7-.35.65-.43.6-.51.54-.57.47-.62.39-.68.31-.72.22-.75.14-.77.05-.78-.05-.78-.14-.77-.22-.75-.31-.72-.39-.68-.47-.63-.54-.57-.6-.5-.65-.43-.7-.35-.74-.27-.76-.18-.77-.09Z"/>
          <path class="cls-6" d="M26.505,85.335h.79l.77.09.76.18.74.27.7.35.65.43.6.5.54.57.47.63.39.68.31.72.22.75.14.77.05.78-.05.78-.14.77-.22.75-.31.72-.39.68-.47.62-.54.57-.6.51-.65.43-.7.35-.74.27-.76.18-.77.09h-.79l-.78-.09-.76-.18-.73-.27-.7-.35-.66-.43-.6-.51-.53-.57-.47-.62-.39-.68-.31-.72-.23-.75-.13-.77-.05-.78.05-.78.13-.77.23-.75.31-.72.39-.68.47-.63.53-.57.6-.5.66-.43.7-.35.73-.27.76-.18.78-.09ZM26.895,90.255l-.4.04-.38.14-.34.21-.28.29-.22.34-.13.38-.05.4.05.4.13.38.22.34.28.28.34.22.38.13.4.05.4-.05.38-.13.35-.22.28-.28.22-.34.13-.38.04-.4-.04-.4-.13-.38-.22-.34-.28-.29-.35-.21-.38-.14-.4-.04Z"/>
          <polygon class="cls-6" points="9.465 88.985 11.235 89.315 11.235 89.325 11.235 89.425 11.235 89.605 11.235 89.865 11.235 90.205 11.235 90.615 11.235 91.065 11.235 91.545 11.235 92.055 11.235 92.555 11.235 93.045 11.235 93.495 11.235 93.895 11.235 94.235 11.235 94.505 11.235 94.685 11.235 94.775 9.465 95.105 9.365 94.575 9.235 93.315 9.185 92.055 9.235 90.785 9.365 89.535 9.465 88.985"/>
          <polygon class="cls-6" points="42.555 89.325 44.335 88.995 44.435 89.535 44.565 90.785 44.615 92.055 44.565 93.315 44.435 94.575 44.335 95.105 42.555 94.775 42.555 94.685 42.555 94.505 42.555 94.235 42.555 93.895 42.555 93.495 42.555 93.045 42.555 92.555 42.555 92.055 42.555 91.545 42.555 91.065 42.555 90.615 42.555 90.205 42.555 89.865 42.555 89.605 42.555 89.425 42.555 89.325"/>
          <polygon class="cls-6" points="40.235 89.315 42.555 89.315 42.555 89.325 42.555 89.425 42.555 89.605 42.555 89.865 42.555 90.205 42.555 90.615 42.555 91.065 42.555 91.545 42.555 92.055 42.555 92.555 42.555 93.045 42.555 93.495 42.555 93.895 42.555 94.235 42.555 94.505 42.555 94.685 42.555 94.775 42.555 94.785 40.235 94.785 40.225 94.785 40.325 94.265 40.465 93.165 40.505 92.055 40.465 90.945 40.325 89.845 40.215 89.315 40.235 89.315"/>
          <polygon class="cls-6" points="13.565 89.315 13.575 89.315 13.395 90.395 13.305 91.495 13.305 92.605 13.395 93.715 13.575 94.785 13.565 94.785 11.235 94.785 11.235 94.775 11.235 94.685 11.235 94.505 11.235 94.235 11.235 93.895 11.235 93.495 11.235 93.045 11.235 92.555 11.235 92.055 11.235 91.545 11.235 91.065 11.235 90.615 11.235 90.205 11.235 89.865 11.235 89.605 11.235 89.425 11.235 89.325 11.235 89.315 13.565 89.315"/>
          <polygon class="cls-6" points="26.495 90.295 26.895 90.255 27.295 90.295 27.675 90.435 28.025 90.645 28.305 90.935 28.525 91.275 28.655 91.655 28.695 92.055 28.655 92.455 28.525 92.835 28.305 93.175 28.025 93.455 27.675 93.675 27.295 93.805 26.895 93.855 26.495 93.805 26.115 93.675 25.775 93.455 25.495 93.175 25.275 92.835 25.145 92.455 25.095 92.055 25.145 91.655 25.275 91.275 25.495 90.935 25.775 90.645 26.115 90.435 26.495 90.295"/>
          <polygon class="cls-6" points="9.465 95.105 11.235 94.775 11.235 94.785 13.565 94.785 13.575 94.785 13.575 94.805 13.845 95.885 14.195 96.935 14.635 97.955 15.165 98.935 15.765 99.875 16.435 100.755 17.175 101.575 17.985 102.335 18.855 103.025 19.775 103.645 20.745 104.185 21.755 104.655 22.795 105.025 23.875 105.315 24.965 105.525 26.065 105.635 27.175 105.655 28.285 105.585 29.385 105.435 30.465 105.185 31.525 104.855 32.555 104.435 33.545 103.925 34.485 103.345 35.385 102.695 36.225 101.965 36.995 101.175 37.705 100.315 38.345 99.405 38.905 98.455 39.385 97.455 39.785 96.415 40.105 95.355 40.225 94.785 40.235 94.785 42.555 94.785 42.555 94.775 44.335 95.105 44.205 95.815 43.895 97.045 43.495 98.245 43.005 99.415 42.445 100.545 41.795 101.625 41.075 102.665 40.285 103.655 39.425 104.575 38.495 105.435 37.515 106.235 36.475 106.955 35.385 107.595 34.255 108.165 33.085 108.645 31.885 109.045 30.665 109.355 29.415 109.585 28.165 109.715 26.895 109.765 25.635 109.715 24.375 109.585 23.135 109.355 21.905 109.045 20.705 108.645 19.545 108.165 18.415 107.595 17.325 106.955 16.285 106.235 15.295 105.435 14.375 104.575 13.515 103.655 12.715 102.665 11.995 101.625 11.355 100.545 10.785 99.415 10.305 98.245 9.905 97.045 9.595 95.815 9.465 95.105"/>
          <polygon class="cls-5" points="16.285 114.125 16.765 114.055 17.315 114.155 17.775 114.475 18.035 114.865 18.175 115.315 18.215 115.795 18.165 116.345 17.955 116.875 17.645 117.225 17.225 117.455 16.755 117.525 16.225 117.425 15.765 117.125 15.405 116.545 15.305 115.855 15.355 115.275 15.535 114.735 15.855 114.365 16.285 114.125"/>
          <polygon class="cls-5" points="28.295 114.105 29.345 114.105 29.565 114.115 29.845 114.145 30.025 114.235 30.175 114.385 30.285 114.615 30.315 114.875 30.265 115.185 30.105 115.455 29.755 115.635 29.355 115.675 28.295 115.675 28.295 114.105"/>
          <path class="cls-6" d="M18.085,121.345l-.06.32-.03.63.02.53.08.53.09.25.17.2.22.15.26.05.26-.05.22-.15.16-.2.1-.25.08-.53.02-.53-.02-.53-.06-.42-.02-.11-.1-.25-.16-.21-.23-.14-.26-.05-.19.03-.17.07-.22.2-.15.38-.01.08ZM18.465,120.125l.37-.04.37.04.34.15.27.25.18.32.14.5.06.21.04.74-.05.74-.19.72-.18.31-.27.26-.34.14-.37.04-.31-.03-.29-.09-.38-.3-.24-.46-.12-.51-.06-.82.04-.74.06-.21.13-.5.19-.32.27-.25.34-.15Z"/>
          <polygon class="cls-5" points="18.635 120.615 18.825 120.585 19.085 120.635 19.315 120.775 19.475 120.985 19.575 121.235 19.595 121.345 19.585 121.345 18.085 121.345 18.095 121.265 18.245 120.885 18.465 120.685 18.635 120.615"/>
          <polygon class="cls-5" points="57.815 121.345 57.855 121.345 57.855 122.205 57.855 123.045 57.855 123.865 57.855 124.615 57.855 124.655 57.855 125.385 57.855 126.065 57.855 126.675 57.855 127.215 57.855 127.675 57.855 128.035 57.855 128.305 57.855 128.475 57.815 129.275 57.675 130.065 57.455 130.835 57.145 131.565 56.755 132.265 56.285 132.925 55.745 133.515 55.145 134.045 54.485 134.515 53.785 134.895 53.035 135.205 52.265 135.425 51.465 135.555 50.655 135.605 50.655 135.395 50.655 135.105 50.655 134.725 50.655 134.255 50.655 133.705 50.655 133.085 50.655 132.385 50.655 131.615 50.655 130.785 50.655 129.895 50.655 128.945 50.655 127.955 50.655 126.915 50.655 125.845 50.655 124.745 50.655 123.625 50.655 122.495 50.655 121.345 51.465 121.345 52.265 121.345 53.035 121.345 53.785 121.345 54.485 121.345 55.145 121.345 55.745 121.345 56.285 121.345 56.755 121.345 57.145 121.345 57.455 121.345 57.675 121.345 57.815 121.345"/>
          <path class="cls-5" d="M35.445,121.345h15.21v14.26H.255v-14.26h17.28l-.06.21-.04.74.06.82.12.51.24.46.38.3.29.09.31.03.37-.04.34-.14.27-.26.18-.31.19-.72.05-.74-.04-.74-.06-.21h2.94l-.21,1.04.56.05.28-.27.22-.09.25-.03.32.04.28.16.22.34.06.4-.04.33-.13.31-.3.29-.41.09-.27-.04-.24-.13-.2-.28-.09-.33-.56.05.1.44.23.37.46.33.56.09.55-.09.31-.18.25-.26.23-.42.11-.6-.06-.46-.21-.43-.44-.39-.58-.13-.36.06-.42.23.1-.49h4.32v3.11h.56v-1.63l.03-.38.1-.37.11-.15.15-.12.37-.1.24.05.11.07.08.1.08.24.02.25v2.04h.56v-1.82l.03-.3.09-.28.16-.19.22-.12.25-.04.26.06.11.08.09.1.07.26.01.27v1.98h.56v-2.18l-.03-.36-.13-.34-.28-.23h1.97l-1.24,3.11h.66l.49-1.35h1.86l.5,1.35h.66l-1.24-3.11ZM22.305,122.665h-1.62v.5h1.62v-.5Z"/>
          <polygon class="cls-5" points="34.325 121.345 34.885 121.345 34.925 121.455 35.345 122.605 33.855 122.605 34.305 121.395 34.325 121.345"/>
          <polygon class="cls-5" points="19.585 121.345 19.595 121.345 19.655 121.765 19.675 122.295 19.655 122.825 19.575 123.355 19.475 123.605 19.315 123.805 19.095 123.955 18.835 124.005 18.575 123.955 18.355 123.805 18.185 123.605 18.095 123.355 18.015 122.825 17.995 122.295 18.025 121.665 18.085 121.345 19.585 121.345"/>
          <polygon class="cls-5" points="57.855 128.475 57.855 129.135 57.855 129.375 57.855 130.185 57.855 130.915 57.855 131.545 57.855 132.085 57.855 132.535 57.855 132.895 57.855 133.165 57.855 133.355 57.855 133.445 57.855 133.455 57.815 134.255 57.675 135.055 57.455 135.835 57.145 136.575 56.755 137.285 56.285 137.945 55.745 138.545 55.145 139.085 54.485 139.545 53.785 139.935 53.035 140.245 52.265 140.475 51.465 140.605 50.655 140.655 50.655 140.645 50.655 140.545 50.655 140.365 50.655 140.095 50.655 139.725 50.655 139.265 50.655 138.715 50.655 138.075 50.655 137.345 50.655 136.515 50.655 135.605 51.465 135.555 52.265 135.425 53.035 135.205 53.785 134.895 54.485 134.515 55.145 134.045 55.745 133.515 56.285 132.925 56.755 132.265 57.145 131.565 57.455 130.835 57.675 130.065 57.815 129.275 57.855 128.475"/>
          <polygon class="cls-5" points=".255 135.605 50.655 135.605 50.655 136.515 50.655 137.345 50.655 138.075 50.655 138.715 50.655 139.265 50.655 139.725 50.655 140.095 50.655 140.365 50.655 140.545 50.655 140.645 50.655 140.655 44.535 140.655 39.525 140.655 38.625 140.655 37.385 140.645 36.065 140.645 34.695 140.645 33.305 140.645 31.875 140.635 31.535 140.635 30.115 140.635 28.665 140.635 27.255 140.635 25.845 140.635 24.275 140.635 22.725 140.635 21.255 140.645 19.835 140.645 18.385 140.645 17.005 140.655 15.745 140.655 15.705 140.655 10.675 140.655 .255 140.655 .255 140.645 .255 140.545 .255 140.365 .255 140.095 .255 139.725 .255 139.265 .255 138.715 .255 138.075 .255 137.345 .255 136.515 .255 135.605"/>
          <polygon class="cls-5" points="31.535 140.635 31.875 140.635 33.305 140.645 34.695 140.645 36.065 140.645 37.385 140.645 38.625 140.655 39.525 140.655 44.535 140.655 44.385 140.685 44.125 140.755 43.815 140.845 43.455 140.975 43.035 141.165 43.015 141.175 43.005 141.175 42.895 141.185 42.555 141.195 41.995 141.195 41.285 141.205 40.405 141.205 39.365 141.205 38.175 141.205 36.855 141.205 35.425 141.205 33.885 141.205 32.275 141.205 30.605 141.205 28.895 141.205 27.165 141.205 25.445 141.205 23.755 141.205 22.095 141.205 20.525 141.205 19.035 141.205 17.645 141.205 16.385 141.205 15.275 141.205 14.315 141.205 13.525 141.205 12.925 141.195 12.495 141.195 12.265 141.185 12.245 141.175 12.245 141.185 12.235 141.185 11.795 140.985 11.405 140.845 11.085 140.745 10.815 140.685 10.675 140.655 15.705 140.655 15.745 140.655 17.005 140.655 18.385 140.645 19.835 140.645 21.255 140.645 22.725 140.635 24.275 140.635 25.845 140.635 27.255 140.635 28.665 140.635 30.115 140.635 31.535 140.635"/>
        </g>
        <g>
          <polyline class="cls-2" points="12.245 141.175 12.265 141.185 12.495 141.195 12.925 141.195 13.525 141.205 14.315 141.205 15.275 141.205 16.385 141.205 17.645 141.205 19.035 141.205 20.525 141.205 22.095 141.205 23.755 141.205 25.445 141.205 27.165 141.205 28.895 141.205 30.605 141.205 32.275 141.205 33.885 141.205 35.425 141.205 36.855 141.205 38.175 141.205 39.365 141.205 40.405 141.205 41.285 141.205 41.995 141.195 42.555 141.195 42.895 141.185 43.005 141.175"/>
          <polyline class="cls-2" points="50.655 5.305 50.655 4.385 50.655 3.565 50.655 2.835 50.655 2.185 50.655 1.635 50.655 1.185 50.655 .815 50.655 .535 50.655 .355 50.655 .265 50.655 .255"/>
          <line class="cls-2" x1="31.535" y1="140.635" x2="31.875" y2="140.635"/>
          <polyline class="cls-2" points="50.655 140.655 50.655 140.645 50.655 140.545 50.655 140.365 50.655 140.095 50.655 139.725 50.655 139.265 50.655 138.715 50.655 138.075 50.655 137.345 50.655 136.515 50.655 135.605"/>
          <line class="cls-2" x1="17.535" y1="121.345" x2=".255" y2="121.345"/>
          <polyline class="cls-2" points="19.585 121.345 18.085 121.345 18.075 121.345"/>
          <line class="cls-2" x1="23.075" y1="121.345" x2="20.135" y2="121.345"/>
          <line class="cls-2" x1="27.965" y1="121.345" x2="23.645" y2="121.345"/>
          <line class="cls-2" x1="28.935" y1="121.345" x2="28.525" y2="121.345"/>
          <line class="cls-2" x1="30.735" y1="121.345" x2="29.945" y2="121.345"/>
          <line class="cls-2" x1="33.745" y1="121.345" x2="31.785" y2="121.345"/>
          <line class="cls-2" x1="34.885" y1="121.345" x2="34.325" y2="121.345"/>
          <line class="cls-2" x1="50.655" y1="121.345" x2="35.445" y2="121.345"/>
          <polyline class="cls-2" points="44.615 92.055 44.565 90.785 44.435 89.535 44.335 88.995 44.205 88.285 43.895 87.065 43.495 85.865 43.005 84.695 42.445 83.565 41.795 82.475 41.075 81.435 40.285 80.455 39.425 79.525 38.495 78.665 37.515 77.875 36.475 77.155 35.385 76.505 34.255 75.945 33.085 75.455 31.885 75.055 30.665 74.745 29.415 74.525 28.165 74.385 26.895 74.345 25.635 74.385 24.375 74.525 23.135 74.745 21.905 75.055 20.705 75.455 19.545 75.945 18.415 76.505 17.325 77.155 16.285 77.875 15.295 78.665 14.375 79.525 13.515 80.455 12.715 81.435 11.995 82.475 11.355 83.565 10.785 84.695 10.305 85.865 9.905 87.065 9.595 88.285 9.465 88.985 9.365 89.535 9.235 90.785 9.185 92.055 9.235 93.315 9.365 94.575 9.465 95.105 9.595 95.815 9.905 97.045 10.305 98.245 10.785 99.415 11.355 100.545 11.995 101.625 12.715 102.665 13.515 103.655 14.375 104.575 15.295 105.435 16.285 106.235 17.325 106.955 18.415 107.595 19.545 108.165 20.705 108.645 21.905 109.045 23.135 109.355 24.375 109.585 25.635 109.715 26.895 109.765 28.165 109.715 29.415 109.585 30.665 109.355 31.885 109.045 33.085 108.645 34.255 108.165 35.385 107.595 36.475 106.955 37.515 106.235 38.495 105.435 39.425 104.575 40.285 103.655 41.075 102.665 41.795 101.625 42.445 100.545 43.005 99.415 43.495 98.245 43.895 97.045 44.205 95.815 44.335 95.105 44.435 94.575 44.565 93.315 44.615 92.055"/>
          <polyline class="cls-2" points="42.555 94.785 42.555 94.775 42.555 94.685 42.555 94.505 42.555 94.235 42.555 93.895 42.555 93.495 42.555 93.045 42.555 92.555 42.555 92.055 42.555 91.545 42.555 91.065 42.555 90.615 42.555 90.205 42.555 89.865 42.555 89.605 42.555 89.425 42.555 89.325 42.555 89.315"/>
          <polygon class="cls-2" points="33.635 92.055 33.585 91.275 33.445 90.505 33.225 89.755 32.915 89.035 32.525 88.355 32.055 87.725 31.515 87.155 30.915 86.655 30.265 86.225 29.565 85.875 28.825 85.605 28.065 85.425 27.295 85.335 26.505 85.335 25.725 85.425 24.965 85.605 24.235 85.875 23.535 86.225 22.875 86.655 22.275 87.155 21.745 87.725 21.275 88.355 20.885 89.035 20.575 89.755 20.345 90.505 20.215 91.275 20.165 92.055 20.215 92.835 20.345 93.605 20.575 94.355 20.885 95.075 21.275 95.755 21.745 96.375 22.275 96.945 22.875 97.455 23.535 97.885 24.235 98.235 24.965 98.505 25.725 98.685 26.505 98.775 27.295 98.775 28.065 98.685 28.825 98.505 29.565 98.235 30.265 97.885 30.915 97.455 31.515 96.945 32.055 96.375 32.525 95.755 32.915 95.075 33.225 94.355 33.445 93.605 33.585 92.835 33.635 92.055"/>
          <polygon class="cls-2" points="28.695 92.055 28.655 91.655 28.525 91.275 28.305 90.935 28.025 90.645 27.675 90.435 27.295 90.295 26.895 90.255 26.495 90.295 26.115 90.435 25.775 90.645 25.495 90.935 25.275 91.275 25.145 91.655 25.095 92.055 25.145 92.455 25.275 92.835 25.495 93.175 25.775 93.455 26.115 93.675 26.495 93.805 26.895 93.855 27.295 93.805 27.675 93.675 28.025 93.455 28.305 93.175 28.525 92.835 28.655 92.455 28.695 92.055"/>
          <polyline class="cls-2" points="11.235 89.315 11.235 89.325 11.235 89.425 11.235 89.605 11.235 89.865 11.235 90.205 11.235 90.615 11.235 91.065 11.235 91.545 11.235 92.055 11.235 92.555 11.235 93.045 11.235 93.495 11.235 93.895 11.235 94.235 11.235 94.505 11.235 94.685 11.235 94.775 11.235 94.785"/>
          <polyline class="cls-2" points="40.505 92.055 40.465 90.945 40.325 89.845 40.215 89.315 40.105 88.755 39.785 87.685 39.385 86.655 38.905 85.655 38.345 84.695 37.705 83.785 36.995 82.935 36.225 82.145 35.385 81.415 34.485 80.755 33.545 80.175 32.555 79.675 31.525 79.255 30.465 78.925 29.385 78.675 28.285 78.515 27.175 78.445 26.065 78.465 24.965 78.585 23.875 78.785 22.795 79.075 21.755 79.455 20.745 79.915 19.775 80.455 18.855 81.075 17.985 81.765 17.175 82.525 16.435 83.355 15.765 84.235 15.165 85.165 14.635 86.145 14.195 87.165 13.845 88.215 13.575 89.295 13.575 89.315 13.395 90.395 13.305 91.495 13.305 92.605 13.395 93.715 13.575 94.785 13.575 94.805 13.845 95.885 14.195 96.935 14.635 97.955 15.165 98.935 15.765 99.875 16.435 100.755 17.175 101.575 17.985 102.335 18.855 103.025 19.775 103.645 20.745 104.185 21.755 104.655 22.795 105.025 23.875 105.315 24.965 105.525 26.065 105.635 27.175 105.655 28.285 105.585 29.385 105.435 30.465 105.185 31.525 104.855 32.555 104.435 33.545 103.925 34.485 103.345 35.385 102.695 36.225 101.965 36.995 101.175 37.705 100.315 38.345 99.405 38.905 98.455 39.385 97.455 39.785 96.415 40.105 95.355 40.225 94.785 40.325 94.265 40.465 93.165 40.505 92.055"/>
          <polygon class="cls-2" points="39.785 92.055 39.745 93.135 39.605 94.205 39.385 95.255 39.065 96.295 38.675 97.295 38.195 98.265 37.635 99.185 36.995 100.055 36.295 100.875 35.525 101.635 34.695 102.315 33.805 102.935 32.865 103.475 31.895 103.935 30.885 104.305 29.845 104.605 28.785 104.805 27.705 104.915 26.625 104.935 25.555 104.865 24.485 104.715 23.435 104.465 22.405 104.135 21.415 103.715 20.455 103.215 19.545 102.635 18.685 101.985 17.885 101.265 17.145 100.475 16.475 99.625 15.875 98.725 15.355 97.785 14.915 96.795 14.565 95.775 14.295 94.735 14.115 93.665 14.025 92.595 14.025 91.515 14.115 90.435 14.295 89.375 14.565 88.325 14.915 87.305 15.355 86.325 15.875 85.375 16.475 84.475 17.145 83.635 17.885 82.845 18.685 82.125 19.545 81.465 20.455 80.895 21.415 80.395 22.405 79.975 23.435 79.635 24.485 79.395 25.555 79.235 26.625 79.165 27.705 79.185 28.785 79.305 29.845 79.505 30.885 79.795 31.895 80.175 32.865 80.635 33.805 81.175 34.695 81.785 35.525 82.475 36.295 83.235 36.995 84.045 37.635 84.925 38.195 85.845 38.675 86.815 39.065 87.815 39.385 88.845 39.605 89.905 39.745 90.975 39.785 92.055"/>
          <polygon class="cls-2" points="38.705 92.055 38.665 91.025 38.525 90.005 38.305 88.995 37.995 88.015 37.605 87.065 37.125 86.145 36.575 85.275 35.945 84.465 35.245 83.705 34.485 83.005 33.675 82.375 32.805 81.825 31.885 81.355 30.935 80.955 29.955 80.645 28.945 80.425 27.925 80.285 26.895 80.245 25.865 80.285 24.845 80.425 23.845 80.645 22.865 80.955 21.905 81.355 20.995 81.825 20.125 82.375 19.305 83.005 18.545 83.705 17.855 84.465 17.225 85.275 16.675 86.145 16.195 87.065 15.805 88.015 15.495 88.995 15.265 90.005 15.135 91.025 15.095 92.055 15.135 93.085 15.265 94.105 15.495 95.105 15.805 96.095 16.195 97.045 16.675 97.955 17.225 98.825 17.855 99.645 18.545 100.405 19.305 101.095 20.125 101.725 20.995 102.275 21.905 102.755 22.865 103.145 23.845 103.455 24.845 103.685 25.865 103.815 26.895 103.865 27.925 103.815 28.945 103.685 29.955 103.455 30.935 103.145 31.885 102.755 32.805 102.275 33.675 101.725 34.485 101.095 35.245 100.405 35.945 99.645 36.575 98.825 37.125 97.955 37.605 97.045 37.995 96.095 38.305 95.105 38.525 94.105 38.665 93.085 38.705 92.055"/>
          <line class="cls-2" x1="22.305" y1="123.165" x2="20.685" y2="123.165"/>
          <line class="cls-2" x1="20.685" y1="123.165" x2="20.685" y2="122.665"/>
          <line class="cls-2" x1="22.305" y1="122.665" x2="22.305" y2="123.165"/>
          <line class="cls-2" x1="20.685" y1="122.665" x2="22.305" y2="122.665"/>
          <polyline class="cls-2" points="42.385 141.315 42.305 141.315 42.025 141.315 41.565 141.315 40.935 141.315 40.925 141.315 40.125 141.315 39.155 141.315 38.045 141.315 36.795 141.315 35.425 141.315 33.965 141.315 32.425 141.315 30.805 141.315 29.165 141.315 27.505 141.315 25.835 141.315 24.205 141.315 22.615 141.315 21.085 141.315 19.645 141.315 18.305 141.315 17.075 141.315 15.985 141.315 15.045 141.315 14.255 141.315 13.635 141.315 13.185 141.315 12.925 141.315 12.845 141.315"/>
          <line class="cls-4" x1="43.005" y1="141.175" x2="43.015" y2="141.175"/>
          <polyline class="cls-2" points="63.975 33.195 63.975 33.235 63.975 33.375 63.975 33.595 63.975 33.905 63.975 34.305 63.975 34.795 63.975 35.375 63.975 36.025 63.975 36.765 63.975 37.595 63.975 38.495 63.975 39.475 63.975 40.525 63.975 41.655 63.975 42.845 63.975 44.105 63.975 45.435 63.975 46.815 63.975 48.255 63.975 49.755 63.975 51.295 63.975 52.885 63.975 54.525 63.975 56.195 63.975 57.895 63.975 59.635 63.975 61.395 63.975 63.185 63.975 64.985 63.975 66.805 63.975 68.625 63.975 70.455 63.975 72.285 63.975 74.105 63.975 75.915 63.975 77.725 63.975 79.505 63.975 81.265 63.975 83.005 63.975 84.715 63.975 86.385 63.975 88.015 63.975 89.605 63.975 91.155 63.975 92.645 63.975 94.085 63.975 95.475 63.975 96.795 63.975 98.065 63.975 99.255 63.975 100.385 63.975 101.435 63.975 102.415 63.975 103.315 63.975 104.135 63.975 104.875 63.975 105.535 63.975 106.105 63.975 106.595 63.975 106.995 63.975 107.305 63.975 107.535 63.975 107.665 63.975 107.715"/>
          <line class="cls-2" x1="21.125" y1="4.065" x2="21.125" y2="4.135"/>
          <line class="cls-2" x1="16.575" y1="3.995" x2="16.575" y2="4.075"/>
          <line class="cls-2" x1="28.995" y1="4.075" x2="28.995" y2="4.145"/>
          <line class="cls-2" x1="17.285" y1="4.145" x2="17.285" y2="4.225"/>
          <line class="cls-2" x1="26.195" y1="4.075" x2="26.195" y2="4.145"/>
          <line class="cls-2" x1="32.895" y1="4.055" x2="32.895" y2="4.125"/>
          <line class="cls-2" x1="21.405" y1="4.315" x2="21.405" y2="4.395"/>
          <line class="cls-2" x1="37.105" y1="4.285" x2="37.105" y2="4.365"/>
          <line class="cls-2" x1="18.505" y1="4.315" x2="18.505" y2="4.385"/>
          <line class="cls-2" x1="37.105" y1="4.365" x2="38.155" y2="4.365"/>
          <polyline class="cls-2" points="36.135 4.465 36.185 4.425 36.285 4.395 36.455 4.375 36.695 4.365 37.105 4.365"/>
          <line class="cls-2" x1="18.505" y1="4.385" x2="19.675" y2="4.385"/>
          <polyline class="cls-2" points="17.545 4.475 17.595 4.445 17.605 4.445 17.695 4.415 17.865 4.395 18.095 4.385 18.505 4.385"/>
          <polyline class="cls-2" points="32.895 4.125 33.385 4.135 33.815 4.165 34.105 4.215 34.285 4.265 34.315 4.305 34.345 4.335"/>
          <polyline class="cls-2" points="31.435 4.345 31.455 4.305 31.465 4.295 31.585 4.235 31.835 4.185 32.205 4.145 32.645 4.125 32.895 4.125"/>
          <line class="cls-2" x1="38.775" y1="4.555" x2="38.775" y2="4.635"/>
          <line class="cls-2" x1="30.485" y1="4.555" x2="30.485" y2="4.635"/>
          <line class="cls-2" x1="29.195" y1="4.185" x2="29.195" y2="4.255"/>
          <line class="cls-2" x1="29.845" y1="4.555" x2="29.845" y2="4.635"/>
          <line class="cls-2" x1="26.545" y1="4.275" x2="26.545" y2="4.345"/>
          <line class="cls-2" x1="25.995" y1="4.185" x2="25.995" y2="4.265"/>
          <line class="cls-2" x1="28.775" y1="4.175" x2="28.775" y2="4.245"/>
          <line class="cls-2" x1="27.165" y1="4.555" x2="27.165" y2="4.635"/>
          <line class="cls-2" x1="27.915" y1="4.555" x2="27.915" y2="4.635"/>
          <line class="cls-2" x1="24.715" y1="4.555" x2="25.815" y2="3.995"/>
          <line class="cls-2" x1="28.655" y1="3.995" x2="29.385" y2="3.995"/>
          <line class="cls-2" x1="27.705" y1="4.415" x2="28.655" y2="3.995"/>
          <polyline class="cls-2" points="27.545 4.485 27.625 4.455 27.665 4.435 27.705 4.415"/>
          <polyline class="cls-2" points="27.405 4.425 27.435 4.445 27.475 4.455 27.545 4.485"/>
          <line class="cls-2" x1="26.495" y1="3.995" x2="27.405" y2="4.425"/>
          <line class="cls-2" x1="25.815" y1="3.995" x2="26.495" y2="3.995"/>
          <line class="cls-2" x1="25.995" y1="4.185" x2="25.355" y2="4.555"/>
          <polyline class="cls-2" points="26.195 4.075 26.145 4.105 26.095 4.135 25.995 4.185"/>
          <polyline class="cls-2" points="26.545 4.275 26.355 4.175 26.275 4.125 26.195 4.075"/>
          <line class="cls-2" x1="27.165" y1="4.555" x2="26.545" y2="4.275"/>
          <line class="cls-2" x1="27.915" y1="4.555" x2="27.165" y2="4.555"/>
          <line class="cls-2" x1="28.775" y1="4.175" x2="27.915" y2="4.555"/>
          <polyline class="cls-2" points="28.995 4.075 28.945 4.095 28.885 4.125 28.775 4.175"/>
          <polyline class="cls-2" points="29.195 4.185 29.095 4.135 29.045 4.105 28.995 4.075"/>
          <line class="cls-2" x1="29.845" y1="4.555" x2="29.195" y2="4.185"/>
          <line class="cls-2" x1="30.485" y1="4.555" x2="29.845" y2="4.555"/>
          <line class="cls-2" x1="29.385" y1="3.995" x2="30.485" y2="4.555"/>
          <line class="cls-2" x1="24.715" y1="4.555" x2="24.715" y2="4.635"/>
          <line class="cls-2" x1="25.355" y1="4.555" x2="25.355" y2="4.635"/>
          <line class="cls-2" x1="25.355" y1="4.555" x2="24.715" y2="4.555"/>
          <line class="cls-2" x1="21.245" y1="4.555" x2="21.245" y2="4.635"/>
          <line class="cls-2" x1="24.325" y1="4.555" x2="24.325" y2="4.635"/>
          <line class="cls-2" x1="21.125" y1="3.995" x2="24.325" y2="3.995"/>
          <polyline class="cls-2" points="21.125 4.065 21.125 4.055 21.125 4.045 21.125 4.035 21.125 4.025 21.125 4.015 21.125 4.005 21.125 3.995"/>
          <line class="cls-2" x1="23.705" y1="4.065" x2="21.125" y2="4.065"/>
          <polyline class="cls-2" points="23.705 4.255 23.705 4.225 23.705 4.205 23.705 4.185 23.705 4.155 23.705 4.135 23.705 4.105 23.705 4.085 23.705 4.065"/>
          <line class="cls-2" x1="21.405" y1="4.255" x2="23.705" y2="4.255"/>
          <polyline class="cls-2" points="21.405 4.315 21.405 4.305 21.405 4.295 21.405 4.285 21.405 4.275 21.405 4.265 21.405 4.255"/>
          <line class="cls-2" x1="23.705" y1="4.315" x2="21.405" y2="4.315"/>
          <polyline class="cls-2" points="23.705 4.495 23.705 4.475 23.705 4.445 23.705 4.425 23.705 4.405 23.705 4.395 23.705 4.385 23.705 4.365 23.705 4.335 23.705 4.315"/>
          <line class="cls-2" x1="21.245" y1="4.495" x2="23.705" y2="4.495"/>
          <polyline class="cls-2" points="21.245 4.555 21.245 4.545 21.245 4.535 21.245 4.525 21.245 4.515 21.245 4.505 21.245 4.495"/>
          <line class="cls-2" x1="24.325" y1="4.555" x2="21.245" y2="4.555"/>
          <polyline class="cls-2" points="24.325 3.995 24.325 4.065 24.325 4.135 24.325 4.205 24.325 4.275 24.325 4.345 24.325 4.415 24.325 4.485 24.325 4.555"/>
          <line class="cls-2" x1="20.285" y1="4.555" x2="20.285" y2="4.635"/>
          <line class="cls-2" x1="37.165" y1="4.555" x2="37.165" y2="4.635"/>
          <line class="cls-2" x1="38.155" y1="3.995" x2="38.775" y2="3.995"/>
          <polyline class="cls-2" points="38.155 4.225 38.155 4.195 38.155 4.165 38.155 4.135 38.155 4.115 38.155 4.085 38.155 4.055 38.155 4.025 38.155 3.995"/>
          <line class="cls-2" x1="37.085" y1="4.225" x2="38.155" y2="4.225"/>
          <polyline class="cls-2" points="35.525 4.395 35.605 4.325 35.815 4.285 36.055 4.255 36.435 4.235 37.085 4.225"/>
          <polyline class="cls-2" points="37.165 4.555 37.005 4.555 36.845 4.555 36.515 4.555"/>
          <line class="cls-2" x1="38.775" y1="4.555" x2="37.165" y2="4.555"/>
          <polyline class="cls-2" points="38.775 3.995 38.775 4.065 38.775 4.135 38.775 4.205 38.775 4.275 38.775 4.345 38.775 4.415 38.775 4.485 38.775 4.555"/>
          <polyline class="cls-2" points="38.155 4.495 38.155 4.465 38.155 4.445 38.155 4.415 38.155 4.395 38.155 4.365 38.155 4.335 38.155 4.315 38.155 4.285"/>
          <line class="cls-2" x1="37.115" y1="4.495" x2="38.155" y2="4.495"/>
          <polyline class="cls-2" points="36.605 4.485 36.735 4.495 36.855 4.495 37.115 4.495"/>
          <polyline class="cls-2" points="36.135 4.395 36.185 4.425 36.195 4.435 36.305 4.465 36.455 4.475 36.605 4.485"/>
          <polyline class="cls-2" points="37.105 4.285 36.635 4.295 36.425 4.305 36.265 4.325 36.175 4.355 36.135 4.395"/>
          <line class="cls-2" x1="38.155" y1="4.285" x2="37.105" y2="4.285"/>
          <line class="cls-2" x1="35.525" y1="4.415" x2="35.525" y2="4.465"/>
          <line class="cls-2" x1="36.515" y1="4.555" x2="36.515" y2="4.625"/>
          <polyline class="cls-2" points="36.515 4.555 36.065 4.535 35.805 4.505 35.625 4.465 35.525 4.415 35.525 4.395"/>
          <line class="cls-2" x1="19.675" y1="3.995" x2="20.285" y2="3.995"/>
          <polyline class="cls-2" points="19.675 4.245 19.675 4.215 19.675 4.185 19.675 4.155 19.675 4.125 19.675 4.095 19.675 4.065 19.675 4.025 19.675 3.995"/>
          <line class="cls-2" x1="19.045" y1="4.245" x2="19.675" y2="4.245"/>
          <polyline class="cls-2" points="18.735 4.245 18.815 4.245 18.895 4.245 19.045 4.245"/>
          <polyline class="cls-2" points="17.825 4.115 18.005 4.155 18.205 4.185 18.455 4.225 18.735 4.245"/>
          <line class="cls-2" x1="17.275" y1="3.995" x2="17.825" y2="4.115"/>
          <line class="cls-2" x1="16.575" y1="3.995" x2="17.275" y2="3.995"/>
          <line class="cls-2" x1="17.285" y1="4.145" x2="16.575" y2="3.995"/>
          <polyline class="cls-2" points="17.745 4.225 17.615 4.205 17.495 4.185 17.385 4.175 17.285 4.145"/>
          <polyline class="cls-2" points="18.085 4.255 17.995 4.245 17.915 4.245 17.745 4.225"/>
          <polyline class="cls-2" points="16.925 4.405 16.995 4.355 17.175 4.305 17.445 4.275 17.545 4.275 17.905 4.255 18.085 4.255"/>
          <line class="cls-2" x1="20.285" y1="4.555" x2="18.395" y2="4.555"/>
          <polyline class="cls-2" points="20.285 3.995 20.285 4.065 20.285 4.135 20.285 4.205 20.285 4.275 20.285 4.345 20.285 4.415 20.285 4.485 20.285 4.555"/>
          <polyline class="cls-2" points="19.675 4.495 19.675 4.465 19.675 4.445 19.675 4.425 19.675 4.405 19.675 4.385 19.675 4.375 19.675 4.355 19.675 4.335 19.675 4.315"/>
          <line class="cls-2" x1="18.375" y1="4.495" x2="19.675" y2="4.495"/>
          <polyline class="cls-2" points="17.545 4.405 17.585 4.435 17.605 4.445 17.695 4.465 17.865 4.475 18.105 4.485 18.375 4.495"/>
          <polyline class="cls-2" points="18.505 4.315 18.155 4.315 17.895 4.325 17.735 4.335 17.625 4.355 17.555 4.385 17.545 4.405"/>
          <line class="cls-2" x1="19.675" y1="4.315" x2="18.505" y2="4.315"/>
          <line class="cls-2" x1="16.925" y1="4.405" x2="16.925" y2="4.475"/>
          <line class="cls-2" x1="18.395" y1="4.555" x2="18.395" y2="4.635"/>
          <polyline class="cls-2" points="18.395 4.555 17.865 4.555 17.505 4.545 17.255 4.515 17.085 4.485 16.945 4.435 16.925 4.405"/>
          <polyline class="cls-2" points="57.935 16.285 57.935 15.425 57.935 14.665 57.935 13.985 57.935 13.395 57.935 12.905 57.935 12.495 57.935 12.175 57.935 11.955 57.935 11.815 57.935 11.775"/>
          <polyline class="cls-2" points="57.935 129.135 57.935 129.085 57.935 128.955 57.935 128.725 57.935 128.405 57.935 128.005 57.935 127.505 57.935 126.915 57.935 126.245 57.935 125.475 57.935 124.615"/>
          <line class="cls-2" x1="30.815" y1="4.275" x2="30.815" y2="4.345"/>
          <line class="cls-2" x1="32.885" y1="4.565" x2="32.885" y2="4.635"/>
          <line class="cls-2" x1="34.965" y1="4.265" x2="34.965" y2="4.335"/>
          <polyline class="cls-2" points="32.895 3.995 33.605 4.005 34.225 4.055 34.655 4.115 34.925 4.215 34.965 4.265"/>
          <polyline class="cls-2" points="30.815 4.275 30.855 4.215 30.965 4.155 31.285 4.085 31.805 4.025 32.365 3.995 32.895 3.995"/>
          <polyline class="cls-2" points="32.885 4.565 32.165 4.555 31.525 4.505 31.115 4.435 30.855 4.335 30.815 4.275"/>
          <polyline class="cls-2" points="34.965 4.265 34.925 4.335 34.785 4.405 34.445 4.475 33.915 4.535 33.305 4.565 32.885 4.565"/>
          <polyline class="cls-2" points="32.885 4.505 33.385 4.485 33.835 4.455 34.105 4.415 34.285 4.345 34.315 4.305 34.345 4.265"/>
          <polyline class="cls-2" points="31.435 4.275 31.455 4.305 31.475 4.335 31.585 4.385 31.835 4.435 32.205 4.475 32.625 4.495 32.885 4.505"/>
          <polyline class="cls-2" points="32.895 4.055 32.395 4.065 31.965 4.095 31.685 4.135 31.505 4.195 31.435 4.275"/>
          <polyline class="cls-2" points="34.345 4.265 34.315 4.215 34.225 4.175 33.975 4.115 33.595 4.075 33.145 4.055 32.895 4.055"/>
          <polyline class="cls-2" points="57.855 7.455 57.855 7.465 57.855 7.555 57.855 7.735 57.855 8.005 57.855 8.365 57.855 8.815 57.855 9.365 57.855 9.995 57.855 10.715 57.855 11.525 57.855 11.775 57.855 12.425"/>
          <polyline class="cls-2" points="57.855 128.475 57.855 129.135 57.855 129.375 57.855 130.185 57.855 130.915 57.855 131.545 57.855 132.085 57.855 132.535 57.855 132.895 57.855 133.165 57.855 133.355 57.855 133.445 57.855 133.455"/>
          <polyline class="cls-2" points=".255 5.305 .255 4.385 .255 3.565 .255 2.835 .255 2.185 .255 1.635 .255 1.185 .255 .815 .255 .535 .255 .355 .255 .265 .255 .255"/>
          <line class="cls-2" x1="37.165" y1="4.635" x2="38.775" y2="4.635"/>
          <polyline class="cls-2" points="36.515 4.625 36.675 4.625 36.845 4.635 37.165 4.635"/>
          <polyline class="cls-2" points="35.525 4.465 35.605 4.535 35.795 4.575 36.035 4.605 36.415 4.625 36.515 4.625"/>
          <polyline class="cls-2" points="32.885 4.635 33.635 4.625 34.185 4.585 34.615 4.525 34.875 4.445 34.965 4.335"/>
          <polyline class="cls-2" points="30.815 4.345 30.865 4.415 30.995 4.475 31.325 4.545 31.835 4.605 32.435 4.635 32.885 4.635"/>
          <line class="cls-2" x1="29.845" y1="4.635" x2="30.485" y2="4.635"/>
          <line class="cls-2" x1="29.195" y1="4.255" x2="29.845" y2="4.635"/>
          <polyline class="cls-2" points="28.995 4.145 29.045 4.175 29.125 4.215 29.195 4.255"/>
          <polyline class="cls-2" points="28.775 4.245 28.885 4.195 28.945 4.175 28.995 4.145"/>
          <line class="cls-2" x1="27.915" y1="4.635" x2="28.775" y2="4.245"/>
          <line class="cls-2" x1="27.165" y1="4.635" x2="27.915" y2="4.635"/>
          <line class="cls-2" x1="26.545" y1="4.345" x2="27.165" y2="4.635"/>
          <polyline class="cls-2" points="26.195 4.145 26.355 4.245 26.445 4.295 26.545 4.345"/>
          <polyline class="cls-2" points="25.995 4.265 26.095 4.205 26.145 4.175 26.195 4.145"/>
          <line class="cls-2" x1="25.355" y1="4.635" x2="25.995" y2="4.265"/>
          <line class="cls-2" x1="24.715" y1="4.635" x2="25.355" y2="4.635"/>
          <line class="cls-2" x1="21.245" y1="4.635" x2="24.325" y2="4.635"/>
          <line class="cls-2" x1="21.405" y1="4.395" x2="23.705" y2="4.395"/>
          <line class="cls-2" x1="21.125" y1="4.135" x2="23.705" y2="4.135"/>
          <line class="cls-2" x1="18.395" y1="4.635" x2="20.285" y2="4.635"/>
          <polyline class="cls-2" points="16.925 4.475 17.015 4.535 17.205 4.585 17.425 4.605 17.715 4.625 18.395 4.635"/>
          <polyline class="cls-2" points="17.285 4.225 17.495 4.265 17.545 4.275 17.575 4.275"/>
          <line class="cls-2" x1="16.575" y1="4.075" x2="17.285" y2="4.225"/>
          <polyline class="cls-2" points="36.795 3.485 35.535 3.585 34.185 3.675 32.765 3.745 31.855 3.785 31.285 3.805 29.745 3.835 28.205 3.845 26.755 3.825 25.315 3.795 23.925 3.745 23.575 3.725 21.935 3.645 20.115 3.505 18.605 3.365 17.245 3.205 16.045 3.035 14.705 2.805 13.625 2.565 12.805 2.325 12.245 2.115 11.895 1.905 11.755 1.705 11.825 1.525 12.095 1.355 12.585 1.195 13.295 1.045 14.225 .925 15.235 .825 16.445 .735 17.835 .665 19.095 .615 20.485 .575 21.985 .545 23.595 .515 25.305 .505 27.055 .495 28.565 .495 30.085 .495 31.565 .505 32.925 .515 34.245 .535 35.495 .565 36.765 .595 37.955 .635 39.045 .675 40.485 .755 41.725 .845 42.745 .955 43.545 1.075 44.165 1.205 44.595 1.355 44.845 1.515 44.905 1.745 44.645 2.005 44.055 2.265 43.285 2.505 42.265 2.745 40.985 2.975 39.765 3.155 38.365 3.335 36.795 3.485"/>
          <polyline class="cls-2" points=".255 140.655 .255 140.645 .255 140.545 .255 140.365 .255 140.095 .255 139.725 .255 139.265 .255 138.715 .255 138.075 .255 137.345 .255 136.515 .255 135.605"/>
          <polyline class="cls-2" points="15.705 140.655 15.745 140.655 17.005 140.655 18.385 140.645 19.835 140.645 21.255 140.645 22.725 140.635 24.275 140.635 25.845 140.635 27.255 140.635 28.665 140.635 30.115 140.635 31.535 140.635"/>
          <polyline class="cls-2" points="31.875 140.635 33.305 140.645 34.695 140.645 36.065 140.645 37.385 140.645 38.625 140.655 39.525 140.655"/>
          <polyline class="cls-2" points="57.935 124.615 57.935 124.475 57.935 124.235 57.935 123.915 57.935 123.525 57.935 123.045 57.935 122.505 57.935 121.905 57.935 121.255 57.935 120.565 57.935 119.845 57.935 119.095 57.935 118.345"/>
          <line class="cls-2" x1="57.935" y1="124.615" x2="57.855" y2="124.615"/>
          <polyline class="cls-2" points="57.935 22.565 57.935 21.805 57.935 21.065 57.935 20.335 57.935 19.645 57.935 18.995 57.935 18.395 57.935 17.855 57.935 17.385 57.935 16.985 57.935 16.665 57.935 16.435 57.935 16.285"/>
          <line class="cls-2" x1="57.935" y1="16.285" x2="57.855" y2="16.285"/>
          <polyline class="cls-2" points="57.935 118.345 57.935 107.715 57.935 33.195 57.935 22.565"/>
          <line class="cls-2" x1="57.935" y1="118.345" x2="57.855" y2="118.345"/>
          <line class="cls-2" x1="57.935" y1="22.565" x2="57.855" y2="22.565"/>
          <polyline class="cls-2" points="45.775 50.185 45.795 50.035 45.835 49.615 45.925 48.845 45.935 48.725 45.945 48.235 45.975 47.535 45.975 47.415"/>
          <polyline class="cls-2" points="45.195 52.815 45.255 52.615 45.405 52.025 45.535 51.495 45.575 51.335 45.685 50.675"/>
          <polyline class="cls-2" points="44.775 54.065 44.855 53.865 45.105 53.075"/>
          <polyline class="cls-2" points="43.715 56.425 43.795 56.275 43.995 55.855 44.315 55.195 44.365 55.095 44.625 54.435"/>
          <polyline class="cls-2" points="43.015 57.625 43.145 57.425 43.515 56.765"/>
          <polyline class="cls-2" points="41.735 59.405 42.335 58.635 42.415 58.525 42.875 57.825"/>
          <polyline class="cls-2" points="40.585 60.705 40.735 60.555 41.095 60.155 41.575 59.595"/>
          <polyline class="cls-2" points="39.045 62.105 39.685 61.565 39.795 61.475 40.355 60.935"/>
          <line class="cls-2" x1="38.055" y1="62.875" x2="38.745" y2="62.365"/>
          <line class="cls-2" x1="36.885" y1="63.665" x2="37.635" y2="63.185"/>
          <polyline class="cls-2" points="35.315 64.535 35.475 64.455 35.865 64.245 36.575 63.855"/>
          <line class="cls-2" x1="33.275" y1="65.385" x2="34.235" y2="65.015"/>
          <polyline class="cls-2" points="30.845 66.065 31.675 65.885 31.785 65.855 32.145 65.745 32.975 65.495"/>
          <polyline class="cls-2" points="26.835 66.485 27.725 66.465 27.885 66.465 28.445 66.415 29.045 66.365 29.195 66.355 29.755 66.265 30.395 66.165"/>
          <polyline class="cls-2" points="25.045 66.395 25.255 66.425 25.755 66.445 26.525 66.485"/>
          <polyline class="cls-2" points="23.715 66.225 23.945 66.265 24.795 66.365"/>
          <line class="cls-2" x1="21.725" y1="65.765" x2="22.565" y2="65.995"/>
          <polyline class="cls-2" points="18.695 64.635 18.915 64.745 19.505 64.995 20.015 65.205 20.135 65.255 20.615 65.415 21.265 65.635"/>
          <polyline class="cls-2" points="17.545 64.035 17.745 64.155 18.615 64.595"/>
          <polyline class="cls-2" points="15.375 62.615 15.525 62.735 15.865 62.965 16.585 63.465"/>
          <polyline class="cls-2" points="13.335 60.825 13.525 61.025 13.975 61.435 14.405 61.835 14.495 61.915 15.015 62.325"/>
          <polyline class="cls-2" points="12.495 59.925 12.615 60.065 13.315 60.805"/>
          <line class="cls-2" x1="11.135" y1="58.155" x2="11.705" y2="58.955"/>
          <line class="cls-2" x1="10.425" y1="57.015" x2="10.995" y2="57.935"/>
          <polyline class="cls-2" points="9.595 55.455 9.705 55.695 9.985 56.225 10.295 56.805"/>
          <polyline class="cls-2" points="8.695 53.105 8.735 53.245 8.875 53.635 9.135 54.385 9.175 54.485 9.565 55.385"/>
          <line class="cls-2" x1="8.115" y1="50.705" x2="8.365" y2="51.955"/>
          <line class="cls-2" x1="7.955" y1="49.565" x2="8.105" y2="50.675"/>
          <polyline class="cls-2" points="7.845 46.495 7.825 46.755 7.825 47.795 7.825 48.075 7.875 48.715 7.925 49.315"/>
          <polyline class="cls-2" points="8.435 42.655 8.375 42.845 8.245 43.485 8.135 43.985 8.105 44.135 8.025 44.685 7.945 45.295 7.925 45.435 7.855 46.425"/>
          <polyline class="cls-2" points="9.285 40.095 9.175 40.335 8.955 40.965 8.775 41.465 8.735 41.575 8.555 42.225"/>
          <polyline class="cls-2" points="10.205 38.185 9.755 39.045 9.705 39.135 9.305 40.035"/>
          <polyline class="cls-2" points="11.105 36.715 11.015 36.845 10.775 37.235 10.365 37.905"/>
          <polyline class="cls-2" points="11.905 35.615 11.775 35.775 11.345 36.385"/>
          <line class="cls-2" x1="13.405" y1="33.935" x2="12.645" y2="34.735"/>
          <line class="cls-2" x1="14.265" y1="33.125" x2="13.565" y2="33.765"/>
          <polyline class="cls-2" points="15.645 32.005 15.525 32.095 15.185 32.365 14.565 32.855"/>
          <line class="cls-2" x1="17.495" y1="30.825" x2="16.675" y2="31.305"/>
          <line class="cls-2" x1="18.685" y1="30.195" x2="17.835" y2="30.625"/>
          <line class="cls-2" x1="20.115" y1="29.585" x2="18.955" y2="30.065"/>
          <polyline class="cls-2" points="21.635 29.075 21.375 29.145 20.835 29.335 20.145 29.575"/>
          <polyline class="cls-2" points="26.765 28.335 26.565 28.335 25.885 28.375 25.425 28.395 25.255 28.405 24.675 28.475 24.085 28.545 23.945 28.565 23.485 28.655 22.745 28.795"/>
          <polyline class="cls-2" points="28.075 28.375 27.885 28.355 27.125 28.345"/>
          <line class="cls-2" x1="30.215" y1="28.635" x2="29.255" y2="28.485"/>
          <polyline class="cls-2" points="34.445 29.895 34.275 29.815 33.785 29.625 33.175 29.395 33.045 29.345 32.045 29.045 31.785 28.965 31.185 28.835 30.575 28.695"/>
          <polyline class="cls-2" points="35.695 30.485 35.475 30.365 34.745 30.035"/>
          <polyline class="cls-2" points="36.815 31.115 36.625 30.995 35.805 30.545"/>
          <polyline class="cls-2" points="38.445 32.235 37.835 31.785 37.735 31.705 37.105 31.295"/>
          <line class="cls-2" x1="39.565" y1="33.165" x2="38.885" y2="32.575"/>
          <line class="cls-2" x1="40.485" y1="34.035" x2="39.835" y2="33.395"/>
          <line class="cls-2" x1="41.575" y1="35.235" x2="40.795" y2="34.345"/>
          <polyline class="cls-2" points="42.525 36.475 42.415 36.305 42.125 35.935 41.615 35.275"/>
          <polyline class="cls-2" points="43.875 38.715 43.795 38.545 43.505 38.035 43.215 37.525 43.145 37.405 42.735 36.795"/>
          <polyline class="cls-2" points="45.315 42.425 45.255 42.205 45.055 41.585 44.905 41.105 44.855 40.955 44.665 40.475 44.405 39.835"/>
          <polyline class="cls-2" points="45.605 43.685 45.575 43.485 45.365 42.635"/>
          <polyline class="cls-2" points="45.945 46.335 45.935 46.095 45.875 45.545 45.805 44.855"/>
          <line class="cls-2" x1="45.975" y1="47.415" x2="45.955" y2="46.605"/>
          <polygon class="cls-2" points="45.065 92.055 45.025 90.775 44.885 89.495 44.665 88.235 44.345 86.985 43.945 85.775 43.465 84.585 42.895 83.435 42.245 82.325 41.525 81.265 40.725 80.265 39.865 79.315 38.925 78.435 37.935 77.625 36.895 76.875 35.795 76.215 34.655 75.625 33.485 75.115 32.265 74.695 31.035 74.355 29.775 74.115 28.505 73.955 27.215 73.885 25.935 73.905 24.655 74.025 23.395 74.225 22.145 74.515 20.915 74.895 19.725 75.355 18.565 75.905 17.445 76.535 16.375 77.235 15.355 78.015 14.395 78.865 13.495 79.785 12.665 80.755 11.905 81.795 11.215 82.875 10.605 84.005 10.085 85.175 9.635 86.375 9.275 87.605 9.015 88.865 8.825 90.135 8.735 91.415 8.735 92.695 8.825 93.975 9.015 95.245 9.275 96.495 9.635 97.725 10.085 98.935 10.605 100.105 11.215 101.235 11.905 102.315 12.665 103.345 13.495 104.325 14.395 105.235 15.355 106.085 16.375 106.865 17.445 107.575 18.565 108.195 19.725 108.745 20.915 109.215 22.145 109.595 23.395 109.885 24.655 110.085 25.935 110.195 27.215 110.225 28.505 110.155 29.775 109.995 31.035 109.745 32.265 109.415 33.485 108.985 34.655 108.485 35.795 107.895 36.895 107.225 37.935 106.485 38.925 105.665 39.865 104.785 40.725 103.845 41.525 102.835 42.245 101.775 42.895 100.675 43.465 99.525 43.945 98.335 44.345 97.115 44.665 95.875 44.885 94.605 45.025 93.335 45.065 92.055"/>
          <polygon class="cls-2" points="46.505 47.415 46.465 46.075 46.325 44.745 46.095 43.425 45.785 42.125 45.375 40.845 44.885 39.595 44.315 38.395 43.655 37.225 42.925 36.105 42.115 35.035 41.235 34.025 40.285 33.085 39.275 32.205 38.205 31.395 37.085 30.655 35.925 30.005 34.715 29.425 33.465 28.935 32.185 28.525 30.885 28.215 29.565 27.985 28.235 27.845 26.895 27.805 25.565 27.845 24.225 27.985 22.905 28.215 21.605 28.525 20.335 28.935 19.085 29.425 17.875 30.005 16.705 30.655 15.585 31.395 14.525 32.205 13.515 33.085 12.565 34.025 11.685 35.035 10.875 36.105 10.145 37.225 9.485 38.395 8.915 39.595 8.425 40.845 8.015 42.125 7.695 43.425 7.475 44.745 7.335 46.075 7.285 47.415 7.335 48.755 7.475 50.085 7.695 51.405 8.015 52.705 8.425 53.975 8.915 55.225 9.485 56.435 10.145 57.605 10.875 58.725 11.685 59.785 12.565 60.795 13.515 61.745 14.525 62.625 15.585 63.435 16.705 64.165 17.875 64.825 19.085 65.395 20.335 65.895 21.605 66.295 22.905 66.615 24.225 66.845 25.565 66.975 26.895 67.025 28.235 66.975 29.565 66.845 30.885 66.615 32.185 66.295 33.465 65.895 34.715 65.395 35.925 64.825 37.085 64.165 38.205 63.435 39.275 62.625 40.285 61.745 41.235 60.795 42.115 59.785 42.925 58.725 43.655 57.605 44.315 56.435 44.885 55.225 45.375 53.975 45.785 52.705 46.095 51.405 46.325 50.085 46.465 48.755 46.505 47.415"/>
          <polyline class="cls-2" points="50.655 135.605 51.465 135.555 52.265 135.425 53.035 135.205 53.785 134.895 54.485 134.515 55.145 134.045 55.745 133.515 56.285 132.925 56.755 132.265 57.145 131.565 57.455 130.835 57.675 130.065 57.815 129.275 57.855 128.475"/>
          <polyline class="cls-2" points="57.855 121.345 57.855 122.205 57.855 123.045 57.855 123.865 57.855 124.615 57.855 124.655 57.855 125.385 57.855 126.065 57.855 126.675 57.855 127.215 57.855 127.675 57.855 128.035 57.855 128.305 57.855 128.475"/>
          <polyline class="cls-2" points="57.855 121.345 57.815 121.345 57.675 121.345 57.455 121.345 57.145 121.345 56.755 121.345 56.285 121.345 55.745 121.345 55.145 121.345 54.485 121.345 53.785 121.345 53.035 121.345 52.265 121.345 51.465 121.345 50.655 121.345"/>
          <polyline class="cls-2" points="57.855 19.555 57.855 22.565 57.855 118.345 57.855 121.345"/>
          <polyline class="cls-2" points="57.855 12.425 57.815 11.635 57.675 10.845 57.455 10.075 57.145 9.335 56.755 8.635 56.285 7.985 55.745 7.385 55.145 6.855 54.485 6.395 53.785 6.005 53.035 5.705 52.265 5.475 51.465 5.345 50.655 5.305"/>
          <polyline class="cls-2" points="57.855 19.555 57.815 19.555 57.675 19.555 57.455 19.555 57.145 19.555 56.755 19.555 56.285 19.555 55.745 19.555 55.145 19.555 54.485 19.555 53.785 19.555 53.035 19.555 52.265 19.555 51.465 19.555 50.655 19.555"/>
          <polyline class="cls-2" points="57.855 12.425 57.855 12.595 57.855 12.865 57.855 13.235 57.855 13.685 57.855 14.225 57.855 14.835 57.855 15.515 57.855 16.255 57.855 16.285 57.855 17.035 57.855 17.855 57.855 18.705 57.855 19.555"/>
          <polygon class="cls-2" points="46.665 47.415 46.615 46.075 46.485 44.745 46.265 43.435 45.945 42.135 45.545 40.865 45.065 39.615 44.495 38.405 43.845 37.245 43.125 36.125 42.325 35.055 41.455 34.035 40.515 33.085 39.515 32.195 38.465 31.385 37.355 30.635 36.195 29.975 34.995 29.385 33.765 28.875 32.495 28.455 31.205 28.125 29.895 27.875 28.565 27.715 27.235 27.645 25.895 27.675 24.565 27.785 23.245 27.985 21.945 28.275 20.665 28.655 19.415 29.115 18.195 29.665 17.015 30.295 15.885 31.005 14.795 31.785 13.775 32.635 12.805 33.555 11.905 34.535 11.065 35.575 10.305 36.675 9.615 37.815 9.005 39.005 8.485 40.235 8.035 41.495 7.685 42.785 7.415 44.085 7.235 45.415 7.145 46.745 7.145 48.085 7.235 49.415 7.415 50.735 7.685 52.045 8.035 53.325 8.485 54.585 9.005 55.815 9.615 57.005 10.305 58.145 11.065 59.245 11.905 60.285 12.805 61.275 13.775 62.195 14.795 63.045 15.885 63.825 17.015 64.535 18.195 65.155 19.415 65.705 20.665 66.165 21.945 66.545 23.245 66.835 24.565 67.045 25.895 67.155 27.235 67.175 28.565 67.105 29.895 66.955 31.205 66.705 32.495 66.365 33.765 65.945 34.995 65.445 36.195 64.855 37.355 64.185 38.465 63.445 39.515 62.625 40.515 61.735 41.455 60.785 42.325 59.775 43.125 58.705 43.845 57.585 44.495 56.415 45.065 55.205 45.545 53.965 45.945 52.685 46.265 51.395 46.485 50.075 46.615 48.745 46.665 47.415"/>
          <polygon class="cls-2" points="45.225 92.055 45.175 90.755 45.045 89.475 44.815 88.205 44.495 86.945 44.095 85.715 43.605 84.515 43.035 83.365 42.375 82.245 41.645 81.175 40.845 80.165 39.975 79.205 39.035 78.315 38.035 77.495 36.975 76.745 35.875 76.075 34.725 75.485 33.535 74.975 32.315 74.545 31.065 74.205 29.795 73.955 28.515 73.795 27.225 73.725 25.925 73.755 24.645 73.865 23.365 74.075 22.105 74.365 20.865 74.745 19.665 75.215 18.495 75.765 17.365 76.405 16.285 77.115 15.255 77.895 14.285 78.755 13.385 79.675 12.545 80.665 11.775 81.705 11.085 82.795 10.465 83.935 9.935 85.115 9.485 86.325 9.125 87.575 8.855 88.835 8.675 90.115 8.585 91.405 8.585 92.695 8.675 93.985 8.855 95.275 9.125 96.535 9.485 97.775 9.935 98.995 10.465 100.175 11.085 101.305 11.775 102.405 12.545 103.445 13.385 104.425 14.285 105.345 15.255 106.205 16.285 106.995 17.365 107.705 18.495 108.335 19.665 108.885 20.865 109.355 22.105 109.745 23.365 110.035 24.645 110.235 25.925 110.355 27.225 110.375 28.515 110.305 29.795 110.145 31.065 109.895 32.315 109.555 33.535 109.135 34.725 108.625 35.875 108.035 36.975 107.355 38.035 106.605 39.035 105.785 39.975 104.895 40.845 103.945 41.645 102.925 42.375 101.865 43.035 100.745 43.605 99.585 44.095 98.385 44.495 97.155 44.815 95.905 45.045 94.635 45.175 93.345 45.225 92.055"/>
          <polyline class="cls-2" points=".255 135.605 .255 135.395 .255 135.105 .255 134.725 .255 134.255 .255 133.705 .255 133.085 .255 132.385 .255 131.615 .255 130.785 .255 129.895 .255 128.945 .255 127.955 .255 126.915 .255 125.845 .255 124.745 .255 123.625 .255 122.495 .255 121.345"/>
          <line class="cls-2" x1="50.655" y1="135.605" x2=".255" y2="135.605"/>
          <polyline class="cls-2" points="50.655 135.605 50.655 135.395 50.655 135.105 50.655 134.725 50.655 134.255 50.655 133.705 50.655 133.085 50.655 132.385 50.655 131.615 50.655 130.785 50.655 129.895 50.655 128.945 50.655 127.955 50.655 126.915 50.655 125.845 50.655 124.745 50.655 123.625 50.655 122.495 50.655 121.345"/>
          <polyline class="cls-2" points=".255 19.555 .255 18.415 .255 17.275 .255 16.155 .255 15.055 .255 13.985 .255 12.955 .255 11.955 .255 11.015 .255 10.115 .255 9.285 .255 8.515 .255 7.815 .255 7.195 .255 6.645 .255 6.185 .255 5.805 .255 5.505 .255 5.305"/>
          <polyline class="cls-2" points="50.655 19.555 50.655 18.415 50.655 17.275 50.655 16.155 50.655 15.055 50.655 13.985 50.655 12.955 50.655 11.955 50.655 11.015 50.655 10.115 50.655 9.285 50.655 8.515 50.655 7.815 50.655 7.195 50.655 6.645 50.655 6.185 50.655 5.805 50.655 5.505 50.655 5.305"/>
          <line class="cls-2" x1="50.655" y1="5.305" x2=".255" y2="5.305"/>
          <polygon class="cls-2" points="47.025 47.415 46.975 48.755 46.845 50.095 46.615 51.425 46.305 52.725 45.905 54.015 45.425 55.265 44.855 56.485 44.215 57.665 43.485 58.805 42.695 59.885 41.825 60.915 40.885 61.875 39.895 62.785 38.835 63.615 37.725 64.375 36.565 65.065 35.365 65.665 34.135 66.195 32.865 66.635 31.565 66.985 30.245 67.255 28.915 67.435 27.575 67.525 26.225 67.525 24.885 67.435 23.555 67.255 22.235 66.985 20.935 66.635 19.665 66.195 18.425 65.665 17.225 65.065 16.075 64.375 14.965 63.615 13.905 62.785 12.905 61.875 11.975 60.915 11.105 59.885 10.305 58.805 9.585 57.665 8.935 56.485 8.375 55.265 7.885 54.015 7.485 52.725 7.175 51.425 6.955 50.095 6.815 48.755 6.775 47.415 6.815 46.065 6.955 44.735 7.175 43.405 7.485 42.095 7.885 40.815 8.375 39.555 8.935 38.335 9.585 37.155 10.305 36.025 11.105 34.945 11.975 33.915 12.905 32.945 13.905 32.045 14.965 31.215 16.075 30.455 17.225 29.765 18.425 29.155 19.665 28.635 20.935 28.195 22.235 27.835 23.555 27.565 24.885 27.385 26.225 27.295 27.575 27.295 28.915 27.385 30.245 27.565 31.565 27.835 32.865 28.195 34.135 28.635 35.365 29.155 36.565 29.765 37.725 30.455 38.835 31.215 39.895 32.045 40.885 32.945 41.825 33.915 42.695 34.945 43.485 36.025 44.215 37.155 44.855 38.335 45.425 39.555 45.905 40.815 46.305 42.095 46.615 43.405 46.845 44.735 46.975 46.065 47.025 47.415"/>
          <polygon class="cls-2" points="45.585 92.055 45.535 93.355 45.405 94.655 45.175 95.935 44.855 97.205 44.455 98.445 43.965 99.655 43.395 100.825 42.745 101.955 42.015 103.035 41.215 104.065 40.335 105.035 39.405 105.935 38.405 106.775 37.345 107.545 36.245 108.235 35.085 108.845 33.895 109.375 32.675 109.825 31.415 110.185 30.145 110.455 28.855 110.635 27.555 110.725 26.245 110.725 24.945 110.635 23.655 110.455 22.375 110.185 21.125 109.825 19.895 109.375 18.705 108.845 17.555 108.235 16.455 107.545 15.395 106.775 14.395 105.935 13.455 105.035 12.585 104.065 11.785 103.035 11.055 101.955 10.405 100.825 9.825 99.655 9.345 98.445 8.935 97.205 8.625 95.935 8.395 94.655 8.255 93.355 8.215 92.055 8.255 90.745 8.395 89.455 8.625 88.165 8.935 86.905 9.345 85.665 9.825 84.455 10.405 83.285 11.055 82.155 11.785 81.075 12.585 80.045 13.455 79.075 14.395 78.165 15.395 77.325 16.455 76.565 17.555 75.875 18.705 75.255 19.895 74.725 21.125 74.285 22.375 73.925 23.655 73.655 24.945 73.475 26.245 73.375 27.555 73.375 28.855 73.475 30.145 73.655 31.415 73.925 32.675 74.285 33.895 74.725 35.085 75.255 36.245 75.875 37.345 76.565 38.405 77.325 39.405 78.165 40.335 79.075 41.215 80.045 42.015 81.075 42.745 82.155 43.395 83.285 43.965 84.455 44.455 85.665 44.855 86.905 45.175 88.165 45.405 89.455 45.535 90.745 45.585 92.055"/>
          <line class="cls-2" x1="50.655" y1="121.345" x2="50.655" y2="19.555"/>
          <line class="cls-2" x1="50.655" y1="19.555" x2=".255" y2="19.555"/>
          <line class="cls-2" x1=".255" y1="121.345" x2=".255" y2="19.555"/>
          <line class="cls-2" x1="34.455" y1="116.085" x2="34.455" y2="113.605"/>
          <polyline class="cls-2" points="33.355 117.465 33.865 117.395 34.095 117.285 34.275 117.095 34.425 116.605 34.455 116.085"/>
          <polyline class="cls-2" points="32.335 116.085 32.345 116.455 32.405 116.825 32.565 117.155 32.925 117.395 33.355 117.465"/>
          <line class="cls-2" x1="32.335" y1="113.605" x2="32.335" y2="116.085"/>
          <line class="cls-2" x1="31.715" y1="113.605" x2="32.335" y2="113.605"/>
          <line class="cls-2" x1="31.715" y1="116.115" x2="31.715" y2="113.605"/>
          <polyline class="cls-2" points="33.405 118.025 32.855 117.975 32.345 117.775 31.965 117.385 31.805 116.975 31.735 116.555 31.715 116.115"/>
          <polyline class="cls-2" points="35.075 116.115 35.045 116.665 34.915 117.195 34.605 117.635 34.045 117.945 33.405 118.025"/>
          <line class="cls-2" x1="35.075" y1="113.605" x2="35.075" y2="116.115"/>
          <line class="cls-2" x1="34.455" y1="113.605" x2="35.075" y2="113.605"/>
          <line class="cls-2" x1="37.765" y1="117.975" x2="37.145" y2="117.975"/>
          <line class="cls-2" x1="37.765" y1="114.105" x2="37.765" y2="117.975"/>
          <line class="cls-2" x1="39.165" y1="114.105" x2="37.765" y2="114.105"/>
          <line class="cls-2" x1="39.165" y1="113.605" x2="39.165" y2="114.105"/>
          <line class="cls-2" x1="35.745" y1="113.605" x2="39.165" y2="113.605"/>
          <line class="cls-2" x1="35.745" y1="114.105" x2="35.745" y2="113.605"/>
          <line class="cls-2" x1="37.145" y1="114.105" x2="35.745" y2="114.105"/>
          <line class="cls-2" x1="37.145" y1="117.975" x2="37.145" y2="114.105"/>
          <polyline class="cls-2" points="29.355 115.675 29.755 115.635 30.105 115.455 30.265 115.185 30.315 114.875"/>
          <polyline class="cls-2" points="30.935 114.865 30.875 115.295 30.685 115.685 30.365 115.975 29.885 116.145 29.365 116.185"/>
          <line class="cls-2" x1="28.295" y1="117.975" x2="27.685" y2="117.975"/>
          <line class="cls-2" x1="28.295" y1="116.185" x2="28.295" y2="117.975"/>
          <line class="cls-2" x1="29.365" y1="116.185" x2="28.295" y2="116.185"/>
          <polyline class="cls-2" points="29.935 113.645 30.385 113.805 30.735 114.135 30.885 114.485 30.935 114.865"/>
          <polyline class="cls-2" points="29.285 113.605 29.655 113.615 29.935 113.645"/>
          <line class="cls-2" x1="27.685" y1="113.605" x2="29.285" y2="113.605"/>
          <line class="cls-2" x1="27.685" y1="117.975" x2="27.685" y2="113.605"/>
          <line class="cls-2" x1="28.295" y1="115.675" x2="29.355" y2="115.675"/>
          <line class="cls-2" x1="28.295" y1="114.105" x2="28.295" y2="115.675"/>
          <line class="cls-2" x1="29.345" y1="114.105" x2="28.295" y2="114.105"/>
          <polyline class="cls-2" points="29.845 114.145 29.565 114.115 29.345 114.105"/>
          <polyline class="cls-2" points="30.315 114.875 30.285 114.615 30.175 114.385 30.025 114.235 29.845 114.145"/>
          <line class="cls-2" x1="27.065" y1="114.105" x2="25.665" y2="114.105"/>
          <line class="cls-2" x1="23.655" y1="113.605" x2="27.065" y2="113.605"/>
          <line class="cls-2" x1="23.655" y1="114.105" x2="23.655" y2="113.605"/>
          <line class="cls-2" x1="25.055" y1="114.105" x2="23.655" y2="114.105"/>
          <line class="cls-2" x1="25.665" y1="117.975" x2="25.055" y2="117.975"/>
          <line class="cls-2" x1="25.665" y1="114.105" x2="25.665" y2="117.975"/>
          <line class="cls-2" x1="27.065" y1="113.605" x2="27.065" y2="114.105"/>
          <line class="cls-2" x1="25.055" y1="117.975" x2="25.055" y2="114.105"/>
          <polyline class="cls-2" points="21.305 118.025 20.765 117.975 20.255 117.775 19.865 117.385 19.705 116.975 19.635 116.555 19.615 116.115"/>
          <line class="cls-2" x1="22.365" y1="116.085" x2="22.365" y2="113.605"/>
          <polyline class="cls-2" points="21.265 117.465 21.775 117.395 22.005 117.285 22.175 117.095 22.325 116.605 22.365 116.085"/>
          <polyline class="cls-2" points="20.235 116.085 20.245 116.455 20.305 116.825 20.475 117.155 20.835 117.395 21.265 117.465"/>
          <line class="cls-2" x1="20.235" y1="113.605" x2="20.235" y2="116.085"/>
          <line class="cls-2" x1="19.615" y1="113.605" x2="20.235" y2="113.605"/>
          <line class="cls-2" x1="19.615" y1="116.115" x2="19.615" y2="113.605"/>
          <polyline class="cls-2" points="22.975 116.115 22.945 116.665 22.815 117.195 22.505 117.635 21.945 117.945 21.305 118.025"/>
          <line class="cls-2" x1="22.975" y1="113.605" x2="22.975" y2="116.115"/>
          <line class="cls-2" x1="22.365" y1="113.605" x2="22.975" y2="113.605"/>
          <polyline class="cls-2" points="16.765 118.025 16.145 117.945 15.575 117.675 15.125 117.235 14.795 116.575 14.695 115.845"/>
          <polyline class="cls-2" points="18.835 115.795 18.765 116.425 18.545 117.025 18.145 117.525 17.505 117.905 16.765 118.025"/>
          <polyline class="cls-2" points="16.765 113.545 17.395 113.635 17.975 113.915 18.425 114.365 18.735 115.045 18.835 115.795"/>
          <polyline class="cls-2" points="14.695 115.845 14.755 115.195 14.965 114.585 15.355 114.065 16.015 113.675 16.765 113.545"/>
          <polyline class="cls-2" points="15.305 115.855 15.405 116.545 15.765 117.125 16.225 117.425 16.755 117.525"/>
          <polyline class="cls-2" points="16.765 114.055 16.285 114.125 15.855 114.365 15.535 114.735 15.355 115.275 15.305 115.855"/>
          <polyline class="cls-2" points="18.215 115.795 18.175 115.315 18.035 114.865 17.775 114.475 17.315 114.155 16.765 114.055"/>
          <polyline class="cls-2" points="16.755 117.525 17.225 117.455 17.645 117.225 17.955 116.875 18.165 116.345 18.215 115.795"/>
          <line class="cls-2" x1="33.175" y1="124.455" x2="32.515" y2="124.455"/>
          <line class="cls-2" x1="33.665" y1="123.105" x2="33.175" y2="124.455"/>
          <line class="cls-2" x1="35.525" y1="123.105" x2="33.665" y2="123.105"/>
          <line class="cls-2" x1="36.025" y1="124.455" x2="35.525" y2="123.105"/>
          <line class="cls-2" x1="36.685" y1="124.455" x2="36.025" y2="124.455"/>
          <polyline class="cls-2" points="34.945 120.085 35.445 121.345 36.685 124.455"/>
          <line class="cls-2" x1="34.255" y1="120.085" x2="34.945" y2="120.085"/>
          <polyline class="cls-2" points="32.515 124.455 33.755 121.345 34.255 120.085"/>
          <line class="cls-2" x1="34.305" y1="121.395" x2="33.855" y2="122.605"/>
          <polyline class="cls-2" points="34.595 120.585 34.455 121.045 34.325 121.345 34.305 121.395"/>
          <polyline class="cls-2" points="34.925 121.455 34.885 121.345 34.735 120.975 34.595 120.585"/>
          <line class="cls-2" x1="35.345" y1="122.605" x2="34.925" y2="121.455"/>
          <line class="cls-2" x1="33.855" y1="122.605" x2="35.345" y2="122.605"/>
          <polyline class="cls-2" points="29.445 121.205 29.755 121.245 29.945 121.345 30.025 121.385 30.185 121.575 30.295 121.795"/>
          <line class="cls-2" x1="28.525" y1="124.455" x2="27.965" y2="124.455"/>
          <line class="cls-2" x1="28.525" y1="122.825" x2="28.525" y2="124.455"/>
          <polyline class="cls-2" points="29.285 121.705 28.915 121.805 28.765 121.925 28.655 122.075 28.555 122.445 28.525 122.825"/>
          <polyline class="cls-2" points="29.815 122.415 29.795 122.165 29.715 121.925 29.635 121.825 29.525 121.755 29.285 121.705"/>
          <line class="cls-2" x1="29.815" y1="124.455" x2="29.815" y2="122.415"/>
          <line class="cls-2" x1="30.375" y1="124.455" x2="29.815" y2="124.455"/>
          <line class="cls-2" x1="30.375" y1="122.635" x2="30.375" y2="124.455"/>
          <polyline class="cls-2" points="31.125 121.705 30.875 121.745 30.655 121.865 30.495 122.055 30.405 122.335 30.375 122.635"/>
          <polyline class="cls-2" points="31.665 122.475 31.655 122.205 31.585 121.945 31.495 121.845 31.385 121.765 31.125 121.705"/>
          <line class="cls-2" x1="31.665" y1="124.455" x2="31.665" y2="122.475"/>
          <line class="cls-2" x1="32.225" y1="124.455" x2="31.665" y2="124.455"/>
          <line class="cls-2" x1="32.225" y1="122.275" x2="32.225" y2="124.455"/>
          <polyline class="cls-2" points="31.255 121.205 31.705 121.285 31.785 121.345 32.065 121.575 32.195 121.915 32.225 122.275"/>
          <polyline class="cls-2" points="30.295 121.795 30.495 121.535 30.735 121.345 30.755 121.335 31.255 121.205"/>
          <polyline class="cls-2" points="28.525 121.755 28.715 121.505 28.935 121.345 28.965 121.325 29.445 121.205"/>
          <polyline class="cls-2" points="28.525 121.265 28.525 121.345 28.525 121.755"/>
          <line class="cls-2" x1="27.965" y1="121.265" x2="28.525" y2="121.265"/>
          <polyline class="cls-2" points="27.965 124.455 27.965 121.345 27.965 121.265"/>
          <polyline class="cls-2" points="24.165 124.505 23.605 124.415 23.145 124.085 22.915 123.715 22.815 123.275"/>
          <polyline class="cls-2" points="25.275 123.975 25.025 124.235 24.715 124.415 24.165 124.505"/>
          <polyline class="cls-2" points="25.615 122.955 25.505 123.555 25.275 123.975"/>
          <polyline class="cls-2" points="24.325 121.545 24.905 121.675 25.345 122.065 25.555 122.495 25.615 122.955"/>
          <polyline class="cls-2" points="23.545 121.835 23.965 121.605 24.325 121.545"/>
          <polyline class="cls-2" points="23.775 120.705 23.645 121.345 23.545 121.835"/>
          <line class="cls-2" x1="25.385" y1="120.705" x2="23.775" y2="120.705"/>
          <line class="cls-2" x1="25.385" y1="120.145" x2="25.385" y2="120.705"/>
          <line class="cls-2" x1="23.315" y1="120.145" x2="25.385" y2="120.145"/>
          <polyline class="cls-2" points="22.865 122.385 23.075 121.345 23.315 120.145"/>
          <line class="cls-2" x1="23.425" y1="122.435" x2="22.865" y2="122.385"/>
          <polyline class="cls-2" points="24.175 122.045 23.925 122.075 23.705 122.165 23.425 122.435"/>
          <polyline class="cls-2" points="25.055 122.985 24.995 122.585 24.775 122.245 24.495 122.085 24.175 122.045"/>
          <polyline class="cls-2" points="24.175 124.005 24.585 123.915 24.885 123.625 25.015 123.315 25.055 122.985"/>
          <polyline class="cls-2" points="23.375 123.225 23.465 123.555 23.665 123.835 23.905 123.965 24.175 124.005"/>
          <line class="cls-2" x1="22.815" y1="123.275" x2="23.375" y2="123.225"/>
          <polyline class="cls-2" points="20.235 122.295 20.185 123.035 19.995 123.755 19.815 124.065 19.545 124.325 19.205 124.465 18.835 124.505"/>
          <polyline class="cls-2" points="17.855 124.085 17.615 123.625 17.495 123.115 17.435 122.295"/>
          <polyline class="cls-2" points="18.835 124.505 18.525 124.475 18.235 124.385 17.855 124.085"/>
          <polyline class="cls-2" points="18.835 120.085 19.205 120.125 19.545 120.275 19.815 120.525 19.995 120.845 20.135 121.345 20.195 121.555 20.235 122.295"/>
          <polyline class="cls-2" points="17.435 122.295 17.475 121.555 17.535 121.345 17.665 120.845 17.855 120.525 18.125 120.275 18.465 120.125 18.835 120.085"/>
          <polyline class="cls-2" points="17.995 122.295 18.015 122.825 18.095 123.355 18.185 123.605 18.355 123.805 18.575 123.955 18.835 124.005"/>
          <polyline class="cls-2" points="18.245 120.885 18.095 121.265 18.085 121.345 18.025 121.665 17.995 122.295"/>
          <polyline class="cls-2" points="18.825 120.585 18.635 120.615 18.465 120.685 18.245 120.885"/>
          <polyline class="cls-2" points="19.675 122.295 19.655 121.765 19.595 121.345 19.575 121.235 19.475 120.985 19.315 120.775 19.085 120.635 18.825 120.585"/>
          <polyline class="cls-2" points="18.835 124.005 19.095 123.955 19.315 123.805 19.475 123.605 19.575 123.355 19.655 122.825 19.675 122.295"/>
          <polyline class="cls-2" points="26.845 28.335 26.765 28.335 25.885 28.375 25.525 28.385 25.425 28.395 24.675 28.475 24.215 28.525 24.085 28.545 23.485 28.655 22.915 28.755 22.745 28.795 21.645 29.075 21.635 29.075 20.835 29.335 20.385 29.475 20.145 29.575 20.115 29.585 19.165 29.965 18.955 30.065 18.685 30.195 17.985 30.545 17.835 30.625 17.495 30.825 16.835 31.195 16.675 31.305 15.745 31.935 15.645 32.005 15.185 32.365 14.705 32.735 14.565 32.855 14.265 33.125 13.715 33.615 13.565 33.765 13.405 33.935 12.795 34.555 12.645 34.735 11.945 35.565 11.905 35.615 11.345 36.385 11.165 36.625 11.105 36.715 10.775 37.235 10.455 37.735 10.365 37.905 10.205 38.185 9.825 38.885 9.755 39.045 9.305 40.035 9.285 40.085 9.285 40.095 8.955 40.965 8.815 41.325 8.775 41.465 8.555 42.225 8.445 42.585 8.435 42.655 8.245 43.485 8.155 43.865 8.135 43.985 8.025 44.685 7.955 45.165 7.945 45.295 7.855 46.425 7.845 46.485 7.845 46.495 7.825 47.795 7.875 48.715 7.895 49.115 7.925 49.315 7.955 49.565 8.055 50.425 8.105 50.675 8.115 50.705 8.305 51.715 8.365 51.955 8.655 52.985 8.695 53.105 8.875 53.635 9.075 54.235 9.135 54.385 9.565 55.385 9.595 55.445 9.595 55.455 9.985 56.225 10.185 56.615 10.295 56.805 10.425 57.015 10.865 57.755 10.995 57.935 11.135 58.155 11.615 58.835 11.705 58.955 12.435 59.855 12.495 59.925 13.315 60.805 13.335 60.825 13.975 61.435 14.285 61.735 14.405 61.835 15.015 62.325 15.305 62.565 15.375 62.615 15.865 62.965 16.375 63.335 16.585 63.465 17.505 64.015 17.545 64.035 18.615 64.595 18.675 64.625 18.695 64.635 19.505 64.995 19.875 65.155 20.015 65.205 20.615 65.415 21.115 65.595 21.265 65.635 21.725 65.765 22.385 65.955 22.565 65.995 23.675 66.215 23.715 66.225 24.795 66.365 24.985 66.395 25.045 66.395 25.755 66.445 26.295 66.485 26.525 66.485 26.835 66.485 27.615 66.475 27.725 66.465 28.445 66.415 28.925 66.385 29.045 66.365 29.755 66.265 30.235 66.195 30.395 66.165 30.845 66.065 31.515 65.925 31.675 65.885 32.145 65.745 32.785 65.565 32.975 65.495 33.275 65.385 34.025 65.115 34.235 65.015 35.225 64.575 35.315 64.535 35.865 64.245 36.395 63.965 36.575 63.855 36.885 63.665 37.515 63.265 37.635 63.185 38.055 62.875 38.585 62.495 38.745 62.365 39.045 62.105 39.595 61.655 39.685 61.565 40.355 60.935 40.545 60.745 40.585 60.705 41.095 60.155 41.435 59.775 41.575 59.595 41.735 59.405 42.255 58.745 42.335 58.635 42.875 57.825 42.995 57.655 43.015 57.625 43.515 56.765 43.665 56.515 43.715 56.425 43.995 55.855 44.255 55.345 44.315 55.195 44.625 54.435 44.755 54.125 44.775 54.065 45.105 53.075 45.175 52.875 45.195 52.815 45.405 52.025 45.515 51.605 45.535 51.495 45.685 50.675 45.755 50.305 45.775 50.185 45.835 49.615 45.915 49.005 45.925 48.845 45.945 48.235 45.975 47.685 45.975 47.535 45.955 46.605 45.945 46.365 45.945 46.335 45.875 45.545 45.835 45.055 45.805 44.855 45.625 43.755 45.605 43.685 45.365 42.635 45.325 42.475 45.315 42.425 45.055 41.585 44.945 41.215 44.905 41.105 44.665 40.475 44.475 39.985 44.405 39.835 43.915 38.785 43.875 38.715 43.505 38.035 43.285 37.635 43.215 37.525 42.735 36.795 42.565 36.525 42.525 36.475 42.125 35.935 41.785 35.475 41.615 35.275 41.575 35.235 40.925 34.475 40.795 34.345 40.485 34.035 39.995 33.535 39.835 33.395 39.565 33.165 39.005 32.665 38.885 32.575 38.445 32.235 37.965 31.865 37.835 31.785 37.105 31.295 36.865 31.145 36.815 31.115 35.805 30.545 35.715 30.495 35.695 30.485 34.745 30.035 34.525 29.925 34.445 29.895 33.785 29.625 33.305 29.435 33.175 29.395 32.045 29.045 31.185 28.835 30.765 28.725 30.575 28.695 30.215 28.635 29.465 28.505 29.255 28.485 28.155 28.375 28.075 28.375 27.125 28.345 26.845 28.335"/>
          <polygon class="cls-2" points="26.865 34.815 25.795 34.865 24.735 35.005 23.685 35.225 22.665 35.545 21.675 35.945 20.725 36.435 19.815 36.995 18.955 37.635 18.155 38.345 17.415 39.115 16.745 39.955 16.145 40.835 15.635 41.775 15.195 42.745 14.835 43.755 14.575 44.795 14.395 45.845 14.305 46.915 14.315 47.985 14.405 49.055 14.585 50.105 14.865 51.135 15.225 52.145 15.665 53.115 16.185 54.055 16.795 54.935 17.465 55.765 18.205 56.535 19.015 57.235 19.875 57.875 20.785 58.435 21.745 58.905 22.735 59.305 23.765 59.615 24.805 59.835 25.865 59.975 26.935 60.015 28.005 59.965 29.065 59.825 30.105 59.595 31.135 59.285 32.125 58.875 33.075 58.395 33.985 57.835 34.845 57.195 35.645 56.485 36.385 55.705 37.055 54.875 37.645 53.985 38.165 53.055 38.605 52.075 38.955 51.065 39.225 50.035 39.405 48.975 39.485 47.905 39.485 46.845 39.395 45.775 39.205 44.725 38.935 43.685 38.575 42.675 38.135 41.705 37.605 40.775 37.005 39.885 36.335 39.055 35.585 38.285 34.785 37.585 33.925 36.955 33.015 36.395 32.055 35.915 31.065 35.515 30.035 35.205 28.995 34.985 27.925 34.855 26.865 34.815"/>
          <polygon class="cls-2" points="26.855 34.095 27.955 34.135 29.055 34.265 30.125 34.495 31.185 34.805 32.215 35.195 33.205 35.675 34.155 36.235 35.045 36.875 35.895 37.585 36.675 38.365 37.385 39.195 38.025 40.095 38.595 41.035 39.085 42.025 39.485 43.045 39.805 44.105 40.035 45.185 40.165 46.275 40.215 47.375 40.175 48.475 40.045 49.565 39.825 50.645 39.505 51.695 39.115 52.725 38.635 53.715 38.075 54.665 37.435 55.565 36.725 56.405 35.945 57.185 35.115 57.895 34.215 58.545 33.275 59.105 32.285 59.595 31.265 59.995 30.205 60.315 29.135 60.545 28.035 60.685 26.935 60.735 25.835 60.695 24.745 60.555 23.665 60.335 22.615 60.025 21.585 59.625 20.595 59.145 19.645 58.585 18.745 57.945 17.905 57.235 17.125 56.465 16.415 55.625 15.765 54.735 15.205 53.785 14.715 52.795 14.315 51.775 13.995 50.725 13.765 49.645 13.625 48.555 13.575 47.455 13.625 46.355 13.755 45.255 13.975 44.185 14.285 43.125 14.685 42.095 15.165 41.105 15.725 40.165 16.365 39.265 17.075 38.425 17.845 37.635 18.685 36.925 19.585 36.285 20.525 35.715 21.515 35.235 22.535 34.825 23.595 34.505 24.665 34.285 25.755 34.145 26.855 34.095"/>
          <polygon class="cls-2" points="26.945 62.535 25.775 62.495 24.605 62.365 23.455 62.135 22.325 61.825 21.225 61.425 20.155 60.945 19.125 60.385 18.145 59.745 17.215 59.025 16.345 58.245 15.535 57.385 14.795 56.475 14.125 55.515 13.545 54.505 13.035 53.445 12.605 52.355 12.265 51.225 12.015 50.085 11.855 48.925 11.785 47.755 11.795 46.575 11.905 45.415 12.105 44.255 12.395 43.115 12.775 42.005 13.235 40.925 13.775 39.895 14.405 38.895 15.095 37.955 15.865 37.065 16.705 36.245 17.595 35.485 18.555 34.805 19.555 34.195 20.595 33.665 21.685 33.215 22.795 32.855 23.945 32.585 25.095 32.395 26.265 32.305 27.435 32.295 28.605 32.385 29.765 32.565 30.915 32.835 32.025 33.185 33.115 33.625 34.165 34.155 35.175 34.755 36.125 35.435 37.025 36.185 37.865 37.005 38.645 37.885 39.345 38.825 39.975 39.815 40.525 40.845 40.985 41.925 41.375 43.035 41.665 44.165 41.875 45.325 41.995 46.485 42.015 47.665 41.955 48.835 41.795 49.995 41.555 51.145 41.225 52.265 40.805 53.365 40.295 54.425 39.715 55.435 39.055 56.405 38.325 57.325 37.515 58.175 36.655 58.965 35.725 59.685 34.755 60.335 33.725 60.905 32.655 61.395 31.555 61.795 30.425 62.115 29.275 62.345 28.115 62.485 26.945 62.535"/>
          <polygon class="cls-2" points="26.855 32.995 25.715 33.045 24.575 33.185 23.455 33.415 22.345 33.735 21.275 34.145 20.245 34.625 19.245 35.195 18.295 35.845 17.405 36.565 16.575 37.355 15.805 38.205 15.115 39.115 14.495 40.075 13.945 41.085 13.485 42.135 13.105 43.215 12.815 44.325 12.615 45.455 12.505 46.595 12.485 47.745 12.565 48.885 12.725 50.025 12.975 51.135 13.315 52.235 13.745 53.295 14.255 54.325 14.835 55.305 15.505 56.235 16.245 57.115 17.045 57.935 17.915 58.685 18.835 59.365 19.815 59.965 20.835 60.485 21.885 60.925 22.975 61.285 24.095 61.555 25.225 61.725 26.365 61.815 27.515 61.815 28.655 61.715 29.785 61.535 30.905 61.255 31.985 60.895 33.045 60.455 34.055 59.925 35.035 59.315 35.955 58.625 36.815 57.875 37.615 57.055 38.345 56.175 39.005 55.235 39.585 54.245 40.095 53.215 40.515 52.155 40.845 51.055 41.085 49.935 41.245 48.805 41.305 47.655 41.285 46.515 41.165 45.375 40.955 44.245 40.665 43.135 40.275 42.055 39.815 41.005 39.265 40.005 38.635 39.045 37.935 38.135 37.165 37.295 36.325 36.505 35.425 35.795 34.475 35.155 33.485 34.585 32.445 34.105 31.365 33.705 30.265 33.395 29.135 33.175 28.005 33.045 26.855 32.995"/>
          <line class="cls-2" x1="31.855" y1="1.535" x2="31.855" y2="3.785"/>
          <line class="cls-2" x1="23.575" y1="1.535" x2="31.855" y2="1.535"/>
          <polyline class="cls-2" points="23.575 3.735 23.575 3.725 23.575 1.535"/>
          <line class="cls-2" x1="42.555" y1="89.315" x2="40.235" y2="89.315"/>
          <line class="cls-2" x1="40.235" y1="94.785" x2="42.555" y2="94.785"/>
          <line class="cls-2" x1="11.235" y1="94.785" x2="13.565" y2="94.785"/>
          <line class="cls-2" x1="13.565" y1="89.315" x2="11.235" y2="89.315"/>
          <polyline class="cls-2" points="42.395 141.315 42.475 141.315 42.555 141.315 42.635 141.295 42.705 141.285 42.785 141.265 42.865 141.245 42.935 141.215 43.015 141.185"/>
          <polyline class="cls-2" points="12.845 141.315 12.765 141.315 12.685 141.315 12.615 141.295 12.535 141.285 12.455 141.265 12.385 141.245 12.305 141.215 12.245 141.185"/>
          <polyline class="cls-2" points="10.675 140.655 10.815 140.685 11.085 140.745 11.405 140.845 11.795 140.985 12.235 141.185 12.245 141.185"/>
          <polyline class="cls-2" points="43.015 141.175 43.035 141.165 43.455 140.975 43.815 140.845 44.125 140.755 44.385 140.685 44.535 140.655"/>
          <line class="cls-2" x1="63.975" y1="33.195" x2="57.935" y2="33.195"/>
          <line class="cls-2" x1="57.935" y1="107.715" x2="63.975" y2="107.715"/>
          <line class="cls-2" x1="57.935" y1="11.775" x2="57.855" y2="11.775"/>
          <line class="cls-2" x1="57.855" y1="129.135" x2="57.935" y2="129.135"/>
          <polyline class="cls-2" points="57.855 7.455 57.815 6.645 57.675 5.855 57.455 5.075 57.145 4.325 56.755 3.625 56.285 2.965 55.745 2.365 55.145 1.825 54.485 1.355 53.785 .965 53.035 .655 52.265 .435 51.465 .295 50.655 .255"/>
          <polyline class="cls-2" points="50.655 140.655 51.465 140.605 52.265 140.475 53.035 140.245 53.785 139.935 54.485 139.545 55.145 139.085 55.745 138.545 56.285 137.945 56.755 137.285 57.145 136.575 57.455 135.835 57.675 135.055 57.815 134.255 57.855 133.455"/>
          <line class="cls-2" x1="50.655" y1=".255" x2=".255" y2=".255"/>
          <polyline class="cls-2" points=".255 140.655 10.675 140.655 15.705 140.655"/>
          <polyline class="cls-2" points="39.525 140.655 44.535 140.655 50.655 140.655"/>
        </g>
      </g>
    </g>
  </g>
</svg>