<?xml version="1.0" encoding="UTF-8"?>
<svg id="Layer_2" data-name="Layer 2" xmlns="http://www.w3.org/2000/svg" viewBox="0 0 89.39 99.72">
  <defs>
    <style>
      .cls-1 {
        fill: #9d9fa2;
      }

      .cls-2 {
        fill: #bcbec0;
      }

      .cls-3 {
        stroke-width: .72px;
      }

      .cls-3, .cls-4, .cls-5, .cls-6, .cls-7, .cls-8 {
        fill: none;
        stroke: #000;
        stroke-linecap: round;
        stroke-linejoin: round;
      }

      .cls-4 {
        stroke-width: 1.08px;
      }

      .cls-5 {
        stroke-width: 1.44px;
      }

      .cls-6 {
        stroke-width: 1.44px;
      }

      .cls-7 {
        stroke-width: 1.44px;
      }

      .cls-8 {
        stroke-width: 1.44px;
      }

      .cls-9 {
        fill: #89a4b6;
        stroke: #010101;
        stroke-width: .6px;
      }
    </style>
  </defs>
  <g id="Optical_elements" data-name="Optical elements">
    <g id="Mirror_mount_-_Fixed_1_" data-name="Mirror mount - Fixed 1&amp;apos;&amp;apos;">
      <g>
        <g>
          <path class="cls-2" d="M12.68,76.83c.83.86,1.33,2.02,1.33,3.31,0,2.64-2.13,4.77-4.77,4.78-2.64,0-4.77-2.14-4.77-4.77s2.14-4.77,4.77-4.77c1.34,0,2.57.56,3.44,1.46ZM76.83,12.68c-.91-.86-1.46-2.09-1.46-3.43,0-2.63,2.14-4.77,4.77-4.77,2.63,0,4.77,2.14,4.77,4.77,0,2.64-2.13,4.77-4.77,4.78-1.29,0-2.45-.52-3.31-1.34ZM75.94,13.58l-.13.13-3.95,3.95c14.87,14.94,14.86,39.11-.06,54.03-14.91,14.92-39.1,14.94-54.03.06l-.13.13-3.95,3.95-.06-.06c-4.88-4.88-8.55-10.84-10.7-17.4h-.01s-.04.03-.04.03H.76s-.04,24.31-.04,24.31l1.4,1.65,3.05,3.05,1.5,1.27h76.4s.76-.76.76-.76l.25-.25,4.58-4.58V6.45s-1.78-1.78-1.78-1.78l-.25-.25-1.53-1.53-.25-.25-1.91-1.91-24.48.04v2.05c6.57,2.16,12.53,5.81,17.42,10.7l.06.06ZM80.27,84.92c-2.64,0-4.77-2.14-4.77-4.77s2.14-4.77,4.77-4.77c2.63,0,4.77,2.14,4.77,4.77,0,2.64-2.13,4.77-4.77,4.78Z"/>
          <path class="cls-1" d="M12.64,65.38l-1.92-3.49-3.64-3.64,1.4-1.4-1.08-2.61-.19-.19-4.29,4.29h.01c2.15,6.58,5.82,12.54,10.7,17.42l.06.06,3.95-3.95-3.44-3.95-1.55-2.5-.02-.05Z"/>
          <path class="cls-2" d="M.85,6.45l-.08,51.93h2.12s.04-.04.04-.04l4.29-4.29.08-.08-.39-.94c-3.18-12.98.64-26.69,10.1-36.15C26.45,7.43,40.16,3.6,53.15,6.78l.11.16.85.21,4.26-4.26.08-.07V.76s-52.01.08-52.01.08L1.87,5.43l-.25.25-.76.76ZM9.37,14.03c-2.64,0-4.77-2.14-4.77-4.77s2.14-4.77,4.77-4.77c2.63,0,4.77,2.14,4.77,4.77,0,2.64-2.13,4.77-4.77,4.78Z"/>
          <polygon class="cls-1" points="57.12 8.22 55.58 7.51 54.11 7.15 53.8 7.47 7.47 53.8 7.29 53.97 7.4 54.24 8.48 56.85 10.12 60.8 10.73 61.89 12.64 65.38 12.66 65.43 14.21 67.92 17.65 71.87 17.78 71.74 19.18 70.34 26.68 62.83 29.74 59.78 32.79 56.72 35.72 53.8 39.79 49.72 44.76 44.76 49.72 39.79 53.8 35.72 56.85 32.67 59.78 29.74 62.83 26.68 70.34 19.18 71.87 17.65 71.86 17.64 67.92 14.21 65.25 12.56 65.06 12.48 62.1 10.52 61.33 10.17 57.12 8.22"/>
          <path class="cls-1" d="M19.18,70.34l-1.4,1.4c14.93,14.88,39.12,14.86,54.03-.06,14.92-14.92,14.93-39.09.06-54.03l-1.53,1.53-7.51,7.51-3.05,3.05-2.93,2.93-3.05,3.05-4.07,4.07-4.96,4.96-4.96,4.96-4.07,4.07-2.93,2.93-3.05,3.05-3.05,3.05-7.51,7.51Z"/>
          <path class="cls-1" d="M6.9,53.03l.39.94.18-.18L53.8,7.47l.32-.32-.85-.21-.11-.16c-13-3.18-26.7.65-36.15,10.1C7.54,26.34,3.72,40.05,6.9,53.03Z"/>
          <path class="cls-1" d="M71.86,17.64h0s3.95-3.94,3.95-3.94l.13-.13-.06-.06c-4.89-4.89-10.85-8.54-17.42-10.7l-.08.07-4.26,4.26,1.46.36,1.54.71,1.13-1.13,3.08,3.08.76.35,2.96,1.96.19.08,2.67,1.65,3.94,3.43Z"/>
        </g>
        <g>
          <polyline class="cls-4" points="53.27 6.94 54.11 7.15 55.58 7.51 57.12 8.22 61.33 10.17 62.1 10.52 65.06 12.48"/>
          <line class="cls-4" x1="12.64" y1="65.38" x2="12.56" y2="65.25"/>
          <polyline class="cls-4" points="17.65 71.87 14.21 67.92 12.66 65.43"/>
          <polyline class="cls-4" points="12.66 65.43 12.64 65.38 10.73 61.89 10.12 60.8 8.48 56.85 7.4 54.24 7.29 53.97 6.9 53.03"/>
          <polyline class="cls-4" points="65.25 12.56 67.92 14.21 71.86 17.64"/>
          <path class="cls-7" d="M71.81,17.58l.06.06h0c14.87,14.95,14.86,39.12-.06,54.04-14.91,14.92-39.1,14.94-54.03.06l-.06-.06"/>
          <path class="cls-8" d="M6.9,53.03c-3.18-12.98.64-26.69,10.1-36.15C26.45,7.43,40.16,3.6,53.15,6.78"/>
          <line class="cls-7" x1="29.74" y1="59.78" x2="26.68" y2="62.83"/>
          <line class="cls-7" x1="35.72" y1="53.8" x2="32.79" y2="56.72"/>
          <line class="cls-7" x1="56.85" y1="32.67" x2="53.8" y2="35.72"/>
          <line class="cls-7" x1="62.83" y1="26.68" x2="59.78" y2="29.74"/>
          <line class="cls-7" x1="7.47" y1="53.8" x2="53.8" y2="7.47"/>
          <path class="cls-6" d="M58.46,2.81c6.57,2.16,12.53,5.81,17.42,10.7"/>
          <polyline class="cls-7" points="53.8 7.47 54.11 7.15 58.38 2.88"/>
          <polyline class="cls-7" points="2.88 58.38 2.93 58.34 7.21 54.05 7.29 53.97 7.47 53.8"/>
          <path class="cls-7" d="M13.64,75.75c-4.88-4.88-8.55-10.84-10.7-17.4"/>
          <polyline class="cls-4" points="58.25 7.08 57.12 8.22 54.18 11.16"/>
          <line class="cls-4" x1="52.14" y1="13.19" x2="43.87" y2="21.47"/>
          <line class="cls-4" x1="41.83" y1="23.5" x2="33.69" y2="31.65"/>
          <line class="cls-4" x1="31.65" y1="33.69" x2="23.5" y2="41.83"/>
          <line class="cls-4" x1="21.47" y1="43.87" x2="13.19" y2="52.14"/>
          <polyline class="cls-4" points="11.16 54.18 9.25 56.09 8.48 56.85 7.08 58.25"/>
          <line class="cls-4" x1="70.34" y1="19.18" x2="65.51" y2="14.34"/>
          <polyline class="cls-4" points="63.09 11.92 61.33 10.17 58.25 7.08"/>
          <line class="cls-4" x1="19.18" y1="70.34" x2="14.34" y2="65.51"/>
          <polyline class="cls-4" points="11.92 63.09 10.73 61.89 7.08 58.25"/>
          <line class="cls-7" x1="84.85" y1="2.63" x2="82.94" y2=".72"/>
          <line class="cls-7" x1="86.63" y1="4.41" x2="85.11" y2="2.88"/>
          <line class="cls-7" x1="88.67" y1="6.45" x2="86.89" y2="4.67"/>
          <line class="cls-7" x1="1.61" y1="5.68" x2=".85" y2="6.45"/>
          <line class="cls-7" x1="6.45" y1=".85" x2="1.87" y2="5.43"/>
          <polyline class="cls-7" points=".72 82.94 2.12 84.34 5.17 87.4 6.45 88.67"/>
          <polyline class="cls-7" points="84.09 87.65 88.67 83.07 88.67 6.45"/>
          <line class="cls-7" x1="83.07" y1="88.67" x2="83.83" y2="87.91"/>
          <polyline class="cls-7" points=".72 82.94 .72 82.69 .76 58.38 .85 6.45"/>
          <polyline class="cls-7" points="83.07 88.67 6.67 88.67 6.45 88.67"/>
          <polyline class="cls-7" points="6.45 .85 58.46 .76 82.94 .72"/>
          <path class="cls-5" d="M85.04,80.14c0,2.64-2.13,4.77-4.77,4.78-2.64,0-4.77-2.14-4.77-4.77s2.14-4.77,4.77-4.77c2.63,0,4.77,2.14,4.77,4.77Z"/>
          <path class="cls-5" d="M14.14,9.25c0,2.64-2.13,4.77-4.77,4.78-2.64,0-4.77-2.14-4.77-4.77s2.14-4.77,4.77-4.77c2.63,0,4.77,2.14,4.77,4.77Z"/>
          <path class="cls-5" d="M84.91,9.25c0,2.64-2.13,4.77-4.77,4.78-1.29,0-2.45-.52-3.31-1.34-.91-.86-1.46-2.09-1.46-3.43,0-2.63,2.14-4.77,4.77-4.77,2.63,0,4.77,2.14,4.77,4.77"/>
          <path class="cls-5" d="M14.01,80.14c0,2.64-2.13,4.77-4.77,4.78-2.64,0-4.77-2.14-4.77-4.77s2.14-4.77,4.77-4.77c1.34,0,2.57.56,3.44,1.46.83.86,1.33,2.02,1.33,3.31"/>
          <line class="cls-4" x1="9.25" y1="56.09" x2="8.61" y2="55.45"/>
          <polyline class="cls-4" points="7.97 54.81 7.4 54.24 7.21 54.05"/>
          <polyline class="cls-3" points="3.52 86 2.12 84.34 .72 82.69"/>
          <line class="cls-3" x1="1.61" y1="5.68" x2="1.87" y2="5.43"/>
          <line class="cls-3" x1="84.85" y1="2.63" x2="85.11" y2="2.88"/>
          <line class="cls-3" x1="86.63" y1="4.41" x2="86.89" y2="4.67"/>
          <line class="cls-3" x1="84.09" y1="87.65" x2="83.83" y2="87.91"/>
          <line class="cls-3" x1="24.78" y1="99.36" x2="24.39" y2="99.23"/>
          <polyline class="cls-3" points="6.83 88.8 6.67 88.67 5.17 87.4 3.52 86"/>
          <line class="cls-3" x1="35.72" y1="53.8" x2="39.79" y2="49.72"/>
          <line class="cls-3" x1="32.79" y1="56.72" x2="29.74" y2="59.78"/>
          <polyline class="cls-3" points="26.68 62.83 19.18 70.34 17.78 71.74 17.65 71.87 13.7 75.81 12.68 76.83"/>
          <polyline class="cls-3" points="53.8 35.72 49.72 39.79 44.76 44.76 39.79 49.72"/>
          <line class="cls-3" x1="56.85" y1="32.67" x2="59.78" y2="29.74"/>
          <polyline class="cls-3" points="62.83 26.68 70.34 19.18 71.87 17.65 75.81 13.7 75.94 13.58 76.83 12.68"/>
        </g>
      </g>
      <rect class="cls-9" x="2.22" y="27.64" width="72" height="19.38" transform="translate(-15.2 37.96) rotate(-45)"/>
    </g>
  </g>
</svg>