<?xml version="1.0" encoding="UTF-8"?>
<svg id="Layer_2" data-name="Layer 2" xmlns="http://www.w3.org/2000/svg" viewBox="0 0 55.31 55.3">
  <defs>
    <style>
      .cls-1 {
        fill: #bcbec0;
      }

      .cls-2 {
        fill: #8a8c8e;
      }

      .cls-3 {
        stroke-width: 1.08px;
      }

      .cls-3, .cls-4, .cls-5, .cls-6, .cls-7 {
        fill: none;
        stroke: #000;
        stroke-linecap: round;
        stroke-linejoin: round;
      }

      .cls-4 {
        stroke-width: 1.44px;
      }

      .cls-5 {
        stroke-width: 1.44px;
      }

      .cls-6 {
        stroke-width: 1.44px;
      }

      .cls-7 {
        stroke-width: 1.44px;
      }

      .cls-8 {
        fill: #89a4b6;
        stroke: #010101;
        stroke-width: .6px;
      }
    </style>
  </defs>
  <g id="Optical_elements" data-name="Optical elements">
    <g id="Mirror_mount_-_Fixed_0.5_" data-name="Mirror mount - Fixed 0.5&amp;apos;&amp;apos;">
      <g>
        <g>
          <path class="cls-1" d="M6.43,54.58h42.49l5.67-5.66V6.42l-5.67-5.66h-19.77c5.07.28,9.94,1.98,14.06,4.9l.02-.03c2.2-1.12,4.88-.4,6.23,1.66,1.34,2.07.91,4.81-1,6.37-1.91,1.54-4.67,1.41-6.41-.31l-1.52,1.53-1.79,1.78c6.07,6.1,6.06,15.96-.03,22.05s-15.94,6.09-22.04.03l-1.78,1.78-1.47,1.47c1.71,1.74,1.85,4.49.31,6.4-1.55,1.91-4.3,2.34-6.37,1-2.04-1.33-2.77-3.98-1.68-6.17-2.96-4.17-4.66-9.1-4.92-14.23v19.93l5.67,5.66ZM45.36,50.17c-2.66,0-4.81-2.15-4.81-4.81s2.15-4.82,4.81-4.82,4.81,2.16,4.81,4.81-2.15,4.82-4.81,4.82Z"/>
          <path class="cls-2" d="M5.68,43.22c.86,1.24,1.85,2.41,2.94,3.5l.03.04,4.01-4.01.76-.76,1.47-1.47-2.42-2.42-1.21-1.21-4.83-4.83-1.21-1.21-2.36-2.35H.76v.49c.26,5.13,1.96,10.06,4.92,14.23Z"/>
          <polygon class="cls-2" points="14.89 40.52 16.67 38.74 16.64 38.71 14.89 36.58 14.19 35.37 13.42 33.97 12.47 31.23 12.34 30.09 12.15 28.75 12.15 28.37 12.21 25.51 12.79 23.15 13.3 21.88 14.06 20.1 15.71 17.68 16.22 17.17 17.18 16.22 17.75 15.64 16.73 14.63 16.22 15.14 15.2 16.15 11.07 20.29 10.05 21.31 5.92 25.44 4.9 26.46 2.86 28.5 5.22 30.85 6.43 32.06 11.26 36.89 12.47 38.1 14.89 40.52"/>
          <path class="cls-1" d="M16.67,38.74c6.1,6.06,15.96,6.05,22.04-.03s6.1-15.95.03-22.05l-22.07,22.08Z"/>
          <polygon class="cls-2" points="16.67 38.74 38.74 16.66 38.71 16.63 36.58 14.88 35.37 14.18 33.97 13.42 31.24 12.46 30.09 12.34 28.76 12.15 28.44 12.08 25.51 12.21 23.22 12.72 21.95 13.23 20.1 14.05 17.75 15.64 17.18 16.22 16.22 17.17 15.71 17.68 14.06 20.1 13.3 21.88 12.79 23.15 12.21 25.51 12.15 28.37 12.15 28.75 12.34 30.09 12.47 31.23 13.42 33.97 14.19 35.37 14.89 36.58 16.64 38.71 16.67 38.74"/>
          <polygon class="cls-2" points=".76 28.5 2.86 28.5 4.9 26.46 5.92 25.44 10.05 21.31 11.07 20.29 15.2 16.15 16.22 15.14 16.73 14.63 20.29 11.06 21.31 10.05 25.45 5.91 26.47 4.89 28.5 2.86 28.5 .76 26.53 .76 19.02 8.26 8.27 19.02 .76 26.52 .76 28.5"/>
          <path class="cls-1" d="M.76,26.52l7.51-7.5,10.75-10.76L26.53.76H6.43L.76,6.42v20.1ZM9.99,14.8c-2.66,0-4.81-2.16-4.82-4.82,0-2.65,2.16-4.81,4.82-4.81s4.81,2.15,4.81,4.81-2.15,4.82-4.81,4.82Z"/>
          <polygon class="cls-2" points="38.71 16.63 38.74 16.66 40.53 14.88 38.11 12.46 36.9 11.26 32.06 6.42 30.86 5.21 28.5 2.86 26.47 4.89 25.45 5.91 21.31 10.05 20.29 11.06 16.73 14.63 17.75 15.64 20.1 14.05 21.95 13.23 23.22 12.72 25.51 12.21 28.44 12.08 28.76 12.15 30.09 12.34 31.24 12.46 33.97 13.42 35.37 14.18 36.58 14.88 38.71 16.63"/>
          <path class="cls-2" d="M42.05,13.35l.7-.7,4.01-4-.03-.04c-1.09-1.09-2.27-2.08-3.52-2.95-4.12-2.92-8.99-4.62-14.06-4.9h-.65v2.1l2.36,2.35,1.2,1.21,4.84,4.84,1.21,1.2,2.42,2.42,1.52-1.53Z"/>
        </g>
        <g>
          <line class="cls-3" x1="28.5" y1="2.86" x2="26.47" y2="4.89"/>
          <line class="cls-3" x1="25.45" y1="5.91" x2="21.31" y2="10.05"/>
          <polyline class="cls-3" points="20.29 11.06 16.73 14.63 16.22 15.14"/>
          <line class="cls-3" x1="15.2" y1="16.15" x2="11.07" y2="20.29"/>
          <line class="cls-3" x1="10.05" y1="21.31" x2="5.92" y2="25.44"/>
          <line class="cls-3" x1="4.9" y1="26.46" x2="2.86" y2="28.5"/>
          <line class="cls-3" x1="40.53" y1="14.88" x2="38.11" y2="12.46"/>
          <line class="cls-3" x1="36.9" y1="11.26" x2="32.06" y2="6.42"/>
          <line class="cls-3" x1="30.86" y1="5.21" x2="28.5" y2="2.86"/>
          <line class="cls-3" x1="14.89" y1="40.52" x2="12.47" y2="38.1"/>
          <line class="cls-3" x1="11.26" y1="36.89" x2="6.43" y2="32.06"/>
          <line class="cls-3" x1="5.22" y1="30.85" x2="2.86" y2="28.5"/>
          <polyline class="cls-7" points=".76 26.52 8.27 19.02 19.02 8.26 26.53 .76"/>
          <path class="cls-7" d="M38.74,16.66c6.07,6.1,6.06,15.96-.03,22.05s-15.94,6.09-22.04.03"/>
          <polyline class="cls-7" points="46.76 8.65 42.75 12.65 42.05 13.35 40.53 14.88 38.74 16.66 16.67 38.74 14.89 40.52 13.42 41.99 12.66 42.75 8.65 46.76"/>
          <path class="cls-7" d="M8.62,46.72c-1.09-1.09-2.08-2.26-2.94-3.5-2.96-4.17-4.66-9.1-4.92-14.23-.04-.82-.05-1.65-.01-2.48"/>
          <path class="cls-4" d="M26.51.75c.88-.04,1.76-.03,2.64.01,5.07.28,9.94,1.98,14.06,4.9,1.25.87,2.43,1.86,3.52,2.95"/>
          <polyline class="cls-3" points="16.67 38.74 16.64 38.71 14.89 36.58"/>
          <polyline class="cls-3" points="14.19 35.37 13.42 33.97 12.47 31.23 12.34 30.09"/>
          <polyline class="cls-3" points="12.15 28.75 12.15 28.37 12.21 25.51 12.79 23.15"/>
          <polyline class="cls-3" points="13.3 21.88 14.06 20.1 15.71 17.68 16.22 17.17"/>
          <polyline class="cls-3" points="17.18 16.22 17.75 15.64 20.1 14.05 21.95 13.23"/>
          <polyline class="cls-3" points="23.22 12.72 25.51 12.21 28.44 12.08 28.76 12.15"/>
          <polyline class="cls-3" points="30.09 12.34 31.24 12.46 33.97 13.42 35.37 14.18"/>
          <line class="cls-7" x1="38.71" y1="16.63" x2="38.74" y2="16.66"/>
          <line class="cls-3" x1="36.58" y1="14.88" x2="38.71" y2="16.63"/>
          <line class="cls-7" x1="54.59" y1="6.42" x2="48.92" y2=".76"/>
          <line class="cls-7" x1="48.92" y1="54.58" x2="54.59" y2="48.92"/>
          <line class="cls-7" x1=".76" y1="48.92" x2="6.43" y2="54.58"/>
          <polyline class="cls-7" points="48.92 .76 29.15 .76 28.5 .76 26.53 .76 6.43 .76 .76 6.42"/>
          <line class="cls-7" x1="54.59" y1="6.42" x2="54.59" y2="48.92"/>
          <line class="cls-7" x1="48.92" y1="54.58" x2="6.43" y2="54.58"/>
          <polyline class="cls-7" points=".76 48.92 .76 28.99 .76 28.5 .76 26.52 .76 6.42"/>
          <path class="cls-3" d="M42.05,13.35l-.03-.03"/>
          <path class="cls-6" d="M43.23,5.63c2.2-1.12,4.88-.4,6.23,1.66,1.34,2.07.91,4.81-1,6.37-1.91,1.54-4.67,1.41-6.41-.31"/>
          <path class="cls-7" d="M13.39,41.95s.03.03.03.04c1.71,1.74,1.85,4.49.31,6.4-1.55,1.91-4.3,2.34-6.37,1-2.04-1.33-2.77-3.98-1.68-6.17,0-.02.01-.04.02-.06"/>
          <path class="cls-5" d="M9.99,5.17c2.66,0,4.81,2.15,4.81,4.81s-2.15,4.82-4.81,4.82-4.81-2.16-4.82-4.82c0-2.65,2.16-4.81,4.82-4.81Z"/>
          <path class="cls-5" d="M45.36,40.54c2.66,0,4.81,2.16,4.81,4.81s-2.15,4.82-4.81,4.82-4.81-2.15-4.81-4.81,2.15-4.82,4.81-4.82Z"/>
        </g>
      </g>
      <rect class="cls-8" x="2.79" y="11.23" width="36" height="18.68" transform="translate(-8.46 20.73) rotate(-45)"/>
    </g>
  </g>
</svg>