<?xml version="1.0" encoding="UTF-8"?>
<svg id="Layer_2" data-name="Layer 2" xmlns="http://www.w3.org/2000/svg" viewBox="0 0 175.14 174.96">
  <defs>
    <style>
      .cls-1 {
        fill: #58595b;
      }

      .cls-2 {
        fill: #010101;
      }

      .cls-2, .cls-3 {
        stroke: #010101;
        stroke-width: .6px;
      }

      .cls-4 {
        fill: #bcbec0;
      }

      .cls-5 {
        fill: #414042;
      }

      .cls-6 {
        fill: #2b3990;
      }

      .cls-7 {
        stroke-width: 1.44px;
      }

      .cls-7, .cls-8, .cls-9, .cls-10, .cls-11, .cls-12, .cls-13, .cls-14, .cls-15, .cls-16, .cls-17, .cls-18 {
        fill: none;
        stroke: #000;
        stroke-linecap: round;
        stroke-linejoin: round;
      }

      .cls-8 {
        stroke-width: 1.44px;
      }

      .cls-9 {
        stroke-width: 1.44px;
      }

      .cls-10 {
        stroke-width: 1.44px;
      }

      .cls-11 {
        stroke-width: 1.44px;
      }

      .cls-12 {
        stroke-width: 1.44px;
      }

      .cls-13 {
        stroke-width: 1.44px;
      }

      .cls-14 {
        stroke-width: 1.44px;
      }

      .cls-15 {
        stroke-width: 1.44px;
      }

      .cls-16 {
        stroke-width: 1.44px;
      }

      .cls-17 {
        stroke-width: 1.44px;
      }

      .cls-18 {
        stroke-width: 1.44px;
      }

      .cls-3 {
        fill: #89a4b6;
      }
    </style>
  </defs>
  <g id="Optical_elements" data-name="Optical elements">
    <g id="Mirror_mount_-_Lioptec_1_" data-name="Mirror mount - Lioptec 1&amp;apos;&amp;apos;">
      <g>
        <polyline class="cls-16" points="99.54 6.48 99.36 6.3 99.72 6.3"/>
        <line class="cls-16" x1="100.08" y1="5.94" x2="99.72" y2="6.3"/>
        <polyline class="cls-16" points="100.08 5.94 99.9 5.76 100.26 5.76"/>
        <line class="cls-16" x1="100.62" y1="5.4" x2="100.26" y2="5.76"/>
        <polyline class="cls-16" points="100.62 5.4 100.44 5.22 100.8 5.22"/>
        <line class="cls-16" x1="100.98" y1="5.04" x2="100.8" y2="5.22"/>
        <polyline class="cls-16" points="100.98 5.04 100.8 4.68 101.34 4.68"/>
        <line class="cls-16" x1="101.52" y1="4.5" x2="101.34" y2="4.68"/>
        <polyline class="cls-16" points="101.52 4.5 101.34 4.32 101.7 4.32"/>
        <line class="cls-16" x1="101.88" y1="4.14" x2="101.7" y2="4.32"/>
        <polyline class="cls-16" points="101.88 4.14 101.7 3.96 102.06 3.96"/>
        <line class="cls-16" x1="102.24" y1="3.78" x2="102.06" y2="3.96"/>
        <polyline class="cls-16" points="102.24 3.78 102.06 3.6 102.42 3.6"/>
        <line class="cls-16" x1="102.6" y1="3.42" x2="102.42" y2="3.6"/>
        <polyline class="cls-16" points="102.6 3.42 102.42 3.24 102.78 3.24"/>
        <line class="cls-16" x1="102.96" y1="3.06" x2="102.78" y2="3.24"/>
        <polyline class="cls-16" points="102.96 3.06 102.78 2.88 103.14 2.88"/>
        <line class="cls-16" x1="103.14" y1="2.88" x2="103.14" y2="2.88"/>
        <polyline class="cls-16" points="103.14 2.88 102.96 2.7 103.32 2.7"/>
        <line class="cls-16" x1="103.5" y1="2.52" x2="103.32" y2="2.7"/>
        <polyline class="cls-16" points="103.5 2.52 103.14 2.52 103.5 2.52"/>
        <line class="cls-16" x1="103.68" y1="2.34" x2="103.5" y2="2.52"/>
        <polyline class="cls-16" points="103.68 2.34 103.32 2.34 103.68 2.34"/>
        <line class="cls-16" x1="103.68" y1="2.16" x2="103.68" y2="2.34"/>
        <polyline class="cls-16" points="103.68 2.16 103.5 2.16 103.86 2.16"/>
        <line class="cls-16" x1="103.86" y1="2.16" x2="103.86" y2="2.16"/>
        <polyline class="cls-16" points="103.86 2.16 103.68 1.98 103.86 2.16"/>
        <line class="cls-16" x1="104.04" y1="1.98" x2="103.86" y2="2.16"/>
        <polyline class="cls-16" points="104.04 1.98 103.68 1.98 104.04 1.98"/>
        <line class="cls-16" x1="104.04" y1="1.98" x2="104.04" y2="1.98"/>
        <line class="cls-16" x1="104.04" y1="1.98" x2="103.68" y2="1.98"/>
        <path class="cls-18" d="M100.15.77c-.41-.12-.86-.01-1.16.29"/>
        <line class="cls-16" x1="100.08" y1=".9" x2="103.68" y2="1.98"/>
        <g>
          <g>
            <polygon class="cls-1" points="83.34 174.24 82.26 174.24 89.28 167.22 94.32 162.18 101.34 155.16 101.34 156.24 95.04 162.72 89.82 167.94 83.34 174.24"/>
            <polygon class="cls-6" points="95.88 149.54 101.34 155.16 94.32 162.18 89.28 167.22 82.26 174.24 79.56 171.72 78.84 170.64 77.94 169.2 76.86 167.76 75.42 166.14 73.98 164.88 72.36 163.62 70.92 162.72 69.84 162 67.32 159.48 74.34 152.46 83.52 143.28 90.54 136.26 92.88 138.6 88.88 142.7 88.92 142.74 91.93 145.75 92.52 146.34 93.96 147.6 95.4 149.04 95.88 149.54"/>
            <polygon class="cls-1" points="79.56 171.72 69.84 162 70.92 162.72 72.36 163.62 73.98 164.88 75.42 166.14 76.86 167.76 77.94 169.2 78.84 170.64 79.56 171.72"/>
            <polygon class="cls-1" points="75.91 149.67 81.82 143.87 82.98 142.74 89.28 136.26 90.54 136.26 83.52 143.28 74.34 152.46 67.32 159.48 67.32 158.22 73.8 151.74 75.91 149.67"/>
            <polygon class="cls-1" points="101.34 156.24 101.34 155.16 144 112.5 146.88 109.62 148.14 109.62 146.81 110.87 144.9 112.68 130.61 126.97 121.68 135.9 101.34 156.24"/>
            <path class="cls-6" d="M101.34,155.16l-5.46-5.62c.37-.53.3-1.26-.16-1.72l.04-.04-1.98-1.98-.04.04c-.48-.48-1.24-.53-1.78-.12l-.03.03-3.01-3.01-.04-.04,4-4.1,41.58-41.4,12.42,12.42-2.88,2.88-42.66,42.66Z"/>
            <path class="cls-1" d="M75.91,149.67c-2.1.34-4.25-.29-5.84-1.7l-.03-.03,10.06-9.88.06-.05c1.4,1.6,1.99,3.75,1.64,5.84l.02.02-5.91,5.8Z"/>
            <path class="cls-1" d="M95.88,149.54l-.48-.5-1.44-1.44-1.44-1.26-.59-.59.03-.03c.54-.41,1.3-.36,1.78.12l.04-.04,1.98,1.98-.04.04c.46.46.53,1.19.16,1.72Z"/>
            <polygon class="cls-1" points="57.06 148.5 55.98 148.5 63 141.48 78.66 125.64 83.52 120.78 121.32 82.98 122.4 82.98 84.53 120.85 83.7 121.68 80.47 125.05 79.38 126.18 75.24 130.32 63.54 142.02 62.28 143.28 57.06 148.5"/>
            <path class="cls-5" d="M55.98,148.5l-22.86-22.86,7.02-7.02,15.66-15.84,5.04-4.86,37.62-37.79v.17l22.86,22.68-37.8,37.8-4.86,4.86-15.66,15.84-7.02,7.02ZM92.34,102.24l2.7-.36,2.34-.72,2.34-1.44,1.8-1.8,1.44-2.16.9-2.34.54-2.16-.18-2.34-.36-2.16-.72-2.16-1.08-1.98-1.62-1.62-1.98-1.62-2.16-1.26-2.52-.72-2.52-.18-2.52.18-2.52.9-2.34,1.26-1.8,1.98-1.44,2.16-.9,2.16-.36,2.34v2.16l.36,2.34.72,1.98,1.26,1.98,1.44,1.8,1.98,1.62,2.34,1.08,2.34.9,2.52.18Z"/>
            <path class="cls-1" d="M68.41,147.4c-.22-.21-.51-.34-.82-.34h-1.53l12.96-13.14v1.53c0,.15.03.31.09.45s.14.27.25.38h.02s.18.34.18.34l-.04.04c.32.32.47.79.37,1.23l.22.05s.04.05.05.07l-.06.05-10.06,9.88-.02.02-.1-.04c-.47.12-.97-.01-1.31-.35l-.03.03-.18-.18v-.02Z"/>
            <polygon class="cls-1" points="77.24 132.23 79.02 133.92 66.06 147.06 62.28 143.28 63.54 142.02 75.24 130.32 77.24 132.23"/>
            <path class="cls-1" d="M79.38,136.27h-.02c-.11-.1-.19-.23-.25-.37h10.53l-.36.36-6.3,6.48-1.16,1.13-.02-.02c.35-2.09-.24-4.24-1.64-5.84-.01-.02-.03-.05-.05-.07l-.22-.05c.1-.44-.05-.91-.37-1.23l.04-.04-.18-.35Z"/>
            <polygon class="cls-6" points="134.46 97.2 92.88 138.6 90.54 136.26 132.12 94.68 146.88 109.62 134.46 97.2"/>
            <polygon class="cls-1" points="96.76 128.78 132.12 93.42 132.12 94.68 90.54 136.26 89.28 136.26 89.64 135.9 96.76 128.78"/>
            <path class="cls-1" d="M89.64,135.9h-10.53c-.06-.14-.09-.3-.09-.45v-1.53l-1.78-1.69c1.53-.28,2.84-1.28,3.5-2.7.66-1.43.57-3.11-.25-4.46l-.02-.02,3.23-3.37.83-.83.1.09c1.02.97,2.09,1.88,3.21,2.72.01.02.03.03.04.04h.01c2.72,2.07,5.7,3.77,8.87,5.08l-7.12,7.12Z"/>
            <path class="cls-4" d="M150.12,135.9h-28.44l8.93-8.93.06.06c6.85-3.69,12.46-9.3,16.15-16.15h-.01s1.33-1.26,1.33-1.26l6.48-6.48,1.25-1.27h.01v28.45l-5.76,5.58ZM147.33,132.3c2.63,0,4.77-2.13,4.77-4.77s-2.14-4.77-4.77-4.77-4.77,2.14-4.77,4.77,2.13,4.77,4.77,4.77Z"/>
            <path class="cls-5" d="M77.24,132.23l-2-1.91,4.14-4.14,1.09-1.13.02.02c.82,1.35.91,3.03.25,4.46-.66,1.42-1.97,2.42-3.5,2.7Z"/>
            <path class="cls-4" d="M132.12,93.42l-35.36,35.36c-3.17-1.31-6.15-3.01-8.87-5.08h-.01s-.03-.02-.04-.04l44.82-44.64,5.94,1.62,1.62-1.44.04-.13c.19.05.37.15.51.29v.02s.17.36.17.36l.03-.03c.33.33.81.46,1.27.36v.04s.06.04.08.06c.56.49,1.2.88,1.88,1.17l.05.05-5.65,5.73-6.48,6.3Z"/>
            <path class="cls-1" d="M130.67,127.03l-.06-.06,14.29-14.29,1.91-1.81h.01c-3.69,6.86-9.3,12.47-16.15,16.16Z"/>
            <polygon class="cls-1" points="51.28 106.18 55.26 102.24 59.76 97.74 67.95 89.55 72.91 84.59 98.46 59.04 98.46 60.13 60.84 97.92 55.8 102.78 40.14 118.62 33.12 125.64 33.12 124.38 38.18 119.18 39.42 117.9 51.28 106.18"/>
            <path class="cls-4" d="M132.66,79.02l-44.82,44.64c-1.12-.84-2.19-1.75-3.21-2.72l-.1-.09,37.87-37.87,6.48-6.3,1.8,1.8,1.98.54Z"/>
            <polygon class="cls-1" points="38.18 119.18 38.16 119.16 28.44 109.44 41.4 96.48 51.28 106.18 39.42 117.9 38.18 119.18"/>
            <path class="cls-5" d="M19.1,112.7c-.31.3-.76.42-1.17.29v.03s-3.53-1.06-3.53-1.06l-.18-.18h.36l-.18-.18h.36l-.18-.18h.36l-.18-.18h.36l-.18-.18.18-.18h.36l-.18-.18h.36l-.18-.18.18-.18h.36l-.18-.18.18-.18h.36l-.18-.18.18-.18h.36v-.36l.18-.18h.36l-.18-.18.18-.18h.36v-.36l.18-.18h.36v-.36l.18-.18h.36v-.36l.18-.18h.36v-.36l.18-.18.54-.18-.18-.18.36-.36h.36v-.36l.18-.18.36-.18v-.18l.36-.36h.36v-.36l.18-.36h.54v-.36l.18-.18.54-.18v-.36l.18-.18.54-.18v-.36l.18-.18.54-.18v-.36l.18-.36h.54v-.36l.36-.36h.36v-.36l.36-.36h.36v-.36l.36-.36.36-.18.18-.36.18-.36h.54v-.36l.36-.36h.36v-.36l.36-.36h.36l.18-.54.18-.36h.54v-.36l.36-.36h.36v-.36l.36-.36h.36v-.36l.36-.36h.36l.18-.54.18-.18h.36l.18-.54.18-.18h.36l.18-.54.18-.36.36.18.18-.54.18-.18h.36l.18-.54.18-.18h.36v-.36l.36-.36h.36v-.36l.18-.36.36.18v-.54l.36-.18h.36v-.36l.18-.18h.36v-.36l.18-.36.36.18v-.36l.18-.36.36.18v-.36l.18-.18h.36v-.36l.18-.18.18.18v-.54l.18-.18.36.18v-.36l.18-.18.18.18v-.36l.18-.18.18.18v-.36l.18-.18.18.18v-.54l.18.36v-.36l.18-.18.18.18v-.36l.18.18v-.36l.18.18v-.36l.18.18v-.36l.18.18,1.06,3.53h-.03c.12.42.01.87-.29,1.17l-.02-.02-3.78,3.78-18,18-3.78,3.78.02.02Z"/>
            <polygon class="cls-1" points="14.58 111.78 14.22 111.78 14.22 111.6 14.58 111.78"/>
            <polygon class="cls-1" points="14.58 111.78 14.22 111.6 2.16 99.54 1.98 99.18 2.16 99.36 14.4 111.6 14.58 111.78"/>
            <polygon class="cls-1" points="14.22 111.78 14.13 111.69 1.98 99.54 2.16 99.54 14.22 111.6 14.22 111.78"/>
            <polygon class="cls-1" points="14.13 111.69 1.98 99.72 1.98 99.54 14.13 111.69"/>
            <polygon class="cls-1" points="14.76 111.6 14.4 111.6 2.16 99.36 2.16 99 2.34 99.36 14.58 111.42 14.76 111.6"/>
            <polygon class="cls-1" points="14.94 111.42 14.58 111.42 2.34 99.18 2.34 98.82 2.52 99 14.76 111.24 14.94 111.42"/>
            <polygon class="cls-1" points="14.58 111.42 2.34 99.36 2.34 99.18 14.58 111.42"/>
            <polygon class="cls-1" points="15.12 111.24 14.76 111.24 2.7 99 2.54 98.67 2.7 98.82 14.94 111.06 15.12 111.24"/>
            <polygon class="cls-1" points="14.76 111.24 2.52 99 2.7 99 14.76 111.24"/>
            <polygon class="cls-1" points="14.94 111.06 2.7 98.82 2.88 98.82 15.12 110.88 14.94 111.06"/>
            <polygon class="cls-1" points="15.48 110.88 15.12 110.88 2.88 98.82 2.88 98.46 3.06 98.64 15.3 110.7 15.48 110.88"/>
            <polygon class="cls-1" points="15.66 110.7 15.3 110.7 3.24 98.46 3.06 98.1 3.42 98.28 15.48 110.52 15.66 110.7"/>
            <polygon class="cls-1" points="15.3 110.7 3.06 98.64 3.24 98.46 15.3 110.7"/>
            <polygon class="cls-1" points="15.48 110.52 3.42 98.28 3.42 98.1 15.66 110.34 15.48 110.52"/>
            <polygon class="cls-1" points="16.02 110.34 15.66 110.34 3.42 98.1 3.42 97.74 3.6 97.92 15.84 110.16 16.02 110.34"/>
            <rect class="cls-1" x="9.68" y="95.29" width=".25" height="17.31" transform="translate(-70.63 37.38) rotate(-45)"/>
            <polygon class="cls-1" points="16.38 109.98 16.02 109.98 3.78 97.74 3.78 97.38 4.14 97.56 16.2 109.8 16.38 109.98"/>
            <polygon class="cls-1" points="16.2 109.8 4.14 97.56 4.32 97.38 16.38 109.62 16.2 109.8"/>
            <polygon class="cls-1" points="16.74 109.62 16.38 109.62 4.32 97.38 4.32 97.02 4.5 97.2 16.74 109.26 16.74 109.62"/>
            <polygon class="cls-1" points="148.14 109.62 146.88 109.62 153.9 102.6 167.4 89.1 174.42 82.08 174.42 83.34 167.94 89.64 155.87 101.87 154.62 103.14 148.14 109.62"/>
            <polygon class="cls-6" points="146.88 109.62 132.12 94.68 139.14 87.66 152.64 74.16 159.48 67.32 174.42 82.08 167.4 89.1 153.9 102.6 146.88 109.62"/>
            <path class="cls-1" d="M28.08,107.16h-.06c-.32-.32-.83-.32-1.14,0l-.15-.15,12.24-12.24.15.15c-.32.32-.32.83,0,1.15.15.15.35.23.57.23l.09.18h1.62l-12.96,12.96v-1.71c0-.21-.09-.42-.24-.57h-.12Z"/>
            <polygon class="cls-1" points="16.74 109.26 4.5 97.2 4.68 97.02 16.92 109.08 16.74 109.26"/>
            <polygon class="cls-1" points="17.28 109.08 16.92 109.08 4.68 97.02 4.68 96.48 4.86 96.66 17.1 108.9 17.28 109.08"/>
            <rect class="cls-1" x="10.94" y="94.03" width=".25" height="17.31" transform="translate(-69.37 37.9) rotate(-45)"/>
            <polygon class="cls-1" points="17.64 108.72 17.28 108.72 5.04 96.48 5.22 96.12 5.4 96.12 17.64 108.36 17.64 108.72"/>
            <rect class="cls-1" x="11.48" y="93.49" width=".25" height="17.31" transform="translate(-68.83 38.13) rotate(-45)"/>
            <polygon class="cls-1" points="18.18 108.18 17.82 108.18 5.58 95.94 5.58 95.58 5.94 95.76 18.18 107.82 18.18 108.18"/>
            <polygon class="cls-1" points="18.18 107.82 5.94 95.76 6.12 95.4 18.36 107.64 18.18 107.82"/>
            <polygon class="cls-1" points="18.72 107.64 18.36 107.64 6.12 95.4 6.12 95.04 6.48 95.22 18.72 107.28 18.72 107.64"/>
            <polygon class="cls-1" points="18.72 107.28 6.48 95.22 6.66 94.86 18.9 107.1 18.72 107.28"/>
            <polygon class="cls-1" points="19.26 107.1 18.9 107.1 6.66 94.86 6.84 94.5 7.02 94.5 19.26 106.74 19.26 107.1"/>
            <rect class="cls-1" x="13.1" y="91.87" width=".25" height="17.31" transform="translate(-67.21 38.8) rotate(-45)"/>
            <polygon class="cls-1" points="19.98 106.38 19.44 106.56 7.2 94.32 7.38 93.96 7.56 93.96 19.8 106.2 19.98 106.38"/>
            <polygon class="cls-1" points="19.8 106.2 7.56 93.96 7.92 93.78 20.16 105.84 19.8 106.2"/>
            <polygon class="cls-1" points="20.52 105.84 20.16 105.84 7.92 93.78 7.92 93.24 8.28 93.42 20.52 105.48 20.52 105.84"/>
            <polygon class="cls-1" points="20.52 105.48 8.28 93.42 8.46 93.06 20.7 105.3 20.52 105.48"/>
            <polygon class="cls-1" points="21.06 105.12 20.7 105.3 8.46 93.06 8.64 92.7 8.82 92.7 21.06 104.94 21.06 105.12"/>
            <rect class="cls-1" x="14.87" y="89.98" width=".51" height="17.31" transform="translate(-65.32 39.58) rotate(-45)"/>
            <polygon class="cls-1" points="21.78 104.58 21.42 104.58 9.18 92.34 9.18 91.98 9.54 91.98 21.78 104.22 21.78 104.58"/>
            <polygon class="cls-1" points="21.78 104.22 9.54 91.98 9.9 91.8 21.96 103.86 21.78 104.22"/>
            <polygon class="cls-1" points="22.5 103.86 21.96 103.86 9.9 91.8 9.9 91.26 10.26 91.26 22.5 103.5 22.5 103.86"/>
            <polygon class="cls-1" points="22.5 103.5 10.26 91.26 10.62 91.08 22.68 103.32 22.5 103.5"/>
            <polygon class="cls-1" points="23.22 103.14 22.68 103.32 10.62 91.08 10.62 90.54 10.98 90.72 23.22 102.78 23.22 103.14"/>
            <polygon class="cls-1" points="23.22 102.78 10.98 90.72 11.34 90.36 23.4 102.6 23.22 102.78"/>
            <polygon class="cls-1" points="23.94 102.42 23.4 102.6 11.34 90.36 11.34 89.82 11.7 90 23.94 102.06 23.94 102.42"/>
            <path class="cls-1" d="M95.04,101.88l-2.7.36-2.52-.18-2.34-.9-2.34-1.08-1.98-1.62-1.44-1.8-1.26-1.98-.72-1.98-.36-2.34v-2.16l.36-2.34.9-2.16,1.44-2.16,1.8-1.98,2.34-1.26,2.52-.9,2.52-.18,2.52.18,2.52.72,2.16,1.26,1.98,1.62,1.62,1.62,1.08,1.98.72,2.16.36,2.16.18,2.34-.54,2.16-.9,2.34-1.44,2.16-1.8,1.8-2.34,1.44-2.34.72ZM91.8,100.98l2.16-.18,2.16-.72,1.98-.9,1.8-1.44,1.26-1.8,1.08-1.98.72-2.16.18-2.16-.18-2.16-.72-2.16-.9-1.98-1.44-1.62-1.8-1.44-1.98-1.08-2.16-.72-2.16-.18-2.16.18-2.16.72-1.98,1.08-1.62,1.44-1.44,1.62-1.08,1.98-.72,2.16-.18,2.16.18,2.16.72,2.16,1.08,1.98,1.44,1.8,1.62,1.44,1.98.9,2.16.72,2.16.18Z"/>
            <polygon class="cls-1" points="23.94 102.06 11.7 90 12.06 89.64 24.12 101.88 23.94 102.06"/>
            <polygon class="cls-1" points="24.66 101.7 24.12 101.88 12.06 89.64 12.06 89.1 12.42 89.1 24.66 101.34 24.66 101.7"/>
            <polygon class="cls-1" points="24.66 101.34 12.42 89.1 12.78 88.92 24.84 100.98 24.66 101.34"/>
            <polygon class="cls-1" points="25.38 100.98 24.84 100.98 12.78 88.92 12.78 88.38 13.14 88.38 25.38 100.62 25.38 100.98"/>
            <path class="cls-1" d="M93.96,100.8l-2.16.18-2.16-.18-2.16-.72-1.98-.9-1.62-1.44-1.44-1.8-1.08-1.98-.72-2.16-.18-2.16.18-2.16.72-2.16,1.08-1.98,1.44-1.62,1.62-1.44,1.98-1.08,2.16-.72,2.16-.18,2.16.18,2.16.72,1.98,1.08,1.8,1.44,1.44,1.62.9,1.98.72,2.16.18,2.16-.18,2.16-.72,2.16-1.08,1.98-1.26,1.8-1.8,1.44-1.98.9-2.16.72ZM91.89,99.72c5.51,0,9.99-4.47,9.99-9.98s-4.47-10-9.99-10-9.99,4.47-9.99,9.99,4.47,9.99,9.99,9.99Z"/>
            <polygon class="cls-1" points="25.38 100.62 13.14 88.38 13.5 88.2 25.74 100.26 25.38 100.62"/>
            <polygon class="cls-1" points="26.1 100.26 25.74 100.26 13.5 88.2 13.5 87.66 13.86 87.66 26.1 99.9 26.1 100.26"/>
            <rect class="cls-1" x="19.91" y="84.94" width=".51" height="17.31" transform="translate(-60.28 41.67) rotate(-45)"/>
            <path class="cls-5" d="M1.98,99.54v.18l-.18-.36-1.08-3.6h.03c-.09-.4.03-.81.31-1.09h.02s25.56-25.55,25.56-25.55v-.02c.3-.3.73-.41,1.15-.29v-.03s3.53,1.06,3.53,1.06l.36.18h-.18v.18l-.36-.18.18.18h-.36l.36.18h-.54l.36.18h-.54l.18.18v.18h-.36l.18.18h-.54l.18.18-.18.18h-.36l.18.18-.18.18h-.36l.18.18-.18.18-.36.18.18.18-.18.18h-.54l.18.18-.18.18-.36.18.18.18-.36.18h-.36l.18.36-.36.18h-.36l.18.36-.36.18h-.36l.18.36-.36.18-.36.18v.18l-.18.36h-.54l.18.36-.36.18-.36.18v.18l-.18.36h-.54v.36l-.18.36h-.54l.18.36-.36.36h-.36v.36l-.36.18-.36.18v.36l-.36.36h-.36v.36l-.36.36h-.54v.36l-.18.36h-.54v.36l-.36.36h-.36v.54l-.36.18-.36.18v.36l-.36.36h-.36l-.18.36-.18.36h-.54v.36l-.36.36h-.36v.54l-.36.36h-.36l-.18.36-.18.36h-.54v.36l-.36.36h-.36v.54l-.36.18h-.36v.54l-.36.18h-.36v.54l-.36.36-.36-.18v.54l-.36.36-.36-.18v.54l-.36.18h-.36v.54l-.36.18h-.36v.36l-.36.36h-.18l-.18.36-.18.36-.36-.18v.54l-.36.18h-.18l-.18.36-.18.18h-.18l-.18.36-.18.36-.36-.18v.36l-.18.36-.36-.18v.36l-.18.18h-.18l-.18.36-.18.18-.18-.18v.54l-.18.18-.18-.18v.36l-.18.18-.36-.18v.36l-.18.18-.18-.18v.54l-.36-.18.18.36-.18.18-.18-.18v.36h-.18l-.16-.15.16.33h-.18l-.18-.18v.54l-.18-.36v.36l-.18-.18.18.36h-.18Z"/>
            <polygon class="cls-1" points="26.82 99.54 26.46 99.54 14.22 87.3 14.22 86.94 14.76 86.94 26.82 99.18 26.82 99.54"/>
            <polygon class="cls-1" points="26.82 99.18 14.76 86.94 14.94 86.58 27.18 98.82 26.82 99.18"/>
            <polygon class="cls-1" points="27.54 98.64 27.18 98.82 14.94 86.58 15.12 86.22 15.48 86.22 27.72 98.28 27.54 98.64"/>
            <polygon class="cls-1" points="27.72 98.28 15.48 86.22 15.84 85.86 27.9 97.92 27.72 98.28"/>
            <polygon class="cls-1" points="28.44 97.92 27.9 97.92 15.84 85.86 15.84 85.32 16.2 85.32 28.44 97.56 28.44 97.92"/>
            <rect class="cls-1" x="22.25" y="82.6" width=".51" height="17.31" transform="translate(-57.94 42.64) rotate(-45)"/>
            <polygon class="cls-1" points="29.16 97.2 28.8 97.2 16.56 84.96 16.56 84.6 17.1 84.6 29.16 96.84 29.16 97.2"/>
            <path class="cls-1" d="M101.88,89.74c0,5.51-4.48,9.98-9.99,9.98s-9.99-4.47-9.99-9.99,4.47-9.99,9.99-9.99,9.99,4.48,9.99,10ZM89.28,93.96h5.04l2.34-4.32-2.34-4.14h-5.04l-2.34,4.14,2.34,4.32Z"/>
            <polygon class="cls-1" points="29.16 96.84 17.1 84.6 17.28 84.24 29.52 96.48 29.16 96.84"/>
            <polygon class="cls-1" points="29.88 96.48 29.52 96.48 17.28 84.24 17.46 83.88 17.82 83.88 30.06 95.94 29.88 96.48"/>
            <polygon class="cls-1" points="30.06 95.94 17.82 83.88 18.18 83.52 30.24 95.58 30.06 95.94"/>
            <polygon class="cls-1" points="30.78 95.58 30.24 95.58 18.18 83.52 18.18 83.16 18.54 82.98 30.78 95.22 30.78 95.58"/>
            <polygon class="cls-1" points="30.78 95.22 18.54 82.98 18.9 82.8 31.14 94.86 30.78 95.22"/>
            <polygon class="cls-1" points="31.5 94.86 31.14 94.86 18.9 82.8 18.9 82.26 19.26 82.26 31.5 94.5 31.5 94.86"/>
            <polygon class="cls-1" points="155.88 69.77 158.4 67.32 159.48 67.32 152.64 74.16 139.14 87.66 132.12 94.68 132.12 93.42 138.6 87.12 144.25 81.39 151.92 73.62 153.54 72.05 155.88 69.77"/>
            <rect class="cls-1" x="25.31" y="79.54" width=".51" height="17.31" transform="translate(-54.88 43.91) rotate(-45)"/>
            <polygon class="cls-1" points="32.22 94.14 31.86 94.14 19.62 81.9 19.62 81.54 20.16 81.54 32.22 93.78 32.22 94.14"/>
            <polygon class="cls-1" points="94.32 93.96 89.28 93.96 86.94 89.64 89.28 85.5 94.32 85.5 96.66 89.64 94.32 93.96"/>
            <polygon class="cls-1" points="32.22 93.78 20.16 81.54 20.34 81.18 32.58 93.42 32.22 93.78"/>
            <polygon class="cls-1" points="32.94 93.42 32.58 93.42 20.34 81.18 20.34 80.82 20.88 80.82 33.12 92.88 32.94 93.42"/>
            <polygon class="cls-1" points="33.12 92.88 20.88 80.82 21.24 80.46 33.3 92.7 33.12 92.88"/>
            <polygon class="cls-1" points="33.66 92.7 33.3 92.7 21.24 80.46 21.24 80.1 21.6 80.1 33.84 92.16 33.66 92.7"/>
            <polygon class="cls-1" points="33.84 92.16 21.6 80.1 21.96 79.74 34.02 91.98 33.84 92.16"/>
            <polygon class="cls-1" points="34.38 91.98 34.02 91.98 21.96 79.74 21.96 79.38 22.32 79.2 34.56 91.44 34.38 91.98"/>
            <polygon class="cls-1" points="34.56 91.44 22.32 79.2 22.68 79.02 34.74 91.08 34.56 91.44"/>
            <polygon class="cls-1" points="35.1 91.26 34.74 91.08 22.68 79.02 22.68 78.66 23.04 78.66 35.28 90.72 35.1 91.26"/>
            <polygon class="cls-1" points="35.28 90.72 23.04 78.66 23.4 78.3 35.46 90.54 35.28 90.72"/>
            <polygon class="cls-1" points="35.82 90.54 35.46 90.54 23.4 78.3 23.22 77.94 23.76 77.94 36 90 35.82 90.54"/>
            <polygon class="cls-1" points="36 90 23.76 77.94 23.94 77.58 36.18 89.82 36 90"/>
            <polygon class="cls-1" points="36.54 89.82 36.18 89.82 23.94 77.58 23.94 77.22 24.48 77.22 36.54 89.46 36.54 89.82"/>
            <path class="cls-4" d="M67.95,89.55l-.09-.09v-35.64l5.76-5.76h33.66l1,1.01-3.52,3.49-.56.58c-15.86,3.11-28.25,15.55-31.31,31.43l.02.02-4.96,4.96ZM76.41,61.38c2.63,0,4.77-2.13,4.77-4.77s-2.14-4.77-4.77-4.77-4.77,2.14-4.77,4.77,2.13,4.77,4.77,4.77Z"/>
            <polygon class="cls-1" points="36.54 89.46 24.48 77.22 24.66 76.86 36.9 89.1 36.54 89.46"/>
            <polygon class="cls-1" points="37.26 89.1 36.9 89.1 24.66 76.86 24.66 76.68 25.02 76.5 37.26 88.74 37.26 89.1"/>
            <polygon class="cls-1" points="37.26 88.74 25.02 76.5 25.38 76.32 37.44 88.38 37.26 88.74"/>
            <polygon class="cls-1" points="37.8 88.56 37.44 88.38 25.38 76.32 25.2 75.96 25.74 75.96 37.8 88.02 37.8 88.56"/>
            <polygon class="cls-1" points="38.16 87.84 37.8 88.02 25.74 75.96 25.92 75.6 38.16 87.84"/>
            <polygon class="cls-1" points="38.52 87.84 38.16 87.84 25.92 75.6 25.92 75.42 26.28 75.24 38.52 87.48 38.52 87.84"/>
            <polygon class="cls-1" points="38.52 87.48 26.28 75.24 26.64 75.06 38.7 87.3 38.52 87.48"/>
            <polygon class="cls-1" points="39.06 87.3 38.7 87.3 26.64 75.06 26.46 74.7 26.82 74.7 39.06 86.94 39.06 87.3"/>
            <polygon class="cls-1" points="39.06 86.94 26.82 74.7 27.18 74.52 39.24 86.58 39.06 86.94"/>
            <polygon class="cls-1" points="39.6 86.76 39.24 86.58 27.18 74.52 27 74.16 27.36 74.16 39.6 86.4 39.6 86.76"/>
            <polygon class="cls-1" points="39.6 86.4 27.36 74.16 27.72 73.98 39.78 86.04 39.6 86.4"/>
            <polygon class="cls-1" points="40.14 86.22 39.78 86.04 27.72 73.98 27.54 73.62 27.9 73.62 40.14 85.86 40.14 86.22"/>
            <polygon class="cls-1" points="40.14 85.86 27.9 73.62 28.26 73.44 40.32 85.68 40.14 85.86"/>
            <polygon class="cls-1" points="40.68 85.68 40.32 85.68 28.26 73.44 28.08 73.26 28.44 73.08 40.68 85.32 40.68 85.68"/>
            <polygon class="cls-1" points="41.04 85.32 40.86 85.14 28.62 72.9 28.44 72.72 28.98 72.72 41.04 84.78 41.04 85.32"/>
            <rect class="cls-1" x="34.52" y="70.45" width=".25" height="17.31" transform="translate(-45.79 47.67) rotate(-45)"/>
            <polygon class="cls-1" points="41.58 84.78 41.22 84.6 29.16 72.54 28.98 72.36 29.34 72.18 41.58 84.42 41.58 84.78"/>
            <rect class="cls-1" x="34.97" y="70.13" width=".25" height="17.06" transform="translate(-45.34 47.86) rotate(-45)"/>
            <path class="cls-4" d="M72.91,84.59l-.02-.02c3.06-15.88,15.45-28.32,31.31-31.43l-5.74,5.9-25.55,25.55Z"/>
            <polygon class="cls-1" points="41.94 84.42 41.76 84.24 29.52 72 29.34 71.82 29.7 71.82 41.94 84.06 41.94 84.42"/>
            <rect class="cls-1" x="35.42" y="69.55" width=".25" height="17.31" transform="translate(-44.89 48.04) rotate(-45)"/>
            <polygon class="cls-1" points="42.3 84.06 42.12 83.88 29.88 71.64 29.7 71.46 30.06 71.46 42.3 83.7 42.3 84.06"/>
            <rect class="cls-1" x="35.78" y="69.19" width=".25" height="17.31" transform="translate(-44.53 48.19) rotate(-45)"/>
            <polygon class="cls-1" points="42.66 83.7 42.48 83.52 30.24 71.28 30.06 71.1 30.42 71.1 42.66 83.34 42.66 83.7"/>
            <rect class="cls-1" x="36.14" y="68.83" width=".25" height="17.31" transform="translate(-44.17 48.34) rotate(-45)"/>
            <polygon class="cls-1" points="42.84 83.52 42.66 83.16 30.6 71.1 30.42 70.92 30.78 70.92 42.84 83.16 42.84 83.52"/>
            <polygon class="cls-1" points="42.66 83.34 30.42 71.1 30.6 71.1 42.66 83.16 42.66 83.34"/>
            <polygon class="cls-1" points="43.2 83.16 43.02 82.98 30.78 70.74 30.6 70.56 30.96 70.56 43.2 82.8 43.2 83.16"/>
            <polygon class="cls-1" points="42.84 83.16 30.78 70.92 30.78 70.74 43.02 82.98 42.84 83.16"/>
            <polygon class="cls-1" points="148.95 56.61 145.8 59.76 145.44 60.12 132.48 73.08 128.88 76.68 122.4 82.98 121.32 82.98 128.34 76.14 145.08 59.22 152.1 52.2 152.1 53.46 151.41 54.15 148.95 56.61"/>
            <polygon class="cls-5" points="121.32 82.98 98.46 60.3 105.48 53.28 122.22 36.36 129.24 29.34 152.1 52.2 145.08 59.22 128.34 76.14 121.32 82.98"/>
            <polygon class="cls-1" points="43.38 82.98 43.2 82.8 31.14 70.56 30.78 70.38 31.14 70.38 43.38 82.62 43.38 82.98"/>
            <polygon class="cls-1" points="43.56 82.8 43.38 82.62 31.32 70.38 30.96 70.2 31.32 70.2 43.56 82.44 43.56 82.8"/>
            <polygon class="cls-1" points="43.2 82.8 30.96 70.56 31.14 70.56 43.2 82.8"/>
            <polygon class="cls-1" points="43.74 82.62 43.56 82.44 31.32 70.2 31.14 70.02 31.5 70.2 43.74 82.26 43.74 82.62"/>
            <polygon class="cls-1" points="43.38 82.62 31.14 70.38 31.32 70.38 43.38 82.62"/>
            <polygon class="cls-1" points="43.92 82.44 43.74 82.26 43.74 82.08 43.92 82.44"/>
            <polygon class="cls-1" points="43.74 82.26 31.5 70.2 31.5 70.02 43.74 82.26"/>
            <polygon class="cls-1" points="43.74 82.26 31.5 70.02 31.68 70.02 43.74 82.26"/>
            <polygon class="cls-1" points="43.74 82.26 31.68 70.02 43.74 82.08 43.74 82.26"/>
            <path class="cls-1" d="M151.92,73.62l-7.67,7.77-.05-.05c-.68-.29-1.32-.68-1.88-1.17l.06-.07,9.96-9.96c.49.56.89,1.19,1.18,1.89l.02.02-1.62,1.57Z"/>
            <path class="cls-5" d="M140.22,79.2l-1.62,1.44-5.94-1.62-1.98-.54,3.6-3.42.09-.09,4.05,4.05h1.53c.11,0,.21.02.31.05l-.04.13Z"/>
            <path class="cls-1" d="M142.24,80.07c-.46.1-.94-.03-1.27-.36l-.03.03-.18-.36v-.02c-.13-.14-.31-.24-.5-.29-.1-.03-.2-.05-.31-.05h-1.53l12.96-12.96v1.53c0,.08.01.17.03.25.04.22.15.42.31.58h.02s.18.34.18.34l-.04.04c.33.33.47.82.36,1.27h.05s.03.05.05.07l-9.96,9.96-.06.07s-.05-.04-.07-.06v-.04Z"/>
            <polygon class="cls-1" points="138.42 79.02 134.37 74.97 132.48 73.08 145.44 60.12 147.24 61.92 151.38 66.06 138.42 79.02"/>
            <polygon class="cls-5" points="134.28 75.06 130.68 78.48 128.88 76.68 132.48 73.08 134.37 74.97 134.28 75.06"/>
            <path class="cls-4" d="M152.34,70.14s-.03-.04-.05-.06h-.05c.11-.46-.03-.95-.36-1.28l.04-.04-.18-.35h-.02c-.16-.15-.27-.35-.31-.57l1.59-1.42-1.89-6.91c1.19-1.55,1.32-3.68.3-5.36l.69-.69,1.44-1.44.27-.27,2.07,2.07v15.95l-2.34,2.28-.02-.02c-.29-.7-.69-1.33-1.18-1.89Z"/>
            <path class="cls-5" d="M151.11,59.51l1.89,6.91-1.59,1.42c-.02-.08-.03-.17-.03-.25v-1.53l-4.14-4.14,3.6-3.42.27,1.01Z"/>
            <polygon class="cls-5" points="150.84 58.5 147.24 61.92 145.44 60.12 145.8 59.76 148.95 56.61 150.84 58.5"/>
            <polygon class="cls-1" points="108.29 49.07 121.41 36.09 121.68 35.82 128.16 29.34 129.24 29.34 122.22 36.36 105.48 53.28 98.46 60.3 98.46 60.13 98.46 59.04 104.2 53.14 104.76 52.56 108.28 49.07 108.29 49.07"/>
            <path class="cls-5" d="M151.11,59.51l-.27-1.01-1.89-1.89,2.46-2.46c1.02,1.68.89,3.81-.3,5.36Z"/>
            <polygon class="cls-1" points="153.81 51.75 153.54 52.02 152.1 53.46 152.1 52.2 153.54 50.94 154.08 50.22 154.08 51.48 153.81 51.75"/>
            <polygon class="cls-5" points="153.54 50.94 152.1 52.2 129.24 29.34 130.68 28.08 131.22 27.36 154.08 50.22 153.54 50.94"/>
            <polygon class="cls-1" points="108.29 49.07 108.28 49.07 107.28 48.06 100.8 41.58 113.76 28.44 121.32 36 121.41 36.09 108.29 49.07"/>
            <path class="cls-5" d="M86.58,43.74h.18v-.18h.18v-.18h.18v-.18h.36l-.18-.18h.54l-.18-.18v-.18h.36l-.18-.18.18-.18h.36l-.18-.18.18-.18h.36l-.18-.18.18-.18h.36v-.18l.18-.18h.36l-.18-.36.18-.18h.36v-.18l.18-.36h.36v-.18l.18-.18.36-.18v-.18l.18-.36h.36v-.18l.18-.36h.54l-.18-.36.36-.18h.36v-.36l.18-.36h.36v-.36l.36-.18.36-.18v-.18l.18-.36h.54v-.36l.18-.36h.54v-.36l.18-.36h.54v-.36l.18-.36h.54v-.36l.18-.36h.54v-.36l.36-.36.36-.18v-.36l.36-.36h.36v-.36l.36-.36h.36l.18-.36.18-.36h.54v-.54l.36-.18.36-.18v-.36l.36-.36h.36l.18-.36.18-.36h.54v-.36l.36-.36h.36v-.54l.36-.36h.36v-.36l.36-.36h.36l.18-.36.18-.36h.36l.18-.36.18-.36h.36l.18-.36.18-.36h.36l.18-.36.18-.36h.36l.18-.36.18-.36h.36v-.36l.36-.18h.36v-.54l.18-.18h.36v-.36l.36-.36.36.18v-.36l.18-.36.36.18v-.54l.18-.18.36.18v-.54l.18-.18.36.18v-.54l.18-.18.36.18v-.36l.18-.36.18.18v-.36l.18-.18.36.18v-.36l.18-.18.18.18v-.54h.36v-.36h.18l.18.18v-.54l.18.18v-.36l.18-.18.18.36v-.54l.18.18v-.36l.18.18v-.36l.18.36v-.54l.18.36,1.08,3.42-.05.12c.12.41.01.86-.29,1.16l-.02-.02-3.78,3.78-18,18-3.78,3.78.02.02c-.23.22-.53.34-.83.34-.11,0-.2-.01-.3-.04l.03-.14-3.6-1.08h-.18v-.18Z"/>
            <polygon class="cls-1" points="86.58 43.92 74.34 31.68 86.58 43.74 86.58 43.92"/>
            <polygon class="cls-1" points="86.76 43.74 86.58 43.74 74.52 31.5 86.76 43.74"/>
            <polygon class="cls-1" points="86.76 43.74 74.52 31.5 86.76 43.56 86.76 43.74"/>
            <polygon class="cls-1" points="86.58 43.74 74.34 31.68 74.34 31.5 86.58 43.74"/>
            <polygon class="cls-1" points="86.58 43.74 74.34 31.5 74.52 31.5 86.58 43.74"/>
            <polygon class="cls-1" points="86.94 43.56 86.76 43.56 74.52 31.5 74.52 31.14 74.7 31.32 86.94 43.56"/>
            <polygon class="cls-1" points="86.94 43.56 74.7 31.32 86.94 43.38 86.94 43.56"/>
            <polygon class="cls-1" points="87.12 43.38 86.94 43.38 74.7 31.32 74.7 30.96 74.88 31.14 87.12 43.38"/>
            <polygon class="cls-1" points="87.12 43.38 74.88 31.14 75.06 30.96 87.12 43.2 87.12 43.38"/>
            <polygon class="cls-1" points="87.48 43.2 87.12 43.2 75.06 30.96 87.3 43.02 87.48 43.2"/>
            <polygon class="cls-1" points="87.48 43.02 87.3 43.02 75.06 30.96 75.24 30.78 87.48 43.02"/>
            <polygon class="cls-1" points="87.84 43.02 87.48 43.02 75.24 30.78 75.24 30.42 75.42 30.6 87.66 42.84 87.84 43.02"/>
            <polygon class="cls-1" points="87.66 42.84 75.42 30.6 75.6 30.42 87.66 42.66 87.66 42.84"/>
            <polygon class="cls-1" points="88.02 42.66 87.66 42.66 75.6 30.42 75.42 30.06 75.78 30.24 87.84 42.48 88.02 42.66"/>
            <polygon class="cls-1" points="87.84 42.48 75.78 30.24 88.02 42.3 87.84 42.48"/>
            <polygon class="cls-1" points="88.38 42.3 88.02 42.3 75.78 30.24 75.78 29.88 75.96 30.06 88.2 42.12 88.38 42.3"/>
            <polygon class="cls-1" points="88.2 42.12 75.96 30.06 76.14 29.88 88.38 41.94 88.2 42.12"/>
            <polygon class="cls-1" points="88.74 41.94 88.38 41.94 76.14 29.88 76.14 29.52 76.5 29.52 88.56 41.76 88.74 41.94"/>
            <polygon class="cls-1" points="88.56 41.76 76.5 29.52 76.68 29.34 88.74 41.58 88.56 41.76"/>
            <polygon class="cls-1" points="89.1 41.58 88.74 41.58 76.68 29.34 76.68 28.98 76.86 29.16 89.1 41.4 89.1 41.58"/>
            <path class="cls-1" d="M111.58,28.29c.13.1.3.15.47.15h1.71l-12.96,13.14v-1.71h0c0-.22-.09-.42-.24-.57l-.12-.24v.06h-.06c-.32-.32-.83-.32-1.14,0l-.06-.06,12.24-12.24.06.06c-.32.32-.32.83,0,1.15l-.06.05.18.18-.02.03Z"/>
            <rect class="cls-1" x="82.94" y="26.53" width=".25" height="17.31" transform="translate(-.55 69.05) rotate(-45)"/>
            <polygon class="cls-1" points="89.64 41.22 89.28 41.22 77.04 28.98 77.04 28.62 77.22 28.8 89.46 40.86 89.64 41.22"/>
            <polygon class="cls-1" points="89.46 40.86 77.22 28.8 77.4 28.44 89.64 40.68 89.46 40.86"/>
            <polygon class="cls-1" points="90 40.68 89.64 40.68 77.4 28.44 77.58 28.08 77.76 28.26 90 40.5 90 40.68"/>
            <polygon class="cls-1" points="90 40.5 77.76 28.26 77.94 28.08 90.18 40.14 90 40.5"/>
            <polygon class="cls-1" points="90.54 40.14 90.18 40.14 77.94 28.08 77.94 27.54 78.3 27.72 90.54 39.96 90.54 40.14"/>
            <rect class="cls-1" x="84.38" y="25.09" width=".25" height="17.31" transform="translate(.89 69.64) rotate(-45)"/>
            <polygon class="cls-1" points="91.08 39.6 90.72 39.78 78.48 27.54 78.48 27.18 78.84 27.18 91.08 39.42 91.08 39.6"/>
            <polygon class="cls-1" points="91.08 39.42 78.84 27.18 79.02 27 91.26 39.06 91.08 39.42"/>
            <polygon class="cls-1" points="91.62 39.06 91.26 39.06 79.02 27 79.02 26.46 79.38 26.64 91.62 38.88 91.62 39.06"/>
            <polygon class="cls-1" points="91.62 38.88 79.38 26.64 79.56 26.28 91.8 38.52 91.62 38.88"/>
            <polygon class="cls-1" points="92.34 38.52 91.8 38.52 79.56 26.28 79.74 25.92 79.92 26.1 92.16 38.16 92.34 38.52"/>
            <polygon class="cls-1" points="92.52 37.98 92.16 38.16 79.92 26.1 80.28 25.74 92.52 37.98"/>
            <polygon class="cls-1" points="92.88 37.98 92.52 37.98 80.28 25.74 80.28 25.38 80.64 25.38 92.88 37.62 92.88 37.98"/>
            <polygon class="cls-1" points="92.88 37.62 80.64 25.38 80.82 25.2 93.06 37.26 92.88 37.62"/>
            <polygon class="cls-1" points="93.42 37.26 93.06 37.26 80.82 25.2 81 24.66 81.18 24.84 93.42 36.9 93.42 37.26"/>
            <polygon class="cls-1" points="93.78 36.72 93.42 36.9 81.18 24.84 81.54 24.48 93.78 36.72"/>
            <polygon class="cls-1" points="94.14 36.54 93.78 36.72 81.54 24.48 81.54 24.12 81.9 24.12 94.14 36.36 94.14 36.54"/>
            <polygon class="cls-1" points="94.14 36.36 81.9 24.12 82.26 23.76 94.32 36 94.14 36.36"/>
            <polygon class="cls-1" points="94.86 36 94.32 36 82.26 23.76 82.26 23.4 82.62 23.4 94.86 35.64 94.86 36"/>
            <polygon class="cls-1" points="94.86 35.64 82.62 23.4 82.98 23.04 95.04 35.28 94.86 35.64"/>
            <polygon class="cls-1" points="95.58 35.28 95.04 35.28 82.98 23.04 82.98 22.68 83.34 22.68 95.58 34.92 95.58 35.28"/>
            <polygon class="cls-1" points="95.58 34.92 83.34 22.68 83.7 22.32 95.76 34.56 95.58 34.92"/>
            <polygon class="cls-1" points="96.3 34.56 95.76 34.56 83.7 22.32 83.7 21.96 84.06 21.96 96.3 34.2 96.3 34.56"/>
            <polygon class="cls-1" points="96.3 34.2 84.06 21.96 84.42 21.6 96.48 33.84 96.3 34.2"/>
            <polygon class="cls-1" points="97.02 33.84 96.48 33.84 84.42 21.6 84.42 21.24 84.78 21.24 97.02 33.48 97.02 33.84"/>
            <polygon class="cls-1" points="97.02 33.48 84.78 21.24 85.14 20.88 97.2 33.12 97.02 33.48"/>
            <polygon class="cls-1" points="97.74 33.12 97.2 33.12 85.14 20.88 85.14 20.52 85.5 20.52 97.74 32.76 97.74 33.12"/>
            <rect class="cls-1" x="91.55" y="17.8" width=".51" height="17.31" transform="translate(8.18 72.66) rotate(-45)"/>
            <polygon class="cls-1" points="98.46 32.22 98.1 32.4 85.86 20.16 85.86 19.8 86.22 19.8 98.46 31.86 98.46 32.22"/>
            <polygon class="cls-1" points="98.46 31.86 86.22 19.8 86.58 19.44 98.82 31.5 98.46 31.86"/>
            <polygon class="cls-1" points="99.18 31.5 98.82 31.5 86.58 19.44 86.58 18.9 87.12 18.9 99.18 31.14 99.18 31.5"/>
            <polygon class="cls-1" points="99.18 31.14 87.12 18.9 87.3 18.72 99.54 30.78 99.18 31.14"/>
            <polygon class="cls-1" points="99.9 30.78 99.54 30.78 87.3 18.72 87.48 18.18 87.84 18.18 100.08 30.42 99.9 30.78"/>
            <polygon class="cls-1" points="100.08 30.42 87.84 18.18 88.2 17.82 100.26 30.06 100.08 30.42"/>
            <polygon class="cls-1" points="100.8 30.06 100.26 30.06 88.2 17.82 88.2 17.46 88.56 17.46 100.8 29.52 100.8 30.06"/>
            <polygon class="cls-1" points="101.16 29.34 100.8 29.52 88.56 17.46 88.92 17.1 101.16 29.34"/>
            <polygon class="cls-1" points="129.24 29.34 128.16 29.34 129.42 27.9 130.14 27.36 131.22 27.36 130.68 28.08 129.24 29.34"/>
            <polygon class="cls-1" points="101.52 29.16 101.16 29.34 88.92 17.1 88.92 16.74 89.46 16.56 101.52 28.8 101.52 29.16"/>
            <polygon class="cls-1" points="101.52 28.8 89.46 16.56 89.64 16.38 101.88 28.44 101.52 28.8"/>
            <polygon class="cls-1" points="102.24 28.44 101.88 28.44 89.64 16.38 89.82 15.84 90.18 15.84 102.42 28.08 102.24 28.44"/>
            <polygon class="cls-1" points="102.42 28.08 90.18 15.84 90.54 15.48 102.6 27.72 102.42 28.08"/>
            <polygon class="cls-1" points="103.14 27.72 102.6 27.72 90.54 15.48 90.54 15.12 90.9 15.12 103.14 27.36 103.14 27.72"/>
            <rect class="cls-1" x="96.95" y="12.4" width=".51" height="17.31" transform="translate(13.58 74.9) rotate(-45)"/>
            <polygon class="cls-1" points="103.86 27 103.5 27 91.26 14.76 91.26 14.4 91.62 14.4 103.86 26.46 103.86 27"/>
            <polygon class="cls-1" points="103.86 26.46 91.62 14.4 91.98 14.04 104.22 26.1 103.86 26.46"/>
            <polygon class="cls-1" points="104.58 26.1 104.22 26.1 91.98 14.04 91.98 13.68 92.52 13.5 104.58 25.74 104.58 26.1"/>
            <polygon class="cls-1" points="104.58 25.74 92.52 13.5 92.7 13.32 104.94 25.38 104.58 25.74"/>
            <polygon class="cls-1" points="105.3 25.38 104.94 25.38 92.7 13.32 92.7 12.78 93.24 12.78 105.48 25.02 105.3 25.38"/>
            <polygon class="cls-1" points="105.48 25.02 93.24 12.78 93.6 12.42 105.66 24.66 105.48 25.02"/>
            <polygon class="cls-1" points="106.02 24.66 105.66 24.66 93.6 12.42 93.6 12.06 93.96 12.06 106.2 24.3 106.02 24.66"/>
            <polygon class="cls-1" points="106.2 24.3 93.96 12.06 94.32 11.7 106.38 23.94 106.2 24.3"/>
            <polygon class="cls-1" points="106.74 23.94 106.38 23.94 94.32 11.7 94.32 11.34 94.68 11.34 106.92 23.58 106.74 23.94"/>
            <polygon class="cls-1" points="106.92 23.58 94.68 11.34 95.04 10.98 107.1 23.22 106.92 23.58"/>
            <polygon class="cls-1" points="107.46 23.22 107.1 23.22 95.04 10.98 95.04 10.62 95.4 10.62 107.64 22.86 107.46 23.22"/>
            <polygon class="cls-1" points="107.64 22.86 95.4 10.62 95.76 10.26 107.82 22.5 107.64 22.86"/>
            <polygon class="cls-1" points="108.18 22.5 107.82 22.5 95.76 10.26 95.58 9.9 96.12 9.9 108.36 22.14 108.18 22.5"/>
            <polygon class="cls-1" points="108.36 22.14 96.12 9.9 96.3 9.72 108.54 21.78 108.36 22.14"/>
            <polygon class="cls-1" points="108.9 21.78 108.54 21.78 96.3 9.72 96.3 9.36 96.84 9.18 108.9 21.42 108.9 21.78"/>
            <polygon class="cls-1" points="109.26 21.24 108.9 21.42 96.84 9.18 97.02 9 109.26 21.24"/>
            <polygon class="cls-1" points="109.62 21.24 109.26 21.24 97.02 9 97.02 8.64 97.38 8.64 109.62 20.7 109.62 21.24"/>
            <polygon class="cls-1" points="109.62 20.7 97.38 8.64 97.74 8.28 109.8 20.52 109.62 20.7"/>
            <polygon class="cls-1" points="110.16 20.52 109.8 20.52 97.74 8.28 97.56 8.1 98.1 7.92 110.16 20.16 110.16 20.52"/>
            <polygon class="cls-1" points="110.16 20.16 98.1 7.92 98.28 7.74 110.52 19.8 110.16 20.16"/>
            <polygon class="cls-1" points="110.88 19.98 110.52 19.8 98.28 7.74 98.28 7.38 98.64 7.38 110.88 19.62 110.88 19.98"/>
            <polygon class="cls-1" points="110.88 19.62 98.64 7.38 99 7.02 111.06 19.26 110.88 19.62"/>
            <polygon class="cls-1" points="111.42 19.44 111.06 19.26 99 7.02 98.82 6.84 99.18 6.84 111.42 18.9 111.42 19.44"/>
            <polygon class="cls-1" points="111.42 18.9 99.18 6.84 99.54 6.48 111.6 18.72 111.42 18.9"/>
            <polygon class="cls-1" points="115.2 15.12 103.14 2.88 115.38 14.94 115.2 15.12"/>
            <polygon class="cls-1" points="115.74 14.94 115.56 14.76 103.5 2.52 115.74 14.58 115.74 14.94"/>
            <polygon class="cls-1" points="115.92 14.76 115.74 14.58 103.68 2.34 115.92 14.58 115.92 14.76"/>
            <polygon class="cls-1" points="116.1 14.4 103.86 2.16 116.1 14.22 116.1 14.4"/>
          </g>
          <g>
            <line class="cls-16" x1="155.88" y1="130.32" x2="150.12" y2="135.9"/>
            <polyline class="cls-16" points="153.72 51.66 153.81 51.75 155.88 53.82"/>
            <line class="cls-16" x1="67.86" y1="53.82" x2="73.62" y2="48.06"/>
            <line class="cls-16" x1="150.12" y1="135.9" x2="121.68" y2="135.9"/>
            <polyline class="cls-16" points="89.64 135.9 79.11 135.9 79.02 135.9"/>
            <polyline class="cls-16" points="155.88 53.82 155.88 69.77 155.88 69.84"/>
            <line class="cls-16" x1="155.88" y1="101.88" x2="155.88" y2="130.32"/>
            <polyline class="cls-16" points="73.62 48.06 90.63 48.06 107.28 48.06"/>
            <line class="cls-16" x1="67.86" y1="89.46" x2="67.86" y2="53.82"/>
            <path class="cls-17" d="M104.37,53.1c-.06,0-.11.02-.17.04-15.86,3.11-28.25,15.55-31.31,31.43"/>
            <path class="cls-15" d="M87.89,123.7c2.72,2.07,5.7,3.77,8.87,5.08.02,0,.04.01.06.02"/>
            <path class="cls-10" d="M130.67,127.03c6.85-3.69,12.46-9.3,16.15-16.15"/>
            <path class="cls-11" d="M151.07,59.57s.03-.04.04-.06c1.19-1.55,1.32-3.68.3-5.36"/>
            <path class="cls-16" d="M77.18,132.24s.04-.01.06-.01c1.53-.28,2.84-1.28,3.5-2.7.66-1.43.57-3.11-.25-4.46"/>
            <circle class="cls-16" cx="147.33" cy="127.53" r="4.77"/>
            <circle class="cls-16" cx="76.41" cy="56.61" r="4.77"/>
            <line class="cls-16" x1="87.84" y1="123.66" x2="132.66" y2="79.02"/>
            <path class="cls-18" d="M84.63,120.94c1.02.97,2.09,1.88,3.21,2.72.01.02.03.03.04.04"/>
            <path class="cls-7" d="M153.52,72.03c-.29-.7-.69-1.33-1.18-1.89-.02-.02-.03-.04-.05-.06"/>
            <path class="cls-14" d="M142.25,80.11s.05.04.07.06c.56.49,1.2.88,1.88,1.17"/>
            <path class="cls-13" d="M81.8,143.85c.35-2.09-.24-4.24-1.64-5.84-.01-.02-.03-.05-.05-.07"/>
            <path class="cls-14" d="M70.07,147.97c1.59,1.41,3.74,2.04,5.84,1.7.02,0,.05-.01.07-.01"/>
            <line class="cls-16" x1="28.44" y1="109.44" x2="41.4" y2="96.48"/>
            <line class="cls-16" x1="66.06" y1="147.06" x2="79.02" y2="133.92"/>
            <polyline class="cls-16" points="80.1 138.06 70.04 147.94 70.02 147.96"/>
            <polyline class="cls-16" points="24.66 109.08 26.73 107.01 38.97 94.77 41.04 92.7"/>
            <line class="cls-16" x1="66.06" y1="147.06" x2="62.28" y2="143.28"/>
            <line class="cls-16" x1="38.16" y1="119.16" x2="28.44" y2="109.44"/>
            <polyline class="cls-16" points="79.02 133.92 77.24 132.23 75.24 130.32"/>
            <polyline class="cls-16" points="51.3 106.2 51.28 106.18 41.4 96.48 39.78 96.48"/>
            <line class="cls-16" x1="28.44" y1="107.82" x2="28.44" y2="109.44"/>
            <path class="cls-16" d="M28.44,107.73c0-.21-.09-.42-.24-.57"/>
            <path class="cls-9" d="M39.12,96.07c.15.15.35.23.57.23"/>
            <line class="cls-16" x1="67.5" y1="147.06" x2="66.06" y2="147.06"/>
            <polyline class="cls-16" points="79.02 135.54 79.02 135.45 79.02 133.92"/>
            <path class="cls-9" d="M68.42,147.41h-.01c-.22-.22-.51-.35-.82-.35"/>
            <path class="cls-16" d="M79.02,135.45c0,.15.03.31.09.45s.14.27.25.38"/>
            <polyline class="cls-16" points="79.38 136.26 79.38 136.27 79.56 136.62"/>
            <line class="cls-16" x1="68.4" y1="147.42" x2="68.58" y2="147.6"/>
            <path class="cls-9" d="M68.61,147.57c.34.34.84.47,1.31.35"/>
            <path class="cls-8" d="M79.87,137.96s.01-.05.02-.07c.1-.44-.05-.91-.37-1.23"/>
            <line class="cls-16" x1="39.06" y1="95.94" x2="39.24" y2="96.12"/>
            <polyline class="cls-16" points="28.08 107.1 28.08 107.16 28.08 107.28"/>
            <path class="cls-9" d="M28.02,107.16c-.32-.32-.83-.32-1.14,0"/>
            <path class="cls-9" d="M39.12,94.92c-.32.32-.32.83,0,1.15"/>
            <path class="cls-9" d="M23.02,109.1c.46.46,1.2.46,1.66,0"/>
            <path class="cls-9" d="M41.24,92.72c.45-.46.45-1.2,0-1.65"/>
            <line class="cls-16" x1="40.86" y1="90.9" x2="41.04" y2="91.08"/>
            <line class="cls-16" x1="22.86" y1="108.9" x2="23.04" y2="109.08"/>
            <line class="cls-16" x1="100.8" y1="41.58" x2="113.76" y2="28.44"/>
            <line class="cls-16" x1="138.42" y1="79.02" x2="151.38" y2="66.06"/>
            <polyline class="cls-16" points="152.46 70.02 152.34 70.14 142.38 80.1"/>
            <polyline class="cls-16" points="97.02 41.22 99.18 39.06 111.42 26.82 113.4 24.84"/>
            <polyline class="cls-16" points="138.42 79.02 134.37 74.97 132.48 73.08"/>
            <polyline class="cls-16" points="108.28 49.07 107.28 48.06 100.8 41.58"/>
            <line class="cls-16" x1="108.36" y1="49.14" x2="108.29" y2="49.07"/>
            <polyline class="cls-16" points="151.38 66.06 147.24 61.92 145.44 60.12"/>
            <polyline class="cls-16" points="121.32 36 113.76 28.44 112.14 28.44"/>
            <line class="cls-16" x1="100.8" y1="39.87" x2="100.8" y2="41.58"/>
            <line class="cls-16" x1="100.8" y1="39.78" x2="100.8" y2="39.86"/>
            <path class="cls-16" d="M100.8,39.87h0c0-.22-.09-.42-.24-.57"/>
            <path class="cls-9" d="M111.48,28.21s.06.06.1.08c.13.1.3.15.47.15"/>
            <line class="cls-16" x1="139.86" y1="79.02" x2="138.42" y2="79.02"/>
            <line class="cls-16" x1="151.38" y1="67.5" x2="151.38" y2="66.06"/>
            <path class="cls-9" d="M140.78,79.37h0c-.14-.15-.32-.25-.51-.3-.1-.03-.2-.05-.31-.05"/>
            <path class="cls-16" d="M151.38,67.59c0,.08.01.17.03.25.04.22.15.42.31.58"/>
            <polyline class="cls-16" points="151.74 68.4 151.74 68.41 151.92 68.76"/>
            <line class="cls-16" x1="140.76" y1="79.38" x2="140.94" y2="79.74"/>
            <path class="cls-9" d="M140.97,79.71c.33.33.81.46,1.27.36.01,0,.03,0,.04,0"/>
            <path class="cls-8" d="M152.23,70.1s.01-.02.01-.03c.11-.45-.03-.94-.36-1.27"/>
            <line class="cls-16" x1="111.42" y1="28.08" x2="111.6" y2="28.26"/>
            <polyline class="cls-16" points="100.44 39.06 100.44 39.12 100.44 39.24"/>
            <path class="cls-9" d="M100.38,39.12c-.32-.32-.83-.32-1.14,0"/>
            <path class="cls-9" d="M111.48,26.88c-.32.32-.32.83,0,1.15"/>
            <path class="cls-9" d="M95.38,41.24c.46.46,1.2.46,1.66,0"/>
            <path class="cls-9" d="M113.6,24.86c.45-.46.45-1.2,0-1.65"/>
            <line class="cls-16" x1="113.22" y1="23.04" x2="113.4" y2="23.22"/>
            <line class="cls-16" x1="95.22" y1="41.04" x2="95.4" y2="41.22"/>
            <line class="cls-16" x1="26.64" y1="69.12" x2="1.08" y2="94.68"/>
            <line class="cls-16" x1="1.8" y1="99.36" x2="1.98" y2="99.72"/>
            <line class="cls-16" x1="1.98" y1="99.72" x2="1.98" y2="99.54"/>
            <line class="cls-16" x1="1.98" y1="99.36" x2="1.98" y2="99.54"/>
            <line class="cls-16" x1="2.16" y1="99.54" x2="1.98" y2="99.54"/>
            <polyline class="cls-16" points="2.16 99.54 1.98 99.18 2.16 99.36"/>
            <polyline class="cls-16" points="2.16 99.36 2.16 99 2.34 99.36"/>
            <line class="cls-16" x1="2.34" y1="99.18" x2="2.34" y2="99.36"/>
            <polyline class="cls-16" points="2.34 99.18 2.34 98.82 2.52 99"/>
            <line class="cls-16" x1="2.7" y1="99" x2="2.52" y2="99"/>
            <line class="cls-16" x1="2.54" y1="98.67" x2="2.7" y2="98.82"/>
            <polyline class="cls-16" points="2.7 99 2.54 98.67 2.52 98.64"/>
            <line class="cls-16" x1="2.88" y1="98.82" x2="2.7" y2="98.82"/>
            <polyline class="cls-16" points="2.88 98.82 2.88 98.46 3.06 98.64"/>
            <line class="cls-16" x1="3.24" y1="98.46" x2="3.06" y2="98.64"/>
            <polyline class="cls-16" points="3.24 98.46 3.06 98.1 3.42 98.28"/>
            <line class="cls-16" x1="3.42" y1="98.1" x2="3.42" y2="98.28"/>
            <polyline class="cls-16" points="3.42 98.1 3.42 97.74 3.6 97.92"/>
            <line class="cls-16" x1="3.78" y1="97.74" x2="3.6" y2="97.92"/>
            <polyline class="cls-16" points="3.78 97.74 3.78 97.38 4.14 97.56"/>
            <line class="cls-16" x1="4.32" y1="97.38" x2="4.14" y2="97.56"/>
            <polyline class="cls-16" points="4.32 97.38 4.32 97.02 4.5 97.2"/>
            <line class="cls-16" x1="4.68" y1="97.02" x2="4.5" y2="97.2"/>
            <polyline class="cls-16" points="4.68 97.02 4.68 96.48 4.86 96.66"/>
            <line class="cls-16" x1="5.04" y1="96.48" x2="4.86" y2="96.66"/>
            <polyline class="cls-16" points="5.04 96.48 5.22 96.12 5.4 96.12"/>
            <line class="cls-16" x1="5.58" y1="95.94" x2="5.4" y2="96.12"/>
            <polyline class="cls-16" points="5.58 95.94 5.58 95.58 5.94 95.76"/>
            <line class="cls-16" x1="6.12" y1="95.4" x2="5.94" y2="95.76"/>
            <polyline class="cls-16" points="6.12 95.4 6.12 95.04 6.48 95.22"/>
            <line class="cls-16" x1="6.66" y1="94.86" x2="6.48" y2="95.22"/>
            <polyline class="cls-16" points="6.66 94.86 6.84 94.5 7.02 94.5"/>
            <line class="cls-16" x1="7.2" y1="94.32" x2="7.02" y2="94.5"/>
            <polyline class="cls-16" points="7.2 94.32 7.38 93.96 7.56 93.96"/>
            <line class="cls-16" x1="7.92" y1="93.78" x2="7.56" y2="93.96"/>
            <polyline class="cls-16" points="7.92 93.78 7.92 93.24 8.28 93.42"/>
            <line class="cls-16" x1="8.46" y1="93.06" x2="8.28" y2="93.42"/>
            <polyline class="cls-16" points="8.46 93.06 8.64 92.7 8.82 92.7"/>
            <line class="cls-16" x1="9.18" y1="92.34" x2="8.82" y2="92.7"/>
            <polyline class="cls-16" points="9.18 92.34 9.18 91.98 9.54 91.98"/>
            <line class="cls-16" x1="9.9" y1="91.8" x2="9.54" y2="91.98"/>
            <polyline class="cls-16" points="9.9 91.8 9.9 91.26 10.26 91.26"/>
            <line class="cls-16" x1="10.62" y1="91.08" x2="10.26" y2="91.26"/>
            <polyline class="cls-16" points="10.62 91.08 10.62 90.54 10.98 90.72"/>
            <line class="cls-16" x1="11.34" y1="90.36" x2="10.98" y2="90.72"/>
            <polyline class="cls-16" points="11.34 90.36 11.34 89.82 11.7 90"/>
            <line class="cls-16" x1="12.06" y1="89.64" x2="11.7" y2="90"/>
            <polyline class="cls-16" points="12.06 89.64 12.06 89.1 12.42 89.1"/>
            <line class="cls-16" x1="12.78" y1="88.92" x2="12.42" y2="89.1"/>
            <polyline class="cls-16" points="12.78 88.92 12.78 88.38 13.14 88.38"/>
            <line class="cls-16" x1="13.5" y1="88.2" x2="13.14" y2="88.38"/>
            <polyline class="cls-16" points="13.5 88.2 13.5 87.66 13.86 87.66"/>
            <line class="cls-16" x1="14.22" y1="87.3" x2="13.86" y2="87.66"/>
            <polyline class="cls-16" points="14.22 87.3 14.22 86.94 14.76 86.94"/>
            <line class="cls-16" x1="14.94" y1="86.58" x2="14.76" y2="86.94"/>
            <polyline class="cls-16" points="14.94 86.58 15.12 86.22 15.48 86.22"/>
            <line class="cls-16" x1="15.84" y1="85.86" x2="15.48" y2="86.22"/>
            <polyline class="cls-16" points="15.84 85.86 15.84 85.32 16.2 85.32"/>
            <line class="cls-16" x1="16.56" y1="84.96" x2="16.2" y2="85.32"/>
            <polyline class="cls-16" points="16.56 84.96 16.56 84.6 17.1 84.6"/>
            <line class="cls-16" x1="17.28" y1="84.24" x2="17.1" y2="84.6"/>
            <polyline class="cls-16" points="17.28 84.24 17.46 83.88 17.82 83.88"/>
            <line class="cls-16" x1="18.18" y1="83.52" x2="17.82" y2="83.88"/>
            <polyline class="cls-16" points="18.18 83.52 18.18 83.16 18.54 82.98"/>
            <line class="cls-16" x1="18.9" y1="82.8" x2="18.54" y2="82.98"/>
            <polyline class="cls-16" points="18.9 82.8 18.9 82.26 19.26 82.26"/>
            <line class="cls-16" x1="19.62" y1="81.9" x2="19.26" y2="82.26"/>
            <polyline class="cls-16" points="19.62 81.9 19.62 81.54 20.16 81.54"/>
            <line class="cls-16" x1="20.34" y1="81.18" x2="20.16" y2="81.54"/>
            <polyline class="cls-16" points="20.34 81.18 20.34 80.82 20.88 80.82"/>
            <line class="cls-16" x1="21.24" y1="80.46" x2="20.88" y2="80.82"/>
            <polyline class="cls-16" points="21.24 80.46 21.24 80.1 21.6 80.1"/>
            <line class="cls-16" x1="21.96" y1="79.74" x2="21.6" y2="80.1"/>
            <polyline class="cls-16" points="21.96 79.74 21.96 79.38 22.32 79.2"/>
            <line class="cls-16" x1="22.68" y1="79.02" x2="22.32" y2="79.2"/>
            <polyline class="cls-16" points="22.68 79.02 22.68 78.66 23.04 78.66"/>
            <line class="cls-16" x1="23.4" y1="78.3" x2="23.04" y2="78.66"/>
            <polyline class="cls-16" points="23.4 78.3 23.22 77.94 23.76 77.94"/>
            <line class="cls-16" x1="23.94" y1="77.58" x2="23.76" y2="77.94"/>
            <polyline class="cls-16" points="23.94 77.58 23.94 77.22 24.48 77.22"/>
            <line class="cls-16" x1="24.66" y1="76.86" x2="24.48" y2="77.22"/>
            <polyline class="cls-16" points="24.66 76.86 24.66 76.68 25.02 76.5"/>
            <line class="cls-16" x1="25.38" y1="76.32" x2="25.02" y2="76.5"/>
            <polyline class="cls-16" points="25.38 76.32 25.2 75.96 25.74 75.96"/>
            <line class="cls-16" x1="25.92" y1="75.6" x2="25.74" y2="75.96"/>
            <polyline class="cls-16" points="25.92 75.6 25.92 75.42 26.28 75.24"/>
            <line class="cls-16" x1="26.64" y1="75.06" x2="26.28" y2="75.24"/>
            <polyline class="cls-16" points="26.64 75.06 26.46 74.7 26.82 74.7"/>
            <line class="cls-16" x1="27.18" y1="74.52" x2="26.82" y2="74.7"/>
            <polyline class="cls-16" points="27.18 74.52 27 74.16 27.36 74.16"/>
            <line class="cls-16" x1="27.72" y1="73.98" x2="27.36" y2="74.16"/>
            <polyline class="cls-16" points="27.72 73.98 27.54 73.62 27.9 73.62"/>
            <line class="cls-16" x1="28.26" y1="73.44" x2="27.9" y2="73.62"/>
            <polyline class="cls-16" points="28.26 73.44 28.08 73.26 28.44 73.08"/>
            <line class="cls-16" x1="28.62" y1="72.9" x2="28.44" y2="73.08"/>
            <polyline class="cls-16" points="28.62 72.9 28.44 72.72 28.98 72.72"/>
            <line class="cls-16" x1="29.16" y1="72.54" x2="28.98" y2="72.72"/>
            <polyline class="cls-16" points="29.16 72.54 28.98 72.36 29.34 72.18"/>
            <line class="cls-16" x1="29.52" y1="72" x2="29.34" y2="72.18"/>
            <polyline class="cls-16" points="29.52 72 29.34 71.82 29.7 71.82"/>
            <line class="cls-16" x1="29.88" y1="71.64" x2="29.7" y2="71.82"/>
            <polyline class="cls-16" points="29.88 71.64 29.7 71.46 30.06 71.46"/>
            <line class="cls-16" x1="30.24" y1="71.28" x2="30.06" y2="71.46"/>
            <polyline class="cls-16" points="30.24 71.28 30.06 71.1 30.42 71.1"/>
            <line class="cls-16" x1="30.6" y1="71.1" x2="30.42" y2="71.1"/>
            <polyline class="cls-16" points="30.6 71.1 30.42 70.92 30.78 70.92"/>
            <line class="cls-16" x1="30.78" y1="70.74" x2="30.78" y2="70.92"/>
            <polyline class="cls-16" points="30.78 70.74 30.6 70.56 30.96 70.56"/>
            <line class="cls-16" x1="31.14" y1="70.56" x2="30.96" y2="70.56"/>
            <polyline class="cls-16" points="31.14 70.56 30.78 70.38 31.14 70.38"/>
            <line class="cls-16" x1="31.32" y1="70.38" x2="31.14" y2="70.38"/>
            <polyline class="cls-16" points="31.32 70.38 30.96 70.2 31.32 70.2"/>
            <polyline class="cls-16" points="31.32 70.2 31.14 70.02 31.5 70.2"/>
            <line class="cls-16" x1="31.5" y1="70.02" x2="31.5" y2="70.2"/>
            <line class="cls-16" x1="31.32" y1="70.02" x2="31.5" y2="70.02"/>
            <line class="cls-16" x1="31.68" y1="70.02" x2="31.5" y2="70.02"/>
            <line class="cls-16" x1="31.68" y1="70.02" x2="31.32" y2="69.84"/>
            <polyline class="cls-16" points="31.5 70.2 43.74 82.26 31.5 70.02"/>
            <line class="cls-16" x1="31.32" y1="70.2" x2="43.56" y2="82.44"/>
            <polyline class="cls-16" points="31.14 70.38 43.38 82.62 31.32 70.38"/>
            <polyline class="cls-16" points="30.96 70.56 43.2 82.8 31.14 70.56"/>
            <polyline class="cls-16" points="30.78 70.92 42.84 83.16 43.02 82.98 30.78 70.74"/>
            <polyline class="cls-16" points="30.42 71.1 42.66 83.34 42.66 83.16 30.6 71.1"/>
            <polyline class="cls-16" points="30.06 71.46 42.3 83.7 42.48 83.52 30.24 71.28"/>
            <polyline class="cls-16" points="29.7 71.82 41.94 84.06 42.12 83.88 29.88 71.64"/>
            <polyline class="cls-16" points="29.34 72.18 41.58 84.42 41.76 84.24 29.52 72"/>
            <polyline class="cls-16" points="28.98 72.72 41.04 84.78 41.22 84.6 29.16 72.54"/>
            <polyline class="cls-16" points="28.44 73.08 40.68 85.32 40.86 85.14 28.62 72.9"/>
            <polyline class="cls-16" points="27.9 73.62 40.14 85.86 40.32 85.68 28.26 73.44"/>
            <polyline class="cls-16" points="27.36 74.16 39.6 86.4 39.78 86.04 27.72 73.98"/>
            <polyline class="cls-16" points="26.82 74.7 39.06 86.94 39.24 86.58 27.18 74.52"/>
            <polyline class="cls-16" points="26.28 75.24 38.52 87.48 38.7 87.3 26.64 75.06"/>
            <polyline class="cls-16" points="25.74 75.96 37.8 88.02 38.16 87.84 25.92 75.6"/>
            <polyline class="cls-16" points="25.02 76.5 37.26 88.74 37.44 88.38 25.38 76.32"/>
            <polyline class="cls-16" points="24.48 77.22 36.54 89.46 36.9 89.1 24.66 76.86"/>
            <polyline class="cls-16" points="23.76 77.94 36 90 36.18 89.82 23.94 77.58"/>
            <polyline class="cls-16" points="23.04 78.66 35.28 90.72 35.46 90.54 23.4 78.3"/>
            <polyline class="cls-16" points="22.32 79.2 34.56 91.44 34.74 91.08 22.68 79.02"/>
            <polyline class="cls-16" points="21.6 80.1 33.84 92.16 34.02 91.98 21.96 79.74"/>
            <polyline class="cls-16" points="20.88 80.82 33.12 92.88 33.3 92.7 21.24 80.46"/>
            <polyline class="cls-16" points="20.16 81.54 32.22 93.78 32.58 93.42 20.34 81.18"/>
            <polyline class="cls-16" points="19.26 82.26 31.5 94.5 31.86 94.14 19.62 81.9"/>
            <polyline class="cls-16" points="18.54 82.98 30.78 95.22 31.14 94.86 18.9 82.8"/>
            <polyline class="cls-16" points="17.82 83.88 30.06 95.94 30.24 95.58 18.18 83.52"/>
            <polyline class="cls-16" points="17.1 84.6 29.16 96.84 29.52 96.48 17.28 84.24"/>
            <polyline class="cls-16" points="16.2 85.32 28.44 97.56 28.8 97.2 16.56 84.96"/>
            <polyline class="cls-16" points="15.48 86.22 27.72 98.28 27.9 97.92 15.84 85.86"/>
            <polyline class="cls-16" points="14.76 86.94 26.82 99.18 27.18 98.82 14.94 86.58"/>
            <polyline class="cls-16" points="13.86 87.66 26.1 99.9 26.46 99.54 14.22 87.3"/>
            <polyline class="cls-16" points="13.14 88.38 25.38 100.62 25.74 100.26 13.5 88.2"/>
            <polyline class="cls-16" points="12.42 89.1 24.66 101.34 24.84 100.98 12.78 88.92"/>
            <polyline class="cls-16" points="11.7 90 23.94 102.06 24.12 101.88 12.06 89.64"/>
            <polyline class="cls-16" points="10.98 90.72 23.22 102.78 23.4 102.6 11.34 90.36"/>
            <polyline class="cls-16" points="10.26 91.26 22.5 103.5 22.68 103.32 10.62 91.08"/>
            <polyline class="cls-16" points="9.54 91.98 21.78 104.22 21.96 103.86 9.9 91.8"/>
            <polyline class="cls-16" points="8.82 92.7 21.06 104.94 21.42 104.58 9.18 92.34"/>
            <polyline class="cls-16" points="8.28 93.42 20.52 105.48 20.7 105.3 8.46 93.06"/>
            <polyline class="cls-16" points="7.56 93.96 19.8 106.2 20.16 105.84 7.92 93.78"/>
            <polyline class="cls-16" points="7.02 94.5 19.26 106.74 19.44 106.56 7.2 94.32"/>
            <polyline class="cls-16" points="6.48 95.22 18.72 107.28 18.9 107.1 6.66 94.86"/>
            <polyline class="cls-16" points="5.94 95.76 18.18 107.82 18.36 107.64 6.12 95.4"/>
            <polyline class="cls-16" points="5.4 96.12 17.64 108.36 17.82 108.18 5.58 95.94"/>
            <polyline class="cls-16" points="4.86 96.66 17.1 108.9 17.28 108.72 5.04 96.48"/>
            <polyline class="cls-16" points="4.5 97.2 16.74 109.26 16.92 109.08 4.68 97.02"/>
            <polyline class="cls-16" points="4.14 97.56 16.2 109.8 16.38 109.62 4.32 97.38"/>
            <polyline class="cls-16" points="3.6 97.92 15.84 110.16 16.02 109.98 3.78 97.74"/>
            <polyline class="cls-16" points="3.42 98.28 15.48 110.52 15.66 110.34 3.42 98.1"/>
            <polyline class="cls-16" points="3.06 98.64 15.3 110.7 3.24 98.46"/>
            <polyline class="cls-16" points="2.7 98.82 14.94 111.06 15.12 110.88 2.88 98.82"/>
            <polyline class="cls-16" points="2.52 99 14.76 111.24 2.7 99"/>
            <polyline class="cls-16" points="2.34 99.36 14.58 111.42 2.34 99.18"/>
            <line class="cls-16" x1="2.16" y1="99.36" x2="14.4" y2="111.6"/>
            <polyline class="cls-16" points="2.16 99.54 14.22 111.6 14.22 111.78"/>
            <line class="cls-16" x1="14.13" y1="111.69" x2="1.98" y2="99.72"/>
            <line class="cls-16" x1="1.98" y1="99.54" x2="14.13" y2="111.69"/>
            <line class="cls-16" x1="14.22" y1="111.78" x2="14.13" y2="111.69"/>
            <polyline class="cls-16" points="43.74 82.26 43.74 82.08 31.68 70.02 43.74 82.26"/>
            <line class="cls-16" x1="43.92" y1="82.44" x2="43.74" y2="82.26"/>
            <line class="cls-16" x1="43.92" y1="82.44" x2="43.74" y2="82.08"/>
            <polyline class="cls-16" points="43.02 82.98 43.2 83.16 43.2 82.8 43.38 82.98 43.38 82.62 43.56 82.8 43.56 82.44 43.74 82.62 43.74 82.26"/>
            <polyline class="cls-16" points="42.84 83.16 42.84 83.52 42.66 83.16"/>
            <polyline class="cls-16" points="42.66 83.34 42.66 83.7 42.48 83.52"/>
            <polyline class="cls-16" points="42.3 83.7 42.3 84.06 42.12 83.88"/>
            <polyline class="cls-16" points="41.94 84.06 41.94 84.42 41.76 84.24"/>
            <polyline class="cls-16" points="41.58 84.42 41.58 84.78 41.22 84.6"/>
            <polyline class="cls-16" points="41.04 84.78 41.04 85.32 40.86 85.14"/>
            <polyline class="cls-16" points="40.68 85.32 40.68 85.68 40.32 85.68"/>
            <polyline class="cls-16" points="40.14 85.86 40.14 86.22 39.78 86.04"/>
            <polyline class="cls-16" points="39.6 86.4 39.6 86.76 39.24 86.58"/>
            <polyline class="cls-16" points="39.06 86.94 39.06 87.3 38.7 87.3"/>
            <polyline class="cls-16" points="38.52 87.48 38.52 87.84 38.16 87.84"/>
            <polyline class="cls-16" points="37.8 88.02 37.8 88.56 37.44 88.38"/>
            <polyline class="cls-16" points="37.26 88.74 37.26 89.1 36.9 89.1"/>
            <polyline class="cls-16" points="36.54 89.46 36.54 89.82 36.18 89.82"/>
            <polyline class="cls-16" points="36 90 35.82 90.54 35.46 90.54"/>
            <polyline class="cls-16" points="35.28 90.72 35.1 91.26 34.74 91.08"/>
            <polyline class="cls-16" points="34.56 91.44 34.38 91.98 34.02 91.98"/>
            <polyline class="cls-16" points="33.84 92.16 33.66 92.7 33.3 92.7"/>
            <polyline class="cls-16" points="33.12 92.88 32.94 93.42 32.58 93.42"/>
            <polyline class="cls-16" points="32.22 93.78 32.22 94.14 31.86 94.14"/>
            <polyline class="cls-16" points="31.5 94.5 31.5 94.86 31.14 94.86"/>
            <polyline class="cls-16" points="30.78 95.22 30.78 95.58 30.24 95.58"/>
            <polyline class="cls-16" points="30.06 95.94 29.88 96.48 29.52 96.48"/>
            <polyline class="cls-16" points="29.16 96.84 29.16 97.2 28.8 97.2"/>
            <polyline class="cls-16" points="28.44 97.56 28.44 97.92 27.9 97.92"/>
            <polyline class="cls-16" points="27.72 98.28 27.54 98.64 27.18 98.82"/>
            <polyline class="cls-16" points="26.82 99.18 26.82 99.54 26.46 99.54"/>
            <polyline class="cls-16" points="26.1 99.9 26.1 100.26 25.74 100.26"/>
            <polyline class="cls-16" points="25.38 100.62 25.38 100.98 24.84 100.98"/>
            <polyline class="cls-16" points="24.66 101.34 24.66 101.7 24.12 101.88"/>
            <polyline class="cls-16" points="23.94 102.06 23.94 102.42 23.4 102.6"/>
            <polyline class="cls-16" points="23.22 102.78 23.22 103.14 22.68 103.32"/>
            <polyline class="cls-16" points="22.5 103.5 22.5 103.86 21.96 103.86"/>
            <polyline class="cls-16" points="21.78 104.22 21.78 104.58 21.42 104.58"/>
            <polyline class="cls-16" points="21.06 104.94 21.06 105.12 20.7 105.3"/>
            <polyline class="cls-16" points="20.52 105.48 20.52 105.84 20.16 105.84"/>
            <polyline class="cls-16" points="19.8 106.2 19.98 106.38 19.44 106.56"/>
            <polyline class="cls-16" points="19.26 106.74 19.26 107.1 18.9 107.1"/>
            <polyline class="cls-16" points="18.72 107.28 18.72 107.64 18.36 107.64"/>
            <polyline class="cls-16" points="18.18 107.82 18.18 108.18 17.82 108.18"/>
            <polyline class="cls-16" points="17.64 108.36 17.64 108.72 17.28 108.72"/>
            <polyline class="cls-16" points="17.1 108.9 17.28 109.08 16.92 109.08"/>
            <polyline class="cls-16" points="16.74 109.26 16.74 109.62 16.38 109.62"/>
            <polyline class="cls-16" points="16.2 109.8 16.38 109.98 16.02 109.98"/>
            <polyline class="cls-16" points="15.84 110.16 16.02 110.34 15.66 110.34"/>
            <polyline class="cls-16" points="15.48 110.52 15.66 110.7 15.3 110.7 15.48 110.88 15.12 110.88"/>
            <polyline class="cls-16" points="14.94 111.06 15.12 111.24 14.76 111.24 14.94 111.42 14.58 111.42 14.76 111.6 14.4 111.6 14.58 111.78 14.22 111.6"/>
            <line class="cls-16" x1="14.58" y1="111.78" x2="14.22" y2="111.78"/>
            <line class="cls-16" x1="14.4" y1="111.96" x2="14.22" y2="111.78"/>
            <polyline class="cls-16" points="44.64 87.12 40.86 90.9 22.86 108.9 19.08 112.68"/>
            <path class="cls-9" d="M1.06,94.67c-.28.28-.4.69-.31,1.08,0,.03.01.05.02.08"/>
            <path class="cls-18" d="M27.79,68.81c-.42-.12-.85-.01-1.16.29h-.01"/>
            <polyline class="cls-16" points="27.72 68.76 27.8 68.78 31.32 69.84"/>
            <line class="cls-16" x1=".72" y1="95.76" x2="1.8" y2="99.36"/>
            <polyline class="cls-16" points="18 113.04 17.92 113.02 14.4 111.96"/>
            <polyline class="cls-16" points="45 86.04 44.98 85.97 43.92 82.44"/>
            <path class="cls-18" d="M17.93,112.99c.41.13.86.01,1.17-.29"/>
            <path class="cls-9" d="M44.66,87.14c.3-.3.41-.75.29-1.16"/>
            <line class="cls-16" x1="99" y1="1.08" x2="73.44" y2="26.64"/>
            <line class="cls-16" x1="74.16" y1="31.32" x2="74.34" y2="31.68"/>
            <line class="cls-16" x1="74.34" y1="31.32" x2="74.34" y2="31.5"/>
            <line class="cls-16" x1="74.34" y1="31.68" x2="74.34" y2="31.5"/>
            <line class="cls-16" x1="74.52" y1="31.5" x2="74.34" y2="31.5"/>
            <line class="cls-16" x1="74.34" y1="31.14" x2="74.52" y2="31.5"/>
            <polyline class="cls-16" points="74.52 31.5 74.52 31.14 74.7 31.32"/>
            <polyline class="cls-16" points="74.7 31.32 74.7 30.96 74.88 31.14"/>
            <line class="cls-16" x1="75.06" y1="30.96" x2="74.88" y2="31.14"/>
            <line class="cls-16" x1="74.88" y1="30.6" x2="75.06" y2="30.96"/>
            <line class="cls-16" x1="75.24" y1="30.78" x2="75.06" y2="30.96"/>
            <polyline class="cls-16" points="75.24 30.78 75.24 30.42 75.42 30.6"/>
            <line class="cls-16" x1="75.6" y1="30.42" x2="75.42" y2="30.6"/>
            <polyline class="cls-16" points="75.6 30.42 75.42 30.06 75.78 30.24"/>
            <polyline class="cls-16" points="75.78 30.24 75.78 29.88 75.96 30.06"/>
            <line class="cls-16" x1="76.14" y1="29.88" x2="75.96" y2="30.06"/>
            <polyline class="cls-16" points="76.14 29.88 76.14 29.52 76.5 29.52"/>
            <line class="cls-16" x1="76.68" y1="29.34" x2="76.5" y2="29.52"/>
            <polyline class="cls-16" points="76.68 29.34 76.68 28.98 76.86 29.16"/>
            <line class="cls-16" x1="77.04" y1="28.98" x2="76.86" y2="29.16"/>
            <polyline class="cls-16" points="77.04 28.98 77.04 28.62 77.22 28.8"/>
            <line class="cls-16" x1="77.4" y1="28.44" x2="77.22" y2="28.8"/>
            <polyline class="cls-16" points="77.4 28.44 77.58 28.08 77.76 28.26"/>
            <line class="cls-16" x1="77.94" y1="28.08" x2="77.76" y2="28.26"/>
            <polyline class="cls-16" points="77.94 28.08 77.94 27.54 78.3 27.72"/>
            <line class="cls-16" x1="78.48" y1="27.54" x2="78.3" y2="27.72"/>
            <polyline class="cls-16" points="78.48 27.54 78.48 27.18 78.84 27.18"/>
            <line class="cls-16" x1="79.02" y1="27" x2="78.84" y2="27.18"/>
            <polyline class="cls-16" points="79.02 27 79.02 26.46 79.38 26.64"/>
            <line class="cls-16" x1="79.56" y1="26.28" x2="79.38" y2="26.64"/>
            <polyline class="cls-16" points="79.56 26.28 79.74 25.92 79.92 26.1"/>
            <line class="cls-16" x1="80.28" y1="25.74" x2="79.92" y2="26.1"/>
            <polyline class="cls-16" points="80.28 25.74 80.28 25.38 80.64 25.38"/>
            <line class="cls-16" x1="80.82" y1="25.2" x2="80.64" y2="25.38"/>
            <polyline class="cls-16" points="80.82 25.2 81 24.66 81.18 24.84"/>
            <line class="cls-16" x1="81.54" y1="24.48" x2="81.18" y2="24.84"/>
            <polyline class="cls-16" points="81.54 24.48 81.54 24.12 81.9 24.12"/>
            <line class="cls-16" x1="82.26" y1="23.76" x2="81.9" y2="24.12"/>
            <polyline class="cls-16" points="82.26 23.76 82.26 23.4 82.62 23.4"/>
            <line class="cls-16" x1="82.98" y1="23.04" x2="82.62" y2="23.4"/>
            <polyline class="cls-16" points="82.98 23.04 82.98 22.68 83.34 22.68"/>
            <line class="cls-16" x1="83.7" y1="22.32" x2="83.34" y2="22.68"/>
            <polyline class="cls-16" points="83.7 22.32 83.7 21.96 84.06 21.96"/>
            <line class="cls-16" x1="84.42" y1="21.6" x2="84.06" y2="21.96"/>
            <polyline class="cls-16" points="84.42 21.6 84.42 21.24 84.78 21.24"/>
            <line class="cls-16" x1="85.14" y1="20.88" x2="84.78" y2="21.24"/>
            <polyline class="cls-16" points="85.14 20.88 85.14 20.52 85.5 20.52"/>
            <line class="cls-16" x1="85.86" y1="20.16" x2="85.5" y2="20.52"/>
            <polyline class="cls-16" points="85.86 20.16 85.86 19.8 86.22 19.8"/>
            <line class="cls-16" x1="86.58" y1="19.44" x2="86.22" y2="19.8"/>
            <polyline class="cls-16" points="86.58 19.44 86.58 18.9 87.12 18.9"/>
            <line class="cls-16" x1="87.3" y1="18.72" x2="87.12" y2="18.9"/>
            <polyline class="cls-16" points="87.3 18.72 87.48 18.18 87.84 18.18"/>
            <line class="cls-16" x1="88.2" y1="17.82" x2="87.84" y2="18.18"/>
            <polyline class="cls-16" points="88.2 17.82 88.2 17.46 88.56 17.46"/>
            <line class="cls-16" x1="88.92" y1="17.1" x2="88.56" y2="17.46"/>
            <polyline class="cls-16" points="88.92 17.1 88.92 16.74 89.46 16.56"/>
            <line class="cls-16" x1="89.64" y1="16.38" x2="89.46" y2="16.56"/>
            <polyline class="cls-16" points="89.64 16.38 89.82 15.84 90.18 15.84"/>
            <line class="cls-16" x1="90.54" y1="15.48" x2="90.18" y2="15.84"/>
            <polyline class="cls-16" points="90.54 15.48 90.54 15.12 90.9 15.12"/>
            <line class="cls-16" x1="91.26" y1="14.76" x2="90.9" y2="15.12"/>
            <polyline class="cls-16" points="91.26 14.76 91.26 14.4 91.62 14.4"/>
            <line class="cls-16" x1="91.98" y1="14.04" x2="91.62" y2="14.4"/>
            <polyline class="cls-16" points="91.98 14.04 91.98 13.68 92.52 13.5"/>
            <line class="cls-16" x1="92.7" y1="13.32" x2="92.52" y2="13.5"/>
            <polyline class="cls-16" points="92.7 13.32 92.7 12.78 93.24 12.78"/>
            <line class="cls-16" x1="93.6" y1="12.42" x2="93.24" y2="12.78"/>
            <polyline class="cls-16" points="93.6 12.42 93.6 12.06 93.96 12.06"/>
            <line class="cls-16" x1="94.32" y1="11.7" x2="93.96" y2="12.06"/>
            <polyline class="cls-16" points="94.32 11.7 94.32 11.34 94.68 11.34"/>
            <line class="cls-16" x1="95.04" y1="10.98" x2="94.68" y2="11.34"/>
            <polyline class="cls-16" points="95.04 10.98 95.04 10.62 95.4 10.62"/>
            <line class="cls-16" x1="95.76" y1="10.26" x2="95.4" y2="10.62"/>
            <polyline class="cls-16" points="95.76 10.26 95.58 9.9 96.12 9.9"/>
            <line class="cls-16" x1="96.3" y1="9.72" x2="96.12" y2="9.9"/>
            <polyline class="cls-16" points="96.3 9.72 96.3 9.36 96.84 9.18"/>
            <line class="cls-16" x1="97.02" y1="9" x2="96.84" y2="9.18"/>
            <polyline class="cls-16" points="97.02 9 97.02 8.64 97.38 8.64"/>
            <line class="cls-16" x1="97.74" y1="8.28" x2="97.38" y2="8.64"/>
            <polyline class="cls-16" points="97.74 8.28 97.56 8.1 98.1 7.92"/>
            <line class="cls-16" x1="98.28" y1="7.74" x2="98.1" y2="7.92"/>
            <polyline class="cls-16" points="98.28 7.74 98.28 7.38 98.64 7.38"/>
            <line class="cls-16" x1="99" y1="7.02" x2="98.64" y2="7.38"/>
            <polyline class="cls-16" points="99 7.02 98.82 6.84 99.18 6.84"/>
            <line class="cls-16" x1="99.54" y1="6.48" x2="99.18" y2="6.84"/>
            <polyline class="cls-16" points="116.1 14.4 103.86 2.16 116.1 14.22"/>
            <polyline class="cls-16" points="103.68 2.34 115.92 14.58 115.92 14.4 103.68 2.16"/>
            <polyline class="cls-16" points="103.5 2.52 115.74 14.58 103.68 2.34"/>
            <polyline class="cls-16" points="103.32 2.7 115.56 14.94 115.56 14.76 103.5 2.52"/>
            <polyline class="cls-16" points="115.38 14.94 103.14 2.88 115.2 15.12 115.38 14.94"/>
            <polyline class="cls-16" points="102.78 3.24 115.02 15.48 115.02 15.3 102.96 3.06"/>
            <polyline class="cls-16" points="102.42 3.6 114.66 15.66 114.84 15.66 102.6 3.42"/>
            <polyline class="cls-16" points="102.06 3.96 114.3 16.02 114.48 16.02 102.24 3.78"/>
            <polyline class="cls-16" points="101.7 4.32 113.94 16.56 114.12 16.38 101.88 4.14"/>
            <polyline class="cls-16" points="101.34 4.68 113.4 16.92 113.58 16.74 101.52 4.5"/>
            <polyline class="cls-16" points="100.8 5.22 113.04 17.46 113.22 17.1 100.98 5.04"/>
            <polyline class="cls-16" points="100.26 5.76 112.5 17.82 112.68 17.64 100.62 5.4"/>
            <polyline class="cls-16" points="99.72 6.3 111.96 18.36 112.14 18.18 100.08 5.94"/>
            <polyline class="cls-16" points="99.18 6.84 111.42 18.9 111.6 18.72 99.54 6.48"/>
            <polyline class="cls-16" points="98.64 7.38 110.88 19.62 111.06 19.26 99 7.02"/>
            <polyline class="cls-16" points="98.1 7.92 110.16 20.16 110.52 19.8 98.28 7.74"/>
            <polyline class="cls-16" points="97.38 8.64 109.62 20.7 109.8 20.52 97.74 8.28"/>
            <polyline class="cls-16" points="96.84 9.18 108.9 21.42 109.26 21.24 97.02 9"/>
            <polyline class="cls-16" points="96.12 9.9 108.36 22.14 108.54 21.78 96.3 9.72"/>
            <polyline class="cls-16" points="95.4 10.62 107.64 22.86 107.82 22.5 95.76 10.26"/>
            <polyline class="cls-16" points="94.68 11.34 106.92 23.58 107.1 23.22 95.04 10.98"/>
            <polyline class="cls-16" points="93.96 12.06 106.2 24.3 106.38 23.94 94.32 11.7"/>
            <polyline class="cls-16" points="93.24 12.78 105.48 25.02 105.66 24.66 93.6 12.42"/>
            <polyline class="cls-16" points="92.52 13.5 104.58 25.74 104.94 25.38 92.7 13.32"/>
            <polyline class="cls-16" points="91.62 14.4 103.86 26.46 104.22 26.1 91.98 14.04"/>
            <polyline class="cls-16" points="90.9 15.12 103.14 27.36 103.5 27 91.26 14.76"/>
            <polyline class="cls-16" points="90.18 15.84 102.42 28.08 102.6 27.72 90.54 15.48"/>
            <polyline class="cls-16" points="89.46 16.56 101.52 28.8 101.88 28.44 89.64 16.38"/>
            <polyline class="cls-16" points="88.56 17.46 100.8 29.52 101.16 29.34 88.92 17.1"/>
            <polyline class="cls-16" points="87.84 18.18 100.08 30.42 100.26 30.06 88.2 17.82"/>
            <polyline class="cls-16" points="87.12 18.9 99.18 31.14 99.54 30.78 87.3 18.72"/>
            <polyline class="cls-16" points="86.22 19.8 98.46 31.86 98.82 31.5 86.58 19.44"/>
            <polyline class="cls-16" points="85.5 20.52 97.74 32.76 98.1 32.4 85.86 20.16"/>
            <polyline class="cls-16" points="84.78 21.24 97.02 33.48 97.2 33.12 85.14 20.88"/>
            <polyline class="cls-16" points="84.06 21.96 96.3 34.2 96.48 33.84 84.42 21.6"/>
            <polyline class="cls-16" points="83.34 22.68 95.58 34.92 95.76 34.56 83.7 22.32"/>
            <polyline class="cls-16" points="82.62 23.4 94.86 35.64 95.04 35.28 82.98 23.04"/>
            <polyline class="cls-16" points="81.9 24.12 94.14 36.36 94.32 36 82.26 23.76"/>
            <polyline class="cls-16" points="81.18 24.84 93.42 36.9 93.78 36.72 81.54 24.48"/>
            <polyline class="cls-16" points="80.64 25.38 92.88 37.62 93.06 37.26 80.82 25.2"/>
            <polyline class="cls-16" points="79.92 26.1 92.16 38.16 92.52 37.98 80.28 25.74"/>
            <polyline class="cls-16" points="79.38 26.64 91.62 38.88 91.8 38.52 79.56 26.28"/>
            <polyline class="cls-16" points="78.84 27.18 91.08 39.42 91.26 39.06 79.02 27"/>
            <polyline class="cls-16" points="78.3 27.72 90.54 39.96 90.72 39.78 78.48 27.54"/>
            <polyline class="cls-16" points="77.76 28.26 90 40.5 90.18 40.14 77.94 28.08"/>
            <polyline class="cls-16" points="77.22 28.8 89.46 40.86 89.64 40.68 77.4 28.44"/>
            <polyline class="cls-16" points="76.86 29.16 89.1 41.4 89.28 41.22 77.04 28.98"/>
            <polyline class="cls-16" points="76.5 29.52 88.56 41.76 88.74 41.58 76.68 29.34"/>
            <polyline class="cls-16" points="75.96 30.06 88.2 42.12 88.38 41.94 76.14 29.88"/>
            <polyline class="cls-16" points="88.02 42.3 75.78 30.24 87.84 42.48 88.02 42.3"/>
            <polyline class="cls-16" points="75.42 30.6 87.66 42.84 87.66 42.66 75.6 30.42"/>
            <polyline class="cls-16" points="75.06 30.96 87.3 43.02 87.48 43.02 75.24 30.78"/>
            <polyline class="cls-16" points="74.88 31.14 87.12 43.38 87.12 43.2 75.06 30.96"/>
            <polyline class="cls-16" points="86.94 43.56 74.7 31.32 86.94 43.38 86.94 43.56"/>
            <polyline class="cls-16" points="86.76 43.74 74.52 31.5 86.76 43.56 86.76 43.74"/>
            <polyline class="cls-16" points="74.34 31.5 86.58 43.74 74.52 31.5"/>
            <polyline class="cls-16" points="86.58 43.92 74.34 31.68 86.58 43.74 86.58 43.92"/>
            <line class="cls-16" x1="104.04" y1="1.98" x2="116.1" y2="14.22"/>
            <polyline class="cls-16" points="115.92 14.4 116.1 14.76 116.1 14.58 116.1 14.4 116.1 14.22 116.28 14.58"/>
            <polyline class="cls-16" points="115.92 14.58 115.92 14.76 115.74 14.58 115.74 14.94 115.56 14.76"/>
            <polyline class="cls-16" points="115.56 14.94 115.56 15.3 115.38 14.94"/>
            <polyline class="cls-16" points="115.2 15.12 115.2 15.48 115.02 15.3"/>
            <polyline class="cls-16" points="115.02 15.48 115.02 15.84 114.84 15.66"/>
            <polyline class="cls-16" points="114.66 15.66 114.66 16.02 114.48 16.02"/>
            <polyline class="cls-16" points="114.3 16.02 114.3 16.56 114.12 16.38"/>
            <polyline class="cls-16" points="113.94 16.56 113.94 16.92 113.58 16.74"/>
            <polyline class="cls-16" points="113.4 16.92 113.4 17.28 113.22 17.1"/>
            <polyline class="cls-16" points="113.04 17.46 113.04 17.82 112.68 17.64"/>
            <polyline class="cls-16" points="112.5 17.82 112.5 18.36 112.14 18.18"/>
            <polyline class="cls-16" points="111.96 18.36 111.96 18.9 111.6 18.72"/>
            <polyline class="cls-16" points="111.42 18.9 111.42 19.44 111.06 19.26"/>
            <polyline class="cls-16" points="110.88 19.62 110.88 19.98 110.52 19.8"/>
            <polyline class="cls-16" points="110.16 20.16 110.16 20.52 109.8 20.52"/>
            <polyline class="cls-16" points="109.62 20.7 109.62 21.24 109.26 21.24"/>
            <polyline class="cls-16" points="108.9 21.42 108.9 21.78 108.54 21.78"/>
            <polyline class="cls-16" points="108.36 22.14 108.18 22.5 107.82 22.5"/>
            <polyline class="cls-16" points="107.64 22.86 107.46 23.22 107.1 23.22"/>
            <polyline class="cls-16" points="106.92 23.58 106.74 23.94 106.38 23.94"/>
            <polyline class="cls-16" points="106.2 24.3 106.02 24.66 105.66 24.66"/>
            <polyline class="cls-16" points="105.48 25.02 105.3 25.38 104.94 25.38"/>
            <polyline class="cls-16" points="104.58 25.74 104.58 26.1 104.22 26.1"/>
            <polyline class="cls-16" points="103.86 26.46 103.86 27 103.5 27"/>
            <polyline class="cls-16" points="103.14 27.36 103.14 27.72 102.6 27.72"/>
            <polyline class="cls-16" points="102.42 28.08 102.24 28.44 101.88 28.44"/>
            <polyline class="cls-16" points="101.52 28.8 101.52 29.16 101.16 29.34"/>
            <polyline class="cls-16" points="100.8 29.52 100.8 30.06 100.26 30.06"/>
            <polyline class="cls-16" points="100.08 30.42 99.9 30.78 99.54 30.78"/>
            <polyline class="cls-16" points="99.18 31.14 99.18 31.5 98.82 31.5"/>
            <polyline class="cls-16" points="98.46 31.86 98.46 32.22 98.1 32.4"/>
            <polyline class="cls-16" points="97.74 32.76 97.74 33.12 97.2 33.12"/>
            <polyline class="cls-16" points="97.02 33.48 97.02 33.84 96.48 33.84"/>
            <polyline class="cls-16" points="96.3 34.2 96.3 34.56 95.76 34.56"/>
            <polyline class="cls-16" points="95.58 34.92 95.58 35.28 95.04 35.28"/>
            <polyline class="cls-16" points="94.86 35.64 94.86 36 94.32 36"/>
            <polyline class="cls-16" points="94.14 36.36 94.14 36.54 93.78 36.72"/>
            <polyline class="cls-16" points="93.42 36.9 93.42 37.26 93.06 37.26"/>
            <polyline class="cls-16" points="92.88 37.62 92.88 37.98 92.52 37.98"/>
            <polyline class="cls-16" points="92.16 38.16 92.34 38.52 91.8 38.52"/>
            <polyline class="cls-16" points="91.62 38.88 91.62 39.06 91.26 39.06"/>
            <polyline class="cls-16" points="91.08 39.42 91.08 39.6 90.72 39.78"/>
            <polyline class="cls-16" points="90.54 39.96 90.54 40.14 90.18 40.14"/>
            <polyline class="cls-16" points="90 40.5 90 40.68 89.64 40.68"/>
            <polyline class="cls-16" points="89.46 40.86 89.64 41.22 89.28 41.22"/>
            <polyline class="cls-16" points="89.1 41.4 89.1 41.58 88.74 41.58"/>
            <polyline class="cls-16" points="88.56 41.76 88.74 41.94 88.38 41.94"/>
            <polyline class="cls-16" points="88.2 42.12 88.38 42.3 88.02 42.3"/>
            <polyline class="cls-16" points="87.84 42.48 88.02 42.66 87.66 42.66"/>
            <polyline class="cls-16" points="87.66 42.84 87.84 43.02 87.48 43.02"/>
            <polyline class="cls-16" points="87.3 43.02 87.48 43.2 87.12 43.2"/>
            <line class="cls-16" x1="87.12" y1="43.38" x2="86.94" y2="43.38"/>
            <line class="cls-16" x1="87.12" y1="43.38" x2="87.3" y2="43.38"/>
            <line class="cls-16" x1="86.94" y1="43.56" x2="86.76" y2="43.56"/>
            <line class="cls-16" x1="86.94" y1="43.56" x2="87.12" y2="43.56"/>
            <line class="cls-16" x1="86.94" y1="43.92" x2="86.58" y2="43.74"/>
            <line class="cls-16" x1="86.76" y1="43.74" x2="86.58" y2="43.74"/>
            <line class="cls-16" x1="86.76" y1="43.74" x2="86.94" y2="43.74"/>
            <line class="cls-16" x1="86.76" y1="43.92" x2="86.58" y2="43.92"/>
            <polyline class="cls-16" points="117 19.26 113.22 23.04 95.22 41.04 91.44 44.82"/>
            <path class="cls-9" d="M73.42,26.63c-.3.3-.42.75-.29,1.16"/>
            <line class="cls-16" x1="73.08" y1="27.9" x2="74.16" y2="31.32"/>
            <line class="cls-16" x1="90.36" y1="45" x2="86.76" y2="43.92"/>
            <line class="cls-16" x1="117.36" y1="18" x2="116.28" y2="14.58"/>
            <path class="cls-18" d="M90.29,45.13s.03.01.04.01c.1.03.19.04.3.04.3,0,.6-.12.83-.34"/>
            <path class="cls-9" d="M117.02,19.28c.3-.3.41-.75.29-1.16"/>
            <polyline class="cls-16" points="153 66.42 151.41 67.84 151.38 67.86"/>
            <line class="cls-16" x1="140.22" y1="79.2" x2="138.6" y2="80.64"/>
            <line class="cls-16" x1="150.84" y1="58.5" x2="147.24" y2="61.92"/>
            <polyline class="cls-16" points="134.28 75.06 130.68 78.48 128.88 76.68"/>
            <polyline class="cls-16" points="150.84 58.5 148.95 56.61 148.86 56.52"/>
            <polyline class="cls-16" points="138.6 80.64 132.66 79.02 130.68 78.48"/>
            <polyline class="cls-16" points="153 66.42 151.11 59.51 150.84 58.5"/>
            <polyline class="cls-16" points="83.7 121.68 80.47 125.05 79.38 126.18 75.24 130.32 63.54 142.02 62.28 143.28 57.06 148.5"/>
            <polyline class="cls-16" points="154.08 51.48 153.81 51.75 153.54 52.02 152.1 53.46 151.41 54.15 148.95 56.61 145.8 59.76 145.44 60.12 132.48 73.08 128.88 76.68 122.4 82.98 84.53 120.85 83.7 121.68"/>
            <polyline class="cls-16" points="98.46 59.04 104.2 53.14 104.76 52.56 108.28 49.07 108.29 49.07 121.41 36.09 121.68 35.82 128.16 29.34 129.42 27.9 130.14 27.36"/>
            <polyline class="cls-16" points="33.12 124.38 38.18 119.18 39.42 117.9 51.28 106.18 55.26 102.24 59.76 97.74 67.95 89.55 72.91 84.59 98.46 59.04 98.46 60.13 98.46 60.3 105.48 53.28 122.22 36.36 129.24 29.34 128.16 29.34"/>
            <line class="cls-16" x1="129.24" y1="29.34" x2="130.68" y2="28.08"/>
            <polyline class="cls-16" points="130.14 27.36 131.22 27.36 130.68 28.08"/>
            <polyline class="cls-16" points="33.12 124.38 33.12 125.64 40.14 118.62 55.8 102.78 60.84 97.92 98.46 60.13 100.44 58.14"/>
            <polyline class="cls-16" points="123.3 81 121.32 82.98 83.52 120.78"/>
            <polygon class="cls-16" points="100.44 81 102.06 82.62 103.14 84.6 103.86 86.76 104.22 88.92 104.4 91.26 103.86 93.42 102.96 95.76 101.52 97.92 99.72 99.72 97.38 101.16 95.04 101.88 92.34 102.24 89.82 102.06 87.48 101.16 85.14 100.08 83.16 98.46 81.72 96.66 80.46 94.68 79.74 92.7 79.38 90.36 79.38 88.2 79.74 85.86 80.64 83.7 82.08 81.54 83.88 79.56 86.22 78.3 88.74 77.4 91.26 77.22 93.78 77.4 96.3 78.12 98.46 79.38 100.44 81"/>
            <polygon class="cls-16" points="99.9 81.72 101.34 83.34 102.24 85.32 102.96 87.48 103.14 89.64 102.96 91.8 102.24 93.96 101.16 95.94 99.9 97.74 98.1 99.18 96.12 100.08 93.96 100.8 91.8 100.98 89.64 100.8 87.48 100.08 85.5 99.18 83.88 97.74 82.44 95.94 81.36 93.96 80.64 91.8 80.46 89.64 80.64 87.48 81.36 85.32 82.44 83.34 83.88 81.72 85.5 80.28 87.48 79.2 89.64 78.48 91.8 78.3 93.96 78.48 96.12 79.2 98.1 80.28 99.9 81.72"/>
            <polyline class="cls-16" points="83.52 120.78 78.66 125.64 63 141.48 55.98 148.5 33.12 125.64"/>
            <line class="cls-16" x1="57.06" y1="148.5" x2="55.98" y2="148.5"/>
            <polyline class="cls-16" points="154.08 51.48 154.08 50.22 153.54 50.94 152.1 52.2 152.1 53.46"/>
            <polyline class="cls-16" points="152.1 52.2 145.08 59.22 128.34 76.14 121.32 82.98 122.4 82.98"/>
            <line class="cls-16" x1="121.32" y1="82.98" x2="98.46" y2="60.3"/>
            <line class="cls-16" x1="152.1" y1="52.2" x2="129.24" y2="29.34"/>
            <line class="cls-16" x1="154.08" y1="50.22" x2="131.22" y2="27.36"/>
            <polyline class="cls-16" points="132.12 93.42 132.12 94.68 90.54 136.26 83.52 143.28 74.34 152.46 67.32 159.48 67.32 158.22 73.8 151.74 75.91 149.67 81.82 143.87 82.98 142.74 89.28 136.26 89.64 135.9 96.76 128.78 132.12 93.42 138.6 87.12 144.25 81.39 151.92 73.62 153.54 72.05 155.88 69.77 158.4 67.32 159.48 67.32"/>
            <polyline class="cls-16" points="132.12 94.68 139.14 87.66 152.64 74.16 159.48 67.32"/>
            <polyline class="cls-16" points="159.48 67.32 174.42 82.08 167.4 89.1"/>
            <polyline class="cls-16" points="82.26 174.24 79.56 171.72 69.84 162 67.32 159.48"/>
            <polyline class="cls-16" points="69.84 162 70.92 162.72 72.36 163.62 73.98 164.88 75.42 166.14 76.86 167.76 77.94 169.2 78.84 170.64 79.56 171.72"/>
            <polyline class="cls-16" points="94.32 162.18 89.28 167.22 82.26 174.24"/>
            <polyline class="cls-16" points="134.46 97.2 92.88 138.6 88.88 142.7 86.04 145.62 81.9 149.76"/>
            <polyline class="cls-16" points="132.12 94.68 146.88 109.62 153.9 102.6 167.4 89.1"/>
            <polyline class="cls-16" points="167.94 89.64 155.87 101.87 154.62 103.14"/>
            <polyline class="cls-16" points="83.34 174.24 89.82 167.94 95.04 162.72 101.34 156.24 121.68 135.9 130.61 126.97 144.9 112.68 146.81 110.87 148.14 109.62"/>
            <line class="cls-16" x1="174.42" y1="83.34" x2="167.94" y2="89.64"/>
            <line class="cls-16" x1="154.62" y1="103.14" x2="148.14" y2="109.62"/>
            <polyline class="cls-16" points="94.32 162.18 101.34 155.16 144 112.5 146.88 109.62"/>
            <line class="cls-16" x1="83.34" y1="174.24" x2="82.26" y2="174.24"/>
            <line class="cls-16" x1="174.42" y1="83.34" x2="174.42" y2="82.08"/>
            <polyline class="cls-16" points="95.4 149.04 93.96 147.6 92.52 146.34"/>
            <polyline class="cls-16" points="89.28 136.26 90.54 136.26 92.88 138.6"/>
            <line class="cls-16" x1="148.14" y1="109.62" x2="146.88" y2="109.62"/>
            <line class="cls-16" x1="101.34" y1="156.24" x2="101.34" y2="155.16"/>
            <polyline class="cls-16" points="88.92 142.74 91.93 145.75 92.52 146.34"/>
            <polyline class="cls-16" points="95.4 149.04 95.88 149.54 101.34 155.16"/>
            <line class="cls-16" x1="146.88" y1="109.62" x2="134.46" y2="97.2"/>
            <line class="cls-16" x1="93.78" y1="145.8" x2="95.76" y2="147.78"/>
            <path class="cls-9" d="M93.74,145.84c-.48-.48-1.24-.53-1.78-.12"/>
            <path class="cls-12" d="M95.84,149.6s.03-.04.04-.06c.37-.53.3-1.26-.16-1.72"/>
            <path class="cls-16" d="M91.89,79.74c-5.52,0-9.99,4.47-9.99,9.99s4.47,9.99,9.99,9.99,9.99-4.47,9.99-9.98-4.47-10-9.99-10Z"/>
            <polygon class="cls-16" points="94.32 93.96 89.28 93.96 86.94 89.64 89.28 85.5 94.32 85.5 96.66 89.64 94.32 93.96"/>
          </g>
        </g>
      </g>
      <g>
        <rect class="cls-3" x="86.53" y="110.46" width="72" height="19.71" transform="translate(-49.19 121.88) rotate(-45)"/>
        <rect class="cls-2" x="81.58" y="112.51" width="72" height="5.72" transform="translate(-47.14 116.93) rotate(-45)"/>
      </g>
    </g>
  </g>
</svg>