<?xml version="1.0" encoding="UTF-8"?>
<svg id="Layer_2" data-name="Layer 2" xmlns="http://www.w3.org/2000/svg" width="31.509mm" height="31.509mm" viewBox="0 0 89.31684 89.31684">
  <defs>
    <style>
      .cls-1, .cls-2, .cls-3 {
        fill: none;
      }

      .cls-1, .cls-4 {
        stroke: #010101;
        stroke-width: .54px;
      }

      .cls-2 {
        stroke-width: 1.08px;
      }

      .cls-2, .cls-3 {
        stroke: #000;
        stroke-linecap: round;
        stroke-linejoin: round;
      }

      .cls-3 {
        stroke-width: 1.44px;
      }

      .cls-4 {
        fill: #c5d2db;
      }

      .cls-5 {
        fill: #bdbec0;
      }
    </style>
  </defs>
  <g id="Optical_elements" data-name="Optical elements">
    <g id="Cube_1_" data-name="Cube 1&amp;apos;&amp;apos;">
      <g>
        <polygon class="cls-5" points="88.59684 74.66316 88.59684 79.34579 79.32947 88.59684 9.97105 88.59684 .72 79.34579 .72 9.98737 9.97105 .72 79.32947 .72 88.59684 9.98737 88.59684 74.04316 88.59684 74.66316"/>
        <g>
          <line class="cls-3" x1="79.32947" y1=".72" x2="88.59684" y2="9.98737"/>
          <line class="cls-3" x1="88.59684" y1="79.34579" x2="79.32947" y2="88.59684"/>
          <line class="cls-3" x1=".72" y1="9.98737" x2="9.97105" y2=".72"/>
          <line class="cls-3" x1="9.97105" y1="88.59684" x2=".72" y2="79.34579"/>
          <line class="cls-3" x1="9.97105" y1=".72" x2="79.32947" y2=".72"/>
          <line class="cls-3" x1="79.32947" y1="88.59684" x2="9.97105" y2="88.59684"/>
          <line class="cls-3" x1="88.59684" y1="74.66316" x2="88.59684" y2="79.34579"/>
          <polyline class="cls-3" points="88.59684 9.98737 88.59684 74.04316 88.59684 74.66316"/>
          <line class="cls-3" x1=".72" y1="79.34579" x2=".72" y2="9.98737"/>
          <polyline class="cls-2" points="44.65842 42.30895 45.49053 42.43947 46.04526 42.76579"/>
          <polyline class="cls-2" points="46.55105 43.27158 46.69789 43.45105 46.97526 44.25053 46.97526 45.08263 46.69789 45.86579 46.55105 46.04526"/>
          <polyline class="cls-2" points="46.04526 46.55105 45.49053 46.87737 44.65842 47.02421 43.87526 46.87737 43.27158 46.55105"/>
          <polyline class="cls-2" points="42.76579 46.04526 42.61895 45.86579 42.34158 45.08263 42.34158 44.25053 42.61895 43.45105 42.76579 43.27158"/>
          <polyline class="cls-2" points="43.27158 42.76579 43.87526 42.43947 44.65842 42.30895"/>
        </g>
      </g>
      <g>
        <rect class="cls-4" x="8.65611" y="8.65962" width="72" height="72"/>
        <line class="cls-1" x1="8.65611" y1="8.65962" x2="80.65611" y2="80.65962"/>
      </g>
    </g>
  </g>
</svg>