<?xml version="1.0" encoding="UTF-8"?>
<svg id="Layer_1" xmlns="http://www.w3.org/2000/svg" xmlns:xlink="http://www.w3.org/1999/xlink" version="1.1" viewBox="0 0 341.57 341.57">
  <!-- Generator: Adobe Illustrator 29.7.1, SVG Export Plug-In . SVG Version: 2.1.1 Build 8)  -->
  <defs>
    <style>
      .st0 {
        mask: url(#mask);
      }

      .st1 {
        fill: #f7efe3;
        stroke: #ef3f3f;
      }

      .st1, .st2, .st3, .st4, .st5, .st6, .st7, .st8, .st9, .st10, .st11 {
        stroke-linecap: round;
        stroke-linejoin: round;
      }

      .st1, .st2, .st4, .st5, .st7, .st8, .st9, .st10 {
        stroke-width: 1.42px;
      }

      .st2 {
        fill: #b3b1b1;
      }

      .st2, .st3, .st4, .st5, .st6, .st7, .st8, .st9, .st10, .st11 {
        stroke: #000;
      }

      .st12 {
        fill: #231f20;
      }

      .st3 {
        stroke-dasharray: 5.94 1.48;
      }

      .st3, .st6, .st11 {
        stroke-width: .71px;
      }

      .st3, .st10, .st11 {
        fill: #fff;
      }

      .st4 {
        fill: #fdb626;
      }

      .st13 {
        filter: url(#luminosity-invert-noclip);
      }

      .st5 {
        fill: #827d7d;
      }

      .st6, .st7 {
        fill: none;
      }

      .st6, .st11 {
        stroke-dasharray: 7.13 1.78;
      }

      .st8 {
        fill: #eab640;
      }

      .st9 {
        fill: #443415;
      }
    </style>
    <filter id="luminosity-invert-noclip" x="0" y="0" width="341.57" height="341.57" color-interpolation-filters="sRGB" filterUnits="userSpaceOnUse">
      <feColorMatrix result="cm" values="-1 0 0 0 1 0 -1 0 0 1 0 0 -1 0 1 0 0 0 1 0"/>
      <feFlood flood-color="#fff" result="bg"/>
      <feBlend in="cm" in2="bg"/>
    </filter>
    <mask id="mask" x="0" y="0" width="341.57" height="341.57" maskUnits="userSpaceOnUse">
      <g class="st13">
        <g>
          <g id="CIRCLE">
            <circle class="st10" cx="29.78" cy="27.9" r="9.35"/>
          </g>
          <g id="CIRCLE1" data-name="CIRCLE">
            <circle class="st10" cx="313.25" cy="27.06" r="9.35"/>
          </g>
          <g id="CIRCLE2" data-name="CIRCLE">
            <circle class="st10" cx="29.78" cy="311.36" r="9.35"/>
          </g>
          <g id="CIRCLE3" data-name="CIRCLE">
            <circle class="st10" cx="313.11" cy="311.36" r="9.35"/>
          </g>
          <g id="CIRCLE4" data-name="CIRCLE">
            <circle class="st10" cx="313.39" cy="63.33" r="4.82"/>
          </g>
          <g id="CIRCLE5" data-name="CIRCLE">
            <circle class="st10" cx="29.92" cy="134.19" r="4.82"/>
          </g>
          <g id="CIRCLE6" data-name="CIRCLE">
            <circle class="st10" cx="277.95" cy="27.9" r="4.82"/>
          </g>
          <g id="CIRCLE7" data-name="CIRCLE">
            <circle class="st10" cx="29.92" cy="63.33" r="4.82"/>
          </g>
          <g id="CIRCLE8" data-name="CIRCLE">
            <circle class="st10" cx="29.92" cy="205.06" r="4.82"/>
          </g>
          <g id="CIRCLE9" data-name="CIRCLE">
            <circle class="st10" cx="313.39" cy="275.93" r="4.82"/>
          </g>
          <g id="CIRCLE10" data-name="CIRCLE">
            <circle class="st10" cx="277.95" cy="311.36" r="4.82"/>
          </g>
          <g id="CIRCLE11" data-name="CIRCLE">
            <circle class="st10" cx="29.92" cy="275.93" r="4.82"/>
          </g>
        </g>
      </g>
    </mask>
  </defs>
  <g class="st0">
    <g>
      <rect class="st2" x=".71" y=".71" width="340.16" height="340.16"/>
      <rect class="st8" x="170.79" y="106.3" width="170.08" height="127.56"/>
      <g id="CIRCLE12" data-name="CIRCLE">
        <circle class="st7" cx="313.39" cy="275.93" r="9.21"/>
      </g>
      <g id="CIRCLE13" data-name="CIRCLE">
        <circle class="st7" cx="29.92" cy="205.06" r="9.21"/>
      </g>
      <g id="CIRCLE14" data-name="CIRCLE">
        <circle class="st7" cx="29.92" cy="63.33" r="9.21"/>
      </g>
      <g id="CIRCLE15" data-name="CIRCLE">
        <circle class="st7" cx="313.39" cy="63.33" r="9.21"/>
      </g>
      <g id="CIRCLE16" data-name="CIRCLE">
        <circle class="st7" cx="277.95" cy="27.9" r="9.21"/>
      </g>
      <g id="CIRCLE17" data-name="CIRCLE">
        <circle class="st7" cx="29.92" cy="134.19" r="9.21"/>
      </g>
      <g id="CIRCLE18" data-name="CIRCLE">
        <circle class="st7" cx="29.92" cy="275.93" r="9.21"/>
      </g>
      <g id="CIRCLE19" data-name="CIRCLE">
        <circle class="st7" cx="277.95" cy="311.36" r="9.21"/>
      </g>
      <g id="CIRCLE20" data-name="CIRCLE">
        <circle class="st10" cx="171.65" cy="311.36" r="4.59"/>
      </g>
      <g id="CIRCLE21" data-name="CIRCLE">
        <circle class="st7" cx="29.92" cy="310.94" r="4.59"/>
      </g>
      <g id="CIRCLE22" data-name="CIRCLE">
        <circle class="st10" cx="126.3" cy="19.39" r="4.59"/>
      </g>
      <g id="CIRCLE23" data-name="CIRCLE">
        <circle class="st7" cx="29.92" cy="98.76" r="4.59"/>
      </g>
      <g id="CIRCLE24" data-name="CIRCLE">
        <circle class="st10" cx="29.92" cy="240.49" r="4.59"/>
      </g>
      <g id="CIRCLE25" data-name="CIRCLE">
        <circle class="st10" cx="242.52" cy="311.36" r="4.59"/>
      </g>
      <g id="CIRCLE26" data-name="CIRCLE">
        <circle class="st10" cx="83.07" cy="288.68" r="3.49"/>
      </g>
      <g id="CIRCLE27" data-name="CIRCLE">
        <circle class="st10" cx="267.32" cy="288.68" r="3.49"/>
      </g>
      <g id="CIRCLE28" data-name="CIRCLE">
        <circle class="st10" cx="83.07" cy="19.39" r="3.49"/>
      </g>
      <g id="CIRCLE29" data-name="CIRCLE">
        <circle class="st10" cx="327.26" cy="124.98" r="2.85"/>
      </g>
      <g id="CIRCLE30" data-name="CIRCLE">
        <circle class="st10" cx="184.39" cy="214.27" r="2.85"/>
      </g>
      <g id="CIRCLE31" data-name="CIRCLE">
        <circle class="st10" cx="184.39" cy="124.98" r="2.85"/>
      </g>
      <g id="CIRCLE32" data-name="CIRCLE">
        <circle class="st10" cx="327.26" cy="214.27" r="2.85"/>
      </g>
      <g id="CIRCLE33" data-name="CIRCLE">
        <circle class="st5" cx="29.92" cy="27.9" r="15.59"/>
      </g>
      <g id="CIRCLE34" data-name="CIRCLE">
        <circle class="st11" cx="171.65" cy="311.36" r="5.67"/>
      </g>
      <g id="CIRCLE35" data-name="CIRCLE">
        <circle class="st6" cx="29.92" cy="310.94" r="5.67"/>
      </g>
      <g id="CIRCLE36" data-name="CIRCLE">
        <circle class="st11" cx="126.3" cy="19.39" r="5.67"/>
      </g>
      <g id="CIRCLE37" data-name="CIRCLE">
        <circle class="st11" cx="29.92" cy="98.76" r="5.67"/>
      </g>
      <g id="CIRCLE38" data-name="CIRCLE">
        <circle class="st11" cx="29.92" cy="240.49" r="5.67"/>
      </g>
      <g id="CIRCLE39" data-name="CIRCLE">
        <circle class="st11" cx="242.52" cy="311.36" r="5.67"/>
      </g>
      <g id="CIRCLE40" data-name="CIRCLE">
        <circle class="st11" cx="83.07" cy="288.68" r="4.25"/>
      </g>
      <g id="CIRCLE41" data-name="CIRCLE">
        <circle class="st11" cx="267.32" cy="288.68" r="4.25"/>
      </g>
      <g id="CIRCLE42" data-name="CIRCLE">
        <circle class="st11" cx="83.07" cy="19.39" r="4.25"/>
      </g>
      <g id="CIRCLE43" data-name="CIRCLE">
        <circle class="st3" cx="327.26" cy="124.98" r="3.54"/>
      </g>
      <g id="CIRCLE44" data-name="CIRCLE">
        <circle class="st3" cx="184.39" cy="214.27" r="3.54"/>
      </g>
      <g id="CIRCLE45" data-name="CIRCLE">
        <circle class="st3" cx="184.39" cy="124.98" r="3.54"/>
      </g>
      <g id="CIRCLE46" data-name="CIRCLE">
        <circle class="st3" cx="327.26" cy="214.27" r="3.54"/>
      </g>
      <g id="CIRCLE47" data-name="CIRCLE">
        <circle class="st5" cx="313.39" cy="27.06" r="15.59"/>
      </g>
      <g id="CIRCLE48" data-name="CIRCLE">
        <circle class="st5" cx="29.92" cy="311.36" r="15.59"/>
      </g>
      <g id="CIRCLE49" data-name="CIRCLE">
        <circle class="st5" cx="313.25" cy="311.36" r="15.59"/>
      </g>
      <rect class="st9" x="204.57" y="134.19" width="110.14" height="9.21"/>
      <rect class="st9" x="204.57" y="201.24" width="110.14" height="9.21"/>
      <rect class="st4" x="222.14" y="156.78" width="81.17" height="31.08"/>
      <rect class="st1" x="232.41" y="162.39" width="59.48" height="19.3"/>
      <g>
        <path class="st12" d="M237.15,175.09v-6.39h1.3v5.3h3.23v1.09h-4.54Z"/>
        <path class="st12" d="M243.53,171.84l-1.12-.2c.13-.45.34-.79.65-1s.76-.33,1.37-.33c.55,0,.96.07,1.23.2.27.13.46.3.57.5.11.2.16.57.16,1.1v1.44c-.01.41,0,.71.05.91.04.19.11.4.22.63h-1.22c-.03-.08-.07-.2-.12-.37-.02-.07-.04-.12-.04-.14-.21.21-.44.36-.68.46s-.5.15-.77.15c-.48,0-.86-.13-1.14-.39-.28-.26-.42-.59-.42-.99,0-.26.06-.5.19-.71.13-.21.3-.37.53-.47.23-.11.55-.21.98-.29.58-.11.98-.21,1.2-.3v-.12c0-.24-.06-.41-.18-.51-.12-.1-.34-.15-.66-.15-.22,0-.39.04-.51.13-.12.09-.22.24-.3.46ZM245.18,172.85c-.16.05-.41.12-.75.19s-.57.15-.67.22c-.16.11-.24.26-.24.43s.06.32.19.45.29.19.49.19c.22,0,.43-.07.64-.22.15-.11.25-.25.29-.41.03-.11.05-.31.05-.6v-.25Z"/>
        <path class="st12" d="M247.18,173.75l1.24-.19c.05.24.16.42.32.55.16.12.39.19.68.19.32,0,.56-.06.72-.18.11-.08.16-.19.16-.33,0-.09-.03-.17-.09-.23-.06-.06-.2-.11-.41-.16-1-.22-1.63-.42-1.89-.6-.37-.25-.55-.6-.55-1.05,0-.4.16-.74.48-1.02s.81-.41,1.49-.41,1.11.1,1.42.31.52.52.64.92l-1.16.22c-.05-.18-.14-.32-.28-.42-.14-.1-.34-.14-.59-.14-.33,0-.56.04-.7.14-.09.06-.14.15-.14.25,0,.09.04.16.12.22.11.08.5.2,1.15.35.66.15,1.12.33,1.38.55.26.22.39.53.39.92,0,.43-.18.79-.54,1.1s-.89.46-1.59.46c-.64,0-1.14-.13-1.51-.39-.37-.26-.61-.61-.73-1.05Z"/>
        <path class="st12" d="M255.32,173.6l1.23.21c-.16.45-.41.79-.75,1.03-.34.24-.77.35-1.28.35-.81,0-1.41-.27-1.8-.8-.31-.42-.46-.96-.46-1.61,0-.77.2-1.38.61-1.82.4-.44.92-.66,1.53-.66.69,0,1.24.23,1.64.69.4.46.59,1.16.58,2.11h-3.09c0,.37.11.65.3.85.19.2.43.31.71.31.19,0,.36-.05.49-.16s.23-.28.3-.51ZM255.39,172.35c0-.36-.1-.63-.28-.82-.18-.19-.39-.28-.64-.28-.27,0-.49.1-.67.29s-.26.46-.26.8h1.85Z"/>
        <path class="st12" d="M258.81,175.09h-1.23v-4.67h1.15v.66c.2-.31.37-.52.53-.62.16-.1.33-.15.53-.15.28,0,.55.08.81.23l-.38,1.08c-.21-.13-.4-.2-.58-.2s-.32.05-.44.14c-.12.1-.21.27-.28.52-.07.25-.1.77-.1,1.56v1.44Z"/>
        <path class="st12" d="M263.63,168.64h2.38c.54,0,.95.04,1.23.12.38.11.7.31.97.59s.47.63.62,1.04c.14.41.21.92.21,1.52,0,.53-.07.99-.2,1.37-.16.47-.39.85-.69,1.14-.23.22-.53.39-.91.51-.29.09-.67.14-1.15.14h-2.45v-6.44ZM264.93,169.73v4.27h.97c.36,0,.63-.02.79-.06.21-.05.39-.14.53-.27.14-.13.25-.33.34-.62.09-.29.13-.68.13-1.18s-.04-.88-.13-1.15-.21-.47-.37-.62-.36-.25-.6-.3c-.18-.04-.54-.06-1.07-.06h-.58Z"/>
        <path class="st12" d="M270.13,169.79v-1.14h1.23v1.14h-1.23ZM270.13,175.09v-4.67h1.23v4.67h-1.23Z"/>
        <path class="st12" d="M272.34,172.69c0-.41.1-.81.3-1.19.2-.38.49-.68.86-.88.37-.2.78-.3,1.24-.3.71,0,1.29.23,1.74.69.45.46.68,1.04.68,1.74s-.23,1.29-.68,1.76c-.46.46-1.03.7-1.72.7-.43,0-.84-.1-1.22-.29-.39-.19-.68-.48-.88-.85-.2-.37-.3-.83-.3-1.36ZM273.61,172.75c0,.46.11.82.33,1.06.22.25.49.37.81.37s.59-.12.81-.37c.22-.25.33-.6.33-1.07s-.11-.81-.33-1.05c-.22-.25-.49-.37-.81-.37s-.59.12-.81.37c-.22.25-.33.6-.33,1.06Z"/>
        <path class="st12" d="M282.4,175.09h-1.15v-.69c-.19.27-.42.46-.67.6-.26.13-.52.2-.78.2-.54,0-1-.22-1.38-.65-.38-.43-.57-1.04-.57-1.81s.19-1.39.56-1.8c.37-.41.84-.62,1.41-.62.52,0,.97.22,1.35.65v-2.32h1.23v6.44ZM279.11,172.65c0,.5.07.86.21,1.08.2.32.48.48.83.48.28,0,.53-.12.72-.36.2-.24.3-.6.3-1.08,0-.54-.1-.92-.29-1.16-.19-.24-.44-.35-.74-.35s-.54.12-.74.35c-.2.23-.3.58-.3,1.04Z"/>
        <path class="st12" d="M286.33,173.6l1.23.21c-.16.45-.41.79-.75,1.03-.34.24-.77.35-1.28.35-.81,0-1.41-.27-1.8-.8-.31-.42-.46-.96-.46-1.61,0-.77.2-1.38.61-1.82.4-.44.92-.66,1.53-.66.69,0,1.24.23,1.64.69.4.46.59,1.16.58,2.11h-3.09c0,.37.11.65.3.85.19.2.43.31.71.31.19,0,.36-.05.49-.16s.23-.28.3-.51ZM286.4,172.35c0-.36-.1-.63-.28-.82-.18-.19-.39-.28-.64-.28-.27,0-.49.1-.67.29s-.26.46-.26.8h1.85Z"/>
      </g>
      <g id="CIRCLE50" data-name="CIRCLE">
        <circle class="st7" cx="29.92" cy="311.36" r="15.59"/>
      </g>
    </g>
  </g>
</svg>