<?xml version="1.0" encoding="UTF-8"?>
<svg id="Layer_2" data-name="Layer 2" xmlns="http://www.w3.org/2000/svg" viewBox="0 0 142.53 179.84">
  <defs>
    <style>
      .cls-1 {
        fill: #c0c0c7;
      }

      .cls-2 {
        stroke: #010101;
        stroke-width: .51px;
      }

      .cls-2, .cls-3 {
        fill: none;
        stroke-linecap: round;
        stroke-linejoin: round;
      }

      .cls-4 {
        fill: #ffd985;
      }

      .cls-5 {
        fill: #5c5b6f;
      }

      .cls-3 {
        stroke: #000;
        stroke-width: 1.44px;
      }

      .cls-6 {
        fill: #333;
      }
    </style>
  </defs>
  <g id="Optical_elements" data-name="Optical elements">
    <g id="SM1Z_-_Z-translation_mount" data-name="SM1Z  - Z-translation mount">
      <g>
        <polygon class="cls-6" points="135.08 .25 139.37 .25 139.37 .37 139.37 .6 139.37 .83 139.37 1.29 139.37 1.75 139.37 2.43 139.37 3.12 139.37 3.93 139.37 4.84 139.37 5.88 139.37 7.02 139.37 8.17 139.37 9.43 139.37 10.81 139.37 12.3 139.37 13.79 139.37 15.28 139.37 16.89 139.37 18.61 139.37 20.22 139.37 21.94 139.37 23.77 139.37 25.5 139.37 27.33 139.37 29.05 139.37 30.89 139.37 32.61 139.37 34.44 139.37 36.17 139.37 37.89 139.37 39.49 139.37 41.21 139.37 42.82 139.37 44.31 139.37 45.8 139.37 47.18 139.37 48.56 139.37 49.7 139.37 50.97 139.37 52 139.37 53.03 139.37 53.95 139.37 54.75 139.37 55.44 139.37 56.01 139.37 56.47 139.37 56.82 139.37 57.05 139.37 57.28 135.08 57.28 135.08 57.05 135.08 56.82 135.08 56.47 135.08 56.01 135.08 55.44 135.08 54.75 135.08 53.95 135.08 53.61 135.08 53.03 135.08 52 135.08 50.97 135.08 49.7 135.08 48.56 135.08 48.33 135.08 47.18 135.08 45.8 135.08 45.11 135.08 44.31 135.08 42.82 135.08 41.21 135.08 39.49 135.08 37.89 135.08 37.43 135.08 36.17 135.08 34.44 135.08 33.41 135.08 32.61 135.08 30.89 135.08 29.05 135.08 27.33 135.08 25.5 135.08 24.69 135.08 23.77 135.08 21.94 135.08 20.79 135.08 20.22 135.08 18.61 135.08 16.89 135.08 15.28 135.08 13.79 135.08 12.88 135.08 12.3 135.08 10.81 135.08 9.66 135.08 9.43 135.08 8.17 135.08 7.02 135.08 5.88 135.08 4.84 135.08 4.16 135.08 3.93 135.08 3.12 135.08 2.43 135.08 1.75 135.08 1.29 135.08 .83 135.08 .6 135.08 .37 135.08 .25"/>
        <polygon class="cls-1" points="139.37 .25 140.87 1.98 140.87 2.09 140.87 2.32 140.87 2.55 140.87 3.01 140.87 3.58 140.87 4.27 140.87 4.96 140.87 5.88 140.87 6.79 140.87 7.83 140.87 8.97 140.87 10.12 140.87 11.5 140.87 12.76 140.87 14.25 140.87 15.74 140.87 17.24 140.87 18.84 140.87 19.07 140.87 20.45 140.87 22.17 140.87 23.89 140.87 25.61 140.87 27.33 140.87 29.05 140.87 30.77 140.87 32.49 140.87 34.22 140.87 35.94 140.87 37.54 140.87 38.46 140.87 39.26 140.87 40.76 140.87 42.36 140.87 43.74 140.87 45.23 140.87 46.49 140.87 47.75 140.87 49.02 140.87 50.05 140.87 51.08 140.87 52 140.87 52.8 140.87 53.61 140.87 54.18 140.87 54.75 140.87 55.1 140.87 55.44 140.87 55.56 140.87 55.67 139.37 57.28 139.37 57.05 139.37 56.82 139.37 56.47 139.37 56.01 139.37 55.44 139.37 54.75 139.37 53.95 139.37 53.03 139.37 52 139.37 50.97 139.37 49.7 139.37 48.56 139.37 47.18 139.37 45.8 139.37 44.31 139.37 42.82 139.37 41.21 139.37 39.49 139.37 37.89 139.37 36.17 139.37 34.44 139.37 32.61 139.37 30.89 139.37 29.05 139.37 27.33 139.37 25.5 139.37 23.77 139.37 21.94 139.37 20.22 139.37 18.61 139.37 16.89 139.37 15.28 139.37 13.79 139.37 12.3 139.37 10.81 139.37 9.43 139.37 8.17 139.37 7.02 139.37 5.88 139.37 4.84 139.37 3.93 139.37 3.12 139.37 2.43 139.37 1.75 139.37 1.29 139.37 .83 139.37 .6 139.37 .37 139.37 .25"/>
        <polygon class="cls-6" points="112.39 .37 135.08 .37 135.08 .6 135.08 .83 135.08 1.29 135.08 1.75 135.08 2.43 112.39 2.43 112.09 2.55 111.79 2.55 111.49 2.66 111.19 2.78 110.99 2.78 110.89 2.78 110.49 2.89 110.39 2.89 110.29 2.89 110.19 2.89 109.99 2.89 109.99 2.78 109.89 2.66 109.89 2.55 109.99 2.32 110.19 2.21 110.49 1.86 110.89 1.52 111.29 1.29 111.59 .94 111.99 .71 112.39 .37"/>
        <polygon class="cls-1" points="112.39 2.43 135.08 2.43 135.08 3.12 135.08 3.93 135.08 4.16 112.39 4.16 112.39 3.93 112.39 3.7 112.39 3.47 112.39 3.24 112.39 3.01 112.39 2.78 112.39 2.55 112.39 2.43"/>
        <polygon class="cls-1" points="112.09 2.55 112.39 2.43 112.39 2.55 112.39 2.78 112.39 3.01 112.39 3.24 112.39 3.47 112.39 3.7 112.39 3.93 112.39 4.16 111.59 4.96 111.39 5.3 110.89 5.76 110.49 6.34 110.19 6.91 109.99 7.25 109.89 7.71 109.89 7.02 109.89 6.22 109.89 5.42 109.89 4.73 109.89 4.04 109.89 3.58 109.89 3.12 109.89 2.66 109.99 2.78 109.99 2.89 110.19 2.89 110.29 2.89 110.39 2.89 110.49 2.89 110.89 2.78 110.99 2.78 111.19 2.78 111.49 2.66 111.79 2.55 112.09 2.55"/>
        <path class="cls-6" d="M93,3.58h16.89v50.37h-16.89v-.8h2.4v.46h.7v-.46h.7v-.23h-.7v-1.38h-.7l-1.2.69-1.2.69v-8.03h2.4v1.38h.7v-1.38h.7v-.57h-.7v-3.44h-.7l-1.2,1.61-1.2,1.61V3.58ZM99.4,4.04h-1l-.4.11h-.2l-.2.11h-.1l-.1.11-.1.11-.1.11-.1.23v.34l.1.23.1.23.1.23.1.11.1.11.4.11.4.11h1l.5-.11.3-.11.1-.11.1-.11.2-.23v-.23l.1-.23v-.34l-.1-.23v-.11l-.2-.11-.1-.11h-.1l-.2-.11h-.1l-.5-.11ZM95.4,4.16h-.6l-.1.11h-1v.23h1.1v1.49h-1.1v.34h2.7v-.34h-1v-1.84ZM98.6,11.73h-3v2.64l1-.11.5.11h.3l.2.11.1.23.1.11.1.46v.57l-.1.23-.2.11-.2.23-.2.11h-.4l-.7-.11-.7-.34v.8l.7.23.7.11.7-.11.4-.23.3-.23.3-.57.1-.8-.1-.69-.2-.34-.2-.23-.3-.23-.3-.11h-1.3v-1.38h2.4v-.57ZM97.4,25.61h-1l-.4.23-.2.23-.2.23-.1.23-.1.23-.1.57-.1.57v.57l-.1.57.1.57v.57l.1.57.1.46.1.34.2.23.3.34.4.23.3.11h.5l.2-.11.5-.23.3-.34.1-.23.1-.34.2-.46.1-.57v-2.29l-.1-.57-.2-.57-.1-.23-.1-.23-.1-.23-.2-.23-.5-.23ZM100.6,40.87h-3v2.87l1-.11.5.11h.3l.2.11.1.23.1.23.1.34-.1.46-.1.23-.1.11-.2.23h-.2l-.4.11-.8-.11-.6-.34h-.1v.69l.8.23.7.11.7-.11.4-.23.2-.11.4-.57.1-.69-.1-.69-.2-.34-.2-.23-.3-.23h-.3l-.7-.11h-.6v-1.49h2.4v-.69ZM99.4,51.43h-1l-.4.11-.2.11-.2.11-.1.11-.1.11-.1.11-.1.23-.1.23v.34l.1.11.1.23.1.11h.1l.1.11h.4l.4.11h1l.5-.11h.3l.1-.11h.1l.2-.11v-.23l.1-.11v-.34l-.1-.23v-.23l-.2-.11-.1-.11-.1-.11-.2-.11-.1-.11-.5-.11Z"/>
        <polygon class="cls-6" points="79.71 6.11 93 3.58 93 3.7 93 4.04 93 4.39 93 4.84 93 5.42 93 5.99 93 6.79 93 7.71 93 8.63 93 9.66 93 10.81 93 12.07 93 13.33 93 14.71 93 16.2 93 17.69 93 19.19 93 20.79 93 22.4 93 24 93 25.73 93 27.33 93 29.05 93 30.77 93 32.38 93 34.1 93 35.71 93 37.31 93 38.8 93 40.41 93 41.9 93 43.28 93 44.08 93 44.66 93 44.77 93 44.89 93 45.92 93 47.07 93 48.21 93 49.25 93 50.16 93 50.97 93 51.77 93 52.34 93 52.92 93 53.15 93 53.38 93 53.72 93 53.83 93 53.95 86.59 52.79 79.71 51.43 79.71 51.31 79.71 51.2 88.4 52.8 88.4 52.69 79.71 51.08 79.71 50.97 79.71 50.85 79.71 50.74 79.71 50.62 79.71 50.51 79.77 50.52 88.4 52.11 91.18 52.57 91.2 52.57 91.2 52.46 88.4 52 79.71 50.39 79.71 50.28 79.71 50.16 79.71 50.05 79.71 49.93 79.71 49.82 79.71 49.7 79.71 49.47 88.4 50.97 88.4 50.85 79.71 49.36 79.71 49.25 79.71 49.13 79.71 48.9 79.71 48.79 79.71 48.67 79.71 48.56 79.71 48.33 79.71 48.21 88.4 49.59 88.4 49.36 79.71 47.98 79.71 47.87 79.71 47.64 79.71 47.52 79.71 47.29 79.71 47.07 79.71 46.95 79.71 46.72 79.71 46.61 88.4 47.87 88.4 47.52 79.71 46.26 79.71 46.15 79.71 45.92 79.71 45.69 79.71 45.46 79.71 45.34 79.71 45.11 79.71 44.89 79.71 44.66 88.4 45.8 88.4 45.46 79.71 44.31 79.71 44.08 79.71 43.85 79.71 43.62 79.71 43.39 79.71 43.16 79.71 42.94 79.71 42.71 79.71 42.48 79.79 42.49 88.4 43.51 91.2 43.74 91.2 43.39 88.4 43.16 79.71 42.13 79.71 41.9 79.71 41.67 79.71 41.44 79.71 41.1 79.71 40.87 79.71 40.64 79.71 40.41 79.71 40.07 88.4 40.87 88.4 40.53 79.71 39.72 79.71 39.49 79.71 39.26 79.71 38.92 79.71 38.69 79.71 38.35 79.71 38.12 79.71 37.89 79.71 37.54 88.4 38.12 88.4 37.77 79.71 37.2 79.71 36.85 79.71 36.62 79.71 36.28 79.71 36.05 79.71 35.71 79.71 35.48 79.71 35.13 79.71 34.9 88.4 35.25 88.4 34.9 79.71 34.44 79.71 34.22 79.71 33.87 79.71 33.53 79.71 33.3 79.71 32.95 79.71 32.72 79.71 32.38 79.71 32.04 88.4 32.27 88.4 31.92 79.71 31.69 79.71 31.35 79.71 31 79.71 30.77 79.71 30.43 79.71 30.09 79.71 29.86 79.71 29.51 79.71 29.17 80.81 29.28 91.2 29.28 91.2 28.82 80.81 28.82 79.71 28.82 79.71 28.59 79.71 28.48 79.71 28.25 79.71 27.91 79.71 27.56 79.71 27.33 79.71 26.99 79.71 26.64 79.71 26.41 88.4 26.18 88.4 25.73 79.71 25.95 79.71 25.61 79.71 25.38 79.71 25.04 79.71 24.81 79.71 24.46 79.71 24.12 79.71 23.89 79.71 23.55 88.4 23.2 88.4 22.74 79.71 23.2 79.71 22.86 79.71 22.63 79.71 22.28 79.71 21.94 79.71 21.71 79.71 21.37 79.71 21.14 79.71 20.79 88.4 20.22 88.4 19.87 79.71 20.45 79.71 20.22 79.71 19.87 79.71 19.64 79.71 19.3 79.71 19.07 79.71 18.73 79.71 18.5 79.71 18.27 88.4 17.46 88.4 17.12 79.71 17.81 79.71 17.58 79.71 17.35 79.71 17.12 79.71 16.78 79.71 16.55 79.71 16.32 79.71 16.09 79.71 15.74 88.4 14.83 91.2 14.6 91.2 14.25 88.4 14.48 79.71 15.4 79.71 15.17 79.71 14.94 79.71 14.71 79.71 14.48 79.71 14.25 79.71 14.02 79.71 13.79 79.71 13.56 88.4 12.42 88.4 12.19 79.71 13.22 79.71 12.99 79.71 12.76 79.71 12.65 79.71 12.42 79.71 12.19 79.71 11.96 79.71 11.73 79.71 11.61 88.4 10.35 88.4 10.01 79.71 11.27 79.71 11.15 79.71 10.93 79.71 10.7 79.71 10.58 79.71 10.35 79.71 10.24 79.71 10.01 79.71 9.89 88.4 8.52 88.4 8.29 79.71 9.66 79.71 9.43 79.71 9.32 79.71 9.09 79.71 8.97 79.71 8.86 79.71 8.75 79.71 8.52 79.71 8.4 88.4 6.91 88.4 6.79 79.71 8.29 79.71 8.17 79.71 7.94 79.71 7.83 79.71 7.71 79.71 7.6 79.71 7.48 79.71 7.37 88.4 5.76 91.2 5.3 91.2 5.19 88.4 5.65 79.71 7.14 79.71 7.02 79.71 6.91 79.71 6.79 79.71 6.68 79.71 6.57 88.4 4.96 88.4 4.84 79.71 6.45 79.71 6.34 79.71 6.22 79.71 6.11"/>
        <polygon class="cls-6" points="4.85 4.04 62.42 4.04 62.42 8.29 62.42 11.38 4.85 11.38 4.85 4.04"/>
        <polygon class="cls-6" points="112.39 4.16 135.08 4.16 135.08 4.84 135.08 5.88 135.08 7.02 135.08 8.17 135.08 9.43 135.08 9.66 112.39 9.66 112.09 9.66 111.79 9.55 111.49 9.55 111.19 9.43 110.89 9.32 110.69 9.2 110.49 9.09 110.29 8.86 110.19 8.75 110.09 8.63 109.99 8.52 109.99 8.4 109.89 8.29 109.89 8.17 109.89 7.94 109.89 7.71 109.99 7.25 110.19 6.91 110.49 6.34 110.89 5.76 111.39 5.3 111.59 4.96 112.39 4.16"/>
        <polygon class="cls-6" points="99.2 4.27 99.4 4.27 99.6 4.39 99.8 4.39 99.9 4.5 99.9 4.73 100 4.84 100 4.96 100 5.07 100 5.19 99.9 5.3 99.9 5.42 99.9 5.53 99.8 5.76 99.6 5.88 99.4 5.99 99.2 5.99 98.9 5.99 98.6 5.99 98.4 5.99 98.2 5.88 98.1 5.76 97.9 5.53 97.9 5.42 97.9 5.19 97.9 5.07 97.9 4.96 97.9 4.84 97.9 4.73 97.9 4.5 98.1 4.39 98.2 4.39 98.4 4.27 98.6 4.27 98.9 4.27 99.1 4.27 99.2 4.27"/>
        <polygon class="cls-6" points="64.52 8.29 79.71 8.29 79.71 8.4 79.71 8.52 79.71 8.75 79.71 8.86 79.71 8.97 79.71 9.09 79.71 9.32 79.71 9.43 79.71 9.66 79.71 9.78 79.71 9.89 79.71 10.01 79.71 10.24 79.71 10.35 79.71 10.58 79.71 10.7 79.71 10.93 79.71 11.15 79.71 11.27 79.71 11.38 79.71 11.61 79.71 11.73 79.71 11.96 79.71 12.19 79.71 12.42 79.71 12.65 79.71 12.76 79.71 12.99 79.71 13.22 79.71 13.45 79.71 13.56 79.71 13.79 79.71 14.02 79.71 14.25 79.71 14.48 79.71 14.71 79.71 14.94 79.71 15.17 79.71 15.4 79.71 15.51 79.71 15.63 79.71 15.74 79.71 16.09 79.71 16.32 79.71 16.55 79.71 16.78 79.71 17.12 79.71 17.35 79.71 17.58 79.71 17.81 79.71 17.92 79.71 18.04 79.71 18.27 79.71 18.5 79.71 18.73 79.71 19.07 79.71 19.3 79.71 19.64 79.71 19.87 79.71 20.22 79.71 20.45 79.71 20.68 79.71 20.79 79.71 21.14 79.71 21.37 79.71 21.71 79.71 21.94 79.71 22.28 79.71 22.63 79.71 22.86 79.71 23.2 79.71 23.32 79.71 23.55 79.71 23.89 79.71 24.12 79.71 24.46 79.71 24.81 79.71 25.04 79.71 25.38 79.71 25.61 79.71 25.95 79.71 26.18 79.71 26.41 79.71 26.64 79.71 26.99 79.71 27.33 79.71 27.56 79.71 27.91 79.71 28.25 79.71 28.48 79.71 28.59 64.52 28.59 64.52 27.1 64.52 25.5 64.52 24 64.52 22.63 64.52 21.14 64.52 19.76 64.52 18.38 64.52 17.12 64.52 15.86 64.52 14.71 64.52 13.68 64.52 12.76 64.52 11.84 64.52 11.04 64.52 10.35 64.52 9.66 64.52 9.2 64.52 8.86 64.52 8.52 64.52 8.4 64.52 8.29"/>
        <polygon class="cls-4" points="62.42 8.29 64.52 8.29 64.52 8.4 64.52 8.52 64.52 8.86 64.52 9.2 64.52 9.66 64.52 10.35 64.52 11.04 64.52 11.84 64.52 12.76 64.52 13.68 64.52 14.71 64.52 15.86 64.52 17.12 64.52 18.38 64.52 19.76 64.52 21.14 64.52 22.63 64.52 24 64.52 25.5 64.52 27.1 64.52 28.59 64.52 28.82 64.52 28.94 64.52 30.54 64.52 32.04 64.52 33.53 64.52 35.02 64.52 36.4 64.52 37.77 64.52 39.15 64.52 40.41 64.52 41.67 64.52 42.82 64.52 43.85 64.52 44.89 64.52 45.8 64.52 46.61 64.52 47.29 64.52 47.87 64.52 48.33 64.52 48.79 64.52 49.02 64.52 49.13 64.52 49.25 62.42 49.25 62.42 46.95 62.42 46.72 62.42 46.49 62.42 46.03 62.42 45.57 62.42 44.89 62.42 44.2 62.42 43.39 62.42 42.48 62.42 41.44 62.42 40.41 62.42 39.15 62.42 37.89 62.42 36.62 62.42 35.25 62.42 33.87 62.42 32.38 62.42 30.89 62.42 29.4 62.42 27.91 62.42 26.3 62.42 11.38 62.42 8.29"/>
        <polygon class="cls-1" points="109.89 8.29 109.99 8.4 109.99 8.52 110.09 8.63 110.19 8.75 110.29 8.86 110.49 9.09 110.69 9.2 110.89 9.32 111.19 9.43 111.49 9.55 111.79 9.55 112.09 9.66 112.39 9.66 112.39 10.01 112.39 10.47 112.39 10.81 112.39 11.27 112.39 11.61 112.39 12.07 112.39 12.53 112.39 12.88 111.59 13.68 110.89 14.6 110.49 15.28 110.19 15.86 109.99 16.43 109.89 17.01 109.89 16.09 109.89 14.71 109.89 13.45 109.89 12.3 109.89 11.15 109.89 10.01 109.89 8.97 109.89 8.29"/>
        <polygon class="cls-1" points="112.39 9.66 135.08 9.66 135.08 10.81 135.08 12.3 135.08 12.88 112.39 12.88 112.39 12.53 112.39 12.07 112.39 11.61 112.39 11.27 112.39 10.81 112.39 10.47 112.39 10.01 112.39 9.66"/>
        <rect class="cls-6" x="4.85" y="11.38" width="57.57" height="14.92"/>
        <polygon class="cls-6" points="112.39 12.88 135.08 12.88 135.08 13.79 135.08 15.28 135.08 16.89 135.08 18.61 135.08 20.22 135.08 20.79 112.39 20.79 111.19 19.99 110.69 19.53 110.29 18.84 109.99 18.04 109.89 17.35 109.89 17.01 109.99 16.43 110.19 15.86 110.49 15.28 110.89 14.6 111.59 13.68 112.39 12.88"/>
        <polygon class="cls-1" points="109.89 17.35 109.99 18.04 110.29 18.84 110.69 19.53 111.19 19.99 112.39 20.79 112.39 21.25 112.39 21.71 112.39 22.28 112.39 22.74 112.39 23.2 112.39 23.77 112.39 24.23 112.39 24.69 112.19 24.92 111.79 25.27 111.39 25.61 111.19 25.95 110.99 26.18 110.89 26.3 110.79 26.41 110.59 26.76 110.39 26.99 110.29 27.33 110.19 27.56 110.09 27.79 109.99 28.02 109.99 28.13 109.89 28.48 109.89 27.56 109.89 26.07 109.89 24.58 109.89 23.09 109.89 21.6 109.89 20.22 109.89 18.73 109.89 17.35"/>
        <polygon class="cls-1" points="140.87 19.07 142.27 20.68 142.27 20.79 142.27 21.02 142.27 21.25 142.27 21.71 142.27 22.17 142.27 22.74 142.27 23.43 142.27 24.12 142.27 24.92 142.27 25.84 142.27 26.76 142.27 27.68 142.27 28.59 142.27 29.63 142.27 30.54 142.27 31.46 142.27 32.38 142.27 33.18 142.27 33.87 142.27 34.67 142.27 35.25 142.27 35.82 142.27 36.17 142.27 36.51 142.27 36.74 142.27 36.85 140.87 38.46 140.87 37.54 140.87 35.94 140.87 34.22 140.87 32.49 140.87 30.77 140.87 29.05 140.87 27.33 140.87 25.61 140.87 23.89 140.87 22.17 140.87 20.45 140.87 19.07"/>
        <polygon class="cls-1" points="112.39 20.79 135.08 20.79 135.08 21.94 135.08 23.77 135.08 24.69 112.39 24.69 112.39 24.23 112.39 23.77 112.39 23.2 112.39 22.74 112.39 22.28 112.39 21.71 112.39 21.25 112.39 20.79"/>
        <polygon class="cls-6" points="112.39 24.69 135.08 24.69 135.08 25.5 135.08 27.33 135.08 29.05 135.08 30.89 135.08 32.61 135.08 33.41 112.39 33.41 111.79 32.84 111.19 32.27 110.69 31.58 110.29 30.77 109.99 29.86 109.89 29.05 109.89 28.94 109.89 28.59 109.89 28.48 109.99 28.13 109.99 28.02 110.09 27.79 110.19 27.56 110.29 27.33 110.39 26.99 110.59 26.76 110.79 26.41 110.89 26.3 110.99 26.18 111.19 25.95 111.39 25.61 111.79 25.27 112.19 24.92 112.39 24.69"/>
        <polygon class="cls-6" points="96.9 26.3 97.1 26.3 97.2 26.41 97.5 26.53 97.7 26.76 97.8 26.99 97.9 27.56 98 28.02 98 28.48 98 29.05 98 29.51 98 30.09 97.9 30.54 97.8 31 97.7 31.35 97.5 31.58 97.2 31.69 96.9 31.81 96.6 31.69 96.4 31.58 96.2 31.35 96.1 31 96 30.54 95.9 30.09 95.9 29.63 95.9 29.05 95.9 28.48 95.9 28.02 96 27.56 96.1 26.99 96.1 26.87 96.2 26.76 96.4 26.53 96.7 26.41 96.9 26.3"/>
        <polygon class="cls-6" points="4.85 26.3 62.42 26.3 62.42 27.91 62.42 29.4 62.42 30.89 62.42 32.38 62.42 33.87 62.42 35.25 62.42 36.62 62.42 37.89 62.42 39.15 62.42 40.41 62.42 41.44 62.42 42.48 62.42 43.39 62.42 44.2 62.42 44.89 62.42 45.57 62.42 46.03 62.42 46.49 62.42 46.72 62.42 46.95 36.53 46.95 4.85 46.95 4.85 46.72 4.85 46.49 4.85 46.03 4.85 45.57 4.85 44.89 4.85 44.2 4.85 43.39 4.85 42.48 4.85 41.44 4.85 40.41 4.85 39.15 4.85 37.89 4.85 36.62 4.85 35.25 4.85 33.87 4.85 32.38 4.85 30.89 4.85 29.4 4.85 27.91 4.85 26.3"/>
        <polygon class="cls-6" points="64.52 28.94 79.71 28.94 79.71 29.05 79.71 29.17 79.71 29.51 79.71 29.86 79.71 30.09 79.71 30.43 79.71 30.77 79.71 31 79.71 31.35 79.71 31.69 79.71 31.81 79.71 32.04 79.71 32.38 79.71 32.72 79.71 32.95 79.71 33.3 79.71 33.53 79.71 33.87 79.71 34.22 79.71 34.44 79.71 34.67 79.71 34.9 79.71 35.13 79.71 35.48 79.71 35.71 79.71 36.05 79.71 36.28 79.71 36.62 79.71 36.85 79.71 37.2 79.71 37.31 79.71 37.54 79.71 37.89 79.71 38.12 79.71 38.35 79.71 38.69 79.71 38.92 79.71 39.26 79.71 39.49 79.71 39.72 79.71 39.95 79.71 40.07 79.71 40.41 79.71 40.64 79.71 40.87 79.71 41.1 79.71 41.44 79.71 41.67 79.71 41.9 79.71 42.13 79.71 42.36 79.71 42.48 79.71 42.71 79.71 42.94 79.71 43.16 79.71 43.39 79.71 43.62 79.71 43.85 79.71 44.08 79.71 44.31 79.71 44.54 79.71 44.66 79.71 44.89 79.71 45.11 79.71 45.34 79.71 45.46 79.71 45.69 79.71 45.92 79.71 46.15 79.71 46.26 79.71 46.49 79.71 46.61 79.71 46.72 79.71 46.95 79.71 47.07 79.71 47.29 79.71 47.52 79.71 47.64 79.71 47.87 79.71 47.98 79.71 48.1 79.71 48.21 79.71 48.33 79.71 48.56 79.71 48.67 79.71 48.79 79.71 48.9 79.71 49.13 79.71 49.25 64.52 49.25 64.52 49.13 64.52 49.02 64.52 48.79 64.52 48.33 64.52 47.87 64.52 47.29 64.52 46.61 64.52 45.8 64.52 44.89 64.52 43.85 64.52 42.82 64.52 41.67 64.52 40.41 64.52 39.15 64.52 37.77 64.52 36.4 64.52 35.02 64.52 33.53 64.52 32.04 64.52 30.54 64.52 28.94"/>
        <polygon class="cls-1" points="109.89 29.05 109.99 29.86 110.29 30.77 110.69 31.58 111.19 32.27 111.79 32.84 112.39 33.41 112.39 33.87 112.39 34.44 112.39 34.9 112.39 35.36 112.39 35.94 112.39 36.4 112.39 36.85 112.39 37.43 111.59 37.77 110.89 38.46 110.49 38.8 110.19 39.38 109.89 40.3 109.89 39.26 109.89 37.89 109.89 36.51 109.89 35.02 109.89 33.53 109.89 32.04 109.89 30.54 109.89 29.05"/>
        <polygon class="cls-1" points="112.39 33.41 135.08 33.41 135.08 34.44 135.08 36.17 135.08 37.43 112.39 37.43 112.39 36.85 112.39 36.4 112.39 35.94 112.39 35.36 112.39 34.9 112.39 34.44 112.39 33.87 112.39 33.41"/>
        <polygon class="cls-6" points="112.39 37.43 135.08 37.43 135.08 37.89 135.08 39.49 135.08 41.21 135.08 42.82 135.08 44.31 135.08 45.11 112.39 45.11 112.09 44.89 111.79 44.54 111.49 44.2 111.19 43.85 110.89 43.51 110.69 43.05 110.49 42.71 110.29 42.36 110.19 42.13 110.09 41.9 109.99 41.56 109.99 41.33 109.89 41.1 109.89 40.98 109.89 40.87 109.89 40.64 109.89 40.3 110.19 39.38 110.49 38.8 110.89 38.46 111.59 37.77 112.39 37.43"/>
        <polygon class="cls-1" points="109.89 41.1 109.99 41.33 109.99 41.56 110.09 41.9 110.19 42.13 110.29 42.36 110.49 42.71 110.69 43.05 110.89 43.51 111.19 43.85 111.49 44.2 111.79 44.54 112.09 44.89 112.39 45.11 112.39 45.57 112.39 46.03 112.39 46.38 112.39 46.84 112.39 47.18 112.39 47.52 112.39 47.98 112.39 48.33 111.99 48.33 111.59 48.44 111.29 48.56 111.09 48.56 110.89 48.67 110.69 48.79 110.49 48.79 110.29 49.02 110.19 49.13 110.09 49.25 109.99 49.36 109.99 49.47 109.89 49.7 109.89 49.02 109.89 47.98 109.89 46.84 109.89 45.69 109.89 44.54 109.89 43.28 109.89 42.02 109.89 41.1"/>
        <polygon class="cls-6" points="95.4 41.79 95.4 42.13 95.4 42.48 95.4 42.71 95.4 43.05 95.4 43.39 95.4 43.62 95.4 43.97 95.4 44.31 93.5 44.31 95.4 41.79"/>
        <polygon class="cls-1" points="112.39 45.11 135.08 45.11 135.08 45.8 135.08 47.18 135.08 48.33 112.39 48.33 112.39 47.98 112.39 47.52 112.39 47.18 112.39 46.84 112.39 46.38 112.39 46.03 112.39 45.57 112.39 45.11"/>
        <polygon class="cls-6" points="36.53 46.95 62.42 46.95 62.42 49.25 62.42 68.52 36.53 68.52 36.53 54.41 36.53 46.95"/>
        <rect class="cls-6" x="4.85" y="46.95" width="31.68" height="7.46"/>
        <polygon class="cls-6" points="112.39 48.33 135.08 48.33 135.08 48.56 135.08 49.7 135.08 50.97 135.08 52 135.08 53.03 135.08 53.61 112.39 53.61 111.19 52.46 110.69 51.77 110.29 51.2 109.99 50.39 109.89 49.93 109.89 49.82 109.89 49.7 109.99 49.47 109.99 49.36 110.09 49.25 110.19 49.13 110.29 49.02 110.49 48.79 110.69 48.79 110.89 48.67 111.09 48.56 111.29 48.56 111.59 48.44 111.99 48.33 112.39 48.33"/>
        <polygon class="cls-1" points="109.89 49.93 109.99 50.39 110.29 51.2 110.69 51.77 111.19 52.46 112.39 53.61 112.39 53.95 112.39 54.18 112.39 54.41 112.39 54.64 112.39 54.75 112.39 54.98 112.39 55.21 112.39 55.44 111.59 55.1 110.89 54.98 110.49 54.87 110.19 54.87 109.89 54.98 109.89 54.64 109.89 54.18 109.89 53.95 109.89 53.72 109.89 53.15 109.89 52.46 109.89 51.65 109.89 50.85 109.89 49.93"/>
        <polygon class="cls-6" points="99.1 51.77 99.2 51.77 99.4 51.88 99.6 51.88 99.8 52 99.9 52.23 99.9 52.34 99.9 52.46 100 52.57 100 52.69 100 52.92 99.9 53.03 99.9 53.15 99.8 53.26 99.6 53.38 99.4 53.38 99.2 53.49 99.19 53.49 98.9 53.49 98.7 53.49 98.6 53.49 98.4 53.38 98.2 53.38 98.1 53.26 97.9 53.15 97.9 53.03 97.9 52.92 97.9 52.8 97.9 52.69 97.9 52.57 97.9 52.34 97.9 52.23 98.1 52 98.2 51.88 98.4 51.88 98.6 51.77 98.9 51.77 99.1 51.77"/>
        <polygon class="cls-1" points="112.39 53.61 135.08 53.61 135.08 53.95 135.08 54.75 135.08 55.44 112.39 55.44 112.39 55.21 112.39 54.98 112.39 54.75 112.39 54.64 112.39 54.41 112.39 54.18 112.39 53.95 112.39 53.61"/>
        <polygon class="cls-6" points="4.85 54.41 36.53 54.41 36.53 68.52 36.53 75.52 36.53 81.26 36.53 81.94 36.53 90.32 36.53 135.75 36.53 144.13 36.53 144.82 36.53 150.55 36.53 157.55 36.53 171.66 4.85 171.66 4.85 163.86 4.85 62.21 4.85 54.41"/>
        <polygon class="cls-1" points="110.19 54.87 110.49 54.87 110.89 54.98 111.59 55.1 112.39 55.44 135.08 55.44 135.08 56.01 135.08 56.47 135.08 56.82 135.08 57.05 135.08 57.28 112.39 57.28 111.19 56.36 110.69 55.9 110.29 55.56 109.99 55.21 109.89 54.98 110.19 54.87"/>
        <polygon class="cls-5" points="2.65 62.21 4.85 62.21 4.85 163.86 2.65 163.86 2.65 163.75 2.65 163.63 2.65 163.29 2.65 162.94 2.65 162.37 2.65 161.8 2.65 161.11 2.65 160.19 2.65 159.27 2.65 158.24 2.65 157.09 2.65 155.83 2.65 154.45 2.65 153.08 2.65 151.59 2.65 149.98 2.65 148.26 2.65 146.54 2.65 144.7 2.65 142.75 2.65 140.8 2.65 138.74 2.65 136.9 2.65 136.67 2.65 134.49 2.65 132.31 2.65 130.02 2.65 127.72 2.65 127.15 2.65 125.43 2.65 123.13 2.65 120.72 2.65 118.43 2.65 117.97 2.65 116.02 2.65 113.61 2.65 111.2 2.65 108.79 2.65 108.22 2.65 106.38 2.65 104.09 2.65 101.68 2.65 99.38 2.65 98.92 2.65 97.09 2.65 94.79 2.65 92.61 2.65 90.43 2.65 89.17 2.65 88.37 2.65 86.3 2.65 84.24 2.65 82.29 2.65 80.45 2.65 78.62 2.65 76.9 2.65 75.29 2.65 73.68 2.65 72.19 2.65 70.81 2.65 69.55 2.65 68.41 2.65 67.26 2.65 66.34 2.65 65.42 2.65 64.62 2.65 63.93 2.65 63.36 2.65 62.9 2.65 62.55 2.65 62.32 2.65 62.21"/>
        <polygon class="cls-6" points="36.53 68.52 62.42 68.52 62.42 69.44 62.42 70.47 62.42 71.39 62.42 72.31 62.42 73.22 62.42 74.03 62.42 74.83 62.42 75.52 36.53 75.52 36.53 68.52"/>
        <polygon class="cls-6" points="36.53 75.52 62.42 75.52 62.42 76.55 62.42 77.47 62.42 78.39 62.42 79.08 62.42 79.76 62.42 80.34 62.42 80.68 62.42 81.03 62.42 81.14 62.42 81.26 57.32 81.26 36.53 81.26 36.53 75.52"/>
        <polygon class="cls-6" points="62.42 81.94 63.12 81.94 63.12 89.63 63.12 90.32 36.53 90.32 36.53 81.94 57.32 81.94 62.42 81.94"/>
        <polygon class="cls-5" points="63.52 89.17 67.91 89.17 67.91 89.29 67.91 89.52 67.91 89.86 67.91 90.2 67.91 90.78 67.91 91.35 67.91 92.04 67.91 92.73 67.91 93.42 67.91 94.22 67.91 94.91 67.91 95.6 67.91 96.29 67.91 96.97 67.91 97.55 67.91 98.01 67.91 98.35 67.91 98.69 67.91 98.81 67.91 98.92 63.52 98.92 63.52 98.81 63.52 98.69 63.52 98.35 63.52 98.01 63.52 97.55 63.52 96.97 63.52 96.29 63.52 95.6 63.52 94.91 63.52 94.22 63.52 93.42 63.52 92.73 63.52 92.04 63.52 91.35 63.52 90.78 63.52 90.2 63.52 89.86 63.52 89.52 63.52 89.29 63.52 89.17"/>
        <polygon class="cls-5" points=".25 89.63 .75 89.17 .75 89.29 .75 89.4 .75 89.75 .75 90.09 .75 90.55 .75 91.12 .75 91.81 .75 92.5 .75 93.19 .75 93.88 .75 94.68 .75 95.37 .75 96.06 .75 96.74 .75 97.32 .75 97.89 .75 98.24 .75 98.58 .75 98.81 .75 98.92 .25 98.47 .25 98.35 .25 98.12 .25 97.89 .25 97.43 .25 96.97 .25 96.4 .25 95.71 .25 95.14 .25 94.45 .25 93.65 .25 92.96 .25 92.38 .25 91.7 .25 91.12 .25 90.66 .25 90.2 .25 89.97 .25 89.75 .25 89.63"/>
        <polygon class="cls-6" points="36.53 90.32 63.12 90.32 63.12 91.58 63.12 92.84 63.12 94.11 63.12 95.37 63.12 96.63 63.12 98.01 63.12 98.47 63.12 99.27 63.12 100.64 61.72 100.64 61.72 103.05 61.72 105.58 61.72 108.1 61.72 110.51 61.72 113.04 61.72 115.56 61.72 118.08 61.72 120.49 61.72 123.02 61.72 125.43 63.12 125.43 63.12 126.8 63.12 127.61 63.12 128.07 63.12 129.44 63.12 130.7 63.12 131.97 63.12 133.23 63.12 134.49 63.12 135.75 36.53 135.75 36.53 90.32"/>
        <polygon class="cls-5" points="61.72 100.64 63.12 100.64 63.12 108.68 63.12 117.4 63.12 125.43 61.72 125.43 61.72 123.02 61.72 120.49 61.72 118.08 61.72 115.56 61.72 113.04 61.72 110.51 61.72 108.1 61.72 105.58 61.72 103.05 61.72 100.64"/>
        <polygon class="cls-5" points="63.52 108.22 67.91 108.22 67.91 108.33 67.91 108.45 67.91 108.79 67.91 109.25 67.91 109.71 67.91 110.4 67.91 110.97 67.91 111.66 67.91 112.46 67.91 113.15 67.91 113.95 67.91 114.64 67.91 115.33 67.91 115.9 67.91 116.48 67.91 117.05 67.91 117.4 67.91 117.63 67.91 117.85 67.91 117.97 63.52 117.97 63.52 117.85 63.52 117.63 63.52 117.4 63.52 117.05 63.52 116.48 63.52 115.9 63.52 115.33 63.52 114.64 63.52 113.95 63.52 113.15 63.52 112.46 63.52 111.66 63.52 110.97 63.52 110.4 63.52 109.71 63.52 109.25 63.52 108.79 63.52 108.45 63.52 108.33 63.52 108.22"/>
        <polygon class="cls-5" points=".75 108.22 2.65 108.22 2.65 108.79 2.65 111.2 2.65 113.61 2.65 116.02 2.65 117.97 .75 117.97 .75 117.85 .75 117.63 .75 117.28 .75 116.82 .75 116.36 .75 115.79 .75 115.1 .75 114.41 .75 113.72 .75 112.92 .75 112.23 .75 111.43 .75 110.74 .75 110.17 .75 109.59 .75 109.14 .75 108.68 .75 108.45 .75 108.22"/>
        <polygon class="cls-5" points="63.52 127.15 67.91 127.15 67.91 127.26 67.91 127.49 67.91 127.84 67.91 128.3 67.91 128.75 67.91 129.33 67.91 130.02 67.91 130.7 67.91 131.39 67.91 132.2 67.91 132.88 67.91 133.69 67.91 134.38 67.91 134.95 67.91 135.52 67.91 135.98 67.91 136.44 67.91 136.67 67.91 136.9 63.52 136.9 63.52 136.67 63.52 136.44 63.52 135.98 63.52 135.52 63.52 134.95 63.52 134.38 63.52 133.69 63.52 132.88 63.52 132.2 63.52 131.39 63.52 130.7 63.52 130.02 63.52 129.33 63.52 128.75 63.52 128.3 63.52 127.84 63.52 127.49 63.52 127.26 63.52 127.15"/>
        <polygon class="cls-5" points=".75 127.15 2.65 127.15 2.65 127.72 2.65 130.02 2.65 132.31 2.65 134.49 2.65 136.67 2.65 136.9 .75 136.9 .75 136.79 .75 136.56 .75 136.21 .75 135.87 .75 135.29 .75 134.72 .75 134.15 .75 133.34 .75 132.65 .75 131.97 .75 131.16 .75 130.48 .75 129.79 .75 129.1 .75 128.52 .75 128.07 .75 127.72 .75 127.38 .75 127.26 .75 127.15"/>
        <polygon class="cls-6" points="36.53 135.75 63.12 135.75 63.12 136.44 63.12 144.13 62.42 144.13 57.32 144.13 36.53 144.13 36.53 135.75"/>
        <polygon class="cls-6" points="57.32 144.82 62.42 144.82 62.42 144.93 62.42 145.05 62.42 145.39 62.42 145.85 62.42 146.31 62.42 147 62.42 147.68 62.42 148.6 62.42 149.52 62.42 150.55 36.53 150.55 36.53 144.82 57.32 144.82"/>
        <polygon class="cls-6" points="36.53 150.55 62.42 150.55 62.42 151.36 62.42 152.04 62.42 152.96 62.42 153.77 62.42 154.68 62.42 155.72 62.42 156.63 62.42 157.55 36.53 157.55 36.53 150.55"/>
        <polygon class="cls-6" points="36.53 157.55 62.42 157.55 62.42 179.12 36.53 179.12 36.53 171.66 36.53 157.55"/>
        <rect class="cls-6" x="4.85" y="171.66" width="31.68" height="7.46"/>
      </g>
      <g>
        <polyline class="cls-2" points="63.12 144.13 63.12 136.44 63.12 135.75"/>
        <polyline class="cls-2" points="63.12 90.32 63.12 91.58 63.12 92.84 63.12 94.11 63.12 95.37 63.12 96.63 63.12 98.01 63.12 98.47 63.12 99.27 63.12 100.64"/>
        <polyline class="cls-2" points="61.72 100.64 61.72 103.05 61.72 105.58 61.72 108.1 61.72 110.51 61.72 113.04 61.72 115.56 61.72 118.08 61.72 120.49 61.72 123.02 61.72 125.43"/>
        <line class="cls-2" x1="61.72" y1="100.64" x2="63.12" y2="100.64"/>
        <line class="cls-2" x1="36.53" y1="135.75" x2="63.12" y2="135.75"/>
        <polyline class="cls-2" points="63.12 125.43 63.12 126.8 63.12 127.61 63.12 128.07 63.12 129.44 63.12 130.7 63.12 131.97 63.12 133.23 63.12 134.49 63.12 135.75"/>
        <line class="cls-2" x1="61.72" y1="125.43" x2="63.12" y2="125.43"/>
        <polyline class="cls-2" points="63.12 81.94 63.12 89.63 63.12 90.32"/>
        <line class="cls-2" x1="36.53" y1="90.32" x2="63.12" y2="90.32"/>
        <polyline class="cls-2" points="36.53 81.94 57.32 81.94 62.42 81.94 63.12 81.94"/>
        <polyline class="cls-2" points="36.53 144.13 57.32 144.13 62.42 144.13 63.12 144.13"/>
        <polyline class="cls-2" points="2.65 163.86 2.65 163.75 2.65 163.63 2.65 163.29 2.65 162.94 2.65 162.37 2.65 161.8 2.65 161.11 2.65 160.19 2.65 159.27 2.65 158.24 2.65 157.09 2.65 155.83 2.65 154.45 2.65 153.08 2.65 151.59 2.65 149.98 2.65 148.26 2.65 146.54 2.65 144.7 2.65 142.75 2.65 140.8 2.65 138.74 2.65 136.9 2.65 136.67 2.65 134.49 2.65 132.31 2.65 130.02 2.65 127.72 2.65 127.15 2.65 125.43 2.65 123.13 2.65 120.72 2.65 118.43 2.65 117.97 2.65 116.02 2.65 113.61 2.65 111.2 2.65 108.79 2.65 108.22 2.65 106.38 2.65 104.09 2.65 101.68 2.65 99.38 2.65 98.92 2.65 97.09 2.65 94.79 2.65 92.61 2.65 90.43 2.65 89.17 2.65 88.37 2.65 86.3 2.65 84.24 2.65 82.29 2.65 80.45 2.65 78.62 2.65 76.9 2.65 75.29 2.65 73.68 2.65 72.19 2.65 70.81 2.65 69.55 2.65 68.41 2.65 67.26 2.65 66.34 2.65 65.42 2.65 64.62 2.65 63.93 2.65 63.36 2.65 62.9 2.65 62.55 2.65 62.32 2.65 62.21"/>
        <line class="cls-2" x1="79.71" y1="51.43" x2="79.71" y2="51.54"/>
        <line class="cls-2" x1="79.71" y1="51.08" x2="79.71" y2="51.2"/>
        <line class="cls-2" x1="79.71" y1="6.45" x2="79.71" y2="6.57"/>
        <polyline class="cls-2" points="109.89 55.67 109.89 55.56 109.89 55.44 109.89 55.33 109.89 54.98"/>
        <polyline class="cls-2" points="109.89 2.55 109.89 2.32 109.89 2.09 109.89 1.98"/>
        <line class="cls-2" x1="112.39" y1=".37" x2="112.39" y2=".25"/>
        <line class="cls-2" x1="79.71" y1="50.39" x2="79.71" y2="50.51"/>
        <line class="cls-2" x1="79.77" y1="50.52" x2="91.18" y2="52.57"/>
        <line class="cls-2" x1="79.71" y1="7.25" x2="79.71" y2="7.14"/>
        <line class="cls-2" x1="91.2" y1="5.19" x2="79.71" y2="7.25"/>
        <line class="cls-2" x1="79.71" y1="7.25" x2="79.71" y2="7.37"/>
        <line class="cls-2" x1="98.9" y1="4.04" x2="98.9" y2="4.16"/>
        <polyline class="cls-2" points="95.4 52.92 95.4 52.8 95.4 52.69 95.4 52.57 95.4 52.46 95.4 52.34 95.4 52.23 95.4 52.11 95.4 52"/>
        <line class="cls-2" x1="93.5" y1="52.92" x2="95.4" y2="52.92"/>
        <line class="cls-2" x1="95.4" y1="51.88" x2="95.4" y2="52"/>
        <line class="cls-2" x1="95.4" y1="52" x2="93.5" y2="52.92"/>
        <polyline class="cls-2" points="109.89 54.98 109.99 55.21 110.29 55.56 110.69 55.9 111.19 56.36 112.39 57.28"/>
        <line class="cls-2" x1="79.71" y1="49.36" x2="79.71" y2="49.47"/>
        <polyline class="cls-2" points="99.8 53.26 99.9 53.15 99.9 53.03 100 52.92 100 52.69"/>
        <polyline class="cls-2" points="100 52.57 99.9 52.46 99.9 52.34"/>
        <line class="cls-2" x1="97.9" y1="52.69" x2="97.9" y2="52.8"/>
        <polyline class="cls-2" points="97.9 52.8 97.9 52.92 97.9 53.03 97.9 53.15 98.1 53.26"/>
        <line class="cls-2" x1="98.7" y1="53.49" x2="98.9" y2="53.49"/>
        <polyline class="cls-2" points="98.1 53.26 98.2 53.38 98.4 53.38 98.6 53.49"/>
        <polyline class="cls-2" points="99.2 53.49 99.4 53.38 99.6 53.38 99.8 53.26"/>
        <line class="cls-2" x1="98.9" y1="53.49" x2="99.19" y2="53.49"/>
        <polyline class="cls-2" points="99.6 51.88 99.4 51.88 99.2 51.77"/>
        <polyline class="cls-2" points="98.6 51.77 98.4 51.88 98.2 51.88"/>
        <line class="cls-2" x1="79.71" y1="8.29" x2="79.71" y2="8.4"/>
        <polyline class="cls-2" points="112.39 .37 111.99 .71 111.59 .94 111.29 1.29 110.89 1.52 110.49 1.86 110.19 2.21 109.99 2.32 109.89 2.55 109.89 2.66"/>
        <line class="cls-2" x1="112.39" y1=".37" x2="135.08" y2=".37"/>
        <line class="cls-2" x1="98.9" y1="6.11" x2="98.9" y2="5.99"/>
        <line class="cls-2" x1="100" y1="5.07" x2="100" y2="4.96"/>
        <polyline class="cls-2" points="99.9 5.42 99.9 5.3 100 5.19"/>
        <polyline class="cls-2" points="100 4.96 100 4.84 99.9 4.73 99.9 4.5 99.8 4.39"/>
        <polyline class="cls-2" points="99.8 4.39 99.6 4.39 99.4 4.27 99.2 4.27 99.1 4.27 98.9 4.27"/>
        <polyline class="cls-2" points="98.9 4.27 98.6 4.27 98.4 4.27 98.2 4.39 98.1 4.39"/>
        <polyline class="cls-2" points="98.1 4.39 97.9 4.5 97.9 4.73 97.9 4.84 97.9 4.96"/>
        <line class="cls-2" x1="97.9" y1="4.96" x2="97.9" y2="5.07"/>
        <line class="cls-2" x1="98.6" y1="5.99" x2="98.9" y2="5.99"/>
        <line class="cls-2" x1="98.9" y1="5.99" x2="99.2" y2="5.99"/>
        <line class="cls-2" x1="95.4" y1="51.88" x2="93.5" y2="52.92"/>
        <line class="cls-2" x1="96.1" y1="53.49" x2="95.4" y2="53.49"/>
        <polyline class="cls-2" points="98.1 52 97.9 52.23 97.9 52.34 97.9 52.57 97.9 52.69"/>
        <polyline class="cls-2" points="98.9 51.77 98.6 51.77 98.4 51.77 98.2 51.88 98.1 52"/>
        <polyline class="cls-2" points="99.8 52 99.6 51.88 99.4 51.77 99.2 51.77 99.1 51.77 98.9 51.77"/>
        <polyline class="cls-2" points="100 52.69 100 52.57 99.9 52.34 99.9 52.23 99.8 52"/>
        <polyline class="cls-2" points="98.9 53.61 98.7 53.49 98.6 53.49 98.4 53.49 98 53.49 97.6 53.38 97.5 53.38 97.4 53.26 97.3 53.15 97.2 53.03"/>
        <polyline class="cls-2" points="100.6 53.15 100.4 53.26 100.2 53.38 99.9 53.49 99.4 53.49 99.2 53.49 99.19 53.49 98.9 53.61"/>
        <polyline class="cls-2" points="94.7 4.27 94.8 4.27 94.9 4.16"/>
        <polyline class="cls-2" points="93.7 4.39 94.1 4.39 94.5 4.27"/>
        <polyline class="cls-2" points="99.8 5.76 99.9 5.53 99.9 5.42 100 5.19 100 5.07"/>
        <polyline class="cls-2" points="98.9 6.11 99.2 5.99 99.4 5.99 99.6 5.88 99.8 5.76"/>
        <polyline class="cls-2" points="98.1 5.76 98.2 5.88 98.4 5.99 98.6 5.99 98.9 6.11"/>
        <polyline class="cls-2" points="97.9 5.07 97.9 5.19 97.9 5.42 97.9 5.53 98.1 5.76"/>
        <polyline class="cls-2" points="100.6 4.61 100.6 4.73 100.7 4.84"/>
        <polyline class="cls-2" points="98.9 4.16 99.2 4.16 99.4 4.16 99.9 4.16 100 4.27 100.2 4.27"/>
        <polyline class="cls-2" points="97.6 4.27 98 4.16 98.4 4.16 98.7 4.16 98.9 4.16"/>
        <polyline class="cls-2" points="97.1 4.84 97.2 4.73 97.3 4.5"/>
        <polyline class="cls-2" points="79.71 47.98 79.71 48.1 79.71 48.21"/>
        <polyline class="cls-2" points="79.71 9.66 79.71 9.78 79.71 9.89"/>
        <line class="cls-2" x1="112.39" y1="55.44" x2="135.08" y2="55.44"/>
        <line class="cls-2" x1="112.39" y1="2.43" x2="135.08" y2="2.43"/>
        <polyline class="cls-2" points="79.71 46.26 79.71 46.49 79.71 46.61"/>
        <polyline class="cls-2" points="79.71 11.27 79.71 11.38 79.71 11.61"/>
        <polyline class="cls-2" points="109.89 54.98 109.89 54.64 109.89 54.18 109.89 53.95 109.89 53.72 109.89 53.15 109.89 52.46 109.89 51.65 109.89 50.85 109.89 49.93"/>
        <polyline class="cls-2" points="112.39 55.44 111.59 55.1 110.89 54.98 110.49 54.87 110.19 54.87 109.89 54.98"/>
        <polyline class="cls-2" points="112.39 55.44 112.39 55.21 112.39 54.98 112.39 54.75 112.39 54.64 112.39 54.41 112.39 54.18 112.39 53.95 112.39 53.61"/>
        <polyline class="cls-2" points="109.89 7.71 109.89 7.02 109.89 6.22 109.89 5.42 109.89 4.73 109.89 4.04 109.89 3.58 109.89 3.12 109.89 2.66"/>
        <polyline class="cls-2" points="109.89 2.66 109.99 2.78 109.99 2.89 110.19 2.89 110.29 2.89 110.39 2.89 110.49 2.89 110.89 2.78 110.99 2.78 111.19 2.78 111.49 2.66 111.79 2.55 112.09 2.55 112.39 2.43"/>
        <polyline class="cls-2" points="112.39 4.16 112.39 3.93 112.39 3.7 112.39 3.47 112.39 3.24 112.39 3.01 112.39 2.78 112.39 2.55 112.39 2.43"/>
        <polyline class="cls-2" points="79.71 44.31 79.71 44.54 79.71 44.66"/>
        <polyline class="cls-2" points="79.71 13.22 79.71 13.45 79.71 13.56"/>
        <line class="cls-2" x1="98.8" y1="46.38" x2="98.8" y2="46.26"/>
        <line class="cls-2" x1="96.1" y1="44.77" x2="96.1" y2="44.89"/>
        <line class="cls-2" x1="95.4" y1="44.77" x2="95.4" y2="44.89"/>
        <line class="cls-2" x1="100.1" y1="45.92" x2="100.1" y2="45.8"/>
        <polyline class="cls-2" points="79.71 42.13 79.71 42.36 79.71 42.48"/>
        <line class="cls-2" x1="79.79" y1="42.49" x2="91.2" y2="43.74"/>
        <line class="cls-2" x1="79.71" y1="15.51" x2="79.71" y2="15.4"/>
        <line class="cls-2" x1="91.2" y1="14.25" x2="79.71" y2="15.51"/>
        <polyline class="cls-2" points="79.71 15.51 79.71 15.63 79.71 15.74"/>
        <polyline class="cls-2" points="109.89 49.93 109.99 50.39 110.29 51.2 110.69 51.77 111.19 52.46 112.39 53.61"/>
        <line class="cls-2" x1="112.39" y1="53.61" x2="135.08" y2="53.61"/>
        <polyline class="cls-2" points="112.39 4.16 111.59 4.96 111.39 5.3 110.89 5.76 110.49 6.34 110.19 6.91 109.99 7.25 109.89 7.71 109.89 7.94"/>
        <line class="cls-2" x1="112.39" y1="4.16" x2="135.08" y2="4.16"/>
        <polyline class="cls-2" points="79.71 39.72 79.71 39.95 79.71 40.07"/>
        <line class="cls-2" x1="79.71" y1="17.92" x2="79.71" y2="17.81"/>
        <line class="cls-2" x1="88.4" y1="17.12" x2="79.71" y2="17.92"/>
        <polyline class="cls-2" points="79.71 17.92 79.71 18.04 79.71 18.27"/>
        <polyline class="cls-2" points="95.4 44.31 95.4 43.97 95.4 43.62 95.4 43.39 95.4 43.05 95.4 42.71 95.4 42.48 95.4 42.13 95.4 41.79"/>
        <line class="cls-2" x1="93.5" y1="44.31" x2="95.4" y2="44.31"/>
        <line class="cls-2" x1="93.5" y1="44.2" x2="93.5" y2="44.31"/>
        <line class="cls-2" x1="95.4" y1="41.79" x2="93.5" y2="44.31"/>
        <polyline class="cls-2" points="99.9 44.66 99.8 44.2 99.7 44.08"/>
        <line class="cls-2" x1="98.8" y1="46.26" x2="98.1" y2="46.26"/>
        <line class="cls-2" x1="99.5" y1="46.26" x2="98.8" y2="46.26"/>
        <line class="cls-2" x1="100.1" y1="45.8" x2="99.9" y2="46.03"/>
        <polyline class="cls-2" points="100.6 44.66 100.5 45.23 100.1 45.8"/>
        <line class="cls-2" x1="95.4" y1="41.79" x2="93.5" y2="44.2"/>
        <line class="cls-2" x1="95.4" y1="44.77" x2="93" y2="44.77"/>
        <line class="cls-2" x1="96.1" y1="46.15" x2="95.4" y2="46.15"/>
        <line class="cls-2" x1="96.8" y1="44.77" x2="96.1" y2="44.77"/>
        <line class="cls-2" x1="97.6" y1="16.2" x2="97.6" y2="16.32"/>
        <line class="cls-2" x1="96.8" y1="16.55" x2="96.8" y2="16.66"/>
        <polyline class="cls-2" points="96.8 13.68 97.5 13.79 97.8 13.79"/>
        <line class="cls-2" x1="97.6" y1="16.32" x2="97.8" y2="16.09"/>
        <line class="cls-2" x1="97.4" y1="16.43" x2="97.6" y2="16.32"/>
        <line class="cls-2" x1="96.8" y1="16.66" x2="97.2" y2="16.55"/>
        <line class="cls-2" x1="96.1" y1="16.43" x2="96.8" y2="16.66"/>
        <polyline class="cls-2" points="79.71 37.2 79.71 37.31 79.71 37.54"/>
        <polyline class="cls-2" points="79.71 20.45 79.71 20.68 79.71 20.79"/>
        <line class="cls-2" x1="112.39" y1="48.33" x2="135.08" y2="48.33"/>
        <polyline class="cls-2" points="79.71 34.44 79.71 34.67 79.71 34.9"/>
        <polyline class="cls-2" points="79.71 23.2 79.71 23.32 79.71 23.55"/>
        <line class="cls-2" x1="112.39" y1="9.66" x2="135.08" y2="9.66"/>
        <polyline class="cls-2" points="79.71 31.69 79.71 31.81 79.71 32.04"/>
        <polyline class="cls-2" points="79.71 25.95 79.71 26.18 79.71 26.41"/>
        <polyline class="cls-2" points="109.89 49.7 109.89 49.02 109.89 47.98 109.89 46.84 109.89 45.69 109.89 44.54 109.89 43.28 109.89 42.02 109.89 41.1"/>
        <polyline class="cls-2" points="112.39 48.33 111.99 48.33 111.59 48.44 111.29 48.56 111.09 48.56 110.89 48.67 110.69 48.79 110.49 48.79 110.29 49.02 110.19 49.13 110.09 49.25 109.99 49.36 109.99 49.47 109.89 49.7 109.89 49.82 109.89 49.93"/>
        <polyline class="cls-2" points="112.39 48.33 112.39 47.98 112.39 47.52 112.39 47.18 112.39 46.84 112.39 46.38 112.39 46.03 112.39 45.57 112.39 45.11"/>
        <polyline class="cls-2" points="109.89 17.01 109.89 16.09 109.89 14.71 109.89 13.45 109.89 12.3 109.89 11.15 109.89 10.01 109.89 8.97 109.89 8.29"/>
        <polyline class="cls-2" points="109.89 7.94 109.89 8.17 109.89 8.29 109.99 8.4 109.99 8.52 110.09 8.63 110.19 8.75 110.29 8.86 110.49 9.09 110.69 9.2 110.89 9.32 111.19 9.43 111.49 9.55 111.79 9.55 112.09 9.66 112.39 9.66"/>
        <polyline class="cls-2" points="112.39 12.88 112.39 12.53 112.39 12.07 112.39 11.61 112.39 11.27 112.39 10.81 112.39 10.47 112.39 10.01 112.39 9.66"/>
        <polyline class="cls-2" points="79.71 28.82 79.71 28.94 79.71 29.05 79.71 29.17"/>
        <line class="cls-2" x1="79.71" y1="29.17" x2="91.2" y2="29.28"/>
        <line class="cls-2" x1="98.4" y1="31.23" x2="98.2" y2="31.81"/>
        <polyline class="cls-2" points="97.8 31 97.9 30.54 98 30.09 98 29.51 98 29.05"/>
        <polyline class="cls-2" points="98 29.05 98 28.48 98 28.02 97.9 27.56 97.8 26.99"/>
        <polyline class="cls-2" points="97.8 26.99 97.7 26.76 97.5 26.53 97.2 26.41 97.1 26.3 96.9 26.3"/>
        <polyline class="cls-2" points="96.9 26.3 96.7 26.41 96.4 26.53 96.2 26.76 96.1 26.87 96.1 26.99"/>
        <polyline class="cls-2" points="96.1 26.99 96 27.56 95.9 28.02 95.9 28.48 95.9 29.05"/>
        <polyline class="cls-2" points="95.9 29.05 95.9 29.63 95.9 30.09 96 30.54 96.1 31"/>
        <polyline class="cls-2" points="96.1 31 96.2 31.35 96.4 31.58 96.6 31.69 96.9 31.81"/>
        <polyline class="cls-2" points="96.9 31.81 97.2 31.69 97.5 31.58 97.7 31.35 97.8 31"/>
        <line class="cls-2" x1="95.2" y1="28.82" x2="95.2" y2="28.48"/>
        <line class="cls-2" x1="91.2" y1="43.74" x2="91.2" y2="43.39"/>
        <polyline class="cls-2" points="79.71 42.48 79.79 42.49 88.4 43.51 91.2 43.74"/>
        <polyline class="cls-2" points="79.71 44.31 79.71 44.08 79.71 43.85 79.71 43.62 79.71 43.39 79.71 43.16 79.71 42.94 79.71 42.71 79.71 42.48"/>
        <line class="cls-2" x1="88.4" y1="45.46" x2="79.71" y2="44.31"/>
        <line class="cls-2" x1="88.4" y1="45.8" x2="88.4" y2="45.46"/>
        <line class="cls-2" x1="79.71" y1="44.66" x2="88.4" y2="45.8"/>
        <polyline class="cls-2" points="79.71 46.26 79.71 46.15 79.71 45.92 79.71 45.69 79.71 45.46 79.71 45.34 79.71 45.11 79.71 44.89 79.71 44.66"/>
        <line class="cls-2" x1="88.4" y1="47.52" x2="79.71" y2="46.26"/>
        <line class="cls-2" x1="88.4" y1="47.87" x2="88.4" y2="47.52"/>
        <line class="cls-2" x1="79.71" y1="46.61" x2="88.4" y2="47.87"/>
        <polyline class="cls-2" points="79.71 47.98 79.71 47.87 79.71 47.64 79.71 47.52 79.71 47.29 79.71 47.07 79.71 46.95 79.71 46.72 79.71 46.61"/>
        <line class="cls-2" x1="88.4" y1="49.36" x2="79.71" y2="47.98"/>
        <line class="cls-2" x1="88.4" y1="49.59" x2="88.4" y2="49.36"/>
        <line class="cls-2" x1="79.71" y1="48.21" x2="88.4" y2="49.59"/>
        <polyline class="cls-2" points="79.71 49.36 79.71 49.25 79.71 49.13 79.71 48.9 79.71 48.79 79.71 48.67 79.71 48.56 79.71 48.33 79.71 48.21"/>
        <line class="cls-2" x1="88.4" y1="50.85" x2="79.71" y2="49.36"/>
        <line class="cls-2" x1="88.4" y1="50.97" x2="88.4" y2="50.85"/>
        <line class="cls-2" x1="79.71" y1="49.47" x2="88.4" y2="50.97"/>
        <polyline class="cls-2" points="79.71 50.39 79.71 50.28 79.71 50.16 79.71 50.05 79.71 49.93 79.71 49.82 79.71 49.7 79.71 49.47"/>
        <polyline class="cls-2" points="91.2 52.46 88.4 52 79.71 50.39"/>
        <line class="cls-2" x1="91.2" y1="52.57" x2="91.2" y2="52.46"/>
        <polyline class="cls-2" points="79.71 50.51 79.77 50.52 88.4 52.11 91.18 52.57 91.2 52.57"/>
        <polyline class="cls-2" points="79.71 51.08 79.71 50.97 79.71 50.85 79.71 50.74 79.71 50.62 79.71 50.51"/>
        <line class="cls-2" x1="88.4" y1="52.69" x2="79.71" y2="51.08"/>
        <line class="cls-2" x1="88.4" y1="52.8" x2="88.4" y2="52.69"/>
        <line class="cls-2" x1="79.71" y1="51.2" x2="88.4" y2="52.8"/>
        <polyline class="cls-2" points="79.71 51.43 79.71 51.31 79.71 51.2"/>
        <polyline class="cls-2" points="88.4 53.15 86.59 52.79 79.71 51.43"/>
        <line class="cls-2" x1="79.71" y1="51.54" x2="88.4" y2="53.15"/>
        <line class="cls-2" x1="79.71" y1="6.11" x2="88.4" y2="4.5"/>
        <polyline class="cls-2" points="79.71 6.45 79.71 6.34 79.71 6.22 79.71 6.11"/>
        <line class="cls-2" x1="88.4" y1="4.84" x2="79.71" y2="6.45"/>
        <line class="cls-2" x1="88.4" y1="4.96" x2="88.4" y2="4.84"/>
        <line class="cls-2" x1="79.71" y1="6.57" x2="88.4" y2="4.96"/>
        <polyline class="cls-2" points="79.71 7.14 79.71 7.02 79.71 6.91 79.71 6.79 79.71 6.68 79.71 6.57"/>
        <polyline class="cls-2" points="91.2 5.19 88.4 5.65 79.71 7.14"/>
        <line class="cls-2" x1="91.2" y1="5.3" x2="91.2" y2="5.19"/>
        <polyline class="cls-2" points="79.71 7.37 88.4 5.76 91.2 5.3"/>
        <polyline class="cls-2" points="79.71 8.29 79.71 8.17 79.71 7.94 79.71 7.83 79.71 7.71 79.71 7.6 79.71 7.48 79.71 7.37"/>
        <line class="cls-2" x1="88.4" y1="6.79" x2="79.71" y2="8.29"/>
        <line class="cls-2" x1="88.4" y1="6.91" x2="88.4" y2="6.79"/>
        <line class="cls-2" x1="79.71" y1="8.4" x2="88.4" y2="6.91"/>
        <polyline class="cls-2" points="79.71 9.66 79.71 9.43 79.71 9.32 79.71 9.09 79.71 8.97 79.71 8.86 79.71 8.75 79.71 8.52 79.71 8.4"/>
        <line class="cls-2" x1="88.4" y1="8.29" x2="79.71" y2="9.66"/>
        <line class="cls-2" x1="88.4" y1="8.52" x2="88.4" y2="8.29"/>
        <line class="cls-2" x1="79.71" y1="9.89" x2="88.4" y2="8.52"/>
        <polyline class="cls-2" points="79.71 11.27 79.71 11.15 79.71 10.93 79.71 10.7 79.71 10.58 79.71 10.35 79.71 10.24 79.71 10.01 79.71 9.89"/>
        <line class="cls-2" x1="88.4" y1="10.01" x2="79.71" y2="11.27"/>
        <line class="cls-2" x1="88.4" y1="10.35" x2="88.4" y2="10.01"/>
        <line class="cls-2" x1="79.71" y1="11.61" x2="88.4" y2="10.35"/>
        <polyline class="cls-2" points="79.71 13.22 79.71 12.99 79.71 12.76 79.71 12.65 79.71 12.42 79.71 12.19 79.71 11.96 79.71 11.73 79.71 11.61"/>
        <line class="cls-2" x1="88.4" y1="12.19" x2="79.71" y2="13.22"/>
        <line class="cls-2" x1="88.4" y1="12.42" x2="88.4" y2="12.19"/>
        <line class="cls-2" x1="79.71" y1="13.56" x2="88.4" y2="12.42"/>
        <polyline class="cls-2" points="79.71 15.4 79.71 15.17 79.71 14.94 79.71 14.71 79.71 14.48 79.71 14.25 79.71 14.02 79.71 13.79 79.71 13.56"/>
        <polyline class="cls-2" points="91.2 14.25 88.4 14.48 79.71 15.4"/>
        <line class="cls-2" x1="91.2" y1="14.6" x2="91.2" y2="14.25"/>
        <polyline class="cls-2" points="79.71 15.74 88.4 14.83 91.2 14.6"/>
        <polyline class="cls-2" points="79.71 17.81 79.71 17.58 79.71 17.35 79.71 17.12 79.71 16.78 79.71 16.55 79.71 16.32 79.71 16.09 79.71 15.74"/>
        <line class="cls-2" x1="88.4" y1="17.12" x2="79.71" y2="17.81"/>
        <line class="cls-2" x1="88.4" y1="17.46" x2="88.4" y2="17.12"/>
        <line class="cls-2" x1="79.71" y1="18.27" x2="88.4" y2="17.46"/>
        <polyline class="cls-2" points="79.71 20.45 79.71 20.22 79.71 19.87 79.71 19.64 79.71 19.3 79.71 19.07 79.71 18.73 79.71 18.5 79.71 18.27"/>
        <line class="cls-2" x1="88.4" y1="19.87" x2="79.71" y2="20.45"/>
        <line class="cls-2" x1="88.4" y1="20.22" x2="88.4" y2="19.87"/>
        <line class="cls-2" x1="79.71" y1="20.79" x2="88.4" y2="20.22"/>
        <polyline class="cls-2" points="79.71 23.2 79.71 22.86 79.71 22.63 79.71 22.28 79.71 21.94 79.71 21.71 79.71 21.37 79.71 21.14 79.71 20.79"/>
        <line class="cls-2" x1="88.4" y1="22.74" x2="79.71" y2="23.2"/>
        <line class="cls-2" x1="88.4" y1="23.2" x2="88.4" y2="22.74"/>
        <line class="cls-2" x1="79.71" y1="23.55" x2="88.4" y2="23.2"/>
        <polyline class="cls-2" points="79.71 25.95 79.71 25.61 79.71 25.38 79.71 25.04 79.71 24.81 79.71 24.46 79.71 24.12 79.71 23.89 79.71 23.55"/>
        <line class="cls-2" x1="88.4" y1="25.73" x2="79.71" y2="25.95"/>
        <line class="cls-2" x1="88.4" y1="26.18" x2="88.4" y2="25.73"/>
        <line class="cls-2" x1="79.71" y1="26.41" x2="88.4" y2="26.18"/>
        <polyline class="cls-2" points="79.71 28.82 79.71 28.59 79.71 28.48 79.71 28.25 79.71 27.91 79.71 27.56 79.71 27.33 79.71 26.99 79.71 26.64 79.71 26.41"/>
        <polyline class="cls-2" points="91.2 28.82 80.81 28.82 79.71 28.82"/>
        <line class="cls-2" x1="91.2" y1="29.28" x2="91.2" y2="28.82"/>
        <polyline class="cls-2" points="79.71 29.17 80.81 29.28 91.2 29.28"/>
        <polyline class="cls-2" points="79.71 31.69 79.71 31.35 79.71 31 79.71 30.77 79.71 30.43 79.71 30.09 79.71 29.86 79.71 29.51 79.71 29.17"/>
        <line class="cls-2" x1="88.4" y1="31.92" x2="79.71" y2="31.69"/>
        <line class="cls-2" x1="88.4" y1="32.27" x2="88.4" y2="31.92"/>
        <line class="cls-2" x1="79.71" y1="32.04" x2="88.4" y2="32.27"/>
        <polyline class="cls-2" points="79.71 34.44 79.71 34.22 79.71 33.87 79.71 33.53 79.71 33.3 79.71 32.95 79.71 32.72 79.71 32.38 79.71 32.04"/>
        <line class="cls-2" x1="88.4" y1="34.9" x2="79.71" y2="34.44"/>
        <line class="cls-2" x1="88.4" y1="35.25" x2="88.4" y2="34.9"/>
        <line class="cls-2" x1="79.71" y1="34.9" x2="88.4" y2="35.25"/>
        <polyline class="cls-2" points="79.71 37.2 79.71 36.85 79.71 36.62 79.71 36.28 79.71 36.05 79.71 35.71 79.71 35.48 79.71 35.13 79.71 34.9"/>
        <line class="cls-2" x1="88.4" y1="37.77" x2="79.71" y2="37.2"/>
        <line class="cls-2" x1="88.4" y1="38.12" x2="88.4" y2="37.77"/>
        <line class="cls-2" x1="79.71" y1="37.54" x2="88.4" y2="38.12"/>
        <polyline class="cls-2" points="79.71 39.72 79.71 39.49 79.71 39.26 79.71 38.92 79.71 38.69 79.71 38.35 79.71 38.12 79.71 37.89 79.71 37.54"/>
        <line class="cls-2" x1="88.4" y1="40.53" x2="79.71" y2="39.72"/>
        <line class="cls-2" x1="88.4" y1="40.87" x2="88.4" y2="40.53"/>
        <line class="cls-2" x1="79.71" y1="40.07" x2="88.4" y2="40.87"/>
        <polyline class="cls-2" points="79.71 42.13 79.71 41.9 79.71 41.67 79.71 41.44 79.71 41.1 79.71 40.87 79.71 40.64 79.71 40.41 79.71 40.07"/>
        <polyline class="cls-2" points="91.2 43.39 88.4 43.16 79.71 42.13"/>
        <polyline class="cls-2" points="100.7 52.69 100.7 52.92 100.6 53.03 100.6 53.15 100.6 53.26 100.4 53.38 100.3 53.38 100.2 53.49 99.9 53.49 99.4 53.61 99.2 53.61 98.9 53.61"/>
        <polyline class="cls-2" points="98.9 53.61 98.7 53.61 98.4 53.61 98 53.49 97.6 53.49 97.5 53.38 97.4 53.38 97.3 53.26 97.2 53.03 97.1 52.92 97.1 52.8"/>
        <polyline class="cls-2" points="97.1 52.8 97.1 52.69 97.1 52.57 97.2 52.34 97.3 52.11 97.4 52 97.5 51.88 97.6 51.77 97.8 51.65 98 51.54 98.4 51.43 98.7 51.43 98.9 51.43"/>
        <polyline class="cls-2" points="98.9 51.43 99.2 51.43 99.4 51.43 99.9 51.54 100 51.65 100.2 51.77 100.3 51.88 100.4 52 100.6 52.11 100.6 52.34 100.7 52.57 100.7 52.69"/>
        <polyline class="cls-2" points="96.1 52.92 96.1 52.8 96.1 52.69 96.1 52.46 96.1 52.34 96.1 52.11 96.1 51.88 96.1 51.77 96.1 51.54"/>
        <line class="cls-2" x1="96.1" y1="52.92" x2="96.8" y2="52.92"/>
        <polyline class="cls-2" points="96.8 53.15 96.8 53.03 96.8 52.92"/>
        <line class="cls-2" x1="96.8" y1="53.15" x2="96.1" y2="53.15"/>
        <polyline class="cls-2" points="96.1 53.61 96.1 53.49 96.1 53.38 96.1 53.26 96.1 53.15"/>
        <line class="cls-2" x1="96.1" y1="53.61" x2="95.4" y2="53.61"/>
        <polyline class="cls-2" points="95.4 53.61 95.4 53.49 95.4 53.38 95.4 53.26 95.4 53.15"/>
        <line class="cls-2" x1="95.4" y1="53.15" x2="93" y2="53.15"/>
        <polyline class="cls-2" points="93 52.92 94.2 52.23 95.4 51.54"/>
        <line class="cls-2" x1="95.4" y1="51.54" x2="96.1" y2="51.54"/>
        <polyline class="cls-2" points="100.1 45.92 99.9 46.03 99.5 46.26 98.8 46.38"/>
        <polyline class="cls-2" points="98.8 46.38 98.1 46.26 97.3 46.03"/>
        <polyline class="cls-2" points="97.3 46.03 97.3 45.92 97.3 45.8 97.3 45.69 97.3 45.57 97.3 45.46 97.3 45.34"/>
        <line class="cls-2" x1="97.3" y1="45.34" x2="97.4" y2="45.34"/>
        <polyline class="cls-2" points="97.4 45.34 98 45.69 98.8 45.8"/>
        <polyline class="cls-2" points="98.8 45.8 99.2 45.69 99.4 45.69 99.6 45.46"/>
        <polyline class="cls-2" points="99.6 45.46 99.7 45.34 99.8 45.11 99.9 44.66"/>
        <polyline class="cls-2" points="99.9 44.66 99.8 44.31 99.7 44.08 99.6 43.85"/>
        <polyline class="cls-2" points="99.6 43.85 99.4 43.74 99.1 43.74 98.6 43.62"/>
        <line class="cls-2" x1="98.6" y1="43.62" x2="97.6" y2="43.74"/>
        <polyline class="cls-2" points="97.6 43.74 97.6 43.39 97.6 43.05 97.6 42.71 97.6 42.36 97.6 42.02 97.6 41.67 97.6 41.33 97.6 40.87"/>
        <line class="cls-2" x1="97.6" y1="40.87" x2="100.6" y2="40.87"/>
        <polyline class="cls-2" points="100.6 41.56 100.6 41.44 100.6 41.33 100.6 41.21 100.6 41.1 100.6 40.98 100.6 40.87"/>
        <line class="cls-2" x1="100.6" y1="41.56" x2="98.2" y2="41.56"/>
        <polyline class="cls-2" points="98.2 43.05 98.2 42.94 98.2 42.71 98.2 42.48 98.2 42.36 98.2 42.13 98.2 41.9 98.2 41.79 98.2 41.56"/>
        <polyline class="cls-2" points="98.2 43.05 98.5 43.05 98.8 43.05"/>
        <polyline class="cls-2" points="98.8 43.05 99.5 43.16 99.8 43.16 100.1 43.39"/>
        <polyline class="cls-2" points="100.1 43.39 100.3 43.62 100.5 43.97 100.6 44.66"/>
        <polyline class="cls-2" points="100.6 44.66 100.5 45.34 100.1 45.92"/>
        <polyline class="cls-2" points="96.1 44.31 96.1 43.85 96.1 43.51 96.1 43.05 96.1 42.59 96.1 42.25 96.1 41.79 96.1 41.33 96.1 40.87"/>
        <line class="cls-2" x1="96.1" y1="44.31" x2="96.8" y2="44.31"/>
        <polyline class="cls-2" points="96.8 44.89 96.8 44.77 96.8 44.66 96.8 44.54 96.8 44.43 96.8 44.31"/>
        <line class="cls-2" x1="96.8" y1="44.89" x2="96.1" y2="44.89"/>
        <polyline class="cls-2" points="96.1 46.26 96.1 46.15 96.1 46.03 96.1 45.92 96.1 45.69 96.1 45.57 96.1 45.34 96.1 45.23 96.1 45 96.1 44.89"/>
        <line class="cls-2" x1="96.1" y1="46.26" x2="95.4" y2="46.26"/>
        <polyline class="cls-2" points="95.4 46.26 95.4 46.15 95.4 46.03 95.4 45.92 95.4 45.69 95.4 45.57 95.4 45.34 95.4 45.23 95.4 45 95.4 44.89"/>
        <line class="cls-2" x1="95.4" y1="44.89" x2="93" y2="44.89"/>
        <polyline class="cls-2" points="93 44.08 94.2 42.48 95.4 40.87"/>
        <line class="cls-2" x1="95.4" y1="40.87" x2="96.1" y2="40.87"/>
        <polyline class="cls-2" points="100.7 4.96 100.7 5.07 100.7 5.19 100.6 5.42 100.6 5.65 100.4 5.88 100.3 5.99 100.2 6.11 99.9 6.22 99.4 6.34 99.2 6.34 98.9 6.34"/>
        <polyline class="cls-2" points="98.9 6.34 98.7 6.34 98.4 6.34 98 6.22 97.6 6.11 97.5 5.99 97.4 5.88 97.3 5.65 97.2 5.42 97.1 5.19 97.1 5.07 97.1 4.96"/>
        <polyline class="cls-2" points="97.1 4.96 97.1 4.84 97.2 4.61 97.3 4.5 97.4 4.39 97.5 4.27 97.6 4.27 97.8 4.16 98 4.16 98.4 4.04 98.7 4.04 98.9 4.04"/>
        <polyline class="cls-2" points="98.9 4.04 99.2 4.04 99.4 4.04 99.9 4.16 100 4.16 100.2 4.27 100.3 4.27 100.4 4.39 100.6 4.5 100.6 4.61 100.7 4.84 100.7 4.96"/>
        <polyline class="cls-2" points="95.4 5.99 95.4 5.65 95.4 5.42 95.4 5.19 95.4 4.84 95.4 4.61 95.4 4.5 95.4 4.27 95.4 4.16"/>
        <line class="cls-2" x1="95.4" y1="5.99" x2="96.4" y2="5.99"/>
        <polyline class="cls-2" points="96.4 6.34 96.4 6.22 96.4 6.11 96.4 5.99"/>
        <line class="cls-2" x1="96.4" y1="6.34" x2="93.7" y2="6.34"/>
        <polyline class="cls-2" points="93.7 6.34 93.7 6.22 93.7 6.11 93.7 5.99"/>
        <line class="cls-2" x1="93.7" y1="5.99" x2="94.8" y2="5.99"/>
        <polyline class="cls-2" points="94.8 5.99 94.8 5.76 94.8 5.53 94.8 5.3 94.8 5.19 94.8 4.96 94.8 4.73 94.8 4.61 94.8 4.5"/>
        <line class="cls-2" x1="94.8" y1="4.5" x2="93.7" y2="4.5"/>
        <polyline class="cls-2" points="93.7 4.5 93.7 4.39 93.7 4.27"/>
        <polyline class="cls-2" points="93.7 4.27 94.1 4.27 94.5 4.27"/>
        <polyline class="cls-2" points="94.5 4.27 94.7 4.27 94.8 4.16 94.9 4.16"/>
        <line class="cls-2" x1="94.9" y1="4.16" x2="95.4" y2="4.16"/>
        <polyline class="cls-2" points="98.2 16.66 97.9 16.89 97.5 17.12 96.8 17.24"/>
        <polyline class="cls-2" points="96.8 17.24 96.1 17.12 95.4 16.89"/>
        <polyline class="cls-2" points="95.4 16.89 95.4 16.78 95.4 16.66 95.4 16.55 95.4 16.43 95.4 16.32 95.4 16.2 95.4 16.09"/>
        <polyline class="cls-2" points="95.4 16.09 96.1 16.43 96.8 16.55"/>
        <polyline class="cls-2" points="96.8 16.55 97.2 16.55 97.4 16.43 97.6 16.2"/>
        <polyline class="cls-2" points="97.6 16.2 97.8 16.09 97.9 15.86 97.9 15.4 97.9 15.28"/>
        <polyline class="cls-2" points="97.9 15.28 97.8 14.83 97.7 14.71 97.6 14.48"/>
        <polyline class="cls-2" points="97.6 14.48 97.4 14.37 97.1 14.37 96.6 14.25"/>
        <line class="cls-2" x1="96.6" y1="14.25" x2="95.6" y2="14.37"/>
        <polyline class="cls-2" points="95.6 14.37 95.6 14.02 95.6 13.68 95.6 13.33 95.6 12.99 95.6 12.65 95.6 12.42 95.6 12.07 95.6 11.73"/>
        <line class="cls-2" x1="95.6" y1="11.73" x2="98.6" y2="11.73"/>
        <polyline class="cls-2" points="98.6 12.3 98.6 12.19 98.6 12.07 98.6 11.96 98.6 11.84 98.6 11.73"/>
        <line class="cls-2" x1="98.6" y1="12.3" x2="96.2" y2="12.3"/>
        <polyline class="cls-2" points="96.2 13.68 96.2 13.45 96.2 13.33 96.2 13.1 96.2 12.99 96.2 12.76 96.2 12.65 96.2 12.42 96.2 12.3"/>
        <polyline class="cls-2" points="96.2 13.68 96.5 13.68 96.8 13.68"/>
        <polyline class="cls-2" points="96.8 13.68 97.5 13.68 97.8 13.79 98.1 14.02"/>
        <polyline class="cls-2" points="98.1 14.02 98.3 14.25 98.5 14.6 98.6 15.28"/>
        <polyline class="cls-2" points="98.6 15.28 98.5 16.09 98.2 16.66"/>
        <polyline class="cls-2" points="93 53.95 93 53.83 93 53.72 93 53.38 93 53.15 93 52.92 93 52.34 93 51.77 93 50.97 93 50.16 93 49.25 93 48.21 93 47.07 93 45.92 93 44.89 93 44.77 93 44.66 93 44.08 93 43.28 93 41.9 93 40.41 93 38.8 93 37.31 93 35.71 93 34.1 93 32.38 93 30.77 93 29.05 93 27.33 93 25.73 93 24 93 22.4 93 20.79 93 19.19 93 17.69 93 16.2 93 14.71 93 13.33 93 12.07 93 10.81 93 9.66 93 8.63 93 7.71 93 6.79 93 5.99 93 5.42 93 4.84 93 4.39 93 4.04 93 3.7 93 3.58"/>
        <polyline class="cls-2" points="98.7 29.05 98.7 29.63 98.7 30.2 98.6 30.77 98.4 31.23 98.3 31.58 98.2 31.81 97.9 32.15 97.4 32.38 97.2 32.49 96.9 32.49"/>
        <polyline class="cls-2" points="96.9 32.49 96.7 32.49 96.4 32.38 96 32.15 95.7 31.81 95.5 31.58 95.4 31.23 95.3 30.77 95.2 30.2 95.2 29.63 95.1 29.05"/>
        <polyline class="cls-2" points="95.1 29.05 95.2 28.48 95.2 27.91 95.3 27.33 95.4 26.76 95.5 26.53 95.6 26.3 95.8 26.07 96 25.84 96.4 25.61 96.7 25.61 96.9 25.61"/>
        <polyline class="cls-2" points="96.9 25.61 97.2 25.61 97.4 25.61 97.9 25.84 98.1 26.07 98.2 26.3 98.3 26.53 98.4 26.76 98.6 27.33 98.7 27.91 98.7 28.48 98.7 28.82 98.7 29.05"/>
        <polyline class="cls-2" points="109.89 40.64 109.89 40.87 109.89 40.98 109.89 41.1 109.99 41.33 109.99 41.56 110.09 41.9 110.19 42.13 110.29 42.36 110.49 42.71 110.69 43.05 110.89 43.51 111.19 43.85 111.49 44.2 111.79 44.54 112.09 44.89 112.39 45.11"/>
        <line class="cls-2" x1="112.39" y1="45.11" x2="135.08" y2="45.11"/>
        <polyline class="cls-2" points="112.39 12.88 111.59 13.68 110.89 14.6 110.49 15.28 110.19 15.86 109.99 16.43 109.89 17.01 109.89 17.35"/>
        <line class="cls-2" x1="112.39" y1="12.88" x2="135.08" y2="12.88"/>
        <line class="cls-2" x1="112.39" y1="37.43" x2="135.08" y2="37.43"/>
        <line class="cls-2" x1="112.39" y1="20.79" x2="135.08" y2="20.79"/>
        <polyline class="cls-2" points="109.89 40.3 109.89 39.26 109.89 37.89 109.89 36.51 109.89 35.02 109.89 33.53 109.89 32.04 109.89 30.54 109.89 29.05"/>
        <polyline class="cls-2" points="112.39 37.43 111.59 37.77 110.89 38.46 110.49 38.8 110.19 39.38 109.89 40.3 109.89 40.64"/>
        <polyline class="cls-2" points="112.39 37.43 112.39 36.85 112.39 36.4 112.39 35.94 112.39 35.36 112.39 34.9 112.39 34.44 112.39 33.87 112.39 33.41"/>
        <polyline class="cls-2" points="109.89 29.05 109.99 29.86 110.29 30.77 110.69 31.58 111.19 32.27 111.79 32.84 112.39 33.41"/>
        <line class="cls-2" x1="112.39" y1="33.41" x2="135.08" y2="33.41"/>
        <line class="cls-2" x1="112.39" y1="24.69" x2="135.08" y2="24.69"/>
        <polyline class="cls-2" points="109.89 17.35 109.99 18.04 110.29 18.84 110.69 19.53 111.19 19.99 112.39 20.79"/>
        <polyline class="cls-2" points="109.89 28.48 109.89 27.56 109.89 26.07 109.89 24.58 109.89 23.09 109.89 21.6 109.89 20.22 109.89 18.73 109.89 17.35"/>
        <polyline class="cls-2" points="112.39 24.69 112.19 24.92 111.79 25.27 111.39 25.61 111.19 25.95 110.99 26.18 110.89 26.3 110.79 26.41 110.59 26.76 110.39 26.99 110.29 27.33 110.19 27.56 110.09 27.79 109.99 28.02 109.99 28.13 109.89 28.48 109.89 28.59 109.89 28.94 109.89 29.05"/>
        <polyline class="cls-2" points="112.39 24.69 112.39 24.23 112.39 23.77 112.39 23.2 112.39 22.74 112.39 22.28 112.39 21.71 112.39 21.25 112.39 20.79"/>
        <polyline class="cls-2" points="142.27 20.68 142.27 20.79 142.27 21.02 142.27 21.25 142.27 21.71 142.27 22.17 142.27 22.74 142.27 23.43 142.27 24.12 142.27 24.92 142.27 25.84 142.27 26.76 142.27 27.68 142.27 28.59 142.27 29.63 142.27 30.54 142.27 31.46 142.27 32.38 142.27 33.18 142.27 33.87 142.27 34.67 142.27 35.25 142.27 35.82 142.27 36.17 142.27 36.51 142.27 36.74 142.27 36.85"/>
        <polyline class="cls-2" points="63.12 125.43 63.12 117.4 63.12 108.68 63.12 100.64"/>
        <polyline class="cls-2" points=".25 98.47 .25 98.35 .25 98.12 .25 97.89"/>
        <polyline class="cls-2" points=".25 97.89 .25 97.43 .25 96.97 .25 96.4 .25 95.71 .25 95.14 .25 94.45 .25 93.65 .25 92.96 .25 92.38 .25 91.7 .25 91.12 .25 90.66 .25 90.2 .25 89.97 .25 89.75 .25 89.63"/>
        <polyline class="cls-2" points=".75 89.17 .75 89.29 .75 89.4 .75 89.75 .75 90.09 .75 90.55 .75 91.12 .75 91.81 .75 92.5 .75 93.19 .75 93.88 .75 94.68 .75 95.37 .75 96.06 .75 96.74 .75 97.32 .75 97.89 .75 98.24"/>
        <polyline class="cls-2" points=".75 98.24 .75 98.58 .75 98.81 .75 98.92"/>
        <polyline class="cls-2" points=".25 136.44 .25 136.33 .25 136.1 .25 135.87"/>
        <polyline class="cls-2" points=".25 135.87 .25 135.41 .25 134.95 .25 134.38 .25 133.8 .25 133.11 .25 132.43 .25 131.74 .25 131.05 .25 130.36 .25 129.67 .25 129.1 .25 128.64 .25 128.3 .25 127.95 .25 127.72 .25 127.61"/>
        <polyline class="cls-2" points=".75 127.15 .75 127.26 .75 127.38 .75 127.72 .75 128.07 .75 128.52 .75 129.1 .75 129.79 .75 130.48 .75 131.16 .75 131.97 .75 132.65 .75 133.34 .75 134.15 .75 134.72 .75 135.29 .75 135.87 .75 136.21"/>
        <polyline class="cls-2" points=".75 136.21 .75 136.56 .75 136.79 .75 136.9"/>
        <polyline class="cls-2" points="68.31 127.61 68.31 127.72 68.31 127.95 68.31 128.3"/>
        <polyline class="cls-2" points="68.31 128.3 68.31 128.64 68.31 129.1 68.31 129.67 68.31 130.36 68.31 131.05 68.31 131.74 68.31 132.43 68.31 133.11 68.31 133.8 68.31 134.38 68.31 134.95 68.31 135.41 68.31 135.87 68.31 136.1 68.31 136.33 68.31 136.44"/>
        <polyline class="cls-2" points="67.91 136.9 67.91 136.67 67.91 136.44 67.91 135.98 67.91 135.52 67.91 134.95 67.91 134.38 67.91 133.69 67.91 132.88 67.91 132.2 67.91 131.39 67.91 130.7 67.91 130.02 67.91 129.33 67.91 128.75 67.91 128.3 67.91 127.84"/>
        <polyline class="cls-2" points="67.91 127.84 67.91 127.49 67.91 127.26 67.91 127.15"/>
        <polyline class="cls-2" points="63.52 127.15 63.52 127.26 63.52 127.49 63.52 127.84"/>
        <polyline class="cls-2" points="63.52 127.84 63.52 128.3 63.52 128.75 63.52 129.33 63.52 130.02 63.52 130.7 63.52 131.39 63.52 132.2 63.52 132.88 63.52 133.69 63.52 134.38 63.52 134.95 63.52 135.52 63.52 135.98 63.52 136.44 63.52 136.67 63.52 136.9"/>
        <polyline class="cls-2" points="68.31 108.68 68.31 108.79 68.31 108.91 68.31 109.25"/>
        <polyline class="cls-2" points="68.31 109.25 68.31 109.59 68.31 110.17 68.31 110.74 68.31 111.31 68.31 112 68.31 112.69 68.31 113.38 68.31 114.07 68.31 114.76 68.31 115.45 68.31 115.9 68.31 116.48 68.31 116.82 68.31 117.17 68.31 117.4"/>
        <polyline class="cls-2" points="67.91 117.97 67.91 117.85 67.91 117.63 67.91 117.4 67.91 117.05 67.91 116.48 67.91 115.9 67.91 115.33 67.91 114.64 67.91 113.95 67.91 113.15 67.91 112.46 67.91 111.66 67.91 110.97 67.91 110.4 67.91 109.71 67.91 109.25 67.91 108.79"/>
        <polyline class="cls-2" points="67.91 108.79 67.91 108.45 67.91 108.33 67.91 108.22"/>
        <polyline class="cls-2" points="63.52 108.22 63.52 108.33 63.52 108.45 63.52 108.79"/>
        <polyline class="cls-2" points="63.52 108.79 63.52 109.25 63.52 109.71 63.52 110.4 63.52 110.97 63.52 111.66 63.52 112.46 63.52 113.15 63.52 113.95 63.52 114.64 63.52 115.33 63.52 115.9 63.52 116.48 63.52 117.05 63.52 117.4 63.52 117.63 63.52 117.85 63.52 117.97"/>
        <polyline class="cls-2" points="68.31 89.63 68.31 89.75 68.31 89.97 68.31 90.2"/>
        <polyline class="cls-2" points="68.31 90.2 68.31 90.66 68.31 91.12 68.31 91.7 68.31 92.38 68.31 92.96 68.31 93.65 68.31 94.45 68.31 95.14 68.31 95.71 68.31 96.4 68.31 96.97 68.31 97.43 68.31 97.89 68.31 98.12 68.31 98.35 68.31 98.47"/>
        <polyline class="cls-2" points="67.91 98.92 67.91 98.81 67.91 98.69 67.91 98.35 67.91 98.01 67.91 97.55 67.91 96.97 67.91 96.29 67.91 95.6 67.91 94.91 67.91 94.22 67.91 93.42 67.91 92.73 67.91 92.04 67.91 91.35 67.91 90.78 67.91 90.2 67.91 89.86"/>
        <polyline class="cls-2" points="67.91 89.86 67.91 89.52 67.91 89.29 67.91 89.17"/>
        <polyline class="cls-2" points="63.52 89.17 63.52 89.29 63.52 89.52 63.52 89.86"/>
        <polyline class="cls-2" points="63.52 89.86 63.52 90.2 63.52 90.78 63.52 91.35 63.52 92.04 63.52 92.73 63.52 93.42 63.52 94.22 63.52 94.91 63.52 95.6 63.52 96.29 63.52 96.97 63.52 97.55 63.52 98.01 63.52 98.35 63.52 98.69 63.52 98.81 63.52 98.92"/>
        <polyline class="cls-2" points=".25 117.4 .25 117.17 .25 116.82"/>
        <polyline class="cls-2" points=".25 116.82 .25 116.48 .25 115.9 .25 115.45 .25 114.76 .25 114.07 .25 113.38 .25 112.69 .25 112 .25 111.31 .25 110.74 .25 110.17 .25 109.59 .25 109.25 .25 108.91 .25 108.79 .25 108.68"/>
        <polyline class="cls-2" points=".75 108.22 .75 108.45 .75 108.68 .75 109.14 .75 109.59 .75 110.17 .75 110.74 .75 111.43 .75 112.23 .75 112.92 .75 113.72 .75 114.41 .75 115.1 .75 115.79 .75 116.36 .75 116.82 .75 117.28"/>
        <polyline class="cls-2" points=".75 117.28 .75 117.63 .75 117.85 .75 117.97"/>
        <polyline class="cls-2" points="64.52 28.59 64.52 28.82 64.52 28.94"/>
        <polyline class="cls-2" points="64.52 8.29 64.52 8.4 64.52 8.52 64.52 8.86 64.52 9.2 64.52 9.66 64.52 10.35 64.52 11.04 64.52 11.84 64.52 12.76 64.52 13.68 64.52 14.71 64.52 15.86 64.52 17.12 64.52 18.38 64.52 19.76 64.52 21.14 64.52 22.63 64.52 24 64.52 25.5 64.52 27.1 64.52 28.59"/>
        <polyline class="cls-2" points="64.52 28.94 64.52 30.54 64.52 32.04 64.52 33.53 64.52 35.02 64.52 36.4 64.52 37.77 64.52 39.15 64.52 40.41 64.52 41.67 64.52 42.82 64.52 43.85 64.52 44.89 64.52 45.8 64.52 46.61 64.52 47.29 64.52 47.87 64.52 48.33 64.52 48.79 64.52 49.02 64.52 49.13 64.52 49.25"/>
        <line class="cls-2" x1="79.71" y1="28.94" x2="64.52" y2="28.94"/>
        <line class="cls-2" x1="64.52" y1="28.59" x2="79.71" y2="28.59"/>
        <polyline class="cls-2" points="135.08 .25 135.08 .37 135.08 .6 135.08 .83 135.08 1.29 135.08 1.75 135.08 2.43 135.08 3.12 135.08 3.93 135.08 4.16 135.08 4.84 135.08 5.88 135.08 7.02 135.08 8.17 135.08 9.43 135.08 9.66 135.08 10.81 135.08 12.3 135.08 12.88 135.08 13.79 135.08 15.28 135.08 16.89 135.08 18.61 135.08 20.22 135.08 20.79 135.08 21.94 135.08 23.77 135.08 24.69 135.08 25.5 135.08 27.33 135.08 29.05"/>
        <polyline class="cls-2" points="135.08 29.05 135.08 30.89 135.08 32.61 135.08 33.41 135.08 34.44 135.08 36.17 135.08 37.43 135.08 37.89 135.08 39.49 135.08 41.21 135.08 42.82 135.08 44.31 135.08 45.11 135.08 45.8 135.08 47.18 135.08 48.33 135.08 48.56 135.08 49.7 135.08 50.97 135.08 52 135.08 53.03 135.08 53.61 135.08 53.95 135.08 54.75 135.08 55.44 135.08 56.01 135.08 56.47 135.08 56.82 135.08 57.05 135.08 57.28"/>
        <polyline class="cls-2" points="140.87 1.98 140.87 2.09 140.87 2.32 140.87 2.55 140.87 3.01 140.87 3.58 140.87 4.27 140.87 4.96 140.87 5.88 140.87 6.79 140.87 7.83 140.87 8.97 140.87 10.12 140.87 11.5 140.87 12.76 140.87 14.25 140.87 15.74 140.87 17.24 140.87 18.84 140.87 19.07 140.87 20.45 140.87 22.17 140.87 23.89 140.87 25.61 140.87 27.33 140.87 29.05"/>
        <polyline class="cls-2" points="140.87 29.05 140.87 30.77 140.87 32.49 140.87 34.22 140.87 35.94 140.87 37.54 140.87 38.46 140.87 39.26 140.87 40.76 140.87 42.36 140.87 43.74 140.87 45.23 140.87 46.49 140.87 47.75 140.87 49.02 140.87 50.05 140.87 51.08 140.87 52 140.87 52.8 140.87 53.61 140.87 54.18 140.87 54.75 140.87 55.1 140.87 55.44 140.87 55.56 140.87 55.67"/>
        <polyline class="cls-2" points="139.37 .25 139.37 .37 139.37 .6 139.37 .83 139.37 1.29 139.37 1.75 139.37 2.43 139.37 3.12 139.37 3.93 139.37 4.84 139.37 5.88 139.37 7.02 139.37 8.17 139.37 9.43 139.37 10.81 139.37 12.3 139.37 13.79 139.37 15.28 139.37 16.89 139.37 18.61 139.37 20.22 139.37 21.94 139.37 23.77 139.37 25.5 139.37 27.33 139.37 29.05"/>
        <polyline class="cls-2" points="139.37 29.05 139.37 30.89 139.37 32.61 139.37 34.44 139.37 36.17 139.37 37.89 139.37 39.49 139.37 41.21 139.37 42.82 139.37 44.31 139.37 45.8 139.37 47.18 139.37 48.56 139.37 49.7 139.37 50.97 139.37 52 139.37 53.03 139.37 53.95 139.37 54.75 139.37 55.44 139.37 56.01 139.37 56.47 139.37 56.82 139.37 57.05 139.37 57.28"/>
        <line class="cls-2" x1="62.42" y1="81.26" x2="62.42" y2="81.94"/>
        <line class="cls-2" x1="62.42" y1="144.13" x2="62.42" y2="144.82"/>
        <line class="cls-2" x1="4.85" y1="11.38" x2="4.85" y2="26.3"/>
        <line class="cls-2" x1="62.42" y1="11.38" x2="62.42" y2="26.3"/>
        <line class="cls-2" x1="4.85" y1="11.38" x2="4.85" y2="4.04"/>
        <polyline class="cls-2" points="62.42 11.38 62.42 8.29 62.42 4.04"/>
        <line class="cls-2" x1="62.42" y1="11.38" x2="4.85" y2="11.38"/>
        <line class="cls-2" x1="62.42" y1="4.04" x2="4.85" y2="4.04"/>
        <polyline class="cls-2" points="4.85 46.95 4.85 46.72 4.85 46.49 4.85 46.03 4.85 45.57 4.85 44.89 4.85 44.2 4.85 43.39 4.85 42.48 4.85 41.44 4.85 40.41 4.85 39.15 4.85 37.89 4.85 36.62 4.85 35.25 4.85 33.87 4.85 32.38 4.85 30.89 4.85 29.4 4.85 27.91 4.85 26.3"/>
        <polyline class="cls-2" points="62.42 46.95 62.42 46.72 62.42 46.49 62.42 46.03 62.42 45.57 62.42 44.89 62.42 44.2 62.42 43.39 62.42 42.48 62.42 41.44 62.42 40.41 62.42 39.15 62.42 37.89 62.42 36.62 62.42 35.25 62.42 33.87 62.42 32.38 62.42 30.89 62.42 29.4 62.42 27.91 62.42 26.3"/>
        <line class="cls-2" x1="62.42" y1="26.3" x2="4.85" y2="26.3"/>
        <polyline class="cls-2" points="57.32 144.82 57.32 144.59 57.32 144.36 57.32 144.13"/>
        <polyline class="cls-2" points="57.32 81.94 57.32 81.71 57.32 81.48 57.32 81.26"/>
        <polyline class="cls-2" points="62.42 75.52 62.42 76.55 62.42 77.47 62.42 78.39 62.42 79.08 62.42 79.76 62.42 80.34 62.42 80.68 62.42 81.03 62.42 81.14 62.42 81.26"/>
        <polyline class="cls-2" points="62.42 81.26 57.32 81.26 36.53 81.26"/>
        <polyline class="cls-2" points="62.42 144.82 62.42 144.93 62.42 145.05 62.42 145.39 62.42 145.85 62.42 146.31 62.42 147 62.42 147.68 62.42 148.6 62.42 149.52 62.42 150.55"/>
        <polyline class="cls-2" points="62.42 144.82 57.32 144.82 36.53 144.82"/>
        <line class="cls-2" x1="62.42" y1="179.12" x2="36.53" y2="179.12"/>
        <line class="cls-2" x1="62.42" y1="179.12" x2="62.42" y2="157.55"/>
        <polyline class="cls-2" points="62.42 68.52 62.42 69.44 62.42 70.47 62.42 71.39 62.42 72.31 62.42 73.22 62.42 74.03 62.42 74.83 62.42 75.52"/>
        <line class="cls-2" x1="62.42" y1="75.52" x2="36.53" y2="75.52"/>
        <line class="cls-2" x1="62.42" y1="150.55" x2="36.53" y2="150.55"/>
        <line class="cls-2" x1="62.42" y1="157.55" x2="36.53" y2="157.55"/>
        <polyline class="cls-2" points="62.42 150.55 62.42 151.36 62.42 152.04 62.42 152.96 62.42 153.77 62.42 154.68 62.42 155.72 62.42 156.63 62.42 157.55"/>
        <line class="cls-2" x1="62.42" y1="46.95" x2="36.53" y2="46.95"/>
        <polyline class="cls-2" points="62.42 46.95 62.42 49.25 62.42 68.52"/>
        <line class="cls-2" x1="62.42" y1="68.52" x2="36.53" y2="68.52"/>
        <line class="cls-2" x1="36.53" y1="171.66" x2="36.53" y2="179.12"/>
        <line class="cls-2" x1="4.85" y1="171.66" x2="4.85" y2="179.12"/>
        <line class="cls-2" x1="36.53" y1="179.12" x2="4.85" y2="179.12"/>
        <line class="cls-2" x1="36.53" y1="46.95" x2="36.53" y2="54.41"/>
        <line class="cls-2" x1="4.85" y1="46.95" x2="4.85" y2="54.41"/>
        <line class="cls-2" x1="36.53" y1="46.95" x2="4.85" y2="46.95"/>
        <polyline class="cls-2" points="36.53 171.66 36.53 157.55 36.53 150.55 36.53 144.82 36.53 144.13 36.53 135.75 36.53 90.32 36.53 81.94 36.53 81.26 36.53 75.52 36.53 68.52 36.53 54.41"/>
        <polyline class="cls-2" points="4.85 171.66 4.85 163.86 4.85 62.21 4.85 54.41"/>
        <line class="cls-2" x1="36.53" y1="171.66" x2="4.85" y2="171.66"/>
        <line class="cls-2" x1="36.53" y1="54.41" x2="4.85" y2="54.41"/>
        <line class="cls-2" x1="2.65" y1="163.86" x2="4.85" y2="163.86"/>
        <line class="cls-2" x1="4.85" y1="62.21" x2="2.65" y2="62.21"/>
        <line class="cls-2" x1="112.39" y1="57.28" x2="135.08" y2="57.28"/>
        <line class="cls-2" x1="135.08" y1=".25" x2="112.39" y2=".25"/>
        <line class="cls-2" x1="109.89" y1="55.67" x2="112.39" y2="57.28"/>
        <line class="cls-2" x1="112.39" y1=".25" x2="109.89" y2="1.98"/>
        <polyline class="cls-2" points="79.71 51.54 86.59 52.79 93 53.95"/>
        <line class="cls-2" x1="93" y1="3.58" x2="79.71" y2="6.11"/>
        <line class="cls-2" x1="109.89" y1="3.58" x2="93" y2="3.58"/>
        <line class="cls-2" x1="93" y1="53.95" x2="109.89" y2="53.95"/>
        <line class="cls-2" x1="142.27" y1="20.68" x2="140.87" y2="19.07"/>
        <line class="cls-2" x1="140.87" y1="38.46" x2="142.27" y2="36.85"/>
        <line class="cls-2" x1=".25" y1="98.47" x2=".75" y2="98.92"/>
        <line class="cls-2" x1=".75" y1="89.17" x2=".25" y2="89.63"/>
        <line class="cls-2" x1=".75" y1="98.92" x2="2.65" y2="98.92"/>
        <line class="cls-2" x1="2.65" y1="89.17" x2=".75" y2="89.17"/>
        <line class="cls-2" x1=".25" y1="136.44" x2=".75" y2="136.9"/>
        <line class="cls-2" x1=".75" y1="127.15" x2=".25" y2="127.61"/>
        <line class="cls-2" x1=".75" y1="136.9" x2="2.65" y2="136.9"/>
        <line class="cls-2" x1="2.65" y1="127.15" x2=".75" y2="127.15"/>
        <line class="cls-2" x1="63.12" y1="136.44" x2="63.52" y2="136.9"/>
        <line class="cls-2" x1="63.52" y1="127.15" x2="63.12" y2="127.61"/>
        <line class="cls-2" x1="68.31" y1="127.61" x2="67.91" y2="127.15"/>
        <line class="cls-2" x1="67.91" y1="136.9" x2="68.31" y2="136.44"/>
        <line class="cls-2" x1="67.91" y1="127.15" x2="63.52" y2="127.15"/>
        <line class="cls-2" x1="63.52" y1="136.9" x2="67.91" y2="136.9"/>
        <line class="cls-2" x1="68.31" y1="108.68" x2="67.91" y2="108.22"/>
        <line class="cls-2" x1="67.91" y1="117.97" x2="68.31" y2="117.4"/>
        <line class="cls-2" x1="63.12" y1="117.4" x2="63.52" y2="117.97"/>
        <line class="cls-2" x1="63.52" y1="108.22" x2="63.12" y2="108.68"/>
        <line class="cls-2" x1="67.91" y1="108.22" x2="63.52" y2="108.22"/>
        <line class="cls-2" x1="63.52" y1="117.97" x2="67.91" y2="117.97"/>
        <line class="cls-2" x1="68.31" y1="89.63" x2="67.91" y2="89.17"/>
        <line class="cls-2" x1="67.91" y1="98.92" x2="68.31" y2="98.47"/>
        <line class="cls-2" x1="63.12" y1="98.47" x2="63.52" y2="98.92"/>
        <line class="cls-2" x1="63.52" y1="89.17" x2="63.12" y2="89.63"/>
        <line class="cls-2" x1="67.91" y1="89.17" x2="63.52" y2="89.17"/>
        <line class="cls-2" x1="63.52" y1="98.92" x2="67.91" y2="98.92"/>
        <line class="cls-2" x1=".25" y1="117.4" x2=".75" y2="117.97"/>
        <line class="cls-2" x1=".75" y1="108.22" x2=".25" y2="108.68"/>
        <line class="cls-2" x1=".75" y1="117.97" x2="2.65" y2="117.97"/>
        <line class="cls-2" x1="2.65" y1="108.22" x2=".75" y2="108.22"/>
        <line class="cls-2" x1="62.42" y1="49.25" x2="64.52" y2="49.25"/>
        <line class="cls-2" x1="64.52" y1="8.29" x2="62.42" y2="8.29"/>
        <line class="cls-2" x1="64.52" y1="49.25" x2="79.71" y2="49.25"/>
        <line class="cls-2" x1="79.71" y1="8.29" x2="64.52" y2="8.29"/>
        <line class="cls-2" x1="135.08" y1="57.28" x2="139.37" y2="57.28"/>
        <line class="cls-2" x1="139.37" y1=".25" x2="135.08" y2=".25"/>
        <line class="cls-2" x1="140.87" y1="1.98" x2="139.37" y2=".25"/>
        <line class="cls-2" x1="139.37" y1="57.28" x2="140.87" y2="55.67"/>
      </g>
    </g>
    <line class="cls-3" x1="32.38" y1="4.04" x2="32.38" y2="179.12"/>
  </g>
</svg>