<?xml version="1.0" encoding="UTF-8"?>
<svg id="Layer_2" data-name="Layer 2" xmlns="http://www.w3.org/2000/svg" viewBox="0 0 115.6 55.29">
  <defs>
    <style>
      .cls-1 {
        fill: #bcbec0;
      }

      .cls-2 {
        stroke: #010101;
        stroke-width: .51px;
      }

      .cls-2, .cls-3 {
        fill: none;
      }

      .cls-2, .cls-3, .cls-4 {
        stroke-linecap: round;
        stroke-linejoin: round;
      }

      .cls-3, .cls-4 {
        stroke: #000;
        stroke-width: 1.44px;
      }

      .cls-4 {
        fill: #f7f8f9;
      }

      .cls-5 {
        fill: #484848;
      }
    </style>
  </defs>
  <g id="Optical_elements" data-name="Optical elements">
    <g id="CP33">
      <g>
        <g>
          <path class="cls-1" d="M84.69,6.38v42.53l-5.66,5.66h-42.53l-5.66-5.66V6.38l5.66-5.66h42.53l5.66,5.66ZM80.29,9.93c0-2.65-2.16-4.81-4.81-4.81s-4.81,2.16-4.81,4.81,2.15,4.81,4.81,4.81,4.81-2.15,4.81-4.81ZM80.29,45.36c0-2.66-2.16-4.81-4.81-4.81s-4.81,2.15-4.81,4.81,2.15,4.81,4.81,4.81,4.81-2.15,4.81-4.81ZM75.61,27.65c0-9.86-7.99-17.85-17.84-17.85s-17.85,7.99-17.85,17.84,7.99,17.85,17.84,17.85,17.85-7.98,17.85-17.84ZM44.86,9.93c0-2.65-2.15-4.81-4.81-4.81s-4.81,2.16-4.81,4.81,2.15,4.81,4.81,4.81,4.81-2.15,4.81-4.81ZM44.86,45.36c0-2.66-2.15-4.81-4.81-4.81s-4.81,2.15-4.81,4.81,2.15,4.81,4.81,4.81,4.81-2.15,4.81-4.81Z"/>
          <path class="cls-1" d="M57.77,9.8c9.85,0,17.84,7.99,17.84,17.85s-7.99,17.84-17.85,17.84-17.84-7.99-17.84-17.85,7.99-17.84,17.85-17.84ZM69.05,27.65c0-6.24-5.05-11.29-11.28-11.29s-11.29,5.05-11.29,11.28,5.05,11.29,11.28,11.29,11.29-5.05,11.29-11.28Z"/>
          <path class="cls-1" d="M57.77,16.36c6.23,0,11.28,5.05,11.28,11.29s-5.05,11.28-11.29,11.28-11.28-5.05-11.28-11.29,5.05-11.28,11.29-11.28ZM64.1,27.65c0-3.5-2.83-6.34-6.33-6.34s-6.34,2.83-6.34,6.33h0c0,3.51,2.83,6.34,6.33,6.34,3.5,0,6.34-2.83,6.34-6.33Z"/>
        </g>
        <g>
          <line class="cls-3" x1="30.84" y1="6.38" x2="36.5" y2=".72"/>
          <line class="cls-3" x1="36.5" y1="54.57" x2="30.84" y2="48.91"/>
          <line class="cls-3" x1="84.69" y1="48.91" x2="79.03" y2="54.57"/>
          <line class="cls-3" x1="79.03" y1=".72" x2="84.69" y2="6.38"/>
          <line class="cls-3" x1="30.84" y1="6.38" x2="30.84" y2="48.91"/>
          <line class="cls-3" x1="36.5" y1="54.57" x2="79.03" y2="54.57"/>
          <line class="cls-3" x1="84.69" y1="48.91" x2="84.69" y2="6.38"/>
          <line class="cls-3" x1="79.03" y1=".72" x2="36.5" y2=".72"/>
          <path class="cls-3" d="M51.43,27.65c0,3.5,2.83,6.33,6.33,6.33,3.5,0,6.34-2.83,6.34-6.33s-2.83-6.34-6.33-6.34-6.34,2.83-6.34,6.33"/>
          <path class="cls-3" d="M69.05,27.65c0-6.24-5.05-11.29-11.28-11.29s-11.29,5.05-11.29,11.28,5.05,11.29,11.28,11.29,11.29-5.05,11.29-11.28Z"/>
          <path class="cls-3" d="M75.61,27.65c0-9.86-7.99-17.85-17.84-17.85s-17.85,7.99-17.85,17.84,7.99,17.85,17.84,17.85,17.85-7.98,17.85-17.84Z"/>
          <circle class="cls-3" cx="40.05" cy="9.93" r="4.81"/>
          <circle class="cls-3" cx="75.48" cy="45.36" r="4.81"/>
          <circle class="cls-3" cx="40.05" cy="45.36" r="4.81"/>
          <circle class="cls-3" cx="75.48" cy="9.93" r="4.81"/>
        </g>
      </g>
      <g id="CP33-2" data-name="CP33">
        <g>
          <circle class="cls-4" cx="57.8" cy="27.65" r="5.67"/>
          <g>
            <g>
              <rect class="cls-5" x="108.81" y="15.79" width="6.53" height="23.71"/>
              <polygon class="cls-5" points="115.34 39.5 114.61 40.23 108.55 40.23 108.81 39.5 115.34 39.5"/>
              <polygon class="cls-5" points="115.34 15.79 108.81 15.79 108.55 15.06 114.61 15.06 115.34 15.79"/>
              <path class="cls-5" d="M108.81,15.79v23.71H6.72V15.79h102.1ZM58.71,27.64v-.11s-.03-.09-.03-.09l-.03-.11-.04-.09-.05-.09-.07-.09-.07-.07-.08-.08-.08-.05-.09-.05-.09-.04-.11-.03-.11-.03h-.2l-.11.03-.11.03-.09.04-.09.05-.08.05-.09.08-.07.07-.07.09-.05.09-.04.09-.03.11v.09s-.03.11-.03.11v.11s.03.11.03.11l.03.09.04.11.05.08.07.09.07.08.09.07.08.07.09.04.09.04.11.04h.11s.11.01.11.01h.2s.11-.05.11-.05l.09-.04.09-.04.08-.07.08-.07.07-.08.07-.09.05-.08.04-.11.03-.09v-.11s.03-.11.03-.11Z"/>
              <polygon class="cls-5" points="108.55 15.06 108.81 15.79 6.72 15.79 6.98 15.06 108.55 15.06"/>
              <polygon class="cls-5" points="108.81 39.5 108.55 40.23 6.98 40.23 6.72 39.5 108.81 39.5"/>
              <polygon class="cls-5" points="6.98 15.06 6.72 15.79 .25 15.79 .92 15.06 6.98 15.06"/>
              <polygon class="cls-5" points="6.72 39.5 6.98 40.23 .92 40.23 .25 39.5 6.72 39.5"/>
              <rect class="cls-5" x=".25" y="15.79" width="6.46" height="23.71"/>
            </g>
            <g>
              <polygon class="cls-2" points="57.77 28.58 57.86 28.58 57.97 28.57 58.08 28.53 58.17 28.49 58.26 28.45 58.34 28.38 58.42 28.32 58.5 28.24 58.56 28.14 58.62 28.06 58.66 27.96 58.68 27.86 58.7 27.76 58.71 27.64 58.7 27.54 58.68 27.44 58.66 27.34 58.62 27.24 58.56 27.15 58.5 27.06 58.42 26.99 58.34 26.91 58.26 26.86 58.17 26.8 58.08 26.76 57.97 26.74 57.86 26.71 57.77 26.71 57.67 26.71 57.56 26.74 57.45 26.76 57.36 26.8 57.27 26.86 57.19 26.91 57.1 26.99 57.03 27.06 56.97 27.15 56.91 27.24 56.87 27.34 56.85 27.44 56.83 27.54 56.82 27.64 56.83 27.76 56.85 27.86 56.87 27.96 56.91 28.06 56.97 28.14 57.03 28.24 57.1 28.32 57.19 28.38 57.27 28.45 57.36 28.49 57.45 28.53 57.56 28.57 57.67 28.58 57.77 28.58"/>
              <line class="cls-2" x1="6.98" y1="15.06" x2="108.55" y2="15.06"/>
              <line class="cls-2" x1="6.98" y1="15.06" x2="6.72" y2="15.79"/>
              <line class="cls-2" x1=".92" y1="15.06" x2="6.98" y2="15.06"/>
              <line class="cls-2" x1=".25" y1="15.79" x2=".92" y2="15.06"/>
              <line class="cls-2" x1="108.55" y1="15.06" x2="108.81" y2="15.79"/>
              <line class="cls-2" x1="114.61" y1="15.06" x2="115.34" y2="15.79"/>
              <line class="cls-2" x1="108.55" y1="15.06" x2="114.61" y2="15.06"/>
              <line class="cls-2" x1="108.81" y1="15.79" x2="6.72" y2="15.79"/>
              <line class="cls-2" x1="108.81" y1="15.79" x2="108.81" y2="39.5"/>
              <line class="cls-2" x1="115.34" y1="15.79" x2="115.34" y2="39.5"/>
              <line class="cls-2" x1="115.34" y1="15.79" x2="108.81" y2="15.79"/>
              <line class="cls-2" x1=".25" y1="15.79" x2=".25" y2="39.5"/>
              <line class="cls-2" x1="6.72" y1="15.79" x2="6.72" y2="39.5"/>
              <line class="cls-2" x1="6.72" y1="15.79" x2=".25" y2="15.79"/>
              <line class="cls-2" x1="114.61" y1="40.23" x2="108.55" y2="40.23"/>
              <line class="cls-2" x1="114.61" y1="40.23" x2="115.34" y2="39.5"/>
              <line class="cls-2" x1="108.81" y1="39.5" x2="115.34" y2="39.5"/>
              <line class="cls-2" x1=".25" y1="39.5" x2=".92" y2="40.23"/>
              <line class="cls-2" x1="6.98" y1="40.23" x2=".92" y2="40.23"/>
              <line class="cls-2" x1=".25" y1="39.5" x2="6.72" y2="39.5"/>
              <line class="cls-2" x1="6.72" y1="39.5" x2="6.98" y2="40.23"/>
              <line class="cls-2" x1="108.55" y1="40.23" x2="6.98" y2="40.23"/>
              <line class="cls-2" x1="108.81" y1="39.5" x2="108.55" y2="40.23"/>
              <line class="cls-2" x1="6.72" y1="39.5" x2="108.81" y2="39.5"/>
            </g>
          </g>
        </g>
      </g>
    </g>
  </g>
</svg>