<?xml version="1.0" encoding="UTF-8"?>
<svg id="Layer_2" data-name="Layer 2" xmlns="http://www.w3.org/2000/svg" width="35.73286mm" height="82.98039mm" viewBox="0 0 101.29 235.22">
  <defs>
    <style>
      .cls-1 {
        fill: none;
        stroke: #010101;
        stroke-linecap: round;
        stroke-linejoin: round;
        stroke-width: .51px;
      }

      .cls-2 {
        fill: #6d6c6d;
      }

      .cls-3 {
        fill: #9895c9;
      }

      .cls-4 {
        fill: #4b4b4b;
      }
    </style>
  </defs>
  <g id="Optical_elements" data-name="Optical elements">
    <g id="IO-5-670_Optical_isolator" data-name="IO-5-670 Optical isolator">
      <g>
        <polygon class="cls-4" points="84.095 .255 84.245 .255 86.345 2.505 86.195 2.505 86.045 2.505 85.745 2.505 85.295 2.505 84.695 2.505 84.095 2.505 83.345 2.505 82.595 2.505 81.695 2.505 80.645 2.505 79.595 2.505 78.395 2.505 77.195 2.505 75.845 2.505 74.495 2.505 72.995 2.505 71.495 2.505 69.995 2.505 68.345 2.505 66.695 2.505 64.895 2.505 63.095 2.505 61.295 2.505 59.495 2.505 57.545 2.505 55.745 2.505 53.795 2.505 51.845 2.505 50.045 2.505 48.095 2.505 46.145 2.505 44.345 2.505 42.395 2.505 40.595 2.505 38.795 2.505 36.995 2.505 35.195 2.505 33.545 2.505 31.895 2.505 30.245 2.505 28.755 2.505 27.255 2.505 25.905 2.505 24.555 2.505 23.205 2.505 22.155 2.505 20.955 2.505 19.905 2.505 19.005 2.505 18.255 2.505 17.505 2.505 16.905 2.505 16.305 2.505 15.855 2.505 15.555 2.505 15.255 2.505 15.105 2.505 17.205 .255 17.355 .255 17.505 .255 17.805 .255 18.105 .255 18.555 .255 19.155 .255 19.905 .255 20.655 .255 21.405 .255 22.455 .255 23.505 .255 24.555 .255 25.755 .255 27.105 .255 28.455 .255 29.795 .255 31.295 .255 32.795 .255 34.445 .255 36.095 .255 37.745 .255 39.395 .255 41.195 .255 42.995 .255 44.795 .255 46.595 .255 48.545 .255 50.345 .255 52.145 .255 54.095 .255 55.895 .255 57.695 .255 59.495 .255 61.295 .255 62.945 .255 64.745 .255 66.395 .255 68.045 .255 69.545 .255 71.045 .255 72.545 .255 73.895 .255 73.895 .405 74.045 .255 74.945 .405 74.945 .255 76.145 .255 77.345 .255 78.395 .255 79.445 .255 80.345 .255 81.095 .255 81.845 .255 82.445 .255 83.045 .255 83.495 .255 83.795 .255 83.945 .255 84.095 .255"/>
        <polygon class="cls-4" points="86.195 2.505 86.345 2.505 86.345 3.855 86.045 3.855 85.745 3.855 85.295 3.855 84.845 3.855 84.245 3.855 83.495 3.855 82.745 3.855 81.845 3.855 80.795 3.855 79.745 3.855 78.545 3.855 77.345 3.855 75.995 3.855 74.645 3.855 73.145 3.855 71.645 3.855 70.145 3.855 68.495 3.855 66.845 3.855 65.045 3.855 63.245 3.855 61.445 3.855 59.645 3.855 57.845 3.855 55.895 3.855 54.095 3.855 52.145 3.855 50.195 3.855 48.395 3.855 46.445 3.855 44.495 3.855 42.695 3.855 40.895 3.855 38.945 3.855 37.295 3.855 35.495 3.855 33.845 3.855 32.195 3.855 30.545 3.855 29.055 3.855 27.555 3.855 26.055 3.855 24.705 3.855 23.505 3.855 22.305 3.855 21.105 3.855 20.055 3.855 19.155 3.855 18.255 3.855 17.505 3.855 16.905 3.855 16.305 3.855 15.855 3.855 15.405 3.855 15.255 3.855 15.105 3.855 15.105 2.505 15.255 2.505 15.555 2.505 15.855 2.505 16.305 2.505 16.905 2.505 17.505 2.505 18.255 2.505 19.005 2.505 19.905 2.505 20.955 2.505 22.155 2.505 23.205 2.505 24.555 2.505 25.905 2.505 27.255 2.505 28.755 2.505 30.245 2.505 31.895 2.505 33.545 2.505 35.195 2.505 36.995 2.505 38.795 2.505 40.595 2.505 42.395 2.505 44.345 2.505 46.145 2.505 48.095 2.505 50.045 2.505 51.845 2.505 53.795 2.505 55.745 2.505 57.545 2.505 59.495 2.505 61.295 2.505 63.095 2.505 64.895 2.505 66.695 2.505 68.345 2.505 69.995 2.505 71.495 2.505 72.995 2.505 74.495 2.505 75.845 2.505 77.195 2.505 78.395 2.505 79.595 2.505 80.645 2.505 81.695 2.505 82.595 2.505 83.345 2.505 84.095 2.505 84.695 2.505 85.295 2.505 85.745 2.505 86.045 2.505 86.195 2.505"/>
        <path class="cls-4" d="M73.675,31.815l-.23.08-1.35.6-1.2,1.05-1.05,1.2-1.05,1.35-.75,1.65-.6,1.8-.3,1.65.15,1.95.15,1.65.6,1.65.75,1.5.72,1.07.18.28,1.2,1.35,1.2.9,1.35.75.14.04,1.21.41,1.35.15,1.2-.15,1.05-.45,1.05-.75.9-.9.6-1.35.6-1.35.45-1.65.3-1.8.15-1.8v-1.65l-.15-1.8-.3-1.65-.45-1.5-.6-1.35-.75-1.2-.9-1.05-1.05-.75-1.05-.3-1.2-.15-1.2.15-1.12.37ZM86.345,3.855h.14v53.99H14.955V3.855h71.39Z"/>
        <polygon class="cls-4" points="77.425 43.895 77.495 42.995 77.495 41.195 77.345 39.545 77.195 37.895 76.745 36.395 76.295 35.045 75.695 33.695 75.145 33.055 74.795 32.645 73.745 31.895 73.675 31.815 74.795 31.445 75.995 31.295 77.195 31.445 78.245 31.745 79.295 32.495 80.195 33.545 80.945 34.745 81.545 36.095 81.995 37.595 82.295 39.245 82.445 41.045 82.445 42.695 82.295 44.495 81.995 46.295 81.545 47.945 80.945 49.295 80.345 50.645 79.445 51.545 78.395 52.295 77.345 52.745 76.145 52.895 74.795 52.745 73.585 52.335 73.595 52.295 74.645 51.695 75.395 50.645 76.145 49.595 76.745 48.095 77.195 46.595 77.345 44.795 77.425 43.895"/>
        <polygon class="cls-3" points="73.675 31.815 73.745 31.895 74.795 32.645 75.145 33.055 75.095 33.095 71.645 33.095 71.645 43.895 71.495 44.795 71.345 45.845 71.045 46.745 70.595 47.795 70.145 48.395 69.545 48.995 69.515 49.015 68.795 47.945 68.045 46.445 67.445 44.795 67.295 43.145 67.145 41.195 67.445 39.545 68.045 37.745 68.795 36.095 69.845 34.745 70.895 33.545 72.095 32.495 73.445 31.895 73.675 31.815"/>
        <polygon class="cls-4" points="75.095 33.095 75.145 33.055 75.695 33.695 76.295 35.045 76.745 36.395 77.195 37.895 77.345 39.545 77.495 41.195 77.495 42.995 77.425 43.895 71.645 43.895 71.645 33.095 75.095 33.095"/>
        <polygon class="cls-4" points="71.645 43.895 77.425 43.895 77.345 44.795 77.195 46.595 76.745 48.095 76.145 49.595 75.395 50.645 74.645 51.695 73.595 52.295 73.585 52.335 73.445 52.295 72.095 51.545 70.895 50.645 69.695 49.295 69.515 49.015 69.545 48.995 70.145 48.395 70.595 47.795 71.045 46.745 71.345 45.845 71.495 44.795 71.645 43.895"/>
        <path class="cls-4" d="M7.605,65.945h.15v.15l.15.3v1.05l.15-.15v-1.5l-.15-.3v-.3l-.15-.3v-.15h-.15v1.2ZM7.605,66.245l-.15.3v-7.95h86.38v6.3h-.3l-.15,5.09.15.15v-.3l.15-.3v-.3l.15.15v4.2l-.15.15-.15-.15v-1.65l-.15.15v1.65l.15.45v.6l.15.15h.15v6H7.455v-7.5l.15.3v1.2h.15v-.3l.15-.3v-.45l.15-.45v-3.75l-.15-.45v-.75l-.15-.15v-.15h-.15v-1.94ZM84.095,64.595h-.6l-.45.15-.3.15-.3.15-.3.15-.3.3-.45.75-.3.3-.15.45-.3.9v.44l-.15.6v1.95l.15.45v.45l.3.9.45.75.45.75.6.45.3.15.3.15h1.35l.3-.15.3-.15.3-.3.15-.15.3-.45.15-.3.3-.75.29-.9v-.45l.15-.6v-1.95l-.15-.45v-.44l-.29-.9-.3-.9-.45-.6-.45-.45-.3-.15-.3-.15-.3-.15ZM79.145,64.745h-1.05v10.04h1.05v-10.04ZM20.955,64.745h-2.55v10.04h1.05v-4.05h2.1l.3-.15h.3l.3-.15.15-.15.45-.3.15-.15.15-.3.15-.3.15-.3.15-.45v-1.79l-.45-.9-.15-.3-.45-.3-.6-.3-1.2-.15ZM16.905,64.745h-.9v4.19h-2.7v-4.19h-.6v10.04h.6v-4.8h2.7v4.8h.9v-10.04ZM9.255,64.745h-.3l-.15.15v.15l-.15.15-.15.6v.75l-.15.75v5.69l.15.45v.75l.15.15v.15l.15.3.15.15h.3v-.15h.15l.15-.3.15-.3v-.3l.15-.3v-.9l.15-.45v-4.94l-.15-.75v-.45l-.15-.3v-.3l-.15-.3-.15-.15-.15-.15v-.15ZM91.735,64.895h-1.65l-.45,5.09.6.15v-.3l.15-.3.3-.15.15-.15.3.15.15.15.15.3v.75l.15.9-.15.9v.75l-.15.3-.15.15-.3.15h-.3l-.15-.15v-.3l-.15-.6-.15-.75-.45.15v1.2l.15.45.15.45.3.3.15.3.15.15h.6l.15-.3.3-.3.15-.6v-.6l.15-.15v-2.85l-.15-.6v-.45l-.15-.45-.15-.3-.3-.15-.15-.14-.45.29-.3.45.3-2.54h1.2v-1.35ZM51.395,64.895h-1.35l-.6.15-.6.3-.45.3-.6.45-.3.6-.3.6-.15.6-.15.59v.6l.15.75.15.6.45.45.3.6.6.3.45.3.6.3.6.15h.75l.6-.15.6-.15.6-.3.45-.45.45-.45.45-.45.3-.6.15-.6v-.75l-.15-.74-.15-.6-.3-.6-.45-.6-.45-.3-.45-.45-.6-.3-.6-.15ZM93.085,70.735h-.9v1.05h.9v-1.05ZM89.035,70.735h-1.8v1.05h1.8v-1.05ZM11.955,70.735h-1.5v1.05h1.5v-1.05Z"/>
        <polygon class="cls-4" points="47.945 67.145 50.645 65.495 53.495 67.145 53.495 70.285 50.645 71.935 47.945 70.285 47.945 67.145"/>
        <polygon class="cls-4" points="83.945 65.795 84.245 65.795 84.395 65.945 84.695 66.095 84.845 66.245 84.995 66.545 85.295 66.995 85.595 67.595 85.745 68.335 85.745 68.785 85.745 69.235 85.745 69.835 85.745 70.135 85.745 70.585 85.745 70.885 85.745 71.185 85.595 71.635 85.595 71.935 85.295 72.535 84.995 73.135 84.695 73.435 84.395 73.585 84.245 73.735 84.095 73.735 83.945 73.735 83.795 73.735 83.495 73.735 83.345 73.735 82.895 73.435 82.445 73.135 81.995 72.685 81.845 72.085 81.545 71.335 81.545 70.885 81.545 70.435 81.545 69.985 81.545 68.485 81.695 67.745 81.995 66.995 82.295 66.545 82.745 66.095 83.195 65.795 83.795 65.795 83.945 65.795"/>
        <polygon class="cls-2" points="93.685 82.435 93.835 82.435 93.835 103.285 92.485 103.285 90.385 103.285 88.435 103.285 86.345 103.285 84.095 103.285 81.845 103.285 79.595 103.285 77.195 103.285 74.795 103.285 72.395 103.285 69.845 103.285 67.295 103.285 64.745 103.285 62.195 103.285 59.645 103.285 56.945 103.285 54.395 103.285 52.895 104.635 52.895 111.835 48.395 111.835 48.395 104.635 47.045 103.285 44.345 103.285 41.795 103.285 39.245 103.285 36.695 103.285 34.145 103.285 31.595 103.285 29.055 103.285 26.655 103.285 24.255 103.285 21.855 103.285 19.605 103.285 17.355 103.285 15.105 103.285 13.005 103.285 10.905 103.285 8.955 103.285 7.455 103.285 7.455 82.435 7.605 82.435 7.755 82.435 7.905 82.435 8.205 82.435 8.655 82.435 9.255 82.435 9.855 82.435 10.605 82.435 11.505 82.435 12.405 82.435 13.455 82.435 14.505 82.435 15.705 82.435 16.905 82.435 18.255 82.435 19.755 82.435 21.255 82.435 22.755 82.435 24.405 82.435 26.205 82.435 27.855 82.435 29.795 82.435 31.595 82.435 33.545 82.435 35.495 82.435 37.445 82.435 39.395 82.435 41.495 82.435 43.595 82.435 45.695 82.435 47.795 82.435 49.895 82.435 51.995 82.435 54.095 82.435 56.195 82.435 58.295 82.435 60.245 82.435 62.345 82.435 64.295 82.435 66.395 82.435 68.195 82.435 70.145 82.435 71.945 82.435 73.895 82.435 75.545 82.435 77.195 82.435 78.845 82.435 80.495 82.435 81.995 82.435 83.345 82.435 84.695 82.435 85.895 82.435 87.085 82.435 88.135 82.435 89.185 82.435 90.085 82.435 90.985 82.435 91.585 82.435 92.335 82.435 92.785 82.435 93.235 82.435 93.535 82.435 93.685 82.435"/>
        <polygon class="cls-4" points="99.385 104.635 101.035 104.635 101.035 130.575 99.385 130.575 97.585 130.575 95.785 130.575 93.835 130.575 91.885 130.575 89.785 130.575 87.685 130.575 85.445 130.575 85.145 130.575 85.145 127.725 87.235 127.575 89.335 127.275 90.685 126.975 92.035 126.375 93.385 125.625 94.585 124.585 95.635 123.235 96.235 122.335 96.685 121.135 97.135 120.085 97.285 118.885 97.285 117.535 97.285 116.185 96.985 114.985 96.535 113.785 96.085 112.735 95.485 111.685 94.735 110.785 93.535 109.735 92.185 108.985 90.535 108.385 88.885 107.935 87.085 107.635 87.085 104.635 87.685 104.635 89.785 104.635 91.885 104.635 93.835 104.635 95.785 104.635 97.585 104.635 99.385 104.635"/>
        <polygon class="cls-4" points="85.445 104.635 87.085 104.635 87.085 107.635 85.145 107.635 83.045 107.635 80.795 107.635 78.545 107.635 76.145 107.635 73.745 107.635 71.345 107.635 68.945 107.635 66.545 107.635 63.995 107.635 61.445 107.635 61.445 107.935 61.445 114.385 61.445 114.535 61.445 115.435 61.445 116.485 61.445 117.385 61.445 118.435 61.445 119.335 61.445 120.385 61.445 120.835 61.445 127.425 61.445 127.725 63.995 127.725 66.545 127.725 68.945 127.725 71.345 127.725 73.745 127.725 76.145 127.725 78.545 127.725 80.795 127.725 83.045 127.725 85.145 127.725 85.145 130.575 83.195 130.575 80.945 130.575 78.545 130.575 76.145 130.575 73.745 130.575 71.195 130.575 68.645 130.575 66.095 130.575 63.545 130.575 60.845 130.575 58.295 130.575 55.595 130.575 52.895 130.575 52.895 123.535 52.895 111.835 52.895 104.635 55.595 104.635 58.295 104.635 60.845 104.635 63.545 104.635 66.095 104.635 68.645 104.635 71.195 104.635 73.745 104.635 76.145 104.635 78.545 104.635 80.945 104.635 83.195 104.635 85.445 104.635"/>
        <path class="cls-4" d="M45.845,104.635h2.55v25.94H.255v-25.94h45.59ZM16.155,112.735l-1.35.15-1.5.3-1.05.45-.9.6-.6.45-.6.75-.45.9-.15,1.05v.6l.15.6.15.6.15.45.45.6.45.6.75.6.9.45,1.2.45,1.35.15h1.65l1.65-.15,1.65-.3,1.8-.6,1.65-.9.6-.6.6-.6.3-.3.3-.45.15-.75v-.6l-.15-.45-.3-.45-.45-.6-.9-.75-.9-.6-1.05-.45-1.2-.45-2.25-.6-2.1-.15Z"/>
        <polygon class="cls-4" points="85.145 107.635 87.085 107.635 88.885 107.935 90.535 108.385 92.185 108.985 93.535 109.735 94.735 110.785 95.485 111.685 96.085 112.735 96.535 113.785 96.985 114.985 97.285 116.185 97.285 117.535 97.285 118.885 97.135 120.085 96.685 121.135 96.235 122.335 95.635 123.235 94.585 124.585 93.385 125.625 92.035 126.375 90.685 126.975 89.335 127.275 87.235 127.575 85.145 127.725 83.045 127.725 80.795 127.725 78.545 127.725 76.145 127.725 73.745 127.725 71.345 127.725 68.945 127.725 66.545 127.725 63.995 127.725 61.445 127.725 61.445 127.425 73.295 127.425 73.295 127.275 73.295 127.125 73.295 126.825 73.295 126.375 73.295 125.925 73.295 125.325 73.295 124.585 73.295 123.835 73.295 123.085 73.295 122.185 73.295 121.285 73.295 120.385 73.295 119.335 73.295 118.435 73.295 117.385 73.295 116.485 73.295 115.435 73.295 114.535 73.295 113.485 73.295 112.735 73.295 111.835 73.295 111.085 73.295 110.335 73.295 109.735 73.295 109.135 73.295 108.685 73.295 108.385 73.295 108.085 73.295 107.935 61.445 107.935 61.445 107.635 63.995 107.635 66.545 107.635 68.945 107.635 71.345 107.635 73.745 107.635 76.145 107.635 78.545 107.635 80.795 107.635 83.045 107.635 85.145 107.635"/>
        <polygon class="cls-2" points="61.445 107.935 73.295 107.935 73.295 108.085 73.295 108.385 73.295 108.685 73.295 109.135 73.295 109.735 73.295 110.335 73.295 111.085 73.295 111.835 73.295 112.735 73.295 113.485 73.295 114.535 73.295 115.435 73.295 116.485 73.295 117.385 73.295 118.435 73.295 119.335 73.295 120.385 73.295 121.285 73.295 122.185 73.295 123.085 73.295 123.835 73.295 124.585 73.295 125.325 73.295 125.925 73.295 126.375 73.295 126.825 73.295 127.125 73.295 127.275 73.295 127.425 61.445 127.425 61.445 120.835 61.445 120.385 61.445 119.335 61.445 118.435 61.445 117.385 61.445 116.485 61.445 115.435 61.445 114.535 61.445 114.385 61.445 107.935"/>
        <rect class="cls-2" x="48.395" y="111.835" width="4.5" height="11.7"/>
        <polygon class="cls-2" points="14.805 112.885 16.155 112.735 18.255 112.885 20.505 113.485 21.705 113.935 22.755 114.385 23.655 114.985 24.555 115.735 25.005 116.335 25.305 116.785 25.455 117.235 25.455 117.835 25.305 118.585 25.005 119.035 24.705 119.335 24.105 119.935 23.505 120.535 21.855 121.435 20.055 122.035 18.405 122.335 16.755 122.485 15.105 122.485 13.755 122.335 12.555 121.885 11.655 121.435 10.905 120.835 10.455 120.235 10.005 119.635 9.855 119.185 9.705 118.585 9.555 117.985 9.555 117.385 9.705 116.335 10.155 115.435 10.755 114.685 11.355 114.235 12.255 113.635 13.305 113.185 14.805 112.885"/>
        <polygon class="cls-2" points="48.395 123.535 52.895 123.535 52.895 130.575 54.395 132.075 56.945 132.075 59.645 132.075 62.195 132.075 64.745 132.075 67.295 132.075 69.845 132.075 72.395 132.075 74.795 132.075 77.195 132.075 79.595 132.075 81.845 132.075 84.095 132.075 86.345 132.075 88.435 132.075 90.385 132.075 92.485 132.075 93.835 132.075 93.835 152.925 93.685 152.925 93.385 152.925 93.085 152.925 92.485 152.925 92.035 152.925 91.285 152.925 90.535 152.925 89.635 152.925 88.735 152.925 87.685 152.925 86.485 152.925 85.295 152.925 84.095 152.925 82.595 152.925 81.245 152.925 79.745 152.925 78.095 152.925 76.445 152.925 74.645 152.925 72.995 152.925 71.045 152.925 69.245 152.925 67.295 152.925 65.345 152.925 63.395 152.925 61.295 152.925 59.195 152.925 57.245 152.925 55.145 152.925 53.045 152.925 50.945 152.925 48.845 152.925 46.745 152.925 44.645 152.925 42.545 152.925 40.445 152.925 38.495 152.925 36.395 152.925 34.445 152.925 32.495 152.925 30.695 152.925 28.905 152.925 27.105 152.925 25.305 152.925 23.655 152.925 22.005 152.925 20.505 152.925 19.005 152.925 17.655 152.925 16.305 152.925 15.105 152.925 13.905 152.925 12.855 152.925 11.955 152.925 11.055 152.925 10.305 152.925 9.555 152.925 8.955 152.925 8.505 152.925 8.055 152.925 7.755 152.925 7.605 152.925 7.455 152.925 7.455 132.075 8.955 132.075 10.905 132.075 13.005 132.075 15.105 132.075 17.355 132.075 19.605 132.075 21.855 132.075 24.255 132.075 26.655 132.075 29.055 132.075 31.595 132.075 34.145 132.075 36.695 132.075 39.245 132.075 41.795 132.075 44.345 132.075 47.045 132.075 48.395 130.575 48.395 123.535"/>
        <path class="cls-4" d="M93.685,154.425h.15v6l-.15.15v.45l-.15.15v1.2l-.15.3v5.85l.15.75v.3l.15.3v.6l.15.15v6H7.455v-6.75l.15-.6v-7.35l-.15-.45v-7.05h86.23ZM92.935,160.425h-.3v4.2h-1.35v-4.2h-.45v10.2h.45v-4.8h1.35v4.8h.3v-10.2ZM90.235,160.425h-3.89v1.2h1.79v9h.6v-9h1.5v-1.2ZM29.055,160.425h-1.5l-.3.15-.6.15-.45.3-.15.15-.15.3-.3.45-.3.6v.9l.15.45.15.6.45.45.45.45.45.15.45.15.6.3.45.15.6.15.45.15.44.15.3.3.15.45v.9l-.15.3-.15.3-.3.3-.59.3-.75.15h-.45l-.45-.15-.3-.3-.45-.15-.3-.45-.15-.45-.15-.3v-.75h-1.2v.6l.15.45.15.6.15.3.15.3.45.6.45.45.75.15.3.15h.6l.3.15.3-.15h.6l.3-.15.59-.15.45-.3.15-.3.3-.15.3-.6.15-.6.15-.3v-.3l-.15-.9-.3-.6-.45-.6-.75-.45-.3-.15-.44-.15-.45-.15-.45-.15h-.3l-.15-.15h-.3l-.15-.15h-.3l-.3-.15-.15-.3-.15-.15-.15-.15v-.9l.15-.3.15-.3.3-.3.6-.15.6-.15.6.15.45.15.3.15.14.3.3.3.15.75h1.2v-.6l-.3-.6-.3-.6-.45-.45-.45-.3-.59-.15-.3-.15ZM21.105,160.425h-2.55v10.2h2.55l1.05-.15.45-.15.45-.3.45-.45.3-.6.15-.6v-1.5l-.45-.75-.45-.45-.6-.45.3-.15.15-.15.45-.45.3-.75v-1.2l-.15-.6-.3-.45-.3-.45-.45-.3-.45-.15-.9-.15ZM15.405,160.425h-.9l-2.1,10.2v-1.2h-1.95v-9h-.6v10.2h3.3l.6-3.15h2.4l.75,3.15h.9l-2.4-10.2ZM8.355,160.425h-.6v10.2h.15v-4.5h.3l.15.15v.15l.15.6.15,1.35.3,2.25h.45l-.45-2.85v-.3l-.15-.45v-.3l-.15-.3-.15-.45.15-.15.15-.15.15-.3v-.3l.15-.3v-.6l.15-.3v-1.35l-.15-.3v-.75l-.15-.3v-.15l-.15-.3v-.15h-.3l-.15-.15ZM50.495,165.525l-3.6-5.1-3.45,5.1h1.65v5.1h3.6v-5.1h1.8ZM78.395,165.525l-2.85-5.1-3.15,5.1h1.65v5.1h2.85v-5.1h1.5ZM62.345,162.825h-1.35l-.6.3-.45.3-.6.3-.45.45-.3.6-.3.6-.15.6v.6l.15.9.15.6.3.6.3.45.45.45.6.45.6.15.6.15.6.15.6-.15.6-.15.6-.15.45-.45.45-.45.45-.45.15-.6.3-.6v-1.35l-.15-.6-.15-.6-.3-.45-.45-.6-.45-.45-.45-.3-.6-.15-.6-.15Z"/>
        <polygon class="cls-4" points="21.255 161.625 21.405 161.625 21.705 161.775 22.005 161.925 22.305 162.075 22.455 162.375 22.605 162.825 22.605 162.975 22.605 163.275 22.605 163.725 22.455 164.175 22.155 164.475 21.855 164.625 21.555 164.775 21.405 164.775 21.255 164.775 20.955 164.775 20.805 164.775 20.655 164.775 20.355 164.775 20.205 164.775 20.055 164.775 19.905 164.775 19.605 164.775 19.455 164.775 19.455 161.625 19.605 161.625 19.755 161.625 20.055 161.625 20.205 161.625 20.355 161.625 20.505 161.625 20.655 161.625 20.805 161.625 21.105 161.625 21.255 161.625"/>
        <polygon class="cls-4" points="8.205 161.625 8.355 161.625 8.505 161.775 8.655 161.775 8.655 162.075 8.805 162.225 8.805 162.525 8.805 163.275 8.805 163.425 8.805 163.575 8.805 164.025 8.805 164.325 8.655 164.625 8.655 164.775 8.505 164.775 8.355 164.925 8.205 164.925 8.055 164.925 7.905 164.925 7.905 161.625 8.055 161.625 8.205 161.625"/>
        <polygon class="cls-4" points="14.955 161.625 15.405 163.725 15.855 166.275 15.705 166.275 15.405 166.275 15.105 166.275 14.955 166.275 14.655 166.275 14.505 166.275 14.205 166.275 13.905 166.275 14.505 163.575 14.655 163.125 14.655 162.825 14.805 162.375 14.805 162.075 14.955 161.625"/>
        <polygon class="cls-4" points="63.845 164.775 64.145 167.925 61.745 169.725 61.745 169.735 59.195 168.525 58.895 165.225 61.445 163.425 64.295 164.775 63.845 164.775"/>
        <polygon class="cls-4" points="21.405 165.975 21.705 165.975 22.005 166.125 22.305 166.275 22.605 166.425 22.755 166.875 22.905 167.175 22.905 167.475 22.905 167.625 22.755 168.225 22.605 168.825 22.455 168.975 22.305 169.125 21.855 169.425 21.255 169.425 20.955 169.425 20.805 169.425 20.505 169.425 20.355 169.425 20.055 169.425 19.905 169.425 19.755 169.425 19.455 169.425 19.455 165.975 19.755 165.975 19.905 165.975 20.055 165.975 20.205 165.975 20.505 165.975 20.655 165.975 20.805 165.975 21.105 165.975 21.405 165.975"/>
        <polygon class="cls-4" points="86.345 177.375 86.485 177.375 86.485 200.465 86.485 200.615 86.345 200.915 86.195 201.665 85.895 202.715 85.595 203.915 85.295 205.265 85.145 206.765 84.995 208.415 84.845 210.065 84.845 211.865 84.845 213.665 85.145 215.465 85.295 217.115 85.595 218.465 85.895 219.665 86.045 220.715 86.345 221.465 86.485 221.915 86.485 222.065 86.485 231.365 86.345 231.365 86.045 231.365 85.745 231.365 85.295 231.365 84.695 231.365 84.095 231.365 83.345 231.365 82.445 231.365 81.545 231.365 80.495 231.365 79.445 231.365 78.245 231.365 77.045 231.365 75.695 231.365 74.195 231.365 72.845 231.365 71.345 231.365 69.695 231.365 68.045 231.365 66.395 231.365 64.595 231.365 62.795 231.365 60.995 231.365 59.195 231.365 57.395 231.365 55.445 231.365 53.495 231.365 51.695 231.365 49.745 231.365 47.795 231.365 45.995 231.365 44.045 231.365 42.245 231.365 40.445 231.365 38.495 231.365 36.845 231.365 35.045 231.365 33.395 231.365 31.745 231.365 30.095 231.365 28.605 231.365 27.105 231.365 25.755 231.365 24.405 231.365 23.205 231.365 22.005 231.365 20.955 231.365 19.905 231.365 19.005 231.365 18.105 231.365 17.355 231.365 16.755 231.365 16.155 231.365 15.705 231.365 15.405 231.365 15.105 231.365 14.955 231.365 14.955 204.065 14.955 203.915 15.105 203.465 15.255 202.715 15.555 201.815 15.855 200.615 16.155 199.115 16.305 197.615 16.455 195.815 16.605 194.015 16.605 192.215 16.455 190.565 16.305 188.915 16.155 187.415 15.855 185.915 15.555 184.715 15.255 183.665 15.105 183.065 14.955 182.615 14.955 182.465 14.955 177.375 15.855 177.375 17.055 177.375 18.255 177.375 19.755 177.375 21.105 177.375 22.755 177.375 24.255 177.375 25.905 177.375 27.705 177.375 29.505 177.375 31.295 177.375 33.245 177.375 35.045 177.375 36.995 177.375 39.095 177.375 41.045 177.375 43.145 177.375 45.095 177.375 47.195 177.375 49.295 177.375 51.395 177.375 53.495 177.375 55.595 177.375 57.695 177.375 59.645 177.375 61.745 177.375 63.695 177.375 65.645 177.375 67.595 177.375 69.545 177.375 71.345 177.375 73.145 177.375 74.945 177.375 76.595 177.375 78.245 177.375 79.745 177.375 81.245 177.375 82.595 177.375 83.945 177.375 85.295 177.375 86.345 177.375"/>
        <polygon class="cls-4" points="86.045 231.365 86.345 231.365 86.345 232.865 86.195 232.865 85.895 232.865 85.595 232.865 84.995 232.865 84.545 232.865 83.795 232.865 83.045 232.865 82.295 232.865 81.395 232.865 80.345 232.865 79.145 232.865 77.945 232.865 76.745 232.865 75.395 232.865 74.045 232.865 72.545 232.865 70.895 232.865 69.395 232.865 67.745 232.865 65.945 232.865 64.295 232.865 62.495 232.865 60.695 232.865 58.745 232.865 56.945 232.865 54.995 232.865 53.045 232.865 51.245 232.865 49.295 232.865 47.345 232.865 45.395 232.865 43.595 232.865 41.645 232.865 39.845 232.865 38.045 232.865 36.245 232.865 34.595 232.865 32.945 232.865 31.295 232.865 29.655 232.865 28.155 232.865 26.655 232.865 25.305 232.865 24.105 232.865 22.755 232.865 21.705 232.865 20.655 232.865 19.605 232.865 18.705 232.865 17.955 232.865 17.205 232.865 16.605 232.865 16.155 232.865 15.705 232.865 15.405 232.865 15.255 232.865 15.105 232.865 15.105 231.365 15.405 231.365 15.705 231.365 16.155 231.365 16.755 231.365 17.355 231.365 18.105 231.365 19.005 231.365 19.905 231.365 20.955 231.365 22.005 231.365 23.205 231.365 24.405 231.365 25.755 231.365 27.105 231.365 28.605 231.365 30.095 231.365 31.745 231.365 33.395 231.365 35.045 231.365 36.845 231.365 38.495 231.365 40.445 231.365 42.245 231.365 44.045 231.365 45.995 231.365 47.795 231.365 49.745 231.365 51.695 231.365 53.495 231.365 55.445 231.365 57.395 231.365 59.195 231.365 60.995 231.365 62.795 231.365 64.595 231.365 66.395 231.365 68.045 231.365 69.695 231.365 71.345 231.365 72.845 231.365 74.195 231.365 75.695 231.365 77.045 231.365 78.245 231.365 79.445 231.365 80.495 231.365 81.545 231.365 82.445 231.365 83.345 231.365 84.095 231.365 84.695 231.365 85.295 231.365 85.745 231.365 86.045 231.365"/>
        <polygon class="cls-4" points="86.195 232.865 86.345 232.865 84.245 234.965 84.095 234.965 83.945 234.965 83.645 234.965 83.195 234.965 82.745 234.965 82.145 234.965 81.395 234.965 80.645 234.965 79.745 234.965 78.845 234.965 77.795 234.965 76.595 234.965 75.395 234.965 74.195 234.965 72.695 234.965 71.345 234.965 69.845 234.965 68.345 234.965 66.695 234.965 65.045 234.965 63.395 234.965 61.595 234.965 59.795 234.965 57.995 234.965 56.195 234.965 54.395 234.965 52.595 234.965 50.645 234.965 48.845 234.965 47.045 234.965 45.245 234.965 43.295 234.965 41.495 234.965 39.845 234.965 38.045 234.965 36.395 234.965 34.745 234.965 33.095 234.965 31.595 234.965 30.095 234.965 28.605 234.965 27.255 234.965 26.055 234.965 24.855 234.965 23.655 234.965 22.605 234.965 21.705 234.965 20.805 234.965 20.055 234.965 19.305 234.965 18.705 234.965 18.255 234.965 17.805 234.965 17.505 234.965 17.355 234.965 17.205 234.965 15.105 232.865 15.255 232.865 15.405 232.865 15.705 232.865 16.155 232.865 16.605 232.865 17.205 232.865 17.955 232.865 18.705 232.865 19.605 232.865 20.655 232.865 21.705 232.865 22.755 232.865 24.105 232.865 25.305 232.865 26.655 232.865 28.155 232.865 29.655 232.865 31.295 232.865 32.945 232.865 34.595 232.865 36.245 232.865 38.045 232.865 39.845 232.865 41.645 232.865 43.595 232.865 45.395 232.865 47.345 232.865 49.295 232.865 51.245 232.865 53.045 232.865 54.995 232.865 56.945 232.865 58.745 232.865 60.695 232.865 62.495 232.865 64.295 232.865 65.945 232.865 67.745 232.865 69.395 232.865 70.895 232.865 72.545 232.865 74.045 232.865 75.395 232.865 76.745 232.865 77.945 232.865 79.145 232.865 80.345 232.865 81.395 232.865 82.295 232.865 83.045 232.865 83.795 232.865 84.545 232.865 84.995 232.865 85.595 232.865 85.895 232.865 86.195 232.865"/>
      </g>
      <g>
        <line class="cls-1" x1="7.605" y1="165.075" x2="7.455" y2="164.625"/>
        <line class="cls-1" x1="7.455" y1="166.275" x2="7.605" y2="165.975"/>
        <polyline class="cls-1" points="7.605 165.525 7.605 165.975 7.605 166.575 7.605 167.025 7.605 167.475 7.605 168.375 7.605 169.275 7.455 169.875"/>
        <polyline class="cls-1" points="7.455 161.475 7.605 161.925 7.605 162.225 7.605 162.675 7.605 163.125 7.605 163.575 7.605 164.025 7.605 164.625 7.605 165.075 7.605 165.525"/>
        <polyline class="cls-1" points="71.645 43.895 77.425 43.895 77.495 43.895"/>
        <line class="cls-1" x1="75.095" y1="33.095" x2="71.645" y2="33.095"/>
        <polyline class="cls-1" points="7.455 152.925 7.605 152.925 7.755 152.925 8.055 152.925 8.505 152.925 8.955 152.925 9.555 152.925 10.305 152.925 11.055 152.925 11.955 152.925 12.855 152.925 13.905 152.925 15.105 152.925 16.305 152.925 17.655 152.925 19.005 152.925 20.505 152.925 22.005 152.925 23.655 152.925 25.305 152.925 27.105 152.925 28.905 152.925 30.695 152.925 32.495 152.925 34.445 152.925 36.395 152.925 38.495 152.925 40.445 152.925 42.545 152.925 44.645 152.925 46.745 152.925 48.845 152.925 50.945 152.925 53.045 152.925 55.145 152.925 57.245 152.925 59.195 152.925"/>
        <polyline class="cls-1" points="59.195 152.925 61.295 152.925 63.395 152.925 65.345 152.925 67.295 152.925 69.245 152.925 71.045 152.925 72.995 152.925 74.645 152.925 76.445 152.925 78.095 152.925 79.745 152.925 81.245 152.925 82.595 152.925 84.095 152.925 85.295 152.925 86.485 152.925 87.685 152.925 88.735 152.925 89.635 152.925 90.535 152.925 91.285 152.925 92.035 152.925 92.485 152.925 93.085 152.925 93.385 152.925 93.685 152.925 93.835 152.925"/>
        <polyline class="cls-1" points="93.835 82.435 93.685 82.435 93.535 82.435 93.235 82.435 92.785 82.435 92.335 82.435 91.585 82.435 90.985 82.435 90.085 82.435 89.185 82.435 88.135 82.435 87.085 82.435 85.895 82.435 84.695 82.435 83.345 82.435 81.995 82.435 80.495 82.435 78.845 82.435 77.195 82.435 75.545 82.435 73.895 82.435 71.945 82.435 70.145 82.435 68.195 82.435 66.395 82.435 64.295 82.435 62.345 82.435 60.245 82.435 58.295 82.435 56.195 82.435 54.095 82.435 51.995 82.435 49.895 82.435 47.795 82.435 45.695 82.435 43.595 82.435 41.495 82.435 39.395 82.435 37.445 82.435 35.495 82.435 33.545 82.435 31.595 82.435 29.795 82.435 27.855 82.435 26.205 82.435 24.405 82.435 22.755 82.435 21.255 82.435 19.755 82.435 18.255 82.435 16.905 82.435 15.705 82.435 14.505 82.435 13.455 82.435 12.405 82.435 11.505 82.435 10.605 82.435 9.855 82.435 9.255 82.435 8.655 82.435 8.205 82.435 7.905 82.435 7.755 82.435 7.605 82.435 7.455 82.435"/>
        <polyline class="cls-1" points="93.835 161.625 93.685 161.775 93.685 162.225 93.685 162.825 93.535 163.425 93.535 164.175 93.535 165.675"/>
        <polyline class="cls-1" points="93.535 165.675 93.535 166.125 93.535 166.575 93.535 167.175 93.535 167.775 93.685 168.075 93.685 168.375 93.685 168.825 93.685 169.275 93.835 169.425"/>
        <line class="cls-1" x1="7.905" y1="161.625" x2="7.905" y2="164.925"/>
        <polyline class="cls-1" points="7.905 161.625 8.055 161.625 8.205 161.625 8.355 161.625"/>
        <polyline class="cls-1" points="8.805 163.275 8.805 162.525 8.805 162.225 8.655 162.075 8.655 161.775 8.505 161.775 8.355 161.625"/>
        <polyline class="cls-1" points="8.355 164.925 8.505 164.775 8.655 164.775 8.655 164.625 8.805 164.325 8.805 164.025 8.805 163.575 8.805 163.425 8.805 163.275"/>
        <polyline class="cls-1" points="7.905 164.925 8.055 164.925 8.205 164.925 8.355 164.925"/>
        <line class="cls-1" x1="14.505" y1="163.575" x2="13.905" y2="166.275"/>
        <polyline class="cls-1" points="14.955 161.625 14.805 162.075 14.805 162.375 14.655 162.825 14.655 163.125 14.505 163.575"/>
        <line class="cls-1" x1="15.405" y1="163.725" x2="14.955" y2="161.625"/>
        <line class="cls-1" x1="15.855" y1="166.275" x2="15.405" y2="163.725"/>
        <polyline class="cls-1" points="13.905 166.275 14.205 166.275 14.505 166.275 14.655 166.275 14.955 166.275 15.105 166.275 15.405 166.275 15.705 166.275 15.855 166.275"/>
        <line class="cls-1" x1="19.455" y1="165.975" x2="19.455" y2="169.425"/>
        <polyline class="cls-1" points="19.455 165.975 19.755 165.975 19.905 165.975 20.055 165.975 20.205 165.975 20.505 165.975 20.655 165.975 20.805 165.975 21.105 165.975"/>
        <polyline class="cls-1" points="22.905 167.625 22.905 167.475 22.905 167.175 22.755 166.875 22.605 166.425 22.305 166.275 22.005 166.125 21.705 165.975 21.405 165.975 21.105 165.975"/>
        <polyline class="cls-1" points="21.855 169.425 22.305 169.125 22.455 168.975 22.605 168.825 22.755 168.225 22.905 167.625"/>
        <line class="cls-1" x1="21.255" y1="169.425" x2="21.855" y2="169.425"/>
        <polyline class="cls-1" points="19.455 169.425 19.755 169.425 19.905 169.425 20.055 169.425 20.355 169.425 20.505 169.425 20.805 169.425 20.955 169.425 21.255 169.425"/>
        <line class="cls-1" x1="19.455" y1="161.625" x2="19.455" y2="164.775"/>
        <polyline class="cls-1" points="19.455 161.625 19.605 161.625 19.755 161.625 20.055 161.625 20.205 161.625 20.355 161.625 20.505 161.625 20.655 161.625 20.805 161.625"/>
        <polyline class="cls-1" points="22.605 163.275 22.605 162.975 22.605 162.825 22.455 162.375 22.305 162.075 22.005 161.925 21.705 161.775 21.405 161.625 21.255 161.625 21.105 161.625 20.805 161.625"/>
        <polyline class="cls-1" points="21.855 164.625 22.155 164.475 22.455 164.175 22.605 163.725 22.605 163.275"/>
        <polyline class="cls-1" points="20.955 164.775 21.255 164.775 21.405 164.775 21.555 164.775 21.855 164.625"/>
        <polyline class="cls-1" points="19.455 164.775 19.605 164.775 19.905 164.775 20.055 164.775 20.205 164.775 20.355 164.775 20.655 164.775 20.805 164.775 20.955 164.775"/>
        <polyline class="cls-1" points="93.235 177.375 93.085 177.375 92.785 177.375 92.485 177.375 92.035 177.375 91.585 177.375 90.985 177.375 90.235 177.375 89.335 177.375 88.435 177.375 87.535 177.375 86.485 177.375 86.345 177.375 85.295 177.375 83.945 177.375 82.595 177.375 81.245 177.375 79.745 177.375 78.245 177.375 76.595 177.375 74.945 177.375 73.145 177.375 71.345 177.375 69.545 177.375 67.595 177.375 65.645 177.375 63.695 177.375 61.745 177.375 59.645 177.375 57.695 177.375 55.595 177.375 53.495 177.375 51.395 177.375 49.295 177.375 47.195 177.375 45.095 177.375 43.145 177.375 41.045 177.375 39.095 177.375 36.995 177.375 35.045 177.375 33.245 177.375 31.295 177.375 29.505 177.375 27.705 177.375 25.905 177.375 24.255 177.375 22.755 177.375 21.105 177.375 19.755 177.375 18.255 177.375 17.055 177.375 15.855 177.375 14.955 177.375 14.655 177.375 13.605 177.375 12.555 177.375 11.805 177.375 10.905 177.375 10.305 177.375 9.705 177.375 9.255 177.375 8.805 177.375 8.505 177.375 8.355 177.375 8.205 177.375"/>
        <polyline class="cls-1" points="8.205 153.675 8.355 153.675 8.505 153.675 8.805 153.675 9.255 153.675 9.705 153.675 10.305 153.675 10.905 153.675 11.805 153.675 12.555 153.675 13.605 153.675 14.655 153.675 15.855 153.675 17.055 153.675 18.255 153.675 19.755 153.675 21.105 153.675 22.755 153.675 24.255 153.675 25.905 153.675 27.705 153.675 29.505 153.675 31.295 153.675 33.245 153.675 35.045 153.675 36.995 153.675 39.095 153.675 41.045 153.675 43.145 153.675 45.095 153.675 47.195 153.675 49.295 153.675 51.395 153.675 53.495 153.675 55.595 153.675 57.695 153.675 59.045 153.675 59.645 153.675 61.745 153.675 63.695 153.675 65.645 153.675 67.595 153.675 69.545 153.675 71.345 153.675 73.145 153.675 74.945 153.675 76.595 153.675 78.245 153.675 79.745 153.675 81.245 153.675 82.595 153.675 83.945 153.675 85.295 153.675 86.345 153.675 87.535 153.675 88.435 153.675 89.335 153.675 90.235 153.675 90.985 153.675 91.585 153.675 92.035 153.675 92.485 153.675 92.785 153.675 93.085 153.675 93.235 153.675"/>
        <polyline class="cls-1" points="48.695 165.525 48.995 165.525 49.145 165.525 49.445 165.525 49.595 165.525 49.895 165.525 50.045 165.525 50.345 165.525 50.495 165.525"/>
        <line class="cls-1" x1="48.695" y1="165.525" x2="48.695" y2="170.625"/>
        <polyline class="cls-1" points="45.095 170.625 45.545 170.625 45.995 170.625 46.445 170.625 46.895 170.625 47.345 170.625 47.795 170.625 48.245 170.625 48.695 170.625"/>
        <line class="cls-1" x1="45.095" y1="170.625" x2="45.095" y2="165.525"/>
        <polyline class="cls-1" points="43.445 165.525 43.595 165.525 43.745 165.525 44.045 165.525 44.195 165.525 44.495 165.525 44.645 165.525 44.945 165.525 45.095 165.525"/>
        <line class="cls-1" x1="43.445" y1="165.525" x2="46.895" y2="160.425"/>
        <line class="cls-1" x1="46.895" y1="160.425" x2="50.495" y2="165.525"/>
        <polyline class="cls-1" points="93.835 170.625 93.685 170.475 93.685 170.325 93.685 169.875 93.535 169.575 93.535 169.275 93.385 168.525 93.385 167.625 93.385 167.175 93.385 166.575 93.385 166.125 93.385 165.675"/>
        <polyline class="cls-1" points="93.385 165.675 93.385 165.225 93.385 164.625 93.385 164.175 93.385 163.725 93.385 162.675 93.535 162.375 93.535 161.925 93.535 161.175 93.685 161.025 93.685 160.725 93.685 160.575 93.835 160.425"/>
        <line class="cls-1" x1="7.755" y1="170.625" x2="7.905" y2="170.625"/>
        <line class="cls-1" x1="7.755" y1="170.625" x2="7.755" y2="160.425"/>
        <polyline class="cls-1" points="7.755 160.425 7.905 160.425 8.055 160.425 8.205 160.425 8.355 160.425"/>
        <polyline class="cls-1" points="8.355 160.425 8.505 160.575 8.655 160.575 8.805 160.575 8.805 160.725 8.955 161.025 8.955 161.175 9.105 161.475 9.105 162.075 9.105 162.225 9.255 162.525 9.255 162.825 9.255 163.275"/>
        <polyline class="cls-1" points="9.255 163.275 9.255 163.575 9.255 163.875 9.105 164.175 9.105 164.775 8.955 165.075 8.955 165.375 8.805 165.675 8.655 165.825 8.505 165.975"/>
        <line class="cls-1" x1="8.505" y1="165.975" x2="8.655" y2="166.425"/>
        <polyline class="cls-1" points="8.655 166.425 8.805 166.725 8.805 167.025 8.955 167.475 8.955 167.775"/>
        <line class="cls-1" x1="8.955" y1="167.775" x2="9.405" y2="170.625"/>
        <polyline class="cls-1" points="8.955 170.625 9.105 170.625 9.255 170.625 9.405 170.625"/>
        <line class="cls-1" x1="8.955" y1="170.625" x2="8.655" y2="168.375"/>
        <polyline class="cls-1" points="8.655 168.375 8.505 167.025 8.355 166.425 8.355 166.275 8.205 166.125"/>
        <line class="cls-1" x1="8.205" y1="166.125" x2="8.055" y2="166.125"/>
        <line class="cls-1" x1="7.905" y1="166.125" x2="8.055" y2="166.125"/>
        <line class="cls-1" x1="7.905" y1="166.125" x2="7.905" y2="170.625"/>
        <polyline class="cls-1" points="9.855 170.625 10.155 170.625 10.455 170.625 10.755 170.625 11.055 170.625 11.355 170.625 11.655 170.625 11.955 170.625 12.405 170.625"/>
        <line class="cls-1" x1="9.855" y1="170.625" x2="9.855" y2="160.425"/>
        <polyline class="cls-1" points="9.855 160.425 10.005 160.425 10.155 160.425 10.305 160.425 10.455 160.425"/>
        <line class="cls-1" x1="10.455" y1="160.425" x2="10.455" y2="169.425"/>
        <polyline class="cls-1" points="10.455 169.425 10.605 169.425 10.905 169.425 11.055 169.425 11.355 169.425 11.505 169.425 11.805 169.425 12.105 169.425 12.405 169.425"/>
        <line class="cls-1" x1="12.405" y1="169.425" x2="12.405" y2="170.625"/>
        <polyline class="cls-1" points="12.405 170.625 12.555 170.625 12.705 170.625 12.855 170.625 13.005 170.625 13.155 170.625"/>
        <line class="cls-1" x1="12.405" y1="170.625" x2="14.505" y2="160.425"/>
        <polyline class="cls-1" points="14.505 160.425 14.655 160.425 14.805 160.425 14.955 160.425 15.105 160.425 15.255 160.425 15.405 160.425"/>
        <line class="cls-1" x1="15.405" y1="160.425" x2="17.805" y2="170.625"/>
        <polyline class="cls-1" points="16.905 170.625 17.055 170.625 17.205 170.625 17.355 170.625 17.505 170.625 17.655 170.625 17.805 170.625"/>
        <line class="cls-1" x1="16.905" y1="170.625" x2="16.155" y2="167.475"/>
        <polyline class="cls-1" points="13.755 167.475 14.055 167.475 14.355 167.475 14.655 167.475 14.955 167.475 15.255 167.475 15.555 167.475 15.855 167.475 16.155 167.475"/>
        <line class="cls-1" x1="13.755" y1="167.475" x2="13.155" y2="170.625"/>
        <polyline class="cls-1" points="18.555 170.625 18.855 170.625 19.155 170.625 19.455 170.625 19.755 170.625 20.205 170.625 20.505 170.625 20.805 170.625 21.105 170.625"/>
        <line class="cls-1" x1="18.555" y1="170.625" x2="18.555" y2="160.425"/>
        <polyline class="cls-1" points="18.555 160.425 18.855 160.425 19.155 160.425 19.455 160.425 19.755 160.425 20.205 160.425 20.505 160.425 20.805 160.425 21.105 160.425"/>
        <polyline class="cls-1" points="21.105 160.425 22.005 160.575 22.455 160.725 22.905 161.025 23.205 161.475 23.505 161.925 23.655 162.525 23.655 162.825 23.655 163.125"/>
        <polyline class="cls-1" points="23.655 163.125 23.655 163.725 23.355 164.475 22.905 164.925 22.755 165.075 22.455 165.225"/>
        <polyline class="cls-1" points="22.455 165.225 23.055 165.675 23.505 166.125 23.955 166.875 23.955 167.625"/>
        <polyline class="cls-1" points="23.955 167.625 23.955 168.375 23.805 168.975 23.505 169.575 23.055 170.025 22.605 170.325 22.155 170.475 21.105 170.625"/>
        <polygon class="cls-1" points="58.145 166.575 58.145 165.975 58.295 165.375 58.595 164.775 58.895 164.175 59.345 163.725 59.945 163.425 60.395 163.125 60.995 162.825 61.745 162.825 62.345 162.825 62.945 162.975 63.545 163.125 63.995 163.425 64.445 163.875 64.895 164.475 65.195 164.925 65.345 165.525 65.495 166.125 65.495 166.875 65.495 167.475 65.195 168.075 65.045 168.675 64.595 169.125 64.145 169.575 63.695 170.025 63.095 170.175 62.495 170.325 61.895 170.475 61.295 170.325 60.695 170.175 60.095 170.025 59.495 169.575 59.045 169.125 58.745 168.675 58.445 168.075 58.295 167.475 58.145 166.575"/>
        <polyline class="cls-1" points="7.455 176.625 7.605 176.625 7.755 176.625 7.905 176.625 8.355 176.625 8.655 176.625 9.255 176.625 9.855 176.625 10.605 176.625 11.505 176.625 12.405 176.625 13.455 176.625 14.505 176.625 15.705 176.625 17.055 176.625 18.405 176.625 19.755 176.625 21.255 176.625 22.905 176.625 24.555 176.625 26.205 176.625 28.005 176.625 29.795 176.625 31.595 176.625 33.545 176.625 35.495 176.625 37.445 176.625 39.545 176.625 41.495 176.625 43.595 176.625 45.695 176.625 47.795 176.625 49.895 176.625 51.995 176.625 54.095 176.625 56.195 176.625 58.295 176.625 60.395 176.625 62.345 176.625 64.445 176.625 66.395 176.625 68.345 176.625 70.295 176.625 72.095 176.625 73.895 176.625 75.695 176.625 77.345 176.625 78.995 176.625 80.495 176.625 81.995 176.625 83.345 176.625 84.695 176.625 86.045 176.625 87.085 176.625 88.285 176.625 89.185 176.625 90.085 176.625 90.985 176.625 91.735 176.625 92.335 176.625 92.785 176.625 93.235 176.625 93.535 176.625 93.685 176.625 93.835 176.625"/>
        <polyline class="cls-1" points="93.835 154.425 93.685 154.425 93.535 154.425 93.235 154.425 92.785 154.425 92.335 154.425 91.735 154.425 90.985 154.425 90.085 154.425 89.185 154.425 88.285 154.425 87.085 154.425 86.045 154.425 84.695 154.425 83.345 154.425 81.995 154.425 80.495 154.425 78.995 154.425 77.345 154.425 75.695 154.425 73.895 154.425 72.095 154.425 70.295 154.425 68.345 154.425 66.395 154.425 64.445 154.425 62.345 154.425 60.395 154.425 58.295 154.425 56.195 154.425 54.095 154.425 51.995 154.425 49.895 154.425 47.795 154.425 45.695 154.425 43.595 154.425 41.495 154.425 39.545 154.425 37.445 154.425 35.495 154.425 33.545 154.425 31.595 154.425 29.795 154.425 28.005 154.425 26.205 154.425 24.555 154.425 22.905 154.425 21.255 154.425 19.755 154.425 18.405 154.425 17.055 154.425 15.705 154.425 14.505 154.425 13.455 154.425 12.405 154.425 11.505 154.425 10.605 154.425 9.855 154.425 9.255 154.425 8.655 154.425 8.355 154.425 7.905 154.425 7.755 154.425 7.605 154.425 7.455 154.425"/>
        <polyline class="cls-1" points="31.745 167.775 31.745 168.075 31.595 168.375 31.445 168.975 31.145 169.575 30.845 169.725 30.695 170.025 30.245 170.325 29.655 170.475 29.355 170.625 29.055 170.625 28.755 170.625 28.455 170.775"/>
        <polyline class="cls-1" points="28.455 170.775 28.155 170.625 27.855 170.625 27.555 170.625 27.255 170.475 26.505 170.325 26.055 169.875 25.605 169.275 25.455 168.975 25.305 168.675 25.155 168.075 25.005 167.625 25.005 167.025"/>
        <polyline class="cls-1" points="25.005 167.025 25.155 167.025 25.305 167.025 25.455 167.025 25.605 167.025 25.755 167.025 25.905 167.025 26.055 167.025 26.205 167.025"/>
        <polyline class="cls-1" points="26.205 167.025 26.205 167.475 26.205 167.775 26.355 168.075 26.505 168.525 26.805 168.975 27.255 169.125 27.555 169.425 28.005 169.575 28.455 169.575"/>
        <polyline class="cls-1" points="28.455 169.575 29.205 169.425 29.795 169.125 30.095 168.825 30.245 168.525 30.395 168.225 30.395 167.925 30.395 167.775"/>
        <polyline class="cls-1" points="30.395 167.775 30.395 167.325 30.245 166.875 29.945 166.575 29.505 166.425"/>
        <polyline class="cls-1" points="29.505 166.425 29.055 166.275 28.455 166.125 28.005 165.975 27.405 165.675 26.955 165.525 26.505 165.375"/>
        <polyline class="cls-1" points="26.505 165.375 26.055 164.925 25.605 164.475 25.455 163.875 25.305 163.425 25.305 163.125"/>
        <polyline class="cls-1" points="25.305 163.125 25.305 162.825 25.305 162.525 25.605 161.925 25.905 161.475 26.055 161.175 26.205 161.025 26.655 160.725 27.255 160.575 27.555 160.425 27.855 160.425 28.155 160.425"/>
        <polyline class="cls-1" points="28.155 160.425 28.605 160.425 29.055 160.425 29.355 160.575 29.945 160.725 30.395 161.025 30.845 161.475 31.145 162.075 31.445 162.675 31.445 162.825 31.445 163.125 31.445 163.275"/>
        <polyline class="cls-1" points="30.245 163.275 30.395 163.275 30.545 163.275 30.695 163.275 30.845 163.275 30.995 163.275 31.145 163.275 31.295 163.275 31.445 163.275"/>
        <polyline class="cls-1" points="30.245 163.275 30.095 162.525 29.795 162.225 29.655 161.925 29.355 161.775 28.905 161.625 28.305 161.475"/>
        <polyline class="cls-1" points="28.305 161.475 27.705 161.625 27.105 161.775 26.805 162.075 26.655 162.375 26.505 162.675 26.505 162.975"/>
        <polyline class="cls-1" points="26.505 162.975 26.505 163.575 26.655 163.725 26.805 163.875"/>
        <polyline class="cls-1" points="26.805 163.875 26.955 164.175 27.255 164.325 27.555 164.325 27.705 164.475 27.855 164.475 28.005 164.475 28.155 164.625 28.455 164.625 28.905 164.775 29.355 164.925 29.795 165.075 30.095 165.225"/>
        <polyline class="cls-1" points="30.095 165.225 30.845 165.675 31.295 166.275 31.595 166.875 31.745 167.775"/>
        <polyline class="cls-1" points="90.835 170.625 90.985 170.625 91.135 170.625 91.285 170.625"/>
        <line class="cls-1" x1="90.835" y1="170.625" x2="90.835" y2="160.425"/>
        <polyline class="cls-1" points="90.835 160.425 90.985 160.425 91.135 160.425 91.285 160.425"/>
        <line class="cls-1" x1="91.285" y1="160.425" x2="91.285" y2="164.625"/>
        <polyline class="cls-1" points="91.285 164.625 91.435 164.625 91.735 164.625 91.885 164.625 92.035 164.625 92.185 164.625 92.335 164.625 92.485 164.625 92.635 164.625"/>
        <line class="cls-1" x1="92.635" y1="164.625" x2="92.635" y2="160.425"/>
        <polyline class="cls-1" points="92.635 160.425 92.785 160.425 92.935 160.425"/>
        <line class="cls-1" x1="92.935" y1="160.425" x2="92.935" y2="170.625"/>
        <polyline class="cls-1" points="92.635 170.625 92.785 170.625 92.935 170.625"/>
        <line class="cls-1" x1="92.635" y1="170.625" x2="92.635" y2="165.825"/>
        <polyline class="cls-1" points="91.285 165.825 91.435 165.825 91.735 165.825 91.885 165.825 92.035 165.825 92.185 165.825 92.335 165.825 92.485 165.825 92.635 165.825"/>
        <line class="cls-1" x1="91.285" y1="165.825" x2="91.285" y2="170.625"/>
        <polyline class="cls-1" points="88.135 170.625 88.285 170.625 88.435 170.625 88.585 170.625 88.735 170.625"/>
        <line class="cls-1" x1="88.135" y1="170.625" x2="88.135" y2="161.625"/>
        <polyline class="cls-1" points="86.345 161.625 86.635 161.625 86.785 161.625 87.085 161.625 87.235 161.625 87.535 161.625 87.685 161.625 87.835 161.625 88.135 161.625"/>
        <line class="cls-1" x1="86.345" y1="161.625" x2="86.345" y2="160.425"/>
        <polyline class="cls-1" points="86.345 160.425 86.935 160.425 87.535 160.425 87.985 160.425 88.435 160.425 88.885 160.425 89.335 160.425 89.785 160.425 90.235 160.425"/>
        <line class="cls-1" x1="90.235" y1="160.425" x2="90.235" y2="161.625"/>
        <polyline class="cls-1" points="88.735 161.625 89.035 161.625 89.185 161.625 89.335 161.625 89.485 161.625 89.785 161.625 89.935 161.625 90.085 161.625 90.235 161.625"/>
        <line class="cls-1" x1="88.735" y1="161.625" x2="88.735" y2="170.625"/>
        <polyline class="cls-1" points="76.895 165.525 77.045 165.525 77.345 165.525 77.495 165.525 77.645 165.525 77.795 165.525 77.945 165.525 78.095 165.525 78.395 165.525"/>
        <line class="cls-1" x1="76.895" y1="165.525" x2="76.895" y2="170.625"/>
        <polyline class="cls-1" points="74.045 170.625 74.345 170.625 74.795 170.625 75.095 170.625 75.545 170.625 75.845 170.625 76.145 170.625 76.595 170.625 76.895 170.625"/>
        <line class="cls-1" x1="74.045" y1="170.625" x2="74.045" y2="165.525"/>
        <polyline class="cls-1" points="72.395 165.525 72.695 165.525 72.845 165.525 72.995 165.525 73.295 165.525 73.445 165.525 73.595 165.525 73.745 165.525 74.045 165.525"/>
        <line class="cls-1" x1="72.395" y1="165.525" x2="75.545" y2="160.425"/>
        <line class="cls-1" x1="75.545" y1="160.425" x2="78.395" y2="165.525"/>
        <polyline class="cls-1" points="7.605 69.535 7.605 69.685 7.605 69.985 7.605 70.285 7.605 70.735 7.605 71.485"/>
        <polyline class="cls-1" points="7.905 71.485 7.905 70.735 7.905 70.285 7.905 69.985 7.755 69.685 7.755 69.535 7.605 69.385"/>
        <polyline class="cls-1" points="7.755 73.735 7.755 73.585 7.755 73.435 7.905 73.135 7.905 72.835 7.905 72.385 7.905 71.485"/>
        <polyline class="cls-1" points="7.605 71.485 7.605 72.385 7.605 73.135 7.605 73.435 7.605 73.585 7.755 73.735"/>
        <polyline class="cls-1" points="8.805 66.545 8.655 67.445 8.655 68.185 8.655 69.835"/>
        <polyline class="cls-1" points="9.105 65.945 8.955 65.945 8.805 66.095 8.805 66.245 8.805 66.545"/>
        <polyline class="cls-1" points="9.555 69.835 9.555 69.385 9.555 68.935 9.555 68.335 9.555 67.895 9.555 67.445 9.555 67.145 9.555 66.845 9.405 66.395 9.255 66.095 9.105 65.945"/>
        <polyline class="cls-1" points="9.105 73.735 9.255 73.735 9.405 73.285 9.405 73.135 9.555 72.835 9.555 72.685 9.555 72.535 9.555 72.235 9.555 71.935 9.555 71.335 9.555 70.885 9.555 70.435 9.555 69.835"/>
        <polyline class="cls-1" points="8.655 69.835 8.655 70.435 8.655 70.885 8.655 71.335 8.655 71.935 8.655 72.235 8.655 72.535 8.655 72.835 8.805 73.285 8.805 73.585 8.955 73.735 9.105 73.735"/>
        <polyline class="cls-1" points="83.795 65.795 83.195 65.795 82.745 66.095 82.295 66.545 81.995 66.995 81.695 67.745 81.545 68.485 81.545 69.985"/>
        <polyline class="cls-1" points="85.745 69.835 85.745 69.235 85.745 68.785 85.745 68.335 85.595 67.595 85.295 66.995 84.995 66.545 84.845 66.245 84.695 66.095 84.395 65.945 84.245 65.795 83.945 65.795 83.795 65.795"/>
        <polyline class="cls-1" points="83.795 73.735 83.945 73.735 84.095 73.735 84.245 73.735 84.395 73.585 84.695 73.435 84.995 73.135 85.295 72.535 85.595 71.935 85.595 71.635 85.745 71.185 85.745 70.885 85.745 70.585 85.745 70.135 85.745 69.835"/>
        <polyline class="cls-1" points="81.545 69.985 81.545 70.435 81.545 70.885 81.545 71.335 81.845 72.085 81.995 72.685 82.445 73.135 82.895 73.435 83.345 73.735 83.495 73.735 83.795 73.735"/>
        <line class="cls-1" x1="19.455" y1="65.945" x2="19.455" y2="69.535"/>
        <polyline class="cls-1" points="21.105 65.945 20.955 65.945 20.655 65.945 20.505 65.945 20.205 65.945 20.055 65.945 19.755 65.945 19.605 65.945 19.455 65.945"/>
        <polyline class="cls-1" points="22.005 65.945 21.555 65.945 21.105 65.945"/>
        <polyline class="cls-1" points="22.755 67.745 22.755 67.145 22.605 66.695 22.305 66.245 22.005 65.945"/>
        <polyline class="cls-1" points="21.105 69.535 21.705 69.385 22.005 69.385 22.305 69.085 22.455 68.785 22.605 68.485 22.755 67.745"/>
        <polyline class="cls-1" points="21.105 69.535 20.955 69.535 20.655 69.535 20.505 69.535 20.205 69.535 20.055 69.535 19.755 69.535 19.605 69.535 19.455 69.535"/>
        <polyline class="cls-1" points="93.235 81.685 93.085 81.685 92.935 81.685 92.785 81.685 92.335 81.685 91.885 81.685 91.285 81.685 90.685 81.685 89.935 81.685 89.035 81.685 88.135 81.685 87.085 81.685 86.045 81.685 84.845 81.685 83.495 81.685 82.145 81.685 80.795 81.685 79.295 81.685 77.645 81.685 75.995 81.685 74.345 81.685 72.545 81.685 70.745 81.685 68.795 81.685 66.995 81.685 65.045 81.685 63.095 81.685 60.995 81.685 59.045 81.685 56.945 81.685 54.845 81.685 52.745 81.685 50.645 81.685 48.695 81.685 46.595 81.685 44.495 81.685 42.395 81.685 40.445 81.685 38.345 81.685 36.395 81.685 34.445 81.685 32.495 81.685 30.695 81.685 28.905 81.685 27.105 81.685 25.455 81.685 23.805 81.685 22.155 81.685 20.655 81.685 19.305 81.685 17.805 81.685 16.605 81.685 15.405 81.685 14.205 81.685 13.305 81.685 12.255 81.685 11.505 81.685 10.755 81.685 10.005 81.685 9.555 81.685 9.105 81.685 8.655 81.685 8.505 81.685 8.355 81.685 8.205 81.685"/>
        <polyline class="cls-1" points="8.205 57.845 8.355 57.845 8.505 57.845 8.655 57.845 9.105 57.845 9.555 57.845 10.005 57.845 10.755 57.845 11.505 57.845 12.255 57.845 13.305 57.845 14.205 57.845 14.955 57.845 15.405 57.845 16.605 57.845 17.805 57.845 19.305 57.845 20.655 57.845 22.155 57.845 23.805 57.845 25.455 57.845 27.105 57.845 28.905 57.845 30.695 57.845 32.495 57.845 34.445 57.845 36.395 57.845 38.345 57.845 40.445 57.845 42.395 57.845 44.495 57.845 46.595 57.845 48.695 57.845 50.645 57.845 52.745 57.845 54.845 57.845 56.945 57.845 59.045 57.845 60.995 57.845 63.095 57.845 65.045 57.845 66.995 57.845 68.795 57.845 70.745 57.845 72.545 57.845 74.345 57.845 75.995 57.845 77.645 57.845 79.295 57.845 80.795 57.845 82.145 57.845 83.495 57.845 84.845 57.845 86.045 57.845 86.485 57.845 87.085 57.845 88.135 57.845 89.035 57.845 89.935 57.845 90.685 57.845 91.285 57.845 91.885 57.845 92.335 57.845 92.785 57.845 92.935 57.845 93.085 57.845 93.235 57.845"/>
        <line class="cls-1" x1="13.305" y1="69.985" x2="13.305" y2="74.785"/>
        <polyline class="cls-1" points="13.305 74.785 13.155 74.785 13.005 74.785 12.855 74.785 12.705 74.785"/>
        <line class="cls-1" x1="12.705" y1="74.785" x2="12.705" y2="64.745"/>
        <polyline class="cls-1" points="13.305 64.745 13.155 64.745 13.005 64.745 12.855 64.745 12.705 64.745"/>
        <line class="cls-1" x1="13.305" y1="64.745" x2="13.305" y2="68.935"/>
        <polyline class="cls-1" points="16.005 68.935 15.705 68.935 15.405 68.935 14.955 68.935 14.655 68.935 14.355 68.935 14.055 68.935 13.605 68.935 13.305 68.935"/>
        <line class="cls-1" x1="16.005" y1="68.935" x2="16.005" y2="64.745"/>
        <polyline class="cls-1" points="16.905 64.745 16.755 64.745 16.605 64.745 16.455 64.745 16.305 64.745 16.155 64.745 16.005 64.745"/>
        <line class="cls-1" x1="16.905" y1="64.745" x2="16.905" y2="74.785"/>
        <polyline class="cls-1" points="16.905 74.785 16.755 74.785 16.605 74.785 16.455 74.785 16.305 74.785 16.155 74.785 16.005 74.785"/>
        <line class="cls-1" x1="16.005" y1="74.785" x2="16.005" y2="69.985"/>
        <polyline class="cls-1" points="16.005 69.985 15.705 69.985 15.405 69.985 14.955 69.985 14.655 69.985 14.355 69.985 14.055 69.985 13.605 69.985 13.305 69.985"/>
        <polyline class="cls-1" points="9.105 74.935 8.955 74.935 8.805 74.785 8.655 74.485 8.655 74.335 8.505 74.185 8.505 74.035"/>
        <polyline class="cls-1" points="8.505 74.035 8.505 73.735 8.505 73.435 8.355 72.985 8.355 72.535 8.355 71.935 8.355 71.485 8.355 70.885 8.355 70.435 8.355 69.835"/>
        <polyline class="cls-1" points="8.355 69.835 8.355 69.235 8.355 68.785 8.355 68.185 8.355 67.295 8.505 66.545 8.505 66.095 8.505 65.795 8.655 65.195 8.805 65.045 8.805 64.895 8.955 64.745 9.105 64.745"/>
        <polyline class="cls-1" points="9.105 64.745 9.255 64.745 9.255 64.895 9.405 65.045 9.555 65.195 9.705 65.495 9.705 65.795 9.855 66.095 9.855 66.545 10.005 67.295 10.005 68.185 10.005 68.935 10.005 69.835"/>
        <polyline class="cls-1" points="10.005 69.835 10.005 70.435 10.005 71.035 10.005 71.485 10.005 72.235 9.855 72.685 9.855 73.135 9.855 73.585 9.705 73.885 9.705 74.185 9.555 74.485 9.405 74.785 9.255 74.785 9.255 74.935 9.105 74.935"/>
        <line class="cls-1" x1="93.085" y1="70.735" x2="93.085" y2="71.785"/>
        <polyline class="cls-1" points="93.085 71.785 92.935 71.785 92.785 71.785 92.635 71.785 92.485 71.785 92.335 71.785 92.185 71.785"/>
        <line class="cls-1" x1="92.185" y1="71.785" x2="92.185" y2="70.735"/>
        <polyline class="cls-1" points="93.085 70.735 92.935 70.735 92.785 70.735 92.635 70.735 92.485 70.735 92.335 70.735 92.185 70.735"/>
        <line class="cls-1" x1="89.035" y1="70.735" x2="89.035" y2="71.785"/>
        <polyline class="cls-1" points="89.035 71.785 88.885 71.785 88.585 71.785 88.435 71.785 88.135 71.785 87.835 71.785 87.685 71.785 87.385 71.785 87.235 71.785"/>
        <line class="cls-1" x1="87.235" y1="71.785" x2="87.235" y2="70.735"/>
        <polyline class="cls-1" points="89.035 70.735 88.885 70.735 88.585 70.735 88.435 70.735 88.135 70.735 87.835 70.735 87.685 70.735 87.385 70.735 87.235 70.735"/>
        <line class="cls-1" x1="79.145" y1="64.745" x2="79.145" y2="74.785"/>
        <polyline class="cls-1" points="79.145 74.785 78.995 74.785 78.845 74.785 78.695 74.785 78.545 74.785 78.395 74.785 78.245 74.785 78.095 74.785"/>
        <line class="cls-1" x1="78.095" y1="74.785" x2="78.095" y2="64.745"/>
        <polyline class="cls-1" points="79.145 64.745 78.995 64.745 78.845 64.745 78.695 64.745 78.545 64.745 78.395 64.745 78.245 64.745 78.095 64.745"/>
        <polyline class="cls-1" points="7.455 80.935 7.605 80.935 7.755 80.935 7.905 80.935 8.355 80.935 8.805 80.935 9.405 80.935 10.005 80.935 10.755 80.935 11.655 80.935 12.555 80.935 13.605 80.935 14.655 80.935 15.855 80.935 17.205 80.935 18.555 80.935 20.055 80.935 21.555 80.935 23.055 80.935 24.705 80.935 26.505 80.935 28.155 80.935 30.095 80.935 31.895 80.935 33.845 80.935 35.795 80.935 37.745 80.935 39.845 80.935 41.795 80.935 43.895 80.935 45.995 80.935 48.095 80.935 50.195 80.935 52.295 80.935 54.395 80.935 56.495 80.935 58.595 80.935 60.545 80.935 62.645 80.935 64.595 80.935 66.695 80.935 68.495 80.935 70.445 80.935 72.245 80.935 74.045 80.935 75.845 80.935 77.495 80.935 79.145 80.935 80.645 80.935 82.145 80.935 83.645 80.935 84.845 80.935 86.195 80.935 87.235 80.935 88.435 80.935 89.335 80.935 90.235 80.935 90.985 80.935 91.735 80.935 92.335 80.935 92.935 80.935 93.235 80.935 93.535 80.935 93.835 80.935"/>
        <polyline class="cls-1" points="93.835 58.595 93.535 58.595 93.235 58.595 92.935 58.595 92.335 58.595 91.735 58.595 90.985 58.595 90.235 58.595 89.335 58.595 88.435 58.595 87.235 58.595 86.195 58.595 84.845 58.595 83.645 58.595 82.145 58.595 80.645 58.595 79.145 58.595 77.495 58.595 75.845 58.595 74.045 58.595 72.245 58.595 70.445 58.595 68.495 58.595 66.695 58.595 64.595 58.595 62.645 58.595 60.545 58.595 58.595 58.595 56.495 58.595 54.395 58.595 52.295 58.595 50.195 58.595 48.095 58.595 45.995 58.595 43.895 58.595 41.795 58.595 39.845 58.595 37.745 58.595 35.795 58.595 33.845 58.595 31.895 58.595 30.095 58.595 28.155 58.595 26.505 58.595 24.705 58.595 23.055 58.595 21.555 58.595 20.055 58.595 18.555 58.595 17.205 58.595 15.855 58.595 14.655 58.595 13.605 58.595 12.555 58.595 11.655 58.595 10.755 58.595 10.005 58.595 9.405 58.595 8.805 58.595 8.355 58.595 7.905 58.595 7.755 58.595 7.605 58.595 7.455 58.595"/>
        <polygon class="cls-1" points="54.545 68.635 54.545 69.385 54.395 69.985 54.095 70.585 53.645 71.035 53.195 71.485 52.745 71.935 52.145 72.235 51.545 72.385 50.945 72.535 50.195 72.535 49.595 72.385 48.995 72.085 48.545 71.785 47.945 71.485 47.645 70.885 47.195 70.435 47.045 69.835 46.895 69.085 46.895 68.485 47.045 67.895 47.195 67.295 47.495 66.695 47.795 66.095 48.395 65.645 48.845 65.345 49.445 65.045 50.045 64.895 50.795 64.895 51.395 64.895 51.995 65.045 52.595 65.345 53.045 65.795 53.495 66.095 53.945 66.695 54.245 67.295 54.395 67.895 54.545 68.635"/>
        <polyline class="cls-1" points="86.635 69.835 86.635 70.285 86.635 70.735 86.485 71.335 86.485 71.785 86.195 72.685 85.895 73.435 85.745 73.735 85.445 74.185 85.295 74.335 84.995 74.635 84.695 74.785 84.395 74.935 84.095 74.935 83.795 74.935"/>
        <polyline class="cls-1" points="83.795 74.935 83.495 74.935 83.045 74.935 82.745 74.785 82.445 74.635 81.845 74.185 81.395 73.435 80.945 72.685 80.645 71.785 80.645 71.335 80.495 70.885 80.495 70.435 80.495 69.985"/>
        <polyline class="cls-1" points="80.495 69.985 80.495 69.385 80.495 68.935 80.645 68.335 80.645 67.895 80.945 66.995 81.095 66.545 81.395 66.245 81.845 65.495 82.145 65.195 82.445 65.045 82.745 64.895 83.045 64.745 83.495 64.595 83.795 64.595"/>
        <polyline class="cls-1" points="83.795 64.595 84.095 64.595 84.395 64.745 84.695 64.895 84.995 65.045 85.445 65.495 85.895 66.095 86.195 66.995 86.485 67.895 86.485 68.335 86.635 68.785 86.635 69.235 86.635 69.835"/>
        <polyline class="cls-1" points="91.735 73.735 91.585 74.335 91.285 74.635 91.135 74.935 90.985 74.935 90.835 74.935"/>
        <polyline class="cls-1" points="90.835 74.935 90.685 74.935 90.535 74.935 90.385 74.785 90.235 74.485 89.935 74.185 89.785 73.735 89.635 73.285 89.635 72.985 89.635 72.685 89.635 72.385 89.635 72.085"/>
        <line class="cls-1" x1="89.635" y1="72.085" x2="90.085" y2="71.935"/>
        <polyline class="cls-1" points="90.085 71.935 90.235 72.685 90.385 73.285 90.385 73.585 90.535 73.735 90.835 73.735"/>
        <polyline class="cls-1" points="90.835 73.735 91.135 73.585 91.285 73.435 91.435 73.135 91.435 72.385 91.585 71.485"/>
        <polyline class="cls-1" points="91.585 71.485 91.435 70.585 91.435 70.285 91.435 69.835 91.285 69.535 91.135 69.385 90.835 69.235"/>
        <polyline class="cls-1" points="90.835 69.235 90.685 69.385 90.385 69.535 90.235 69.835 90.235 70.135"/>
        <line class="cls-1" x1="90.235" y1="70.135" x2="89.635" y2="69.985"/>
        <line class="cls-1" x1="89.635" y1="69.985" x2="90.085" y2="64.895"/>
        <polyline class="cls-1" points="91.735 64.895 91.585 64.895 91.435 64.895 91.135 64.895 90.985 64.895 90.835 64.895 90.535 64.895 90.235 64.895 90.085 64.895"/>
        <line class="cls-1" x1="91.735" y1="64.895" x2="91.735" y2="66.245"/>
        <polyline class="cls-1" points="91.735 66.245 91.585 66.245 91.435 66.245 91.285 66.245 91.135 66.245 90.985 66.245 90.835 66.245 90.685 66.245 90.535 66.245"/>
        <line class="cls-1" x1="90.535" y1="66.245" x2="90.235" y2="68.785"/>
        <polyline class="cls-1" points="90.235 68.785 90.535 68.335 90.985 68.045"/>
        <polyline class="cls-1" points="90.985 68.045 91.135 68.185 91.435 68.335 91.585 68.635 91.735 69.085 91.735 69.535 91.885 70.135 91.885 70.435 91.885 70.735 91.885 71.035 91.885 71.335"/>
        <polyline class="cls-1" points="91.885 71.335 91.885 71.785 91.885 72.235 91.885 72.685 91.885 72.985 91.735 73.135 91.735 73.435 91.735 73.735"/>
        <line class="cls-1" x1="93.835" y1="74.935" x2="93.685" y2="74.935"/>
        <polyline class="cls-1" points="93.685 74.935 93.535 74.785 93.535 74.485 93.535 74.185 93.385 73.735 93.385 73.285 93.385 72.985 93.385 72.685 93.385 72.385 93.385 72.085"/>
        <line class="cls-1" x1="93.385" y1="72.085" x2="93.535" y2="71.935"/>
        <polyline class="cls-1" points="93.535 71.935 93.535 72.685 93.535 73.285 93.535 73.585 93.685 73.735"/>
        <line class="cls-1" x1="93.685" y1="73.735" x2="93.835" y2="73.585"/>
        <line class="cls-1" x1="93.835" y1="69.385" x2="93.685" y2="69.235"/>
        <polyline class="cls-1" points="93.685 69.235 93.685 69.385 93.685 69.535 93.535 69.835 93.535 70.135"/>
        <line class="cls-1" x1="93.535" y1="70.135" x2="93.385" y2="69.985"/>
        <line class="cls-1" x1="93.385" y1="69.985" x2="93.535" y2="64.895"/>
        <polyline class="cls-1" points="93.835 64.895 93.685 64.895 93.535 64.895"/>
        <line class="cls-1" x1="93.835" y1="66.245" x2="93.685" y2="66.245"/>
        <line class="cls-1" x1="93.685" y1="66.245" x2="93.535" y2="68.785"/>
        <polyline class="cls-1" points="93.535 68.785 93.685 68.335 93.685 68.045"/>
        <line class="cls-1" x1="93.685" y1="68.045" x2="93.835" y2="68.185"/>
        <polyline class="cls-1" points="7.605 65.945 7.605 65.645 7.605 65.495 7.605 65.345 7.605 65.045 7.605 64.895 7.605 64.745 7.755 64.745"/>
        <polyline class="cls-1" points="7.755 64.745 7.755 64.895 7.905 65.195 7.905 65.495 8.055 65.795 8.055 66.245 8.055 67.295"/>
        <line class="cls-1" x1="8.055" y1="67.295" x2="7.905" y2="67.445"/>
        <polyline class="cls-1" points="7.905 67.445 7.905 66.995 7.905 66.395"/>
        <polyline class="cls-1" points="7.905 66.395 7.755 66.095 7.755 65.945"/>
        <line class="cls-1" x1="7.755" y1="65.945" x2="7.605" y2="65.945"/>
        <polyline class="cls-1" points="7.605 66.245 7.605 66.395 7.605 66.695 7.605 66.845 7.605 67.295 7.605 67.745 7.605 68.185"/>
        <polyline class="cls-1" points="7.605 69.535 7.605 69.385 7.605 68.935 7.605 68.635 7.605 68.335 7.605 68.185 7.755 68.185"/>
        <polyline class="cls-1" points="7.755 68.185 7.755 68.335 7.905 68.485 7.905 68.785 7.905 69.235 8.055 69.685 8.055 70.285 8.055 70.585 8.055 70.885 8.055 71.185 8.055 71.485"/>
        <polyline class="cls-1" points="8.055 71.485 8.055 71.935 8.055 72.385 8.055 72.835 8.055 73.435 7.905 73.885 7.905 74.185 7.905 74.335 7.755 74.635 7.755 74.785 7.755 74.935"/>
        <polyline class="cls-1" points="7.755 74.935 7.605 74.935 7.605 74.635 7.605 74.035 7.605 73.735 7.455 73.435"/>
        <polyline class="cls-1" points="7.455 66.545 7.605 66.245 7.605 65.945"/>
        <line class="cls-1" x1="11.955" y1="70.735" x2="11.955" y2="71.785"/>
        <polyline class="cls-1" points="11.955 71.785 11.655 71.785 11.505 71.785 11.355 71.785 11.055 71.785 10.905 71.785 10.755 71.785 10.605 71.785 10.455 71.785"/>
        <line class="cls-1" x1="10.455" y1="71.785" x2="10.455" y2="70.735"/>
        <polyline class="cls-1" points="11.955 70.735 11.655 70.735 11.505 70.735 11.355 70.735 11.055 70.735 10.905 70.735 10.755 70.735 10.605 70.735 10.455 70.735"/>
        <line class="cls-1" x1="19.455" y1="70.735" x2="19.455" y2="74.785"/>
        <polyline class="cls-1" points="19.455 74.785 19.305 74.785 19.155 74.785 19.005 74.785 18.855 74.785 18.705 74.785 18.555 74.785 18.405 74.785"/>
        <line class="cls-1" x1="18.405" y1="74.785" x2="18.405" y2="64.745"/>
        <polyline class="cls-1" points="20.955 64.745 20.655 64.745 20.355 64.745 20.055 64.745 19.755 64.745 19.305 64.745 19.005 64.745 18.705 64.745 18.405 64.745"/>
        <line class="cls-1" x1="20.955" y1="64.745" x2="22.155" y2="64.895"/>
        <polyline class="cls-1" points="22.155 64.895 22.755 65.195 23.205 65.495 23.355 65.795 23.805 66.695 23.805 67.595"/>
        <polyline class="cls-1" points="23.805 67.595 23.805 68.045 23.805 68.485 23.655 68.935 23.505 69.235 23.355 69.535 23.205 69.835 23.055 69.985 22.605 70.285 22.455 70.435 22.155 70.585 21.855 70.585 21.555 70.735 21.105 70.735"/>
        <polyline class="cls-1" points="21.105 70.735 20.955 70.735 20.655 70.735 20.505 70.735 20.205 70.735 20.055 70.735 19.755 70.735 19.605 70.735 19.455 70.735"/>
        <polyline class="cls-1" points="86.485 231.365 86.345 231.365 86.045 231.365 85.745 231.365 85.295 231.365 84.695 231.365 84.095 231.365 83.345 231.365 82.445 231.365 81.545 231.365 80.495 231.365 79.445 231.365 78.245 231.365 77.045 231.365 75.695 231.365 74.195 231.365 72.845 231.365 71.345 231.365 69.695 231.365 68.045 231.365 66.395 231.365 64.595 231.365 62.795 231.365 60.995 231.365 59.195 231.365 57.395 231.365 55.445 231.365 53.495 231.365 51.695 231.365 49.745 231.365 47.795 231.365 45.995 231.365 44.045 231.365 42.245 231.365 40.445 231.365 38.495 231.365 36.845 231.365 35.045 231.365 33.395 231.365 31.745 231.365 30.095 231.365 28.605 231.365 27.105 231.365 25.755 231.365 24.405 231.365 23.205 231.365 22.005 231.365 20.955 231.365 19.905 231.365 19.005 231.365 18.105 231.365 17.355 231.365 16.755 231.365 16.155 231.365 15.705 231.365 15.405 231.365 15.105 231.365 14.955 231.365"/>
        <polyline class="cls-1" points="14.955 204.065 14.955 203.915 15.105 203.465 15.255 202.715 15.555 201.815 15.855 200.615 16.155 199.115 16.305 197.615 16.455 195.815 16.605 194.015 16.605 192.215 16.455 190.565 16.305 188.915 16.155 187.415 15.855 185.915 15.555 184.715 15.255 183.665 15.105 183.065 14.955 182.615 14.955 182.465"/>
        <polyline class="cls-1" points="86.485 222.065 86.485 221.915 86.345 221.465 86.045 220.715 85.895 219.665 85.595 218.465 85.295 217.115 85.145 215.465 84.845 213.665 84.845 211.865 84.845 210.065 84.995 208.415 85.145 206.765 85.295 205.265 85.595 203.915 85.895 202.715 86.195 201.665 86.345 200.915 86.485 200.615 86.485 200.465"/>
        <polyline class="cls-1" points="73.595 52.295 74.645 51.695 75.395 50.645 76.145 49.595 76.745 48.095 77.195 46.595 77.345 44.795 77.425 43.895 77.495 42.995 77.495 41.195 77.345 39.545 77.195 37.895 76.745 36.395 76.295 35.045 75.695 33.695 75.145 33.055 74.795 32.645 73.745 31.895 73.675 31.815 73.595 31.745"/>
        <polyline class="cls-1" points="14.955 3.855 15.105 3.855 15.255 3.855 15.405 3.855 15.855 3.855 16.305 3.855 16.905 3.855 17.505 3.855 18.255 3.855 19.155 3.855 20.055 3.855 21.105 3.855 22.305 3.855 23.505 3.855 24.705 3.855 26.055 3.855 27.555 3.855 29.055 3.855 30.545 3.855 32.195 3.855 33.845 3.855 35.495 3.855 37.295 3.855 38.945 3.855 40.895 3.855 42.695 3.855 44.495 3.855 46.445 3.855 48.395 3.855 50.195 3.855 52.145 3.855 54.095 3.855 55.895 3.855 57.845 3.855 59.645 3.855 61.445 3.855 63.245 3.855 65.045 3.855 66.845 3.855 68.495 3.855 70.145 3.855 71.645 3.855 73.145 3.855 74.645 3.855 75.995 3.855"/>
        <polyline class="cls-1" points="75.995 3.855 77.345 3.855 78.545 3.855 79.745 3.855 80.795 3.855 81.845 3.855 82.745 3.855 83.495 3.855 84.245 3.855 84.845 3.855 85.295 3.855 85.745 3.855 86.045 3.855 86.345 3.855 86.485 3.855"/>
        <polyline class="cls-1" points="75.995 31.295 74.795 31.445 73.675 31.815 73.445 31.895 72.095 32.495 70.895 33.545 69.845 34.745 68.795 36.095 68.045 37.745 67.445 39.545 67.145 41.195 67.295 43.145 67.445 44.795 68.045 46.445 68.795 47.945 69.515 49.015 69.695 49.295 70.895 50.645 72.095 51.545 73.445 52.295 73.585 52.335 74.795 52.745 76.145 52.895 77.345 52.745 78.395 52.295 79.445 51.545 80.345 50.645 80.945 49.295 81.545 47.945 81.995 46.295 82.295 44.495 82.445 42.695 82.445 41.045 82.295 39.245 81.995 37.595 81.545 36.095 80.945 34.745 80.195 33.545 79.295 32.495 78.245 31.745 77.195 31.445 75.995 31.295"/>
        <polyline class="cls-1" points="84.245 234.965 84.095 234.965 83.945 234.965 83.645 234.965 83.195 234.965 82.745 234.965 82.145 234.965 81.395 234.965 80.645 234.965 79.745 234.965 78.845 234.965 77.795 234.965 76.595 234.965 75.395 234.965 74.195 234.965 72.695 234.965 71.345 234.965 69.845 234.965 68.345 234.965 66.695 234.965 65.045 234.965 63.395 234.965 61.595 234.965 59.795 234.965 57.995 234.965 56.195 234.965 54.395 234.965 52.595 234.965 50.645 234.965 48.845 234.965 47.045 234.965 45.245 234.965 43.295 234.965 41.495 234.965 39.845 234.965 38.045 234.965 36.395 234.965 34.745 234.965 33.095 234.965 31.595 234.965 30.095 234.965 28.605 234.965 27.255 234.965 26.055 234.965 24.855 234.965 23.655 234.965 22.605 234.965 21.705 234.965 20.805 234.965 20.055 234.965 19.305 234.965 18.705 234.965 18.255 234.965 17.805 234.965 17.505 234.965 17.355 234.965 17.205 234.965"/>
        <polyline class="cls-1" points="15.105 232.865 15.255 232.865 15.405 232.865 15.705 232.865 16.155 232.865 16.605 232.865 17.205 232.865 17.955 232.865 18.705 232.865 19.605 232.865 20.655 232.865 21.705 232.865 22.755 232.865 24.105 232.865 25.305 232.865 26.655 232.865 28.155 232.865 29.655 232.865 31.295 232.865 32.945 232.865 34.595 232.865 36.245 232.865 38.045 232.865 39.845 232.865 41.645 232.865 43.595 232.865 45.395 232.865 47.345 232.865 49.295 232.865 51.245 232.865 53.045 232.865 54.995 232.865 56.945 232.865 58.745 232.865 60.695 232.865 62.495 232.865 64.295 232.865 65.945 232.865 67.745 232.865 69.395 232.865 70.895 232.865 72.545 232.865 74.045 232.865 75.395 232.865 76.745 232.865 77.945 232.865 79.145 232.865 80.345 232.865 81.395 232.865 82.295 232.865 83.045 232.865 83.795 232.865 84.545 232.865 84.995 232.865 85.595 232.865 85.895 232.865 86.195 232.865 86.345 232.865"/>
        <polyline class="cls-1" points="74.945 .255 74.045 .255 73.895 .255"/>
        <polyline class="cls-1" points="74.945 .255 76.145 .255 77.345 .255 78.395 .255 79.445 .255 80.345 .255 81.095 .255 81.845 .255 82.445 .255 83.045 .255 83.495 .255 83.795 .255 83.945 .255 84.095 .255 84.245 .255"/>
        <line class="cls-1" x1="74.945" y1=".405" x2="74.945" y2=".255"/>
        <polyline class="cls-1" points="73.895 .405 74.045 .255 74.945 .405"/>
        <line class="cls-1" x1="73.895" y1=".255" x2="73.895" y2=".405"/>
        <polyline class="cls-1" points="17.205 .255 17.355 .255 17.505 .255 17.805 .255 18.105 .255 18.555 .255 19.155 .255 19.905 .255 20.655 .255 21.405 .255 22.455 .255 23.505 .255 24.555 .255 25.755 .255 27.105 .255 28.455 .255 29.795 .255 31.295 .255 32.795 .255 34.445 .255 36.095 .255 37.745 .255 39.395 .255 41.195 .255 42.995 .255 44.795 .255 46.595 .255 48.545 .255 50.345 .255 52.145 .255 54.095 .255 55.895 .255 57.695 .255 59.495 .255 61.295 .255 62.945 .255 64.745 .255 66.395 .255 68.045 .255 69.545 .255 71.045 .255 72.545 .255 73.895 .255"/>
        <polyline class="cls-1" points="86.345 2.505 86.195 2.505 86.045 2.505 85.745 2.505 85.295 2.505 84.695 2.505 84.095 2.505 83.345 2.505 82.595 2.505 81.695 2.505 80.645 2.505 79.595 2.505 78.395 2.505 77.195 2.505 75.845 2.505"/>
        <polyline class="cls-1" points="75.845 2.505 74.495 2.505 72.995 2.505 71.495 2.505 69.995 2.505 68.345 2.505 66.695 2.505 64.895 2.505 63.095 2.505 61.295 2.505 59.495 2.505 57.545 2.505 55.745 2.505 53.795 2.505 51.845 2.505 50.045 2.505 48.095 2.505 46.145 2.505 44.345 2.505 42.395 2.505 40.595 2.505 38.795 2.505 36.995 2.505 35.195 2.505 33.545 2.505 31.895 2.505 30.245 2.505 28.755 2.505 27.255 2.505 25.905 2.505 24.555 2.505 23.205 2.505 22.155 2.505 20.955 2.505 19.905 2.505 19.005 2.505 18.255 2.505 17.505 2.505 16.905 2.505 16.305 2.505 15.855 2.505 15.555 2.505 15.255 2.505 15.105 2.505"/>
        <line class="cls-1" x1="71.645" y1="33.095" x2="71.645" y2="43.895"/>
        <polyline class="cls-1" points="71.645 43.895 71.495 44.795 71.345 45.845 71.045 46.745 70.595 47.795 70.145 48.395 69.545 48.995"/>
        <line class="cls-1" x1="64.145" y1="167.925" x2="63.845" y2="164.775"/>
        <line class="cls-1" x1="64.145" y1="167.925" x2="64.595" y2="167.925"/>
        <line class="cls-1" x1="61.745" y1="169.725" x2="64.145" y2="167.925"/>
        <line class="cls-1" x1="63.845" y1="164.775" x2="61.295" y2="163.575"/>
        <line class="cls-1" x1="63.845" y1="164.775" x2="64.295" y2="164.775"/>
        <line class="cls-1" x1="64.295" y1="164.775" x2="61.445" y2="163.425"/>
        <line class="cls-1" x1="64.595" y1="167.925" x2="64.295" y2="164.775"/>
        <line class="cls-1" x1="62.045" y1="169.875" x2="64.595" y2="167.925"/>
        <polyline class="cls-1" points="59.195 168.525 61.745 169.735 62.045 169.875"/>
        <line class="cls-1" x1="58.895" y1="165.225" x2="59.195" y2="168.525"/>
        <line class="cls-1" x1="61.445" y1="163.425" x2="58.895" y2="165.225"/>
        <line class="cls-1" x1="53.495" y1="67.145" x2="50.645" y2="65.495"/>
        <line class="cls-1" x1="53.495" y1="70.285" x2="53.495" y2="67.145"/>
        <line class="cls-1" x1="50.645" y1="71.935" x2="53.495" y2="70.285"/>
        <line class="cls-1" x1="47.945" y1="70.285" x2="50.645" y2="71.935"/>
        <line class="cls-1" x1="47.945" y1="67.145" x2="47.945" y2="70.285"/>
        <line class="cls-1" x1="50.645" y1="65.495" x2="47.945" y2="67.145"/>
        <polyline class="cls-1" points="52.895 104.635 52.895 111.835 52.895 123.535 52.895 130.575"/>
        <polyline class="cls-1" points="61.445 107.635 63.995 107.635 66.545 107.635 68.945 107.635 71.345 107.635 73.745 107.635 76.145 107.635 78.545 107.635 80.795 107.635 83.045 107.635 85.145 107.635"/>
        <polyline class="cls-1" points="85.145 107.635 87.085 107.635 88.885 107.935 90.535 108.385 92.185 108.985 93.535 109.735 94.735 110.785 95.485 111.685 96.085 112.735 96.535 113.785 96.985 114.985 97.285 116.185 97.285 117.535 97.285 118.885 97.135 120.085 96.685 121.135 96.235 122.335 95.635 123.235 94.585 124.585 93.385 125.625 92.035 126.375 90.685 126.975 89.335 127.275 87.235 127.575 85.145 127.725"/>
        <polyline class="cls-1" points="85.145 127.725 83.045 127.725 80.795 127.725 78.545 127.725 76.145 127.725 73.745 127.725 71.345 127.725 68.945 127.725 66.545 127.725 63.995 127.725 61.445 127.725"/>
        <polyline class="cls-1" points="61.445 120.835 61.445 127.425 61.445 127.725"/>
        <polyline class="cls-1" points="61.445 107.635 61.445 107.935 61.445 114.385"/>
        <line class="cls-1" x1="101.035" y1="104.635" x2="101.035" y2="130.575"/>
        <line class="cls-1" x1="52.895" y1="130.575" x2="54.395" y2="132.075"/>
        <polyline class="cls-1" points="99.685 132.075 98.035 132.075 96.235 132.075 94.435 132.075 93.835 132.075 92.485 132.075 90.385 132.075 88.435 132.075 86.345 132.075 84.095 132.075 81.845 132.075 79.595 132.075 77.195 132.075 74.795 132.075 72.395 132.075 69.845 132.075 67.295 132.075 64.745 132.075 62.195 132.075 59.645 132.075 56.945 132.075 54.395 132.075"/>
        <line class="cls-1" x1="101.035" y1="130.575" x2="99.685" y2="132.075"/>
        <polyline class="cls-1" points="52.895 130.575 55.595 130.575 58.295 130.575 60.845 130.575 63.545 130.575 66.095 130.575 68.645 130.575 71.195 130.575 73.745 130.575 76.145 130.575 78.545 130.575 80.945 130.575 83.195 130.575 85.145 130.575 85.445 130.575 87.685 130.575 89.785 130.575 91.885 130.575 93.835 130.575 95.785 130.575 97.585 130.575 99.385 130.575 101.035 130.575"/>
        <line class="cls-1" x1="101.035" y1="104.635" x2="99.685" y2="103.285"/>
        <polyline class="cls-1" points="54.395 103.285 56.945 103.285 59.645 103.285 62.195 103.285 64.745 103.285 67.295 103.285 69.845 103.285 72.395 103.285 74.795 103.285 77.195 103.285 79.595 103.285 81.845 103.285 84.095 103.285 86.345 103.285 88.435 103.285 90.385 103.285 92.485 103.285 93.835 103.285 94.435 103.285 96.235 103.285 98.035 103.285 99.685 103.285"/>
        <line class="cls-1" x1="54.395" y1="103.285" x2="52.895" y2="104.635"/>
        <polyline class="cls-1" points="101.035 104.635 99.385 104.635 97.585 104.635 95.785 104.635 93.835 104.635 91.885 104.635 89.785 104.635 87.685 104.635 87.085 104.635 85.445 104.635 83.195 104.635 80.945 104.635 78.545 104.635 76.145 104.635 73.745 104.635 71.195 104.635 68.645 104.635 66.095 104.635 63.545 104.635 60.845 104.635 58.295 104.635 55.595 104.635 52.895 104.635"/>
        <polygon class="cls-1" points="16.155 112.735 18.255 112.885 20.505 113.485 21.705 113.935 22.755 114.385 23.655 114.985 24.555 115.735 25.005 116.335 25.305 116.785 25.455 117.235 25.455 117.835 25.305 118.585 25.005 119.035 24.705 119.335 24.105 119.935 23.505 120.535 21.855 121.435 20.055 122.035 18.405 122.335 16.755 122.485 15.105 122.485 13.755 122.335 12.555 121.885 11.655 121.435 10.905 120.835 10.455 120.235 10.005 119.635 9.855 119.185 9.705 118.585 9.555 117.985 9.555 117.385 9.705 116.335 10.155 115.435 10.755 114.685 11.355 114.235 12.255 113.635 13.305 113.185 14.805 112.885 16.155 112.735"/>
        <polyline class="cls-1" points="48.395 130.575 48.395 123.535 48.395 111.835 48.395 104.635"/>
        <line class="cls-1" x1=".255" y1="104.635" x2=".255" y2="130.575"/>
        <line class="cls-1" x1="47.045" y1="132.075" x2="48.395" y2="130.575"/>
        <polyline class="cls-1" points=".255 130.575 2.055 130.575 3.705 130.575 5.655 130.575 7.605 130.575 9.555 130.575 11.655 130.575 13.755 130.575 16.005 130.575 18.255 130.575 20.505 130.575 22.905 130.575 25.305 130.575 27.705 130.575 30.245 130.575 32.795 130.575 35.345 130.575 37.895 130.575 40.595 130.575 43.145 130.575 45.845 130.575 48.395 130.575"/>
        <line class="cls-1" x1="1.755" y1="132.075" x2=".255" y2="130.575"/>
        <polyline class="cls-1" points="47.045 132.075 44.345 132.075 41.795 132.075 39.245 132.075 36.695 132.075 34.145 132.075 31.595 132.075 29.055 132.075 26.655 132.075 24.255 132.075 21.855 132.075 19.605 132.075 17.355 132.075 15.105 132.075 13.005 132.075 10.905 132.075 8.955 132.075 7.455 132.075 7.005 132.075 5.205 132.075 3.405 132.075 1.755 132.075"/>
        <line class="cls-1" x1="1.755" y1="103.285" x2=".255" y2="104.635"/>
        <polyline class="cls-1" points="48.395 104.635 45.845 104.635 43.145 104.635 40.595 104.635 37.895 104.635 35.345 104.635 32.795 104.635 30.245 104.635 27.705 104.635 25.305 104.635 22.905 104.635 20.505 104.635 18.255 104.635 16.005 104.635 13.755 104.635 11.655 104.635 9.555 104.635 7.605 104.635 5.655 104.635 3.705 104.635 2.055 104.635 .255 104.635"/>
        <line class="cls-1" x1="47.045" y1="103.285" x2="48.395" y2="104.635"/>
        <polyline class="cls-1" points="1.755 103.285 3.405 103.285 5.205 103.285 7.005 103.285 7.455 103.285 8.955 103.285 10.905 103.285 13.005 103.285 15.105 103.285 17.355 103.285 19.605 103.285 21.855 103.285 24.255 103.285 26.655 103.285 29.055 103.285 31.595 103.285 34.145 103.285 36.695 103.285 39.245 103.285 41.795 103.285 44.345 103.285 47.045 103.285"/>
        <polyline class="cls-1" points="61.445 114.385 61.445 114.535 61.445 115.435 61.445 116.485 61.445 117.385 61.445 118.435 61.445 119.335 61.445 120.385 61.445 120.835"/>
        <polyline class="cls-1" points="73.295 107.935 73.295 108.085 73.295 108.385 73.295 108.685 73.295 109.135 73.295 109.735 73.295 110.335 73.295 111.085 73.295 111.835 73.295 112.735 73.295 113.485 73.295 114.535 73.295 115.435 73.295 116.485 73.295 117.385 73.295 118.435 73.295 119.335 73.295 120.385 73.295 121.285 73.295 122.185 73.295 123.085 73.295 123.835 73.295 124.585 73.295 125.325 73.295 125.925 73.295 126.375 73.295 126.825 73.295 127.125 73.295 127.275 73.295 127.425"/>
        <line class="cls-1" x1="93.235" y1="153.675" x2="93.835" y2="152.925"/>
        <line class="cls-1" x1="7.455" y1="152.925" x2="8.205" y2="153.675"/>
        <line class="cls-1" x1="8.205" y1="81.685" x2="7.455" y2="82.435"/>
        <line class="cls-1" x1="93.835" y1="82.435" x2="93.235" y2="81.685"/>
        <line class="cls-1" x1="7.455" y1="132.075" x2="7.455" y2="152.925"/>
        <line class="cls-1" x1="7.455" y1="82.435" x2="7.455" y2="103.285"/>
        <line class="cls-1" x1="93.835" y1="103.285" x2="93.835" y2="82.435"/>
        <line class="cls-1" x1="93.835" y1="152.925" x2="93.835" y2="132.075"/>
        <polyline class="cls-1" points="7.455 162.375 7.455 164.625 7.455 166.275 7.455 168.675"/>
        <polyline class="cls-1" points="7.455 160.875 7.455 161.475 7.455 162.375"/>
        <polyline class="cls-1" points="7.455 168.675 7.455 169.875 7.455 170.175"/>
        <line class="cls-1" x1="93.835" y1="168.675" x2="93.835" y2="162.375"/>
        <polyline class="cls-1" points="93.835 170.175 93.835 169.575 93.835 169.425 93.835 168.675"/>
        <polyline class="cls-1" points="93.835 162.375 93.835 161.625 93.835 161.475 93.835 160.875"/>
        <line class="cls-1" x1="93.235" y1="177.375" x2="93.835" y2="176.625"/>
        <line class="cls-1" x1="7.455" y1="176.625" x2="8.205" y2="177.375"/>
        <line class="cls-1" x1="8.205" y1="153.675" x2="7.455" y2="154.425"/>
        <line class="cls-1" x1="93.835" y1="154.425" x2="93.235" y2="153.675"/>
        <polyline class="cls-1" points="93.835 176.625 93.835 170.775 93.835 170.625 93.835 170.175"/>
        <polyline class="cls-1" points="93.835 160.875 93.835 160.425 93.835 154.425"/>
        <line class="cls-1" x1="7.455" y1="154.425" x2="7.455" y2="160.875"/>
        <line class="cls-1" x1="7.455" y1="170.175" x2="7.455" y2="176.625"/>
        <line class="cls-1" x1="93.235" y1="81.685" x2="93.835" y2="80.935"/>
        <line class="cls-1" x1="7.455" y1="80.935" x2="8.205" y2="81.685"/>
        <line class="cls-1" x1="8.205" y1="57.845" x2="7.455" y2="58.595"/>
        <line class="cls-1" x1="93.835" y1="58.595" x2="93.235" y2="57.845"/>
        <polyline class="cls-1" points="7.455 58.595 7.455 66.545 7.455 70.135 7.455 73.435 7.455 80.935"/>
        <polyline class="cls-1" points="93.835 80.935 93.835 74.935 93.835 73.735 93.835 73.585 93.835 71.485 93.835 71.335 93.835 69.385 93.835 68.185 93.835 66.245 93.835 64.895 93.835 58.595"/>
        <line class="cls-1" x1="14.955" y1="177.375" x2="14.955" y2="182.465"/>
        <line class="cls-1" x1="14.955" y1="204.065" x2="14.955" y2="231.365"/>
        <line class="cls-1" x1="86.485" y1="231.365" x2="86.485" y2="222.065"/>
        <line class="cls-1" x1="86.485" y1="200.465" x2="86.485" y2="177.375"/>
        <line class="cls-1" x1="86.485" y1="57.845" x2="86.485" y2="3.855"/>
        <line class="cls-1" x1="14.955" y1="3.855" x2="14.955" y2="57.845"/>
        <line class="cls-1" x1="86.345" y1="232.865" x2="86.345" y2="231.365"/>
        <line class="cls-1" x1="15.105" y1="231.365" x2="15.105" y2="232.865"/>
        <line class="cls-1" x1="84.245" y1="234.965" x2="86.345" y2="232.865"/>
        <line class="cls-1" x1="15.105" y1="232.865" x2="17.205" y2="234.965"/>
        <line class="cls-1" x1="17.205" y1=".255" x2="15.105" y2="2.505"/>
        <line class="cls-1" x1="86.345" y1="2.505" x2="84.245" y2=".255"/>
        <line class="cls-1" x1="15.105" y1="2.505" x2="15.105" y2="3.855"/>
        <line class="cls-1" x1="86.345" y1="3.855" x2="86.345" y2="2.505"/>
        <line class="cls-1" x1="48.395" y1="123.535" x2="52.895" y2="123.535"/>
        <line class="cls-1" x1="52.895" y1="111.835" x2="48.395" y2="111.835"/>
        <line class="cls-1" x1="73.295" y1="107.935" x2="61.445" y2="107.935"/>
        <line class="cls-1" x1="61.445" y1="127.425" x2="73.295" y2="127.425"/>
      </g>
    </g>
  </g>
</svg>