<?xml version="1.0" encoding="UTF-8"?>
<svg id="Layer_2" data-name="Layer 2" xmlns="http://www.w3.org/2000/svg" width="31.53478mm" height="35.1795mm" viewBox="0 0 89.38994 99.72141">
  <defs>
    <style>
      .cls-1 {
        fill: #9d9fa2;
      }

      .cls-2 {
        fill: #bcbec0;
      }

      .cls-3 {
        stroke-width: .72px;
      }

      .cls-3, .cls-4, .cls-5, .cls-6, .cls-7, .cls-8 {
        fill: none;
        stroke: #000;
        stroke-linecap: round;
        stroke-linejoin: round;
      }

      .cls-4 {
        stroke-width: 1.08px;
      }

      .cls-5 {
        stroke-width: 1.44px;
      }

      .cls-6 {
        stroke-width: 1.44001px;
      }

      .cls-7 {
        stroke-width: 1.44px;
      }

      .cls-8 {
        stroke-width: 1.44px;
      }

      .cls-9 {
        fill: #89a4b6;
        stroke: #010101;
        stroke-width: .6px;
      }
    </style>
  </defs>
  <g id="Optical_elements" data-name="Optical elements">
    <g id="Mirror_mount_-_Fixed_1_" data-name="Mirror mount - Fixed 1&amp;apos;&amp;apos;">
      <g>
        <g>
          <path class="cls-2" d="M12.68425,76.83299c.82732.8556,1.32936,2.02233,1.32936,3.30926.00707,2.63751-2.12839,4.77297-4.7659,4.78004-2.63751-.00707-4.77297-2.14253-4.77297-4.77297s2.13546-4.7659,4.77297-4.77297c1.3435,0,2.5668.55861,3.43654,1.45664ZM76.83296,12.68425c-.9051-.86267-1.46371-2.08596-1.46371-3.42947,0-2.63044,2.13546-4.7659,4.77297-4.77297,2.63044,0,4.7659,2.13546,4.7659,4.7659.00707,2.63751-2.12839,4.77297-4.7659,4.78004-1.29401-.00707-2.45366-.51619-3.30926-1.3435ZM75.94201,13.5752l-.12728.12728-3.94566,3.94566c14.87046,14.94116,14.85632,39.11007-.06363,54.03003-14.90581,14.91996-39.09593,14.94117-54.03003.06365l-.12728.12728-3.94566,3.94566-.06364-.06364c-4.87904-4.87904-8.54892-10.83995-10.69853-17.4019l-.01414-.01414-.04243.04243H.76242s-.04242,24.31033-.04242,24.31033l1.40007,1.65463,3.0547,3.0547,1.49907,1.27279h76.39582s.76368-.76369.76368-.76369l.25456-.25456,4.58205-4.58205V6.44756s-1.78192-1.78191-1.78192-1.78191l-.25456-.25456-1.52735-1.52735-.25456-.25456-1.90919-1.90919-24.48004.04243v2.05061c6.56902,2.15667,12.52993,5.81242,17.41604,10.69852l.06364.06364ZM80.26951,84.92228c-2.63751-.00707-4.77297-2.14253-4.77297-4.77297s2.13546-4.7659,4.77297-4.77297c2.63044,0,4.7659,2.13546,4.7659,4.7659.00707,2.63751-2.12839,4.77297-4.7659,4.78004Z"/>
          <path class="cls-1" d="M12.64182,65.37786l-1.91626-3.48604-3.6416-3.6416,1.40007-1.40007-1.08187-2.60922-.19092-.19092-4.28507,4.28507.01414.01414c2.14961,6.56195,5.81949,12.52286,10.69853,17.4019l.06364.06364,3.94566-3.94566-3.43654-3.94566-1.54856-2.49609-.02121-.0495Z"/>
          <path class="cls-2" d="M.84727,6.44758l-.08484,51.92992h2.12132s.04243-.04243.04243-.04243l4.28507-4.28507.07778-.07778-.38891-.94045c-3.18198-12.98248.64346-26.69328,10.09748-36.1473C26.4516,7.43045,40.15533,3.59793,53.15196,6.77991l.11314.15556.84853.21213,4.26385-4.26385.08485-.07071V.76243s-52.01478.08486-52.01478.08486L1.8655,5.42934l-.25456.25456-.76368.76368ZM9.37498,14.02776c-2.63751-.00707-4.77297-2.14253-4.77297-4.77297s2.13546-4.7659,4.77297-4.77297c2.63044,0,4.7659,2.13546,4.7659,4.7659.00707,2.63751-2.12839,4.77297-4.7659,4.78004Z"/>
          <polygon class="cls-1" points="57.11882 8.21534 55.57733 7.50823 54.11362 7.14761 53.79542 7.4658 7.46579 53.79545 7.28902 53.97222 7.40215 54.24092 8.48403 56.85015 10.12452 60.7958 10.72556 61.89182 12.64182 65.37786 12.66303 65.42735 14.2116 67.92344 17.64813 71.8691 17.77541 71.74182 19.17549 70.34174 26.68496 62.83227 29.73966 59.77757 32.79436 56.72287 35.72178 53.79544 39.79472 49.72251 44.7586 44.75862 49.72249 39.79473 53.79543 35.72179 56.85013 32.66709 59.77755 29.73967 62.83225 26.68496 70.34172 19.17549 71.86907 17.64814 71.862 17.64107 67.92342 14.2116 65.25055 12.55697 65.05963 12.47919 62.09686 10.5205 61.33318 10.16695 57.11882 8.21534"/>
          <path class="cls-1" d="M19.17549,70.34174l-1.40007,1.40007c14.9341,14.87752,39.12422,14.85631,54.03003-.06365,14.91995-14.91996,14.93409-39.08887.06363-54.03003l-1.52735,1.52735-7.50947,7.50948-3.0547,3.0547-2.92742,2.92742-3.0547,3.0547-4.07293,4.07294-4.96389,4.96389-4.96389,4.96389-4.07293,4.07294-2.92742,2.92742-3.0547,3.0547-3.0547,3.0547-7.50947,7.50948Z"/>
          <path class="cls-1" d="M6.90011,53.03177l.38891.94045.17678-.17678L53.79542,7.4658l.3182-.3182-.84853-.21213-.11314-.15556c-12.99662-3.18198-26.70035.65054-36.15437,10.10456C7.54357,26.33849,3.71813,40.04929,6.90011,53.03177Z"/>
          <path class="cls-1" d="M71.862,17.64107l.00707.00707,3.94566-3.94566.12728-.12728-.06364-.06364c-4.88611-4.88611-10.84702-8.54185-17.41604-10.69852l-.08485.07071-4.26385,4.26385,1.46371.36062,1.54149.70711,1.13137-1.13137,3.08299,3.08299.76368.35355,2.96278,1.95869.19092.07778,2.67286,1.65463,3.93859,3.42947Z"/>
        </g>
        <g>
          <polyline class="cls-4" points="53.26509 6.93547 54.11362 7.14761 55.57733 7.50823 57.11882 8.21534 61.33318 10.16695 62.09686 10.5205 65.05963 12.47919"/>
          <line class="cls-4" x1="12.64182" y1="65.37786" x2="12.55696" y2="65.25058"/>
          <polyline class="cls-4" points="17.64813 71.8691 14.2116 67.92344 12.66303 65.42735"/>
          <polyline class="cls-4" points="12.66303 65.42735 12.64182 65.37786 10.72556 61.89182 10.12452 60.7958 8.48403 56.85015 7.40215 54.24092 7.28902 53.97222 6.90011 53.03177"/>
          <polyline class="cls-4" points="65.25055 12.55697 67.92342 14.2116 71.862 17.64107"/>
          <path class="cls-7" d="M71.80543,17.5845l.05657.05657.00707.00707c14.87046,14.94116,14.85632,39.11007-.06363,54.03003-14.90581,14.91996-39.09593,14.94117-54.03003.06365l-.05657-.05657"/>
          <path class="cls-8" d="M6.90011,53.03177c-3.18198-12.98248.64346-26.69328,10.09748-36.1473C26.4516,7.43045,40.15533,3.59793,53.15196,6.77991"/>
          <line class="cls-7" x1="29.73966" y1="59.77757" x2="26.68496" y2="62.83227"/>
          <line class="cls-7" x1="35.72178" y1="53.79544" x2="32.79436" y2="56.72287"/>
          <line class="cls-7" x1="56.85013" y1="32.66709" x2="53.79543" y2="35.72179"/>
          <line class="cls-7" x1="62.83225" y1="26.68496" x2="59.77755" y2="29.73967"/>
          <line class="cls-7" x1="7.46579" y1="53.79545" x2="53.79542" y2="7.4658"/>
          <path class="cls-6" d="M58.46233,2.81304c6.56902,2.15667,12.52993,5.81242,17.41604,10.69852"/>
          <polyline class="cls-7" points="53.79542 7.4658 54.11362 7.14761 58.37747 2.88375"/>
          <polyline class="cls-7" points="2.88374 58.3775 2.92617 58.33507 7.21124 54.05001 7.28902 53.97222 7.46579 53.79545"/>
          <path class="cls-7" d="M13.63884,75.75111c-4.87904-4.87904-8.54892-10.83995-10.69853-17.4019"/>
          <polyline class="cls-4" points="58.2502 7.08397 57.11882 8.21534 54.17726 11.1569"/>
          <line class="cls-4" x1="52.14079" y1="13.19337" x2="43.86765" y2="21.46652"/>
          <line class="cls-4" x1="41.83118" y1="23.50299" x2="33.68531" y2="31.64886"/>
          <line class="cls-4" x1="31.64884" y1="33.68533" x2="23.50297" y2="41.8312"/>
          <line class="cls-4" x1="21.46651" y1="43.86767" x2="13.19336" y2="52.14082"/>
          <polyline class="cls-4" points="11.15689 54.17728 9.2477 56.08647 8.48403 56.85015 7.08396 58.25022"/>
          <line class="cls-4" x1="70.34172" y1="19.17549" x2="65.50511" y2="14.33888"/>
          <polyline class="cls-4" points="63.08681 11.92057 61.33318 10.16695 58.2502 7.08397"/>
          <line class="cls-4" x1="19.17549" y1="70.34174" x2="14.33887" y2="65.50513"/>
          <polyline class="cls-4" points="11.92057 63.08683 10.72556 61.89182 7.08396 58.25022"/>
          <line class="cls-7" x1="84.85155" y1="2.62919" x2="82.94236" y2=".72"/>
          <line class="cls-7" x1="86.63346" y1="4.4111" x2="85.10611" y2="2.88375"/>
          <line class="cls-7" x1="88.66993" y1="6.44756" x2="86.88802" y2="4.66566"/>
          <line class="cls-7" x1="1.61094" y1="5.6839" x2=".84727" y2="6.44758"/>
          <line class="cls-7" x1="6.44755" y1=".84729" x2="1.8655" y2="5.42934"/>
          <polyline class="cls-7" points=".72 82.94239 2.12007 84.34246 5.17477 87.39716 6.44757 88.66995"/>
          <polyline class="cls-7" points="84.08789 87.65171 88.66994 83.06965 88.66993 6.44756"/>
          <line class="cls-7" x1="83.06966" y1="88.66994" x2="83.83333" y2="87.90627"/>
          <polyline class="cls-7" points=".72 82.94239 .72 82.68783 .76242 58.3775 .84727 6.44758"/>
          <polyline class="cls-7" points="83.06966 88.66994 6.67384 88.66995 6.44757 88.66995"/>
          <polyline class="cls-7" points="6.44755 .84729 58.46233 .76243 82.94236 .72"/>
          <path class="cls-5" d="M85.03541,80.14223c.00707,2.63751-2.12839,4.77297-4.7659,4.78004-2.63751-.00707-4.77297-2.14253-4.77297-4.77297s2.13546-4.7659,4.77297-4.77297c2.63044,0,4.7659,2.13546,4.7659,4.7659Z"/>
          <path class="cls-5" d="M14.14087,9.24772c.00707,2.63751-2.12839,4.77297-4.7659,4.78004-2.63751-.00707-4.77297-2.14253-4.77297-4.77297s2.13546-4.7659,4.77297-4.77297c2.63044,0,4.7659,2.13546,4.7659,4.7659Z"/>
          <path class="cls-5" d="M84.90812,9.24771c.00707,2.63751-2.12839,4.77297-4.7659,4.78004-1.29401-.00707-2.45366-.51619-3.30926-1.3435-.9051-.86267-1.46371-2.08596-1.46371-3.42947,0-2.63044,2.13546-4.7659,4.77297-4.77297,2.63044,0,4.7659,2.13546,4.7659,4.7659"/>
          <path class="cls-5" d="M14.01361,80.14224c.00707,2.63751-2.12839,4.77297-4.7659,4.78004-2.63751-.00707-4.77297-2.14253-4.77297-4.77297s2.13546-4.7659,4.77297-4.77297c1.3435,0,2.5668.55861,3.43654,1.45664.82732.8556,1.32936,2.02233,1.32936,3.30926"/>
          <line class="cls-4" x1="9.2477" y1="56.08647" x2="8.61131" y2="55.45008"/>
          <polyline class="cls-4" points="7.97491 54.81368 7.40215 54.24092 7.21124 54.05001"/>
          <polyline class="cls-3" points="3.52014 85.99709 2.12007 84.34246 .72 82.68783"/>
          <line class="cls-3" x1="1.61094" y1="5.6839" x2="1.8655" y2="5.42934"/>
          <line class="cls-3" x1="84.85155" y1="2.62919" x2="85.10611" y2="2.88375"/>
          <line class="cls-3" x1="86.63346" y1="4.4111" x2="86.88802" y2="4.66566"/>
          <line class="cls-3" x1="84.08789" y1="87.65171" x2="83.83333" y2="87.90627"/>
          <line class="cls-3" x1="24.77578" y1="99.36141" x2="24.39394" y2="99.23413"/>
          <polyline class="cls-3" points="6.8294 88.79723 6.67384 88.66995 5.17477 87.39716 3.52014 85.99709"/>
          <line class="cls-3" x1="35.72178" y1="53.79544" x2="39.79472" y2="49.72251"/>
          <line class="cls-3" x1="32.79436" y1="56.72287" x2="29.73966" y2="59.77757"/>
          <polyline class="cls-3" points="26.68496 62.83227 19.17549 70.34174 17.77541 71.74182 17.64813 71.8691 13.70248 75.81475 12.68425 76.83299"/>
          <polyline class="cls-3" points="53.79543 35.72179 49.72249 39.79473 44.7586 44.75862 39.79472 49.72251"/>
          <line class="cls-3" x1="56.85013" y1="32.66709" x2="59.77755" y2="29.73967"/>
          <polyline class="cls-3" points="62.83225 26.68496 70.34172 19.17549 71.86907 17.64814 75.81473 13.70248 75.94201 13.5752 76.83296 12.68425"/>
        </g>
      </g>
      <rect class="cls-9" x="2.2171" y="27.64129" width="72" height="19.38067" transform="translate(-15.20391 37.95777) rotate(-45.00002)"/>
    </g>
  </g>
</svg>