<?xml version="1.0" encoding="UTF-8"?>
<svg id="Layer_2" data-name="Layer 2" xmlns="http://www.w3.org/2000/svg" width="19.51054mm" height="19.50701mm" viewBox="0 0 55.30546 55.29546">
  <defs>
    <style>
      .cls-1 {
        fill: #bcbec0;
      }

      .cls-2 {
        fill: #8a8c8e;
      }

      .cls-3 {
        stroke-width: 1.08px;
      }

      .cls-3, .cls-4, .cls-5, .cls-6, .cls-7 {
        fill: none;
        stroke: #000;
        stroke-linecap: round;
        stroke-linejoin: round;
      }

      .cls-4 {
        stroke-width: 1.44px;
      }

      .cls-5 {
        stroke-width: 1.44px;
      }

      .cls-6 {
        stroke-width: 1.44px;
      }

      .cls-7 {
        stroke-width: 1.44px;
      }

      .cls-8 {
        fill: #89a4b6;
        stroke: #010101;
        stroke-width: .6px;
      }
    </style>
  </defs>
  <g id="Optical_elements" data-name="Optical elements">
    <g id="Mirror_mount_-_Fixed_0.5_" data-name="Mirror mount - Fixed 0.5&amp;apos;&amp;apos;">
      <g>
        <g>
          <path class="cls-1" d="M6.42546,54.57546h42.49l5.67-5.66V6.41546l-5.67-5.66h-19.77c5.07.28,9.94,1.98,14.06,4.9l.02-.03c2.2-1.12,4.88-.4,6.23,1.66,1.34,2.07.91,4.81-1,6.37-1.91,1.54-4.67,1.41-6.41-.31l-1.52,1.53-1.79,1.78c6.07,6.1,6.06,15.96-.03,22.05-6.08,6.08-15.94,6.09-22.04.03l-1.78,1.78-1.47,1.47c1.71,1.74,1.85,4.49.31,6.4-1.55,1.91-4.3,2.34-6.37,1-2.04-1.33-2.77-3.98-1.68-6.17-2.96-4.17-4.66-9.1-4.92-14.23v19.93l5.67,5.66ZM45.35546,50.16546c-2.66,0-4.81-2.15-4.81-4.81s2.15-4.82,4.81-4.82,4.81,2.16,4.81,4.81c0,2.66-2.15,4.82-4.81,4.82Z"/>
          <path class="cls-2" d="M5.67546,43.21546c.86,1.24,1.85,2.41,2.94,3.5l.03.04,4.01-4.01.76-.76,1.47-1.47-2.42-2.42-1.21-1.21-4.83-4.83-1.21-1.21-2.36-2.35H.75546v.49c.26,5.13,1.96,10.06,4.92,14.23Z"/>
          <polygon class="cls-2" points="14.88546 40.51546 16.66546 38.73546 16.63546 38.70546 14.88546 36.57546 14.18546 35.36546 13.41546 33.96546 12.46546 31.22546 12.33546 30.08546 12.14546 28.74546 12.14546 28.36546 12.20546 25.50546 12.78546 23.14546 13.29546 21.87546 14.05546 20.09546 15.70546 17.67546 16.21546 17.16546 17.17546 16.21546 17.74546 15.63546 16.72546 14.62546 16.21546 15.13546 15.19546 16.14546 11.06546 20.28546 10.04546 21.30546 5.91546 25.43546 4.89546 26.45546 2.85546 28.49546 5.21546 30.84546 6.42546 32.05546 11.25546 36.88546 12.46546 38.09546 14.88546 40.51546"/>
          <path class="cls-1" d="M16.66546,38.73546c6.1,6.06,15.96,6.05,22.04-.03,6.09-6.09,6.1-15.95.03-22.05l-22.07,22.08Z"/>
          <polygon class="cls-2" points="16.66546 38.73546 38.73546 16.65546 38.70546 16.62546 36.57546 14.87546 35.36546 14.17546 33.96546 13.41546 31.23546 12.45546 30.08546 12.33546 28.75546 12.14546 28.43546 12.07546 25.50546 12.20546 23.21546 12.71546 21.94546 13.22546 20.09546 14.04546 17.74546 15.63546 17.17546 16.21546 16.21546 17.16546 15.70546 17.67546 14.05546 20.09546 13.29546 21.87546 12.78546 23.14546 12.20546 25.50546 12.14546 28.36546 12.14546 28.74546 12.33546 30.08546 12.46546 31.22546 13.41546 33.96546 14.18546 35.36546 14.88546 36.57546 16.63546 38.70546 16.66546 38.73546"/>
          <polygon class="cls-2" points=".75546 28.49546 2.85546 28.49546 4.89546 26.45546 5.91546 25.43546 10.04546 21.30546 11.06546 20.28546 15.19546 16.14546 16.21546 15.13546 16.72546 14.62546 20.28546 11.05546 21.30546 10.04546 25.44546 5.90546 26.46546 4.88546 28.49546 2.85546 28.49546 .75546 26.52546 .75546 19.01546 8.25546 8.26546 19.01546 .75546 26.51546 .75546 28.49546"/>
          <path class="cls-1" d="M.75546,26.51546l7.51-7.5,10.75-10.76L26.52546.75546H6.42546L.75546,6.41546v20.1ZM9.98546,14.79546c-2.66,0-4.81-2.16-4.82-4.82,0-2.65,2.16-4.81,4.82-4.81s4.81,2.15,4.81,4.81-2.15,4.82-4.81,4.82Z"/>
          <polygon class="cls-2" points="38.70546 16.62546 38.73546 16.65546 40.52546 14.87546 38.10546 12.45546 36.89546 11.25546 32.05546 6.41546 30.85546 5.20546 28.49546 2.85546 26.46546 4.88546 25.44546 5.90546 21.30546 10.04546 20.28546 11.05546 16.72546 14.62546 17.74546 15.63546 20.09546 14.04546 21.94546 13.22546 23.21546 12.71546 25.50546 12.20546 28.43546 12.07546 28.75546 12.14546 30.08546 12.33546 31.23546 12.45546 33.96546 13.41546 35.36546 14.17546 36.57546 14.87546 38.70546 16.62546"/>
          <path class="cls-2" d="M42.04546,13.34546l.7-.7,4.01-4-.03-.04c-1.09-1.09-2.27-2.08-3.52-2.95-4.12-2.92-8.99-4.62-14.06-4.9h-.65v2.1l2.36,2.35,1.2,1.21,4.84,4.84,1.21,1.2,2.42,2.42,1.52-1.53Z"/>
        </g>
        <g>
          <line class="cls-3" x1="28.49546" y1="2.85546" x2="26.46546" y2="4.88546"/>
          <line class="cls-3" x1="25.44546" y1="5.90546" x2="21.30546" y2="10.04546"/>
          <polyline class="cls-3" points="20.28546 11.05546 16.72546 14.62546 16.21546 15.13546"/>
          <line class="cls-3" x1="15.19546" y1="16.14546" x2="11.06546" y2="20.28546"/>
          <line class="cls-3" x1="10.04546" y1="21.30546" x2="5.91546" y2="25.43546"/>
          <line class="cls-3" x1="4.89546" y1="26.45546" x2="2.85546" y2="28.49546"/>
          <line class="cls-3" x1="40.52546" y1="14.87546" x2="38.10546" y2="12.45546"/>
          <line class="cls-3" x1="36.89546" y1="11.25546" x2="32.05546" y2="6.41546"/>
          <line class="cls-3" x1="30.85546" y1="5.20546" x2="28.49546" y2="2.85546"/>
          <line class="cls-3" x1="14.88546" y1="40.51546" x2="12.46546" y2="38.09546"/>
          <line class="cls-3" x1="11.25546" y1="36.88546" x2="6.42546" y2="32.05546"/>
          <line class="cls-3" x1="5.21546" y1="30.84546" x2="2.85546" y2="28.49546"/>
          <polyline class="cls-7" points=".75546 26.51546 8.26546 19.01546 19.01546 8.25546 26.52546 .75546"/>
          <path class="cls-7" d="M38.73546,16.65546c6.07,6.1,6.06,15.96-.03,22.05-6.08,6.08-15.94,6.09-22.04.03"/>
          <polyline class="cls-7" points="46.75546 8.64546 42.74546 12.64546 42.04546 13.34546 40.52546 14.87546 38.73546 16.65546 16.66546 38.73546 14.88546 40.51546 13.41546 41.98546 12.65546 42.74546 8.64546 46.75546"/>
          <path class="cls-7" d="M8.61546,46.71546c-1.09-1.09-2.08-2.26-2.94-3.5-2.96-4.17-4.66-9.1-4.92-14.23-.04-.82-.05-1.65-.01-2.48"/>
          <path class="cls-4" d="M26.50546.74546c.88-.04,1.76-.03,2.64.01,5.07.28,9.94,1.98,14.06,4.9,1.25.87,2.43,1.86,3.52,2.95"/>
          <polyline class="cls-3" points="16.66546 38.73546 16.63546 38.70546 14.88546 36.57546"/>
          <polyline class="cls-3" points="14.18546 35.36546 13.41546 33.96546 12.46546 31.22546 12.33546 30.08546"/>
          <polyline class="cls-3" points="12.14546 28.74546 12.14546 28.36546 12.20546 25.50546 12.78546 23.14546"/>
          <polyline class="cls-3" points="13.29546 21.87546 14.05546 20.09546 15.70546 17.67546 16.21546 17.16546"/>
          <polyline class="cls-3" points="17.17546 16.21546 17.74546 15.63546 20.09546 14.04546 21.94546 13.22546"/>
          <polyline class="cls-3" points="23.21546 12.71546 25.50546 12.20546 28.43546 12.07546 28.75546 12.14546"/>
          <polyline class="cls-3" points="30.08546 12.33546 31.23546 12.45546 33.96546 13.41546 35.36546 14.17546"/>
          <line class="cls-7" x1="38.70546" y1="16.62546" x2="38.73546" y2="16.65546"/>
          <line class="cls-3" x1="36.57546" y1="14.87546" x2="38.70546" y2="16.62546"/>
          <line class="cls-7" x1="54.58546" y1="6.41546" x2="48.91546" y2=".75546"/>
          <line class="cls-7" x1="48.91546" y1="54.57546" x2="54.58546" y2="48.91546"/>
          <line class="cls-7" x1=".75546" y1="48.91546" x2="6.42546" y2="54.57546"/>
          <polyline class="cls-7" points="48.91546 .75546 29.14546 .75546 28.49546 .75546 26.52546 .75546 6.42546 .75546 .75546 6.41546"/>
          <line class="cls-7" x1="54.58546" y1="6.41546" x2="54.58546" y2="48.91546"/>
          <line class="cls-7" x1="48.91546" y1="54.57546" x2="6.42546" y2="54.57546"/>
          <polyline class="cls-7" points=".75546 48.91546 .75546 28.98546 .75546 28.49546 .75546 26.51546 .75546 6.41546"/>
          <path class="cls-3" d="M42.04546,13.34546l-.03-.03"/>
          <path class="cls-6" d="M43.22546,5.62546c2.2-1.12,4.88-.4,6.23,1.66,1.34,2.07.91,4.81-1,6.37-1.91,1.54-4.67,1.41-6.41-.31"/>
          <path class="cls-7" d="M13.38546,41.94546c.01.01.03.03.03.04,1.71,1.74,1.85,4.49.31,6.4-1.55,1.91-4.3,2.34-6.37,1-2.04-1.33-2.77-3.98-1.68-6.17,0-.02.01-.04.02-.06"/>
          <path class="cls-5" d="M9.98546,5.16546c2.66,0,4.81,2.15,4.81,4.81s-2.15,4.82-4.81,4.82-4.81-2.16-4.82-4.82c0-2.65,2.16-4.81,4.82-4.81Z"/>
          <path class="cls-5" d="M45.35546,40.53546c2.66,0,4.81,2.16,4.81,4.81,0,2.66-2.15,4.82-4.81,4.82s-4.81-2.15-4.81-4.81,2.15-4.82,4.81-4.82Z"/>
        </g>
      </g>
      <rect class="cls-8" x="2.79224" y="11.22975" width="36" height="18.68258" transform="translate(-8.45602 20.72746) rotate(-45.00002)"/>
    </g>
  </g>
</svg>