<?xml version="1.0" encoding="UTF-8"?>
<svg id="Layer_2" data-name="Layer 2" xmlns="http://www.w3.org/2000/svg" width="31.00301mm" height="19.50508mm" viewBox="0 0 87.88255 55.29">
  <defs>
    <style>
      .cls-1 {
        fill: #3d3d40;
      }

      .cls-2 {
        fill: #bcbec0;
      }

      .cls-3 {
        stroke: #010101;
        stroke-width: .51px;
      }

      .cls-3, .cls-4 {
        fill: none;
        stroke-linecap: round;
        stroke-linejoin: round;
      }

      .cls-4 {
        stroke: #000;
        stroke-width: 1.44px;
      }
    </style>
  </defs>
  <g id="Optical_elements" data-name="Optical elements">
    <g id="LMR1">
      <g>
        <g>
          <path class="cls-2" d="M70.8888,6.38v42.53l-5.66,5.66H22.6988l-5.66-5.66V6.38L22.6988.72h42.53l5.66,5.66ZM66.4888,9.93c0-2.65-2.16-4.81-4.81-4.81-2.66,0-4.81,2.16-4.81,4.81,0,2.66,2.15,4.81,4.81,4.81,2.65,0,4.81-2.15,4.81-4.81ZM66.4888,45.36c0-2.66-2.16-4.81-4.81-4.81-2.66,0-4.81,2.15-4.81,4.81,0,2.65,2.15,4.81,4.81,4.81,2.65,0,4.81-2.15,4.81-4.81ZM61.8088,27.65c0-9.86-7.99-17.85-17.84-17.85-9.86,0-17.85,7.99-17.85,17.84,0,9.86,7.99,17.85,17.84,17.85,9.86,0,17.85-7.98,17.85-17.84ZM31.0588,9.93c0-2.65-2.15-4.81-4.81-4.81-2.65,0-4.81,2.16-4.81,4.81,0,2.66,2.15,4.81,4.81,4.81s4.81-2.15,4.81-4.81ZM31.0588,45.36c0-2.66-2.15-4.81-4.81-4.81-2.65,0-4.81,2.15-4.81,4.81,0,2.65,2.15,4.81,4.81,4.81s4.81-2.15,4.81-4.81Z"/>
          <path class="cls-2" d="M43.9688,9.8c9.85,0,17.84,7.99,17.84,17.85s-7.99,17.84-17.85,17.84c-9.85,0-17.84-7.99-17.84-17.85,0-9.85,7.99-17.84,17.85-17.84ZM55.2488,27.65c0-6.24-5.05-11.29-11.28-11.29-6.24,0-11.29,5.05-11.29,11.28,0,6.24,5.05,11.29,11.28,11.29,6.24,0,11.29-5.05,11.29-11.28Z"/>
          <path class="cls-2" d="M43.9688,16.36c6.23,0,11.28,5.05,11.28,11.29,0,6.23-5.05,11.28-11.29,11.28-6.23,0-11.28-5.05-11.28-11.29,0-6.23,5.05-11.28,11.29-11.28ZM50.2988,27.65c0-3.5-2.83-6.34-6.33-6.34s-6.34,2.83-6.34,6.33v.01c0,3.5,2.83,6.33,6.33,6.33,3.5.01,6.34-2.83,6.34-6.33Z"/>
        </g>
        <g>
          <line class="cls-4" x1="17.0388" y1="6.38" x2="22.6988" y2=".72"/>
          <line class="cls-4" x1="22.6988" y1="54.57" x2="17.0388" y2="48.91"/>
          <line class="cls-4" x1="70.8888" y1="48.91" x2="65.2288" y2="54.57"/>
          <line class="cls-4" x1="65.2288" y1=".72" x2="70.8888" y2="6.38"/>
          <line class="cls-4" x1="17.0388" y1="6.38" x2="17.0388" y2="48.91"/>
          <line class="cls-4" x1="22.6988" y1="54.57" x2="65.2288" y2="54.57"/>
          <line class="cls-4" x1="70.8888" y1="48.91" x2="70.8888" y2="6.38"/>
          <line class="cls-4" x1="65.2288" y1=".72" x2="22.6988" y2=".72"/>
          <path class="cls-4" d="M37.6288,27.65c0,3.5,2.83,6.33,6.33,6.33,3.5.01,6.34-2.83,6.34-6.33s-2.83-6.34-6.33-6.34-6.34,2.83-6.34,6.33"/>
          <path class="cls-4" d="M55.2488,27.65c0-6.24-5.05-11.29-11.28-11.29-6.24,0-11.29,5.05-11.29,11.28,0,6.24,5.05,11.29,11.28,11.29,6.24,0,11.29-5.05,11.29-11.28Z"/>
          <path class="cls-4" d="M61.8088,27.65c0-9.86-7.99-17.85-17.84-17.85-9.86,0-17.85,7.99-17.85,17.84,0,9.86,7.99,17.85,17.84,17.85,9.86,0,17.85-7.98,17.85-17.84Z"/>
          <circle class="cls-4" cx="26.2488" cy="9.93" r="4.81"/>
          <circle class="cls-4" cx="61.6788" cy="45.36" r="4.81"/>
          <circle class="cls-4" cx="26.2488" cy="45.36" r="4.81"/>
          <circle class="cls-4" cx="61.6788" cy="9.93" r="4.81"/>
        </g>
      </g>
      <g id="LMR1-2" data-name="LMR1">
        <g>
          <g>
            <g>
              <polygon class="cls-1" points="87.62755 15.53616 87.62755 40.12146 87.58293 40.12146 87.53831 40.12146 87.44907 40.12146 87.31522 40.12146 87.18136 40.12146 87.00288 40.12146 86.77978 40.12146 86.55669 40.12146 86.28897 40.12146 85.97663 40.12146 85.6643 40.12146 85.30734 40.12146 84.95039 40.12146 84.54881 40.12146 84.10262 40.12146 83.65642 40.12146 83.16561 40.12146 82.63018 40.12146 82.09474 40.12146 58.71417 40.12146 58.71417 15.53616 82.09474 15.53616 82.63018 15.53616 83.16561 15.53616 83.65642 15.53616 84.10262 15.53616 84.54881 15.53616 84.95039 15.53616 85.30734 15.53616 85.6643 15.53616 85.97663 15.53616 86.28897 15.53616 86.55669 15.53616 86.77978 15.53616 87.00288 15.53616 87.18136 15.53616 87.31522 15.53616 87.44907 15.53616 87.53831 15.53616 87.58293 15.53616 87.62755 15.53616"/>
              <polygon class="cls-1" points="87.62755 40.12146 85.4412 42.30781 85.35196 42.30781 85.30734 42.30781 85.17348 42.30781 85.03962 42.30781 84.86115 42.30781 84.68267 42.30781 84.45957 42.30781 84.19186 42.30781 83.92414 42.30781 83.6118 42.30781 83.25485 42.30781 82.89789 42.30781 82.54094 42.30781 82.09474 42.30781 81.64855 42.30781 81.20235 42.30781 80.71154 42.30781 80.17611 42.30781 57.46482 42.30781 58.71417 40.12146 82.09474 40.12146 82.63018 40.12146 83.16561 40.12146 83.65642 40.12146 84.10262 40.12146 84.54881 40.12146 84.95039 40.12146 85.30734 40.12146 85.6643 40.12146 85.97663 40.12146 86.28897 40.12146 86.55669 40.12146 86.77978 40.12146 87.00288 40.12146 87.18136 40.12146 87.31522 40.12146 87.44907 40.12146 87.53831 40.12146 87.58293 40.12146 87.62755 40.12146"/>
              <polygon class="cls-1" points="87.62755 15.53616 87.58293 15.53616 87.53831 15.53616 87.44907 15.53616 87.31522 15.53616 87.18136 15.53616 87.00288 15.53616 86.77978 15.53616 86.55669 15.53616 86.28897 15.53616 85.97663 15.53616 85.6643 15.53616 85.30734 15.53616 84.95039 15.53616 84.54881 15.53616 84.10262 15.53616 83.65642 15.53616 83.16561 15.53616 82.63018 15.53616 82.09474 15.53616 58.71417 15.53616 57.46482 13.39443 80.17611 13.39443 80.71154 13.39443 81.20235 13.39443 81.64855 13.39443 82.09474 13.39443 82.54094 13.39443 82.89789 13.39443 83.25485 13.39443 83.6118 13.39443 83.92414 13.39443 84.19186 13.39443 84.45957 13.39443 84.68267 13.39443 84.86115 13.39443 85.03962 13.39443 85.17348 13.39443 85.30734 13.39443 85.35196 13.39443 85.4412 13.39443 87.62755 15.53616"/>
              <path class="cls-1" d="M58.71417,15.53616v24.5853h-28.91338V15.53616h28.91338ZM44.89107,27.89128v-.12047l-.00446-.02231v-.02231l-.00892-.02677-.00446-.02231-.00446-.02231-.00892-.01785-.00446-.02231-.00892-.02231-.01339-.02231-.00446-.02231-.01339-.01785-.01339-.02231-.00892-.01785-.01785-.02231-.01339-.01785-.01339-.01785-.01339-.01785-.01785-.01785-.01785-.01785-.01785-.01785-.01339-.01339-.01785-.01339-.01785-.01785-.01785-.00892-.02231-.01339-.01785-.01339-.02231-.00892-.02231-.01339-.01785-.00892-.02231-.00892-.02677-.00892-.02231-.00446-.02231-.00892-.02231-.00446-.02231-.00446h-.02231l-.02231-.00892h-.02677l-.02231-.00446h-.04462l-.02231.00446h-.02231l-.02677.00892h-.02231l-.02231.00446-.02231.00446-.02231.00892-.02231.00446-.02231.00892-.01785.00892-.02231.00892-.02677.01339-.01339.00892-.02677.01339-.01785.01339-.02231.00892-.01785.01785-.01339.01339-.01785.01339-.01785.01785-.01785.01785-.01785.01785-.00892.01785-.01785.01785-.01339.01785-.00892.02231-.01785.01785-.01339.02231-.00892.01785-.00892.02231-.00892.02231-.00892.02231-.00892.02231-.00446.01785-.00892.02231-.00446.02231-.00446.02677v.02231l-.00892.02231v.12047l.00892.02231v.02231l.00446.02231.00446.02677.00892.02231.00446.02231.00892.01785.00892.02231.00892.02231.00892.02231.00892.01785.01339.02231.01785.01785.00892.02231.01339.01785.01785.01785.00892.01785.01785.01785.01785.01785.01785.01339.01785.01785.01339.01339.01785.01785.02231.00892.01785.01339.02677.00892.01339.01339.02677.01339.02231.00892.01785.00892.02231.00892.02231.00446.02231.00892.02231.00446.02231.00446.02231.00892h.04908l.02231.00446h.04462l.02231-.00446h.04908l.02231-.00892.02231-.00446.02231-.00446.02231-.00892.02231-.00446.02677-.00892.02231-.00892.01785-.00892.02231-.01339.02231-.01339.01785-.00892.02231-.01339.01785-.00892.01785-.01785.01785-.01339.01339-.01785.01785-.01339.01785-.01785.01785-.01785.01339-.01785.01339-.01785.01339-.01785.01785-.02231.00892-.01785.01339-.02231.01339-.01785.00446-.02231.01339-.02231.00892-.02231.00446-.01785.00892-.02231.00446-.02231.00446-.02677.00892-.02231v-.02231l.00446-.02231Z"/>
              <polygon class="cls-1" points="57.46482 13.39443 58.71417 15.53616 29.80078 15.53616 31.09475 13.39443 57.46482 13.39443"/>
              <polygon class="cls-1" points="58.71417 40.12146 57.46482 42.30781 31.09475 42.30781 29.80078 40.12146 58.71417 40.12146"/>
              <polygon class="cls-1" points="31.09475 13.39443 29.80078 15.53616 6.42021 15.53616 5.88477 15.53616 5.39396 15.53616 4.90315 15.53616 4.41233 15.53616 3.96614 15.53616 3.56456 15.53616 3.20761 15.53616 2.85065 15.53616 2.53832 15.53616 2.22598 15.53616 1.95826 15.53616 1.73517 15.53616 1.51207 15.53616 1.33359 15.53616 1.19973 15.53616 1.06588 15.53616 .97664 15.53616 .93202 15.53616 .8874 15.53616 3.07375 13.39443 3.16299 13.39443 3.25223 13.39443 3.34147 13.39443 3.47532 13.39443 3.6538 13.39443 3.8769 13.39443 4.1 13.39443 4.32309 13.39443 4.63543 13.39443 4.90315 13.39443 5.2601 13.39443 5.61706 13.39443 6.01863 13.39443 6.42021 13.39443 6.8664 13.39443 7.31259 13.39443 7.80341 13.39443 8.33884 13.39443 31.09475 13.39443"/>
              <polygon class="cls-1" points="29.80078 40.12146 31.09475 42.30781 8.33884 42.30781 7.80341 42.30781 7.31259 42.30781 6.8664 42.30781 6.42021 42.30781 6.01863 42.30781 5.61706 42.30781 5.2601 42.30781 4.90315 42.30781 4.63543 42.30781 4.32309 42.30781 4.1 42.30781 3.8769 42.30781 3.6538 42.30781 3.47532 42.30781 3.34147 42.30781 3.25223 42.30781 3.16299 42.30781 3.07375 42.30781 .8874 40.12146 .93202 40.12146 .97664 40.12146 1.06588 40.12146 1.19973 40.12146 1.33359 40.12146 1.51207 40.12146 1.73517 40.12146 1.95826 40.12146 2.22598 40.12146 2.53832 40.12146 2.85065 40.12146 3.20761 40.12146 3.56456 40.12146 3.96614 40.12146 4.41233 40.12146 4.90315 40.12146 5.39396 40.12146 5.88477 40.12146 6.42021 40.12146 29.80078 40.12146"/>
              <polygon class="cls-1" points="29.80078 15.53616 29.80078 40.12146 6.42021 40.12146 5.88477 40.12146 5.39396 40.12146 4.90315 40.12146 4.41233 40.12146 3.96614 40.12146 3.56456 40.12146 3.20761 40.12146 2.85065 40.12146 2.53832 40.12146 2.22598 40.12146 1.95826 40.12146 1.73517 40.12146 1.51207 40.12146 1.33359 40.12146 1.19973 40.12146 1.06588 40.12146 .97664 40.12146 .93202 40.12146 .8874 40.12146 .8874 15.53616 .93202 15.53616 .97664 15.53616 1.06588 15.53616 1.19973 15.53616 1.33359 15.53616 1.51207 15.53616 1.73517 15.53616 1.95826 15.53616 2.22598 15.53616 2.53832 15.53616 2.85065 15.53616 3.20761 15.53616 3.56456 15.53616 3.96614 15.53616 4.41233 15.53616 4.90315 15.53616 5.39396 15.53616 5.88477 15.53616 6.42021 15.53616 29.80078 15.53616"/>
            </g>
            <g>
              <polyline class="cls-3" points="3.07375 13.39443 3.16299 13.39443 3.25223 13.39443 3.34147 13.39443 3.47532 13.39443 3.6538 13.39443 3.8769 13.39443 4.1 13.39443 4.32309 13.39443 4.63543 13.39443 4.90315 13.39443 5.2601 13.39443 5.61706 13.39443 6.01863 13.39443 6.42021 13.39443 6.8664 13.39443 7.31259 13.39443 7.80341 13.39443 8.33884 13.39443"/>
              <polyline class="cls-3" points="80.17611 13.39443 80.71154 13.39443 81.20235 13.39443 81.64855 13.39443 82.09474 13.39443 82.54094 13.39443 82.89789 13.39443 83.25485 13.39443 83.6118 13.39443 83.92414 13.39443 84.19186 13.39443 84.45957 13.39443 84.68267 13.39443 84.86115 13.39443 85.03962 13.39443 85.17348 13.39443 85.30734 13.39443 85.35196 13.39443 85.4412 13.39443"/>
              <polyline class="cls-3" points="87.62755 15.53616 87.58293 15.53616 87.53831 15.53616 87.44907 15.53616 87.31522 15.53616 87.18136 15.53616 87.00288 15.53616 86.77978 15.53616 86.55669 15.53616 86.28897 15.53616 85.97663 15.53616 85.6643 15.53616 85.30734 15.53616 84.95039 15.53616 84.54881 15.53616 84.10262 15.53616 83.65642 15.53616 83.16561 15.53616 82.63018 15.53616 82.09474 15.53616"/>
              <polyline class="cls-3" points="6.42021 15.53616 5.88477 15.53616 5.39396 15.53616 4.90315 15.53616 4.41233 15.53616 3.96614 15.53616 3.56456 15.53616 3.20761 15.53616 2.85065 15.53616 2.53832 15.53616 2.22598 15.53616 1.95826 15.53616 1.73517 15.53616 1.51207 15.53616 1.33359 15.53616 1.19973 15.53616 1.06588 15.53616 .97664 15.53616 .93202 15.53616 .8874 15.53616"/>
              <polyline class="cls-3" points="85.4412 42.30781 85.35196 42.30781 85.30734 42.30781 85.17348 42.30781 85.03962 42.30781 84.86115 42.30781 84.68267 42.30781 84.45957 42.30781 84.19186 42.30781 83.92414 42.30781 83.6118 42.30781 83.25485 42.30781 82.89789 42.30781 82.54094 42.30781 82.09474 42.30781 81.64855 42.30781 81.20235 42.30781 80.71154 42.30781 80.17611 42.30781"/>
              <polyline class="cls-3" points="8.33884 42.30781 7.80341 42.30781 7.31259 42.30781 6.8664 42.30781 6.42021 42.30781 6.01863 42.30781 5.61706 42.30781 5.2601 42.30781 4.90315 42.30781 4.63543 42.30781 4.32309 42.30781 4.1 42.30781 3.8769 42.30781 3.6538 42.30781 3.47532 42.30781 3.34147 42.30781 3.25223 42.30781 3.16299 42.30781 3.07375 42.30781"/>
              <polyline class="cls-3" points=".8874 40.12146 .93202 40.12146 .97664 40.12146 1.06588 40.12146 1.19973 40.12146 1.33359 40.12146 1.51207 40.12146 1.73517 40.12146 1.95826 40.12146 2.22598 40.12146 2.53832 40.12146 2.85065 40.12146 3.20761 40.12146 3.56456 40.12146 3.96614 40.12146 4.41233 40.12146 4.90315 40.12146 5.39396 40.12146 5.88477 40.12146 6.42021 40.12146"/>
              <polyline class="cls-3" points="82.09474 40.12146 82.63018 40.12146 83.16561 40.12146 83.65642 40.12146 84.10262 40.12146 84.54881 40.12146 84.95039 40.12146 85.30734 40.12146 85.6643 40.12146 85.97663 40.12146 86.28897 40.12146 86.55669 40.12146 86.77978 40.12146 87.00288 40.12146 87.18136 40.12146 87.31522 40.12146 87.44907 40.12146 87.53831 40.12146 87.58293 40.12146 87.62755 40.12146"/>
              <polygon class="cls-3" points="44.25747 28.46687 44.27978 28.46687 44.30209 28.46241 44.32887 28.46241 44.35118 28.46241 44.37349 28.45348 44.39579 28.44902 44.4181 28.44456 44.44041 28.43564 44.46272 28.43117 44.4895 28.42225 44.51181 28.41333 44.52965 28.4044 44.55196 28.39102 44.57427 28.37763 44.59212 28.36871 44.61443 28.35532 44.63228 28.3464 44.65013 28.32855 44.66797 28.31516 44.68136 28.29732 44.69921 28.28393 44.71705 28.26608 44.7349 28.24823 44.74829 28.23039 44.76167 28.21254 44.77506 28.19469 44.79291 28.17238 44.80183 28.15453 44.81522 28.13222 44.8286 28.11438 44.83307 28.09207 44.84645 28.06976 44.85537 28.04745 44.85984 28.0296 44.86876 28.00729 44.87322 27.98498 44.87768 27.95821 44.88661 27.9359 44.88661 27.91359 44.89107 27.89128 44.89107 27.86897 44.89107 27.84666 44.89107 27.82435 44.89107 27.79312 44.89107 27.77081 44.88661 27.7485 44.88661 27.72619 44.87768 27.69942 44.87322 27.67711 44.86876 27.6548 44.85984 27.63695 44.85537 27.61464 44.84645 27.59233 44.83307 27.57002 44.8286 27.54771 44.81522 27.52986 44.80183 27.50755 44.79291 27.4897 44.77506 27.46739 44.76167 27.44955 44.74829 27.4317 44.7349 27.41385 44.71705 27.396 44.69921 27.37816 44.68136 27.36031 44.66797 27.34692 44.65013 27.33354 44.63228 27.31569 44.61443 27.30676 44.59212 27.29338 44.57427 27.27999 44.55196 27.27107 44.52965 27.25768 44.51181 27.24876 44.4895 27.23984 44.46272 27.23091 44.44041 27.22645 44.4181 27.21753 44.39579 27.21306 44.37349 27.2086 44.35118 27.2086 44.32887 27.19968 44.30209 27.19968 44.27978 27.19522 44.25747 27.19522 44.23516 27.19522 44.21286 27.19968 44.19055 27.19968 44.16377 27.2086 44.14146 27.2086 44.11915 27.21306 44.09684 27.21753 44.07453 27.22645 44.05223 27.23091 44.02992 27.23984 44.01207 27.24876 43.98976 27.25768 43.96299 27.27107 43.9496 27.27999 43.92283 27.29338 43.90498 27.30676 43.88267 27.31569 43.86482 27.33354 43.85144 27.34692 43.83359 27.36031 43.81574 27.37816 43.79789 27.396 43.78005 27.41385 43.77112 27.4317 43.75328 27.44955 43.73989 27.46739 43.73097 27.4897 43.71312 27.50755 43.69973 27.52986 43.69081 27.54771 43.68188 27.57002 43.67296 27.59233 43.66404 27.61464 43.65511 27.63695 43.65065 27.6548 43.64173 27.67711 43.63726 27.69942 43.6328 27.72619 43.6328 27.7485 43.62388 27.77081 43.62388 27.79312 43.62388 27.82435 43.62388 27.84666 43.62388 27.86897 43.62388 27.89128 43.6328 27.91359 43.6328 27.9359 43.63726 27.95821 43.64173 27.98498 43.65065 28.00729 43.65511 28.0296 43.66404 28.04745 43.67296 28.06976 43.68188 28.09207 43.69081 28.11438 43.69973 28.13222 43.71312 28.15453 43.73097 28.17238 43.73989 28.19469 43.75328 28.21254 43.77112 28.23039 43.78005 28.24823 43.79789 28.26608 43.81574 28.28393 43.83359 28.29732 43.85144 28.31516 43.86482 28.32855 43.88267 28.3464 43.90498 28.35532 43.92283 28.36871 43.9496 28.37763 43.96299 28.39102 43.98976 28.4044 44.01207 28.41333 44.02992 28.42225 44.05223 28.43117 44.07453 28.43564 44.09684 28.44456 44.11915 28.44902 44.14146 28.45348 44.16377 28.46241 44.19055 28.46241 44.21286 28.46241 44.23516 28.46687 44.25747 28.46687"/>
              <line class="cls-3" x1="57.46482" y1="13.39443" x2="80.17611" y2="13.39443"/>
              <line class="cls-3" x1="8.33884" y1="13.39443" x2="31.09475" y2="13.39443"/>
              <line class="cls-3" x1="31.09475" y1="13.39443" x2="29.80078" y2="15.53616"/>
              <line class="cls-3" x1="58.71417" y1="15.53616" x2="57.46482" y2="13.39443"/>
              <line class="cls-3" x1="31.09475" y1="13.39443" x2="57.46482" y2="13.39443"/>
              <line class="cls-3" x1="82.09474" y1="15.53616" x2="58.71417" y2="15.53616"/>
              <line class="cls-3" x1="58.71417" y1="40.12146" x2="58.71417" y2="15.53616"/>
              <line class="cls-3" x1="58.71417" y1="15.53616" x2="29.80078" y2="15.53616"/>
              <line class="cls-3" x1="29.80078" y1="40.12146" x2="29.80078" y2="15.53616"/>
              <line class="cls-3" x1="29.80078" y1="15.53616" x2="6.42021" y2="15.53616"/>
              <line class="cls-3" x1="31.09475" y1="42.30781" x2="8.33884" y2="42.30781"/>
              <line class="cls-3" x1="6.42021" y1="40.12146" x2="29.80078" y2="40.12146"/>
              <line class="cls-3" x1="58.71417" y1="40.12146" x2="82.09474" y2="40.12146"/>
              <line class="cls-3" x1="80.17611" y1="42.30781" x2="57.46482" y2="42.30781"/>
              <line class="cls-3" x1="29.80078" y1="40.12146" x2="31.09475" y2="42.30781"/>
              <line class="cls-3" x1="57.46482" y1="42.30781" x2="31.09475" y2="42.30781"/>
              <line class="cls-3" x1="57.46482" y1="42.30781" x2="58.71417" y2="40.12146"/>
              <line class="cls-3" x1="29.80078" y1="40.12146" x2="58.71417" y2="40.12146"/>
              <line class="cls-3" x1="3.07375" y1="13.39443" x2=".8874" y2="15.53616"/>
              <line class="cls-3" x1="87.62755" y1="15.53616" x2="85.4412" y2="13.39443"/>
              <line class="cls-3" x1="87.62755" y1="40.12146" x2="87.62755" y2="15.53616"/>
              <line class="cls-3" x1=".8874" y1="15.53616" x2=".8874" y2="40.12146"/>
              <line class="cls-3" x1="85.4412" y1="42.30781" x2="87.62755" y2="40.12146"/>
              <line class="cls-3" x1=".8874" y1="40.12146" x2="3.07375" y2="42.30781"/>
            </g>
          </g>
          <g>
            <g>
              <path class="cls-1" d="M86.99515,15.51385v24.5853H.255V15.51385h86.74015ZM44.25867,27.86897v-.12047l-.00446-.02231v-.02231l-.00892-.02677-.00446-.02231-.00446-.02231-.00892-.01785-.00446-.02231-.00892-.02231-.01339-.02231-.00446-.02231-.01339-.01785-.01339-.02231-.00892-.01785-.01785-.02231-.01339-.01785-.01339-.01785-.01339-.01785-.01785-.01785-.01785-.01785-.01785-.01785-.01339-.01339-.01785-.01339-.01785-.01785-.01785-.00892-.02231-.01339-.01785-.01339-.02231-.00892-.02231-.01339-.01785-.00892-.02231-.00892-.02677-.00892-.02231-.00446-.02231-.00892-.02231-.00446-.02231-.00446h-.02231l-.02231-.00892h-.02677l-.02231-.00446h-.04462l-.02231.00446h-.02231l-.02677.00892h-.02231l-.02231.00446-.02231.00446-.02231.00892-.02231.00446-.02231.00892-.01785.00892-.02231.00892-.02677.01339-.01339.00892-.02677.01339-.01785.01339-.02231.00892-.01785.01785-.01339.01339-.01785.01339-.01785.01785-.01785.01785-.01785.01785-.00892.01785-.01785.01785-.01339.01785-.00892.02231-.01785.01785-.01339.02231-.00892.01785-.00892.02231-.00892.02231-.00892.02231-.00892.02231-.00446.01785-.00892.02231-.00446.02231-.00446.02677v.02231l-.00892.02231v.12047l.00892.02231v.02231l.00446.02231.00446.02677.00892.02231.00446.02231.00892.01785.00892.02231.00892.02231.00892.02231.00892.01785.01339.02231.01785.01785.00892.02231.01339.01785.01785.01785.00892.01785.01785.01785.01785.01785.01785.01339.01785.01785.01339.01339.01785.01785.02231.00892.01785.01339.02677.00892.01339.01339.02677.01339.02231.00892.01785.00892.02231.00892.02231.00446.02231.00892.02231.00446.02231.00446.02231.00892h.04908l.02231.00446h.04462l.02231-.00446h.04908l.02231-.00892.02231-.00446.02231-.00446.02231-.00892.02231-.00446.02677-.00892.02231-.00892.01785-.00892.02231-.01339.02231-.01339.01785-.00892.02231-.01339.01785-.00892.01785-.01785.01785-.01339.01339-.01785.01785-.01339.01785-.01785.01785-.01785.01339-.01785.01339-.01785.01339-.01785.01785-.02231.00892-.01785.01339-.02231.01339-.01785.00446-.02231.01339-.02231.00892-.02231.00446-.01785.00892-.02231.00446-.02231.00446-.02677.00892-.02231v-.02231l.00446-.02231Z"/>
              <polygon class="cls-1" points="86.99515 40.09915 84.8088 42.28551 84.71956 42.28551 84.67494 42.28551 84.54109 42.28551 84.40723 42.28551 84.22875 42.28551 84.05027 42.28551 83.82717 42.28551 83.55946 42.28551 83.29174 42.28551 82.97941 42.28551 82.62245 42.28551 82.26549 42.28551 81.90854 42.28551 81.46235 42.28551 81.01615 42.28551 80.56996 42.28551 80.07914 42.28551 79.54371 42.28551 56.83243 42.28551 58.08177 40.09915 81.46235 40.09915 81.99778 40.09915 82.53321 40.09915 83.02402 40.09915 83.47022 40.09915 83.91641 40.09915 84.31799 40.09915 84.67494 40.09915 85.0319 40.09915 85.34423 40.09915 85.65657 40.09915 85.92429 40.09915 86.14738 40.09915 86.37048 40.09915 86.54896 40.09915 86.68282 40.09915 86.81668 40.09915 86.90591 40.09915 86.95053 40.09915 86.99515 40.09915"/>
              <polygon class="cls-1" points="86.99515 15.51385 86.95053 15.51385 86.90591 15.51385 86.81668 15.51385 86.68282 15.51385 86.54896 15.51385 86.37048 15.51385 86.14738 15.51385 85.92429 15.51385 85.65657 15.51385 85.34423 15.51385 85.0319 15.51385 84.67494 15.51385 84.31799 15.51385 83.91641 15.51385 83.47022 15.51385 83.02402 15.51385 82.53321 15.51385 81.99778 15.51385 81.46235 15.51385 58.08177 15.51385 56.83243 13.37212 79.54371 13.37212 80.07914 13.37212 80.56996 13.37212 81.01615 13.37212 81.46235 13.37212 81.90854 13.37212 82.26549 13.37212 82.62245 13.37212 82.97941 13.37212 83.29174 13.37212 83.55946 13.37212 83.82717 13.37212 84.05027 13.37212 84.22875 13.37212 84.40723 13.37212 84.54109 13.37212 84.67494 13.37212 84.71956 13.37212 84.8088 13.37212 86.99515 15.51385"/>
              <polygon class="cls-1" points="56.83243 13.37212 58.08177 15.51385 29.16838 15.51385 30.46235 13.37212 56.83243 13.37212"/>
              <polygon class="cls-1" points="58.08177 40.09915 56.83243 42.28551 30.46235 42.28551 29.16838 40.09915 58.08177 40.09915"/>
              <polygon class="cls-1" points="30.46235 13.37212 29.16838 15.51385 5.78781 15.51385 5.25238 15.51385 4.76156 15.51385 4.27075 15.51385 3.77993 15.51385 3.33374 15.51385 2.93217 15.51385 2.57521 15.51385 2.21825 15.51385 1.90592 15.51385 1.59358 15.51385 1.32587 15.51385 1.10277 15.51385 .87967 15.51385 .70119 15.51385 .56734 15.51385 .43348 15.51385 .34424 15.51385 .29962 15.51385 .255 15.51385 2.44135 13.37212 2.53059 13.37212 2.61983 13.37212 2.70907 13.37212 2.84293 13.37212 3.0214 13.37212 3.2445 13.37212 3.4676 13.37212 3.6907 13.37212 4.00303 13.37212 4.27075 13.37212 4.6277 13.37212 4.98466 13.37212 5.38623 13.37212 5.78781 13.37212 6.234 13.37212 6.6802 13.37212 7.17101 13.37212 7.70644 13.37212 30.46235 13.37212"/>
              <polygon class="cls-1" points="29.16838 40.09915 30.46235 42.28551 7.70644 42.28551 7.17101 42.28551 6.6802 42.28551 6.234 42.28551 5.78781 42.28551 5.38623 42.28551 4.98466 42.28551 4.6277 42.28551 4.27075 42.28551 4.00303 42.28551 3.6907 42.28551 3.4676 42.28551 3.2445 42.28551 3.0214 42.28551 2.84293 42.28551 2.70907 42.28551 2.61983 42.28551 2.53059 42.28551 2.44135 42.28551 .255 40.09915 .29962 40.09915 .34424 40.09915 .43348 40.09915 .56734 40.09915 .70119 40.09915 .87967 40.09915 1.10277 40.09915 1.32587 40.09915 1.59358 40.09915 1.90592 40.09915 2.21825 40.09915 2.57521 40.09915 2.93217 40.09915 3.33374 40.09915 3.77993 40.09915 4.27075 40.09915 4.76156 40.09915 5.25238 40.09915 5.78781 40.09915 29.16838 40.09915"/>
            </g>
            <g>
              <polyline class="cls-3" points="2.44135 13.37212 2.53059 13.37212 2.61983 13.37212 2.70907 13.37212 2.84293 13.37212 3.0214 13.37212 3.2445 13.37212 3.4676 13.37212 3.6907 13.37212 4.00303 13.37212 4.27075 13.37212 4.6277 13.37212 4.98466 13.37212 5.38623 13.37212 5.78781 13.37212 6.234 13.37212 6.6802 13.37212 7.17101 13.37212 7.70644 13.37212"/>
              <polyline class="cls-3" points="79.54371 13.37212 80.07914 13.37212 80.56996 13.37212 81.01615 13.37212 81.46235 13.37212 81.90854 13.37212 82.26549 13.37212 82.62245 13.37212 82.97941 13.37212 83.29174 13.37212 83.55946 13.37212 83.82717 13.37212 84.05027 13.37212 84.22875 13.37212 84.40723 13.37212 84.54109 13.37212 84.67494 13.37212 84.71956 13.37212 84.8088 13.37212"/>
              <polyline class="cls-3" points="86.99515 15.51385 86.95053 15.51385 86.90591 15.51385 86.81668 15.51385 86.68282 15.51385 86.54896 15.51385 86.37048 15.51385 86.14738 15.51385 85.92429 15.51385 85.65657 15.51385 85.34423 15.51385 85.0319 15.51385 84.67494 15.51385 84.31799 15.51385 83.91641 15.51385 83.47022 15.51385 83.02402 15.51385 82.53321 15.51385 81.99778 15.51385 81.46235 15.51385"/>
              <polyline class="cls-3" points="5.78781 15.51385 5.25238 15.51385 4.76156 15.51385 4.27075 15.51385 3.77993 15.51385 3.33374 15.51385 2.93217 15.51385 2.57521 15.51385 2.21825 15.51385 1.90592 15.51385 1.59358 15.51385 1.32587 15.51385 1.10277 15.51385 .87967 15.51385 .70119 15.51385 .56734 15.51385 .43348 15.51385 .34424 15.51385 .29962 15.51385 .255 15.51385"/>
              <polyline class="cls-3" points="84.8088 42.28551 84.71956 42.28551 84.67494 42.28551 84.54109 42.28551 84.40723 42.28551 84.22875 42.28551 84.05027 42.28551 83.82717 42.28551 83.55946 42.28551 83.29174 42.28551 82.97941 42.28551 82.62245 42.28551 82.26549 42.28551 81.90854 42.28551 81.46235 42.28551 81.01615 42.28551 80.56996 42.28551 80.07914 42.28551 79.54371 42.28551"/>
              <polyline class="cls-3" points="7.70644 42.28551 7.17101 42.28551 6.6802 42.28551 6.234 42.28551 5.78781 42.28551 5.38623 42.28551 4.98466 42.28551 4.6277 42.28551 4.27075 42.28551 4.00303 42.28551 3.6907 42.28551 3.4676 42.28551 3.2445 42.28551 3.0214 42.28551 2.84293 42.28551 2.70907 42.28551 2.61983 42.28551 2.53059 42.28551 2.44135 42.28551"/>
              <polyline class="cls-3" points=".255 40.09915 .29962 40.09915 .34424 40.09915 .43348 40.09915 .56734 40.09915 .70119 40.09915 .87967 40.09915 1.10277 40.09915 1.32587 40.09915 1.59358 40.09915 1.90592 40.09915 2.21825 40.09915 2.57521 40.09915 2.93217 40.09915 3.33374 40.09915 3.77993 40.09915 4.27075 40.09915 4.76156 40.09915 5.25238 40.09915 5.78781 40.09915"/>
              <polyline class="cls-3" points="81.46235 40.09915 81.99778 40.09915 82.53321 40.09915 83.02402 40.09915 83.47022 40.09915 83.91641 40.09915 84.31799 40.09915 84.67494 40.09915 85.0319 40.09915 85.34423 40.09915 85.65657 40.09915 85.92429 40.09915 86.14738 40.09915 86.37048 40.09915 86.54896 40.09915 86.68282 40.09915 86.81668 40.09915 86.90591 40.09915 86.95053 40.09915 86.99515 40.09915"/>
              <polygon class="cls-3" points="43.62508 28.44456 43.64739 28.44456 43.6697 28.4401 43.69647 28.4401 43.71878 28.4401 43.74109 28.43118 43.7634 28.42671 43.78571 28.42225 43.80802 28.41333 43.83033 28.40887 43.8571 28.39994 43.87941 28.39102 43.89726 28.38209 43.91956 28.36871 43.94187 28.35532 43.95972 28.3464 43.98203 28.33301 43.99988 28.32409 44.01773 28.30624 44.03558 28.29286 44.04896 28.27501 44.06681 28.26162 44.08466 28.24377 44.1025 28.22593 44.11589 28.20808 44.12928 28.19023 44.14266 28.17238 44.16051 28.15007 44.16943 28.13223 44.18282 28.10992 44.19621 28.09207 44.20067 28.06976 44.21405 28.04745 44.22298 28.02514 44.22744 28.00729 44.23636 27.98498 44.24082 27.96267 44.24529 27.9359 44.25421 27.91359 44.25421 27.89128 44.25867 27.86897 44.25867 27.84666 44.25867 27.82435 44.25867 27.80204 44.25867 27.77081 44.25867 27.7485 44.25421 27.72619 44.25421 27.70388 44.24529 27.67711 44.24082 27.6548 44.23636 27.63249 44.22744 27.61464 44.22298 27.59233 44.21405 27.57002 44.20067 27.54771 44.19621 27.5254 44.18282 27.50755 44.16943 27.48524 44.16051 27.4674 44.14266 27.44509 44.12928 27.42724 44.11589 27.40939 44.1025 27.39154 44.08466 27.3737 44.06681 27.35585 44.04896 27.338 44.03558 27.32461 44.01773 27.31123 43.99988 27.29338 43.98203 27.28446 43.95972 27.27107 43.94187 27.25769 43.91956 27.24876 43.89726 27.23538 43.87941 27.22645 43.8571 27.21753 43.83033 27.2086 43.80802 27.20414 43.78571 27.19522 43.7634 27.19076 43.74109 27.18629 43.71878 27.18629 43.69647 27.17737 43.6697 27.17737 43.64739 27.17291 43.62508 27.17291 43.60277 27.17291 43.58046 27.17737 43.55815 27.17737 43.53138 27.18629 43.50907 27.18629 43.48676 27.19076 43.46445 27.19522 43.44214 27.20414 43.41983 27.2086 43.39752 27.21753 43.37967 27.22645 43.35736 27.23538 43.33059 27.24876 43.3172 27.25769 43.29043 27.27107 43.27258 27.28446 43.25027 27.29338 43.23243 27.31123 43.21904 27.32461 43.20119 27.338 43.18334 27.35585 43.1655 27.3737 43.14765 27.39154 43.13873 27.40939 43.12088 27.42724 43.10749 27.44509 43.09857 27.4674 43.08072 27.48524 43.06733 27.50755 43.05841 27.5254 43.04949 27.54771 43.04056 27.57002 43.03164 27.59233 43.02271 27.61464 43.01825 27.63249 43.00933 27.6548 43.00487 27.67711 43.0004 27.70388 43.0004 27.72619 42.99148 27.7485 42.99148 27.77081 42.99148 27.80204 42.99148 27.82435 42.99148 27.84666 42.99148 27.86897 43.0004 27.89128 43.0004 27.91359 43.00487 27.9359 43.00933 27.96267 43.01825 27.98498 43.02271 28.00729 43.03164 28.02514 43.04056 28.04745 43.04949 28.06976 43.05841 28.09207 43.06733 28.10992 43.08072 28.13223 43.09857 28.15007 43.10749 28.17238 43.12088 28.19023 43.13873 28.20808 43.14765 28.22593 43.1655 28.24377 43.18334 28.26162 43.20119 28.27501 43.21904 28.29286 43.23243 28.30624 43.25027 28.32409 43.27258 28.33301 43.29043 28.3464 43.3172 28.35532 43.33059 28.36871 43.35736 28.38209 43.37967 28.39102 43.39752 28.39994 43.41983 28.40887 43.44214 28.41333 43.46445 28.42225 43.48676 28.42671 43.50907 28.43118 43.53138 28.4401 43.55815 28.4401 43.58046 28.4401 43.60277 28.44456 43.62508 28.44456"/>
              <line class="cls-3" x1="56.83243" y1="13.37212" x2="79.54371" y2="13.37212"/>
              <line class="cls-3" x1="7.70644" y1="13.37212" x2="30.46235" y2="13.37212"/>
              <line class="cls-3" x1="30.46235" y1="13.37212" x2="29.16838" y2="15.51385"/>
              <line class="cls-3" x1="58.08177" y1="15.51385" x2="56.83243" y2="13.37212"/>
              <line class="cls-3" x1="30.46235" y1="13.37212" x2="56.83243" y2="13.37212"/>
              <line class="cls-3" x1="81.46235" y1="15.51385" x2="58.08177" y2="15.51385"/>
              <line class="cls-3" x1="58.08177" y1="15.51385" x2="29.16838" y2="15.51385"/>
              <line class="cls-3" x1="29.16838" y1="15.51385" x2="5.78781" y2="15.51385"/>
              <line class="cls-3" x1="30.46235" y1="42.28551" x2="7.70644" y2="42.28551"/>
              <line class="cls-3" x1="5.78781" y1="40.09915" x2="29.16838" y2="40.09915"/>
              <line class="cls-3" x1="58.08177" y1="40.09915" x2="81.46235" y2="40.09915"/>
              <line class="cls-3" x1="79.54371" y1="42.28551" x2="56.83243" y2="42.28551"/>
              <line class="cls-3" x1="29.16838" y1="40.09915" x2="30.46235" y2="42.28551"/>
              <line class="cls-3" x1="56.83243" y1="42.28551" x2="30.46235" y2="42.28551"/>
              <line class="cls-3" x1="56.83243" y1="42.28551" x2="58.08177" y2="40.09915"/>
              <line class="cls-3" x1="29.16838" y1="40.09915" x2="58.08177" y2="40.09915"/>
              <line class="cls-3" x1="2.44135" y1="13.37212" x2=".255" y2="15.51385"/>
              <line class="cls-3" x1="86.99515" y1="15.51385" x2="84.8088" y2="13.37212"/>
              <line class="cls-3" x1="86.99515" y1="40.09915" x2="86.99515" y2="15.51385"/>
              <line class="cls-3" x1=".255" y1="15.51385" x2=".255" y2="40.09915"/>
              <line class="cls-3" x1="84.8088" y1="42.28551" x2="86.99515" y2="40.09915"/>
              <line class="cls-3" x1=".255" y1="40.09915" x2="2.44135" y2="42.28551"/>
            </g>
          </g>
        </g>
      </g>
    </g>
  </g>
</svg>