<?xml version="1.0" encoding="UTF-8"?>
<svg id="Layer_2" data-name="Layer 2" xmlns="http://www.w3.org/2000/svg" width="40.77992mm" height="19.50508mm" viewBox="0 0 115.59661 55.29">
  <defs>
    <style>
      .cls-1 {
        fill: #bcbec0;
      }

      .cls-2 {
        stroke: #010101;
        stroke-width: .51px;
      }

      .cls-2, .cls-3 {
        fill: none;
      }

      .cls-2, .cls-3, .cls-4 {
        stroke-linecap: round;
        stroke-linejoin: round;
      }

      .cls-3, .cls-4 {
        stroke: #000;
        stroke-width: 1.44px;
      }

      .cls-4 {
        fill: #f7f8f9;
      }

      .cls-5 {
        fill: #484848;
      }
    </style>
  </defs>
  <g id="Optical_elements" data-name="Optical elements">
    <g id="CP33">
      <g>
        <g>
          <path class="cls-1" d="M84.68954,6.38v42.53l-5.66,5.66h-42.53l-5.66-5.66V6.38l5.66-5.66h42.53l5.66,5.66ZM80.28954,9.93c0-2.65-2.16-4.81-4.81-4.81-2.66,0-4.81,2.16-4.81,4.81,0,2.66,2.15,4.81,4.81,4.81,2.65,0,4.81-2.15,4.81-4.81ZM80.28954,45.36c0-2.66-2.16-4.81-4.81-4.81-2.66,0-4.81,2.15-4.81,4.81,0,2.65,2.15,4.81,4.81,4.81,2.65,0,4.81-2.15,4.81-4.81ZM75.60954,27.65c0-9.86-7.99-17.85-17.84-17.85-9.86,0-17.85,7.99-17.85,17.84,0,9.86,7.99,17.85,17.84,17.85,9.86,0,17.85-7.98,17.85-17.84ZM44.85954,9.93c0-2.65-2.15-4.81-4.81-4.81-2.65,0-4.81,2.16-4.81,4.81,0,2.66,2.15,4.81,4.81,4.81s4.81-2.15,4.81-4.81ZM44.85954,45.36c0-2.66-2.15-4.81-4.81-4.81-2.65,0-4.81,2.15-4.81,4.81,0,2.65,2.15,4.81,4.81,4.81s4.81-2.15,4.81-4.81Z"/>
          <path class="cls-1" d="M57.76954,9.8c9.85,0,17.84,7.99,17.84,17.85s-7.99,17.84-17.85,17.84c-9.85,0-17.84-7.99-17.84-17.85,0-9.85,7.99-17.84,17.85-17.84ZM69.04954,27.65c0-6.24-5.05-11.29-11.28-11.29-6.24,0-11.29,5.05-11.29,11.28,0,6.24,5.05,11.29,11.28,11.29,6.24,0,11.29-5.05,11.29-11.28Z"/>
          <path class="cls-1" d="M57.76954,16.36c6.23,0,11.28,5.05,11.28,11.29,0,6.23-5.05,11.28-11.29,11.28-6.23,0-11.28-5.05-11.28-11.29,0-6.23,5.05-11.28,11.29-11.28ZM64.09954,27.65c0-3.5-2.83-6.34-6.33-6.34s-6.34,2.83-6.34,6.33v.01c0,3.5,2.83,6.33,6.33,6.33,3.5.01,6.34-2.83,6.34-6.33Z"/>
        </g>
        <g>
          <line class="cls-3" x1="30.83954" y1="6.38" x2="36.49954" y2=".72"/>
          <line class="cls-3" x1="36.49954" y1="54.57" x2="30.83954" y2="48.91"/>
          <line class="cls-3" x1="84.68954" y1="48.91" x2="79.02954" y2="54.57"/>
          <line class="cls-3" x1="79.02954" y1=".72" x2="84.68954" y2="6.38"/>
          <line class="cls-3" x1="30.83954" y1="6.38" x2="30.83954" y2="48.91"/>
          <line class="cls-3" x1="36.49954" y1="54.57" x2="79.02954" y2="54.57"/>
          <line class="cls-3" x1="84.68954" y1="48.91" x2="84.68954" y2="6.38"/>
          <line class="cls-3" x1="79.02954" y1=".72" x2="36.49954" y2=".72"/>
          <path class="cls-3" d="M51.42954,27.65c0,3.5,2.83,6.33,6.33,6.33,3.5.01,6.34-2.83,6.34-6.33s-2.83-6.34-6.33-6.34-6.34,2.83-6.34,6.33"/>
          <path class="cls-3" d="M69.04954,27.65c0-6.24-5.05-11.29-11.28-11.29-6.24,0-11.29,5.05-11.29,11.28,0,6.24,5.05,11.29,11.28,11.29,6.24,0,11.29-5.05,11.29-11.28Z"/>
          <path class="cls-3" d="M75.60954,27.65c0-9.86-7.99-17.85-17.84-17.85-9.86,0-17.85,7.99-17.85,17.84,0,9.86,7.99,17.85,17.84,17.85,9.86,0,17.85-7.98,17.85-17.84Z"/>
          <circle class="cls-3" cx="40.04954" cy="9.93" r="4.81"/>
          <circle class="cls-3" cx="75.47954" cy="45.36" r="4.81"/>
          <circle class="cls-3" cx="40.04954" cy="45.36" r="4.81"/>
          <circle class="cls-3" cx="75.47954" cy="9.93" r="4.81"/>
        </g>
      </g>
      <g id="CP33-2" data-name="CP33">
        <g>
          <circle class="cls-4" cx="57.79799" cy="27.64567" r="5.66929"/>
          <g>
            <g>
              <rect class="cls-5" x="108.81471" y="15.78779" width="6.5269" height="23.70997"/>
              <polygon class="cls-5" points="115.34161 39.49776 114.609 40.23037 108.54831 40.23037 108.81471 39.49776 115.34161 39.49776"/>
              <polygon class="cls-5" points="115.34161 15.78779 108.81471 15.78779 108.54831 15.05518 114.609 15.05518 115.34161 15.78779"/>
              <path class="cls-5" d="M108.81471,15.78779v23.70997H6.7153V15.78779h102.09941ZM58.71074,27.64277l-.01332-.10656-.01332-.09324-.02664-.10656-.03996-.09324-.05328-.09324-.0666-.09324-.07326-.0666-.07992-.07992-.07992-.05328-.09324-.05328-.09324-.03996-.10656-.02664-.10656-.02664h-.1998l-.10656.02664-.10656.02664-.09324.03996-.09324.05328-.07992.05328-.08658.07992-.0666.0666-.0666.09324-.05328.09324-.03996.09324-.02664.10656-.01332.09324-.01332.10656.01332.11322.01332.10656.02664.09324.03996.10656.05328.07992.0666.09324.0666.07992.08658.0666.07992.0666.09324.03996.09324.03996.10656.03996.10656.01332h.1998l.10656-.01332.10656-.03996.09324-.03996.09324-.03996.07992-.0666.07992-.0666.07326-.07992.0666-.09324.05328-.07992.03996-.10656.02664-.09324.01332-.10656.01332-.11322Z"/>
              <polygon class="cls-5" points="108.54831 15.05518 108.81471 15.78779 6.7153 15.78779 6.98171 15.05518 108.54831 15.05518"/>
              <polygon class="cls-5" points="108.81471 39.49776 108.54831 40.23037 6.98171 40.23037 6.7153 39.49776 108.81471 39.49776"/>
              <polygon class="cls-5" points="6.98171 15.05518 6.7153 15.78779 .255 15.78779 .92101 15.05518 6.98171 15.05518"/>
              <polygon class="cls-5" points="6.7153 39.49776 6.98171 40.23037 .92101 40.23037 .255 39.49776 6.7153 39.49776"/>
              <rect class="cls-5" x=".255" y="15.78779" width="6.4603" height="23.70997"/>
            </g>
            <g>
              <polygon class="cls-2" points="57.77167 28.58185 57.86491 28.58185 57.97147 28.56853 58.07803 28.52857 58.17127 28.48861 58.26451 28.44865 58.34443 28.38205 58.42436 28.31544 58.49762 28.23552 58.56422 28.14228 58.6175 28.06236 58.65746 27.9558 58.6841 27.86256 58.69742 27.756 58.71074 27.64277 58.69742 27.53621 58.6841 27.44297 58.65746 27.33641 58.6175 27.24317 58.56422 27.14993 58.49762 27.05668 58.42436 26.99008 58.34443 26.91016 58.26451 26.85688 58.17127 26.8036 58.07803 26.76364 57.97147 26.737 57.86491 26.71036 57.77167 26.71036 57.6651 26.71036 57.55854 26.737 57.45198 26.76364 57.35874 26.8036 57.2655 26.85688 57.18558 26.91016 57.099 26.99008 57.03239 27.05668 56.96579 27.14993 56.91251 27.24317 56.87255 27.33641 56.84591 27.44297 56.83259 27.53621 56.81927 27.64277 56.83259 27.756 56.84591 27.86256 56.87255 27.9558 56.91251 28.06236 56.96579 28.14228 57.03239 28.23552 57.099 28.31544 57.18558 28.38205 57.2655 28.44865 57.35874 28.48861 57.45198 28.52857 57.55854 28.56853 57.6651 28.58185 57.77167 28.58185"/>
              <line class="cls-2" x1="6.98171" y1="15.05518" x2="108.54831" y2="15.05518"/>
              <line class="cls-2" x1="6.98171" y1="15.05518" x2="6.7153" y2="15.78779"/>
              <line class="cls-2" x1=".92101" y1="15.05518" x2="6.98171" y2="15.05518"/>
              <line class="cls-2" x1=".255" y1="15.78779" x2=".92101" y2="15.05518"/>
              <line class="cls-2" x1="108.54831" y1="15.05518" x2="108.81471" y2="15.78779"/>
              <line class="cls-2" x1="114.609" y1="15.05518" x2="115.34161" y2="15.78779"/>
              <line class="cls-2" x1="108.54831" y1="15.05518" x2="114.609" y2="15.05518"/>
              <line class="cls-2" x1="108.81471" y1="15.78779" x2="6.7153" y2="15.78779"/>
              <line class="cls-2" x1="108.81471" y1="15.78779" x2="108.81471" y2="39.49776"/>
              <line class="cls-2" x1="115.34161" y1="15.78779" x2="115.34161" y2="39.49776"/>
              <line class="cls-2" x1="115.34161" y1="15.78779" x2="108.81471" y2="15.78779"/>
              <line class="cls-2" x1=".255" y1="15.78779" x2=".255" y2="39.49776"/>
              <line class="cls-2" x1="6.7153" y1="15.78779" x2="6.7153" y2="39.49776"/>
              <line class="cls-2" x1="6.7153" y1="15.78779" x2=".255" y2="15.78779"/>
              <line class="cls-2" x1="114.609" y1="40.23037" x2="108.54831" y2="40.23037"/>
              <line class="cls-2" x1="114.609" y1="40.23037" x2="115.34161" y2="39.49776"/>
              <line class="cls-2" x1="108.81471" y1="39.49776" x2="115.34161" y2="39.49776"/>
              <line class="cls-2" x1=".255" y1="39.49776" x2=".92101" y2="40.23037"/>
              <line class="cls-2" x1="6.98171" y1="40.23037" x2=".92101" y2="40.23037"/>
              <line class="cls-2" x1=".255" y1="39.49776" x2="6.7153" y2="39.49776"/>
              <line class="cls-2" x1="6.7153" y1="39.49776" x2="6.98171" y2="40.23037"/>
              <line class="cls-2" x1="108.54831" y1="40.23037" x2="6.98171" y2="40.23037"/>
              <line class="cls-2" x1="108.81471" y1="39.49776" x2="108.54831" y2="40.23037"/>
              <line class="cls-2" x1="6.7153" y1="39.49776" x2="108.81471" y2="39.49776"/>
            </g>
          </g>
        </g>
      </g>
    </g>
  </g>
</svg>