<?xml version="1.0" encoding="UTF-8"?>
<svg id="Layer_2" data-name="Layer 2" xmlns="http://www.w3.org/2000/svg" viewBox="0 0 67.41 141.57">
  <defs>
    <style>
      .cls-1 {
        fill: #010101;
      }

      .cls-1, .cls-2, .cls-3 {
        stroke: #010101;
      }

      .cls-1, .cls-3 {
        stroke-width: .54px;
      }

      .cls-2 {
        stroke-width: .51px;
      }

      .cls-2, .cls-4 {
        fill: none;
        stroke-linecap: round;
        stroke-linejoin: round;
      }

      .cls-4 {
        stroke: #231f20;
        stroke-width: .5px;
      }

      .cls-3 {
        fill: #dc702a;
        fill-rule: evenodd;
      }

      .cls-5 {
        fill: #333;
      }

      .cls-6 {
        fill: #c6c5c5;
      }
    </style>
  </defs>
  <g id="Optical_elements" data-name="Optical elements">
    <g id="Photodetector">
      <g>
        <path class="cls-3" d="M50.35,88.73c-1.76,0-3.25-.15-4.87-.6v-29.48c1.62-.45,3.11-.6,4.87-.6,9.2,0,16.78,6.8,16.78,15.27s-7.58,15.42-16.78,15.42h0Z"/>
        <rect class="cls-1" x="40.74" y="55.77" width="4.74" height="35.23"/>
      </g>
      <g>
        <g>
          <path class="cls-5" d="M23.57,3.72l.35.02,1.39.05,1.44.03,1.45.02h1.54s1.54-.04,1.54-.04l.57-.02.91-.04,1.42-.07,1.35-.09,1.26-.1,1.57-.15,1.4-.18,1.22-.18,1.28-.23,1.02-.24.77-.24.59-.26.26-.26-.06-.23-.25-.16-.43-.15-.62-.13-.8-.12-1.02-.11-1.24-.09-1.44-.08-1.09-.04-1.19-.04-1.27-.03-1.25-.03-1.32-.02h-1.36s-1.48-.02-1.48-.02h-4.78s-1.71.02-1.71.02l-1.61.03-1.5.03-1.39.04-1.26.05-1.39.07-1.21.09-1.01.1-.93.12-.71.15-.49.16-.27.17-.07.18.14.2.35.21.56.21.82.24,1.08.24,1.34.23,1.2.17,1.36.16,1.51.14,1.82.14,1.64.08ZM.25.25h50.4v5.05H.25V.26H.25ZM38.77,3.99h-.62v.23h-1.72s-.38.03-.38.03l-.24.03-.21.04-.08.07v.07l.08.07.19.04.24.03.38.02h.43s.32,0,.32,0h1.61v-.64ZM32.89,3.99h-.53l-.56.03-.52.06-.32.07-.11.06-.04.06v.07l.05.07.13.06.33.07.51.06.6.03h1.2s.55-.05.55-.05l.43-.06.26-.08.09-.11v-.07l-.04-.05-.27-.1-.43-.06-.62-.05h-.71ZM29.38,3.99h-.73l-.95.42-.04.02-.04.02-.08.03-.07-.03h-.04s-.03-.03-.03-.03l-.91-.43h-.68l-1.1.56v.08h.64l.64-.37.1-.06.05-.03.05-.03.16.1.09.05.1.05.62.29h.75l.86-.39.11-.05.06-.02.05-.03.05.03.08.04.07.04.65.38h.64v-.08l-1.1-.56ZM24.32,3.99h-3.2v.02h0v.02h0v.02h0v.08h2.58v.12h-2.3v.02h0v.02h0v.1h2.3v.1h-2.46v.02h0v.02h0v.1h3.08v-.64ZM20.28,3.99h-.61v.25h-.94l-.28-.02-.25-.04-.2-.03-.18-.04-.55-.12h-.7v.08l.71.15.21.04h.05s-.1,0-.1,0l-.27.03-.18.05-.07.05v.07l.09.06.19.05.22.02.29.02h.68s1.89,0,1.89,0v-.64Z"/>
          <polygon class="cls-5" points="50.65 .25 51.46 .29 52.26 .43 53.03 .65 53.78 .96 54.48 1.35 55.14 1.82 55.74 2.36 56.28 2.96 56.75 3.62 57.14 4.32 57.45 5.07 57.67 5.85 57.81 6.64 57.85 7.45 57.85 7.46 57.85 7.55 57.85 7.73 57.85 8 57.85 8.36 57.85 8.81 57.85 9.36 57.85 9.99 57.85 10.71 57.85 11.52 57.85 11.77 57.85 12.42 57.81 11.63 57.67 10.84 57.45 10.07 57.14 9.33 56.75 8.63 56.28 7.98 55.74 7.38 55.14 6.85 54.48 6.39 53.78 6 53.03 5.7 52.26 5.47 51.46 5.34 50.65 5.3 50.65 4.38 50.65 3.56 50.65 2.83 50.65 2.18 50.65 1.63 50.65 1.18 50.65 .81 50.65 .53 50.65 .35 50.65 .26 50.65 .25"/>
          <polygon class="cls-5" points="28.56 .49 30.08 .49 31.56 .5 32.92 .51 34.24 .53 35.49 .56 36.76 .59 37.95 .63 39.04 .67 40.48 .75 41.72 .84 42.74 .95 43.54 1.07 44.16 1.2 44.59 1.35 44.84 1.51 44.9 1.74 44.64 2 44.05 2.26 43.28 2.5 42.26 2.74 40.98 2.97 39.76 3.15 38.36 3.33 36.79 3.48 35.53 3.58 34.18 3.67 32.76 3.74 31.85 3.78 31.85 1.53 23.57 1.53 23.57 3.72 21.93 3.64 20.11 3.5 18.6 3.36 17.24 3.2 16.04 3.03 14.7 2.8 13.62 2.56 12.8 2.32 12.24 2.11 11.89 1.9 11.75 1.7 11.82 1.52 12.09 1.35 12.58 1.19 13.29 1.04 14.22 .92 15.23 .82 16.44 .73 17.83 .66 19.09 .61 20.48 .57 21.98 .54 23.59 .51 25.3 .5 27.05 .49 28.56 .49"/>
          <polygon class="cls-5" points="23.57 1.53 31.85 1.53 31.85 3.78 31.28 3.8 29.74 3.83 28.2 3.84 26.75 3.82 25.31 3.79 23.92 3.74 23.57 3.72 23.57 1.53"/>
          <polygon class="cls-5" points=".25 5.3 50.65 5.3 50.65 5.5 50.65 5.8 50.65 6.18 50.65 6.64 50.65 7.19 50.65 7.81 50.65 8.51 50.65 9.28 50.65 10.11 50.65 11.01 50.65 11.95 50.65 12.95 50.65 13.98 50.65 15.05 50.65 16.15 50.65 17.27 50.65 18.41 50.65 19.55 .25 19.55 .25 18.41 .25 17.27 .25 16.15 .25 15.05 .25 13.98 .25 12.95 .25 11.95 .25 11.01 .25 10.11 .25 9.28 .25 8.51 .25 7.81 .25 7.19 .25 6.64 .25 6.18 .25 5.8 .25 5.5 .25 5.3"/>
          <polygon class="cls-5" points="50.65 5.3 51.46 5.34 52.26 5.47 53.03 5.7 53.78 6 54.48 6.39 55.14 6.85 55.74 7.38 56.28 7.98 56.75 8.63 57.14 9.33 57.45 10.07 57.67 10.84 57.81 11.63 57.85 12.42 57.85 12.59 57.85 12.86 57.85 13.23 57.85 13.68 57.85 14.22 57.85 14.83 57.85 15.51 57.85 16.25 57.85 16.28 57.85 17.03 57.85 17.85 57.85 18.7 57.85 19.55 57.81 19.55 57.67 19.55 57.45 19.55 57.14 19.55 56.75 19.55 56.28 19.55 55.74 19.55 55.14 19.55 54.48 19.55 53.78 19.55 53.03 19.55 52.26 19.55 51.46 19.55 50.65 19.55 50.65 18.41 50.65 17.27 50.65 16.15 50.65 15.05 50.65 13.98 50.65 12.95 50.65 11.95 50.65 11.01 50.65 10.11 50.65 9.28 50.65 8.51 50.65 7.81 50.65 7.19 50.65 6.64 50.65 6.18 50.65 5.8 50.65 5.5 50.65 5.3"/>
          <polygon class="cls-5" points="57.81 19.55 57.85 19.55 57.85 22.56 57.85 118.34 57.85 121.34 57.81 121.34 57.67 121.34 57.45 121.34 57.14 121.34 56.75 121.34 56.28 121.34 55.74 121.34 55.14 121.34 54.48 121.34 53.78 121.34 53.03 121.34 52.26 121.34 51.46 121.34 50.65 121.34 50.65 19.55 51.46 19.55 52.26 19.55 53.03 19.55 53.78 19.55 54.48 19.55 55.14 19.55 55.74 19.55 56.28 19.55 56.75 19.55 57.14 19.55 57.45 19.55 57.67 19.55 57.81 19.55"/>
          <path class="cls-5" d="M.25,19.55h50.4v101.79h-15.21l-.5-1.26h-.69l-.5,1.26h-1.97l-.08-.06-.45-.08-.5.13h-.02s-.79.01-.79.01l-.19-.1-.31-.04-.48.12-.03.02h-.41v-.08h-.56v.08h-4.32l.13-.64h1.61v-.56h-2.07l-.24,1.2h-2.94l-.14-.5-.18-.32-.27-.25-.34-.15-.37-.04-.37.04-.34.15-.27.25-.19.32-.13.5H.25V19.55ZM27.57,27.29h-1.35l-1.34.09-1.33.18-1.32.27-1.3.36-1.27.44-1.24.52-1.2.61-1.15.69-1.11.76-1.06.83-1,.9-.93.97-.87,1.03-.8,1.08-.72,1.13-.65,1.18-.56,1.22-.49,1.26-.4,1.28-.31,1.31-.22,1.33-.14,1.33-.04,1.35.04,1.34.14,1.34.22,1.33.31,1.3.4,1.29.49,1.25.56,1.22.65,1.18.72,1.14.8,1.08.87,1.03.93.96,1,.91,1.06.83,1.11.76,1.15.69,1.2.6,1.24.53,1.27.44,1.3.35,1.32.27,1.33.18,1.34.09h1.35l1.34-.09,1.33-.18,1.32-.27,1.3-.35,1.27-.44,1.23-.53,1.2-.6,1.16-.69,1.11-.76,1.06-.83.99-.91.94-.96.87-1.03.79-1.08.73-1.14.64-1.18.57-1.22.48-1.25.4-1.29.31-1.3.23-1.33.13-1.34.05-1.34-.05-1.35-.13-1.33-.23-1.33-.31-1.31-.4-1.28-.48-1.26-.57-1.22-.64-1.18-.73-1.13-.79-1.08-.87-1.03-.94-.97-.99-.9-1.06-.83-1.11-.76-1.16-.69-1.2-.61-1.23-.52-1.27-.44-1.3-.36-1.32-.27-1.33-.18-1.34-.09ZM27.55,73.37h-1.31l-1.3.1-1.29.18-1.28.27-1.25.36-1.23.44-1.19.53-1.15.62-1.1.69-1.06.76-1,.84-.94.91-.87.97-.8,1.03-.73,1.08-.65,1.13-.58,1.17-.48,1.21-.41,1.24-.31,1.26-.23,1.29-.14,1.29-.04,1.31.04,1.3.14,1.3.23,1.28.31,1.27.41,1.24.48,1.21.58,1.17.65,1.13.73,1.08.8,1.03.87.97.94.9,1,.84,1.06.77,1.1.69,1.15.61,1.19.53,1.23.45,1.25.36,1.28.27,1.29.18,1.3.09h1.31l1.3-.09,1.29-.18,1.27-.27,1.26-.36,1.22-.45,1.19-.53,1.16-.61,1.1-.69,1.06-.77,1-.84.93-.9.88-.97.8-1.03.73-1.08.65-1.13.57-1.17.49-1.21.4-1.24.32-1.27.23-1.28.13-1.3.05-1.3-.05-1.31-.13-1.29-.23-1.29-.32-1.26-.4-1.24-.49-1.21-.57-1.17-.65-1.13-.73-1.08-.8-1.03-.88-.97-.93-.91-1-.84-1.06-.76-1.1-.69-1.16-.62-1.19-.53-1.22-.44-1.26-.36-1.27-.27-1.29-.18-1.3-.1ZM16.76,113.54l-.75.13-.66.39-.39.52-.21.61-.06.65.1.73.33.66.45.44.57.27.62.08.74-.12.64-.38.4-.5.22-.6.07-.63-.1-.75-.31-.68-.45-.45-.58-.28-.63-.09ZM39.16,113.6h-3.42v.5h1.4v3.87h.62v-3.87h1.4v-.5ZM35.07,113.6h-.62v2.48l-.03.52-.15.49-.18.19-.23.11-.51.07-.43-.07-.36-.24-.16-.33-.06-.37v-.37s-.01-2.48-.01-2.48h-.62v2.51l.02.44.07.42.16.41.38.39.51.2.55.05.64-.08.56-.31.31-.44.13-.53.03-.55v-2.51ZM29.28,113.6h-1.6v4.37h.61v-1.79h1.07l.52-.04.48-.17.32-.29.19-.39.06-.43-.05-.38-.15-.35-.35-.33-.45-.16-.28-.03h-.37ZM27.06,113.6h-3.41v.5h1.4v3.87h.61v-3.87h1.4v-.5ZM22.97,113.6h-.61v2.48l-.04.52-.15.49-.17.19-.23.11-.51.07-.43-.07-.36-.24-.17-.33-.06-.37v-.37s0-2.48,0-2.48h-.62v2.51l.02.44.07.42.16.41.39.39.51.2.54.05.64-.08.56-.31.31-.44.13-.53.03-.55v-2.51Z"/>
          <path class="cls-6" d="M26.84,28.33h.28s.95.04.95.04h.08l1.1.11.96.15.36.06.61.14.86.21,1.13.35.61.23.66.27.08.03.22.11.95.45h.02s.09.06.09.06l1.01.57.05.03.24.15.73.49.61.45.44.34.68.59.27.23.65.64.31.31.78.89.04.04.51.66.4.54.04.05.17.27.48.73.29.51.37.68.04.07.49,1.05.26.64.24.63.15.48.26.84v.05s.05.16.05.16l.24,1.05.02.07.18,1.1.07.69.07.79v.27s.03.93.03.93l-.03.7-.02.61-.09.77-.06.57-.02.12-.07.37-.15.82-.13.53-.21.79-.02.06-.07.2-.33.99-.02.06-.13.31-.31.76-.32.66-.28.57-.05.09-.15.25-.5.86-.02.03-.12.17-.54.81-.6.77-.16.19-.48.56-.51.55-.04.04-.19.19-.67.63-.64.54-.3.26-.69.51-.42.31-.75.48-.31.19-.71.39-.55.29-.09.04-.99.44-.96.37-.3.11-.83.25-.47.14-.83.18-.45.1-.64.1-.71.1-.6.05-.72.05-.89.02h-.31l-.77-.04-.71-.05h-.06l-.19-.03-1.08-.14h-.04s-1.11-.23-1.11-.23l-.84-.23-.46-.13-.65-.22-.6-.21-.51-.21-.81-.36h-.02s-.06-.04-.06-.04l-1.07-.56-.04-.02-.92-.55-.72-.5-.49-.35-.07-.05-.29-.24-.61-.49-.43-.4-.64-.61-.02-.02-.82-.88-.06-.07-.73-.9-.57-.8-.14-.22-.57-.92-.13-.21-.31-.58-.39-.77h0s-.03-.07-.03-.07l-.43-1-.26-.75-.18-.53-.04-.12-.29-1.03-.25-1.25v-.03s-.16-1.11-.16-1.11l-.03-.25-.05-.6-.05-.92.02-1.3h0s.01-.07.01-.07l.09-1.13.08-.61.11-.7.11-.5.19-.83v-.07s.12-.36.12-.36l.22-.76.18-.5.33-.87h0s.02-.06.02-.06l.45-.99.45-.86.16-.28.41-.67.33-.52.06-.09.18-.24.56-.77.04-.05.7-.83.76-.8.16-.17.7-.64.3-.27.62-.49.46-.36.1-.07.93-.63.82-.48.34-.2.85-.43.27-.13,1.16-.48h.03s.69-.25.69-.25l.8-.26h0l1.1-.28.74-.14.6-.11.59-.07.75-.08.46-.02.88-.04h.08ZM27.43,32.29h-1.17s-1.17.1-1.17.1l-1.15.19-1.15.27-1.11.36-1.09.45-1.04.53-1,.61-.96.68-.89.76-.84.82-.77.89-.69.94-.63,1-.54,1.03-.46,1.08-.38,1.11-.29,1.14-.2,1.16-.11,1.16v1.18s.06,1.17.06,1.17l.16,1.16.25,1.14.34,1.13.43,1.09.51,1.06.58,1.01.67.96.74.91.81.86.87.78.93.72.98.64,1.03.56,1.07.48,1.1.4,1.13.31,1.15.23,1.17.13,1.17.04,1.17-.05,1.16-.14,1.15-.23,1.13-.32,1.1-.4,1.07-.49,1.03-.57.97-.65.93-.72.86-.79.81-.85.73-.92.66-.97.58-1.01.51-1.06.42-1.1.33-1.12.24-1.15.16-1.16.06-1.17-.02-1.18-.12-1.16-.21-1.16-.29-1.13-.39-1.11-.46-1.08-.55-1.03-.63-.99-.7-.94-.78-.88-.84-.82-.9-.75-.95-.68-1.01-.6-1.05-.53-1.09-.44-1.11-.35-1.15-.27-1.16-.18-1.17-.09Z"/>
          <path class="cls-6" d="M25.71,33.04l1.14-.05,1.15.05,1.13.13,1.13.22,1.1.31,1.08.4,1.04.48.99.57.95.64.9.71.84.79.77.84.7.91.63.96.55,1,.46,1.05.39,1.08.29,1.11.21,1.13.12,1.14.02,1.14-.06,1.15-.16,1.13-.24,1.12-.33,1.1-.42,1.06-.51,1.03-.58.99-.66.94-.73.88-.8.82-.86.75-.92.69-.98.61-1.01.53-1.06.44-1.08.36-1.12.28-1.13.18-1.14.1h-1.15l-1.14-.09-1.13-.17-1.12-.27-1.09-.36-1.05-.44-1.02-.52-.98-.6-.92-.68-.87-.75-.8-.82-.74-.88-.67-.93-.58-.98-.51-1.03-.43-1.06-.34-1.1-.25-1.11-.16-1.14-.08-1.14.02-1.15.11-1.14.2-1.13.29-1.11.38-1.08.46-1.05.55-1.01.62-.96.69-.91.77-.85.83-.79.89-.72.95-.65,1-.57,1.03-.48,1.07-.41,1.11-.32,1.12-.23,1.14-.14ZM26.85,34.09l-1.1.05-1.09.14-1.07.22-1.06.32-1.02.41-.99.48-.94.57-.9.64-.84.71-.77.79-.71.84-.64.9-.56.94-.48.99-.4,1.03-.31,1.06-.22,1.07-.13,1.1-.05,1.1.05,1.1.14,1.09.23,1.08.32,1.05.4,1.02.49.99.56.95.65.89.71.84.78.77.84.71.9.64.95.56.99.48,1.03.4,1.05.31,1.08.22,1.09.14,1.1.04,1.1-.05,1.1-.14,1.07-.23,1.06-.32,1.02-.4.99-.49.94-.56.9-.65.83-.71.78-.78.71-.84.64-.9.56-.95.48-.99.39-1.03.32-1.05.22-1.08.13-1.09.04-1.1-.05-1.1-.13-1.09-.23-1.08-.32-1.06-.4-1.02-.49-.99-.57-.94-.64-.9-.71-.83-.78-.78-.85-.71-.89-.64-.95-.56-.99-.48-1.03-.39-1.06-.31-1.07-.23-1.1-.13-1.1-.04Z"/>
          <polygon class="cls-5" points="57.93 33.19 63.97 33.19 63.97 33.23 63.97 33.37 63.97 33.59 63.97 33.9 63.97 34.3 63.97 34.79 63.97 35.37 63.97 36.02 63.97 36.76 63.97 37.59 63.97 38.49 63.97 39.47 63.97 40.52 63.97 41.65 63.97 42.84 63.97 44.1 63.97 45.43 63.97 46.81 63.97 48.25 63.97 49.75 63.97 51.29 63.97 52.88 63.97 54.52 63.97 56.19 63.97 57.89 63.97 59.63 63.97 61.39 63.97 63.18 63.97 64.98 63.97 66.8 63.97 68.62 63.97 70.45 63.97 72.28 63.97 74.1 63.97 75.91 63.97 77.72 63.97 79.5 63.97 81.26 63.97 83 63.97 84.71 63.97 86.38 63.97 88.01 63.97 89.6 63.97 91.15 63.97 92.64 63.97 94.08 63.97 95.47 63.97 96.79 63.97 98.06 63.97 99.25 63.97 100.38 63.97 101.43 63.97 102.41 63.97 103.31 63.97 104.13 63.97 104.87 63.97 105.53 63.97 106.1 63.97 106.59 63.97 106.99 63.97 107.3 63.97 107.53 63.97 107.66 63.97 107.71 57.93 107.71 57.93 33.19"/>
          <polygon class="cls-6" points="25.79 34.86 26.86 34.81 27.92 34.85 28.99 34.98 30.03 35.2 31.06 35.51 32.05 35.91 33.01 36.39 33.92 36.95 34.78 37.58 35.58 38.28 36.33 39.05 37 39.88 37.6 40.77 38.13 41.7 38.57 42.67 38.93 43.68 39.2 44.72 39.39 45.77 39.48 46.84 39.48 47.9 39.4 48.97 39.22 50.03 38.95 51.06 38.6 52.07 38.16 53.05 37.64 53.98 37.05 54.87 36.38 55.7 35.64 56.48 34.84 57.19 33.98 57.83 33.07 58.39 32.12 58.87 31.13 59.28 30.1 59.59 29.06 59.82 28 59.96 26.93 60.01 25.86 59.97 24.8 59.83 23.76 59.61 22.73 59.3 21.74 58.9 20.78 58.43 19.87 57.87 19.01 57.23 18.2 56.53 17.46 55.76 16.79 54.93 16.18 54.05 15.66 53.11 15.22 52.14 14.86 51.13 14.58 50.1 14.4 49.05 14.31 47.98 14.3 46.91 14.39 45.84 14.57 44.79 14.83 43.75 15.19 42.74 15.63 41.77 16.14 40.83 16.74 39.95 17.41 39.11 18.15 38.34 18.95 37.63 19.81 36.99 20.72 36.43 21.67 35.94 22.66 35.54 23.68 35.22 24.73 35 25.79 34.86"/>
          <polygon class="cls-6" points="25.63 74.38 26.89 74.34 28.16 74.38 29.41 74.52 30.66 74.74 31.88 75.05 33.08 75.45 34.25 75.94 35.38 76.5 36.47 77.15 37.51 77.87 38.49 78.66 39.42 79.52 40.28 80.45 41.07 81.43 41.79 82.47 42.44 83.56 43 84.69 43.49 85.86 43.89 87.06 44.2 88.28 44.33 88.99 42.55 89.32 42.55 89.31 40.23 89.31 40.21 89.31 40.1 88.75 39.78 87.68 39.38 86.65 38.9 85.65 38.34 84.69 37.7 83.78 36.99 82.93 36.22 82.14 35.38 81.41 34.48 80.75 33.54 80.17 32.55 79.67 31.52 79.25 30.46 78.92 29.38 78.67 28.28 78.51 27.17 78.44 26.06 78.46 24.96 78.58 23.87 78.78 22.79 79.07 21.75 79.45 20.74 79.91 19.77 80.45 18.85 81.07 17.98 81.76 17.17 82.52 16.43 83.35 15.76 84.23 15.16 85.16 14.63 86.14 14.19 87.16 13.84 88.21 13.57 89.29 13.57 89.31 13.56 89.31 11.23 89.31 9.46 88.98 9.59 88.28 9.9 87.06 10.3 85.86 10.78 84.69 11.35 83.56 11.99 82.47 12.71 81.43 13.51 80.45 14.37 79.52 15.29 78.66 16.28 77.87 17.32 77.15 18.41 76.5 19.54 75.94 20.7 75.45 21.9 75.05 23.13 74.74 24.37 74.52 25.63 74.38"/>
          <path class="cls-6" d="M26.06,78.46l1.11-.02,1.11.07,1.1.16,1.08.25,1.06.33,1.03.42.99.5.94.58.9.66.84.73.77.79.71.85.64.91.56.96.48,1,.4,1.03.32,1.07.11.56.11.53.14,1.1.04,1.11-.04,1.11-.14,1.1-.1.52-.12.57-.32,1.06-.4,1.04-.48,1-.56.95-.64.91-.71.86-.77.79-.84.73-.9.65-.94.58-.99.51-1.03.42-1.06.33-1.08.25-1.1.15-1.11.07-1.11-.02-1.1-.11-1.09-.21-1.08-.29-1.04-.37-1.01-.47-.97-.54-.92-.62-.87-.69-.81-.76-.74-.82-.67-.88-.6-.94-.53-.98-.44-1.02-.35-1.05-.27-1.08v-.02l-.18-1.07-.09-1.11v-1.11l.09-1.1.18-1.08v-.02l.27-1.08.35-1.05.44-1.02.53-.98.6-.93.67-.88.74-.83.81-.76.87-.69.92-.62.97-.54,1.01-.46,1.04-.38,1.08-.29,1.09-.2,1.1-.12ZM26.62,79.16l-1.07.07-1.07.16-1.05.24-1.03.34-.99.42-.96.5-.91.57-.86.66-.8.72-.74.79-.67.84-.6.9-.52.95-.44.98-.35,1.02-.27,1.05-.18,1.06-.09,1.08v1.08l.09,1.07.18,1.07.27,1.04.35,1.02.44.99.52.94.6.9.67.85.74.79.8.72.86.65.91.58.96.5.99.42,1.03.33,1.05.25,1.07.15,1.07.07,1.08-.02,1.08-.11,1.06-.2,1.04-.3,1.01-.37.97-.46.94-.54.89-.62.83-.68.77-.76.7-.82.64-.87.56-.92.48-.97.39-1,.32-1.04.22-1.05.14-1.07.04-1.08-.04-1.08-.14-1.07-.22-1.06-.32-1.03-.39-1-.48-.97-.56-.92-.64-.88-.7-.81-.77-.76-.83-.69-.89-.61-.94-.54-.97-.46-1.01-.38-1.04-.29-1.06-.2-1.08-.12-1.08-.02Z"/>
          <path class="cls-6" d="M25.55,79.23l1.07-.07,1.08.02,1.08.12,1.06.2,1.04.29,1.01.38.97.46.94.54.89.61.83.69.77.76.7.81.64.88.56.92.48.97.39,1,.32,1.03.22,1.06.14,1.07.04,1.08-.04,1.08-.14,1.07-.22,1.05-.32,1.04-.39,1-.48.97-.56.92-.64.87-.7.82-.77.76-.83.68-.89.62-.94.54-.97.46-1.01.37-1.04.3-1.06.2-1.08.11-1.08.02-1.07-.07-1.07-.15-1.05-.25-1.03-.33-.99-.42-.96-.5-.91-.58-.86-.65-.8-.72-.74-.79-.67-.85-.6-.9-.52-.94-.44-.99-.35-1.02-.27-1.04-.18-1.07-.09-1.07v-1.08l.09-1.08.18-1.06.27-1.05.35-1.02.44-.98.52-.95.6-.9.67-.84.74-.79.8-.72.86-.66.91-.57.96-.5.99-.42,1.03-.34,1.05-.24,1.07-.16ZM26.89,80.24l-1.03.04-1.02.14-1,.22-.98.31-.96.4-.91.47-.87.55-.82.63-.76.7-.69.76-.63.81-.55.87-.48.92-.39.95-.31.98-.23,1.01-.13,1.02-.04,1.03.04,1.03.13,1.02.23,1,.31.99.39.95.48.91.55.87.63.82.69.76.76.69.82.63.87.55.91.48.96.39.98.31,1,.23,1.02.13,1.03.05,1.03-.05,1.02-.13,1.01-.23.98-.31.95-.39.92-.48.87-.55.81-.63.76-.69.7-.76.63-.82.55-.87.48-.91.39-.95.31-.99.22-1,.14-1.02.04-1.03-.04-1.03-.14-1.02-.22-1.01-.31-.98-.39-.95-.48-.92-.55-.87-.63-.81-.7-.76-.76-.7-.81-.63-.87-.55-.92-.47-.95-.4-.98-.31-1.01-.22-1.02-.14-1.03-.04Z"/>
          <path class="cls-6" d="M25.86,80.28l1.03-.04,1.03.04,1.02.14,1.01.22.98.31.95.4.92.47.87.55.81.63.76.7.7.76.63.81.55.87.48.92.39.95.31.98.22,1.01.14,1.02.04,1.03-.04,1.03-.14,1.02-.22,1-.31.99-.39.95-.48.91-.55.87-.63.82-.7.76-.76.69-.81.63-.87.55-.92.48-.95.39-.98.31-1.01.23-1.02.13-1.03.05-1.03-.05-1.02-.13-1-.23-.98-.31-.96-.39-.91-.48-.87-.55-.82-.63-.76-.69-.69-.76-.63-.82-.55-.87-.48-.91-.39-.95-.31-.99-.23-1-.13-1.02-.04-1.03.04-1.03.13-1.02.23-1.01.31-.98.39-.95.48-.92.55-.87.63-.81.69-.76.76-.7.82-.63.87-.55.91-.47.96-.4.98-.31,1-.22,1.02-.14ZM27.29,85.33h-.79l-.78.09-.76.18-.73.27-.7.35-.66.43-.6.5-.53.57-.47.63-.39.68-.31.72-.23.75-.13.77-.05.78.05.78.13.77.23.75.31.72.39.68.47.62.53.57.6.51.66.43.7.35.73.27.76.18.78.09h.79l.77-.09.76-.18.74-.27.7-.35.65-.43.6-.51.54-.57.47-.62.39-.68.31-.72.22-.75.14-.77.05-.78-.05-.78-.14-.77-.22-.75-.31-.72-.39-.68-.47-.63-.54-.57-.6-.5-.65-.43-.7-.35-.74-.27-.76-.18-.77-.09Z"/>
          <path class="cls-6" d="M26.5,85.33h.79l.77.09.76.18.74.27.7.35.65.43.6.5.54.57.47.63.39.68.31.72.22.75.14.77.05.78-.05.78-.14.77-.22.75-.31.72-.39.68-.47.62-.54.57-.6.51-.65.43-.7.35-.74.27-.76.18-.77.09h-.79l-.78-.09-.76-.18-.73-.27-.7-.35-.66-.43-.6-.51-.53-.57-.47-.62-.39-.68-.31-.72-.23-.75-.13-.77-.05-.78.05-.78.13-.77.23-.75.31-.72.39-.68.47-.63.53-.57.6-.5.66-.43.7-.35.73-.27.76-.18.78-.09ZM26.89,90.25l-.4.04-.38.14-.34.21-.28.29-.22.34-.13.38-.05.4.05.4.13.38.22.34.28.28.34.22.38.13.4.05.4-.05.38-.13.35-.22.28-.28.22-.34.13-.38.04-.4-.04-.4-.13-.38-.22-.34-.28-.29-.35-.21-.38-.14-.4-.04Z"/>
          <polygon class="cls-6" points="9.46 88.98 11.23 89.31 11.23 89.32 11.23 89.42 11.23 89.6 11.23 89.86 11.23 90.2 11.23 90.61 11.23 91.06 11.23 91.54 11.23 92.05 11.23 92.55 11.23 93.04 11.23 93.49 11.23 93.89 11.23 94.23 11.23 94.5 11.23 94.68 11.23 94.77 9.46 95.1 9.36 94.57 9.23 93.31 9.18 92.05 9.23 90.78 9.36 89.53 9.46 88.98"/>
          <polygon class="cls-6" points="42.55 89.32 44.33 88.99 44.43 89.53 44.56 90.78 44.61 92.05 44.56 93.31 44.43 94.57 44.33 95.1 42.55 94.77 42.55 94.68 42.55 94.5 42.55 94.23 42.55 93.89 42.55 93.49 42.55 93.04 42.55 92.55 42.55 92.05 42.55 91.54 42.55 91.06 42.55 90.61 42.55 90.2 42.55 89.86 42.55 89.6 42.55 89.42 42.55 89.32"/>
          <polygon class="cls-6" points="40.23 89.31 42.55 89.31 42.55 89.32 42.55 89.42 42.55 89.6 42.55 89.86 42.55 90.2 42.55 90.61 42.55 91.06 42.55 91.54 42.55 92.05 42.55 92.55 42.55 93.04 42.55 93.49 42.55 93.89 42.55 94.23 42.55 94.5 42.55 94.68 42.55 94.77 42.55 94.78 40.23 94.78 40.22 94.78 40.32 94.26 40.46 93.16 40.5 92.05 40.46 90.94 40.32 89.84 40.21 89.31 40.23 89.31"/>
          <polygon class="cls-6" points="13.56 89.31 13.57 89.31 13.39 90.39 13.3 91.49 13.3 92.6 13.39 93.71 13.57 94.78 13.56 94.78 11.23 94.78 11.23 94.77 11.23 94.68 11.23 94.5 11.23 94.23 11.23 93.89 11.23 93.49 11.23 93.04 11.23 92.55 11.23 92.05 11.23 91.54 11.23 91.06 11.23 90.61 11.23 90.2 11.23 89.86 11.23 89.6 11.23 89.42 11.23 89.32 11.23 89.31 13.56 89.31"/>
          <polygon class="cls-6" points="26.49 90.29 26.89 90.25 27.29 90.29 27.67 90.43 28.02 90.64 28.3 90.93 28.52 91.27 28.65 91.65 28.69 92.05 28.65 92.45 28.52 92.83 28.3 93.17 28.02 93.45 27.67 93.67 27.29 93.8 26.89 93.85 26.49 93.8 26.11 93.67 25.77 93.45 25.49 93.17 25.27 92.83 25.14 92.45 25.09 92.05 25.14 91.65 25.27 91.27 25.49 90.93 25.77 90.64 26.11 90.43 26.49 90.29"/>
          <polygon class="cls-6" points="9.46 95.1 11.23 94.77 11.23 94.78 13.56 94.78 13.57 94.78 13.57 94.8 13.84 95.88 14.19 96.93 14.63 97.95 15.16 98.93 15.76 99.87 16.43 100.75 17.17 101.57 17.98 102.33 18.85 103.02 19.77 103.64 20.74 104.18 21.75 104.65 22.79 105.02 23.87 105.31 24.96 105.52 26.06 105.63 27.17 105.65 28.28 105.58 29.38 105.43 30.46 105.18 31.52 104.85 32.55 104.43 33.54 103.92 34.48 103.34 35.38 102.69 36.22 101.96 36.99 101.17 37.7 100.31 38.34 99.4 38.9 98.45 39.38 97.45 39.78 96.41 40.1 95.35 40.22 94.78 40.23 94.78 42.55 94.78 42.55 94.77 44.33 95.1 44.2 95.81 43.89 97.04 43.49 98.24 43 99.41 42.44 100.54 41.79 101.62 41.07 102.66 40.28 103.65 39.42 104.57 38.49 105.43 37.51 106.23 36.47 106.95 35.38 107.59 34.25 108.16 33.08 108.64 31.88 109.04 30.66 109.35 29.41 109.58 28.16 109.71 26.89 109.76 25.63 109.71 24.37 109.58 23.13 109.35 21.9 109.04 20.7 108.64 19.54 108.16 18.41 107.59 17.32 106.95 16.28 106.23 15.29 105.43 14.37 104.57 13.51 103.65 12.71 102.66 11.99 101.62 11.35 100.54 10.78 99.41 10.3 98.24 9.9 97.04 9.59 95.81 9.46 95.1"/>
          <polygon class="cls-5" points="16.28 114.12 16.76 114.05 17.31 114.15 17.77 114.47 18.03 114.86 18.17 115.31 18.21 115.79 18.16 116.34 17.95 116.87 17.64 117.22 17.22 117.45 16.75 117.52 16.22 117.42 15.76 117.12 15.4 116.54 15.3 115.85 15.35 115.27 15.53 114.73 15.85 114.36 16.28 114.12"/>
          <polygon class="cls-5" points="28.29 114.1 29.34 114.1 29.56 114.11 29.84 114.14 30.02 114.23 30.17 114.38 30.28 114.61 30.31 114.87 30.26 115.18 30.1 115.45 29.75 115.63 29.35 115.67 28.29 115.67 28.29 114.1"/>
          <path class="cls-6" d="M18.08,121.34l-.06.32-.03.63.02.53.08.53.09.25.17.2.22.15.26.05.26-.05.22-.15.16-.2.1-.25.08-.53.02-.53-.02-.53-.06-.42-.02-.11-.1-.25-.16-.21-.23-.14-.26-.05-.19.03-.17.07-.22.2-.15.38v.08ZM18.46,120.12l.37-.04.37.04.34.15.27.25.18.32.14.5.06.21.04.74-.05.74-.19.72-.18.31-.27.26-.34.14-.37.04-.31-.03-.29-.09-.38-.3-.24-.46-.12-.51-.06-.82.04-.74.06-.21.13-.5.19-.32.27-.25.34-.15Z"/>
          <polygon class="cls-5" points="18.63 120.61 18.82 120.58 19.08 120.63 19.31 120.77 19.47 120.98 19.57 121.23 19.59 121.34 19.58 121.34 18.08 121.34 18.09 121.26 18.24 120.88 18.46 120.68 18.63 120.61"/>
          <polygon class="cls-5" points="57.81 121.34 57.85 121.34 57.85 122.2 57.85 123.04 57.85 123.86 57.85 124.61 57.85 124.65 57.85 125.38 57.85 126.06 57.85 126.67 57.85 127.21 57.85 127.67 57.85 128.03 57.85 128.3 57.85 128.47 57.81 129.27 57.67 130.06 57.45 130.83 57.14 131.56 56.75 132.26 56.28 132.92 55.74 133.51 55.14 134.04 54.48 134.51 53.78 134.89 53.03 135.2 52.26 135.42 51.46 135.55 50.65 135.6 50.65 135.39 50.65 135.1 50.65 134.72 50.65 134.25 50.65 133.7 50.65 133.08 50.65 132.38 50.65 131.61 50.65 130.78 50.65 129.89 50.65 128.94 50.65 127.95 50.65 126.91 50.65 125.84 50.65 124.74 50.65 123.62 50.65 122.49 50.65 121.34 51.46 121.34 52.26 121.34 53.03 121.34 53.78 121.34 54.48 121.34 55.14 121.34 55.74 121.34 56.28 121.34 56.75 121.34 57.14 121.34 57.45 121.34 57.67 121.34 57.81 121.34"/>
          <path class="cls-5" d="M35.44,121.34h15.21v14.26H.25v-14.26h17.28l-.06.21-.04.74.06.82.12.51.24.46.38.3.29.09.31.03.37-.04.34-.14.27-.26.18-.31.19-.72.05-.74-.04-.74-.06-.21h2.94l-.21,1.04.56.05.28-.27.22-.09.25-.03.32.04.28.16.22.34.06.4-.04.33-.13.31-.3.29-.41.09-.27-.04-.24-.13-.2-.28-.09-.33-.56.05.1.44.23.37.46.33.56.09.55-.09.31-.18.25-.26.23-.42.11-.6-.06-.46-.21-.43-.44-.39-.58-.13-.36.06-.42.23.1-.49h4.32v3.11h.56v-1.63l.03-.38.1-.37.11-.15.15-.12.37-.1.24.05.11.07.08.1.08.24.02.25v2.04h.56v-1.82l.03-.3.09-.28.16-.19.22-.12.25-.04.26.06.11.08.09.1.07.26v.27s.01,1.98.01,1.98h.56v-2.18l-.03-.36-.13-.34-.28-.23h1.97l-1.24,3.11h.66l.49-1.35h1.86l.5,1.35h.66l-1.24-3.11ZM22.3,122.66h-1.62v.5h1.62v-.5Z"/>
          <polygon class="cls-5" points="34.32 121.34 34.88 121.34 34.92 121.45 35.34 122.6 33.85 122.6 34.3 121.39 34.32 121.34"/>
          <polygon class="cls-5" points="19.58 121.34 19.59 121.34 19.65 121.76 19.67 122.29 19.65 122.82 19.57 123.35 19.47 123.6 19.31 123.8 19.09 123.95 18.83 124 18.57 123.95 18.35 123.8 18.18 123.6 18.09 123.35 18.01 122.82 17.99 122.29 18.02 121.66 18.08 121.34 19.58 121.34"/>
          <polygon class="cls-5" points="57.85 128.47 57.85 129.13 57.85 129.37 57.85 130.18 57.85 130.91 57.85 131.54 57.85 132.08 57.85 132.53 57.85 132.89 57.85 133.16 57.85 133.35 57.85 133.44 57.85 133.45 57.81 134.25 57.67 135.05 57.45 135.83 57.14 136.57 56.75 137.28 56.28 137.94 55.74 138.54 55.14 139.08 54.48 139.54 53.78 139.93 53.03 140.24 52.26 140.47 51.46 140.6 50.65 140.65 50.65 140.64 50.65 140.54 50.65 140.36 50.65 140.09 50.65 139.72 50.65 139.26 50.65 138.71 50.65 138.07 50.65 137.34 50.65 136.51 50.65 135.6 51.46 135.55 52.26 135.42 53.03 135.2 53.78 134.89 54.48 134.51 55.14 134.04 55.74 133.51 56.28 132.92 56.75 132.26 57.14 131.56 57.45 130.83 57.67 130.06 57.81 129.27 57.85 128.47"/>
          <polygon class="cls-5" points=".25 135.6 50.65 135.6 50.65 136.51 50.65 137.34 50.65 138.07 50.65 138.71 50.65 139.26 50.65 139.72 50.65 140.09 50.65 140.36 50.65 140.54 50.65 140.64 50.65 140.65 44.53 140.65 39.52 140.65 38.62 140.65 37.38 140.64 36.06 140.64 34.69 140.64 33.3 140.64 31.87 140.63 31.53 140.63 30.11 140.63 28.66 140.63 27.25 140.63 25.84 140.63 24.27 140.63 22.72 140.63 21.25 140.64 19.83 140.64 18.38 140.64 17 140.65 15.74 140.65 15.7 140.65 10.67 140.65 .25 140.65 .25 140.64 .25 140.54 .25 140.36 .25 140.09 .25 139.72 .25 139.26 .25 138.71 .25 138.07 .25 137.34 .25 136.51 .25 135.6"/>
          <polygon class="cls-5" points="31.53 140.63 31.87 140.63 33.3 140.64 34.69 140.64 36.06 140.64 37.38 140.64 38.62 140.65 39.52 140.65 44.53 140.65 44.38 140.68 44.12 140.75 43.81 140.84 43.45 140.97 43.03 141.16 43.01 141.17 43 141.17 42.89 141.18 42.55 141.19 41.99 141.19 41.28 141.2 40.4 141.2 39.36 141.2 38.17 141.2 36.85 141.2 35.42 141.2 33.88 141.2 32.27 141.2 30.6 141.2 28.89 141.2 27.16 141.2 25.44 141.2 23.75 141.2 22.09 141.2 20.52 141.2 19.03 141.2 17.64 141.2 16.38 141.2 15.27 141.2 14.31 141.2 13.52 141.2 12.92 141.19 12.49 141.19 12.26 141.18 12.24 141.17 12.24 141.18 12.23 141.18 11.79 140.98 11.4 140.84 11.08 140.74 10.81 140.68 10.67 140.65 15.7 140.65 15.74 140.65 17 140.65 18.38 140.64 19.83 140.64 21.25 140.64 22.72 140.63 24.27 140.63 25.84 140.63 27.25 140.63 28.66 140.63 30.11 140.63 31.53 140.63"/>
        </g>
        <g>
          <polyline class="cls-2" points="12.24 141.17 12.26 141.18 12.49 141.19 12.92 141.19 13.52 141.2 14.31 141.2 15.27 141.2 16.38 141.2 17.64 141.2 19.03 141.2 20.52 141.2 22.09 141.2 23.75 141.2 25.44 141.2 27.16 141.2 28.89 141.2 30.6 141.2 32.27 141.2 33.88 141.2 35.42 141.2 36.85 141.2 38.17 141.2 39.36 141.2 40.4 141.2 41.28 141.2 41.99 141.19 42.55 141.19 42.89 141.18 43 141.17"/>
          <polyline class="cls-2" points="50.65 5.3 50.65 4.38 50.65 3.56 50.65 2.83 50.65 2.18 50.65 1.63 50.65 1.18 50.65 .81 50.65 .53 50.65 .35 50.65 .26 50.65 .25"/>
          <line class="cls-2" x1="31.53" y1="140.63" x2="31.87" y2="140.63"/>
          <polyline class="cls-2" points="50.65 140.65 50.65 140.64 50.65 140.54 50.65 140.36 50.65 140.09 50.65 139.72 50.65 139.26 50.65 138.71 50.65 138.07 50.65 137.34 50.65 136.51 50.65 135.6"/>
          <line class="cls-2" x1="17.53" y1="121.34" x2=".25" y2="121.34"/>
          <polyline class="cls-2" points="19.58 121.34 18.08 121.34 18.07 121.34"/>
          <line class="cls-2" x1="23.07" y1="121.34" x2="20.13" y2="121.34"/>
          <line class="cls-2" x1="27.96" y1="121.34" x2="23.64" y2="121.34"/>
          <line class="cls-2" x1="28.93" y1="121.34" x2="28.52" y2="121.34"/>
          <line class="cls-2" x1="30.73" y1="121.34" x2="29.94" y2="121.34"/>
          <line class="cls-2" x1="33.74" y1="121.34" x2="31.78" y2="121.34"/>
          <line class="cls-2" x1="34.88" y1="121.34" x2="34.32" y2="121.34"/>
          <line class="cls-2" x1="50.65" y1="121.34" x2="35.44" y2="121.34"/>
          <polyline class="cls-2" points="44.61 92.05 44.56 90.78 44.43 89.53 44.33 88.99 44.2 88.28 43.89 87.06 43.49 85.86 43 84.69 42.44 83.56 41.79 82.47 41.07 81.43 40.28 80.45 39.42 79.52 38.49 78.66 37.51 77.87 36.47 77.15 35.38 76.5 34.25 75.94 33.08 75.45 31.88 75.05 30.66 74.74 29.41 74.52 28.16 74.38 26.89 74.34 25.63 74.38 24.37 74.52 23.13 74.74 21.9 75.05 20.7 75.45 19.54 75.94 18.41 76.5 17.32 77.15 16.28 77.87 15.29 78.66 14.37 79.52 13.51 80.45 12.71 81.43 11.99 82.47 11.35 83.56 10.78 84.69 10.3 85.86 9.9 87.06 9.59 88.28 9.46 88.98 9.36 89.53 9.23 90.78 9.18 92.05 9.23 93.31 9.36 94.57 9.46 95.1 9.59 95.81 9.9 97.04 10.3 98.24 10.78 99.41 11.35 100.54 11.99 101.62 12.71 102.66 13.51 103.65 14.37 104.57 15.29 105.43 16.28 106.23 17.32 106.95 18.41 107.59 19.54 108.16 20.7 108.64 21.9 109.04 23.13 109.35 24.37 109.58 25.63 109.71 26.89 109.76 28.16 109.71 29.41 109.58 30.66 109.35 31.88 109.04 33.08 108.64 34.25 108.16 35.38 107.59 36.47 106.95 37.51 106.23 38.49 105.43 39.42 104.57 40.28 103.65 41.07 102.66 41.79 101.62 42.44 100.54 43 99.41 43.49 98.24 43.89 97.04 44.2 95.81 44.33 95.1 44.43 94.57 44.56 93.31 44.61 92.05"/>
          <polyline class="cls-2" points="42.55 94.78 42.55 94.77 42.55 94.68 42.55 94.5 42.55 94.23 42.55 93.89 42.55 93.49 42.55 93.04 42.55 92.55 42.55 92.05 42.55 91.54 42.55 91.06 42.55 90.61 42.55 90.2 42.55 89.86 42.55 89.6 42.55 89.42 42.55 89.32 42.55 89.31"/>
          <polygon class="cls-2" points="33.63 92.05 33.58 91.27 33.44 90.5 33.22 89.75 32.91 89.03 32.52 88.35 32.05 87.72 31.51 87.15 30.91 86.65 30.26 86.22 29.56 85.87 28.82 85.6 28.06 85.42 27.29 85.33 26.5 85.33 25.72 85.42 24.96 85.6 24.23 85.87 23.53 86.22 22.87 86.65 22.27 87.15 21.74 87.72 21.27 88.35 20.88 89.03 20.57 89.75 20.34 90.5 20.21 91.27 20.16 92.05 20.21 92.83 20.34 93.6 20.57 94.35 20.88 95.07 21.27 95.75 21.74 96.37 22.27 96.94 22.87 97.45 23.53 97.88 24.23 98.23 24.96 98.5 25.72 98.68 26.5 98.77 27.29 98.77 28.06 98.68 28.82 98.5 29.56 98.23 30.26 97.88 30.91 97.45 31.51 96.94 32.05 96.37 32.52 95.75 32.91 95.07 33.22 94.35 33.44 93.6 33.58 92.83 33.63 92.05"/>
          <polygon class="cls-2" points="28.69 92.05 28.65 91.65 28.52 91.27 28.3 90.93 28.02 90.64 27.67 90.43 27.29 90.29 26.89 90.25 26.49 90.29 26.11 90.43 25.77 90.64 25.49 90.93 25.27 91.27 25.14 91.65 25.09 92.05 25.14 92.45 25.27 92.83 25.49 93.17 25.77 93.45 26.11 93.67 26.49 93.8 26.89 93.85 27.29 93.8 27.67 93.67 28.02 93.45 28.3 93.17 28.52 92.83 28.65 92.45 28.69 92.05"/>
          <polyline class="cls-2" points="11.23 89.31 11.23 89.32 11.23 89.42 11.23 89.6 11.23 89.86 11.23 90.2 11.23 90.61 11.23 91.06 11.23 91.54 11.23 92.05 11.23 92.55 11.23 93.04 11.23 93.49 11.23 93.89 11.23 94.23 11.23 94.5 11.23 94.68 11.23 94.77 11.23 94.78"/>
          <polyline class="cls-2" points="40.5 92.05 40.46 90.94 40.32 89.84 40.21 89.31 40.1 88.75 39.78 87.68 39.38 86.65 38.9 85.65 38.34 84.69 37.7 83.78 36.99 82.93 36.22 82.14 35.38 81.41 34.48 80.75 33.54 80.17 32.55 79.67 31.52 79.25 30.46 78.92 29.38 78.67 28.28 78.51 27.17 78.44 26.06 78.46 24.96 78.58 23.87 78.78 22.79 79.07 21.75 79.45 20.74 79.91 19.77 80.45 18.85 81.07 17.98 81.76 17.17 82.52 16.43 83.35 15.76 84.23 15.16 85.16 14.63 86.14 14.19 87.16 13.84 88.21 13.57 89.29 13.57 89.31 13.39 90.39 13.3 91.49 13.3 92.6 13.39 93.71 13.57 94.78 13.57 94.8 13.84 95.88 14.19 96.93 14.63 97.95 15.16 98.93 15.76 99.87 16.43 100.75 17.17 101.57 17.98 102.33 18.85 103.02 19.77 103.64 20.74 104.18 21.75 104.65 22.79 105.02 23.87 105.31 24.96 105.52 26.06 105.63 27.17 105.65 28.28 105.58 29.38 105.43 30.46 105.18 31.52 104.85 32.55 104.43 33.54 103.92 34.48 103.34 35.38 102.69 36.22 101.96 36.99 101.17 37.7 100.31 38.34 99.4 38.9 98.45 39.38 97.45 39.78 96.41 40.1 95.35 40.22 94.78 40.32 94.26 40.46 93.16 40.5 92.05"/>
          <polygon class="cls-2" points="39.78 92.05 39.74 93.13 39.6 94.2 39.38 95.25 39.06 96.29 38.67 97.29 38.19 98.26 37.63 99.18 36.99 100.05 36.29 100.87 35.52 101.63 34.69 102.31 33.8 102.93 32.86 103.47 31.89 103.93 30.88 104.3 29.84 104.6 28.78 104.8 27.7 104.91 26.62 104.93 25.55 104.86 24.48 104.71 23.43 104.46 22.4 104.13 21.41 103.71 20.45 103.21 19.54 102.63 18.68 101.98 17.88 101.26 17.14 100.47 16.47 99.62 15.87 98.72 15.35 97.78 14.91 96.79 14.56 95.77 14.29 94.73 14.11 93.66 14.02 92.59 14.02 91.51 14.11 90.43 14.29 89.37 14.56 88.32 14.91 87.3 15.35 86.32 15.87 85.37 16.47 84.47 17.14 83.63 17.88 82.84 18.68 82.12 19.54 81.46 20.45 80.89 21.41 80.39 22.4 79.97 23.43 79.63 24.48 79.39 25.55 79.23 26.62 79.16 27.7 79.18 28.78 79.3 29.84 79.5 30.88 79.79 31.89 80.17 32.86 80.63 33.8 81.17 34.69 81.78 35.52 82.47 36.29 83.23 36.99 84.04 37.63 84.92 38.19 85.84 38.67 86.81 39.06 87.81 39.38 88.84 39.6 89.9 39.74 90.97 39.78 92.05"/>
          <polygon class="cls-2" points="38.7 92.05 38.66 91.02 38.52 90 38.3 88.99 37.99 88.01 37.6 87.06 37.12 86.14 36.57 85.27 35.94 84.46 35.24 83.7 34.48 83 33.67 82.37 32.8 81.82 31.88 81.35 30.93 80.95 29.95 80.64 28.94 80.42 27.92 80.28 26.89 80.24 25.86 80.28 24.84 80.42 23.84 80.64 22.86 80.95 21.9 81.35 20.99 81.82 20.12 82.37 19.3 83 18.54 83.7 17.85 84.46 17.22 85.27 16.67 86.14 16.19 87.06 15.8 88.01 15.49 88.99 15.26 90 15.13 91.02 15.09 92.05 15.13 93.08 15.26 94.1 15.49 95.1 15.8 96.09 16.19 97.04 16.67 97.95 17.22 98.82 17.85 99.64 18.54 100.4 19.3 101.09 20.12 101.72 20.99 102.27 21.9 102.75 22.86 103.14 23.84 103.45 24.84 103.68 25.86 103.81 26.89 103.86 27.92 103.81 28.94 103.68 29.95 103.45 30.93 103.14 31.88 102.75 32.8 102.27 33.67 101.72 34.48 101.09 35.24 100.4 35.94 99.64 36.57 98.82 37.12 97.95 37.6 97.04 37.99 96.09 38.3 95.1 38.52 94.1 38.66 93.08 38.7 92.05"/>
          <line class="cls-2" x1="22.3" y1="123.16" x2="20.68" y2="123.16"/>
          <line class="cls-2" x1="20.68" y1="123.16" x2="20.68" y2="122.66"/>
          <line class="cls-2" x1="22.3" y1="122.66" x2="22.3" y2="123.16"/>
          <line class="cls-2" x1="20.68" y1="122.66" x2="22.3" y2="122.66"/>
          <polyline class="cls-2" points="42.38 141.31 42.3 141.31 42.02 141.31 41.56 141.31 40.93 141.31 40.92 141.31 40.12 141.31 39.15 141.31 38.04 141.31 36.79 141.31 35.42 141.31 33.96 141.31 32.42 141.31 30.8 141.31 29.16 141.31 27.5 141.31 25.83 141.31 24.2 141.31 22.61 141.31 21.08 141.31 19.64 141.31 18.3 141.31 17.07 141.31 15.98 141.31 15.04 141.31 14.25 141.31 13.63 141.31 13.18 141.31 12.92 141.31 12.84 141.31"/>
          <line class="cls-4" x1="43" y1="141.17" x2="43.01" y2="141.17"/>
          <polyline class="cls-2" points="63.97 33.19 63.97 33.23 63.97 33.37 63.97 33.59 63.97 33.9 63.97 34.3 63.97 34.79 63.97 35.37 63.97 36.02 63.97 36.76 63.97 37.59 63.97 38.49 63.97 39.47 63.97 40.52 63.97 41.65 63.97 42.84 63.97 44.1 63.97 45.43 63.97 46.81 63.97 48.25 63.97 49.75 63.97 51.29 63.97 52.88 63.97 54.52 63.97 56.19 63.97 57.89 63.97 59.63 63.97 61.39 63.97 63.18 63.97 64.98 63.97 66.8 63.97 68.62 63.97 70.45 63.97 72.28 63.97 74.1 63.97 75.91 63.97 77.72 63.97 79.5 63.97 81.26 63.97 83 63.97 84.71 63.97 86.38 63.97 88.01 63.97 89.6 63.97 91.15 63.97 92.64 63.97 94.08 63.97 95.47 63.97 96.79 63.97 98.06 63.97 99.25 63.97 100.38 63.97 101.43 63.97 102.41 63.97 103.31 63.97 104.13 63.97 104.87 63.97 105.53 63.97 106.1 63.97 106.59 63.97 106.99 63.97 107.3 63.97 107.53 63.97 107.66 63.97 107.71"/>
          <line class="cls-2" x1="21.12" y1="4.06" x2="21.12" y2="4.13"/>
          <line class="cls-2" x1="16.57" y1="3.99" x2="16.57" y2="4.07"/>
          <line class="cls-2" x1="28.99" y1="4.07" x2="28.99" y2="4.14"/>
          <line class="cls-2" x1="17.28" y1="4.14" x2="17.28" y2="4.22"/>
          <line class="cls-2" x1="26.19" y1="4.07" x2="26.19" y2="4.14"/>
          <line class="cls-2" x1="32.89" y1="4.05" x2="32.89" y2="4.12"/>
          <line class="cls-2" x1="21.4" y1="4.31" x2="21.4" y2="4.39"/>
          <line class="cls-2" x1="37.1" y1="4.28" x2="37.1" y2="4.36"/>
          <line class="cls-2" x1="18.5" y1="4.31" x2="18.5" y2="4.38"/>
          <line class="cls-2" x1="37.1" y1="4.36" x2="38.15" y2="4.36"/>
          <polyline class="cls-2" points="36.13 4.46 36.18 4.42 36.28 4.39 36.45 4.37 36.69 4.36 37.1 4.36"/>
          <line class="cls-2" x1="18.5" y1="4.38" x2="19.67" y2="4.38"/>
          <polyline class="cls-2" points="17.54 4.47 17.59 4.44 17.6 4.44 17.69 4.41 17.86 4.39 18.09 4.38 18.5 4.38"/>
          <polyline class="cls-2" points="32.89 4.12 33.38 4.13 33.81 4.16 34.1 4.21 34.28 4.26 34.31 4.3 34.34 4.33"/>
          <polyline class="cls-2" points="31.43 4.34 31.45 4.3 31.46 4.29 31.58 4.23 31.83 4.18 32.2 4.14 32.64 4.12 32.89 4.12"/>
          <line class="cls-2" x1="38.77" y1="4.55" x2="38.77" y2="4.63"/>
          <line class="cls-2" x1="30.48" y1="4.55" x2="30.48" y2="4.63"/>
          <line class="cls-2" x1="29.19" y1="4.18" x2="29.19" y2="4.25"/>
          <line class="cls-2" x1="29.84" y1="4.55" x2="29.84" y2="4.63"/>
          <line class="cls-2" x1="26.54" y1="4.27" x2="26.54" y2="4.34"/>
          <line class="cls-2" x1="25.99" y1="4.18" x2="25.99" y2="4.26"/>
          <line class="cls-2" x1="28.77" y1="4.17" x2="28.77" y2="4.24"/>
          <line class="cls-2" x1="27.16" y1="4.55" x2="27.16" y2="4.63"/>
          <line class="cls-2" x1="27.91" y1="4.55" x2="27.91" y2="4.63"/>
          <line class="cls-2" x1="24.71" y1="4.55" x2="25.81" y2="3.99"/>
          <line class="cls-2" x1="28.65" y1="3.99" x2="29.38" y2="3.99"/>
          <line class="cls-2" x1="27.7" y1="4.41" x2="28.65" y2="3.99"/>
          <polyline class="cls-2" points="27.54 4.48 27.62 4.45 27.66 4.43 27.7 4.41"/>
          <polyline class="cls-2" points="27.4 4.42 27.43 4.44 27.47 4.45 27.54 4.48"/>
          <line class="cls-2" x1="26.49" y1="3.99" x2="27.4" y2="4.42"/>
          <line class="cls-2" x1="25.81" y1="3.99" x2="26.49" y2="3.99"/>
          <line class="cls-2" x1="25.99" y1="4.18" x2="25.35" y2="4.55"/>
          <polyline class="cls-2" points="26.19 4.07 26.14 4.1 26.09 4.13 25.99 4.18"/>
          <polyline class="cls-2" points="26.54 4.27 26.35 4.17 26.27 4.12 26.19 4.07"/>
          <line class="cls-2" x1="27.16" y1="4.55" x2="26.54" y2="4.27"/>
          <line class="cls-2" x1="27.91" y1="4.55" x2="27.16" y2="4.55"/>
          <line class="cls-2" x1="28.77" y1="4.17" x2="27.91" y2="4.55"/>
          <polyline class="cls-2" points="28.99 4.07 28.94 4.09 28.88 4.12 28.77 4.17"/>
          <polyline class="cls-2" points="29.19 4.18 29.09 4.13 29.04 4.1 28.99 4.07"/>
          <line class="cls-2" x1="29.84" y1="4.55" x2="29.19" y2="4.18"/>
          <line class="cls-2" x1="30.48" y1="4.55" x2="29.84" y2="4.55"/>
          <line class="cls-2" x1="29.38" y1="3.99" x2="30.48" y2="4.55"/>
          <line class="cls-2" x1="24.71" y1="4.55" x2="24.71" y2="4.63"/>
          <line class="cls-2" x1="25.35" y1="4.55" x2="25.35" y2="4.63"/>
          <line class="cls-2" x1="25.35" y1="4.55" x2="24.71" y2="4.55"/>
          <line class="cls-2" x1="21.24" y1="4.55" x2="21.24" y2="4.63"/>
          <line class="cls-2" x1="24.32" y1="4.55" x2="24.32" y2="4.63"/>
          <line class="cls-2" x1="21.12" y1="3.99" x2="24.32" y2="3.99"/>
          <polyline class="cls-2" points="21.12 4.06 21.12 4.05 21.12 4.04 21.12 4.03 21.12 4.02 21.12 4.01 21.12 4 21.12 3.99"/>
          <line class="cls-2" x1="23.7" y1="4.06" x2="21.12" y2="4.06"/>
          <polyline class="cls-2" points="23.7 4.25 23.7 4.22 23.7 4.2 23.7 4.18 23.7 4.15 23.7 4.13 23.7 4.1 23.7 4.08 23.7 4.06"/>
          <line class="cls-2" x1="21.4" y1="4.25" x2="23.7" y2="4.25"/>
          <polyline class="cls-2" points="21.4 4.31 21.4 4.3 21.4 4.29 21.4 4.28 21.4 4.27 21.4 4.26 21.4 4.25"/>
          <line class="cls-2" x1="23.7" y1="4.31" x2="21.4" y2="4.31"/>
          <polyline class="cls-2" points="23.7 4.49 23.7 4.47 23.7 4.44 23.7 4.42 23.7 4.4 23.7 4.39 23.7 4.38 23.7 4.36 23.7 4.33 23.7 4.31"/>
          <line class="cls-2" x1="21.24" y1="4.49" x2="23.7" y2="4.49"/>
          <polyline class="cls-2" points="21.24 4.55 21.24 4.54 21.24 4.53 21.24 4.52 21.24 4.51 21.24 4.5 21.24 4.49"/>
          <line class="cls-2" x1="24.32" y1="4.55" x2="21.24" y2="4.55"/>
          <polyline class="cls-2" points="24.32 3.99 24.32 4.06 24.32 4.13 24.32 4.2 24.32 4.27 24.32 4.34 24.32 4.41 24.32 4.48 24.32 4.55"/>
          <line class="cls-2" x1="20.28" y1="4.55" x2="20.28" y2="4.63"/>
          <line class="cls-2" x1="37.16" y1="4.55" x2="37.16" y2="4.63"/>
          <line class="cls-2" x1="38.15" y1="3.99" x2="38.77" y2="3.99"/>
          <polyline class="cls-2" points="38.15 4.22 38.15 4.19 38.15 4.16 38.15 4.13 38.15 4.11 38.15 4.08 38.15 4.05 38.15 4.02 38.15 3.99"/>
          <line class="cls-2" x1="37.08" y1="4.22" x2="38.15" y2="4.22"/>
          <polyline class="cls-2" points="35.52 4.39 35.6 4.32 35.81 4.28 36.05 4.25 36.43 4.23 37.08 4.22"/>
          <polyline class="cls-2" points="37.16 4.55 37 4.55 36.84 4.55 36.51 4.55"/>
          <line class="cls-2" x1="38.77" y1="4.55" x2="37.16" y2="4.55"/>
          <polyline class="cls-2" points="38.77 3.99 38.77 4.06 38.77 4.13 38.77 4.2 38.77 4.27 38.77 4.34 38.77 4.41 38.77 4.48 38.77 4.55"/>
          <polyline class="cls-2" points="38.15 4.49 38.15 4.46 38.15 4.44 38.15 4.41 38.15 4.39 38.15 4.36 38.15 4.33 38.15 4.31 38.15 4.28"/>
          <line class="cls-2" x1="37.11" y1="4.49" x2="38.15" y2="4.49"/>
          <polyline class="cls-2" points="36.6 4.48 36.73 4.49 36.85 4.49 37.11 4.49"/>
          <polyline class="cls-2" points="36.13 4.39 36.18 4.42 36.19 4.43 36.3 4.46 36.45 4.47 36.6 4.48"/>
          <polyline class="cls-2" points="37.1 4.28 36.63 4.29 36.42 4.3 36.26 4.32 36.17 4.35 36.13 4.39"/>
          <line class="cls-2" x1="38.15" y1="4.28" x2="37.1" y2="4.28"/>
          <line class="cls-2" x1="35.52" y1="4.41" x2="35.52" y2="4.46"/>
          <line class="cls-2" x1="36.51" y1="4.55" x2="36.51" y2="4.62"/>
          <polyline class="cls-2" points="36.51 4.55 36.06 4.53 35.8 4.5 35.62 4.46 35.52 4.41 35.52 4.39"/>
          <line class="cls-2" x1="19.67" y1="3.99" x2="20.28" y2="3.99"/>
          <polyline class="cls-2" points="19.67 4.24 19.67 4.21 19.67 4.18 19.67 4.15 19.67 4.12 19.67 4.09 19.67 4.06 19.67 4.02 19.67 3.99"/>
          <line class="cls-2" x1="19.04" y1="4.24" x2="19.67" y2="4.24"/>
          <polyline class="cls-2" points="18.73 4.24 18.81 4.24 18.89 4.24 19.04 4.24"/>
          <polyline class="cls-2" points="17.82 4.11 18 4.15 18.2 4.18 18.45 4.22 18.73 4.24"/>
          <line class="cls-2" x1="17.27" y1="3.99" x2="17.82" y2="4.11"/>
          <line class="cls-2" x1="16.57" y1="3.99" x2="17.27" y2="3.99"/>
          <line class="cls-2" x1="17.28" y1="4.14" x2="16.57" y2="3.99"/>
          <polyline class="cls-2" points="17.74 4.22 17.61 4.2 17.49 4.18 17.38 4.17 17.28 4.14"/>
          <polyline class="cls-2" points="18.08 4.25 17.99 4.24 17.91 4.24 17.74 4.22"/>
          <polyline class="cls-2" points="16.92 4.4 16.99 4.35 17.17 4.3 17.44 4.27 17.54 4.27 17.9 4.25 18.08 4.25"/>
          <line class="cls-2" x1="20.28" y1="4.55" x2="18.39" y2="4.55"/>
          <polyline class="cls-2" points="20.28 3.99 20.28 4.06 20.28 4.13 20.28 4.2 20.28 4.27 20.28 4.34 20.28 4.41 20.28 4.48 20.28 4.55"/>
          <polyline class="cls-2" points="19.67 4.49 19.67 4.46 19.67 4.44 19.67 4.42 19.67 4.4 19.67 4.38 19.67 4.37 19.67 4.35 19.67 4.33 19.67 4.31"/>
          <line class="cls-2" x1="18.37" y1="4.49" x2="19.67" y2="4.49"/>
          <polyline class="cls-2" points="17.54 4.4 17.58 4.43 17.6 4.44 17.69 4.46 17.86 4.47 18.1 4.48 18.37 4.49"/>
          <polyline class="cls-2" points="18.5 4.31 18.15 4.31 17.89 4.32 17.73 4.33 17.62 4.35 17.55 4.38 17.54 4.4"/>
          <line class="cls-2" x1="19.67" y1="4.31" x2="18.5" y2="4.31"/>
          <line class="cls-2" x1="16.92" y1="4.4" x2="16.92" y2="4.47"/>
          <line class="cls-2" x1="18.39" y1="4.55" x2="18.39" y2="4.63"/>
          <polyline class="cls-2" points="18.39 4.55 17.86 4.55 17.5 4.54 17.25 4.51 17.08 4.48 16.94 4.43 16.92 4.4"/>
          <polyline class="cls-2" points="57.93 16.28 57.93 15.42 57.93 14.66 57.93 13.98 57.93 13.39 57.93 12.9 57.93 12.49 57.93 12.17 57.93 11.95 57.93 11.81 57.93 11.77"/>
          <polyline class="cls-2" points="57.93 129.13 57.93 129.08 57.93 128.95 57.93 128.72 57.93 128.4 57.93 128 57.93 127.5 57.93 126.91 57.93 126.24 57.93 125.47 57.93 124.61"/>
          <line class="cls-2" x1="30.81" y1="4.27" x2="30.81" y2="4.34"/>
          <line class="cls-2" x1="32.88" y1="4.56" x2="32.88" y2="4.63"/>
          <line class="cls-2" x1="34.96" y1="4.26" x2="34.96" y2="4.33"/>
          <polyline class="cls-2" points="32.89 3.99 33.6 4 34.22 4.05 34.65 4.11 34.92 4.21 34.96 4.26"/>
          <polyline class="cls-2" points="30.81 4.27 30.85 4.21 30.96 4.15 31.28 4.08 31.8 4.02 32.36 3.99 32.89 3.99"/>
          <polyline class="cls-2" points="32.88 4.56 32.16 4.55 31.52 4.5 31.11 4.43 30.85 4.33 30.81 4.27"/>
          <polyline class="cls-2" points="34.96 4.26 34.92 4.33 34.78 4.4 34.44 4.47 33.91 4.53 33.3 4.56 32.88 4.56"/>
          <polyline class="cls-2" points="32.88 4.5 33.38 4.48 33.83 4.45 34.1 4.41 34.28 4.34 34.31 4.3 34.34 4.26"/>
          <polyline class="cls-2" points="31.43 4.27 31.45 4.3 31.47 4.33 31.58 4.38 31.83 4.43 32.2 4.47 32.62 4.49 32.88 4.5"/>
          <polyline class="cls-2" points="32.89 4.05 32.39 4.06 31.96 4.09 31.68 4.13 31.5 4.19 31.43 4.27"/>
          <polyline class="cls-2" points="34.34 4.26 34.31 4.21 34.22 4.17 33.97 4.11 33.59 4.07 33.14 4.05 32.89 4.05"/>
          <polyline class="cls-2" points="57.85 7.45 57.85 7.46 57.85 7.55 57.85 7.73 57.85 8 57.85 8.36 57.85 8.81 57.85 9.36 57.85 9.99 57.85 10.71 57.85 11.52 57.85 11.77 57.85 12.42"/>
          <polyline class="cls-2" points="57.85 128.47 57.85 129.13 57.85 129.37 57.85 130.18 57.85 130.91 57.85 131.54 57.85 132.08 57.85 132.53 57.85 132.89 57.85 133.16 57.85 133.35 57.85 133.44 57.85 133.45"/>
          <polyline class="cls-2" points=".25 5.3 .25 4.38 .25 3.56 .25 2.83 .25 2.18 .25 1.63 .25 1.18 .25 .81 .25 .53 .25 .35 .25 .26 .25 .25"/>
          <line class="cls-2" x1="37.16" y1="4.63" x2="38.77" y2="4.63"/>
          <polyline class="cls-2" points="36.51 4.62 36.67 4.62 36.84 4.63 37.16 4.63"/>
          <polyline class="cls-2" points="35.52 4.46 35.6 4.53 35.79 4.57 36.03 4.6 36.41 4.62 36.51 4.62"/>
          <polyline class="cls-2" points="32.88 4.63 33.63 4.62 34.18 4.58 34.61 4.52 34.87 4.44 34.96 4.33"/>
          <polyline class="cls-2" points="30.81 4.34 30.86 4.41 30.99 4.47 31.32 4.54 31.83 4.6 32.43 4.63 32.88 4.63"/>
          <line class="cls-2" x1="29.84" y1="4.63" x2="30.48" y2="4.63"/>
          <line class="cls-2" x1="29.19" y1="4.25" x2="29.84" y2="4.63"/>
          <polyline class="cls-2" points="28.99 4.14 29.04 4.17 29.12 4.21 29.19 4.25"/>
          <polyline class="cls-2" points="28.77 4.24 28.88 4.19 28.94 4.17 28.99 4.14"/>
          <line class="cls-2" x1="27.91" y1="4.63" x2="28.77" y2="4.24"/>
          <line class="cls-2" x1="27.16" y1="4.63" x2="27.91" y2="4.63"/>
          <line class="cls-2" x1="26.54" y1="4.34" x2="27.16" y2="4.63"/>
          <polyline class="cls-2" points="26.19 4.14 26.35 4.24 26.44 4.29 26.54 4.34"/>
          <polyline class="cls-2" points="25.99 4.26 26.09 4.2 26.14 4.17 26.19 4.14"/>
          <line class="cls-2" x1="25.35" y1="4.63" x2="25.99" y2="4.26"/>
          <line class="cls-2" x1="24.71" y1="4.63" x2="25.35" y2="4.63"/>
          <line class="cls-2" x1="21.24" y1="4.63" x2="24.32" y2="4.63"/>
          <line class="cls-2" x1="21.4" y1="4.39" x2="23.7" y2="4.39"/>
          <line class="cls-2" x1="21.12" y1="4.13" x2="23.7" y2="4.13"/>
          <line class="cls-2" x1="18.39" y1="4.63" x2="20.28" y2="4.63"/>
          <polyline class="cls-2" points="16.92 4.47 17.01 4.53 17.2 4.58 17.42 4.6 17.71 4.62 18.39 4.63"/>
          <polyline class="cls-2" points="17.28 4.22 17.49 4.26 17.54 4.27 17.57 4.27"/>
          <line class="cls-2" x1="16.57" y1="4.07" x2="17.28" y2="4.22"/>
          <polyline class="cls-2" points="36.79 3.48 35.53 3.58 34.18 3.67 32.76 3.74 31.85 3.78 31.28 3.8 29.74 3.83 28.2 3.84 26.75 3.82 25.31 3.79 23.92 3.74 23.57 3.72 21.93 3.64 20.11 3.5 18.6 3.36 17.24 3.2 16.04 3.03 14.7 2.8 13.62 2.56 12.8 2.32 12.24 2.11 11.89 1.9 11.75 1.7 11.82 1.52 12.09 1.35 12.58 1.19 13.29 1.04 14.22 .92 15.23 .82 16.44 .73 17.83 .66 19.09 .61 20.48 .57 21.98 .54 23.59 .51 25.3 .5 27.05 .49 28.56 .49 30.08 .49 31.56 .5 32.92 .51 34.24 .53 35.49 .56 36.76 .59 37.95 .63 39.04 .67 40.48 .75 41.72 .84 42.74 .95 43.54 1.07 44.16 1.2 44.59 1.35 44.84 1.51 44.9 1.74 44.64 2 44.05 2.26 43.28 2.5 42.26 2.74 40.98 2.97 39.76 3.15 38.36 3.33 36.79 3.48"/>
          <polyline class="cls-2" points=".25 140.65 .25 140.64 .25 140.54 .25 140.36 .25 140.09 .25 139.72 .25 139.26 .25 138.71 .25 138.07 .25 137.34 .25 136.51 .25 135.6"/>
          <polyline class="cls-2" points="15.7 140.65 15.74 140.65 17 140.65 18.38 140.64 19.83 140.64 21.25 140.64 22.72 140.63 24.27 140.63 25.84 140.63 27.25 140.63 28.66 140.63 30.11 140.63 31.53 140.63"/>
          <polyline class="cls-2" points="31.87 140.63 33.3 140.64 34.69 140.64 36.06 140.64 37.38 140.64 38.62 140.65 39.52 140.65"/>
          <polyline class="cls-2" points="57.93 124.61 57.93 124.47 57.93 124.23 57.93 123.91 57.93 123.52 57.93 123.04 57.93 122.5 57.93 121.9 57.93 121.25 57.93 120.56 57.93 119.84 57.93 119.09 57.93 118.34"/>
          <line class="cls-2" x1="57.93" y1="124.61" x2="57.85" y2="124.61"/>
          <polyline class="cls-2" points="57.93 22.56 57.93 21.8 57.93 21.06 57.93 20.33 57.93 19.64 57.93 18.99 57.93 18.39 57.93 17.85 57.93 17.38 57.93 16.98 57.93 16.66 57.93 16.43 57.93 16.28"/>
          <line class="cls-2" x1="57.93" y1="16.28" x2="57.85" y2="16.28"/>
          <polyline class="cls-2" points="57.93 118.34 57.93 107.71 57.93 33.19 57.93 22.56"/>
          <line class="cls-2" x1="57.93" y1="118.34" x2="57.85" y2="118.34"/>
          <line class="cls-2" x1="57.93" y1="22.56" x2="57.85" y2="22.56"/>
          <polyline class="cls-2" points="45.77 50.18 45.79 50.03 45.83 49.61 45.92 48.84 45.93 48.72 45.94 48.23 45.97 47.53 45.97 47.41"/>
          <polyline class="cls-2" points="45.19 52.81 45.25 52.61 45.4 52.02 45.53 51.49 45.57 51.33 45.68 50.67"/>
          <polyline class="cls-2" points="44.77 54.06 44.85 53.86 45.1 53.07"/>
          <polyline class="cls-2" points="43.71 56.42 43.79 56.27 43.99 55.85 44.31 55.19 44.36 55.09 44.62 54.43"/>
          <polyline class="cls-2" points="43.01 57.62 43.14 57.42 43.51 56.76"/>
          <polyline class="cls-2" points="41.73 59.4 42.33 58.63 42.41 58.52 42.87 57.82"/>
          <polyline class="cls-2" points="40.58 60.7 40.73 60.55 41.09 60.15 41.57 59.59"/>
          <polyline class="cls-2" points="39.04 62.1 39.68 61.56 39.79 61.47 40.35 60.93"/>
          <line class="cls-2" x1="38.05" y1="62.87" x2="38.74" y2="62.36"/>
          <line class="cls-2" x1="36.88" y1="63.66" x2="37.63" y2="63.18"/>
          <polyline class="cls-2" points="35.31 64.53 35.47 64.45 35.86 64.24 36.57 63.85"/>
          <line class="cls-2" x1="33.27" y1="65.38" x2="34.23" y2="65.01"/>
          <polyline class="cls-2" points="30.84 66.06 31.67 65.88 31.78 65.85 32.14 65.74 32.97 65.49"/>
          <polyline class="cls-2" points="26.83 66.48 27.72 66.46 27.88 66.46 28.44 66.41 29.04 66.36 29.19 66.35 29.75 66.26 30.39 66.16"/>
          <polyline class="cls-2" points="25.04 66.39 25.25 66.42 25.75 66.44 26.52 66.48"/>
          <polyline class="cls-2" points="23.71 66.22 23.94 66.26 24.79 66.36"/>
          <line class="cls-2" x1="21.72" y1="65.76" x2="22.56" y2="65.99"/>
          <polyline class="cls-2" points="18.69 64.63 18.91 64.74 19.5 64.99 20.01 65.2 20.13 65.25 20.61 65.41 21.26 65.63"/>
          <polyline class="cls-2" points="17.54 64.03 17.74 64.15 18.61 64.59"/>
          <polyline class="cls-2" points="15.37 62.61 15.52 62.73 15.86 62.96 16.58 63.46"/>
          <polyline class="cls-2" points="13.33 60.82 13.52 61.02 13.97 61.43 14.4 61.83 14.49 61.91 15.01 62.32"/>
          <polyline class="cls-2" points="12.49 59.92 12.61 60.06 13.31 60.8"/>
          <line class="cls-2" x1="11.13" y1="58.15" x2="11.7" y2="58.95"/>
          <line class="cls-2" x1="10.42" y1="57.01" x2="10.99" y2="57.93"/>
          <polyline class="cls-2" points="9.59 55.45 9.7 55.69 9.98 56.22 10.29 56.8"/>
          <polyline class="cls-2" points="8.69 53.1 8.73 53.24 8.87 53.63 9.13 54.38 9.17 54.48 9.56 55.38"/>
          <line class="cls-2" x1="8.11" y1="50.7" x2="8.36" y2="51.95"/>
          <line class="cls-2" x1="7.95" y1="49.56" x2="8.1" y2="50.67"/>
          <polyline class="cls-2" points="7.84 46.49 7.82 46.75 7.82 47.79 7.82 48.07 7.87 48.71 7.92 49.31"/>
          <polyline class="cls-2" points="8.43 42.65 8.37 42.84 8.24 43.48 8.13 43.98 8.1 44.13 8.02 44.68 7.94 45.29 7.92 45.43 7.85 46.42"/>
          <polyline class="cls-2" points="9.28 40.09 9.17 40.33 8.95 40.96 8.77 41.46 8.73 41.57 8.55 42.22"/>
          <polyline class="cls-2" points="10.2 38.18 9.75 39.04 9.7 39.13 9.3 40.03"/>
          <polyline class="cls-2" points="11.1 36.71 11.01 36.84 10.77 37.23 10.36 37.9"/>
          <polyline class="cls-2" points="11.9 35.61 11.77 35.77 11.34 36.38"/>
          <line class="cls-2" x1="13.4" y1="33.93" x2="12.64" y2="34.73"/>
          <line class="cls-2" x1="14.26" y1="33.12" x2="13.56" y2="33.76"/>
          <polyline class="cls-2" points="15.64 32 15.52 32.09 15.18 32.36 14.56 32.85"/>
          <line class="cls-2" x1="17.49" y1="30.82" x2="16.67" y2="31.3"/>
          <line class="cls-2" x1="18.68" y1="30.19" x2="17.83" y2="30.62"/>
          <line class="cls-2" x1="20.11" y1="29.58" x2="18.95" y2="30.06"/>
          <polyline class="cls-2" points="21.63 29.07 21.37 29.14 20.83 29.33 20.14 29.57"/>
          <polyline class="cls-2" points="26.76 28.33 26.56 28.33 25.88 28.37 25.42 28.39 25.25 28.4 24.67 28.47 24.08 28.54 23.94 28.56 23.48 28.65 22.74 28.79"/>
          <polyline class="cls-2" points="28.07 28.37 27.88 28.35 27.12 28.34"/>
          <line class="cls-2" x1="30.21" y1="28.63" x2="29.25" y2="28.48"/>
          <polyline class="cls-2" points="34.44 29.89 34.27 29.81 33.78 29.62 33.17 29.39 33.04 29.34 32.04 29.04 31.78 28.96 31.18 28.83 30.57 28.69"/>
          <polyline class="cls-2" points="35.69 30.48 35.47 30.36 34.74 30.03"/>
          <polyline class="cls-2" points="36.81 31.11 36.62 30.99 35.8 30.54"/>
          <polyline class="cls-2" points="38.44 32.23 37.83 31.78 37.73 31.7 37.1 31.29"/>
          <line class="cls-2" x1="39.56" y1="33.16" x2="38.88" y2="32.57"/>
          <line class="cls-2" x1="40.48" y1="34.03" x2="39.83" y2="33.39"/>
          <line class="cls-2" x1="41.57" y1="35.23" x2="40.79" y2="34.34"/>
          <polyline class="cls-2" points="42.52 36.47 42.41 36.3 42.12 35.93 41.61 35.27"/>
          <polyline class="cls-2" points="43.87 38.71 43.79 38.54 43.5 38.03 43.21 37.52 43.14 37.4 42.73 36.79"/>
          <polyline class="cls-2" points="45.31 42.42 45.25 42.2 45.05 41.58 44.9 41.1 44.85 40.95 44.66 40.47 44.4 39.83"/>
          <polyline class="cls-2" points="45.6 43.68 45.57 43.48 45.36 42.63"/>
          <polyline class="cls-2" points="45.94 46.33 45.93 46.09 45.87 45.54 45.8 44.85"/>
          <line class="cls-2" x1="45.97" y1="47.41" x2="45.95" y2="46.6"/>
          <polygon class="cls-2" points="45.06 92.05 45.02 90.77 44.88 89.49 44.66 88.23 44.34 86.98 43.94 85.77 43.46 84.58 42.89 83.43 42.24 82.32 41.52 81.26 40.72 80.26 39.86 79.31 38.92 78.43 37.93 77.62 36.89 76.87 35.79 76.21 34.65 75.62 33.48 75.11 32.26 74.69 31.03 74.35 29.77 74.11 28.5 73.95 27.21 73.88 25.93 73.9 24.65 74.02 23.39 74.22 22.14 74.51 20.91 74.89 19.72 75.35 18.56 75.9 17.44 76.53 16.37 77.23 15.35 78.01 14.39 78.86 13.49 79.78 12.66 80.75 11.9 81.79 11.21 82.87 10.6 84 10.08 85.17 9.63 86.37 9.27 87.6 9.01 88.86 8.82 90.13 8.73 91.41 8.73 92.69 8.82 93.97 9.01 95.24 9.27 96.49 9.63 97.72 10.08 98.93 10.6 100.1 11.21 101.23 11.9 102.31 12.66 103.34 13.49 104.32 14.39 105.23 15.35 106.08 16.37 106.86 17.44 107.57 18.56 108.19 19.72 108.74 20.91 109.21 22.14 109.59 23.39 109.88 24.65 110.08 25.93 110.19 27.21 110.22 28.5 110.15 29.77 109.99 31.03 109.74 32.26 109.41 33.48 108.98 34.65 108.48 35.79 107.89 36.89 107.22 37.93 106.48 38.92 105.66 39.86 104.78 40.72 103.84 41.52 102.83 42.24 101.77 42.89 100.67 43.46 99.52 43.94 98.33 44.34 97.11 44.66 95.87 44.88 94.6 45.02 93.33 45.06 92.05"/>
          <polygon class="cls-2" points="46.5 47.41 46.46 46.07 46.32 44.74 46.09 43.42 45.78 42.12 45.37 40.84 44.88 39.59 44.31 38.39 43.65 37.22 42.92 36.1 42.11 35.03 41.23 34.02 40.28 33.08 39.27 32.2 38.2 31.39 37.08 30.65 35.92 30 34.71 29.42 33.46 28.93 32.18 28.52 30.88 28.21 29.56 27.98 28.23 27.84 26.89 27.8 25.56 27.84 24.22 27.98 22.9 28.21 21.6 28.52 20.33 28.93 19.08 29.42 17.87 30 16.7 30.65 15.58 31.39 14.52 32.2 13.51 33.08 12.56 34.02 11.68 35.03 10.87 36.1 10.14 37.22 9.48 38.39 8.91 39.59 8.42 40.84 8.01 42.12 7.69 43.42 7.47 44.74 7.33 46.07 7.28 47.41 7.33 48.75 7.47 50.08 7.69 51.4 8.01 52.7 8.42 53.97 8.91 55.22 9.48 56.43 10.14 57.6 10.87 58.72 11.68 59.78 12.56 60.79 13.51 61.74 14.52 62.62 15.58 63.43 16.7 64.16 17.87 64.82 19.08 65.39 20.33 65.89 21.6 66.29 22.9 66.61 24.22 66.84 25.56 66.97 26.89 67.02 28.23 66.97 29.56 66.84 30.88 66.61 32.18 66.29 33.46 65.89 34.71 65.39 35.92 64.82 37.08 64.16 38.2 63.43 39.27 62.62 40.28 61.74 41.23 60.79 42.11 59.78 42.92 58.72 43.65 57.6 44.31 56.43 44.88 55.22 45.37 53.97 45.78 52.7 46.09 51.4 46.32 50.08 46.46 48.75 46.5 47.41"/>
          <polyline class="cls-2" points="50.65 135.6 51.46 135.55 52.26 135.42 53.03 135.2 53.78 134.89 54.48 134.51 55.14 134.04 55.74 133.51 56.28 132.92 56.75 132.26 57.14 131.56 57.45 130.83 57.67 130.06 57.81 129.27 57.85 128.47"/>
          <polyline class="cls-2" points="57.85 121.34 57.85 122.2 57.85 123.04 57.85 123.86 57.85 124.61 57.85 124.65 57.85 125.38 57.85 126.06 57.85 126.67 57.85 127.21 57.85 127.67 57.85 128.03 57.85 128.3 57.85 128.47"/>
          <polyline class="cls-2" points="57.85 121.34 57.81 121.34 57.67 121.34 57.45 121.34 57.14 121.34 56.75 121.34 56.28 121.34 55.74 121.34 55.14 121.34 54.48 121.34 53.78 121.34 53.03 121.34 52.26 121.34 51.46 121.34 50.65 121.34"/>
          <polyline class="cls-2" points="57.85 19.55 57.85 22.56 57.85 118.34 57.85 121.34"/>
          <polyline class="cls-2" points="57.85 12.42 57.81 11.63 57.67 10.84 57.45 10.07 57.14 9.33 56.75 8.63 56.28 7.98 55.74 7.38 55.14 6.85 54.48 6.39 53.78 6 53.03 5.7 52.26 5.47 51.46 5.34 50.65 5.3"/>
          <polyline class="cls-2" points="57.85 19.55 57.81 19.55 57.67 19.55 57.45 19.55 57.14 19.55 56.75 19.55 56.28 19.55 55.74 19.55 55.14 19.55 54.48 19.55 53.78 19.55 53.03 19.55 52.26 19.55 51.46 19.55 50.65 19.55"/>
          <polyline class="cls-2" points="57.85 12.42 57.85 12.59 57.85 12.86 57.85 13.23 57.85 13.68 57.85 14.22 57.85 14.83 57.85 15.51 57.85 16.25 57.85 16.28 57.85 17.03 57.85 17.85 57.85 18.7 57.85 19.55"/>
          <polygon class="cls-2" points="46.66 47.41 46.61 46.07 46.48 44.74 46.26 43.43 45.94 42.13 45.54 40.86 45.06 39.61 44.49 38.4 43.84 37.24 43.12 36.12 42.32 35.05 41.45 34.03 40.51 33.08 39.51 32.19 38.46 31.38 37.35 30.63 36.19 29.97 34.99 29.38 33.76 28.87 32.49 28.45 31.2 28.12 29.89 27.87 28.56 27.71 27.23 27.64 25.89 27.67 24.56 27.78 23.24 27.98 21.94 28.27 20.66 28.65 19.41 29.11 18.19 29.66 17.01 30.29 15.88 31 14.79 31.78 13.77 32.63 12.8 33.55 11.9 34.53 11.06 35.57 10.3 36.67 9.61 37.81 9 39 8.48 40.23 8.03 41.49 7.68 42.78 7.41 44.08 7.23 45.41 7.14 46.74 7.14 48.08 7.23 49.41 7.41 50.73 7.68 52.04 8.03 53.32 8.48 54.58 9 55.81 9.61 57 10.3 58.14 11.06 59.24 11.9 60.28 12.8 61.27 13.77 62.19 14.79 63.04 15.88 63.82 17.01 64.53 18.19 65.15 19.41 65.7 20.66 66.16 21.94 66.54 23.24 66.83 24.56 67.04 25.89 67.15 27.23 67.17 28.56 67.1 29.89 66.95 31.2 66.7 32.49 66.36 33.76 65.94 34.99 65.44 36.19 64.85 37.35 64.18 38.46 63.44 39.51 62.62 40.51 61.73 41.45 60.78 42.32 59.77 43.12 58.7 43.84 57.58 44.49 56.41 45.06 55.2 45.54 53.96 45.94 52.68 46.26 51.39 46.48 50.07 46.61 48.74 46.66 47.41"/>
          <polygon class="cls-2" points="45.22 92.05 45.17 90.75 45.04 89.47 44.81 88.2 44.49 86.94 44.09 85.71 43.6 84.51 43.03 83.36 42.37 82.24 41.64 81.17 40.84 80.16 39.97 79.2 39.03 78.31 38.03 77.49 36.97 76.74 35.87 76.07 34.72 75.48 33.53 74.97 32.31 74.54 31.06 74.2 29.79 73.95 28.51 73.79 27.22 73.72 25.92 73.75 24.64 73.86 23.36 74.07 22.1 74.36 20.86 74.74 19.66 75.21 18.49 75.76 17.36 76.4 16.28 77.11 15.25 77.89 14.28 78.75 13.38 79.67 12.54 80.66 11.77 81.7 11.08 82.79 10.46 83.93 9.93 85.11 9.48 86.32 9.12 87.57 8.85 88.83 8.67 90.11 8.58 91.4 8.58 92.69 8.67 93.98 8.85 95.27 9.12 96.53 9.48 97.77 9.93 98.99 10.46 100.17 11.08 101.3 11.77 102.4 12.54 103.44 13.38 104.42 14.28 105.34 15.25 106.2 16.28 106.99 17.36 107.7 18.49 108.33 19.66 108.88 20.86 109.35 22.1 109.74 23.36 110.03 24.64 110.23 25.92 110.35 27.22 110.37 28.51 110.3 29.79 110.14 31.06 109.89 32.31 109.55 33.53 109.13 34.72 108.62 35.87 108.03 36.97 107.35 38.03 106.6 39.03 105.78 39.97 104.89 40.84 103.94 41.64 102.92 42.37 101.86 43.03 100.74 43.6 99.58 44.09 98.38 44.49 97.15 44.81 95.9 45.04 94.63 45.17 93.34 45.22 92.05"/>
          <polyline class="cls-2" points=".25 135.6 .25 135.39 .25 135.1 .25 134.72 .25 134.25 .25 133.7 .25 133.08 .25 132.38 .25 131.61 .25 130.78 .25 129.89 .25 128.94 .25 127.95 .25 126.91 .25 125.84 .25 124.74 .25 123.62 .25 122.49 .25 121.34"/>
          <line class="cls-2" x1="50.65" y1="135.6" x2=".25" y2="135.6"/>
          <polyline class="cls-2" points="50.65 135.6 50.65 135.39 50.65 135.1 50.65 134.72 50.65 134.25 50.65 133.7 50.65 133.08 50.65 132.38 50.65 131.61 50.65 130.78 50.65 129.89 50.65 128.94 50.65 127.95 50.65 126.91 50.65 125.84 50.65 124.74 50.65 123.62 50.65 122.49 50.65 121.34"/>
          <polyline class="cls-2" points=".25 19.55 .25 18.41 .25 17.27 .25 16.15 .25 15.05 .25 13.98 .25 12.95 .25 11.95 .25 11.01 .25 10.11 .25 9.28 .25 8.51 .25 7.81 .25 7.19 .25 6.64 .25 6.18 .25 5.8 .25 5.5 .25 5.3"/>
          <polyline class="cls-2" points="50.65 19.55 50.65 18.41 50.65 17.27 50.65 16.15 50.65 15.05 50.65 13.98 50.65 12.95 50.65 11.95 50.65 11.01 50.65 10.11 50.65 9.28 50.65 8.51 50.65 7.81 50.65 7.19 50.65 6.64 50.65 6.18 50.65 5.8 50.65 5.5 50.65 5.3"/>
          <line class="cls-2" x1="50.65" y1="5.3" x2=".25" y2="5.3"/>
          <polygon class="cls-2" points="47.02 47.41 46.97 48.75 46.84 50.09 46.61 51.42 46.3 52.72 45.9 54.01 45.42 55.26 44.85 56.48 44.21 57.66 43.48 58.8 42.69 59.88 41.82 60.91 40.88 61.87 39.89 62.78 38.83 63.61 37.72 64.37 36.56 65.06 35.36 65.66 34.13 66.19 32.86 66.63 31.56 66.98 30.24 67.25 28.91 67.43 27.57 67.52 26.22 67.52 24.88 67.43 23.55 67.25 22.23 66.98 20.93 66.63 19.66 66.19 18.42 65.66 17.22 65.06 16.07 64.37 14.96 63.61 13.9 62.78 12.9 61.87 11.97 60.91 11.1 59.88 10.3 58.8 9.58 57.66 8.93 56.48 8.37 55.26 7.88 54.01 7.48 52.72 7.17 51.42 6.95 50.09 6.81 48.75 6.77 47.41 6.81 46.06 6.95 44.73 7.17 43.4 7.48 42.09 7.88 40.81 8.37 39.55 8.93 38.33 9.58 37.15 10.3 36.02 11.1 34.94 11.97 33.91 12.9 32.94 13.9 32.04 14.96 31.21 16.07 30.45 17.22 29.76 18.42 29.15 19.66 28.63 20.93 28.19 22.23 27.83 23.55 27.56 24.88 27.38 26.22 27.29 27.57 27.29 28.91 27.38 30.24 27.56 31.56 27.83 32.86 28.19 34.13 28.63 35.36 29.15 36.56 29.76 37.72 30.45 38.83 31.21 39.89 32.04 40.88 32.94 41.82 33.91 42.69 34.94 43.48 36.02 44.21 37.15 44.85 38.33 45.42 39.55 45.9 40.81 46.3 42.09 46.61 43.4 46.84 44.73 46.97 46.06 47.02 47.41"/>
          <polygon class="cls-2" points="45.58 92.05 45.53 93.35 45.4 94.65 45.17 95.93 44.85 97.2 44.45 98.44 43.96 99.65 43.39 100.82 42.74 101.95 42.01 103.03 41.21 104.06 40.33 105.03 39.4 105.93 38.4 106.77 37.34 107.54 36.24 108.23 35.08 108.84 33.89 109.37 32.67 109.82 31.41 110.18 30.14 110.45 28.85 110.63 27.55 110.72 26.24 110.72 24.94 110.63 23.65 110.45 22.37 110.18 21.12 109.82 19.89 109.37 18.7 108.84 17.55 108.23 16.45 107.54 15.39 106.77 14.39 105.93 13.45 105.03 12.58 104.06 11.78 103.03 11.05 101.95 10.4 100.82 9.82 99.65 9.34 98.44 8.93 97.2 8.62 95.93 8.39 94.65 8.25 93.35 8.21 92.05 8.25 90.74 8.39 89.45 8.62 88.16 8.93 86.9 9.34 85.66 9.82 84.45 10.4 83.28 11.05 82.15 11.78 81.07 12.58 80.04 13.45 79.07 14.39 78.16 15.39 77.32 16.45 76.56 17.55 75.87 18.7 75.25 19.89 74.72 21.12 74.28 22.37 73.92 23.65 73.65 24.94 73.47 26.24 73.37 27.55 73.37 28.85 73.47 30.14 73.65 31.41 73.92 32.67 74.28 33.89 74.72 35.08 75.25 36.24 75.87 37.34 76.56 38.4 77.32 39.4 78.16 40.33 79.07 41.21 80.04 42.01 81.07 42.74 82.15 43.39 83.28 43.96 84.45 44.45 85.66 44.85 86.9 45.17 88.16 45.4 89.45 45.53 90.74 45.58 92.05"/>
          <line class="cls-2" x1="50.65" y1="121.34" x2="50.65" y2="19.55"/>
          <line class="cls-2" x1="50.65" y1="19.55" x2=".25" y2="19.55"/>
          <line class="cls-2" x1=".25" y1="121.34" x2=".25" y2="19.55"/>
          <line class="cls-2" x1="34.45" y1="116.08" x2="34.45" y2="113.6"/>
          <polyline class="cls-2" points="33.35 117.46 33.86 117.39 34.09 117.28 34.27 117.09 34.42 116.6 34.45 116.08"/>
          <polyline class="cls-2" points="32.33 116.08 32.34 116.45 32.4 116.82 32.56 117.15 32.92 117.39 33.35 117.46"/>
          <line class="cls-2" x1="32.33" y1="113.6" x2="32.33" y2="116.08"/>
          <line class="cls-2" x1="31.71" y1="113.6" x2="32.33" y2="113.6"/>
          <line class="cls-2" x1="31.71" y1="116.11" x2="31.71" y2="113.6"/>
          <polyline class="cls-2" points="33.4 118.02 32.85 117.97 32.34 117.77 31.96 117.38 31.8 116.97 31.73 116.55 31.71 116.11"/>
          <polyline class="cls-2" points="35.07 116.11 35.04 116.66 34.91 117.19 34.6 117.63 34.04 117.94 33.4 118.02"/>
          <line class="cls-2" x1="35.07" y1="113.6" x2="35.07" y2="116.11"/>
          <line class="cls-2" x1="34.45" y1="113.6" x2="35.07" y2="113.6"/>
          <line class="cls-2" x1="37.76" y1="117.97" x2="37.14" y2="117.97"/>
          <line class="cls-2" x1="37.76" y1="114.1" x2="37.76" y2="117.97"/>
          <line class="cls-2" x1="39.16" y1="114.1" x2="37.76" y2="114.1"/>
          <line class="cls-2" x1="39.16" y1="113.6" x2="39.16" y2="114.1"/>
          <line class="cls-2" x1="35.74" y1="113.6" x2="39.16" y2="113.6"/>
          <line class="cls-2" x1="35.74" y1="114.1" x2="35.74" y2="113.6"/>
          <line class="cls-2" x1="37.14" y1="114.1" x2="35.74" y2="114.1"/>
          <line class="cls-2" x1="37.14" y1="117.97" x2="37.14" y2="114.1"/>
          <polyline class="cls-2" points="29.35 115.67 29.75 115.63 30.1 115.45 30.26 115.18 30.31 114.87"/>
          <polyline class="cls-2" points="30.93 114.86 30.87 115.29 30.68 115.68 30.36 115.97 29.88 116.14 29.36 116.18"/>
          <line class="cls-2" x1="28.29" y1="117.97" x2="27.68" y2="117.97"/>
          <line class="cls-2" x1="28.29" y1="116.18" x2="28.29" y2="117.97"/>
          <line class="cls-2" x1="29.36" y1="116.18" x2="28.29" y2="116.18"/>
          <polyline class="cls-2" points="29.93 113.64 30.38 113.8 30.73 114.13 30.88 114.48 30.93 114.86"/>
          <polyline class="cls-2" points="29.28 113.6 29.65 113.61 29.93 113.64"/>
          <line class="cls-2" x1="27.68" y1="113.6" x2="29.28" y2="113.6"/>
          <line class="cls-2" x1="27.68" y1="117.97" x2="27.68" y2="113.6"/>
          <line class="cls-2" x1="28.29" y1="115.67" x2="29.35" y2="115.67"/>
          <line class="cls-2" x1="28.29" y1="114.1" x2="28.29" y2="115.67"/>
          <line class="cls-2" x1="29.34" y1="114.1" x2="28.29" y2="114.1"/>
          <polyline class="cls-2" points="29.84 114.14 29.56 114.11 29.34 114.1"/>
          <polyline class="cls-2" points="30.31 114.87 30.28 114.61 30.17 114.38 30.02 114.23 29.84 114.14"/>
          <line class="cls-2" x1="27.06" y1="114.1" x2="25.66" y2="114.1"/>
          <line class="cls-2" x1="23.65" y1="113.6" x2="27.06" y2="113.6"/>
          <line class="cls-2" x1="23.65" y1="114.1" x2="23.65" y2="113.6"/>
          <line class="cls-2" x1="25.05" y1="114.1" x2="23.65" y2="114.1"/>
          <line class="cls-2" x1="25.66" y1="117.97" x2="25.05" y2="117.97"/>
          <line class="cls-2" x1="25.66" y1="114.1" x2="25.66" y2="117.97"/>
          <line class="cls-2" x1="27.06" y1="113.6" x2="27.06" y2="114.1"/>
          <line class="cls-2" x1="25.05" y1="117.97" x2="25.05" y2="114.1"/>
          <polyline class="cls-2" points="21.3 118.02 20.76 117.97 20.25 117.77 19.86 117.38 19.7 116.97 19.63 116.55 19.61 116.11"/>
          <line class="cls-2" x1="22.36" y1="116.08" x2="22.36" y2="113.6"/>
          <polyline class="cls-2" points="21.26 117.46 21.77 117.39 22 117.28 22.17 117.09 22.32 116.6 22.36 116.08"/>
          <polyline class="cls-2" points="20.23 116.08 20.24 116.45 20.3 116.82 20.47 117.15 20.83 117.39 21.26 117.46"/>
          <line class="cls-2" x1="20.23" y1="113.6" x2="20.23" y2="116.08"/>
          <line class="cls-2" x1="19.61" y1="113.6" x2="20.23" y2="113.6"/>
          <line class="cls-2" x1="19.61" y1="116.11" x2="19.61" y2="113.6"/>
          <polyline class="cls-2" points="22.97 116.11 22.94 116.66 22.81 117.19 22.5 117.63 21.94 117.94 21.3 118.02"/>
          <line class="cls-2" x1="22.97" y1="113.6" x2="22.97" y2="116.11"/>
          <line class="cls-2" x1="22.36" y1="113.6" x2="22.97" y2="113.6"/>
          <polyline class="cls-2" points="16.76 118.02 16.14 117.94 15.57 117.67 15.12 117.23 14.79 116.57 14.69 115.84"/>
          <polyline class="cls-2" points="18.83 115.79 18.76 116.42 18.54 117.02 18.14 117.52 17.5 117.9 16.76 118.02"/>
          <polyline class="cls-2" points="16.76 113.54 17.39 113.63 17.97 113.91 18.42 114.36 18.73 115.04 18.83 115.79"/>
          <polyline class="cls-2" points="14.69 115.84 14.75 115.19 14.96 114.58 15.35 114.06 16.01 113.67 16.76 113.54"/>
          <polyline class="cls-2" points="15.3 115.85 15.4 116.54 15.76 117.12 16.22 117.42 16.75 117.52"/>
          <polyline class="cls-2" points="16.76 114.05 16.28 114.12 15.85 114.36 15.53 114.73 15.35 115.27 15.3 115.85"/>
          <polyline class="cls-2" points="18.21 115.79 18.17 115.31 18.03 114.86 17.77 114.47 17.31 114.15 16.76 114.05"/>
          <polyline class="cls-2" points="16.75 117.52 17.22 117.45 17.64 117.22 17.95 116.87 18.16 116.34 18.21 115.79"/>
          <line class="cls-2" x1="33.17" y1="124.45" x2="32.51" y2="124.45"/>
          <line class="cls-2" x1="33.66" y1="123.1" x2="33.17" y2="124.45"/>
          <line class="cls-2" x1="35.52" y1="123.1" x2="33.66" y2="123.1"/>
          <line class="cls-2" x1="36.02" y1="124.45" x2="35.52" y2="123.1"/>
          <line class="cls-2" x1="36.68" y1="124.45" x2="36.02" y2="124.45"/>
          <polyline class="cls-2" points="34.94 120.08 35.44 121.34 36.68 124.45"/>
          <line class="cls-2" x1="34.25" y1="120.08" x2="34.94" y2="120.08"/>
          <polyline class="cls-2" points="32.51 124.45 33.75 121.34 34.25 120.08"/>
          <line class="cls-2" x1="34.3" y1="121.39" x2="33.85" y2="122.6"/>
          <polyline class="cls-2" points="34.59 120.58 34.45 121.04 34.32 121.34 34.3 121.39"/>
          <polyline class="cls-2" points="34.92 121.45 34.88 121.34 34.73 120.97 34.59 120.58"/>
          <line class="cls-2" x1="35.34" y1="122.6" x2="34.92" y2="121.45"/>
          <line class="cls-2" x1="33.85" y1="122.6" x2="35.34" y2="122.6"/>
          <polyline class="cls-2" points="29.44 121.2 29.75 121.24 29.94 121.34 30.02 121.38 30.18 121.57 30.29 121.79"/>
          <line class="cls-2" x1="28.52" y1="124.45" x2="27.96" y2="124.45"/>
          <line class="cls-2" x1="28.52" y1="122.82" x2="28.52" y2="124.45"/>
          <polyline class="cls-2" points="29.28 121.7 28.91 121.8 28.76 121.92 28.65 122.07 28.55 122.44 28.52 122.82"/>
          <polyline class="cls-2" points="29.81 122.41 29.79 122.16 29.71 121.92 29.63 121.82 29.52 121.75 29.28 121.7"/>
          <line class="cls-2" x1="29.81" y1="124.45" x2="29.81" y2="122.41"/>
          <line class="cls-2" x1="30.37" y1="124.45" x2="29.81" y2="124.45"/>
          <line class="cls-2" x1="30.37" y1="122.63" x2="30.37" y2="124.45"/>
          <polyline class="cls-2" points="31.12 121.7 30.87 121.74 30.65 121.86 30.49 122.05 30.4 122.33 30.37 122.63"/>
          <polyline class="cls-2" points="31.66 122.47 31.65 122.2 31.58 121.94 31.49 121.84 31.38 121.76 31.12 121.7"/>
          <line class="cls-2" x1="31.66" y1="124.45" x2="31.66" y2="122.47"/>
          <line class="cls-2" x1="32.22" y1="124.45" x2="31.66" y2="124.45"/>
          <line class="cls-2" x1="32.22" y1="122.27" x2="32.22" y2="124.45"/>
          <polyline class="cls-2" points="31.25 121.2 31.7 121.28 31.78 121.34 32.06 121.57 32.19 121.91 32.22 122.27"/>
          <polyline class="cls-2" points="30.29 121.79 30.49 121.53 30.73 121.34 30.75 121.33 31.25 121.2"/>
          <polyline class="cls-2" points="28.52 121.75 28.71 121.5 28.93 121.34 28.96 121.32 29.44 121.2"/>
          <polyline class="cls-2" points="28.52 121.26 28.52 121.34 28.52 121.75"/>
          <line class="cls-2" x1="27.96" y1="121.26" x2="28.52" y2="121.26"/>
          <polyline class="cls-2" points="27.96 124.45 27.96 121.34 27.96 121.26"/>
          <polyline class="cls-2" points="24.16 124.5 23.6 124.41 23.14 124.08 22.91 123.71 22.81 123.27"/>
          <polyline class="cls-2" points="25.27 123.97 25.02 124.23 24.71 124.41 24.16 124.5"/>
          <polyline class="cls-2" points="25.61 122.95 25.5 123.55 25.27 123.97"/>
          <polyline class="cls-2" points="24.32 121.54 24.9 121.67 25.34 122.06 25.55 122.49 25.61 122.95"/>
          <polyline class="cls-2" points="23.54 121.83 23.96 121.6 24.32 121.54"/>
          <polyline class="cls-2" points="23.77 120.7 23.64 121.34 23.54 121.83"/>
          <line class="cls-2" x1="25.38" y1="120.7" x2="23.77" y2="120.7"/>
          <line class="cls-2" x1="25.38" y1="120.14" x2="25.38" y2="120.7"/>
          <line class="cls-2" x1="23.31" y1="120.14" x2="25.38" y2="120.14"/>
          <polyline class="cls-2" points="22.86 122.38 23.07 121.34 23.31 120.14"/>
          <line class="cls-2" x1="23.42" y1="122.43" x2="22.86" y2="122.38"/>
          <polyline class="cls-2" points="24.17 122.04 23.92 122.07 23.7 122.16 23.42 122.43"/>
          <polyline class="cls-2" points="25.05 122.98 24.99 122.58 24.77 122.24 24.49 122.08 24.17 122.04"/>
          <polyline class="cls-2" points="24.17 124 24.58 123.91 24.88 123.62 25.01 123.31 25.05 122.98"/>
          <polyline class="cls-2" points="23.37 123.22 23.46 123.55 23.66 123.83 23.9 123.96 24.17 124"/>
          <line class="cls-2" x1="22.81" y1="123.27" x2="23.37" y2="123.22"/>
          <polyline class="cls-2" points="20.23 122.29 20.18 123.03 19.99 123.75 19.81 124.06 19.54 124.32 19.2 124.46 18.83 124.5"/>
          <polyline class="cls-2" points="17.85 124.08 17.61 123.62 17.49 123.11 17.43 122.29"/>
          <polyline class="cls-2" points="18.83 124.5 18.52 124.47 18.23 124.38 17.85 124.08"/>
          <polyline class="cls-2" points="18.83 120.08 19.2 120.12 19.54 120.27 19.81 120.52 19.99 120.84 20.13 121.34 20.19 121.55 20.23 122.29"/>
          <polyline class="cls-2" points="17.43 122.29 17.47 121.55 17.53 121.34 17.66 120.84 17.85 120.52 18.12 120.27 18.46 120.12 18.83 120.08"/>
          <polyline class="cls-2" points="17.99 122.29 18.01 122.82 18.09 123.35 18.18 123.6 18.35 123.8 18.57 123.95 18.83 124"/>
          <polyline class="cls-2" points="18.24 120.88 18.09 121.26 18.08 121.34 18.02 121.66 17.99 122.29"/>
          <polyline class="cls-2" points="18.82 120.58 18.63 120.61 18.46 120.68 18.24 120.88"/>
          <polyline class="cls-2" points="19.67 122.29 19.65 121.76 19.59 121.34 19.57 121.23 19.47 120.98 19.31 120.77 19.08 120.63 18.82 120.58"/>
          <polyline class="cls-2" points="18.83 124 19.09 123.95 19.31 123.8 19.47 123.6 19.57 123.35 19.65 122.82 19.67 122.29"/>
          <polyline class="cls-2" points="26.84 28.33 26.76 28.33 25.88 28.37 25.52 28.38 25.42 28.39 24.67 28.47 24.21 28.52 24.08 28.54 23.48 28.65 22.91 28.75 22.74 28.79 21.64 29.07 21.63 29.07 20.83 29.33 20.38 29.47 20.14 29.57 20.11 29.58 19.16 29.96 18.95 30.06 18.68 30.19 17.98 30.54 17.83 30.62 17.49 30.82 16.83 31.19 16.67 31.3 15.74 31.93 15.64 32 15.18 32.36 14.7 32.73 14.56 32.85 14.26 33.12 13.71 33.61 13.56 33.76 13.4 33.93 12.79 34.55 12.64 34.73 11.94 35.56 11.9 35.61 11.34 36.38 11.16 36.62 11.1 36.71 10.77 37.23 10.45 37.73 10.36 37.9 10.2 38.18 9.82 38.88 9.75 39.04 9.3 40.03 9.28 40.08 9.28 40.09 8.95 40.96 8.81 41.32 8.77 41.46 8.55 42.22 8.44 42.58 8.43 42.65 8.24 43.48 8.15 43.86 8.13 43.98 8.02 44.68 7.95 45.16 7.94 45.29 7.85 46.42 7.84 46.48 7.84 46.49 7.82 47.79 7.87 48.71 7.89 49.11 7.92 49.31 7.95 49.56 8.05 50.42 8.1 50.67 8.11 50.7 8.3 51.71 8.36 51.95 8.65 52.98 8.69 53.1 8.87 53.63 9.07 54.23 9.13 54.38 9.56 55.38 9.59 55.44 9.59 55.45 9.98 56.22 10.18 56.61 10.29 56.8 10.42 57.01 10.86 57.75 10.99 57.93 11.13 58.15 11.61 58.83 11.7 58.95 12.43 59.85 12.49 59.92 13.31 60.8 13.33 60.82 13.97 61.43 14.28 61.73 14.4 61.83 15.01 62.32 15.3 62.56 15.37 62.61 15.86 62.96 16.37 63.33 16.58 63.46 17.5 64.01 17.54 64.03 18.61 64.59 18.67 64.62 18.69 64.63 19.5 64.99 19.87 65.15 20.01 65.2 20.61 65.41 21.11 65.59 21.26 65.63 21.72 65.76 22.38 65.95 22.56 65.99 23.67 66.21 23.71 66.22 24.79 66.36 24.98 66.39 25.04 66.39 25.75 66.44 26.29 66.48 26.52 66.48 26.83 66.48 27.61 66.47 27.72 66.46 28.44 66.41 28.92 66.38 29.04 66.36 29.75 66.26 30.23 66.19 30.39 66.16 30.84 66.06 31.51 65.92 31.67 65.88 32.14 65.74 32.78 65.56 32.97 65.49 33.27 65.38 34.02 65.11 34.23 65.01 35.22 64.57 35.31 64.53 35.86 64.24 36.39 63.96 36.57 63.85 36.88 63.66 37.51 63.26 37.63 63.18 38.05 62.87 38.58 62.49 38.74 62.36 39.04 62.1 39.59 61.65 39.68 61.56 40.35 60.93 40.54 60.74 40.58 60.7 41.09 60.15 41.43 59.77 41.57 59.59 41.73 59.4 42.25 58.74 42.33 58.63 42.87 57.82 42.99 57.65 43.01 57.62 43.51 56.76 43.66 56.51 43.71 56.42 43.99 55.85 44.25 55.34 44.31 55.19 44.62 54.43 44.75 54.12 44.77 54.06 45.1 53.07 45.17 52.87 45.19 52.81 45.4 52.02 45.51 51.6 45.53 51.49 45.68 50.67 45.75 50.3 45.77 50.18 45.83 49.61 45.91 49 45.92 48.84 45.94 48.23 45.97 47.68 45.97 47.53 45.95 46.6 45.94 46.36 45.94 46.33 45.87 45.54 45.83 45.05 45.8 44.85 45.62 43.75 45.6 43.68 45.36 42.63 45.32 42.47 45.31 42.42 45.05 41.58 44.94 41.21 44.9 41.1 44.66 40.47 44.47 39.98 44.4 39.83 43.91 38.78 43.87 38.71 43.5 38.03 43.28 37.63 43.21 37.52 42.73 36.79 42.56 36.52 42.52 36.47 42.12 35.93 41.78 35.47 41.61 35.27 41.57 35.23 40.92 34.47 40.79 34.34 40.48 34.03 39.99 33.53 39.83 33.39 39.56 33.16 39 32.66 38.88 32.57 38.44 32.23 37.96 31.86 37.83 31.78 37.1 31.29 36.86 31.14 36.81 31.11 35.8 30.54 35.71 30.49 35.69 30.48 34.74 30.03 34.52 29.92 34.44 29.89 33.78 29.62 33.3 29.43 33.17 29.39 32.04 29.04 31.18 28.83 30.76 28.72 30.57 28.69 30.21 28.63 29.46 28.5 29.25 28.48 28.15 28.37 28.07 28.37 27.12 28.34 26.84 28.33"/>
          <polygon class="cls-2" points="26.86 34.81 25.79 34.86 24.73 35 23.68 35.22 22.66 35.54 21.67 35.94 20.72 36.43 19.81 36.99 18.95 37.63 18.15 38.34 17.41 39.11 16.74 39.95 16.14 40.83 15.63 41.77 15.19 42.74 14.83 43.75 14.57 44.79 14.39 45.84 14.3 46.91 14.31 47.98 14.4 49.05 14.58 50.1 14.86 51.13 15.22 52.14 15.66 53.11 16.18 54.05 16.79 54.93 17.46 55.76 18.2 56.53 19.01 57.23 19.87 57.87 20.78 58.43 21.74 58.9 22.73 59.3 23.76 59.61 24.8 59.83 25.86 59.97 26.93 60.01 28 59.96 29.06 59.82 30.1 59.59 31.13 59.28 32.12 58.87 33.07 58.39 33.98 57.83 34.84 57.19 35.64 56.48 36.38 55.7 37.05 54.87 37.64 53.98 38.16 53.05 38.6 52.07 38.95 51.06 39.22 50.03 39.4 48.97 39.48 47.9 39.48 46.84 39.39 45.77 39.2 44.72 38.93 43.68 38.57 42.67 38.13 41.7 37.6 40.77 37 39.88 36.33 39.05 35.58 38.28 34.78 37.58 33.92 36.95 33.01 36.39 32.05 35.91 31.06 35.51 30.03 35.2 28.99 34.98 27.92 34.85 26.86 34.81"/>
          <polygon class="cls-2" points="26.85 34.09 27.95 34.13 29.05 34.26 30.12 34.49 31.18 34.8 32.21 35.19 33.2 35.67 34.15 36.23 35.04 36.87 35.89 37.58 36.67 38.36 37.38 39.19 38.02 40.09 38.59 41.03 39.08 42.02 39.48 43.04 39.8 44.1 40.03 45.18 40.16 46.27 40.21 47.37 40.17 48.47 40.04 49.56 39.82 50.64 39.5 51.69 39.11 52.72 38.63 53.71 38.07 54.66 37.43 55.56 36.72 56.4 35.94 57.18 35.11 57.89 34.21 58.54 33.27 59.1 32.28 59.59 31.26 59.99 30.2 60.31 29.13 60.54 28.03 60.68 26.93 60.73 25.83 60.69 24.74 60.55 23.66 60.33 22.61 60.02 21.58 59.62 20.59 59.14 19.64 58.58 18.74 57.94 17.9 57.23 17.12 56.46 16.41 55.62 15.76 54.73 15.2 53.78 14.71 52.79 14.31 51.77 13.99 50.72 13.76 49.64 13.62 48.55 13.57 47.45 13.62 46.35 13.75 45.25 13.97 44.18 14.28 43.12 14.68 42.09 15.16 41.1 15.72 40.16 16.36 39.26 17.07 38.42 17.84 37.63 18.68 36.92 19.58 36.28 20.52 35.71 21.51 35.23 22.53 34.82 23.59 34.5 24.66 34.28 25.75 34.14 26.85 34.09"/>
          <polygon class="cls-2" points="26.94 62.53 25.77 62.49 24.6 62.36 23.45 62.13 22.32 61.82 21.22 61.42 20.15 60.94 19.12 60.38 18.14 59.74 17.21 59.02 16.34 58.24 15.53 57.38 14.79 56.47 14.12 55.51 13.54 54.5 13.03 53.44 12.6 52.35 12.26 51.22 12.01 50.08 11.85 48.92 11.78 47.75 11.79 46.57 11.9 45.41 12.1 44.25 12.39 43.11 12.77 42 13.23 40.92 13.77 39.89 14.4 38.89 15.09 37.95 15.86 37.06 16.7 36.24 17.59 35.48 18.55 34.8 19.55 34.19 20.59 33.66 21.68 33.21 22.79 32.85 23.94 32.58 25.09 32.39 26.26 32.3 27.43 32.29 28.6 32.38 29.76 32.56 30.91 32.83 32.02 33.18 33.11 33.62 34.16 34.15 35.17 34.75 36.12 35.43 37.02 36.18 37.86 37 38.64 37.88 39.34 38.82 39.97 39.81 40.52 40.84 40.98 41.92 41.37 43.03 41.66 44.16 41.87 45.32 41.99 46.48 42.01 47.66 41.95 48.83 41.79 49.99 41.55 51.14 41.22 52.26 40.8 53.36 40.29 54.42 39.71 55.43 39.05 56.4 38.32 57.32 37.51 58.17 36.65 58.96 35.72 59.68 34.75 60.33 33.72 60.9 32.65 61.39 31.55 61.79 30.42 62.11 29.27 62.34 28.11 62.48 26.94 62.53"/>
          <polygon class="cls-2" points="26.85 32.99 25.71 33.04 24.57 33.18 23.45 33.41 22.34 33.73 21.27 34.14 20.24 34.62 19.24 35.19 18.29 35.84 17.4 36.56 16.57 37.35 15.8 38.2 15.11 39.11 14.49 40.07 13.94 41.08 13.48 42.13 13.1 43.21 12.81 44.32 12.61 45.45 12.5 46.59 12.48 47.74 12.56 48.88 12.72 50.02 12.97 51.13 13.31 52.23 13.74 53.29 14.25 54.32 14.83 55.3 15.5 56.23 16.24 57.11 17.04 57.93 17.91 58.68 18.83 59.36 19.81 59.96 20.83 60.48 21.88 60.92 22.97 61.28 24.09 61.55 25.22 61.72 26.36 61.81 27.51 61.81 28.65 61.71 29.78 61.53 30.9 61.25 31.98 60.89 33.04 60.45 34.05 59.92 35.03 59.31 35.95 58.62 36.81 57.87 37.61 57.05 38.34 56.17 39 55.23 39.58 54.24 40.09 53.21 40.51 52.15 40.84 51.05 41.08 49.93 41.24 48.8 41.3 47.65 41.28 46.51 41.16 45.37 40.95 44.24 40.66 43.13 40.27 42.05 39.81 41 39.26 40 38.63 39.04 37.93 38.13 37.16 37.29 36.32 36.5 35.42 35.79 34.47 35.15 33.48 34.58 32.44 34.1 31.36 33.7 30.26 33.39 29.13 33.17 28 33.04 26.85 32.99"/>
          <line class="cls-2" x1="31.85" y1="1.53" x2="31.85" y2="3.78"/>
          <line class="cls-2" x1="23.57" y1="1.53" x2="31.85" y2="1.53"/>
          <polyline class="cls-2" points="23.57 3.73 23.57 3.72 23.57 1.53"/>
          <line class="cls-2" x1="42.55" y1="89.31" x2="40.23" y2="89.31"/>
          <line class="cls-2" x1="40.23" y1="94.78" x2="42.55" y2="94.78"/>
          <line class="cls-2" x1="11.23" y1="94.78" x2="13.56" y2="94.78"/>
          <line class="cls-2" x1="13.56" y1="89.31" x2="11.23" y2="89.31"/>
          <polyline class="cls-2" points="42.39 141.31 42.47 141.31 42.55 141.31 42.63 141.29 42.7 141.28 42.78 141.26 42.86 141.24 42.93 141.21 43.01 141.18"/>
          <polyline class="cls-2" points="12.84 141.31 12.76 141.31 12.68 141.31 12.61 141.29 12.53 141.28 12.45 141.26 12.38 141.24 12.3 141.21 12.24 141.18"/>
          <polyline class="cls-2" points="10.67 140.65 10.81 140.68 11.08 140.74 11.4 140.84 11.79 140.98 12.23 141.18 12.24 141.18"/>
          <polyline class="cls-2" points="43.01 141.17 43.03 141.16 43.45 140.97 43.81 140.84 44.12 140.75 44.38 140.68 44.53 140.65"/>
          <line class="cls-2" x1="63.97" y1="33.19" x2="57.93" y2="33.19"/>
          <line class="cls-2" x1="57.93" y1="107.71" x2="63.97" y2="107.71"/>
          <line class="cls-2" x1="57.93" y1="11.77" x2="57.85" y2="11.77"/>
          <line class="cls-2" x1="57.85" y1="129.13" x2="57.93" y2="129.13"/>
          <polyline class="cls-2" points="57.85 7.45 57.81 6.64 57.67 5.85 57.45 5.07 57.14 4.32 56.75 3.62 56.28 2.96 55.74 2.36 55.14 1.82 54.48 1.35 53.78 .96 53.03 .65 52.26 .43 51.46 .29 50.65 .25"/>
          <polyline class="cls-2" points="50.65 140.65 51.46 140.6 52.26 140.47 53.03 140.24 53.78 139.93 54.48 139.54 55.14 139.08 55.74 138.54 56.28 137.94 56.75 137.28 57.14 136.57 57.45 135.83 57.67 135.05 57.81 134.25 57.85 133.45"/>
          <line class="cls-2" x1="50.65" y1=".25" x2=".25" y2=".25"/>
          <polyline class="cls-2" points=".25 140.65 10.67 140.65 15.7 140.65"/>
          <polyline class="cls-2" points="39.52 140.65 44.53 140.65 50.65 140.65"/>
        </g>
      </g>
    </g>
  </g>
</svg>