<?xml version="1.0" encoding="UTF-8"?>
<svg id="Layer_2" data-name="Layer 2" xmlns="http://www.w3.org/2000/svg" viewBox="0 0 101.29 235.22">
  <defs>
    <style>
      .cls-1 {
        fill: none;
        stroke: #010101;
        stroke-linecap: round;
        stroke-linejoin: round;
        stroke-width: .51px;
      }

      .cls-2 {
        fill: #6d6c6d;
      }

      .cls-3 {
        fill: #9895c9;
      }

      .cls-4 {
        fill: #4b4b4b;
      }
    </style>
  </defs>
  <g id="Optical_elements" data-name="Optical elements">
    <g id="IO-5-670_Optical_isolator" data-name="IO-5-670 Optical isolator">
      <g>
        <polygon class="cls-4" points="84.09 .25 84.24 .25 86.34 2.5 86.19 2.5 86.04 2.5 85.74 2.5 85.29 2.5 84.69 2.5 84.09 2.5 83.34 2.5 82.59 2.5 81.69 2.5 80.64 2.5 79.59 2.5 78.39 2.5 77.19 2.5 75.84 2.5 74.49 2.5 72.99 2.5 71.49 2.5 69.99 2.5 68.34 2.5 66.69 2.5 64.89 2.5 63.09 2.5 61.29 2.5 59.49 2.5 57.54 2.5 55.74 2.5 53.79 2.5 51.84 2.5 50.04 2.5 48.09 2.5 46.14 2.5 44.34 2.5 42.39 2.5 40.59 2.5 38.79 2.5 36.99 2.5 35.19 2.5 33.54 2.5 31.89 2.5 30.24 2.5 28.75 2.5 27.25 2.5 25.9 2.5 24.55 2.5 23.2 2.5 22.15 2.5 20.95 2.5 19.9 2.5 19 2.5 18.25 2.5 17.5 2.5 16.9 2.5 16.3 2.5 15.85 2.5 15.55 2.5 15.25 2.5 15.1 2.5 17.2 .25 17.35 .25 17.5 .25 17.8 .25 18.1 .25 18.55 .25 19.15 .25 19.9 .25 20.65 .25 21.4 .25 22.45 .25 23.5 .25 24.55 .25 25.75 .25 27.1 .25 28.45 .25 29.79 .25 31.29 .25 32.79 .25 34.44 .25 36.09 .25 37.74 .25 39.39 .25 41.19 .25 42.99 .25 44.79 .25 46.59 .25 48.54 .25 50.34 .25 52.14 .25 54.09 .25 55.89 .25 57.69 .25 59.49 .25 61.29 .25 62.94 .25 64.74 .25 66.39 .25 68.04 .25 69.54 .25 71.04 .25 72.54 .25 73.89 .25 73.89 .4 74.04 .25 74.94 .4 74.94 .25 76.14 .25 77.34 .25 78.39 .25 79.44 .25 80.34 .25 81.09 .25 81.84 .25 82.44 .25 83.04 .25 83.49 .25 83.79 .25 83.94 .25 84.09 .25"/>
        <polygon class="cls-4" points="86.19 2.5 86.34 2.5 86.34 3.85 86.04 3.85 85.74 3.85 85.29 3.85 84.84 3.85 84.24 3.85 83.49 3.85 82.74 3.85 81.84 3.85 80.79 3.85 79.74 3.85 78.54 3.85 77.34 3.85 75.99 3.85 74.64 3.85 73.14 3.85 71.64 3.85 70.14 3.85 68.49 3.85 66.84 3.85 65.04 3.85 63.24 3.85 61.44 3.85 59.64 3.85 57.84 3.85 55.89 3.85 54.09 3.85 52.14 3.85 50.19 3.85 48.39 3.85 46.44 3.85 44.49 3.85 42.69 3.85 40.89 3.85 38.94 3.85 37.29 3.85 35.49 3.85 33.84 3.85 32.19 3.85 30.54 3.85 29.05 3.85 27.55 3.85 26.05 3.85 24.7 3.85 23.5 3.85 22.3 3.85 21.1 3.85 20.05 3.85 19.15 3.85 18.25 3.85 17.5 3.85 16.9 3.85 16.3 3.85 15.85 3.85 15.4 3.85 15.25 3.85 15.1 3.85 15.1 2.5 15.25 2.5 15.55 2.5 15.85 2.5 16.3 2.5 16.9 2.5 17.5 2.5 18.25 2.5 19 2.5 19.9 2.5 20.95 2.5 22.15 2.5 23.2 2.5 24.55 2.5 25.9 2.5 27.25 2.5 28.75 2.5 30.24 2.5 31.89 2.5 33.54 2.5 35.19 2.5 36.99 2.5 38.79 2.5 40.59 2.5 42.39 2.5 44.34 2.5 46.14 2.5 48.09 2.5 50.04 2.5 51.84 2.5 53.79 2.5 55.74 2.5 57.54 2.5 59.49 2.5 61.29 2.5 63.09 2.5 64.89 2.5 66.69 2.5 68.34 2.5 69.99 2.5 71.49 2.5 72.99 2.5 74.49 2.5 75.84 2.5 77.19 2.5 78.39 2.5 79.59 2.5 80.64 2.5 81.69 2.5 82.59 2.5 83.34 2.5 84.09 2.5 84.69 2.5 85.29 2.5 85.74 2.5 86.04 2.5 86.19 2.5"/>
        <path class="cls-4" d="M73.67,31.81l-.23.08-1.35.6-1.2,1.05-1.05,1.2-1.05,1.35-.75,1.65-.6,1.8-.3,1.65.15,1.95.15,1.65.6,1.65.75,1.5.72,1.07.18.28,1.2,1.35,1.2.9,1.35.75.14.04,1.21.41,1.35.15,1.2-.15,1.05-.45,1.05-.75.9-.9.6-1.35.6-1.35.45-1.65.3-1.8.15-1.8v-1.65l-.15-1.8-.3-1.65-.45-1.5-.6-1.35-.75-1.2-.9-1.05-1.05-.75-1.05-.3-1.2-.15-1.2.15-1.12.37ZM86.34,3.85h.14v53.99H14.95V3.85h71.39Z"/>
        <polygon class="cls-4" points="77.42 43.89 77.49 42.99 77.49 41.19 77.34 39.54 77.19 37.89 76.74 36.39 76.29 35.04 75.69 33.69 75.14 33.05 74.79 32.64 73.74 31.89 73.67 31.81 74.79 31.44 75.99 31.29 77.19 31.44 78.24 31.74 79.29 32.49 80.19 33.54 80.94 34.74 81.54 36.09 81.99 37.59 82.29 39.24 82.44 41.04 82.44 42.69 82.29 44.49 81.99 46.29 81.54 47.94 80.94 49.29 80.34 50.64 79.44 51.54 78.39 52.29 77.34 52.74 76.14 52.89 74.79 52.74 73.58 52.33 73.59 52.29 74.64 51.69 75.39 50.64 76.14 49.59 76.74 48.09 77.19 46.59 77.34 44.79 77.42 43.89"/>
        <polygon class="cls-3" points="73.67 31.81 73.74 31.89 74.79 32.64 75.14 33.05 75.09 33.09 71.64 33.09 71.64 43.89 71.49 44.79 71.34 45.84 71.04 46.74 70.59 47.79 70.14 48.39 69.54 48.99 69.51 49.01 68.79 47.94 68.04 46.44 67.44 44.79 67.29 43.14 67.14 41.19 67.44 39.54 68.04 37.74 68.79 36.09 69.84 34.74 70.89 33.54 72.09 32.49 73.44 31.89 73.67 31.81"/>
        <polygon class="cls-4" points="75.09 33.09 75.14 33.05 75.69 33.69 76.29 35.04 76.74 36.39 77.19 37.89 77.34 39.54 77.49 41.19 77.49 42.99 77.42 43.89 71.64 43.89 71.64 33.09 75.09 33.09"/>
        <polygon class="cls-4" points="71.64 43.89 77.42 43.89 77.34 44.79 77.19 46.59 76.74 48.09 76.14 49.59 75.39 50.64 74.64 51.69 73.59 52.29 73.58 52.33 73.44 52.29 72.09 51.54 70.89 50.64 69.69 49.29 69.51 49.01 69.54 48.99 70.14 48.39 70.59 47.79 71.04 46.74 71.34 45.84 71.49 44.79 71.64 43.89"/>
        <path class="cls-4" d="M7.6,65.94h.15v.15l.15.3v1.05l.15-.15v-1.5l-.15-.3v-.3l-.15-.3v-.15h-.15v1.2ZM7.6,66.24l-.15.3v-7.95h86.38v6.3h-.3l-.15,5.09.15.15v-.3l.15-.3v-.3l.15.15v4.2l-.15.15-.15-.15v-1.65l-.15.15v1.65l.15.45v.6l.15.15h.15v6H7.45v-7.5l.15.3v1.2h.15v-.3l.15-.3v-.45l.15-.45v-3.75l-.15-.45v-.75l-.15-.15v-.15h-.15v-1.94ZM84.09,64.59h-.6l-.45.15-.3.15-.3.15-.3.15-.3.3-.45.75-.3.3-.15.45-.3.9v.44l-.15.6v1.95l.15.45v.45l.3.9.45.75.45.75.6.45.3.15.3.15h1.35l.3-.15.3-.15.3-.3.15-.15.3-.45.15-.3.3-.75.29-.9v-.45l.15-.6v-1.95l-.15-.45v-.44l-.29-.9-.3-.9-.45-.6-.45-.45-.3-.15-.3-.15-.3-.15ZM79.14,64.74h-1.05v10.04h1.05v-10.04ZM20.95,64.74h-2.55v10.04h1.05v-4.05h2.1l.3-.15h.3l.3-.15.15-.15.45-.3.15-.15.15-.3.15-.3.15-.3.15-.45v-1.79l-.45-.9-.15-.3-.45-.3-.6-.3-1.2-.15ZM16.9,64.74h-.9v4.19h-2.7v-4.19h-.6v10.04h.6v-4.8h2.7v4.8h.9v-10.04ZM9.25,64.74h-.3l-.15.15v.15l-.15.15-.15.6v.75l-.15.75v5.69l.15.45v.75l.15.15v.15l.15.3.15.15h.3v-.15h.15l.15-.3.15-.3v-.3l.15-.3v-.9l.15-.45v-4.94l-.15-.75v-.45l-.15-.3v-.3l-.15-.3-.15-.15-.15-.15v-.15ZM91.73,64.89h-1.65l-.45,5.09.6.15v-.3l.15-.3.3-.15.15-.15.3.15.15.15.15.3v.75l.15.9-.15.9v.75l-.15.3-.15.15-.3.15h-.3l-.15-.15v-.3l-.15-.6-.15-.75-.45.15v1.2l.15.45.15.45.3.3.15.3.15.15h.6l.15-.3.3-.3.15-.6v-.6l.15-.15v-2.85l-.15-.6v-.45l-.15-.45-.15-.3-.3-.15-.15-.14-.45.29-.3.45.3-2.54h1.2v-1.35ZM51.39,64.89h-1.35l-.6.15-.6.3-.45.3-.6.45-.3.6-.3.6-.15.6-.15.59v.6l.15.75.15.6.45.45.3.6.6.3.45.3.6.3.6.15h.75l.6-.15.6-.15.6-.3.45-.45.45-.45.45-.45.3-.6.15-.6v-.75l-.15-.74-.15-.6-.3-.6-.45-.6-.45-.3-.45-.45-.6-.3-.6-.15ZM93.08,70.73h-.9v1.05h.9v-1.05ZM89.03,70.73h-1.8v1.05h1.8v-1.05ZM11.95,70.73h-1.5v1.05h1.5v-1.05Z"/>
        <polygon class="cls-4" points="47.94 67.14 50.64 65.49 53.49 67.14 53.49 70.28 50.64 71.93 47.94 70.28 47.94 67.14"/>
        <polygon class="cls-4" points="83.94 65.79 84.24 65.79 84.39 65.94 84.69 66.09 84.84 66.24 84.99 66.54 85.29 66.99 85.59 67.59 85.74 68.33 85.74 68.78 85.74 69.23 85.74 69.83 85.74 70.13 85.74 70.58 85.74 70.88 85.74 71.18 85.59 71.63 85.59 71.93 85.29 72.53 84.99 73.13 84.69 73.43 84.39 73.58 84.24 73.73 84.09 73.73 83.94 73.73 83.79 73.73 83.49 73.73 83.34 73.73 82.89 73.43 82.44 73.13 81.99 72.68 81.84 72.08 81.54 71.33 81.54 70.88 81.54 70.43 81.54 69.98 81.54 68.48 81.69 67.74 81.99 66.99 82.29 66.54 82.74 66.09 83.19 65.79 83.79 65.79 83.94 65.79"/>
        <polygon class="cls-2" points="93.68 82.43 93.83 82.43 93.83 103.28 92.48 103.28 90.38 103.28 88.43 103.28 86.34 103.28 84.09 103.28 81.84 103.28 79.59 103.28 77.19 103.28 74.79 103.28 72.39 103.28 69.84 103.28 67.29 103.28 64.74 103.28 62.19 103.28 59.64 103.28 56.94 103.28 54.39 103.28 52.89 104.63 52.89 111.83 48.39 111.83 48.39 104.63 47.04 103.28 44.34 103.28 41.79 103.28 39.24 103.28 36.69 103.28 34.14 103.28 31.59 103.28 29.05 103.28 26.65 103.28 24.25 103.28 21.85 103.28 19.6 103.28 17.35 103.28 15.1 103.28 13 103.28 10.9 103.28 8.95 103.28 7.45 103.28 7.45 82.43 7.6 82.43 7.75 82.43 7.9 82.43 8.2 82.43 8.65 82.43 9.25 82.43 9.85 82.43 10.6 82.43 11.5 82.43 12.4 82.43 13.45 82.43 14.5 82.43 15.7 82.43 16.9 82.43 18.25 82.43 19.75 82.43 21.25 82.43 22.75 82.43 24.4 82.43 26.2 82.43 27.85 82.43 29.79 82.43 31.59 82.43 33.54 82.43 35.49 82.43 37.44 82.43 39.39 82.43 41.49 82.43 43.59 82.43 45.69 82.43 47.79 82.43 49.89 82.43 51.99 82.43 54.09 82.43 56.19 82.43 58.29 82.43 60.24 82.43 62.34 82.43 64.29 82.43 66.39 82.43 68.19 82.43 70.14 82.43 71.94 82.43 73.89 82.43 75.54 82.43 77.19 82.43 78.84 82.43 80.49 82.43 81.99 82.43 83.34 82.43 84.69 82.43 85.89 82.43 87.08 82.43 88.13 82.43 89.18 82.43 90.08 82.43 90.98 82.43 91.58 82.43 92.33 82.43 92.78 82.43 93.23 82.43 93.53 82.43 93.68 82.43"/>
        <polygon class="cls-4" points="99.38 104.63 101.03 104.63 101.03 130.57 99.38 130.57 97.58 130.57 95.78 130.57 93.83 130.57 91.88 130.57 89.78 130.57 87.68 130.57 85.44 130.57 85.14 130.57 85.14 127.72 87.23 127.57 89.33 127.27 90.68 126.97 92.03 126.37 93.38 125.62 94.58 124.58 95.63 123.23 96.23 122.33 96.68 121.13 97.13 120.08 97.28 118.88 97.28 117.53 97.28 116.18 96.98 114.98 96.53 113.78 96.08 112.73 95.48 111.68 94.73 110.78 93.53 109.73 92.18 108.98 90.53 108.38 88.88 107.93 87.08 107.63 87.08 104.63 87.68 104.63 89.78 104.63 91.88 104.63 93.83 104.63 95.78 104.63 97.58 104.63 99.38 104.63"/>
        <polygon class="cls-4" points="85.44 104.63 87.08 104.63 87.08 107.63 85.14 107.63 83.04 107.63 80.79 107.63 78.54 107.63 76.14 107.63 73.74 107.63 71.34 107.63 68.94 107.63 66.54 107.63 63.99 107.63 61.44 107.63 61.44 107.93 61.44 114.38 61.44 114.53 61.44 115.43 61.44 116.48 61.44 117.38 61.44 118.43 61.44 119.33 61.44 120.38 61.44 120.83 61.44 127.42 61.44 127.72 63.99 127.72 66.54 127.72 68.94 127.72 71.34 127.72 73.74 127.72 76.14 127.72 78.54 127.72 80.79 127.72 83.04 127.72 85.14 127.72 85.14 130.57 83.19 130.57 80.94 130.57 78.54 130.57 76.14 130.57 73.74 130.57 71.19 130.57 68.64 130.57 66.09 130.57 63.54 130.57 60.84 130.57 58.29 130.57 55.59 130.57 52.89 130.57 52.89 123.53 52.89 111.83 52.89 104.63 55.59 104.63 58.29 104.63 60.84 104.63 63.54 104.63 66.09 104.63 68.64 104.63 71.19 104.63 73.74 104.63 76.14 104.63 78.54 104.63 80.94 104.63 83.19 104.63 85.44 104.63"/>
        <path class="cls-4" d="M45.84,104.63h2.55v25.94H.25v-25.94h45.59ZM16.15,112.73l-1.35.15-1.5.3-1.05.45-.9.6-.6.45-.6.75-.45.9-.15,1.05v.6l.15.6.15.6.15.45.45.6.45.6.75.6.9.45,1.2.45,1.35.15h1.65l1.65-.15,1.65-.3,1.8-.6,1.65-.9.6-.6.6-.6.3-.3.3-.45.15-.75v-.6l-.15-.45-.3-.45-.45-.6-.9-.75-.9-.6-1.05-.45-1.2-.45-2.25-.6-2.1-.15Z"/>
        <polygon class="cls-4" points="85.14 107.63 87.08 107.63 88.88 107.93 90.53 108.38 92.18 108.98 93.53 109.73 94.73 110.78 95.48 111.68 96.08 112.73 96.53 113.78 96.98 114.98 97.28 116.18 97.28 117.53 97.28 118.88 97.13 120.08 96.68 121.13 96.23 122.33 95.63 123.23 94.58 124.58 93.38 125.62 92.03 126.37 90.68 126.97 89.33 127.27 87.23 127.57 85.14 127.72 83.04 127.72 80.79 127.72 78.54 127.72 76.14 127.72 73.74 127.72 71.34 127.72 68.94 127.72 66.54 127.72 63.99 127.72 61.44 127.72 61.44 127.42 73.29 127.42 73.29 127.27 73.29 127.12 73.29 126.82 73.29 126.37 73.29 125.92 73.29 125.32 73.29 124.58 73.29 123.83 73.29 123.08 73.29 122.18 73.29 121.28 73.29 120.38 73.29 119.33 73.29 118.43 73.29 117.38 73.29 116.48 73.29 115.43 73.29 114.53 73.29 113.48 73.29 112.73 73.29 111.83 73.29 111.08 73.29 110.33 73.29 109.73 73.29 109.13 73.29 108.68 73.29 108.38 73.29 108.08 73.29 107.93 61.44 107.93 61.44 107.63 63.99 107.63 66.54 107.63 68.94 107.63 71.34 107.63 73.74 107.63 76.14 107.63 78.54 107.63 80.79 107.63 83.04 107.63 85.14 107.63"/>
        <polygon class="cls-2" points="61.44 107.93 73.29 107.93 73.29 108.08 73.29 108.38 73.29 108.68 73.29 109.13 73.29 109.73 73.29 110.33 73.29 111.08 73.29 111.83 73.29 112.73 73.29 113.48 73.29 114.53 73.29 115.43 73.29 116.48 73.29 117.38 73.29 118.43 73.29 119.33 73.29 120.38 73.29 121.28 73.29 122.18 73.29 123.08 73.29 123.83 73.29 124.58 73.29 125.32 73.29 125.92 73.29 126.37 73.29 126.82 73.29 127.12 73.29 127.27 73.29 127.42 61.44 127.42 61.44 120.83 61.44 120.38 61.44 119.33 61.44 118.43 61.44 117.38 61.44 116.48 61.44 115.43 61.44 114.53 61.44 114.38 61.44 107.93"/>
        <rect class="cls-2" x="48.39" y="111.83" width="4.5" height="11.7"/>
        <polygon class="cls-2" points="14.8 112.88 16.15 112.73 18.25 112.88 20.5 113.48 21.7 113.93 22.75 114.38 23.65 114.98 24.55 115.73 25 116.33 25.3 116.78 25.45 117.23 25.45 117.83 25.3 118.58 25 119.03 24.7 119.33 24.1 119.93 23.5 120.53 21.85 121.43 20.05 122.03 18.4 122.33 16.75 122.48 15.1 122.48 13.75 122.33 12.55 121.88 11.65 121.43 10.9 120.83 10.45 120.23 10 119.63 9.85 119.18 9.7 118.58 9.55 117.98 9.55 117.38 9.7 116.33 10.15 115.43 10.75 114.68 11.35 114.23 12.25 113.63 13.3 113.18 14.8 112.88"/>
        <polygon class="cls-2" points="48.39 123.53 52.89 123.53 52.89 130.57 54.39 132.07 56.94 132.07 59.64 132.07 62.19 132.07 64.74 132.07 67.29 132.07 69.84 132.07 72.39 132.07 74.79 132.07 77.19 132.07 79.59 132.07 81.84 132.07 84.09 132.07 86.34 132.07 88.43 132.07 90.38 132.07 92.48 132.07 93.83 132.07 93.83 152.92 93.68 152.92 93.38 152.92 93.08 152.92 92.48 152.92 92.03 152.92 91.28 152.92 90.53 152.92 89.63 152.92 88.73 152.92 87.68 152.92 86.48 152.92 85.29 152.92 84.09 152.92 82.59 152.92 81.24 152.92 79.74 152.92 78.09 152.92 76.44 152.92 74.64 152.92 72.99 152.92 71.04 152.92 69.24 152.92 67.29 152.92 65.34 152.92 63.39 152.92 61.29 152.92 59.19 152.92 57.24 152.92 55.14 152.92 53.04 152.92 50.94 152.92 48.84 152.92 46.74 152.92 44.64 152.92 42.54 152.92 40.44 152.92 38.49 152.92 36.39 152.92 34.44 152.92 32.49 152.92 30.69 152.92 28.9 152.92 27.1 152.92 25.3 152.92 23.65 152.92 22 152.92 20.5 152.92 19 152.92 17.65 152.92 16.3 152.92 15.1 152.92 13.9 152.92 12.85 152.92 11.95 152.92 11.05 152.92 10.3 152.92 9.55 152.92 8.95 152.92 8.5 152.92 8.05 152.92 7.75 152.92 7.6 152.92 7.45 152.92 7.45 132.07 8.95 132.07 10.9 132.07 13 132.07 15.1 132.07 17.35 132.07 19.6 132.07 21.85 132.07 24.25 132.07 26.65 132.07 29.05 132.07 31.59 132.07 34.14 132.07 36.69 132.07 39.24 132.07 41.79 132.07 44.34 132.07 47.04 132.07 48.39 130.57 48.39 123.53"/>
        <path class="cls-4" d="M93.68,154.42h.15v6l-.15.15v.45l-.15.15v1.2l-.15.3v5.85l.15.75v.3l.15.3v.6l.15.15v6H7.45v-6.75l.15-.6v-7.35l-.15-.45v-7.05h86.23ZM92.93,160.42h-.3v4.2h-1.35v-4.2h-.45v10.2h.45v-4.8h1.35v4.8h.3v-10.2ZM90.23,160.42h-3.89v1.2h1.79v9h.6v-9h1.5v-1.2ZM29.05,160.42h-1.5l-.3.15-.6.15-.45.3-.15.15-.15.3-.3.45-.3.6v.9l.15.45.15.6.45.45.45.45.45.15.45.15.6.3.45.15.6.15.45.15.44.15.3.3.15.45v.9l-.15.3-.15.3-.3.3-.59.3-.75.15h-.45l-.45-.15-.3-.3-.45-.15-.3-.45-.15-.45-.15-.3v-.75h-1.2v.6l.15.45.15.6.15.3.15.3.45.6.45.45.75.15.3.15h.6l.3.15.3-.15h.6l.3-.15.59-.15.45-.3.15-.3.3-.15.3-.6.15-.6.15-.3v-.3l-.15-.9-.3-.6-.45-.6-.75-.45-.3-.15-.44-.15-.45-.15-.45-.15h-.3l-.15-.15h-.3l-.15-.15h-.3l-.3-.15-.15-.3-.15-.15-.15-.15v-.9l.15-.3.15-.3.3-.3.6-.15.6-.15.6.15.45.15.3.15.14.3.3.3.15.75h1.2v-.6l-.3-.6-.3-.6-.45-.45-.45-.3-.59-.15-.3-.15ZM21.1,160.42h-2.55v10.2h2.55l1.05-.15.45-.15.45-.3.45-.45.3-.6.15-.6v-1.5l-.45-.75-.45-.45-.6-.45.3-.15.15-.15.45-.45.3-.75v-1.2l-.15-.6-.3-.45-.3-.45-.45-.3-.45-.15-.9-.15ZM15.4,160.42h-.9l-2.1,10.2v-1.2h-1.95v-9h-.6v10.2h3.3l.6-3.15h2.4l.75,3.15h.9l-2.4-10.2ZM8.35,160.42h-.6v10.2h.15v-4.5h.3l.15.15v.15l.15.6.15,1.35.3,2.25h.45l-.45-2.85v-.3l-.15-.45v-.3l-.15-.3-.15-.45.15-.15.15-.15.15-.3v-.3l.15-.3v-.6l.15-.3v-1.35l-.15-.3v-.75l-.15-.3v-.15l-.15-.3v-.15h-.3l-.15-.15ZM50.49,165.52l-3.6-5.1-3.45,5.1h1.65v5.1h3.6v-5.1h1.8ZM78.39,165.52l-2.85-5.1-3.15,5.1h1.65v5.1h2.85v-5.1h1.5ZM62.34,162.82h-1.35l-.6.3-.45.3-.6.3-.45.45-.3.6-.3.6-.15.6v.6l.15.9.15.6.3.6.3.45.45.45.6.45.6.15.6.15.6.15.6-.15.6-.15.6-.15.45-.45.45-.45.45-.45.15-.6.3-.6v-1.35l-.15-.6-.15-.6-.3-.45-.45-.6-.45-.45-.45-.3-.6-.15-.6-.15Z"/>
        <polygon class="cls-4" points="21.25 161.62 21.4 161.62 21.7 161.77 22 161.92 22.3 162.07 22.45 162.37 22.6 162.82 22.6 162.97 22.6 163.27 22.6 163.72 22.45 164.17 22.15 164.47 21.85 164.62 21.55 164.77 21.4 164.77 21.25 164.77 20.95 164.77 20.8 164.77 20.65 164.77 20.35 164.77 20.2 164.77 20.05 164.77 19.9 164.77 19.6 164.77 19.45 164.77 19.45 161.62 19.6 161.62 19.75 161.62 20.05 161.62 20.2 161.62 20.35 161.62 20.5 161.62 20.65 161.62 20.8 161.62 21.1 161.62 21.25 161.62"/>
        <polygon class="cls-4" points="8.2 161.62 8.35 161.62 8.5 161.77 8.65 161.77 8.65 162.07 8.8 162.22 8.8 162.52 8.8 163.27 8.8 163.42 8.8 163.57 8.8 164.02 8.8 164.32 8.65 164.62 8.65 164.77 8.5 164.77 8.35 164.92 8.2 164.92 8.05 164.92 7.9 164.92 7.9 161.62 8.05 161.62 8.2 161.62"/>
        <polygon class="cls-4" points="14.95 161.62 15.4 163.72 15.85 166.27 15.7 166.27 15.4 166.27 15.1 166.27 14.95 166.27 14.65 166.27 14.5 166.27 14.2 166.27 13.9 166.27 14.5 163.57 14.65 163.12 14.65 162.82 14.8 162.37 14.8 162.07 14.95 161.62"/>
        <polygon class="cls-4" points="63.84 164.77 64.14 167.92 61.74 169.72 61.74 169.73 59.19 168.52 58.89 165.22 61.44 163.42 64.29 164.77 63.84 164.77"/>
        <polygon class="cls-4" points="21.4 165.97 21.7 165.97 22 166.12 22.3 166.27 22.6 166.42 22.75 166.87 22.9 167.17 22.9 167.47 22.9 167.62 22.75 168.22 22.6 168.82 22.45 168.97 22.3 169.12 21.85 169.42 21.25 169.42 20.95 169.42 20.8 169.42 20.5 169.42 20.35 169.42 20.05 169.42 19.9 169.42 19.75 169.42 19.45 169.42 19.45 165.97 19.75 165.97 19.9 165.97 20.05 165.97 20.2 165.97 20.5 165.97 20.65 165.97 20.8 165.97 21.1 165.97 21.4 165.97"/>
        <polygon class="cls-4" points="86.34 177.37 86.48 177.37 86.48 200.46 86.48 200.61 86.34 200.91 86.19 201.66 85.89 202.71 85.59 203.91 85.29 205.26 85.14 206.76 84.99 208.41 84.84 210.06 84.84 211.86 84.84 213.66 85.14 215.46 85.29 217.11 85.59 218.46 85.89 219.66 86.04 220.71 86.34 221.46 86.48 221.91 86.48 222.06 86.48 231.36 86.34 231.36 86.04 231.36 85.74 231.36 85.29 231.36 84.69 231.36 84.09 231.36 83.34 231.36 82.44 231.36 81.54 231.36 80.49 231.36 79.44 231.36 78.24 231.36 77.04 231.36 75.69 231.36 74.19 231.36 72.84 231.36 71.34 231.36 69.69 231.36 68.04 231.36 66.39 231.36 64.59 231.36 62.79 231.36 60.99 231.36 59.19 231.36 57.39 231.36 55.44 231.36 53.49 231.36 51.69 231.36 49.74 231.36 47.79 231.36 45.99 231.36 44.04 231.36 42.24 231.36 40.44 231.36 38.49 231.36 36.84 231.36 35.04 231.36 33.39 231.36 31.74 231.36 30.09 231.36 28.6 231.36 27.1 231.36 25.75 231.36 24.4 231.36 23.2 231.36 22 231.36 20.95 231.36 19.9 231.36 19 231.36 18.1 231.36 17.35 231.36 16.75 231.36 16.15 231.36 15.7 231.36 15.4 231.36 15.1 231.36 14.95 231.36 14.95 204.06 14.95 203.91 15.1 203.46 15.25 202.71 15.55 201.81 15.85 200.61 16.15 199.11 16.3 197.61 16.45 195.81 16.6 194.01 16.6 192.21 16.45 190.56 16.3 188.91 16.15 187.41 15.85 185.91 15.55 184.71 15.25 183.66 15.1 183.06 14.95 182.61 14.95 182.46 14.95 177.37 15.85 177.37 17.05 177.37 18.25 177.37 19.75 177.37 21.1 177.37 22.75 177.37 24.25 177.37 25.9 177.37 27.7 177.37 29.5 177.37 31.29 177.37 33.24 177.37 35.04 177.37 36.99 177.37 39.09 177.37 41.04 177.37 43.14 177.37 45.09 177.37 47.19 177.37 49.29 177.37 51.39 177.37 53.49 177.37 55.59 177.37 57.69 177.37 59.64 177.37 61.74 177.37 63.69 177.37 65.64 177.37 67.59 177.37 69.54 177.37 71.34 177.37 73.14 177.37 74.94 177.37 76.59 177.37 78.24 177.37 79.74 177.37 81.24 177.37 82.59 177.37 83.94 177.37 85.29 177.37 86.34 177.37"/>
        <polygon class="cls-4" points="86.04 231.36 86.34 231.36 86.34 232.86 86.19 232.86 85.89 232.86 85.59 232.86 84.99 232.86 84.54 232.86 83.79 232.86 83.04 232.86 82.29 232.86 81.39 232.86 80.34 232.86 79.14 232.86 77.94 232.86 76.74 232.86 75.39 232.86 74.04 232.86 72.54 232.86 70.89 232.86 69.39 232.86 67.74 232.86 65.94 232.86 64.29 232.86 62.49 232.86 60.69 232.86 58.74 232.86 56.94 232.86 54.99 232.86 53.04 232.86 51.24 232.86 49.29 232.86 47.34 232.86 45.39 232.86 43.59 232.86 41.64 232.86 39.84 232.86 38.04 232.86 36.24 232.86 34.59 232.86 32.94 232.86 31.29 232.86 29.65 232.86 28.15 232.86 26.65 232.86 25.3 232.86 24.1 232.86 22.75 232.86 21.7 232.86 20.65 232.86 19.6 232.86 18.7 232.86 17.95 232.86 17.2 232.86 16.6 232.86 16.15 232.86 15.7 232.86 15.4 232.86 15.25 232.86 15.1 232.86 15.1 231.36 15.4 231.36 15.7 231.36 16.15 231.36 16.75 231.36 17.35 231.36 18.1 231.36 19 231.36 19.9 231.36 20.95 231.36 22 231.36 23.2 231.36 24.4 231.36 25.75 231.36 27.1 231.36 28.6 231.36 30.09 231.36 31.74 231.36 33.39 231.36 35.04 231.36 36.84 231.36 38.49 231.36 40.44 231.36 42.24 231.36 44.04 231.36 45.99 231.36 47.79 231.36 49.74 231.36 51.69 231.36 53.49 231.36 55.44 231.36 57.39 231.36 59.19 231.36 60.99 231.36 62.79 231.36 64.59 231.36 66.39 231.36 68.04 231.36 69.69 231.36 71.34 231.36 72.84 231.36 74.19 231.36 75.69 231.36 77.04 231.36 78.24 231.36 79.44 231.36 80.49 231.36 81.54 231.36 82.44 231.36 83.34 231.36 84.09 231.36 84.69 231.36 85.29 231.36 85.74 231.36 86.04 231.36"/>
        <polygon class="cls-4" points="86.19 232.86 86.34 232.86 84.24 234.96 84.09 234.96 83.94 234.96 83.64 234.96 83.19 234.96 82.74 234.96 82.14 234.96 81.39 234.96 80.64 234.96 79.74 234.96 78.84 234.96 77.79 234.96 76.59 234.96 75.39 234.96 74.19 234.96 72.69 234.96 71.34 234.96 69.84 234.96 68.34 234.96 66.69 234.96 65.04 234.96 63.39 234.96 61.59 234.96 59.79 234.96 57.99 234.96 56.19 234.96 54.39 234.96 52.59 234.96 50.64 234.96 48.84 234.96 47.04 234.96 45.24 234.96 43.29 234.96 41.49 234.96 39.84 234.96 38.04 234.96 36.39 234.96 34.74 234.96 33.09 234.96 31.59 234.96 30.09 234.96 28.6 234.96 27.25 234.96 26.05 234.96 24.85 234.96 23.65 234.96 22.6 234.96 21.7 234.96 20.8 234.96 20.05 234.96 19.3 234.96 18.7 234.96 18.25 234.96 17.8 234.96 17.5 234.96 17.35 234.96 17.2 234.96 15.1 232.86 15.25 232.86 15.4 232.86 15.7 232.86 16.15 232.86 16.6 232.86 17.2 232.86 17.95 232.86 18.7 232.86 19.6 232.86 20.65 232.86 21.7 232.86 22.75 232.86 24.1 232.86 25.3 232.86 26.65 232.86 28.15 232.86 29.65 232.86 31.29 232.86 32.94 232.86 34.59 232.86 36.24 232.86 38.04 232.86 39.84 232.86 41.64 232.86 43.59 232.86 45.39 232.86 47.34 232.86 49.29 232.86 51.24 232.86 53.04 232.86 54.99 232.86 56.94 232.86 58.74 232.86 60.69 232.86 62.49 232.86 64.29 232.86 65.94 232.86 67.74 232.86 69.39 232.86 70.89 232.86 72.54 232.86 74.04 232.86 75.39 232.86 76.74 232.86 77.94 232.86 79.14 232.86 80.34 232.86 81.39 232.86 82.29 232.86 83.04 232.86 83.79 232.86 84.54 232.86 84.99 232.86 85.59 232.86 85.89 232.86 86.19 232.86"/>
      </g>
      <g>
        <line class="cls-1" x1="7.6" y1="165.07" x2="7.45" y2="164.62"/>
        <line class="cls-1" x1="7.45" y1="166.27" x2="7.6" y2="165.97"/>
        <polyline class="cls-1" points="7.6 165.52 7.6 165.97 7.6 166.57 7.6 167.02 7.6 167.47 7.6 168.37 7.6 169.27 7.45 169.87"/>
        <polyline class="cls-1" points="7.45 161.47 7.6 161.92 7.6 162.22 7.6 162.67 7.6 163.12 7.6 163.57 7.6 164.02 7.6 164.62 7.6 165.07 7.6 165.52"/>
        <polyline class="cls-1" points="71.64 43.89 77.42 43.89 77.49 43.89"/>
        <line class="cls-1" x1="75.09" y1="33.09" x2="71.64" y2="33.09"/>
        <polyline class="cls-1" points="7.45 152.92 7.6 152.92 7.75 152.92 8.05 152.92 8.5 152.92 8.95 152.92 9.55 152.92 10.3 152.92 11.05 152.92 11.95 152.92 12.85 152.92 13.9 152.92 15.1 152.92 16.3 152.92 17.65 152.92 19 152.92 20.5 152.92 22 152.92 23.65 152.92 25.3 152.92 27.1 152.92 28.9 152.92 30.69 152.92 32.49 152.92 34.44 152.92 36.39 152.92 38.49 152.92 40.44 152.92 42.54 152.92 44.64 152.92 46.74 152.92 48.84 152.92 50.94 152.92 53.04 152.92 55.14 152.92 57.24 152.92 59.19 152.92"/>
        <polyline class="cls-1" points="59.19 152.92 61.29 152.92 63.39 152.92 65.34 152.92 67.29 152.92 69.24 152.92 71.04 152.92 72.99 152.92 74.64 152.92 76.44 152.92 78.09 152.92 79.74 152.92 81.24 152.92 82.59 152.92 84.09 152.92 85.29 152.92 86.48 152.92 87.68 152.92 88.73 152.92 89.63 152.92 90.53 152.92 91.28 152.92 92.03 152.92 92.48 152.92 93.08 152.92 93.38 152.92 93.68 152.92 93.83 152.92"/>
        <polyline class="cls-1" points="93.83 82.43 93.68 82.43 93.53 82.43 93.23 82.43 92.78 82.43 92.33 82.43 91.58 82.43 90.98 82.43 90.08 82.43 89.18 82.43 88.13 82.43 87.08 82.43 85.89 82.43 84.69 82.43 83.34 82.43 81.99 82.43 80.49 82.43 78.84 82.43 77.19 82.43 75.54 82.43 73.89 82.43 71.94 82.43 70.14 82.43 68.19 82.43 66.39 82.43 64.29 82.43 62.34 82.43 60.24 82.43 58.29 82.43 56.19 82.43 54.09 82.43 51.99 82.43 49.89 82.43 47.79 82.43 45.69 82.43 43.59 82.43 41.49 82.43 39.39 82.43 37.44 82.43 35.49 82.43 33.54 82.43 31.59 82.43 29.79 82.43 27.85 82.43 26.2 82.43 24.4 82.43 22.75 82.43 21.25 82.43 19.75 82.43 18.25 82.43 16.9 82.43 15.7 82.43 14.5 82.43 13.45 82.43 12.4 82.43 11.5 82.43 10.6 82.43 9.85 82.43 9.25 82.43 8.65 82.43 8.2 82.43 7.9 82.43 7.75 82.43 7.6 82.43 7.45 82.43"/>
        <polyline class="cls-1" points="93.83 161.62 93.68 161.77 93.68 162.22 93.68 162.82 93.53 163.42 93.53 164.17 93.53 165.67"/>
        <polyline class="cls-1" points="93.53 165.67 93.53 166.12 93.53 166.57 93.53 167.17 93.53 167.77 93.68 168.07 93.68 168.37 93.68 168.82 93.68 169.27 93.83 169.42"/>
        <line class="cls-1" x1="7.9" y1="161.62" x2="7.9" y2="164.92"/>
        <polyline class="cls-1" points="7.9 161.62 8.05 161.62 8.2 161.62 8.35 161.62"/>
        <polyline class="cls-1" points="8.8 163.27 8.8 162.52 8.8 162.22 8.65 162.07 8.65 161.77 8.5 161.77 8.35 161.62"/>
        <polyline class="cls-1" points="8.35 164.92 8.5 164.77 8.65 164.77 8.65 164.62 8.8 164.32 8.8 164.02 8.8 163.57 8.8 163.42 8.8 163.27"/>
        <polyline class="cls-1" points="7.9 164.92 8.05 164.92 8.2 164.92 8.35 164.92"/>
        <line class="cls-1" x1="14.5" y1="163.57" x2="13.9" y2="166.27"/>
        <polyline class="cls-1" points="14.95 161.62 14.8 162.07 14.8 162.37 14.65 162.82 14.65 163.12 14.5 163.57"/>
        <line class="cls-1" x1="15.4" y1="163.72" x2="14.95" y2="161.62"/>
        <line class="cls-1" x1="15.85" y1="166.27" x2="15.4" y2="163.72"/>
        <polyline class="cls-1" points="13.9 166.27 14.2 166.27 14.5 166.27 14.65 166.27 14.95 166.27 15.1 166.27 15.4 166.27 15.7 166.27 15.85 166.27"/>
        <line class="cls-1" x1="19.45" y1="165.97" x2="19.45" y2="169.42"/>
        <polyline class="cls-1" points="19.45 165.97 19.75 165.97 19.9 165.97 20.05 165.97 20.2 165.97 20.5 165.97 20.65 165.97 20.8 165.97 21.1 165.97"/>
        <polyline class="cls-1" points="22.9 167.62 22.9 167.47 22.9 167.17 22.75 166.87 22.6 166.42 22.3 166.27 22 166.12 21.7 165.97 21.4 165.97 21.1 165.97"/>
        <polyline class="cls-1" points="21.85 169.42 22.3 169.12 22.45 168.97 22.6 168.82 22.75 168.22 22.9 167.62"/>
        <line class="cls-1" x1="21.25" y1="169.42" x2="21.85" y2="169.42"/>
        <polyline class="cls-1" points="19.45 169.42 19.75 169.42 19.9 169.42 20.05 169.42 20.35 169.42 20.5 169.42 20.8 169.42 20.95 169.42 21.25 169.42"/>
        <line class="cls-1" x1="19.45" y1="161.62" x2="19.45" y2="164.77"/>
        <polyline class="cls-1" points="19.45 161.62 19.6 161.62 19.75 161.62 20.05 161.62 20.2 161.62 20.35 161.62 20.5 161.62 20.65 161.62 20.8 161.62"/>
        <polyline class="cls-1" points="22.6 163.27 22.6 162.97 22.6 162.82 22.45 162.37 22.3 162.07 22 161.92 21.7 161.77 21.4 161.62 21.25 161.62 21.1 161.62 20.8 161.62"/>
        <polyline class="cls-1" points="21.85 164.62 22.15 164.47 22.45 164.17 22.6 163.72 22.6 163.27"/>
        <polyline class="cls-1" points="20.95 164.77 21.25 164.77 21.4 164.77 21.55 164.77 21.85 164.62"/>
        <polyline class="cls-1" points="19.45 164.77 19.6 164.77 19.9 164.77 20.05 164.77 20.2 164.77 20.35 164.77 20.65 164.77 20.8 164.77 20.95 164.77"/>
        <polyline class="cls-1" points="93.23 177.37 93.08 177.37 92.78 177.37 92.48 177.37 92.03 177.37 91.58 177.37 90.98 177.37 90.23 177.37 89.33 177.37 88.43 177.37 87.53 177.37 86.48 177.37 86.34 177.37 85.29 177.37 83.94 177.37 82.59 177.37 81.24 177.37 79.74 177.37 78.24 177.37 76.59 177.37 74.94 177.37 73.14 177.37 71.34 177.37 69.54 177.37 67.59 177.37 65.64 177.37 63.69 177.37 61.74 177.37 59.64 177.37 57.69 177.37 55.59 177.37 53.49 177.37 51.39 177.37 49.29 177.37 47.19 177.37 45.09 177.37 43.14 177.37 41.04 177.37 39.09 177.37 36.99 177.37 35.04 177.37 33.24 177.37 31.29 177.37 29.5 177.37 27.7 177.37 25.9 177.37 24.25 177.37 22.75 177.37 21.1 177.37 19.75 177.37 18.25 177.37 17.05 177.37 15.85 177.37 14.95 177.37 14.65 177.37 13.6 177.37 12.55 177.37 11.8 177.37 10.9 177.37 10.3 177.37 9.7 177.37 9.25 177.37 8.8 177.37 8.5 177.37 8.35 177.37 8.2 177.37"/>
        <polyline class="cls-1" points="8.2 153.67 8.35 153.67 8.5 153.67 8.8 153.67 9.25 153.67 9.7 153.67 10.3 153.67 10.9 153.67 11.8 153.67 12.55 153.67 13.6 153.67 14.65 153.67 15.85 153.67 17.05 153.67 18.25 153.67 19.75 153.67 21.1 153.67 22.75 153.67 24.25 153.67 25.9 153.67 27.7 153.67 29.5 153.67 31.29 153.67 33.24 153.67 35.04 153.67 36.99 153.67 39.09 153.67 41.04 153.67 43.14 153.67 45.09 153.67 47.19 153.67 49.29 153.67 51.39 153.67 53.49 153.67 55.59 153.67 57.69 153.67 59.04 153.67 59.64 153.67 61.74 153.67 63.69 153.67 65.64 153.67 67.59 153.67 69.54 153.67 71.34 153.67 73.14 153.67 74.94 153.67 76.59 153.67 78.24 153.67 79.74 153.67 81.24 153.67 82.59 153.67 83.94 153.67 85.29 153.67 86.34 153.67 87.53 153.67 88.43 153.67 89.33 153.67 90.23 153.67 90.98 153.67 91.58 153.67 92.03 153.67 92.48 153.67 92.78 153.67 93.08 153.67 93.23 153.67"/>
        <polyline class="cls-1" points="48.69 165.52 48.99 165.52 49.14 165.52 49.44 165.52 49.59 165.52 49.89 165.52 50.04 165.52 50.34 165.52 50.49 165.52"/>
        <line class="cls-1" x1="48.69" y1="165.52" x2="48.69" y2="170.62"/>
        <polyline class="cls-1" points="45.09 170.62 45.54 170.62 45.99 170.62 46.44 170.62 46.89 170.62 47.34 170.62 47.79 170.62 48.24 170.62 48.69 170.62"/>
        <line class="cls-1" x1="45.09" y1="170.62" x2="45.09" y2="165.52"/>
        <polyline class="cls-1" points="43.44 165.52 43.59 165.52 43.74 165.52 44.04 165.52 44.19 165.52 44.49 165.52 44.64 165.52 44.94 165.52 45.09 165.52"/>
        <line class="cls-1" x1="43.44" y1="165.52" x2="46.89" y2="160.42"/>
        <line class="cls-1" x1="46.89" y1="160.42" x2="50.49" y2="165.52"/>
        <polyline class="cls-1" points="93.83 170.62 93.68 170.47 93.68 170.32 93.68 169.87 93.53 169.57 93.53 169.27 93.38 168.52 93.38 167.62 93.38 167.17 93.38 166.57 93.38 166.12 93.38 165.67"/>
        <polyline class="cls-1" points="93.38 165.67 93.38 165.22 93.38 164.62 93.38 164.17 93.38 163.72 93.38 162.67 93.53 162.37 93.53 161.92 93.53 161.17 93.68 161.02 93.68 160.72 93.68 160.57 93.83 160.42"/>
        <line class="cls-1" x1="7.75" y1="170.62" x2="7.9" y2="170.62"/>
        <line class="cls-1" x1="7.75" y1="170.62" x2="7.75" y2="160.42"/>
        <polyline class="cls-1" points="7.75 160.42 7.9 160.42 8.05 160.42 8.2 160.42 8.35 160.42"/>
        <polyline class="cls-1" points="8.35 160.42 8.5 160.57 8.65 160.57 8.8 160.57 8.8 160.72 8.95 161.02 8.95 161.17 9.1 161.47 9.1 162.07 9.1 162.22 9.25 162.52 9.25 162.82 9.25 163.27"/>
        <polyline class="cls-1" points="9.25 163.27 9.25 163.57 9.25 163.87 9.1 164.17 9.1 164.77 8.95 165.07 8.95 165.37 8.8 165.67 8.65 165.82 8.5 165.97"/>
        <line class="cls-1" x1="8.5" y1="165.97" x2="8.65" y2="166.42"/>
        <polyline class="cls-1" points="8.65 166.42 8.8 166.72 8.8 167.02 8.95 167.47 8.95 167.77"/>
        <line class="cls-1" x1="8.95" y1="167.77" x2="9.4" y2="170.62"/>
        <polyline class="cls-1" points="8.95 170.62 9.1 170.62 9.25 170.62 9.4 170.62"/>
        <line class="cls-1" x1="8.95" y1="170.62" x2="8.65" y2="168.37"/>
        <polyline class="cls-1" points="8.65 168.37 8.5 167.02 8.35 166.42 8.35 166.27 8.2 166.12"/>
        <line class="cls-1" x1="8.2" y1="166.12" x2="8.05" y2="166.12"/>
        <line class="cls-1" x1="7.9" y1="166.12" x2="8.05" y2="166.12"/>
        <line class="cls-1" x1="7.9" y1="166.12" x2="7.9" y2="170.62"/>
        <polyline class="cls-1" points="9.85 170.62 10.15 170.62 10.45 170.62 10.75 170.62 11.05 170.62 11.35 170.62 11.65 170.62 11.95 170.62 12.4 170.62"/>
        <line class="cls-1" x1="9.85" y1="170.62" x2="9.85" y2="160.42"/>
        <polyline class="cls-1" points="9.85 160.42 10 160.42 10.15 160.42 10.3 160.42 10.45 160.42"/>
        <line class="cls-1" x1="10.45" y1="160.42" x2="10.45" y2="169.42"/>
        <polyline class="cls-1" points="10.45 169.42 10.6 169.42 10.9 169.42 11.05 169.42 11.35 169.42 11.5 169.42 11.8 169.42 12.1 169.42 12.4 169.42"/>
        <line class="cls-1" x1="12.4" y1="169.42" x2="12.4" y2="170.62"/>
        <polyline class="cls-1" points="12.4 170.62 12.55 170.62 12.7 170.62 12.85 170.62 13 170.62 13.15 170.62"/>
        <line class="cls-1" x1="12.4" y1="170.62" x2="14.5" y2="160.42"/>
        <polyline class="cls-1" points="14.5 160.42 14.65 160.42 14.8 160.42 14.95 160.42 15.1 160.42 15.25 160.42 15.4 160.42"/>
        <line class="cls-1" x1="15.4" y1="160.42" x2="17.8" y2="170.62"/>
        <polyline class="cls-1" points="16.9 170.62 17.05 170.62 17.2 170.62 17.35 170.62 17.5 170.62 17.65 170.62 17.8 170.62"/>
        <line class="cls-1" x1="16.9" y1="170.62" x2="16.15" y2="167.47"/>
        <polyline class="cls-1" points="13.75 167.47 14.05 167.47 14.35 167.47 14.65 167.47 14.95 167.47 15.25 167.47 15.55 167.47 15.85 167.47 16.15 167.47"/>
        <line class="cls-1" x1="13.75" y1="167.47" x2="13.15" y2="170.62"/>
        <polyline class="cls-1" points="18.55 170.62 18.85 170.62 19.15 170.62 19.45 170.62 19.75 170.62 20.2 170.62 20.5 170.62 20.8 170.62 21.1 170.62"/>
        <line class="cls-1" x1="18.55" y1="170.62" x2="18.55" y2="160.42"/>
        <polyline class="cls-1" points="18.55 160.42 18.85 160.42 19.15 160.42 19.45 160.42 19.75 160.42 20.2 160.42 20.5 160.42 20.8 160.42 21.1 160.42"/>
        <polyline class="cls-1" points="21.1 160.42 22 160.57 22.45 160.72 22.9 161.02 23.2 161.47 23.5 161.92 23.65 162.52 23.65 162.82 23.65 163.12"/>
        <polyline class="cls-1" points="23.65 163.12 23.65 163.72 23.35 164.47 22.9 164.92 22.75 165.07 22.45 165.22"/>
        <polyline class="cls-1" points="22.45 165.22 23.05 165.67 23.5 166.12 23.95 166.87 23.95 167.62"/>
        <polyline class="cls-1" points="23.95 167.62 23.95 168.37 23.8 168.97 23.5 169.57 23.05 170.02 22.6 170.32 22.15 170.47 21.1 170.62"/>
        <polygon class="cls-1" points="58.14 166.57 58.14 165.97 58.29 165.37 58.59 164.77 58.89 164.17 59.34 163.72 59.94 163.42 60.39 163.12 60.99 162.82 61.74 162.82 62.34 162.82 62.94 162.97 63.54 163.12 63.99 163.42 64.44 163.87 64.89 164.47 65.19 164.92 65.34 165.52 65.49 166.12 65.49 166.87 65.49 167.47 65.19 168.07 65.04 168.67 64.59 169.12 64.14 169.57 63.69 170.02 63.09 170.17 62.49 170.32 61.89 170.47 61.29 170.32 60.69 170.17 60.09 170.02 59.49 169.57 59.04 169.12 58.74 168.67 58.44 168.07 58.29 167.47 58.14 166.57"/>
        <polyline class="cls-1" points="7.45 176.62 7.6 176.62 7.75 176.62 7.9 176.62 8.35 176.62 8.65 176.62 9.25 176.62 9.85 176.62 10.6 176.62 11.5 176.62 12.4 176.62 13.45 176.62 14.5 176.62 15.7 176.62 17.05 176.62 18.4 176.62 19.75 176.62 21.25 176.62 22.9 176.62 24.55 176.62 26.2 176.62 28 176.62 29.79 176.62 31.59 176.62 33.54 176.62 35.49 176.62 37.44 176.62 39.54 176.62 41.49 176.62 43.59 176.62 45.69 176.62 47.79 176.62 49.89 176.62 51.99 176.62 54.09 176.62 56.19 176.62 58.29 176.62 60.39 176.62 62.34 176.62 64.44 176.62 66.39 176.62 68.34 176.62 70.29 176.62 72.09 176.62 73.89 176.62 75.69 176.62 77.34 176.62 78.99 176.62 80.49 176.62 81.99 176.62 83.34 176.62 84.69 176.62 86.04 176.62 87.08 176.62 88.28 176.62 89.18 176.62 90.08 176.62 90.98 176.62 91.73 176.62 92.33 176.62 92.78 176.62 93.23 176.62 93.53 176.62 93.68 176.62 93.83 176.62"/>
        <polyline class="cls-1" points="93.83 154.42 93.68 154.42 93.53 154.42 93.23 154.42 92.78 154.42 92.33 154.42 91.73 154.42 90.98 154.42 90.08 154.42 89.18 154.42 88.28 154.42 87.08 154.42 86.04 154.42 84.69 154.42 83.34 154.42 81.99 154.42 80.49 154.42 78.99 154.42 77.34 154.42 75.69 154.42 73.89 154.42 72.09 154.42 70.29 154.42 68.34 154.42 66.39 154.42 64.44 154.42 62.34 154.42 60.39 154.42 58.29 154.42 56.19 154.42 54.09 154.42 51.99 154.42 49.89 154.42 47.79 154.42 45.69 154.42 43.59 154.42 41.49 154.42 39.54 154.42 37.44 154.42 35.49 154.42 33.54 154.42 31.59 154.42 29.79 154.42 28 154.42 26.2 154.42 24.55 154.42 22.9 154.42 21.25 154.42 19.75 154.42 18.4 154.42 17.05 154.42 15.7 154.42 14.5 154.42 13.45 154.42 12.4 154.42 11.5 154.42 10.6 154.42 9.85 154.42 9.25 154.42 8.65 154.42 8.35 154.42 7.9 154.42 7.75 154.42 7.6 154.42 7.45 154.42"/>
        <polyline class="cls-1" points="31.74 167.77 31.74 168.07 31.59 168.37 31.44 168.97 31.14 169.57 30.84 169.72 30.69 170.02 30.24 170.32 29.65 170.47 29.35 170.62 29.05 170.62 28.75 170.62 28.45 170.77"/>
        <polyline class="cls-1" points="28.45 170.77 28.15 170.62 27.85 170.62 27.55 170.62 27.25 170.47 26.5 170.32 26.05 169.87 25.6 169.27 25.45 168.97 25.3 168.67 25.15 168.07 25 167.62 25 167.02"/>
        <polyline class="cls-1" points="25 167.02 25.15 167.02 25.3 167.02 25.45 167.02 25.6 167.02 25.75 167.02 25.9 167.02 26.05 167.02 26.2 167.02"/>
        <polyline class="cls-1" points="26.2 167.02 26.2 167.47 26.2 167.77 26.35 168.07 26.5 168.52 26.8 168.97 27.25 169.12 27.55 169.42 28 169.57 28.45 169.57"/>
        <polyline class="cls-1" points="28.45 169.57 29.2 169.42 29.79 169.12 30.09 168.82 30.24 168.52 30.39 168.22 30.39 167.92 30.39 167.77"/>
        <polyline class="cls-1" points="30.39 167.77 30.39 167.32 30.24 166.87 29.94 166.57 29.5 166.42"/>
        <polyline class="cls-1" points="29.5 166.42 29.05 166.27 28.45 166.12 28 165.97 27.4 165.67 26.95 165.52 26.5 165.37"/>
        <polyline class="cls-1" points="26.5 165.37 26.05 164.92 25.6 164.47 25.45 163.87 25.3 163.42 25.3 163.12"/>
        <polyline class="cls-1" points="25.3 163.12 25.3 162.82 25.3 162.52 25.6 161.92 25.9 161.47 26.05 161.17 26.2 161.02 26.65 160.72 27.25 160.57 27.55 160.42 27.85 160.42 28.15 160.42"/>
        <polyline class="cls-1" points="28.15 160.42 28.6 160.42 29.05 160.42 29.35 160.57 29.94 160.72 30.39 161.02 30.84 161.47 31.14 162.07 31.44 162.67 31.44 162.82 31.44 163.12 31.44 163.27"/>
        <polyline class="cls-1" points="30.24 163.27 30.39 163.27 30.54 163.27 30.69 163.27 30.84 163.27 30.99 163.27 31.14 163.27 31.29 163.27 31.44 163.27"/>
        <polyline class="cls-1" points="30.24 163.27 30.09 162.52 29.79 162.22 29.65 161.92 29.35 161.77 28.9 161.62 28.3 161.47"/>
        <polyline class="cls-1" points="28.3 161.47 27.7 161.62 27.1 161.77 26.8 162.07 26.65 162.37 26.5 162.67 26.5 162.97"/>
        <polyline class="cls-1" points="26.5 162.97 26.5 163.57 26.65 163.72 26.8 163.87"/>
        <polyline class="cls-1" points="26.8 163.87 26.95 164.17 27.25 164.32 27.55 164.32 27.7 164.47 27.85 164.47 28 164.47 28.15 164.62 28.45 164.62 28.9 164.77 29.35 164.92 29.79 165.07 30.09 165.22"/>
        <polyline class="cls-1" points="30.09 165.22 30.84 165.67 31.29 166.27 31.59 166.87 31.74 167.77"/>
        <polyline class="cls-1" points="90.83 170.62 90.98 170.62 91.13 170.62 91.28 170.62"/>
        <line class="cls-1" x1="90.83" y1="170.62" x2="90.83" y2="160.42"/>
        <polyline class="cls-1" points="90.83 160.42 90.98 160.42 91.13 160.42 91.28 160.42"/>
        <line class="cls-1" x1="91.28" y1="160.42" x2="91.28" y2="164.62"/>
        <polyline class="cls-1" points="91.28 164.62 91.43 164.62 91.73 164.62 91.88 164.62 92.03 164.62 92.18 164.62 92.33 164.62 92.48 164.62 92.63 164.62"/>
        <line class="cls-1" x1="92.63" y1="164.62" x2="92.63" y2="160.42"/>
        <polyline class="cls-1" points="92.63 160.42 92.78 160.42 92.93 160.42"/>
        <line class="cls-1" x1="92.93" y1="160.42" x2="92.93" y2="170.62"/>
        <polyline class="cls-1" points="92.63 170.62 92.78 170.62 92.93 170.62"/>
        <line class="cls-1" x1="92.63" y1="170.62" x2="92.63" y2="165.82"/>
        <polyline class="cls-1" points="91.28 165.82 91.43 165.82 91.73 165.82 91.88 165.82 92.03 165.82 92.18 165.82 92.33 165.82 92.48 165.82 92.63 165.82"/>
        <line class="cls-1" x1="91.28" y1="165.82" x2="91.28" y2="170.62"/>
        <polyline class="cls-1" points="88.13 170.62 88.28 170.62 88.43 170.62 88.58 170.62 88.73 170.62"/>
        <line class="cls-1" x1="88.13" y1="170.62" x2="88.13" y2="161.62"/>
        <polyline class="cls-1" points="86.34 161.62 86.63 161.62 86.78 161.62 87.08 161.62 87.23 161.62 87.53 161.62 87.68 161.62 87.83 161.62 88.13 161.62"/>
        <line class="cls-1" x1="86.34" y1="161.62" x2="86.34" y2="160.42"/>
        <polyline class="cls-1" points="86.34 160.42 86.93 160.42 87.53 160.42 87.98 160.42 88.43 160.42 88.88 160.42 89.33 160.42 89.78 160.42 90.23 160.42"/>
        <line class="cls-1" x1="90.23" y1="160.42" x2="90.23" y2="161.62"/>
        <polyline class="cls-1" points="88.73 161.62 89.03 161.62 89.18 161.62 89.33 161.62 89.48 161.62 89.78 161.62 89.93 161.62 90.08 161.62 90.23 161.62"/>
        <line class="cls-1" x1="88.73" y1="161.62" x2="88.73" y2="170.62"/>
        <polyline class="cls-1" points="76.89 165.52 77.04 165.52 77.34 165.52 77.49 165.52 77.64 165.52 77.79 165.52 77.94 165.52 78.09 165.52 78.39 165.52"/>
        <line class="cls-1" x1="76.89" y1="165.52" x2="76.89" y2="170.62"/>
        <polyline class="cls-1" points="74.04 170.62 74.34 170.62 74.79 170.62 75.09 170.62 75.54 170.62 75.84 170.62 76.14 170.62 76.59 170.62 76.89 170.62"/>
        <line class="cls-1" x1="74.04" y1="170.62" x2="74.04" y2="165.52"/>
        <polyline class="cls-1" points="72.39 165.52 72.69 165.52 72.84 165.52 72.99 165.52 73.29 165.52 73.44 165.52 73.59 165.52 73.74 165.52 74.04 165.52"/>
        <line class="cls-1" x1="72.39" y1="165.52" x2="75.54" y2="160.42"/>
        <line class="cls-1" x1="75.54" y1="160.42" x2="78.39" y2="165.52"/>
        <polyline class="cls-1" points="7.6 69.53 7.6 69.68 7.6 69.98 7.6 70.28 7.6 70.73 7.6 71.48"/>
        <polyline class="cls-1" points="7.9 71.48 7.9 70.73 7.9 70.28 7.9 69.98 7.75 69.68 7.75 69.53 7.6 69.38"/>
        <polyline class="cls-1" points="7.75 73.73 7.75 73.58 7.75 73.43 7.9 73.13 7.9 72.83 7.9 72.38 7.9 71.48"/>
        <polyline class="cls-1" points="7.6 71.48 7.6 72.38 7.6 73.13 7.6 73.43 7.6 73.58 7.75 73.73"/>
        <polyline class="cls-1" points="8.8 66.54 8.65 67.44 8.65 68.18 8.65 69.83"/>
        <polyline class="cls-1" points="9.1 65.94 8.95 65.94 8.8 66.09 8.8 66.24 8.8 66.54"/>
        <polyline class="cls-1" points="9.55 69.83 9.55 69.38 9.55 68.93 9.55 68.33 9.55 67.89 9.55 67.44 9.55 67.14 9.55 66.84 9.4 66.39 9.25 66.09 9.1 65.94"/>
        <polyline class="cls-1" points="9.1 73.73 9.25 73.73 9.4 73.28 9.4 73.13 9.55 72.83 9.55 72.68 9.55 72.53 9.55 72.23 9.55 71.93 9.55 71.33 9.55 70.88 9.55 70.43 9.55 69.83"/>
        <polyline class="cls-1" points="8.65 69.83 8.65 70.43 8.65 70.88 8.65 71.33 8.65 71.93 8.65 72.23 8.65 72.53 8.65 72.83 8.8 73.28 8.8 73.58 8.95 73.73 9.1 73.73"/>
        <polyline class="cls-1" points="83.79 65.79 83.19 65.79 82.74 66.09 82.29 66.54 81.99 66.99 81.69 67.74 81.54 68.48 81.54 69.98"/>
        <polyline class="cls-1" points="85.74 69.83 85.74 69.23 85.74 68.78 85.74 68.33 85.59 67.59 85.29 66.99 84.99 66.54 84.84 66.24 84.69 66.09 84.39 65.94 84.24 65.79 83.94 65.79 83.79 65.79"/>
        <polyline class="cls-1" points="83.79 73.73 83.94 73.73 84.09 73.73 84.24 73.73 84.39 73.58 84.69 73.43 84.99 73.13 85.29 72.53 85.59 71.93 85.59 71.63 85.74 71.18 85.74 70.88 85.74 70.58 85.74 70.13 85.74 69.83"/>
        <polyline class="cls-1" points="81.54 69.98 81.54 70.43 81.54 70.88 81.54 71.33 81.84 72.08 81.99 72.68 82.44 73.13 82.89 73.43 83.34 73.73 83.49 73.73 83.79 73.73"/>
        <line class="cls-1" x1="19.45" y1="65.94" x2="19.45" y2="69.53"/>
        <polyline class="cls-1" points="21.1 65.94 20.95 65.94 20.65 65.94 20.5 65.94 20.2 65.94 20.05 65.94 19.75 65.94 19.6 65.94 19.45 65.94"/>
        <polyline class="cls-1" points="22 65.94 21.55 65.94 21.1 65.94"/>
        <polyline class="cls-1" points="22.75 67.74 22.75 67.14 22.6 66.69 22.3 66.24 22 65.94"/>
        <polyline class="cls-1" points="21.1 69.53 21.7 69.38 22 69.38 22.3 69.08 22.45 68.78 22.6 68.48 22.75 67.74"/>
        <polyline class="cls-1" points="21.1 69.53 20.95 69.53 20.65 69.53 20.5 69.53 20.2 69.53 20.05 69.53 19.75 69.53 19.6 69.53 19.45 69.53"/>
        <polyline class="cls-1" points="93.23 81.68 93.08 81.68 92.93 81.68 92.78 81.68 92.33 81.68 91.88 81.68 91.28 81.68 90.68 81.68 89.93 81.68 89.03 81.68 88.13 81.68 87.08 81.68 86.04 81.68 84.84 81.68 83.49 81.68 82.14 81.68 80.79 81.68 79.29 81.68 77.64 81.68 75.99 81.68 74.34 81.68 72.54 81.68 70.74 81.68 68.79 81.68 66.99 81.68 65.04 81.68 63.09 81.68 60.99 81.68 59.04 81.68 56.94 81.68 54.84 81.68 52.74 81.68 50.64 81.68 48.69 81.68 46.59 81.68 44.49 81.68 42.39 81.68 40.44 81.68 38.34 81.68 36.39 81.68 34.44 81.68 32.49 81.68 30.69 81.68 28.9 81.68 27.1 81.68 25.45 81.68 23.8 81.68 22.15 81.68 20.65 81.68 19.3 81.68 17.8 81.68 16.6 81.68 15.4 81.68 14.2 81.68 13.3 81.68 12.25 81.68 11.5 81.68 10.75 81.68 10 81.68 9.55 81.68 9.1 81.68 8.65 81.68 8.5 81.68 8.35 81.68 8.2 81.68"/>
        <polyline class="cls-1" points="8.2 57.84 8.35 57.84 8.5 57.84 8.65 57.84 9.1 57.84 9.55 57.84 10 57.84 10.75 57.84 11.5 57.84 12.25 57.84 13.3 57.84 14.2 57.84 14.95 57.84 15.4 57.84 16.6 57.84 17.8 57.84 19.3 57.84 20.65 57.84 22.15 57.84 23.8 57.84 25.45 57.84 27.1 57.84 28.9 57.84 30.69 57.84 32.49 57.84 34.44 57.84 36.39 57.84 38.34 57.84 40.44 57.84 42.39 57.84 44.49 57.84 46.59 57.84 48.69 57.84 50.64 57.84 52.74 57.84 54.84 57.84 56.94 57.84 59.04 57.84 60.99 57.84 63.09 57.84 65.04 57.84 66.99 57.84 68.79 57.84 70.74 57.84 72.54 57.84 74.34 57.84 75.99 57.84 77.64 57.84 79.29 57.84 80.79 57.84 82.14 57.84 83.49 57.84 84.84 57.84 86.04 57.84 86.48 57.84 87.08 57.84 88.13 57.84 89.03 57.84 89.93 57.84 90.68 57.84 91.28 57.84 91.88 57.84 92.33 57.84 92.78 57.84 92.93 57.84 93.08 57.84 93.23 57.84"/>
        <line class="cls-1" x1="13.3" y1="69.98" x2="13.3" y2="74.78"/>
        <polyline class="cls-1" points="13.3 74.78 13.15 74.78 13 74.78 12.85 74.78 12.7 74.78"/>
        <line class="cls-1" x1="12.7" y1="74.78" x2="12.7" y2="64.74"/>
        <polyline class="cls-1" points="13.3 64.74 13.15 64.74 13 64.74 12.85 64.74 12.7 64.74"/>
        <line class="cls-1" x1="13.3" y1="64.74" x2="13.3" y2="68.93"/>
        <polyline class="cls-1" points="16 68.93 15.7 68.93 15.4 68.93 14.95 68.93 14.65 68.93 14.35 68.93 14.05 68.93 13.6 68.93 13.3 68.93"/>
        <line class="cls-1" x1="16" y1="68.93" x2="16" y2="64.74"/>
        <polyline class="cls-1" points="16.9 64.74 16.75 64.74 16.6 64.74 16.45 64.74 16.3 64.74 16.15 64.74 16 64.74"/>
        <line class="cls-1" x1="16.9" y1="64.74" x2="16.9" y2="74.78"/>
        <polyline class="cls-1" points="16.9 74.78 16.75 74.78 16.6 74.78 16.45 74.78 16.3 74.78 16.15 74.78 16 74.78"/>
        <line class="cls-1" x1="16" y1="74.78" x2="16" y2="69.98"/>
        <polyline class="cls-1" points="16 69.98 15.7 69.98 15.4 69.98 14.95 69.98 14.65 69.98 14.35 69.98 14.05 69.98 13.6 69.98 13.3 69.98"/>
        <polyline class="cls-1" points="9.1 74.93 8.95 74.93 8.8 74.78 8.65 74.48 8.65 74.33 8.5 74.18 8.5 74.03"/>
        <polyline class="cls-1" points="8.5 74.03 8.5 73.73 8.5 73.43 8.35 72.98 8.35 72.53 8.35 71.93 8.35 71.48 8.35 70.88 8.35 70.43 8.35 69.83"/>
        <polyline class="cls-1" points="8.35 69.83 8.35 69.23 8.35 68.78 8.35 68.18 8.35 67.29 8.5 66.54 8.5 66.09 8.5 65.79 8.65 65.19 8.8 65.04 8.8 64.89 8.95 64.74 9.1 64.74"/>
        <polyline class="cls-1" points="9.1 64.74 9.25 64.74 9.25 64.89 9.4 65.04 9.55 65.19 9.7 65.49 9.7 65.79 9.85 66.09 9.85 66.54 10 67.29 10 68.18 10 68.93 10 69.83"/>
        <polyline class="cls-1" points="10 69.83 10 70.43 10 71.03 10 71.48 10 72.23 9.85 72.68 9.85 73.13 9.85 73.58 9.7 73.88 9.7 74.18 9.55 74.48 9.4 74.78 9.25 74.78 9.25 74.93 9.1 74.93"/>
        <line class="cls-1" x1="93.08" y1="70.73" x2="93.08" y2="71.78"/>
        <polyline class="cls-1" points="93.08 71.78 92.93 71.78 92.78 71.78 92.63 71.78 92.48 71.78 92.33 71.78 92.18 71.78"/>
        <line class="cls-1" x1="92.18" y1="71.78" x2="92.18" y2="70.73"/>
        <polyline class="cls-1" points="93.08 70.73 92.93 70.73 92.78 70.73 92.63 70.73 92.48 70.73 92.33 70.73 92.18 70.73"/>
        <line class="cls-1" x1="89.03" y1="70.73" x2="89.03" y2="71.78"/>
        <polyline class="cls-1" points="89.03 71.78 88.88 71.78 88.58 71.78 88.43 71.78 88.13 71.78 87.83 71.78 87.68 71.78 87.38 71.78 87.23 71.78"/>
        <line class="cls-1" x1="87.23" y1="71.78" x2="87.23" y2="70.73"/>
        <polyline class="cls-1" points="89.03 70.73 88.88 70.73 88.58 70.73 88.43 70.73 88.13 70.73 87.83 70.73 87.68 70.73 87.38 70.73 87.23 70.73"/>
        <line class="cls-1" x1="79.14" y1="64.74" x2="79.14" y2="74.78"/>
        <polyline class="cls-1" points="79.14 74.78 78.99 74.78 78.84 74.78 78.69 74.78 78.54 74.78 78.39 74.78 78.24 74.78 78.09 74.78"/>
        <line class="cls-1" x1="78.09" y1="74.78" x2="78.09" y2="64.74"/>
        <polyline class="cls-1" points="79.14 64.74 78.99 64.74 78.84 64.74 78.69 64.74 78.54 64.74 78.39 64.74 78.24 64.74 78.09 64.74"/>
        <polyline class="cls-1" points="7.45 80.93 7.6 80.93 7.75 80.93 7.9 80.93 8.35 80.93 8.8 80.93 9.4 80.93 10 80.93 10.75 80.93 11.65 80.93 12.55 80.93 13.6 80.93 14.65 80.93 15.85 80.93 17.2 80.93 18.55 80.93 20.05 80.93 21.55 80.93 23.05 80.93 24.7 80.93 26.5 80.93 28.15 80.93 30.09 80.93 31.89 80.93 33.84 80.93 35.79 80.93 37.74 80.93 39.84 80.93 41.79 80.93 43.89 80.93 45.99 80.93 48.09 80.93 50.19 80.93 52.29 80.93 54.39 80.93 56.49 80.93 58.59 80.93 60.54 80.93 62.64 80.93 64.59 80.93 66.69 80.93 68.49 80.93 70.44 80.93 72.24 80.93 74.04 80.93 75.84 80.93 77.49 80.93 79.14 80.93 80.64 80.93 82.14 80.93 83.64 80.93 84.84 80.93 86.19 80.93 87.23 80.93 88.43 80.93 89.33 80.93 90.23 80.93 90.98 80.93 91.73 80.93 92.33 80.93 92.93 80.93 93.23 80.93 93.53 80.93 93.83 80.93"/>
        <polyline class="cls-1" points="93.83 58.59 93.53 58.59 93.23 58.59 92.93 58.59 92.33 58.59 91.73 58.59 90.98 58.59 90.23 58.59 89.33 58.59 88.43 58.59 87.23 58.59 86.19 58.59 84.84 58.59 83.64 58.59 82.14 58.59 80.64 58.59 79.14 58.59 77.49 58.59 75.84 58.59 74.04 58.59 72.24 58.59 70.44 58.59 68.49 58.59 66.69 58.59 64.59 58.59 62.64 58.59 60.54 58.59 58.59 58.59 56.49 58.59 54.39 58.59 52.29 58.59 50.19 58.59 48.09 58.59 45.99 58.59 43.89 58.59 41.79 58.59 39.84 58.59 37.74 58.59 35.79 58.59 33.84 58.59 31.89 58.59 30.09 58.59 28.15 58.59 26.5 58.59 24.7 58.59 23.05 58.59 21.55 58.59 20.05 58.59 18.55 58.59 17.2 58.59 15.85 58.59 14.65 58.59 13.6 58.59 12.55 58.59 11.65 58.59 10.75 58.59 10 58.59 9.4 58.59 8.8 58.59 8.35 58.59 7.9 58.59 7.75 58.59 7.6 58.59 7.45 58.59"/>
        <polygon class="cls-1" points="54.54 68.63 54.54 69.38 54.39 69.98 54.09 70.58 53.64 71.03 53.19 71.48 52.74 71.93 52.14 72.23 51.54 72.38 50.94 72.53 50.19 72.53 49.59 72.38 48.99 72.08 48.54 71.78 47.94 71.48 47.64 70.88 47.19 70.43 47.04 69.83 46.89 69.08 46.89 68.48 47.04 67.89 47.19 67.29 47.49 66.69 47.79 66.09 48.39 65.64 48.84 65.34 49.44 65.04 50.04 64.89 50.79 64.89 51.39 64.89 51.99 65.04 52.59 65.34 53.04 65.79 53.49 66.09 53.94 66.69 54.24 67.29 54.39 67.89 54.54 68.63"/>
        <polyline class="cls-1" points="86.63 69.83 86.63 70.28 86.63 70.73 86.48 71.33 86.48 71.78 86.19 72.68 85.89 73.43 85.74 73.73 85.44 74.18 85.29 74.33 84.99 74.63 84.69 74.78 84.39 74.93 84.09 74.93 83.79 74.93"/>
        <polyline class="cls-1" points="83.79 74.93 83.49 74.93 83.04 74.93 82.74 74.78 82.44 74.63 81.84 74.18 81.39 73.43 80.94 72.68 80.64 71.78 80.64 71.33 80.49 70.88 80.49 70.43 80.49 69.98"/>
        <polyline class="cls-1" points="80.49 69.98 80.49 69.38 80.49 68.93 80.64 68.33 80.64 67.89 80.94 66.99 81.09 66.54 81.39 66.24 81.84 65.49 82.14 65.19 82.44 65.04 82.74 64.89 83.04 64.74 83.49 64.59 83.79 64.59"/>
        <polyline class="cls-1" points="83.79 64.59 84.09 64.59 84.39 64.74 84.69 64.89 84.99 65.04 85.44 65.49 85.89 66.09 86.19 66.99 86.48 67.89 86.48 68.33 86.63 68.78 86.63 69.23 86.63 69.83"/>
        <polyline class="cls-1" points="91.73 73.73 91.58 74.33 91.28 74.63 91.13 74.93 90.98 74.93 90.83 74.93"/>
        <polyline class="cls-1" points="90.83 74.93 90.68 74.93 90.53 74.93 90.38 74.78 90.23 74.48 89.93 74.18 89.78 73.73 89.63 73.28 89.63 72.98 89.63 72.68 89.63 72.38 89.63 72.08"/>
        <line class="cls-1" x1="89.63" y1="72.08" x2="90.08" y2="71.93"/>
        <polyline class="cls-1" points="90.08 71.93 90.23 72.68 90.38 73.28 90.38 73.58 90.53 73.73 90.83 73.73"/>
        <polyline class="cls-1" points="90.83 73.73 91.13 73.58 91.28 73.43 91.43 73.13 91.43 72.38 91.58 71.48"/>
        <polyline class="cls-1" points="91.58 71.48 91.43 70.58 91.43 70.28 91.43 69.83 91.28 69.53 91.13 69.38 90.83 69.23"/>
        <polyline class="cls-1" points="90.83 69.23 90.68 69.38 90.38 69.53 90.23 69.83 90.23 70.13"/>
        <line class="cls-1" x1="90.23" y1="70.13" x2="89.63" y2="69.98"/>
        <line class="cls-1" x1="89.63" y1="69.98" x2="90.08" y2="64.89"/>
        <polyline class="cls-1" points="91.73 64.89 91.58 64.89 91.43 64.89 91.13 64.89 90.98 64.89 90.83 64.89 90.53 64.89 90.23 64.89 90.08 64.89"/>
        <line class="cls-1" x1="91.73" y1="64.89" x2="91.73" y2="66.24"/>
        <polyline class="cls-1" points="91.73 66.24 91.58 66.24 91.43 66.24 91.28 66.24 91.13 66.24 90.98 66.24 90.83 66.24 90.68 66.24 90.53 66.24"/>
        <line class="cls-1" x1="90.53" y1="66.24" x2="90.23" y2="68.78"/>
        <polyline class="cls-1" points="90.23 68.78 90.53 68.33 90.98 68.04"/>
        <polyline class="cls-1" points="90.98 68.04 91.13 68.18 91.43 68.33 91.58 68.63 91.73 69.08 91.73 69.53 91.88 70.13 91.88 70.43 91.88 70.73 91.88 71.03 91.88 71.33"/>
        <polyline class="cls-1" points="91.88 71.33 91.88 71.78 91.88 72.23 91.88 72.68 91.88 72.98 91.73 73.13 91.73 73.43 91.73 73.73"/>
        <line class="cls-1" x1="93.83" y1="74.93" x2="93.68" y2="74.93"/>
        <polyline class="cls-1" points="93.68 74.93 93.53 74.78 93.53 74.48 93.53 74.18 93.38 73.73 93.38 73.28 93.38 72.98 93.38 72.68 93.38 72.38 93.38 72.08"/>
        <line class="cls-1" x1="93.38" y1="72.08" x2="93.53" y2="71.93"/>
        <polyline class="cls-1" points="93.53 71.93 93.53 72.68 93.53 73.28 93.53 73.58 93.68 73.73"/>
        <line class="cls-1" x1="93.68" y1="73.73" x2="93.83" y2="73.58"/>
        <line class="cls-1" x1="93.83" y1="69.38" x2="93.68" y2="69.23"/>
        <polyline class="cls-1" points="93.68 69.23 93.68 69.38 93.68 69.53 93.53 69.83 93.53 70.13"/>
        <line class="cls-1" x1="93.53" y1="70.13" x2="93.38" y2="69.98"/>
        <line class="cls-1" x1="93.38" y1="69.98" x2="93.53" y2="64.89"/>
        <polyline class="cls-1" points="93.83 64.89 93.68 64.89 93.53 64.89"/>
        <line class="cls-1" x1="93.83" y1="66.24" x2="93.68" y2="66.24"/>
        <line class="cls-1" x1="93.68" y1="66.24" x2="93.53" y2="68.78"/>
        <polyline class="cls-1" points="93.53 68.78 93.68 68.33 93.68 68.04"/>
        <line class="cls-1" x1="93.68" y1="68.04" x2="93.83" y2="68.18"/>
        <polyline class="cls-1" points="7.6 65.94 7.6 65.64 7.6 65.49 7.6 65.34 7.6 65.04 7.6 64.89 7.6 64.74 7.75 64.74"/>
        <polyline class="cls-1" points="7.75 64.74 7.75 64.89 7.9 65.19 7.9 65.49 8.05 65.79 8.05 66.24 8.05 67.29"/>
        <line class="cls-1" x1="8.05" y1="67.29" x2="7.9" y2="67.44"/>
        <polyline class="cls-1" points="7.9 67.44 7.9 66.99 7.9 66.39"/>
        <polyline class="cls-1" points="7.9 66.39 7.75 66.09 7.75 65.94"/>
        <line class="cls-1" x1="7.75" y1="65.94" x2="7.6" y2="65.94"/>
        <polyline class="cls-1" points="7.6 66.24 7.6 66.39 7.6 66.69 7.6 66.84 7.6 67.29 7.6 67.74 7.6 68.18"/>
        <polyline class="cls-1" points="7.6 69.53 7.6 69.38 7.6 68.93 7.6 68.63 7.6 68.33 7.6 68.18 7.75 68.18"/>
        <polyline class="cls-1" points="7.75 68.18 7.75 68.33 7.9 68.48 7.9 68.78 7.9 69.23 8.05 69.68 8.05 70.28 8.05 70.58 8.05 70.88 8.05 71.18 8.05 71.48"/>
        <polyline class="cls-1" points="8.05 71.48 8.05 71.93 8.05 72.38 8.05 72.83 8.05 73.43 7.9 73.88 7.9 74.18 7.9 74.33 7.75 74.63 7.75 74.78 7.75 74.93"/>
        <polyline class="cls-1" points="7.75 74.93 7.6 74.93 7.6 74.63 7.6 74.03 7.6 73.73 7.45 73.43"/>
        <polyline class="cls-1" points="7.45 66.54 7.6 66.24 7.6 65.94"/>
        <line class="cls-1" x1="11.95" y1="70.73" x2="11.95" y2="71.78"/>
        <polyline class="cls-1" points="11.95 71.78 11.65 71.78 11.5 71.78 11.35 71.78 11.05 71.78 10.9 71.78 10.75 71.78 10.6 71.78 10.45 71.78"/>
        <line class="cls-1" x1="10.45" y1="71.78" x2="10.45" y2="70.73"/>
        <polyline class="cls-1" points="11.95 70.73 11.65 70.73 11.5 70.73 11.35 70.73 11.05 70.73 10.9 70.73 10.75 70.73 10.6 70.73 10.45 70.73"/>
        <line class="cls-1" x1="19.45" y1="70.73" x2="19.45" y2="74.78"/>
        <polyline class="cls-1" points="19.45 74.78 19.3 74.78 19.15 74.78 19 74.78 18.85 74.78 18.7 74.78 18.55 74.78 18.4 74.78"/>
        <line class="cls-1" x1="18.4" y1="74.78" x2="18.4" y2="64.74"/>
        <polyline class="cls-1" points="20.95 64.74 20.65 64.74 20.35 64.74 20.05 64.74 19.75 64.74 19.3 64.74 19 64.74 18.7 64.74 18.4 64.74"/>
        <line class="cls-1" x1="20.95" y1="64.74" x2="22.15" y2="64.89"/>
        <polyline class="cls-1" points="22.15 64.89 22.75 65.19 23.2 65.49 23.35 65.79 23.8 66.69 23.8 67.59"/>
        <polyline class="cls-1" points="23.8 67.59 23.8 68.04 23.8 68.48 23.65 68.93 23.5 69.23 23.35 69.53 23.2 69.83 23.05 69.98 22.6 70.28 22.45 70.43 22.15 70.58 21.85 70.58 21.55 70.73 21.1 70.73"/>
        <polyline class="cls-1" points="21.1 70.73 20.95 70.73 20.65 70.73 20.5 70.73 20.2 70.73 20.05 70.73 19.75 70.73 19.6 70.73 19.45 70.73"/>
        <polyline class="cls-1" points="86.48 231.36 86.34 231.36 86.04 231.36 85.74 231.36 85.29 231.36 84.69 231.36 84.09 231.36 83.34 231.36 82.44 231.36 81.54 231.36 80.49 231.36 79.44 231.36 78.24 231.36 77.04 231.36 75.69 231.36 74.19 231.36 72.84 231.36 71.34 231.36 69.69 231.36 68.04 231.36 66.39 231.36 64.59 231.36 62.79 231.36 60.99 231.36 59.19 231.36 57.39 231.36 55.44 231.36 53.49 231.36 51.69 231.36 49.74 231.36 47.79 231.36 45.99 231.36 44.04 231.36 42.24 231.36 40.44 231.36 38.49 231.36 36.84 231.36 35.04 231.36 33.39 231.36 31.74 231.36 30.09 231.36 28.6 231.36 27.1 231.36 25.75 231.36 24.4 231.36 23.2 231.36 22 231.36 20.95 231.36 19.9 231.36 19 231.36 18.1 231.36 17.35 231.36 16.75 231.36 16.15 231.36 15.7 231.36 15.4 231.36 15.1 231.36 14.95 231.36"/>
        <polyline class="cls-1" points="14.95 204.06 14.95 203.91 15.1 203.46 15.25 202.71 15.55 201.81 15.85 200.61 16.15 199.11 16.3 197.61 16.45 195.81 16.6 194.01 16.6 192.21 16.45 190.56 16.3 188.91 16.15 187.41 15.85 185.91 15.55 184.71 15.25 183.66 15.1 183.06 14.95 182.61 14.95 182.46"/>
        <polyline class="cls-1" points="86.48 222.06 86.48 221.91 86.34 221.46 86.04 220.71 85.89 219.66 85.59 218.46 85.29 217.11 85.14 215.46 84.84 213.66 84.84 211.86 84.84 210.06 84.99 208.41 85.14 206.76 85.29 205.26 85.59 203.91 85.89 202.71 86.19 201.66 86.34 200.91 86.48 200.61 86.48 200.46"/>
        <polyline class="cls-1" points="73.59 52.29 74.64 51.69 75.39 50.64 76.14 49.59 76.74 48.09 77.19 46.59 77.34 44.79 77.42 43.89 77.49 42.99 77.49 41.19 77.34 39.54 77.19 37.89 76.74 36.39 76.29 35.04 75.69 33.69 75.14 33.05 74.79 32.64 73.74 31.89 73.67 31.81 73.59 31.74"/>
        <polyline class="cls-1" points="14.95 3.85 15.1 3.85 15.25 3.85 15.4 3.85 15.85 3.85 16.3 3.85 16.9 3.85 17.5 3.85 18.25 3.85 19.15 3.85 20.05 3.85 21.1 3.85 22.3 3.85 23.5 3.85 24.7 3.85 26.05 3.85 27.55 3.85 29.05 3.85 30.54 3.85 32.19 3.85 33.84 3.85 35.49 3.85 37.29 3.85 38.94 3.85 40.89 3.85 42.69 3.85 44.49 3.85 46.44 3.85 48.39 3.85 50.19 3.85 52.14 3.85 54.09 3.85 55.89 3.85 57.84 3.85 59.64 3.85 61.44 3.85 63.24 3.85 65.04 3.85 66.84 3.85 68.49 3.85 70.14 3.85 71.64 3.85 73.14 3.85 74.64 3.85 75.99 3.85"/>
        <polyline class="cls-1" points="75.99 3.85 77.34 3.85 78.54 3.85 79.74 3.85 80.79 3.85 81.84 3.85 82.74 3.85 83.49 3.85 84.24 3.85 84.84 3.85 85.29 3.85 85.74 3.85 86.04 3.85 86.34 3.85 86.48 3.85"/>
        <polyline class="cls-1" points="75.99 31.29 74.79 31.44 73.67 31.81 73.44 31.89 72.09 32.49 70.89 33.54 69.84 34.74 68.79 36.09 68.04 37.74 67.44 39.54 67.14 41.19 67.29 43.14 67.44 44.79 68.04 46.44 68.79 47.94 69.51 49.01 69.69 49.29 70.89 50.64 72.09 51.54 73.44 52.29 73.58 52.33 74.79 52.74 76.14 52.89 77.34 52.74 78.39 52.29 79.44 51.54 80.34 50.64 80.94 49.29 81.54 47.94 81.99 46.29 82.29 44.49 82.44 42.69 82.44 41.04 82.29 39.24 81.99 37.59 81.54 36.09 80.94 34.74 80.19 33.54 79.29 32.49 78.24 31.74 77.19 31.44 75.99 31.29"/>
        <polyline class="cls-1" points="84.24 234.96 84.09 234.96 83.94 234.96 83.64 234.96 83.19 234.96 82.74 234.96 82.14 234.96 81.39 234.96 80.64 234.96 79.74 234.96 78.84 234.96 77.79 234.96 76.59 234.96 75.39 234.96 74.19 234.96 72.69 234.96 71.34 234.96 69.84 234.96 68.34 234.96 66.69 234.96 65.04 234.96 63.39 234.96 61.59 234.96 59.79 234.96 57.99 234.96 56.19 234.96 54.39 234.96 52.59 234.96 50.64 234.96 48.84 234.96 47.04 234.96 45.24 234.96 43.29 234.96 41.49 234.96 39.84 234.96 38.04 234.96 36.39 234.96 34.74 234.96 33.09 234.96 31.59 234.96 30.09 234.96 28.6 234.96 27.25 234.96 26.05 234.96 24.85 234.96 23.65 234.96 22.6 234.96 21.7 234.96 20.8 234.96 20.05 234.96 19.3 234.96 18.7 234.96 18.25 234.96 17.8 234.96 17.5 234.96 17.35 234.96 17.2 234.96"/>
        <polyline class="cls-1" points="15.1 232.86 15.25 232.86 15.4 232.86 15.7 232.86 16.15 232.86 16.6 232.86 17.2 232.86 17.95 232.86 18.7 232.86 19.6 232.86 20.65 232.86 21.7 232.86 22.75 232.86 24.1 232.86 25.3 232.86 26.65 232.86 28.15 232.86 29.65 232.86 31.29 232.86 32.94 232.86 34.59 232.86 36.24 232.86 38.04 232.86 39.84 232.86 41.64 232.86 43.59 232.86 45.39 232.86 47.34 232.86 49.29 232.86 51.24 232.86 53.04 232.86 54.99 232.86 56.94 232.86 58.74 232.86 60.69 232.86 62.49 232.86 64.29 232.86 65.94 232.86 67.74 232.86 69.39 232.86 70.89 232.86 72.54 232.86 74.04 232.86 75.39 232.86 76.74 232.86 77.94 232.86 79.14 232.86 80.34 232.86 81.39 232.86 82.29 232.86 83.04 232.86 83.79 232.86 84.54 232.86 84.99 232.86 85.59 232.86 85.89 232.86 86.19 232.86 86.34 232.86"/>
        <polyline class="cls-1" points="74.94 .25 74.04 .25 73.89 .25"/>
        <polyline class="cls-1" points="74.94 .25 76.14 .25 77.34 .25 78.39 .25 79.44 .25 80.34 .25 81.09 .25 81.84 .25 82.44 .25 83.04 .25 83.49 .25 83.79 .25 83.94 .25 84.09 .25 84.24 .25"/>
        <line class="cls-1" x1="74.94" y1=".4" x2="74.94" y2=".25"/>
        <polyline class="cls-1" points="73.89 .4 74.04 .25 74.94 .4"/>
        <line class="cls-1" x1="73.89" y1=".25" x2="73.89" y2=".4"/>
        <polyline class="cls-1" points="17.2 .25 17.35 .25 17.5 .25 17.8 .25 18.1 .25 18.55 .25 19.15 .25 19.9 .25 20.65 .25 21.4 .25 22.45 .25 23.5 .25 24.55 .25 25.75 .25 27.1 .25 28.45 .25 29.79 .25 31.29 .25 32.79 .25 34.44 .25 36.09 .25 37.74 .25 39.39 .25 41.19 .25 42.99 .25 44.79 .25 46.59 .25 48.54 .25 50.34 .25 52.14 .25 54.09 .25 55.89 .25 57.69 .25 59.49 .25 61.29 .25 62.94 .25 64.74 .25 66.39 .25 68.04 .25 69.54 .25 71.04 .25 72.54 .25 73.89 .25"/>
        <polyline class="cls-1" points="86.34 2.5 86.19 2.5 86.04 2.5 85.74 2.5 85.29 2.5 84.69 2.5 84.09 2.5 83.34 2.5 82.59 2.5 81.69 2.5 80.64 2.5 79.59 2.5 78.39 2.5 77.19 2.5 75.84 2.5"/>
        <polyline class="cls-1" points="75.84 2.5 74.49 2.5 72.99 2.5 71.49 2.5 69.99 2.5 68.34 2.5 66.69 2.5 64.89 2.5 63.09 2.5 61.29 2.5 59.49 2.5 57.54 2.5 55.74 2.5 53.79 2.5 51.84 2.5 50.04 2.5 48.09 2.5 46.14 2.5 44.34 2.5 42.39 2.5 40.59 2.5 38.79 2.5 36.99 2.5 35.19 2.5 33.54 2.5 31.89 2.5 30.24 2.5 28.75 2.5 27.25 2.5 25.9 2.5 24.55 2.5 23.2 2.5 22.15 2.5 20.95 2.5 19.9 2.5 19 2.5 18.25 2.5 17.5 2.5 16.9 2.5 16.3 2.5 15.85 2.5 15.55 2.5 15.25 2.5 15.1 2.5"/>
        <line class="cls-1" x1="71.64" y1="33.09" x2="71.64" y2="43.89"/>
        <polyline class="cls-1" points="71.64 43.89 71.49 44.79 71.34 45.84 71.04 46.74 70.59 47.79 70.14 48.39 69.54 48.99"/>
        <line class="cls-1" x1="64.14" y1="167.92" x2="63.84" y2="164.77"/>
        <line class="cls-1" x1="64.14" y1="167.92" x2="64.59" y2="167.92"/>
        <line class="cls-1" x1="61.74" y1="169.72" x2="64.14" y2="167.92"/>
        <line class="cls-1" x1="63.84" y1="164.77" x2="61.29" y2="163.57"/>
        <line class="cls-1" x1="63.84" y1="164.77" x2="64.29" y2="164.77"/>
        <line class="cls-1" x1="64.29" y1="164.77" x2="61.44" y2="163.42"/>
        <line class="cls-1" x1="64.59" y1="167.92" x2="64.29" y2="164.77"/>
        <line class="cls-1" x1="62.04" y1="169.87" x2="64.59" y2="167.92"/>
        <polyline class="cls-1" points="59.19 168.52 61.74 169.73 62.04 169.87"/>
        <line class="cls-1" x1="58.89" y1="165.22" x2="59.19" y2="168.52"/>
        <line class="cls-1" x1="61.44" y1="163.42" x2="58.89" y2="165.22"/>
        <line class="cls-1" x1="53.49" y1="67.14" x2="50.64" y2="65.49"/>
        <line class="cls-1" x1="53.49" y1="70.28" x2="53.49" y2="67.14"/>
        <line class="cls-1" x1="50.64" y1="71.93" x2="53.49" y2="70.28"/>
        <line class="cls-1" x1="47.94" y1="70.28" x2="50.64" y2="71.93"/>
        <line class="cls-1" x1="47.94" y1="67.14" x2="47.94" y2="70.28"/>
        <line class="cls-1" x1="50.64" y1="65.49" x2="47.94" y2="67.14"/>
        <polyline class="cls-1" points="52.89 104.63 52.89 111.83 52.89 123.53 52.89 130.57"/>
        <polyline class="cls-1" points="61.44 107.63 63.99 107.63 66.54 107.63 68.94 107.63 71.34 107.63 73.74 107.63 76.14 107.63 78.54 107.63 80.79 107.63 83.04 107.63 85.14 107.63"/>
        <polyline class="cls-1" points="85.14 107.63 87.08 107.63 88.88 107.93 90.53 108.38 92.18 108.98 93.53 109.73 94.73 110.78 95.48 111.68 96.08 112.73 96.53 113.78 96.98 114.98 97.28 116.18 97.28 117.53 97.28 118.88 97.13 120.08 96.68 121.13 96.23 122.33 95.63 123.23 94.58 124.58 93.38 125.62 92.03 126.37 90.68 126.97 89.33 127.27 87.23 127.57 85.14 127.72"/>
        <polyline class="cls-1" points="85.14 127.72 83.04 127.72 80.79 127.72 78.54 127.72 76.14 127.72 73.74 127.72 71.34 127.72 68.94 127.72 66.54 127.72 63.99 127.72 61.44 127.72"/>
        <polyline class="cls-1" points="61.44 120.83 61.44 127.42 61.44 127.72"/>
        <polyline class="cls-1" points="61.44 107.63 61.44 107.93 61.44 114.38"/>
        <line class="cls-1" x1="101.03" y1="104.63" x2="101.03" y2="130.57"/>
        <line class="cls-1" x1="52.89" y1="130.57" x2="54.39" y2="132.07"/>
        <polyline class="cls-1" points="99.68 132.07 98.03 132.07 96.23 132.07 94.43 132.07 93.83 132.07 92.48 132.07 90.38 132.07 88.43 132.07 86.34 132.07 84.09 132.07 81.84 132.07 79.59 132.07 77.19 132.07 74.79 132.07 72.39 132.07 69.84 132.07 67.29 132.07 64.74 132.07 62.19 132.07 59.64 132.07 56.94 132.07 54.39 132.07"/>
        <line class="cls-1" x1="101.03" y1="130.57" x2="99.68" y2="132.07"/>
        <polyline class="cls-1" points="52.89 130.57 55.59 130.57 58.29 130.57 60.84 130.57 63.54 130.57 66.09 130.57 68.64 130.57 71.19 130.57 73.74 130.57 76.14 130.57 78.54 130.57 80.94 130.57 83.19 130.57 85.14 130.57 85.44 130.57 87.68 130.57 89.78 130.57 91.88 130.57 93.83 130.57 95.78 130.57 97.58 130.57 99.38 130.57 101.03 130.57"/>
        <line class="cls-1" x1="101.03" y1="104.63" x2="99.68" y2="103.28"/>
        <polyline class="cls-1" points="54.39 103.28 56.94 103.28 59.64 103.28 62.19 103.28 64.74 103.28 67.29 103.28 69.84 103.28 72.39 103.28 74.79 103.28 77.19 103.28 79.59 103.28 81.84 103.28 84.09 103.28 86.34 103.28 88.43 103.28 90.38 103.28 92.48 103.28 93.83 103.28 94.43 103.28 96.23 103.28 98.03 103.28 99.68 103.28"/>
        <line class="cls-1" x1="54.39" y1="103.28" x2="52.89" y2="104.63"/>
        <polyline class="cls-1" points="101.03 104.63 99.38 104.63 97.58 104.63 95.78 104.63 93.83 104.63 91.88 104.63 89.78 104.63 87.68 104.63 87.08 104.63 85.44 104.63 83.19 104.63 80.94 104.63 78.54 104.63 76.14 104.63 73.74 104.63 71.19 104.63 68.64 104.63 66.09 104.63 63.54 104.63 60.84 104.63 58.29 104.63 55.59 104.63 52.89 104.63"/>
        <polygon class="cls-1" points="16.15 112.73 18.25 112.88 20.5 113.48 21.7 113.93 22.75 114.38 23.65 114.98 24.55 115.73 25 116.33 25.3 116.78 25.45 117.23 25.45 117.83 25.3 118.58 25 119.03 24.7 119.33 24.1 119.93 23.5 120.53 21.85 121.43 20.05 122.03 18.4 122.33 16.75 122.48 15.1 122.48 13.75 122.33 12.55 121.88 11.65 121.43 10.9 120.83 10.45 120.23 10 119.63 9.85 119.18 9.7 118.58 9.55 117.98 9.55 117.38 9.7 116.33 10.15 115.43 10.75 114.68 11.35 114.23 12.25 113.63 13.3 113.18 14.8 112.88 16.15 112.73"/>
        <polyline class="cls-1" points="48.39 130.57 48.39 123.53 48.39 111.83 48.39 104.63"/>
        <line class="cls-1" x1=".25" y1="104.63" x2=".25" y2="130.57"/>
        <line class="cls-1" x1="47.04" y1="132.07" x2="48.39" y2="130.57"/>
        <polyline class="cls-1" points=".25 130.57 2.05 130.57 3.7 130.57 5.65 130.57 7.6 130.57 9.55 130.57 11.65 130.57 13.75 130.57 16 130.57 18.25 130.57 20.5 130.57 22.9 130.57 25.3 130.57 27.7 130.57 30.24 130.57 32.79 130.57 35.34 130.57 37.89 130.57 40.59 130.57 43.14 130.57 45.84 130.57 48.39 130.57"/>
        <line class="cls-1" x1="1.75" y1="132.07" x2=".25" y2="130.57"/>
        <polyline class="cls-1" points="47.04 132.07 44.34 132.07 41.79 132.07 39.24 132.07 36.69 132.07 34.14 132.07 31.59 132.07 29.05 132.07 26.65 132.07 24.25 132.07 21.85 132.07 19.6 132.07 17.35 132.07 15.1 132.07 13 132.07 10.9 132.07 8.95 132.07 7.45 132.07 7 132.07 5.2 132.07 3.4 132.07 1.75 132.07"/>
        <line class="cls-1" x1="1.75" y1="103.28" x2=".25" y2="104.63"/>
        <polyline class="cls-1" points="48.39 104.63 45.84 104.63 43.14 104.63 40.59 104.63 37.89 104.63 35.34 104.63 32.79 104.63 30.24 104.63 27.7 104.63 25.3 104.63 22.9 104.63 20.5 104.63 18.25 104.63 16 104.63 13.75 104.63 11.65 104.63 9.55 104.63 7.6 104.63 5.65 104.63 3.7 104.63 2.05 104.63 .25 104.63"/>
        <line class="cls-1" x1="47.04" y1="103.28" x2="48.39" y2="104.63"/>
        <polyline class="cls-1" points="1.75 103.28 3.4 103.28 5.2 103.28 7 103.28 7.45 103.28 8.95 103.28 10.9 103.28 13 103.28 15.1 103.28 17.35 103.28 19.6 103.28 21.85 103.28 24.25 103.28 26.65 103.28 29.05 103.28 31.59 103.28 34.14 103.28 36.69 103.28 39.24 103.28 41.79 103.28 44.34 103.28 47.04 103.28"/>
        <polyline class="cls-1" points="61.44 114.38 61.44 114.53 61.44 115.43 61.44 116.48 61.44 117.38 61.44 118.43 61.44 119.33 61.44 120.38 61.44 120.83"/>
        <polyline class="cls-1" points="73.29 107.93 73.29 108.08 73.29 108.38 73.29 108.68 73.29 109.13 73.29 109.73 73.29 110.33 73.29 111.08 73.29 111.83 73.29 112.73 73.29 113.48 73.29 114.53 73.29 115.43 73.29 116.48 73.29 117.38 73.29 118.43 73.29 119.33 73.29 120.38 73.29 121.28 73.29 122.18 73.29 123.08 73.29 123.83 73.29 124.58 73.29 125.32 73.29 125.92 73.29 126.37 73.29 126.82 73.29 127.12 73.29 127.27 73.29 127.42"/>
        <line class="cls-1" x1="93.23" y1="153.67" x2="93.83" y2="152.92"/>
        <line class="cls-1" x1="7.45" y1="152.92" x2="8.2" y2="153.67"/>
        <line class="cls-1" x1="8.2" y1="81.68" x2="7.45" y2="82.43"/>
        <line class="cls-1" x1="93.83" y1="82.43" x2="93.23" y2="81.68"/>
        <line class="cls-1" x1="7.45" y1="132.07" x2="7.45" y2="152.92"/>
        <line class="cls-1" x1="7.45" y1="82.43" x2="7.45" y2="103.28"/>
        <line class="cls-1" x1="93.83" y1="103.28" x2="93.83" y2="82.43"/>
        <line class="cls-1" x1="93.83" y1="152.92" x2="93.83" y2="132.07"/>
        <polyline class="cls-1" points="7.45 162.37 7.45 164.62 7.45 166.27 7.45 168.67"/>
        <polyline class="cls-1" points="7.45 160.87 7.45 161.47 7.45 162.37"/>
        <polyline class="cls-1" points="7.45 168.67 7.45 169.87 7.45 170.17"/>
        <line class="cls-1" x1="93.83" y1="168.67" x2="93.83" y2="162.37"/>
        <polyline class="cls-1" points="93.83 170.17 93.83 169.57 93.83 169.42 93.83 168.67"/>
        <polyline class="cls-1" points="93.83 162.37 93.83 161.62 93.83 161.47 93.83 160.87"/>
        <line class="cls-1" x1="93.23" y1="177.37" x2="93.83" y2="176.62"/>
        <line class="cls-1" x1="7.45" y1="176.62" x2="8.2" y2="177.37"/>
        <line class="cls-1" x1="8.2" y1="153.67" x2="7.45" y2="154.42"/>
        <line class="cls-1" x1="93.83" y1="154.42" x2="93.23" y2="153.67"/>
        <polyline class="cls-1" points="93.83 176.62 93.83 170.77 93.83 170.62 93.83 170.17"/>
        <polyline class="cls-1" points="93.83 160.87 93.83 160.42 93.83 154.42"/>
        <line class="cls-1" x1="7.45" y1="154.42" x2="7.45" y2="160.87"/>
        <line class="cls-1" x1="7.45" y1="170.17" x2="7.45" y2="176.62"/>
        <line class="cls-1" x1="93.23" y1="81.68" x2="93.83" y2="80.93"/>
        <line class="cls-1" x1="7.45" y1="80.93" x2="8.2" y2="81.68"/>
        <line class="cls-1" x1="8.2" y1="57.84" x2="7.45" y2="58.59"/>
        <line class="cls-1" x1="93.83" y1="58.59" x2="93.23" y2="57.84"/>
        <polyline class="cls-1" points="7.45 58.59 7.45 66.54 7.45 70.13 7.45 73.43 7.45 80.93"/>
        <polyline class="cls-1" points="93.83 80.93 93.83 74.93 93.83 73.73 93.83 73.58 93.83 71.48 93.83 71.33 93.83 69.38 93.83 68.18 93.83 66.24 93.83 64.89 93.83 58.59"/>
        <line class="cls-1" x1="14.95" y1="177.37" x2="14.95" y2="182.46"/>
        <line class="cls-1" x1="14.95" y1="204.06" x2="14.95" y2="231.36"/>
        <line class="cls-1" x1="86.48" y1="231.36" x2="86.48" y2="222.06"/>
        <line class="cls-1" x1="86.48" y1="200.46" x2="86.48" y2="177.37"/>
        <line class="cls-1" x1="86.48" y1="57.84" x2="86.48" y2="3.85"/>
        <line class="cls-1" x1="14.95" y1="3.85" x2="14.95" y2="57.84"/>
        <line class="cls-1" x1="86.34" y1="232.86" x2="86.34" y2="231.36"/>
        <line class="cls-1" x1="15.1" y1="231.36" x2="15.1" y2="232.86"/>
        <line class="cls-1" x1="84.24" y1="234.96" x2="86.34" y2="232.86"/>
        <line class="cls-1" x1="15.1" y1="232.86" x2="17.2" y2="234.96"/>
        <line class="cls-1" x1="17.2" y1=".25" x2="15.1" y2="2.5"/>
        <line class="cls-1" x1="86.34" y1="2.5" x2="84.24" y2=".25"/>
        <line class="cls-1" x1="15.1" y1="2.5" x2="15.1" y2="3.85"/>
        <line class="cls-1" x1="86.34" y1="3.85" x2="86.34" y2="2.5"/>
        <line class="cls-1" x1="48.39" y1="123.53" x2="52.89" y2="123.53"/>
        <line class="cls-1" x1="52.89" y1="111.83" x2="48.39" y2="111.83"/>
        <line class="cls-1" x1="73.29" y1="107.93" x2="61.44" y2="107.93"/>
        <line class="cls-1" x1="61.44" y1="127.42" x2="73.29" y2="127.42"/>
      </g>
    </g>
  </g>
</svg>