<?xml version="1.0" encoding="UTF-8"?>
<svg id="Layer_2" data-name="Layer 2" xmlns="http://www.w3.org/2000/svg" width="59.85933mm" height="22.733mm" viewBox="0 0 169.68 64.44">
  <defs>
    <style>
      .cls-1 {
        fill: #c9b977;
      }

      .cls-2 {
        fill: #9f1d20;
      }

      .cls-3 {
        stroke-width: .96px;
      }

      .cls-3, .cls-4 {
        stroke: #010101;
      }

      .cls-3, .cls-4, .cls-5 {
        fill: none;
      }

      .cls-3, .cls-5 {
        stroke-linecap: round;
        stroke-linejoin: round;
      }

      .cls-4 {
        stroke-miterlimit: 10;
        stroke-width: .48px;
      }

      .cls-6 {
        fill: #81d2e8;
        opacity: .8;
      }

      .cls-5 {
        stroke: #231f20;
        stroke-width: .5px;
      }

      .cls-7 {
        opacity: .85;
      }

      .cls-8 {
        fill: #b12227;
      }
    </style>
  </defs>
  <g id="Bigger_elements" data-name="Bigger elements">
    <g id="AOM">
      <g class="cls-7">
        <g>
          <rect class="cls-8" x="24.96" y=".48" width="144.24" height="2.28"/>
          <path class="cls-2" d="M24.96,2.76h144.24v58.92H24.96V2.76ZM135.76,13.78c-.39,0-.7.32-.7.71s.31.71.7.71.71-.32.71-.71-.32-.71-.71-.71ZM100.43,13.87c-.39,0-.71.31-.71.71,0,.39.32.7.71.7.38,0,.7-.31.7-.7,0-.4-.32-.71-.7-.71ZM118.1,31.55c-.39,0-.7.31-.7.7,0,.4.31.71.7.71s.71-.31.71-.71c0-.39-.32-.7-.71-.7ZM135.81,49.24c-.38,0-.7.32-.7.71s.32.71.7.71c.39,0,.71-.32.71-.71s-.32-.71-.71-.71ZM100.42,49.32c-.39,0-.7.32-.7.71s.31.71.7.71.71-.32.71-.71-.32-.71-.71-.71Z"/>
          <path class="cls-2" d="M135.06,14.49c0-.39.31-.71.7-.71s.71.32.71.71-.32.71-.71.71-.7-.32-.7-.71Z"/>
          <path class="cls-2" d="M99.72,14.58c0-.4.32-.71.71-.71.38,0,.7.31.7.71,0,.39-.32.7-.7.7-.39,0-.71-.31-.71-.7Z"/>
          <polygon class="cls-1" points="22.92 25.56 24.36 25.56 24.36 28.32 24.36 28.44 24.36 28.68 24.36 29.28 24.36 29.76 24.36 30.84 24.36 31.44 24.36 33 24.36 33.6 24.36 35.4 24.36 35.88 24.36 36.24 24.36 38.16 24.36 38.28 24.36 39 24.36 41.04 24.36 41.52 24.36 41.76 24.36 43.68 24.36 43.8 24.36 44.4 24.36 46.08 24.36 46.56 24.36 47.88 24.36 48.36 24.36 49.2 24.36 49.44 24.36 49.68 24.36 49.8 24.36 52.44 22.92 52.44 22.92 49.8 22.92 49.68 22.92 49.44 22.92 49.2 22.92 48.36 22.92 47.88 22.92 46.56 22.92 46.08 22.92 44.4 22.92 43.8 22.92 43.68 22.92 41.76 22.92 41.52 22.92 41.04 22.92 39 22.92 38.28 22.92 38.16 22.92 36.24 22.92 35.88 22.92 35.4 22.92 33.6 22.92 33 22.92 31.44 22.92 30.84 22.92 29.76 22.92 29.28 22.92 28.68 22.92 28.44 22.92 28.32 22.92 25.56"/>
          <polygon class="cls-1" points="20.4 26.04 22.32 26.04 22.32 28.32 22.32 28.68 22.32 28.8 22.32 29.76 22.32 30 22.32 30.84 22.32 31.44 20.4 31.44 19.56 30.6 19.56 30.24 19.56 26.76 20.4 26.04"/>
          <polygon class="cls-1" points="4.2 30.24 19.56 30.24 19.56 30.6 19.56 32.16 4.2 32.16 4.2 30.24"/>
          <polygon class="cls-1" points=".48 31.32 2.76 31.32 2.76 32.16 2.76 37.2 2.76 46.68 .48 46.68 .48 37.2 .48 31.32"/>
          <polygon class="cls-1" points="20.04 32.16 20.4 31.44 22.32 31.44 22.32 31.8 22.32 32.52 22.32 33.6 22.32 34.2 22.32 34.56 22.32 36.24 22.32 36.84 22.32 39 22.32 39.6 22.32 41.52 22.32 41.76 22.32 42.36 22.32 43.8 22.32 44.4 20.4 44.4 19.68 42.96 19.56 42.48 19.56 33.36 19.68 32.88 20.04 32.16"/>
          <polygon class="cls-1" points="4.2 32.16 19.56 32.16 19.56 33.36 19.56 42.48 19.56 45.6 19.56 45.84 4.2 45.84 4.2 32.16"/>
          <polygon class="cls-1" points="3 32.16 4.2 32.16 4.2 45.84 3.6 46.2 3.24 46.44 3.12 46.8 3.36 47.04 3.48 47.16 2.76 46.68 2.76 37.2 2.76 32.16 3 32.16"/>
          <polygon class="cls-1" points="20.4 44.4 22.32 44.4 22.32 44.88 22.32 45.84 22.32 46.56 22.32 47.04 22.32 47.4 22.32 48.36 22.32 48.6 22.32 49.44 22.32 49.56 22.32 49.8 22.32 52.08 20.4 52.08 19.56 50.88 19.56 47.64 19.56 45.84 19.56 45.6 20.4 44.4"/>
          <polygon class="cls-1" points="4.2 45.84 19.56 45.84 19.56 47.64 4.2 47.64 3.72 47.4 3.48 47.16 3.36 47.04 3.12 46.8 3.24 46.44 3.6 46.2 4.2 45.84"/>
          <path class="cls-2" d="M135.11,49.95c0-.39.32-.71.7-.71.39,0,.71.32.71.71s-.32.71-.71.71c-.38,0-.7-.32-.7-.71Z"/>
          <path class="cls-2" d="M99.72,50.03c0-.39.31-.71.7-.71s.71.32.71.71-.32.71-.71.71-.7-.32-.7-.71Z"/>
          <rect class="cls-8" x="24.96" y="61.68" width="144.24" height="2.28"/>
        </g>
        <g>
          <line class="cls-3" x1="22.92" y1="52.44" x2="24.36" y2="52.44"/>
          <line class="cls-3" x1="24.36" y1="25.56" x2="22.92" y2="25.56"/>
          <line class="cls-3" x1="19.56" y1="51.24" x2="19.8" y2="51.48"/>
          <line class="cls-3" x1="19.8" y1="26.52" x2="19.56" y2="26.76"/>
          <line class="cls-3" x1="19.56" y1="30.24" x2="4.2" y2="30.24"/>
          <line class="cls-3" x1="4.2" y1="30.24" x2="2.76" y2="31.32"/>
          <line class="cls-3" x1="2.76" y1="46.68" x2="3.48" y2="47.16"/>
          <line class="cls-3" x1="2.76" y1="31.32" x2=".48" y2="31.32"/>
          <line class="cls-3" x1=".48" y1="46.68" x2="2.76" y2="46.68"/>
          <polyline class="cls-3" points="22.92 25.56 22.92 28.32 22.92 28.44 22.92 28.68 22.92 29.28 22.92 29.76 22.92 30.84 22.92 31.44 22.92 33 22.92 33.6 22.92 35.4 22.92 35.88 22.92 36.24 22.92 38.16 22.92 38.28 22.92 39 22.92 41.04 22.92 41.52 22.92 41.76 22.92 43.68 22.92 43.8 22.92 44.4 22.92 46.08 22.92 46.56 22.92 47.88 22.92 48.36 22.92 49.2 22.92 49.44 22.92 49.68 22.92 49.8 22.92 52.44"/>
          <polyline class="cls-3" points="24.36 25.56 24.36 28.32 24.36 28.44 24.36 28.68 24.36 29.28 24.36 29.76 24.36 30.84 24.36 31.44 24.36 33 24.36 33.6 24.36 35.4 24.36 35.88 24.36 36.24 24.36 38.16 24.36 38.28 24.36 39 24.36 41.04 24.36 41.52 24.36 41.76 24.36 43.68 24.36 43.8 24.36 44.4 24.36 46.08 24.36 46.56 24.36 47.88 24.36 48.36 24.36 49.2 24.36 49.44 24.36 49.68 24.36 49.8 24.36 52.44"/>
          <line class="cls-3" x1="22.32" y1="39" x2="22.92" y2="39"/>
          <polyline class="cls-3" points="22.32 39.6 22.56 40.08 22.68 40.56 22.92 41.04"/>
          <line class="cls-3" x1="24.96" y1="41.04" x2="24.36" y2="41.04"/>
          <polyline class="cls-3" points="24.96 40.44 24.72 39.96 24.48 39.48 24.36 39"/>
          <polyline class="cls-3" points="22.92 38.28 22.68 37.8 22.56 37.32"/>
          <polyline class="cls-3" points="22.32 36.84 22.56 37.32 22.68 37.68 22.92 38.16"/>
          <line class="cls-3" x1="22.32" y1="36.24" x2="22.92" y2="36.24"/>
          <line class="cls-3" x1="24.96" y1="38.16" x2="24.36" y2="38.16"/>
          <line class="cls-3" x1="24.96" y1="38.28" x2="24.36" y2="38.28"/>
          <polyline class="cls-3" points="24.96 37.68 24.72 37.2 24.48 36.72 24.36 36.24"/>
          <line class="cls-3" x1="22.32" y1="41.76" x2="22.92" y2="41.76"/>
          <polyline class="cls-3" points="22.32 42.36 22.56 42.84 22.68 43.2 22.92 43.68"/>
          <line class="cls-3" x1="22.32" y1="41.52" x2="22.92" y2="41.52"/>
          <polyline class="cls-3" points="24.96 43.2 24.72 42.72 24.48 42.24 24.36 41.76"/>
          <polyline class="cls-3" points="24.36 41.52 24.48 42 24.72 42.36 24.96 42.84"/>
          <line class="cls-3" x1="24.96" y1="43.68" x2="24.36" y2="43.68"/>
          <polyline class="cls-3" points="22.92 35.88 22.68 35.4 22.56 34.92 22.32 34.56"/>
          <polyline class="cls-3" points="22.32 34.2 22.56 34.56 22.68 35.04 22.92 35.4"/>
          <line class="cls-3" x1="22.32" y1="33.6" x2="22.92" y2="33.6"/>
          <line class="cls-3" x1="24.96" y1="35.4" x2="24.36" y2="35.4"/>
          <polyline class="cls-3" points="24.96 34.92 24.72 34.44 24.48 34.08 24.36 33.6"/>
          <line class="cls-3" x1="24.96" y1="35.88" x2="24.36" y2="35.88"/>
          <polyline class="cls-3" points="22.68 31.44 22.56 31.08 22.32 30.84"/>
          <polyline class="cls-3" points="22.92 33.6 22.68 33.24 22.56 32.88 22.32 32.52"/>
          <line class="cls-3" x1="22.32" y1="43.8" x2="22.92" y2="43.8"/>
          <line class="cls-3" x1="22.32" y1="45.84" x2="22.8" y2="45.84"/>
          <line class="cls-3" x1="22.32" y1="47.4" x2="22.56" y2="47.4"/>
          <line class="cls-3" x1="24.84" y1="47.88" x2="24.96" y2="48"/>
          <polyline class="cls-3" points="24.48 46.08 24.48 46.2 24.72 46.44 24.96 46.8"/>
          <polyline class="cls-3" points="24.36 43.8 24.48 44.28 24.72 44.64 24.96 45"/>
          <line class="cls-3" x1="24.96" y1="33.6" x2="24.36" y2="33.6"/>
          <line class="cls-3" x1="24.96" y1="31.68" x2="24.48" y2="31.68"/>
          <line class="cls-3" x1="24.96" y1="30.36" x2="24.84" y2="30.36"/>
          <line class="cls-3" x1="22.32" y1="44.4" x2="22.92" y2="44.4"/>
          <polyline class="cls-3" points="22.32 44.88 22.56 45.24 22.68 45.6 22.8 45.84 22.92 46.08"/>
          <polyline class="cls-3" points="24.96 46.08 24.48 46.08 24.36 46.08"/>
          <polyline class="cls-3" points="24.96 45.6 24.72 45.24 24.48 44.76 24.36 44.4"/>
          <polyline class="cls-3" points="22.32 31.8 22.56 32.16 22.68 32.52 22.92 33"/>
          <polyline class="cls-3" points="22.32 31.44 22.68 31.44 22.92 31.44"/>
          <line class="cls-3" x1="24.96" y1="33" x2="24.36" y2="33"/>
          <polyline class="cls-3" points="24.96 32.52 24.72 32.16 24.48 31.8 24.36 31.44"/>
          <line class="cls-3" x1="22.32" y1="46.56" x2="22.92" y2="46.56"/>
          <polyline class="cls-3" points="22.32 47.04 22.56 47.28 22.68 47.64 22.92 47.88"/>
          <polyline class="cls-3" points="24.96 47.88 24.84 47.88 24.36 47.88"/>
          <polyline class="cls-3" points="24.96 47.52 24.72 47.28 24.48 46.92 24.36 46.56"/>
          <polyline class="cls-3" points="22.32 30 22.56 30.24 22.68 30.6 22.92 30.84"/>
          <line class="cls-3" x1="22.32" y1="29.76" x2="22.92" y2="29.76"/>
          <line class="cls-3" x1="24.96" y1="30.84" x2="24.36" y2="30.84"/>
          <polyline class="cls-3" points="24.96 30.48 24.84 30.36 24.72 30.24 24.48 30 24.36 29.76"/>
          <line class="cls-3" x1="22.32" y1="48.36" x2="22.92" y2="48.36"/>
          <polyline class="cls-3" points="22.32 48.6 22.56 48.84 22.68 48.96 22.92 49.2"/>
          <polyline class="cls-3" points="24.96 48.96 24.72 48.72 24.48 48.6 24.36 48.36"/>
          <line class="cls-3" x1="24.96" y1="49.2" x2="24.36" y2="49.2"/>
          <line class="cls-3" x1="22.32" y1="28.68" x2="22.92" y2="28.68"/>
          <polyline class="cls-3" points="22.32 28.8 22.56 28.92 22.68 29.16 22.92 29.28"/>
          <line class="cls-3" x1="24.96" y1="29.28" x2="24.36" y2="29.28"/>
          <polyline class="cls-3" points="24.96 29.04 24.72 28.92 24.48 28.8 24.36 28.68"/>
          <line class="cls-3" x1="22.32" y1="49.44" x2="22.92" y2="49.44"/>
          <polyline class="cls-3" points="22.32 49.56 22.56 49.68 22.92 49.68"/>
          <polyline class="cls-3" points="24.96 49.68 24.72 49.56 24.48 49.56 24.36 49.44"/>
          <polyline class="cls-3" points="24.96 49.68 24.6 49.68 24.36 49.68"/>
          <line class="cls-3" x1="22.68" y1="28.32" x2="22.92" y2="28.32"/>
          <polyline class="cls-3" points="22.32 28.32 22.68 28.32 22.92 28.44"/>
          <line class="cls-3" x1="24.96" y1="28.44" x2="24.36" y2="28.44"/>
          <line class="cls-3" x1="24.6" y1="28.32" x2="24.36" y2="28.32"/>
          <line class="cls-3" x1="22.32" y1="49.8" x2="22.92" y2="49.8"/>
          <polyline class="cls-3" points="24.6 49.68 24.48 49.8 24.36 49.8"/>
          <line class="cls-3" x1="24.96" y1="28.32" x2="24.6" y2="28.32"/>
          <line class="cls-3" x1="24.96" y1="61.68" x2="24.96" y2="63.96"/>
          <line class="cls-3" x1="24.96" y1="63.96" x2="169.2" y2="63.96"/>
          <line class="cls-3" x1="169.2" y1="61.68" x2="169.2" y2="63.96"/>
          <line class="cls-3" x1="24.96" y1=".48" x2="24.96" y2="2.76"/>
          <line class="cls-3" x1="24.96" y1=".48" x2="169.2" y2=".48"/>
          <line class="cls-3" x1="169.2" y1=".48" x2="169.2" y2="2.76"/>
          <line class="cls-3" x1="22.32" y1="44.4" x2="20.4" y2="44.4"/>
          <line class="cls-3" x1="22.32" y1="52.08" x2="20.4" y2="52.08"/>
          <line class="cls-3" x1="20.4" y1="52.08" x2="19.56" y2="50.88"/>
          <polyline class="cls-3" points="19.56 50.88 19.56 47.64 19.56 45.84 19.56 45.6"/>
          <line class="cls-3" x1="19.56" y1="45.6" x2="20.4" y2="44.4"/>
          <polyline class="cls-3" points="22.32 52.08 22.32 49.8 22.32 49.56 22.32 49.44 22.32 48.6 22.32 48.36 22.32 47.4 22.32 47.04 22.32 46.56 22.32 45.84 22.32 44.88 22.32 44.4"/>
          <polyline class="cls-3" points="20.4 44.4 19.68 42.96 19.56 42.48"/>
          <line class="cls-3" x1="19.56" y1="45.6" x2="19.56" y2="42.48"/>
          <polyline class="cls-3" points="19.56 33.36 19.68 32.88 20.04 32.16 20.4 31.44"/>
          <line class="cls-3" x1="22.32" y1="31.44" x2="20.4" y2="31.44"/>
          <line class="cls-3" x1="19.56" y1="42.48" x2="19.56" y2="33.36"/>
          <polyline class="cls-3" points="22.32 44.4 22.32 43.8 22.32 42.36 22.32 41.76 22.32 41.52 22.32 39.6 22.32 39 22.32 36.84 22.32 36.24 22.32 34.56 22.32 34.2 22.32 33.6 22.32 32.52 22.32 31.8 22.32 31.44"/>
          <line class="cls-3" x1="20.4" y1="31.44" x2="19.56" y2="30.6"/>
          <polyline class="cls-3" points="19.56 33.36 19.56 32.16 19.56 30.6"/>
          <line class="cls-3" x1="19.56" y1="26.76" x2="20.4" y2="26.04"/>
          <line class="cls-3" x1="22.32" y1="26.04" x2="20.4" y2="26.04"/>
          <polyline class="cls-3" points="19.56 30.6 19.56 30.24 19.56 26.76"/>
          <polyline class="cls-3" points="22.32 31.44 22.32 30.84 22.32 30 22.32 29.76 22.32 28.8 22.32 28.68 22.32 28.32 22.32 26.04"/>
          <line class="cls-3" x1="19.8" y1="51.48" x2="20.4" y2="52.08"/>
          <polyline class="cls-3" points="19.56 51.24 19.56 51.12 19.56 50.88"/>
          <line class="cls-3" x1="4.2" y1="45.84" x2="19.56" y2="45.84"/>
          <polyline class="cls-3" points="4.2 30.24 4.2 32.16 4.2 45.84"/>
          <line class="cls-3" x1="4.2" y1="47.64" x2="19.56" y2="47.64"/>
          <polyline class="cls-3" points="4.2 47.64 3.72 47.4 3.48 47.16 3.36 47.04 3.12 46.8 3.24 46.44 3.6 46.2 4.2 45.84"/>
          <line class="cls-3" x1="2.76" y1="37.2" x2="2.76" y2="46.68"/>
          <polyline class="cls-3" points="2.76 31.32 2.76 32.16 2.76 37.2"/>
          <line class="cls-3" x1=".48" y1="37.2" x2=".48" y2="46.68"/>
          <line class="cls-3" x1=".48" y1="31.32" x2=".48" y2="37.2"/>
          <line class="cls-3" x1="169.2" y1="61.68" x2="169.2" y2="2.76"/>
          <polyline class="cls-3" points="24.96 61.68 24.96 49.68 24.96 49.2 24.96 48.96 24.96 48 24.96 47.88 24.96 47.52 24.96 46.8 24.96 46.08 24.96 45.6 24.96 45 24.96 43.68 24.96 43.2 24.96 42.84 24.96 41.04 24.96 40.44 24.96 38.28 24.96 38.16 24.96 37.68 24.96 35.88 24.96 35.4 24.96 34.92 24.96 33.6 24.96 33 24.96 32.52 24.96 31.68 24.96 30.84 24.96 30.48 24.96 30.36 24.96 29.28 24.96 29.04 24.96 28.44 24.96 28.32 24.96 2.76"/>
          <line class="cls-3" x1="169.2" y1="2.76" x2="24.96" y2="2.76"/>
          <line class="cls-3" x1="169.2" y1="61.68" x2="24.96" y2="61.68"/>
          <polyline class="cls-4" points="21 32.16 20.04 32.16 19.56 32.16 4.2 32.16 3 32.16"/>
          <path class="cls-4" d="M118.1,31.55c.39,0,.71.31.71.7,0,.4-.32.71-.71.71s-.7-.31-.7-.71c0-.39.31-.7.7-.7Z"/>
          <path class="cls-5" d="M100.42,49.32c.39,0,.71.32.71.71s-.32.71-.71.71-.7-.32-.7-.71.31-.71.7-.71Z"/>
          <path class="cls-5" d="M100.43,13.87c.38,0,.7.31.7.71,0,.39-.32.7-.7.7-.39,0-.71-.31-.71-.7,0-.4.32-.71.71-.71Z"/>
          <path class="cls-5" d="M135.76,13.78c.39,0,.71.32.71.71s-.32.71-.71.71-.7-.32-.7-.71.31-.71.7-.71Z"/>
          <path class="cls-5" d="M135.81,49.24c.39,0,.71.32.71.71s-.32.71-.71.71c-.38,0-.7-.32-.7-.71s.32-.71.7-.71Z"/>
        </g>
      </g>
      <rect class="cls-6" x="115.38473" y="11.12827" width="5.42868" height="42.25"/>
    </g>
  </g>
</svg>