<?xml version="1.0" encoding="UTF-8"?>
<svg id="Layer_2" data-name="Layer 2" xmlns="http://www.w3.org/2000/svg" viewBox="0 0 87.88 55.29">
  <defs>
    <style>
      .cls-1 {
        fill: #3d3d40;
      }

      .cls-2 {
        fill: #bcbec0;
      }

      .cls-3 {
        stroke: #010101;
        stroke-width: .51px;
      }

      .cls-3, .cls-4 {
        fill: none;
        stroke-linecap: round;
        stroke-linejoin: round;
      }

      .cls-4 {
        stroke: #000;
        stroke-width: 1.44px;
      }
    </style>
  </defs>
  <g id="Optical_elements" data-name="Optical elements">
    <g id="LMR1">
      <g>
        <g>
          <path class="cls-2" d="M70.89,6.38v42.53l-5.66,5.66H22.7l-5.66-5.66V6.38L22.7.72h42.53l5.66,5.66ZM66.49,9.93c0-2.65-2.16-4.81-4.81-4.81s-4.81,2.16-4.81,4.81,2.15,4.81,4.81,4.81,4.81-2.15,4.81-4.81ZM66.49,45.36c0-2.66-2.16-4.81-4.81-4.81s-4.81,2.15-4.81,4.81,2.15,4.81,4.81,4.81,4.81-2.15,4.81-4.81ZM61.81,27.65c0-9.86-7.99-17.85-17.84-17.85s-17.85,7.99-17.85,17.84,7.99,17.85,17.84,17.85,17.85-7.98,17.85-17.84ZM31.06,9.93c0-2.65-2.15-4.81-4.81-4.81s-4.81,2.16-4.81,4.81,2.15,4.81,4.81,4.81,4.81-2.15,4.81-4.81ZM31.06,45.36c0-2.66-2.15-4.81-4.81-4.81s-4.81,2.15-4.81,4.81,2.15,4.81,4.81,4.81,4.81-2.15,4.81-4.81Z"/>
          <path class="cls-2" d="M43.97,9.8c9.85,0,17.84,7.99,17.84,17.85s-7.99,17.84-17.85,17.84-17.84-7.99-17.84-17.85,7.99-17.84,17.85-17.84ZM55.25,27.65c0-6.24-5.05-11.29-11.28-11.29s-11.29,5.05-11.29,11.28,5.05,11.29,11.28,11.29,11.29-5.05,11.29-11.28Z"/>
          <path class="cls-2" d="M43.97,16.36c6.23,0,11.28,5.05,11.28,11.29s-5.05,11.28-11.29,11.28-11.28-5.05-11.28-11.29,5.05-11.28,11.29-11.28ZM50.3,27.65c0-3.5-2.83-6.34-6.33-6.34s-6.34,2.83-6.34,6.33h0c0,3.51,2.83,6.34,6.33,6.34,3.5.01,6.34-2.83,6.34-6.33Z"/>
        </g>
        <g>
          <line class="cls-4" x1="17.04" y1="6.38" x2="22.7" y2=".72"/>
          <line class="cls-4" x1="22.7" y1="54.57" x2="17.04" y2="48.91"/>
          <line class="cls-4" x1="70.89" y1="48.91" x2="65.23" y2="54.57"/>
          <line class="cls-4" x1="65.23" y1=".72" x2="70.89" y2="6.38"/>
          <line class="cls-4" x1="17.04" y1="6.38" x2="17.04" y2="48.91"/>
          <line class="cls-4" x1="22.7" y1="54.57" x2="65.23" y2="54.57"/>
          <line class="cls-4" x1="70.89" y1="48.91" x2="70.89" y2="6.38"/>
          <line class="cls-4" x1="65.23" y1=".72" x2="22.7" y2=".72"/>
          <path class="cls-4" d="M37.63,27.65c0,3.5,2.83,6.33,6.33,6.33,3.5.01,6.34-2.83,6.34-6.33s-2.83-6.34-6.33-6.34-6.34,2.83-6.34,6.33"/>
          <path class="cls-4" d="M55.25,27.65c0-6.24-5.05-11.29-11.28-11.29s-11.29,5.05-11.29,11.28,5.05,11.29,11.28,11.29,11.29-5.05,11.29-11.28Z"/>
          <path class="cls-4" d="M61.81,27.65c0-9.86-7.99-17.85-17.84-17.85s-17.85,7.99-17.85,17.84,7.99,17.85,17.84,17.85,17.85-7.98,17.85-17.84Z"/>
          <circle class="cls-4" cx="26.25" cy="9.93" r="4.81"/>
          <circle class="cls-4" cx="61.68" cy="45.36" r="4.81"/>
          <circle class="cls-4" cx="26.25" cy="45.36" r="4.81"/>
          <circle class="cls-4" cx="61.68" cy="9.93" r="4.81"/>
        </g>
      </g>
      <g id="LMR1-2" data-name="LMR1">
        <g>
          <g>
            <g>
              <polygon class="cls-1" points="87.63 15.54 87.63 40.12 87.58 40.12 87.54 40.12 87.45 40.12 87.32 40.12 87.18 40.12 87 40.12 86.78 40.12 86.56 40.12 86.29 40.12 85.98 40.12 85.66 40.12 85.31 40.12 84.95 40.12 84.55 40.12 84.1 40.12 83.66 40.12 83.17 40.12 82.63 40.12 82.09 40.12 58.71 40.12 58.71 15.54 82.09 15.54 82.63 15.54 83.17 15.54 83.66 15.54 84.1 15.54 84.55 15.54 84.95 15.54 85.31 15.54 85.66 15.54 85.98 15.54 86.29 15.54 86.56 15.54 86.78 15.54 87 15.54 87.18 15.54 87.32 15.54 87.45 15.54 87.54 15.54 87.58 15.54 87.63 15.54"/>
              <polygon class="cls-1" points="87.63 40.12 85.44 42.31 85.35 42.31 85.31 42.31 85.17 42.31 85.04 42.31 84.86 42.31 84.68 42.31 84.46 42.31 84.19 42.31 83.92 42.31 83.61 42.31 83.25 42.31 82.9 42.31 82.54 42.31 82.09 42.31 81.65 42.31 81.2 42.31 80.71 42.31 80.18 42.31 57.46 42.31 58.71 40.12 82.09 40.12 82.63 40.12 83.17 40.12 83.66 40.12 84.1 40.12 84.55 40.12 84.95 40.12 85.31 40.12 85.66 40.12 85.98 40.12 86.29 40.12 86.56 40.12 86.78 40.12 87 40.12 87.18 40.12 87.32 40.12 87.45 40.12 87.54 40.12 87.58 40.12 87.63 40.12"/>
              <polygon class="cls-1" points="87.63 15.54 87.58 15.54 87.54 15.54 87.45 15.54 87.32 15.54 87.18 15.54 87 15.54 86.78 15.54 86.56 15.54 86.29 15.54 85.98 15.54 85.66 15.54 85.31 15.54 84.95 15.54 84.55 15.54 84.1 15.54 83.66 15.54 83.17 15.54 82.63 15.54 82.09 15.54 58.71 15.54 57.46 13.39 80.18 13.39 80.71 13.39 81.2 13.39 81.65 13.39 82.09 13.39 82.54 13.39 82.9 13.39 83.25 13.39 83.61 13.39 83.92 13.39 84.19 13.39 84.46 13.39 84.68 13.39 84.86 13.39 85.04 13.39 85.17 13.39 85.31 13.39 85.35 13.39 85.44 13.39 87.63 15.54"/>
              <path class="cls-1" d="M58.71,15.54v24.59h-28.91V15.54h28.91ZM44.89,27.89v-.14s0-.02,0-.02v-.03s-.01-.02-.01-.02v-.02s-.01-.02-.01-.02v-.02s-.01-.02-.01-.02v-.02s-.02-.02-.02-.02v-.02s-.03-.02-.03-.02v-.02s-.03-.02-.03-.02v-.02s-.03-.02-.03-.02v-.02s-.03-.02-.03-.02l-.02-.02-.02-.02h-.01s-.02-.03-.02-.03l-.02-.02h-.02s-.02-.02-.02-.02h-.02s-.02-.02-.02-.02h-.02s-.02-.02-.02-.02h-.02s-.03-.02-.03-.02h-.02s-.02-.01-.02-.01h-.02s-.02,0-.02,0h-.04s-.03,0-.03,0h-.02s-.02,0-.02,0h-.04s-.02,0-.02,0h-.03s-.02,0-.02,0h-.02s-.02,0-.02,0h-.02s-.02.01-.02.01h-.02s-.02.02-.02.02h-.02s-.03.02-.03.02h-.01s-.03.02-.03.02h-.02s-.02.02-.02.02l-.02.02h-.01s-.02.03-.02.03l-.02.02-.02.02-.02.02v.02s-.03.02-.03.02v.02s-.02.02-.02.02l-.02.02v.02s-.02.02-.02.02v.02s-.02.02-.02.02v.02s-.02.02-.02.02v.02s-.01.02-.01.02v.02s0,.03,0,.03v.04s0,.02,0,.02v.12s0,.02,0,.02v.02s0,.03,0,.03v.02s.01.02.01.02v.02s.02.02.02.02v.02s.02.02.02.02v.02s.02.02.02.02l.02.02v.02s.02.02.02.02l.02.02v.02s.03.02.03.02l.02.02h.02s.02.03.02.03h.01s.02.03.02.03h.02s.02.02.02.02h.03s.01.02.01.02h.03s.02.02.02.02h.02s.02.02.02.02h.02s.02.01.02.01h.02s.02,0,.02,0h.02s.03,0,.03,0h.04s.02,0,.02,0h.04s.03,0,.03,0h.04s.02-.01.02-.01h.02s.02-.01.02-.01h.02s.03-.01.03-.01h.02s.02-.02.02-.02h.02s.02-.03.02-.03h.02s.02-.02.02-.02h.02s.02-.03.02-.03h.02s.01-.03.01-.03h.02s.02-.03.02-.03l.02-.02v-.02s.03-.02.03-.02v-.02s.03-.02.03-.02v-.02s.02-.02.02-.02v-.02s.02-.02.02-.02v-.02s.02-.02.02-.02v-.02s.01-.02.01-.02v-.02s0-.03,0-.03v-.02s0-.02,0-.02v-.02Z"/>
              <polygon class="cls-1" points="57.46 13.39 58.71 15.54 29.8 15.54 31.09 13.39 57.46 13.39"/>
              <polygon class="cls-1" points="58.71 40.12 57.46 42.31 31.09 42.31 29.8 40.12 58.71 40.12"/>
              <polygon class="cls-1" points="31.09 13.39 29.8 15.54 6.42 15.54 5.88 15.54 5.39 15.54 4.9 15.54 4.41 15.54 3.97 15.54 3.56 15.54 3.21 15.54 2.85 15.54 2.54 15.54 2.23 15.54 1.96 15.54 1.74 15.54 1.51 15.54 1.33 15.54 1.2 15.54 1.07 15.54 .98 15.54 .93 15.54 .89 15.54 3.07 13.39 3.16 13.39 3.25 13.39 3.34 13.39 3.48 13.39 3.65 13.39 3.88 13.39 4.1 13.39 4.32 13.39 4.64 13.39 4.9 13.39 5.26 13.39 5.62 13.39 6.02 13.39 6.42 13.39 6.87 13.39 7.31 13.39 7.8 13.39 8.34 13.39 31.09 13.39"/>
              <polygon class="cls-1" points="29.8 40.12 31.09 42.31 8.34 42.31 7.8 42.31 7.31 42.31 6.87 42.31 6.42 42.31 6.02 42.31 5.62 42.31 5.26 42.31 4.9 42.31 4.64 42.31 4.32 42.31 4.1 42.31 3.88 42.31 3.65 42.31 3.48 42.31 3.34 42.31 3.25 42.31 3.16 42.31 3.07 42.31 .89 40.12 .93 40.12 .98 40.12 1.07 40.12 1.2 40.12 1.33 40.12 1.51 40.12 1.74 40.12 1.96 40.12 2.23 40.12 2.54 40.12 2.85 40.12 3.21 40.12 3.56 40.12 3.97 40.12 4.41 40.12 4.9 40.12 5.39 40.12 5.88 40.12 6.42 40.12 29.8 40.12"/>
              <polygon class="cls-1" points="29.8 15.54 29.8 40.12 6.42 40.12 5.88 40.12 5.39 40.12 4.9 40.12 4.41 40.12 3.97 40.12 3.56 40.12 3.21 40.12 2.85 40.12 2.54 40.12 2.23 40.12 1.96 40.12 1.74 40.12 1.51 40.12 1.33 40.12 1.2 40.12 1.07 40.12 .98 40.12 .93 40.12 .89 40.12 .89 15.54 .93 15.54 .98 15.54 1.07 15.54 1.2 15.54 1.33 15.54 1.51 15.54 1.74 15.54 1.96 15.54 2.23 15.54 2.54 15.54 2.85 15.54 3.21 15.54 3.56 15.54 3.97 15.54 4.41 15.54 4.9 15.54 5.39 15.54 5.88 15.54 6.42 15.54 29.8 15.54"/>
            </g>
            <g>
              <polyline class="cls-3" points="3.07 13.39 3.16 13.39 3.25 13.39 3.34 13.39 3.48 13.39 3.65 13.39 3.88 13.39 4.1 13.39 4.32 13.39 4.64 13.39 4.9 13.39 5.26 13.39 5.62 13.39 6.02 13.39 6.42 13.39 6.87 13.39 7.31 13.39 7.8 13.39 8.34 13.39"/>
              <polyline class="cls-3" points="80.18 13.39 80.71 13.39 81.2 13.39 81.65 13.39 82.09 13.39 82.54 13.39 82.9 13.39 83.25 13.39 83.61 13.39 83.92 13.39 84.19 13.39 84.46 13.39 84.68 13.39 84.86 13.39 85.04 13.39 85.17 13.39 85.31 13.39 85.35 13.39 85.44 13.39"/>
              <polyline class="cls-3" points="87.63 15.54 87.58 15.54 87.54 15.54 87.45 15.54 87.32 15.54 87.18 15.54 87 15.54 86.78 15.54 86.56 15.54 86.29 15.54 85.98 15.54 85.66 15.54 85.31 15.54 84.95 15.54 84.55 15.54 84.1 15.54 83.66 15.54 83.17 15.54 82.63 15.54 82.09 15.54"/>
              <polyline class="cls-3" points="6.42 15.54 5.88 15.54 5.39 15.54 4.9 15.54 4.41 15.54 3.97 15.54 3.56 15.54 3.21 15.54 2.85 15.54 2.54 15.54 2.23 15.54 1.96 15.54 1.74 15.54 1.51 15.54 1.33 15.54 1.2 15.54 1.07 15.54 .98 15.54 .93 15.54 .89 15.54"/>
              <polyline class="cls-3" points="85.44 42.31 85.35 42.31 85.31 42.31 85.17 42.31 85.04 42.31 84.86 42.31 84.68 42.31 84.46 42.31 84.19 42.31 83.92 42.31 83.61 42.31 83.25 42.31 82.9 42.31 82.54 42.31 82.09 42.31 81.65 42.31 81.2 42.31 80.71 42.31 80.18 42.31"/>
              <polyline class="cls-3" points="8.34 42.31 7.8 42.31 7.31 42.31 6.87 42.31 6.42 42.31 6.02 42.31 5.62 42.31 5.26 42.31 4.9 42.31 4.64 42.31 4.32 42.31 4.1 42.31 3.88 42.31 3.65 42.31 3.48 42.31 3.34 42.31 3.25 42.31 3.16 42.31 3.07 42.31"/>
              <polyline class="cls-3" points=".89 40.12 .93 40.12 .98 40.12 1.07 40.12 1.2 40.12 1.33 40.12 1.51 40.12 1.74 40.12 1.96 40.12 2.23 40.12 2.54 40.12 2.85 40.12 3.21 40.12 3.56 40.12 3.97 40.12 4.41 40.12 4.9 40.12 5.39 40.12 5.88 40.12 6.42 40.12"/>
              <polyline class="cls-3" points="82.09 40.12 82.63 40.12 83.17 40.12 83.66 40.12 84.1 40.12 84.55 40.12 84.95 40.12 85.31 40.12 85.66 40.12 85.98 40.12 86.29 40.12 86.56 40.12 86.78 40.12 87 40.12 87.18 40.12 87.32 40.12 87.45 40.12 87.54 40.12 87.58 40.12 87.63 40.12"/>
              <polygon class="cls-3" points="44.26 28.47 44.28 28.47 44.3 28.46 44.33 28.46 44.35 28.46 44.37 28.45 44.4 28.45 44.42 28.44 44.44 28.44 44.46 28.43 44.49 28.42 44.51 28.41 44.53 28.4 44.55 28.39 44.57 28.38 44.59 28.37 44.61 28.36 44.63 28.35 44.65 28.33 44.67 28.32 44.68 28.3 44.7 28.28 44.72 28.27 44.73 28.25 44.75 28.23 44.76 28.21 44.78 28.19 44.79 28.17 44.8 28.15 44.82 28.13 44.83 28.11 44.83 28.09 44.85 28.07 44.86 28.05 44.86 28.03 44.87 28.01 44.87 27.98 44.88 27.96 44.89 27.94 44.89 27.91 44.89 27.89 44.89 27.87 44.89 27.85 44.89 27.82 44.89 27.79 44.89 27.77 44.89 27.75 44.89 27.73 44.88 27.7 44.87 27.68 44.87 27.65 44.86 27.64 44.86 27.61 44.85 27.59 44.83 27.57 44.83 27.55 44.82 27.53 44.8 27.51 44.79 27.49 44.78 27.47 44.76 27.45 44.75 27.43 44.73 27.41 44.72 27.4 44.7 27.38 44.68 27.36 44.67 27.35 44.65 27.33 44.63 27.32 44.61 27.31 44.59 27.29 44.57 27.28 44.55 27.27 44.53 27.26 44.51 27.25 44.49 27.24 44.46 27.23 44.44 27.23 44.42 27.22 44.4 27.21 44.37 27.21 44.35 27.21 44.33 27.2 44.3 27.2 44.28 27.2 44.26 27.2 44.24 27.2 44.21 27.2 44.19 27.2 44.16 27.21 44.14 27.21 44.12 27.21 44.1 27.22 44.07 27.23 44.05 27.23 44.03 27.24 44.01 27.25 43.99 27.26 43.96 27.27 43.95 27.28 43.92 27.29 43.9 27.31 43.88 27.32 43.86 27.33 43.85 27.35 43.83 27.36 43.82 27.38 43.8 27.4 43.78 27.41 43.77 27.43 43.75 27.45 43.74 27.47 43.73 27.49 43.71 27.51 43.7 27.53 43.69 27.55 43.68 27.57 43.67 27.59 43.66 27.61 43.66 27.64 43.65 27.65 43.64 27.68 43.64 27.7 43.63 27.73 43.63 27.75 43.62 27.77 43.62 27.79 43.62 27.82 43.62 27.85 43.62 27.87 43.62 27.89 43.63 27.91 43.63 27.94 43.64 27.96 43.64 27.98 43.65 28.01 43.66 28.03 43.66 28.05 43.67 28.07 43.68 28.09 43.69 28.11 43.7 28.13 43.71 28.15 43.73 28.17 43.74 28.19 43.75 28.21 43.77 28.23 43.78 28.25 43.8 28.27 43.82 28.28 43.83 28.3 43.85 28.32 43.86 28.33 43.88 28.35 43.9 28.36 43.92 28.37 43.95 28.38 43.96 28.39 43.99 28.4 44.01 28.41 44.03 28.42 44.05 28.43 44.07 28.44 44.1 28.44 44.12 28.45 44.14 28.45 44.16 28.46 44.19 28.46 44.21 28.46 44.24 28.47 44.26 28.47"/>
              <line class="cls-3" x1="57.46" y1="13.39" x2="80.18" y2="13.39"/>
              <line class="cls-3" x1="8.34" y1="13.39" x2="31.09" y2="13.39"/>
              <line class="cls-3" x1="31.09" y1="13.39" x2="29.8" y2="15.54"/>
              <line class="cls-3" x1="58.71" y1="15.54" x2="57.46" y2="13.39"/>
              <line class="cls-3" x1="31.09" y1="13.39" x2="57.46" y2="13.39"/>
              <line class="cls-3" x1="82.09" y1="15.54" x2="58.71" y2="15.54"/>
              <line class="cls-3" x1="58.71" y1="40.12" x2="58.71" y2="15.54"/>
              <line class="cls-3" x1="58.71" y1="15.54" x2="29.8" y2="15.54"/>
              <line class="cls-3" x1="29.8" y1="40.12" x2="29.8" y2="15.54"/>
              <line class="cls-3" x1="29.8" y1="15.54" x2="6.42" y2="15.54"/>
              <line class="cls-3" x1="31.09" y1="42.31" x2="8.34" y2="42.31"/>
              <line class="cls-3" x1="6.42" y1="40.12" x2="29.8" y2="40.12"/>
              <line class="cls-3" x1="58.71" y1="40.12" x2="82.09" y2="40.12"/>
              <line class="cls-3" x1="80.18" y1="42.31" x2="57.46" y2="42.31"/>
              <line class="cls-3" x1="29.8" y1="40.12" x2="31.09" y2="42.31"/>
              <line class="cls-3" x1="57.46" y1="42.31" x2="31.09" y2="42.31"/>
              <line class="cls-3" x1="57.46" y1="42.31" x2="58.71" y2="40.12"/>
              <line class="cls-3" x1="29.8" y1="40.12" x2="58.71" y2="40.12"/>
              <line class="cls-3" x1="3.07" y1="13.39" x2=".89" y2="15.54"/>
              <line class="cls-3" x1="87.63" y1="15.54" x2="85.44" y2="13.39"/>
              <line class="cls-3" x1="87.63" y1="40.12" x2="87.63" y2="15.54"/>
              <line class="cls-3" x1=".89" y1="15.54" x2=".89" y2="40.12"/>
              <line class="cls-3" x1="85.44" y1="42.31" x2="87.63" y2="40.12"/>
              <line class="cls-3" x1=".89" y1="40.12" x2="3.07" y2="42.31"/>
            </g>
          </g>
          <g>
            <g>
              <path class="cls-1" d="M87,15.51v24.59H.25V15.51h86.74ZM44.26,27.87v-.14s0-.02,0-.02v-.03s-.01-.02-.01-.02v-.02s-.01-.02-.01-.02v-.02s-.01-.02-.01-.02v-.02s-.02-.02-.02-.02v-.02s-.03-.02-.03-.02v-.02s-.03-.02-.03-.02v-.02s-.03-.02-.03-.02v-.02s-.03-.02-.03-.02l-.02-.02-.02-.02h-.01s-.02-.03-.02-.03l-.02-.02h-.02s-.02-.02-.02-.02h-.02s-.02-.02-.02-.02h-.02s-.02-.02-.02-.02h-.02s-.03-.02-.03-.02h-.02s-.02-.01-.02-.01h-.02s-.02,0-.02,0h-.04s-.03,0-.03,0h-.02s-.02,0-.02,0h-.04s-.02,0-.02,0h-.03s-.02,0-.02,0h-.02s-.02,0-.02,0h-.02s-.02.01-.02.01h-.02s-.02.02-.02.02h-.02s-.03.02-.03.02h-.01s-.03.02-.03.02h-.02s-.02.02-.02.02l-.02.02h-.01s-.02.03-.02.03l-.02.02-.02.02-.02.02v.02s-.03.02-.03.02v.02s-.02.02-.02.02l-.02.02v.02s-.02.02-.02.02v.02s-.02.02-.02.02v.02s-.02.02-.02.02v.02s-.01.02-.01.02v.02s0,.03,0,.03v.04s0,.02,0,.02v.12s0,.02,0,.02v.02s0,.03,0,.03v.02s.01.02.01.02v.02s.02.02.02.02v.02s.02.02.02.02v.02s.02.02.02.02l.02.02v.02s.02.02.02.02l.02.02v.02s.03.02.03.02l.02.02h.02s.02.03.02.03h.01s.02.03.02.03h.02s.02.02.02.02h.03s.01.02.01.02h.03s.02.02.02.02h.02s.02.02.02.02h.02s.02.01.02.01h.02s.02,0,.02,0h.02s.03,0,.03,0h.04s.02,0,.02,0h.04s.03,0,.03,0h.04s.02-.01.02-.01h.02s.02-.01.02-.01h.02s.03-.01.03-.01h.02s.02-.02.02-.02h.02s.02-.03.02-.03h.02s.02-.02.02-.02h.02s.02-.03.02-.03h.02s.01-.03.01-.03h.02s.02-.03.02-.03l.02-.02v-.02s.03-.02.03-.02v-.02s.03-.02.03-.02v-.02s.02-.02.02-.02v-.02s.02-.02.02-.02v-.02s.02-.02.02-.02v-.02s.01-.02.01-.02v-.02s0-.03,0-.03v-.02s0-.02,0-.02v-.02Z"/>
              <polygon class="cls-1" points="87 40.1 84.81 42.29 84.72 42.29 84.67 42.29 84.54 42.29 84.41 42.29 84.23 42.29 84.05 42.29 83.83 42.29 83.56 42.29 83.29 42.29 82.98 42.29 82.62 42.29 82.27 42.29 81.91 42.29 81.46 42.29 81.02 42.29 80.57 42.29 80.08 42.29 79.54 42.29 56.83 42.29 58.08 40.1 81.46 40.1 82 40.1 82.53 40.1 83.02 40.1 83.47 40.1 83.92 40.1 84.32 40.1 84.67 40.1 85.03 40.1 85.34 40.1 85.66 40.1 85.92 40.1 86.15 40.1 86.37 40.1 86.55 40.1 86.68 40.1 86.82 40.1 86.91 40.1 86.95 40.1 87 40.1"/>
              <polygon class="cls-1" points="87 15.51 86.95 15.51 86.91 15.51 86.82 15.51 86.68 15.51 86.55 15.51 86.37 15.51 86.15 15.51 85.92 15.51 85.66 15.51 85.34 15.51 85.03 15.51 84.67 15.51 84.32 15.51 83.92 15.51 83.47 15.51 83.02 15.51 82.53 15.51 82 15.51 81.46 15.51 58.08 15.51 56.83 13.37 79.54 13.37 80.08 13.37 80.57 13.37 81.02 13.37 81.46 13.37 81.91 13.37 82.27 13.37 82.62 13.37 82.98 13.37 83.29 13.37 83.56 13.37 83.83 13.37 84.05 13.37 84.23 13.37 84.41 13.37 84.54 13.37 84.67 13.37 84.72 13.37 84.81 13.37 87 15.51"/>
              <polygon class="cls-1" points="56.83 13.37 58.08 15.51 29.17 15.51 30.46 13.37 56.83 13.37"/>
              <polygon class="cls-1" points="58.08 40.1 56.83 42.29 30.46 42.29 29.17 40.1 58.08 40.1"/>
              <polygon class="cls-1" points="30.46 13.37 29.17 15.51 5.79 15.51 5.25 15.51 4.76 15.51 4.27 15.51 3.78 15.51 3.33 15.51 2.93 15.51 2.58 15.51 2.22 15.51 1.91 15.51 1.59 15.51 1.33 15.51 1.1 15.51 .88 15.51 .7 15.51 .57 15.51 .43 15.51 .34 15.51 .3 15.51 .25 15.51 2.44 13.37 2.53 13.37 2.62 13.37 2.71 13.37 2.84 13.37 3.02 13.37 3.24 13.37 3.47 13.37 3.69 13.37 4 13.37 4.27 13.37 4.63 13.37 4.98 13.37 5.39 13.37 5.79 13.37 6.23 13.37 6.68 13.37 7.17 13.37 7.71 13.37 30.46 13.37"/>
              <polygon class="cls-1" points="29.17 40.1 30.46 42.29 7.71 42.29 7.17 42.29 6.68 42.29 6.23 42.29 5.79 42.29 5.39 42.29 4.98 42.29 4.63 42.29 4.27 42.29 4 42.29 3.69 42.29 3.47 42.29 3.24 42.29 3.02 42.29 2.84 42.29 2.71 42.29 2.62 42.29 2.53 42.29 2.44 42.29 .25 40.1 .3 40.1 .34 40.1 .43 40.1 .57 40.1 .7 40.1 .88 40.1 1.1 40.1 1.33 40.1 1.59 40.1 1.91 40.1 2.22 40.1 2.58 40.1 2.93 40.1 3.33 40.1 3.78 40.1 4.27 40.1 4.76 40.1 5.25 40.1 5.79 40.1 29.17 40.1"/>
            </g>
            <g>
              <polyline class="cls-3" points="2.44 13.37 2.53 13.37 2.62 13.37 2.71 13.37 2.84 13.37 3.02 13.37 3.24 13.37 3.47 13.37 3.69 13.37 4 13.37 4.27 13.37 4.63 13.37 4.98 13.37 5.39 13.37 5.79 13.37 6.23 13.37 6.68 13.37 7.17 13.37 7.71 13.37"/>
              <polyline class="cls-3" points="79.54 13.37 80.08 13.37 80.57 13.37 81.02 13.37 81.46 13.37 81.91 13.37 82.27 13.37 82.62 13.37 82.98 13.37 83.29 13.37 83.56 13.37 83.83 13.37 84.05 13.37 84.23 13.37 84.41 13.37 84.54 13.37 84.67 13.37 84.72 13.37 84.81 13.37"/>
              <polyline class="cls-3" points="87 15.51 86.95 15.51 86.91 15.51 86.82 15.51 86.68 15.51 86.55 15.51 86.37 15.51 86.15 15.51 85.92 15.51 85.66 15.51 85.34 15.51 85.03 15.51 84.67 15.51 84.32 15.51 83.92 15.51 83.47 15.51 83.02 15.51 82.53 15.51 82 15.51 81.46 15.51"/>
              <polyline class="cls-3" points="5.79 15.51 5.25 15.51 4.76 15.51 4.27 15.51 3.78 15.51 3.33 15.51 2.93 15.51 2.58 15.51 2.22 15.51 1.91 15.51 1.59 15.51 1.33 15.51 1.1 15.51 .88 15.51 .7 15.51 .57 15.51 .43 15.51 .34 15.51 .3 15.51 .25 15.51"/>
              <polyline class="cls-3" points="84.81 42.29 84.72 42.29 84.67 42.29 84.54 42.29 84.41 42.29 84.23 42.29 84.05 42.29 83.83 42.29 83.56 42.29 83.29 42.29 82.98 42.29 82.62 42.29 82.27 42.29 81.91 42.29 81.46 42.29 81.02 42.29 80.57 42.29 80.08 42.29 79.54 42.29"/>
              <polyline class="cls-3" points="7.71 42.29 7.17 42.29 6.68 42.29 6.23 42.29 5.79 42.29 5.39 42.29 4.98 42.29 4.63 42.29 4.27 42.29 4 42.29 3.69 42.29 3.47 42.29 3.24 42.29 3.02 42.29 2.84 42.29 2.71 42.29 2.62 42.29 2.53 42.29 2.44 42.29"/>
              <polyline class="cls-3" points=".25 40.1 .3 40.1 .34 40.1 .43 40.1 .57 40.1 .7 40.1 .88 40.1 1.1 40.1 1.33 40.1 1.59 40.1 1.91 40.1 2.22 40.1 2.58 40.1 2.93 40.1 3.33 40.1 3.78 40.1 4.27 40.1 4.76 40.1 5.25 40.1 5.79 40.1"/>
              <polyline class="cls-3" points="81.46 40.1 82 40.1 82.53 40.1 83.02 40.1 83.47 40.1 83.92 40.1 84.32 40.1 84.67 40.1 85.03 40.1 85.34 40.1 85.66 40.1 85.92 40.1 86.15 40.1 86.37 40.1 86.55 40.1 86.68 40.1 86.82 40.1 86.91 40.1 86.95 40.1 87 40.1"/>
              <polygon class="cls-3" points="43.63 28.44 43.65 28.44 43.67 28.44 43.7 28.44 43.72 28.44 43.74 28.43 43.76 28.43 43.79 28.42 43.81 28.41 43.83 28.41 43.86 28.4 43.88 28.39 43.9 28.38 43.92 28.37 43.94 28.36 43.96 28.35 43.98 28.33 44 28.32 44.02 28.31 44.04 28.29 44.05 28.28 44.07 28.26 44.08 28.24 44.1 28.23 44.12 28.21 44.13 28.19 44.14 28.17 44.16 28.15 44.17 28.13 44.18 28.11 44.2 28.09 44.2 28.07 44.21 28.05 44.22 28.03 44.23 28.01 44.24 27.98 44.24 27.96 44.25 27.94 44.25 27.91 44.25 27.89 44.26 27.87 44.26 27.85 44.26 27.82 44.26 27.8 44.26 27.77 44.26 27.75 44.25 27.73 44.25 27.7 44.25 27.68 44.24 27.65 44.24 27.63 44.23 27.61 44.22 27.59 44.21 27.57 44.2 27.55 44.2 27.53 44.18 27.51 44.17 27.49 44.16 27.47 44.14 27.45 44.13 27.43 44.12 27.41 44.1 27.39 44.08 27.37 44.07 27.36 44.05 27.34 44.04 27.32 44.02 27.31 44 27.29 43.98 27.28 43.96 27.27 43.94 27.26 43.92 27.25 43.9 27.24 43.88 27.23 43.86 27.22 43.83 27.21 43.81 27.2 43.79 27.2 43.76 27.19 43.74 27.19 43.72 27.19 43.7 27.18 43.67 27.18 43.65 27.17 43.63 27.17 43.6 27.17 43.58 27.18 43.56 27.18 43.53 27.19 43.51 27.19 43.49 27.19 43.46 27.2 43.44 27.2 43.42 27.21 43.4 27.22 43.38 27.23 43.36 27.24 43.33 27.25 43.32 27.26 43.29 27.27 43.27 27.28 43.25 27.29 43.23 27.31 43.22 27.32 43.2 27.34 43.18 27.36 43.17 27.37 43.15 27.39 43.14 27.41 43.12 27.43 43.11 27.45 43.1 27.47 43.08 27.49 43.07 27.51 43.06 27.53 43.05 27.55 43.04 27.57 43.03 27.59 43.02 27.61 43.02 27.63 43.01 27.65 43 27.68 43 27.7 43 27.73 42.99 27.75 42.99 27.77 42.99 27.8 42.99 27.82 42.99 27.85 42.99 27.87 43 27.89 43 27.91 43 27.94 43.01 27.96 43.02 27.98 43.02 28.01 43.03 28.03 43.04 28.05 43.05 28.07 43.06 28.09 43.07 28.11 43.08 28.13 43.1 28.15 43.11 28.17 43.12 28.19 43.14 28.21 43.15 28.23 43.17 28.24 43.18 28.26 43.2 28.28 43.22 28.29 43.23 28.31 43.25 28.32 43.27 28.33 43.29 28.35 43.32 28.36 43.33 28.37 43.36 28.38 43.38 28.39 43.4 28.4 43.42 28.41 43.44 28.41 43.46 28.42 43.49 28.43 43.51 28.43 43.53 28.44 43.56 28.44 43.58 28.44 43.6 28.44 43.63 28.44"/>
              <line class="cls-3" x1="56.83" y1="13.37" x2="79.54" y2="13.37"/>
              <line class="cls-3" x1="7.71" y1="13.37" x2="30.46" y2="13.37"/>
              <line class="cls-3" x1="30.46" y1="13.37" x2="29.17" y2="15.51"/>
              <line class="cls-3" x1="58.08" y1="15.51" x2="56.83" y2="13.37"/>
              <line class="cls-3" x1="30.46" y1="13.37" x2="56.83" y2="13.37"/>
              <line class="cls-3" x1="81.46" y1="15.51" x2="58.08" y2="15.51"/>
              <line class="cls-3" x1="58.08" y1="15.51" x2="29.17" y2="15.51"/>
              <line class="cls-3" x1="29.17" y1="15.51" x2="5.79" y2="15.51"/>
              <line class="cls-3" x1="30.46" y1="42.29" x2="7.71" y2="42.29"/>
              <line class="cls-3" x1="5.79" y1="40.1" x2="29.17" y2="40.1"/>
              <line class="cls-3" x1="58.08" y1="40.1" x2="81.46" y2="40.1"/>
              <line class="cls-3" x1="79.54" y1="42.29" x2="56.83" y2="42.29"/>
              <line class="cls-3" x1="29.17" y1="40.1" x2="30.46" y2="42.29"/>
              <line class="cls-3" x1="56.83" y1="42.29" x2="30.46" y2="42.29"/>
              <line class="cls-3" x1="56.83" y1="42.29" x2="58.08" y2="40.1"/>
              <line class="cls-3" x1="29.17" y1="40.1" x2="58.08" y2="40.1"/>
              <line class="cls-3" x1="2.44" y1="13.37" x2=".25" y2="15.51"/>
              <line class="cls-3" x1="87" y1="15.51" x2="84.81" y2="13.37"/>
              <line class="cls-3" x1="87" y1="40.1" x2="87" y2="15.51"/>
              <line class="cls-3" x1=".25" y1="15.51" x2=".25" y2="40.1"/>
              <line class="cls-3" x1="84.81" y1="42.29" x2="87" y2="40.1"/>
              <line class="cls-3" x1=".25" y1="40.1" x2="2.44" y2="42.29"/>
            </g>
          </g>
        </g>
      </g>
    </g>
  </g>
</svg>