<?xml version="1.0" encoding="UTF-8"?>
<svg id="Layer_2" data-name="Layer 2" xmlns="http://www.w3.org/2000/svg" viewBox="0 0 89.32 89.32">
  <defs>
    <style>
      .cls-1, .cls-2, .cls-3 {
        fill: none;
      }

      .cls-1, .cls-4 {
        stroke: #010101;
        stroke-width: .54px;
      }

      .cls-2 {
        stroke-width: 1.08px;
      }

      .cls-2, .cls-3 {
        stroke: #000;
        stroke-linecap: round;
        stroke-linejoin: round;
      }

      .cls-3 {
        stroke-width: 1.44px;
      }

      .cls-4 {
        fill: #c5d2db;
      }

      .cls-5 {
        fill: #bdbec0;
      }
    </style>
  </defs>
  <g id="Optical_elements" data-name="Optical elements">
    <g id="Cube_1_" data-name="Cube 1&amp;apos;&amp;apos;">
      <g>
        <polygon class="cls-5" points="88.6 74.66 88.6 79.35 79.33 88.6 9.97 88.6 .72 79.35 .72 9.99 9.97 .72 79.33 .72 88.6 9.99 88.6 74.04 88.6 74.66"/>
        <g>
          <line class="cls-3" x1="79.33" y1=".72" x2="88.6" y2="9.99"/>
          <line class="cls-3" x1="88.6" y1="79.35" x2="79.33" y2="88.6"/>
          <line class="cls-3" x1=".72" y1="9.99" x2="9.97" y2=".72"/>
          <line class="cls-3" x1="9.97" y1="88.6" x2=".72" y2="79.35"/>
          <line class="cls-3" x1="9.97" y1=".72" x2="79.33" y2=".72"/>
          <line class="cls-3" x1="79.33" y1="88.6" x2="9.97" y2="88.6"/>
          <line class="cls-3" x1="88.6" y1="74.66" x2="88.6" y2="79.35"/>
          <polyline class="cls-3" points="88.6 9.99 88.6 74.04 88.6 74.66"/>
          <line class="cls-3" x1=".72" y1="79.35" x2=".72" y2="9.99"/>
          <polyline class="cls-2" points="44.66 42.31 45.49 42.44 46.05 42.77"/>
          <polyline class="cls-2" points="46.55 43.27 46.7 43.45 46.98 44.25 46.98 45.08 46.7 45.87 46.55 46.05"/>
          <polyline class="cls-2" points="46.05 46.55 45.49 46.88 44.66 47.02 43.88 46.88 43.27 46.55"/>
          <polyline class="cls-2" points="42.77 46.05 42.62 45.87 42.34 45.08 42.34 44.25 42.62 43.45 42.77 43.27"/>
          <polyline class="cls-2" points="43.27 42.77 43.88 42.44 44.66 42.31"/>
        </g>
      </g>
      <g>
        <rect class="cls-4" x="8.66" y="8.66" width="72" height="72"/>
        <line class="cls-1" x1="8.66" y1="8.66" x2="80.66" y2="80.66"/>
      </g>
    </g>
  </g>
</svg>